<?xml version="1.0" standalone="no"?>
<!DOCTYPE svg PUBLIC "-//W3C//DTD SVG 1.1//EN" "http://www.w3.org/Graphics/SVG/1.1/DTD/svg11.dtd" >
<svg xmlns="http://www.w3.org/2000/svg" xmlns:xlink="http://www.w3.org/1999/xlink" version="1.1">
<metadata>
Created by FontForge 20170731 at Thu Oct  1 08:28:56 2020
 By Aleksey,,,
Copyright (c) 2020 by Tom Anders Watkins &#38; Ellen Luff. All rights reserved.
</metadata>
<defs>
<font id="Larken-BlackItalic" horiz-adv-x="0" >
  <font-face 
    font-family="Larken-BlackItalic"
    font-weight="400"
    font-style="italic"
    font-stretch="normal"
    units-per-em="1000"
    panose-1="0 0 10 0 0 0 0 0 0 0"
    ascent="795"
    descent="-205"
    x-height="510"
    cap-height="720"
    bbox="-519 -383 1314.12 1103"
    underline-thickness="50"
    underline-position="-150"
    slope="-15"
    unicode-range="U+0020-FB01"
  />
<missing-glyph horiz-adv-x="510" 
d="M95 -200v1020h323v-1020h-323zM340 9v115h-170v-115h170zM170 -14v-34h72l-72 -48v-34h170v34h-104l71 48h33v34h-170zM340 186v115h-102v-57h34v23h34v-48h-102v82h-34v-115h170zM170 620v-106h170v35h-68v71h-102zM340 647v33h-68v38h68v34h-169v-34h67v-38h-68v-33
h170zM170 415v-34h102v72h68v33h-170v-33h68v-38h-68zM306 358h-136v-35h170v102h-34v-67zM204 91h102v-48h-102v48zM204 585h34v-36h-34v36z" />
    <glyph glyph-name="fi" unicode="fi" horiz-adv-x="732" 
d="M691 168l12 -3q-29 -77 -82.5 -126t-120.5 -49q-68 0 -87.5 53t5.5 128l49 168q17 60 17 121h-154l-107 -399q-37 -137 -140 -202t-227 -49q138 84 183 251l106 399h-77l14 50h77l7 27q15 57 49.5 99t78 63.5t86 31t84.5 9.5q44 0 106 -9t98 -21l-41 -153h-5
q-25 52 -63 93.5t-81 41.5q-84 0 -129 -164l-5 -18h353l-101 -357q-11 -40 15 -38q32 3 80 53z" />
    <glyph glyph-name="fl" unicode="fl" horiz-adv-x="811" 
d="M675 153q-11 -42 16 -39q32 5 79 54l12 -3q-29 -77 -84 -126t-122 -49q-45 0 -70 23.5t-25.5 58t8.5 72.5l135 491q-53 60 -128 60q-102 0 -147 -167l-5 -18h142l-13 -50h-143l-107 -399q-37 -137 -140 -202t-227 -49q138 84 183 251l106 399h-77l14 50h77l7 27
q15 57 49.5 98.5t80 63.5t91 31.5t93.5 9.5q98 0 186 -29l169 39z" />
    <glyph glyph-name=".notdef" horiz-adv-x="510" 
d="M95 -200v1020h323v-1020h-323zM340 9v115h-170v-115h170zM170 -14v-34h72l-72 -48v-34h170v34h-104l71 48h33v34h-170zM340 186v115h-102v-57h34v23h34v-48h-102v82h-34v-115h170zM170 620v-106h170v35h-68v71h-102zM340 647v33h-68v38h68v34h-169v-34h67v-38h-68v-33
h170zM170 415v-34h102v72h68v33h-170v-33h68v-38h-68zM306 358h-136v-35h170v102h-34v-67zM204 91h102v-48h-102v48zM204 585h34v-36h-34v36z" />
    <glyph glyph-name=".null" 
 />
    <glyph glyph-name="uni000D" horiz-adv-x="333" 
 />
    <glyph glyph-name="space" unicode=" " horiz-adv-x="220" 
 />
    <glyph glyph-name="exclam" unicode="!" horiz-adv-x="310" 
d="M145 266q2 46 3 142t4 170t10 142h236q-29 -67 -67 -143t-86 -168t-73 -143h-27zM24 94q11 45 44.5 74.5t70.5 29.5h3q38 -1 54 -26.5t16 -50.5q0 -15 -7.5 -45.5t-41 -59.5t-70.5 -29h-3q-38 1 -54 26t-16 50q0 15 4 31z" />
    <glyph glyph-name="quotedbl" unicode="&#x22;" horiz-adv-x="463" 
d="M368 648q1 48 5 72h160q-8 -24 -33.5 -72t-63.5 -117t-54 -99h-13q0 29 -0.5 81t-0.5 82v53zM175 648q1 48 5 72h160q-8 -24 -33.5 -72t-63.5 -117t-54 -99h-13q0 29 -0.5 81t-0.5 82v53z" />
    <glyph glyph-name="numbersign" unicode="#" horiz-adv-x="623" 
d="M26 264h127l88 192h-138l11 42h146l100 222h46l-100 -222h193l100 222h46l-100 -222h120l-12 -42h-127l-88 -192h138l-11 -42h-146l-100 -222h-46l100 222h-193l-100 -222h-46l100 222h-120zM199 264h193l88 192h-193z" />
    <glyph glyph-name="dollar" unicode="$" horiz-adv-x="611" 
d="M453 728q109 -10 210 -47l-52 -194h-6q-10 12 -41.5 56.5t-62.5 76.5t-64 48l-55 -206l34 -22q91 -59 130 -120.5t16 -140.5q-22 -80 -102.5 -135.5t-196.5 -55.5h-9l-26 -98h-46l27 101q-105 10 -219 61l47 186h7q5 -6 35.5 -45.5t46 -58t45 -44t55.5 -37.5l61 228
q-7 5 -23 15q-100 63 -138 122t-16 140t96.5 126.5t195.5 45.5h6l24 90h46zM343 490l51 190h-9q-36 0 -62.5 -20.5t-34.5 -53.5q-14 -60 55 -116zM376 118q20 72 -51 133l-56 -210h8q31 0 59.5 18t39.5 59z" />
    <glyph glyph-name="percent" unicode="%" horiz-adv-x="769" 
d="M128 565q18 66 73 110.5t107 44.5q53 0 79.5 -36.5t26.5 -74.5q0 -20 -12 -65t-68 -90t-109 -45q-52 0 -78 37t-26 74q0 21 7 45zM417 156q18 66 73.5 110.5t107.5 44.5q53 0 79 -36.5t26 -73.5q0 -21 -6 -45q-17 -66 -73 -111q-57 -45 -109 -45t-78 37t-26 75q0 21 6 44
zM714 720h61l-674 -720h-61zM525 37q37 0 70 119q14 53 14 82q0 36 -29.5 36t-60.5 -118q-15 -54 -15 -84q0 -35 21 -35zM235 446q39 0 70 119q14 54 14 83q0 35 -20 35q-38 0 -69 -118q-15 -55 -15 -85q0 -34 20 -34z" />
    <glyph glyph-name="ampersand" unicode="&#x26;" horiz-adv-x="732" 
d="M8 192q10 36 30.5 64t50 47t55 30.5t62.5 23.5q-11 17 -17.5 27.5t-16 28t-14 32t-7.5 31t-3 31.5q0 4 0.5 15.5t5.5 31.5q13 47 42.5 82.5t69.5 55t83 29t88 9.5q101 0 144 -39t43 -85q0 -17 -5 -37q-16 -58 -65 -94t-139 -66l101 -167q11 14 17 23q10 15 14.5 31.5
t4.5 30.5q0 2 -0.5 10.5t-2 21t-3.5 21.5l-2 8l1 3h160l-1 -3q-72 -49 -130 -127q-20 -27 -39 -51q32 -51 48.5 -65.5t34.5 -14.5q32 0 68 22q-21 -81 -67.5 -121.5t-103.5 -40.5q-48 0 -84 27q-25 19 -43 47q-108 -76 -210 -76q-86 0 -131.5 49.5t-45.5 103.5q0 24 7 51z
M337 559q8 -30 18.5 -49.5t31.5 -54.5q2 -3 3.5 -5.5t2.5 -4.5q54 51 74 124q8 32 8 55q0 56 -50 56q-32 0 -57 -20.5t-33 -48.5q-3 -9 -3 -20q0 -15 5 -32zM200 117q20 -41 76 -41q42 0 87 25l-122 201q-33 -40 -45 -86q-7 -26 -7 -49q0 -28 11 -50z" />
    <glyph glyph-name="quotesingle" unicode="'" horiz-adv-x="258" 
d="M165 648q1 48 5 72h160q-8 -24 -33.5 -72t-63.5 -117t-54 -99h-13q0 29 -0.5 81t-0.5 82v53z" />
    <glyph glyph-name="parenleft" unicode="(" horiz-adv-x="326" 
d="M59 289q18 69 53.5 134.5t76 115.5t87 92.5t86.5 69.5t74 42l7 -10q-84 -71 -145.5 -198.5t-93.5 -245.5q-19 -71 -28 -132.5t-9 -116.5q0 -28 3.5 -86.5t35.5 -107.5l-13 -10q-33 20 -64 57.5t-57.5 97t-29 102t-2.5 54.5q0 64 19 142z" />
    <glyph glyph-name="parenright" unicode=")" horiz-adv-x="326" 
d="M47 44q61 127 93 245q19 71 28.5 133.5t9.5 119.5q0 27 -3.5 84.5t-35.5 106.5l12 10q33 -20 64 -57.5t57.5 -97.5t28.5 -102t2 -53q0 -65 -18 -144q-23 -85 -70 -164t-103 -135.5t-108 -95t-96 -58.5l-8 10q85 71 147 198z" />
    <glyph glyph-name="asterisk" unicode="*" horiz-adv-x="334" 
d="M220 604q-44 19 -73 25l58 73q12 -25 46 -63q4 35 4 63q0 13 -1 25h80q-16 -25 -45 -88q47 32 80 63l20 -73q-40 -8 -87 -25q36 -16 74 -25l-59 -73q-20 32 -46 62q-4 -39 -4 -66q0 -12 1 -21h-80q19 30 43 87q-55 -39 -78 -62l-21 73q37 5 88 25z" />
    <glyph glyph-name="plus" unicode="+" horiz-adv-x="561" 
d="M64 308l13 46h79q67 0 86 2t28 10q9 7 15.5 26t25.5 91l24 89h48l-24 -90q-20 -72 -22.5 -86t-2.5 -20q0 -8 3 -11q5 -8 22 -9.5t86 -1.5h93l-13 -46h-92q-67 0 -86.5 -2t-28.5 -10q-8 -7 -14.5 -24.5t-26.5 -92.5l-23 -89h-48l24 89q20 75 22 87t2 18q0 7 -2 12
q-5 8 -23 10t-86 2h-79z" />
    <glyph glyph-name="comma" unicode="," horiz-adv-x="274" 
d="M-41 -146q48 25 76 63t36 72h-3q-43 0 -59 25t-16 51q0 15 4 33q12 45 45 72.5t70 27.5h3q43 -1 58.5 -30t15.5 -58q0 -22 -6 -49q-16 -69 -66 -128.5t-118 -78.5h-40z" />
    <glyph glyph-name="hyphen" unicode="-" horiz-adv-x="481" 
d="M50 274l13 50h391l-13 -50h-391z" />
    <glyph glyph-name="period" unicode="." horiz-adv-x="263" 
d="M-4 94q11 45 44.5 74.5t70.5 29.5h3q38 -1 53.5 -26.5t15.5 -52.5q0 -13 -3 -29q-11 -45 -44.5 -74t-70.5 -29h-3q-38 1 -53.5 26t-15.5 52q0 13 3 29z" />
    <glyph glyph-name="slash" unicode="/" horiz-adv-x="357" 
d="M-45 0l456 720h48l-456 -720h-48z" />
    <glyph glyph-name="zero" unicode="0" horiz-adv-x="663" 
d="M64 397q37 139 147.5 234t236.5 95q132 0 181 -84t49 -168q0 -67 -22 -149q-37 -140 -147.5 -235t-236.5 -95q-133 0 -181.5 84t-48.5 168q0 67 22 150zM231 101q1 -28 13 -42q11 -14 31 -14t39 14t35.5 42.5t29 56t26.5 70.5t21 68.5t18 66.5q11 39 17.5 65.5t15.5 68
t10.5 63t1.5 37.5q0 12 -1 31.5t-12 33.5t-31 14t-39 -14t-35.5 -42.5t-29 -55.5t-26.5 -70.5t-21 -68.5t-18 -66q-11 -40 -17.5 -66t-15.5 -68t-10.5 -65t-1.5 -41v-18z" />
    <glyph glyph-name="one" unicode="1" horiz-adv-x="388" 
d="M26 0l1 4q0 1 6 11.5t15 27.5t19 37.5t19.5 45t15.5 45.5l106 397h-119l8 30q228 63 355 147l-154 -574q-6 -21 -9.5 -46t-4.5 -44.5t-1.5 -32t-0.5 -17.5q0 -10 0.5 -15t1.5 -8q-1 -2 -1 -4l-1 -4h-256z" />
    <glyph glyph-name="two" unicode="2" horiz-adv-x="588" 
d="M-47 1q387 391 443 596q7 24 7 41q0 42 -40 42q-28 0 -60 -19.5t-67 -57t-57.5 -65t-54.5 -70.5h-4l11 209q163 53 259 53q105 0 160.5 -43t55.5 -101q0 -20 -6 -44q-32 -121 -211 -240q-157 -105 -231 -151h178q120 0 216 75l3 -2l-93 -223h-509z" />
    <glyph glyph-name="three" unicode="3" horiz-adv-x="552" 
d="M65 240h6q25 -122 39 -153q23 -53 63 -53q35 0 61 35t42 94q9 39 9 75q0 2 -0.5 21.5t-23.5 52t-66 49.5l1 4q146 50 185 193q10 33 10 62q0 13 -4.5 39.5t-38.5 26.5q-22 0 -44.5 -13t-55 -50.5t-48.5 -58t-61 -80.5h-6l13 212q128 35 232 35q107 0 159 -46.5t52 -101.5
q0 -25 -8 -52q-22 -72 -89.5 -120t-166.5 -48q102 0 137 -47t35 -94q0 -27 -9 -57q-15 -54 -53 -91.5t-86.5 -54.5t-89.5 -24t-81 -7q-109 0 -217 36z" />
    <glyph glyph-name="four" unicode="4" horiz-adv-x="583" 
d="M-14 172l456 548h161l-133 -498h94l-13 -50h-95v-1q-6 -21 -9.5 -46.5t-4.5 -45.5t-1.5 -34t-0.5 -21t0.5 -11t0.5 -6q0 -5 -1 -7h-250q0 1 6 12t15 28.5t19 38.5t19.5 46t15.5 46l1 1h-280zM279 222l94 350l-294 -350h200z" />
    <glyph glyph-name="five" unicode="5" horiz-adv-x="536" 
d="M-36 34l72 205h5q21 -89 55.5 -146.5t75.5 -57.5q29 0 58 36t51 115q12 48 12 83q0 92 -85 97h-10q-59 0 -142 -33l138 387h266q78 0 170 27l-92 -198h-352l-54 -152q102 53 198 53q60 0 101 -20t57.5 -53.5t19 -59.5t2.5 -35q0 -34 -12 -70q-29 -108 -113 -166t-205 -58
q-126 0 -216 46z" />
    <glyph glyph-name="six" unicode="6" horiz-adv-x="624" 
d="M62 388q40 148 145 245t235 97q110 0 230 -47l-87 -205h-6q-65 205 -140 205q-42 0 -76.5 -68t-74.5 -214q73 47 160 47q96 0 128 -50.5t32 -99.5q0 -29 -9 -61q-30 -110 -121.5 -179.5t-205.5 -69.5q-130 0 -180.5 86.5t-50.5 172.5q0 64 21 141zM226 96q1 -17 5 -32
t13 -22t22 -7q33 0 63.5 42t48.5 108q9 33 12 58t3 43q0 12 -2 33t-17 38.5t-41 17.5q-24 0 -57 -16q-9 -35 -15.5 -59.5t-14 -57.5t-11.5 -55.5t-6.5 -45t-2.5 -36.5v-9z" />
    <glyph glyph-name="seven" unicode="7" horiz-adv-x="542" 
d="M-2 0q6 21 209 251.5t273 298.5h-202q-81 0 -198 -55h-4l132 225h452q-106 -138 -197.5 -292t-141.5 -267q-14 -32 -30 -71.5t-25 -63t-10 -26.5h-258z" />
    <glyph glyph-name="eight" unicode="8" horiz-adv-x="607" 
d="M4 185q13 50 63.5 86t113.5 50q-30 22 -50 53.5t-24.5 60t-4.5 41.5q0 33 13 70q28 84 104.5 133.5t189.5 49.5q110 0 167.5 -43.5t57.5 -98.5q0 -18 -6 -39q-24 -90 -156 -134q38 -26 61.5 -57t31 -60.5t7.5 -55.5q0 -3 -0.5 -18.5t-7.5 -42.5q-18 -68 -69 -112.5
t-111.5 -62t-130.5 -17.5q-118 0 -186 48t-68 110q0 19 5 39zM167 81q25 -45 83 -45q46 0 77 25t41 65q3 12 3 24q0 34 -32 67t-108 73l-5 3q-52 -44 -69 -109q-6 -22 -6 -43q0 -33 16 -60zM289 568q0 -12 3.5 -22.5t7.5 -18.5t13.5 -16.5t17 -14.5t21 -14t22 -12.5
t24.5 -12.5t25 -13q45 40 61 102q9 28 9 52q0 23 -13 53t-67 30q-44 0 -76.5 -23.5t-43.5 -64.5q-4 -13 -4 -25z" />
    <glyph glyph-name="nine" unicode="9" horiz-adv-x="624" 
d="M8 35l87 205h6q65 -205 140 -205q42 0 76.5 68t74.5 214q-73 -47 -160 -47q-96 0 -128 50.5t-32 99.5q0 29 9 61q30 110 121.5 179.5t205.5 69.5q130 0 180.5 -86.5t50.5 -172.5q0 -64 -21 -141q-40 -148 -145 -245t-235 -97q-110 0 -230 47zM289 408q2 -30 17 -47.5
t41 -17.5q24 0 57 16q9 35 15.5 59.5t14 57.5t11.5 55.5t6.5 45t2.5 37.5q0 4 -0.5 14.5t-4.5 25.5t-13 22t-22 7q-33 0 -63.5 -42t-48.5 -108q-9 -33 -11.5 -57t-2.5 -41q0 -14 1 -27z" />
    <glyph glyph-name="colon" unicode=":" horiz-adv-x="261" 
d="M78 405q11 45 44.5 74.5t70.5 29.5h3q38 -1 53.5 -26.5t15.5 -52.5q0 -13 -3 -29q-11 -45 -44.5 -74t-70.5 -29h-3q-38 1 -53.5 26t-15.5 52q0 13 3 29zM-5 94q11 45 44.5 74.5t70.5 29.5h3q38 -1 53.5 -26.5t15.5 -52.5q0 -13 -3 -29q-11 -45 -44.5 -74t-70.5 -29h-3
q-38 1 -53.5 26t-15.5 52q0 13 3 29z" />
    <glyph glyph-name="semicolon" unicode=";" horiz-adv-x="276" 
d="M37 -83q28 38 36 72h-3q-43 0 -59 25t-16 51q0 15 4 33q12 45 45 72.5t70 27.5h3q43 -1 58.5 -30t15.5 -58q0 -22 -6 -49q-16 -69 -66 -128.5t-118 -78.5h-40q48 25 76 63zM79 404q11 45 44.5 74.5t70.5 29.5h3q38 -1 53.5 -26.5t15.5 -52.5q0 -13 -3 -29
q-11 -45 -44.5 -74t-70.5 -29h-3q-38 1 -53.5 26t-15.5 52q0 13 3 29z" />
    <glyph glyph-name="less" unicode="&#x3c;" horiz-adv-x="461" 
d="M367 91l-299 226l8 34l421 226l-16 -58l-343 -185l245 -185z" />
    <glyph glyph-name="equal" unicode="=" horiz-adv-x="551" 
d="M87 392l14 50h450l-14 -50h-450zM41 220l14 50h450l-14 -50h-450z" />
    <glyph glyph-name="greater" unicode="&#x3e;" horiz-adv-x="461" 
d="M7 91l15 58l344 185l-244 185l15 58l300 -226l-10 -34z" />
    <glyph glyph-name="question" unicode="?" horiz-adv-x="551" 
d="M139 468l11 209q138 53 249 53q100 0 150.5 -42.5t50.5 -94.5q0 -19 -6 -41q-5 -17 -13 -32.5t-16 -27t-21.5 -24t-22 -20t-25 -18t-23.5 -14.5t-23.5 -13.5t-20.5 -11.5q-119 -68 -146 -126h-34q-1 11 -1 23q0 64 48 128q12 15 44 50.5t51 63.5t28 61q3 11 4.5 21
t1.5 22q0 4 -0.5 14.5t-11.5 21t-31 10.5q-28 0 -60 -19.5t-67 -57.5t-56.5 -64.5t-54.5 -70.5h-5zM139 94q11 45 44.5 74.5t70.5 29.5h3q38 -1 54 -26.5t16 -50.5q0 -15 -7.5 -45.5t-41 -59.5t-70.5 -29h-3q-38 1 -54 26t-16 50q0 15 4 31z" />
    <glyph glyph-name="at" unicode="@" horiz-adv-x="910" 
d="M79 337q0 171 116 291.5t291 120.5q116 0 212 -51.5t143.5 -133.5t47.5 -168q0 -17 -2 -34q-11 -117 -70 -182t-167 -65q-80 0 -121 32t-41 81q0 5 1 11q-71 -96 -146 -96q-68 0 -79.5 48.5t-11.5 73.5q0 58 29 131q37 91 91 126t108 35q74 0 99 -45q45 11 117 40h18
l-74 -275q-6 -24 -6 -42q0 -25 17 -42t51 -17q52 0 87.5 46.5t44.5 138.5q2 18 2 36q0 119 -96 212t-254 93q-155 0 -254.5 -106t-99.5 -259q0 -152 89 -248.5t261 -96.5q84 0 164 40l10 -50q-79 -37 -174 -37q-192 0 -297.5 111t-105.5 281zM402 241q5 -13 20 -13
q24 1 51.5 35t50.5 109l33 117q-6 21 -28 21q-47 0 -94 -120q-14 -35 -22 -62t-11 -44t-3 -25q0 -11 3 -18z" />
    <glyph glyph-name="A" unicode="A" horiz-adv-x="693" 
d="M-63 0l1 4q78 99 163 240l199 329q11 18 17.5 39t8.5 38.5t2 32t-1 23.5l-1 10l1 4h211l47 -542q10 -106 36 -174l-1 -4h-281l1 4q0 1 6.5 12.5t15 29t17 38.5t13 46.5t2.5 47.5l-5 65h-231l-18 -31q-16 -26 -24.5 -56.5t-10.5 -55.5t-1 -46t3 -35l2 -14l-1 -5h-171z
M189 293h195l-24 284z" />
    <glyph glyph-name="B" unicode="B" horiz-adv-x="662" 
d="M-29 0l1 4q0 1 6 11.5t15 27.5t18.5 37.5t19 45t15.5 45.5l101 378q9 34 12 74.5t3 66v26.5l2 4h347q95 0 146.5 -55.5t29.5 -138.5q-30 -114 -187 -160q70 -17 108.5 -64.5t17.5 -124.5q-23 -85 -102.5 -131t-185.5 -46h-367zM300 386h54q43 0 77 45t49 98q6 31 8 62.5
t-13 55.5t-44 24h-55zM210 49h73q102 0 139 139q41 150 -62 150h-73z" />
    <glyph glyph-name="C" unicode="C" horiz-adv-x="649" 
d="M306 -12q-150 0 -219.5 105t-26.5 266q46 172 158 271.5t272 99.5q83 0 232 -39l-58 -219h-6q-78 212 -168 212q-59 0 -115.5 -89t-95.5 -236q-35 -119 -24 -221.5t68 -102.5q89 0 282 224h6l-59 -221q-138 -50 -246 -50z" />
    <glyph glyph-name="D" unicode="D" horiz-adv-x="719" 
d="M-30 0l2 4l4 6q3 7 8 16t11.5 21.5t13.5 27.5t14 30.5t13 32.5t10 33l101 378q6 21 9.5 46t4.5 44.5t1.5 38t-0.5 27t0 11.5l1 4h306q147 0 217 -103t23 -279q-41 -153 -164 -245.5t-269 -92.5h-306zM209 46h22q50 0 94 27t76.5 73.5t56 100t39.5 114.5q16 59 20.5 111.5
t-2.5 100t-36.5 75t-79.5 27.5h-22z" />
    <glyph glyph-name="E" unicode="E" horiz-adv-x="603" 
d="M-30 0l1 4q0 1 6 11.5t15 27.5t18.5 37.5t19 45t15.5 45.5l101 378q9 34 12.5 74.5t3.5 66v26.5l1 4h523l-58 -217h-4q-1 0 -9.5 17.5t-23 42.5t-33 50t-44 42.5t-52.5 17.5h-86l-77 -286h9q26 0 57.5 6.5t58.5 15.5t49.5 18t36.5 15.5t15 6.5h5l-44 -164h-5
q-1 0 -11.5 6.5t-28 15.5t-39.5 18t-50 15.5t-55 6.5h-8l-81 -300h90q26 0 61.5 17.5t67 42.5t59.5 50.5t45.5 43t18.5 17.5h5l-59 -218h-526z" />
    <glyph glyph-name="F" unicode="F" horiz-adv-x="576" 
d="M-30 0l1 4q0 1 6 11.5t15 27.5t19 37.5t19.5 45t15.5 45.5l101 378q6 21 9.5 46t4.5 44.5t1.5 38t-0.5 27t0 11.5l1 4h507l-54 -202h-5q-1 0 -10 16t-23.5 39t-33.5 45.5t-45.5 38.5t-52.5 16h-75l-69 -282h2q40 4 88.5 19.5t80.5 29.5l32 13h5l-44 -164h-5l-25 13
q-25 14 -65.5 29.5t-77.5 19.5h-2l-94 -351h-227z" />
    <glyph glyph-name="G" unicode="G" horiz-adv-x="714" 
d="M301 -11q-147 0 -215.5 103.5t-25.5 267.5q44 168 158 269t260 101q56 0 128 -15t131 -41l-58 -215h-8q-1 2 -12 34t-23.5 59.5t-32.5 60t-49.5 51.5t-63.5 20q-62 1 -116 -82t-96 -242q-40 -142 -28.5 -232t78.5 -90q42 0 91 18l39 146q6 24 5 46.5t-6.5 44t-12 38
t-11 27t-4.5 11.5l1 4h284l-1 -4q0 -1 -4.5 -11.5t-11.5 -27.5t-14.5 -37.5t-15.5 -45t-14 -45.5l-36 -134q-46 -27 -141 -53t-175 -26z" />
    <glyph glyph-name="H" unicode="H" horiz-adv-x="726" 
d="M-30 0l1 4q0 1 6 11.5t15 27.5t18.5 37.5t19 45t15.5 45.5l101 378q6 21 9.5 46t4.5 44.5t2 38t0 27t0 11.5l1 4h255l-1 -4l-13 -26q-14 -26 -32.5 -66.5t-28.5 -74.5l-50 -165h210l38 165q5 21 8.5 45.5t5 45t2 37.5t0.5 27.5v11.5l1 4h255l-1 -4q0 -1 -6 -11.5
t-15 -27.5t-18.5 -37.5t-19 -45t-15.5 -45.5l-101 -378q-6 -21 -9.5 -46t-4.5 -44.5t-2 -38t0 -27t0 -11.5l-1 -4h-255l1 4l14 26q13 26 31.5 66.5t28.5 74.5l50 163h-211l-37 -163q-5 -21 -8 -45.5t-4.5 -45t-2 -37.5t-1 -27.5t-0.5 -11.5l-1 -4h-255z" />
    <glyph glyph-name="I" unicode="I" horiz-adv-x="330" 
d="M-30 0l1 4q0 1 6 11.5t15 27.5t18.5 37.5t19 45t15.5 45.5l101 378q6 21 9.5 46t4.5 44.5t2 38t0 27t0 11.5l1 4h254l-1 -4q0 -1 -6 -11.5t-15 -27.5t-18.5 -37.5t-19 -45t-15.5 -45.5l-101 -378q-6 -21 -9.5 -46t-4.5 -44.5t-1.5 -38t0 -27t-0.5 -11.5l-1 -4h-254z" />
    <glyph glyph-name="J" unicode="J" horiz-adv-x="317" 
d="M-181 -200q161 108 218 321l116 428q6 21 9.5 45.5t4.5 45t1 37.5v27.5v11.5l1 4h243l-1 -4q0 -1 -6 -11.5t-14.5 -27.5t-18.5 -37.5t-19.5 -45t-15.5 -45.5l-116 -428q-19 -71 -54 -127.5t-76 -92t-89.5 -59t-93.5 -33t-89 -9.5z" />
    <glyph glyph-name="K" unicode="K" horiz-adv-x="733" 
d="M-30 0l1 4q0 1 6 11.5t15 27.5t18.5 37.5t19 45t15.5 45.5l102 378q6 21 9.5 46t4.5 44.5t1.5 38t-0.5 27t0 11.5l1 4h255l-1 -4q0 -1 -6 -11.5t-15 -27.5t-18.5 -37.5t-19 -45t-15.5 -45.5l-101 -378q-6 -21 -9.5 -45.5t-4.5 -45t-1 -37.5v-27.5v-11.5l-2 -4h-255z
M379 0q2 8 4.5 26t2 55.5t-10.5 66.5l-73 206q-1 7 5 12l216 166q95 72 95 182l1 6h226l-1 -5q-66 -38 -169 -120l-204 -168l119 -295q11 -27 28.5 -58.5t29 -50t11.5 -19.5l-1 -4h-279z" />
    <glyph glyph-name="L" unicode="L" horiz-adv-x="565" 
d="M-28 0l1 4q0 1 6 11.5t15 27.5t19 37.5t19.5 45t15.5 45.5l101 378q6 21 9.5 46t4.5 44.5t1.5 38t-0.5 27t0 11.5l1 4h256l-1 -4q0 -1 -6 -11.5t-15 -27.5t-19 -37.5t-19.5 -45t-15.5 -45.5l-134 -502h67q26 0 62 19t68.5 46.5t61 55t46.5 46.5t19 19h4l-62 -233h-505z
" />
    <glyph glyph-name="M" unicode="M" horiz-adv-x="885" 
d="M-30 0l2 6q0 1 10.5 17t25.5 41.5t32 56t32.5 67.5t24.5 69l79 292q6 21 8 45.5t1 45t-3 37.5t-3.5 27.5t-1.5 11.5l1 4h229l53 -453l281 453h231l-1 -4q0 -1 -6 -11.5t-15 -27.5t-19 -37.5t-19.5 -45t-15.5 -45.5l-105 -378q-6 -21 -9.5 -45.5t-4.5 -45t-1 -37.5v-27.5
v-11.5l-1 -4h-257l1 4q0 1 6 11.5t14.5 27.5t18.5 37.5t19.5 45t15.5 45.5l113 399l-354 -570h-53l-67 570l-84 -313q-9 -32 -12.5 -69t-3 -67.5t2.5 -56t3.5 -41.5t1.5 -17l-2 -6h-168z" />
    <glyph glyph-name="N" unicode="N" horiz-adv-x="709" 
d="M-43 0l2 6q0 1 10.5 17t26 41.5t32.5 56t33 67.5t24 69l78 292q6 21 8 45.5t1 45t-3 37.5t-3.5 27.5t-1.5 11.5l1 4h208l191 -499l65 243q13 50 15.5 110.5t-0.5 99.5l-3 40l1 6h167l-2 -6l-25 -39q-25 -39 -56 -100t-45 -111l-124 -464h-114l-220 582l-88 -325
q-13 -50 -14.5 -111t2.5 -100l4 -40l-1 -6h-169z" />
    <glyph glyph-name="O" unicode="O" horiz-adv-x="734" 
d="M568 86q-118 -101 -266 -99t-215 106t-25 272q43 169 160 269t266 97q147 -3 214.5 -106.5t25.5 -270.5q-42 -168 -160 -268zM314 33q30 0 62 32.5t57.5 84.5t45 105.5t32.5 103.5q17 69 24 139t-6 127.5t-53 58.5q-30 1 -62 -32t-57.5 -84.5t-45 -105t-32.5 -103.5
q-17 -69 -24 -139.5t6.5 -128.5t52.5 -58z" />
    <glyph glyph-name="P" unicode="P" horiz-adv-x="637" 
d="M-30 0l1 4q0 1 6 11.5t15 27.5t18.5 37.5t19 45t15.5 45.5l101 378q6 21 9.5 46t4.5 44.5t1.5 38t0 27t0.5 11.5l1 4h350q100 0 147 -63.5t21 -161.5q-15 -59 -49 -103t-78.5 -67.5t-91.5 -34.5t-97 -11l-96 1l-28 -109q-9 -34 -12.5 -74.5t-3.5 -66v-26.5l-1 -4h-254z
M283 330h57q87 0 136 174q7 26 10.5 49.5t3.5 52t-15 46t-44 17.5h-57z" />
    <glyph glyph-name="Q" unicode="Q" horiz-adv-x="746" 
d="M728 354q-39 -155 -143.5 -253.5t-239.5 -111.5q34 -37 66 -50q83 -33 226 40l2 -3l-119 -176q-90 0 -150 37q-39 24 -58.5 64t-15.5 86q-145 5 -210.5 108t-23.5 270q43 169 160 269t266 97q147 -3 214.5 -106.5t25.5 -270.5zM511 359q17 69 24 139t-6 127.5t-53 58.5
q-30 1 -62 -32t-57.5 -84.5t-45 -105t-32.5 -103.5q-17 -69 -24 -139.5t6.5 -128.5t52.5 -58q30 0 62 32.5t57.5 84.5t45 105.5t32.5 103.5z" />
    <glyph glyph-name="R" unicode="R" horiz-adv-x="709" 
d="M-30 0l1 4q0 1 6 11.5t15 27.5t18.5 37.5t19 45t15.5 45.5l102 378q6 21 9.5 46t4.5 44.5t1.5 38t-0.5 27t0 11.5l1 4h355q101 0 146 -54.5t20 -148.5q-19 -73 -86 -115.5t-169 -49.5q97 -19 121 -116q5 -19 14.5 -77t21.5 -92.5t35 -61.5l-1 -5h-207q-24 27 -44 177
q-17 126 -83 157l-1 -3l-43 -160q-6 -21 -9.5 -46t-4.5 -44.5t-1.5 -38t0.5 -27t0 -11.5l-1 -4h-256zM298 380h61q84 0 122 144q19 65 9 110t-51 45h-61z" />
    <glyph glyph-name="S" unicode="S" horiz-adv-x="611" 
d="M263 -12q-129 0 -273 64l47 186h7q7 -9 29 -37.5t35 -45t36.5 -41t42 -38.5t43 -24.5t47.5 -10.5q31 0 59.5 18t39.5 59q14 51 -14 92.5t-98 85.5q-100 63 -138 122t-16 140t96.5 126.5t195.5 45.5q127 0 261 -49l-52 -194h-6q-11 13 -40 53t-51 66.5t-58 50t-71 23.5
q-36 0 -62.5 -20.5t-34.5 -53.5q-11 -47 20.5 -82t107.5 -84q91 -59 130 -120.5t16 -140.5q-22 -80 -102.5 -135.5t-196.5 -55.5z" />
    <glyph glyph-name="T" unicode="T" horiz-adv-x="651" 
d="M130 0l1 4q0 1 6 11.5t15 27.5t18.5 37.5t19 45t15.5 45.5l134 498h-9q-26 0 -61.5 -20.5t-68.5 -50.5t-61.5 -59.5t-47 -50t-19.5 -20.5h-4l67 252h631l-68 -252h-5q-1 0 -8 20.5t-19.5 50t-29.5 59.5t-41.5 50.5t-50.5 20.5h-9l-133 -498q-6 -21 -9.5 -46t-4.5 -44.5
t-1.5 -38t0 -27t-0.5 -11.5l-1 -4h-255z" />
    <glyph glyph-name="U" unicode="U" horiz-adv-x="692" 
d="M304 -12q-43 0 -82 9.5t-75.5 31.5t-57 58.5t-27.5 90t14 126.5l65 245q6 21 9.5 46t4.5 44.5t1.5 38t0 27t0.5 11.5l1 4h254l-1 -4q0 -1 -6 -11.5t-15 -27.5t-18.5 -37.5t-19 -45t-15.5 -45.5l-72 -269q-28 -105 -0.5 -157.5t92.5 -52.5t121.5 52t82.5 151l51 191
q13 50 14.5 111t-2.5 100l-4 39l2 6h169l-1 -6q0 -1 -10.5 -17t-26 -41.5t-32.5 -55.5t-33 -67t-24 -69l-51 -191q-77 -285 -309 -285z" />
    <glyph glyph-name="V" unicode="V" horiz-adv-x="722" 
d="M222 0l-54 542q-4 34 -13 76.5t-16 69t-7 27.5l1 5h285l-1 -4q0 -1 -6.5 -12.5t-15.5 -29t-17.5 -38.5t-13.5 -46.5t-3 -47.5l39 -419l234 385q16 26 26 56.5t12.5 56t3 46t-0.5 34.5l-1 14l2 5h163l-1 -4q-1 -2 -27.5 -38.5t-68 -95.5t-69.5 -106l-290 -476h-161z" />
    <glyph glyph-name="W" unicode="W" horiz-adv-x="976" 
d="M203 0l-42 557q-2 20 -5.5 44t-8 43t-8.5 35.5t-6.5 26t-2.5 10.5l1 4h281l-1 -4l-7 -12q-6 -11 -14.5 -29t-17 -39.5t-13.5 -47t-4 -47.5l19 -300l146 254l-5 62q-2 20 -6 43.5t-8.5 43t-8.5 35.5t-7 25.5t-3 10.5l2 5h281l-2 -5l-2 -4q-2 -4 -5 -9t-6.5 -12.5
t-7.5 -16.5t-8.5 -19.5t-8.5 -21.5t-7 -23.5t-5.5 -24t-3.5 -24.5t0 -24l20 -312l166 283q15 26 25.5 56.5t14 56.5t4.5 47t1 35l-1 14l1 4h154l-1 -5q0 -1 -19 -25t-47 -63t-46 -71l-323 -556h-103l-30 405l-232 -405h-90z" />
    <glyph glyph-name="X" unicode="X" horiz-adv-x="681" 
d="M-59 0l1 5q0 1 20 18t50.5 44t50.5 48l213 221l-85 265q-7 22 -21 50t-23.5 45.5t-9.5 18.5l1 5h296l-1 -4l-5 -11q-5 -11 -10.5 -27t-10 -36t-4 -43t6.5 -43l32 -100l91 89q21 20 35 44.5t19.5 45.5t7.5 38.5t2 29.5v12l2 5h184l-2 -5q0 -1 -19 -18t-49 -44.5t-51 -48.5
l-202 -201l84 -254q9 -28 24.5 -63.5t26 -57.5t10.5 -23l-1 -5h-292l1 5l3 9q4 9 9 21t9.5 29.5t6.5 35.5t0.5 39.5t-8.5 39.5l-38 103l-122 -123q-18 -18 -30.5 -40.5t-16.5 -41t-6 -36t-0.5 -26t-0.5 -11.5l-1 -4h-177z" />
    <glyph glyph-name="Y" unicode="Y" horiz-adv-x="660" 
d="M141 0l1 4q0 1 6 11.5t15 27.5t18.5 37.5t19 45t15.5 45.5l29 109l-68 283q-6 30 -17.5 67.5t-19.5 60.5t-8 24l2 5h289l-1 -4q0 -1 -6 -12.5t-13.5 -27.5t-15 -38.5t-10 -44.5t1.5 -46l41 -214l143 198q17 23 27 50t13.5 49.5t4.5 41t0.5 30.5t-0.5 13l2 5h166l-1 -4
q0 -1 -21.5 -24.5t-53 -61.5t-52.5 -68l-205 -282l-30 -109q-6 -21 -9.5 -45.5t-4.5 -45t-1 -37.5v-27.5v-11.5l-1 -4h-256z" />
    <glyph glyph-name="Z" unicode="Z" horiz-adv-x="615" 
d="M-53 0l504 670h-80q-30 0 -67 -14.5t-68.5 -35t-58.5 -40.5t-44 -34.5t-18 -14.5h-6l51 189h567l-502 -670h87q30 0 67 14.5t68.5 35t58.5 41t44 35t18 14.5h6l-51 -190h-576z" />
    <glyph glyph-name="bracketleft" unicode="[" horiz-adv-x="325" 
d="M-57 -145l238 888h264l-4 -17q-37 -8 -55.5 -13t-37.5 -15.5t-26 -16.5t-17.5 -27t-15 -37t-14.5 -55l-141 -526q-10 -38 -14.5 -54.5t-5 -29t-0.5 -15.5q0 -14 3.5 -20.5t16.5 -16.5t29.5 -15t48.5 -13l-5 -17h-264z" />
    <glyph glyph-name="backslash" unicode="\" horiz-adv-x="386" 
d="M239 0h-48l-70 720h48z" />
    <glyph glyph-name="bracketright" unicode="]" horiz-adv-x="324" 
d="M-97 -145l4 17q96 21 118.5 44t47.5 120l141 526q8 30 11.5 42.5t6.5 30.5t3 25q0 2 -0.5 5.5t-4.5 14.5t-10 14.5t-19 10.5t-27 11t-38 10l5 17h264l-238 -888h-264z" />
    <glyph glyph-name="asciicircum" unicode="^" horiz-adv-x="430" 
d="M137 557l-8 11l217 174l123 -174l-14 -11l-145 53z" />
    <glyph glyph-name="underscore" unicode="_" horiz-adv-x="554" 
d="M-37 -50l14 50h464l-14 -50h-464z" />
    <glyph glyph-name="a" unicode="a" horiz-adv-x="633" 
d="M592 168l12 -3q-29 -77 -84 -126t-122 -49q-56 0 -78 33t-16 85q-90 -120 -185 -120q-57 0 -87.5 44t-28.5 118t37 161q25 62 58.5 105t69 63.5t65.5 28.5t61 8q94 0 127 -57q40 10 149 51h23l-96 -357q-11 -42 16 -39q32 5 79 54zM220 97q32 0 69.5 49.5t66.5 156.5
l35 124q-8 29 -40 29q-55 0 -115 -152q-18 -45 -28.5 -79.5t-15.5 -65t2 -46.5t26 -16z" />
    <glyph glyph-name="b" unicode="b" horiz-adv-x="585" 
d="M464 516q57 0 87.5 -43.5t28.5 -118t-37 -161.5q-25 -61 -59 -104.5t-69 -64t-63.5 -28.5t-54.5 -8q-72 1 -108 55l-215 -52h-9q41 67 70 179l99 368q6 24 10.5 51t5.5 47.5t2 39.5t0 27.5t0 11.5l1 4l213 1l-83 -320q88 116 181 116zM347 200q17 45 28 79t16 64.5t-2 47
t-26 16.5q-26 0 -57.5 -34.5t-58.5 -109.5l-47 -181q10 -31 39 -31q17 0 33 13.5t30.5 39.5t23.5 45.5t21 50.5z" />
    <glyph glyph-name="c" unicode="c" horiz-adv-x="512" 
d="M199 -12q-101 0 -153 83.5t-16 217.5q32 116 116.5 171.5t178.5 55.5q76 0 166 -45l-44 -175h-5q-2 7 -9 28l-11 33t-11.5 32t-14 32t-15 24.5t-18.5 18.5t-20 6q-33 0 -69.5 -56t-53.5 -126q-22 -77 -6 -128.5t70 -51.5q40 0 96 26t83 52l13 -3q-44 -77 -116.5 -136
t-160.5 -59z" />
    <glyph glyph-name="d" unicode="d" horiz-adv-x="633" 
d="M497 153q-11 -42 16 -39q32 5 79 54l12 -3q-29 -77 -84 -126t-122 -49q-57 0 -78.5 33.5t-15.5 85.5q-90 -121 -185 -121q-57 0 -87.5 44t-28.5 118t37 161q25 61 59 104.5t69 64t63.5 28.5t54.5 8q73 -1 108 -63l29 106q16 61 16 163v4l218 24zM220 97q28 0 61.5 39
t60.5 123l38 139q-7 40 -36 40q-55 0 -108 -134q-18 -45 -28.5 -79.5t-15.5 -65t2 -46.5t26 -16z" />
    <glyph glyph-name="e" unicode="e" horiz-adv-x="523" 
d="M473 475q50 -42 31 -106t-96 -102.5t-202 -36.5q-5 -57 14.5 -90t63.5 -33q43 0 95.5 24t88.5 55l15 -3q-43 -76 -119.5 -135.5t-164.5 -59.5q-100 0 -153.5 81t-19.5 206q18 65 54 114t81 75.5t89 39t88 12.5q85 0 135 -41zM334 470q-33 0 -66 -55t-52 -127
q-4 -16 -5 -24q58 12 94 45t50 72q12 29 7.5 59t-28.5 30z" />
    <glyph glyph-name="f" unicode="f" horiz-adv-x="449" 
d="M-144 -190q138 84 183 251l106 399h-77l14 50h77l7 27q30 110 99.5 156.5t158.5 46.5q64 0 152 -30l-41 -153h-5q-4 9 -15 33.5t-18 38.5t-18 31.5t-22.5 26t-24.5 8.5q-10 0 -18.5 -4.5t-15.5 -14.5t-12 -20.5t-10.5 -28t-9 -30.5t-9 -34.5t-8.5 -34.5l-5 -18h142
l-13 -50h-143l-107 -399q-37 -137 -140 -202t-227 -49z" />
    <glyph glyph-name="g" unicode="g" horiz-adv-x="499" 
d="M122 -200q-30 0 -61 4t-69.5 15t-56 37t-3.5 63q12 31 42 59q-19 31 -6 79q26 94 142 122q-42 21 -60.5 69.5t-3.5 106.5q12 46 41.5 79t68.5 50t77 24.5t77 7.5q63 0 109 -23q79 129 194 111l-61 -140l-4 -2q-45 32 -106 16q31 -22 42 -61t-2 -93q-17 -62 -65 -102
t-98.5 -53t-104.5 -13q-40 0 -72 11q-39 -12 -47 -34q-4 -12 9 -18t40 -6h147q74 0 111.5 -47t18.5 -117q-39 -145 -299 -145zM225 199q51 0 88 137q35 136 -14 136q-50 0 -85 -136q-37 -137 11 -137zM138 -152q55 0 108 12.5t60 40.5q4 17 -14 25t-57 8h-147q-37 0 -58 7
q-5 -40 10 -60q24 -33 98 -33z" />
    <glyph glyph-name="h" unicode="h" horiz-adv-x="662" 
d="M621 168l12 -3q-29 -77 -84 -126t-122 -49q-45 0 -70.5 23.5t-26.5 58t8 72.5l53 179q24 79 -9 79q-12 0 -28.5 -10t-37 -32t-43.5 -66t-42 -103l-51 -191h-184l150 559q4 16 7 33t4.5 32t2 29.5t0.5 26.5v21v15l-1 6v4l222 24l-102 -381q97 147 201 147q63 0 94 -43.5
t11 -113.5l-60 -206q-11 -41 16 -38q32 3 80 53z" />
    <glyph glyph-name="i" unicode="i" horiz-adv-x="350" 
d="M230 553q-43 0 -66.5 32.5t-11.5 78.5q13 46 53.5 78.5t84.5 32.5t67 -32.5t11 -78.5q-13 -46 -53.5 -78.5t-84.5 -32.5zM118 -10q-68 0 -87.5 53t5.5 128l49 168q25 86 15 167l1 4h214l-101 -357q-11 -40 15 -38q31 2 80 53l12 -3q-29 -77 -82.5 -126t-120.5 -49z" />
    <glyph glyph-name="j" unicode="j" horiz-adv-x="288" 
d="M3 91l66 248q6 21 9.5 46t4.5 44.5t1.5 32t0.5 17.5q0 10 -0.5 15t-0.5 8v4l1 4h211l-112 -419q-36 -133 -127 -193.5t-190 -60.5q-17 0 -34 2l-5 6q131 85 175 246zM130 664q13 46 53.5 78.5t84.5 32.5t63 -27t19 -54q0 -14 -4 -30q-13 -46 -53.5 -78.5t-84.5 -32.5
q-43 0 -62.5 27t-19.5 54q0 14 4 30z" />
    <glyph glyph-name="k" unicode="k" horiz-adv-x="599" 
d="M-59 0l1 4q0 1 6 11.5t15 27.5t19 37.5t19.5 45t15.5 45.5l104 388q4 16 7 33t4 32t2 29.5t0.5 26.5t-0.5 21v15l-1 6v4l223 24l-155 -579q-6 -21 -9.5 -46t-4.5 -44.5t-2 -38t0 -27t0 -11.5l-1 -4h-243zM386 -10q-24 0 -43 11t-29.5 23t-21 39t-13.5 38t-11 42l-30 118
v2l133 99q23 17 36.5 37t17.5 38t4.5 32.5t-1 24.5t-1.5 11l2 5h203l-1 -5l-228 -179l43 -171q9 -35 30 -38q27 -5 82 51l12 -3q-27 -80 -78 -127.5t-106 -47.5z" />
    <glyph glyph-name="l" unicode="l" horiz-adv-x="345" 
d="M110 -10q-45 0 -70 23.5t-25.5 58t8.5 72.5l112 415q16 61 16 163v4l218 24l-160 -597q-11 -42 16 -39q31 4 79 54l12 -3q-29 -77 -84 -126t-122 -49z" />
    <glyph glyph-name="m" unicode="m" horiz-adv-x="961" 
d="M920 168l12 -3q-29 -77 -84 -126t-122 -49q-45 0 -70.5 23.5t-26.5 58t8 72.5l53 179q24 79 -9 79q-15 0 -35.5 -14t-49.5 -57t-53 -109l-64 -222h-187l96 323q24 79 -9 79q-13 0 -30 -11t-39 -35t-46 -73t-43 -115l-40 -168h-187l91 339q6 21 9.5 46t4.5 44.5t1.5 38
t-0.5 27t0 11.5l1 4h202l-38 -157q105 163 212 163q58 0 89.5 -37t20.5 -99q91 136 192 136q63 0 94 -43.5t11 -113.5l-59 -207q-11 -40 15 -37q32 3 80 53z" />
    <glyph glyph-name="n" unicode="n" horiz-adv-x="659" 
d="M618 168l12 -3q-29 -77 -84 -126t-122 -49q-45 0 -70.5 23.5t-26.5 58t8 72.5l53 179q24 79 -9 79q-13 0 -30 -11t-39 -35t-46 -73t-43 -115l-40 -168h-187l91 339q6 21 9.5 46t4.5 44.5t1.5 38t-0.5 27t0 11.5l1 4h202l-38 -157q105 163 212 163q63 0 94 -43.5
t11 -113.5l-60 -206q-11 -41 16 -38q32 3 80 53z" />
    <glyph glyph-name="o" unicode="o" horiz-adv-x="548" 
d="M207 -12q-106 2 -163 74t-21 199q24 86 77 145.5t115.5 85t130.5 24.5q105 -2 160 -70t20 -195q-36 -127 -126 -196t-193 -67zM219 37q11 0 21 6.5t19 21t16.5 29.5t16 38.5t14 40t14 43t12.5 39.5q16 48 24 94.5t2 82.5t-30 36q-15 0 -28.5 -11.5t-25.5 -39t-19 -46
t-20 -60.5t-17 -54q-12 -35 -20 -71.5t-11 -70.5t5 -56t27 -22z" />
    <glyph glyph-name="p" unicode="p" horiz-adv-x="590" 
d="M468 516q86 0 110 -90.5t-23 -215.5q-25 -67 -60 -114.5t-72 -69t-66 -30t-56 -8.5q-68 1 -105 60l-64 -248h-221l1 4q0 1 6 10.5t14.5 24.5t18 34t18.5 42.5t15 44.5l99 368q6 24 10.5 51t5.5 47.5t2 39.5t0 27.5t0 11.5l1 4l213 1l-28 -110q88 116 181 116zM361 227
q14 35 22.5 64t13 56.5t-3 43.5t-26.5 16q-26 0 -57 -34t-58 -108l-44 -170q9 -29 35 -29q56 0 118 161z" />
    <glyph glyph-name="q" unicode="q" horiz-adv-x="588" 
d="M411 510h212l-1 -4q0 -1 -6 -11.5t-15 -27.5t-18.5 -37.5t-19 -45t-15.5 -45.5l-99 -368q-6 -21 -9.5 -46t-4.5 -44.5t-1.5 -38t0.5 -27t0 -11.5l-1 -4h-215l83 305q-89 -117 -182 -117q-57 0 -87 45.5t-28 120t36 157.5q25 61 59 104.5t68.5 64t63 28.5t53.5 8
q73 -1 111 -66zM220 97q29 0 64.5 43t63.5 137l33 123q-7 38 -37 38q-56 0 -115 -152q-15 -38 -24.5 -69t-14 -59.5t3 -44.5t26.5 -16z" />
    <glyph glyph-name="r" unicode="r" horiz-adv-x="472" 
d="M262 337q52 103 118 152.5t133 13.5l-72 -196h-3q-26 48 -71 48q-13 0 -27 -5t-35 -21t-43 -55.5t-39 -97.5l-42 -176h-187l91 339q6 21 9.5 46t4.5 44.5t1.5 38t-0.5 27t0 11.5l1 4h202z" />
    <glyph glyph-name="s" unicode="s" horiz-adv-x="486" 
d="M205 -11q-101 0 -218 47l46 164h5q5 -7 20.5 -28.5t23.5 -32t23 -29t26.5 -28.5t27 -21.5t30.5 -16.5t31 -5q37 0 46 35q4 16 -0.5 30.5t-19.5 30.5t-28 26.5t-40 30.5q-69 50 -98 94.5t-15 99.5q16 64 77 97t153 33q87 0 179 -34l-36 -155h-5q-87 142 -165 142
q-47 0 -47 -38q0 -10 3.5 -18.5t15.5 -19.5t20.5 -17.5t32 -23.5t37.5 -27q122 -91 91 -199q-18 -66 -77 -101.5t-139 -35.5z" />
    <glyph glyph-name="t" unicode="t" horiz-adv-x="394" 
d="M134 -10q-61 0 -85 51t-3 123l79 296h-70l14 50q170 82 300 186l5 4l-51 -190h128l-13 -50h-128l-84 -307q-10 -34 13 -32q38 2 102 67l12 -3q-29 -78 -91.5 -136.5t-127.5 -58.5z" />
    <glyph glyph-name="u" unicode="u" horiz-adv-x="661" 
d="M620 168l12 -3q-29 -77 -84 -126t-122 -49q-65 0 -85 43.5t-5 105.5q-97 -145 -200 -145q-63 0 -94 43.5t-11 113.5l54 188q4 16 7.5 33t5 32.5t2 30.5t0.5 27.5t-0.5 21t-1.5 14.5v7v5h222l-95 -323q-24 -79 9 -79q12 0 28.5 10t37 32t43.5 66t42 103l52 191h184
l-96 -357q-11 -42 16 -39q32 5 79 54z" />
    <glyph glyph-name="v" unicode="v" horiz-adv-x="560" 
d="M162 -6q-75 0 -113.5 43.5t-17.5 113.5l54 188q4 16 7.5 33t5 32.5t2 30.5t0.5 27.5t-0.5 21.5t-1.5 16v6v4h222l-95 -323q-15 -44 -8 -79.5t38 -35.5q53 0 109.5 84t52.5 208q-2 66 -22 108l199 45q0 -55 -47 -172q-62 -155 -167.5 -253t-217.5 -98z" />
    <glyph glyph-name="w" unicode="w" horiz-adv-x="876" 
d="M711 472l199 45q0 -55 -47 -172q-63 -157 -164 -254t-214 -97q-67 0 -105 37t-28 98q-112 -135 -218 -135q-61 0 -92 43.5t-11 113.5l54 188q4 16 7.5 33t5 32.5t2 30.5t0.5 27.5t-0.5 21.5t-1.5 16v6v4h222l-95 -323q-12 -40 -0.5 -59.5t29.5 -19.5q13 0 30 11t39 35.5
t46 73.5t43 115q4 15 7 32t4.5 32.5t2 30t0.5 26.5t-0.5 21t-1.5 15v6v4h222l-95 -323q-15 -44 -8 -83t38 -39q56 0 106 86t46 213q-2 66 -22 108z" />
    <glyph glyph-name="x" unicode="x" horiz-adv-x="582" 
d="M559 516q27 0 51 -13l-73 -196h-2q-25 48 -71 48q-52 0 -93 -62l35 -138q11 -45 44 -37q24 6 68 50l12 -3q-27 -80 -78 -127.5t-106 -47.5q-28 0 -49 13t-33.5 36t-20.5 45.5t-15 49.5q-1 6 -2 9l-1 3q-100 -158 -193 -158q-27 0 -51 13l73 196h2q25 -48 71 -48
q47 0 85 50l-39 152q-11 44 -40 38q-26 -5 -70 -51l-12 3q27 80 78 127.5t106 47.5q47 0 72 -36t44 -108l7 -27q105 171 201 171z" />
    <glyph glyph-name="y" unicode="y" horiz-adv-x="588" 
d="M424 475l203 45q-29 -134 -99 -274t-172.5 -254.5t-209.5 -155.5q-117 -45 -225 -15l88 186h3q49 -101 141 -92q9 1 27 5q-1 200 -25 412q-6 58 -34 58q-31 0 -81 -52l-12 3q35 80 90 127.5t110 47.5q47 0 68.5 -38.5t33.5 -123.5q20 -147 23 -288q80 127 86 270
q4 83 -15 139z" />
    <glyph glyph-name="z" unicode="z" horiz-adv-x="499" 
d="M0 -10q15 44 45.5 85t74 79t83.5 68.5t94.5 70t86.5 65.5q-47 -25 -88 -27q-26 -1 -68 10t-62 12t-39 -3.5t-32 -11.5t-22.5 -14t-15 -12t-6.5 -5h-5l23 79q20 70 50.5 100t85.5 30q31 0 76.5 -10t80.5 -18t85 -3t98 29q-22 -55 -70.5 -109.5t-93 -88t-116 -83
t-102.5 -74.5q34 16 73 14q26 -1 68 -12.5t65 -11.5q53 0 91 38h5l-21 -80q-7 -28 -12.5 -42.5t-19.5 -35t-38 -30t-59 -9.5q-32 0 -72.5 8.5t-69 15t-75 2t-98.5 -25.5z" />
    <glyph glyph-name="braceleft" unicode="{" horiz-adv-x="333" 
d="M-2 -29q8 29 52.5 108t55.5 119q4 16 4 28q0 19 -10.5 36t-41.5 22l5 20q33 5 59 28.5t36 61.5q9 33 9 90q0 13 -0.5 30.5t-0.5 33.5q0 48 5 69q15 54 67 87.5t115 33.5q73 0 99 -1l-6 -22q-51 0 -89.5 -22.5t-48.5 -60.5q-3 -12 -3 -29q0 -29 8.5 -74t8.5 -74
q0 -20 -4 -33q-14 -50 -65 -82t-115 -46q57 -14 86 -41.5t29 -58.5q0 -13 -4 -28q-7 -29 -60.5 -103.5t-62.5 -106.5q-3 -10 -3 -19q0 -25 23.5 -44.5t73.5 -19.5l-6 -22q-16 0 -49 -0.5t-50 -0.5q-63 0 -92 28.5t-29 62.5q0 14 4 30z" />
    <glyph glyph-name="bar" unicode="|" horiz-adv-x="168" 
d="M-27 -70l230 860h48l-230 -860h-48z" />
    <glyph glyph-name="braceright" unicode="}" horiz-adv-x="333" 
d="M-92 -127q50 0 89.5 22.5t48.5 60.5q4 13 4 32q0 30 -8.5 75.5t-8.5 74.5q0 17 3 28q13 50 64 82t116 46q-57 14 -86.5 41.5t-29.5 60.5q0 12 4 26q9 33 62 106t61 104q3 10 3 20q0 24 -23 43.5t-74 19.5l6 22q26 1 99 1q64 0 93 -28.5t29 -62.5q0 -14 -4 -30
q-8 -28 -52 -105t-55 -118q-4 -16 -4 -30q0 -18 10.5 -36.5t40.5 -23.5l-6 -20q-72 -10 -94 -86q-8 -33 -8 -94v-26.5v-28.5q0 -55 -6 -78q-15 -54 -66.5 -87.5t-114.5 -33.5q-17 0 -50 0.5t-49 0.5z" />
    <glyph glyph-name="exclamdown" unicode="&#xa1;" horiz-adv-x="328" 
d="M87 -57q38 76 86 168t73 143h27q-2 -46 -3 -142t-4 -170t-10 -142h-236q29 67 67 143zM210 430q11 45 44.5 74t70.5 29h3q38 -1 54 -26t16 -50q0 -15 -7.5 -45.5t-41 -60t-70.5 -29.5h-3q-38 1 -54 26.5t-16 50.5q0 15 4 31z" />
    <glyph glyph-name="cent" unicode="&#xa2;" horiz-adv-x="512" 
d="M296 109q40 4 91 28.5t76 48.5l13 -3q-34 -60 -88.5 -112.5t-120.5 -72.5l-25 -92h-48l22 83q-6 -1 -17 -1q-101 0 -153 83.5t-16 217.5q32 116 116.5 171.5t178.5 55.5q11 0 31 -2l18 66h48l-20 -74q35 -9 89 -35l-44 -175h-5q-3 8 -11 33.5t-13.5 41t-14.5 36.5t-18 34
zM220 288q-35 -143 30 -173l95 355h-2q-33 0 -69.5 -56t-53.5 -126z" />
    <glyph glyph-name="sterling" unicode="&#xa3;" horiz-adv-x="573" 
d="M-58 0q87 89 133 154t62 146h-69l11 44h61q0 27 -5.5 70t-6 56t-0.5 16q0 23 7 62q23 85 106.5 133.5t184.5 48.5q42 0 88 -10t66 -17.5t67 -25.5l-104 -215h-5q-26 121 -49 163q-31 54 -73 55q-54 0 -77 -82q-10 -39 -10 -108v-25v-28q0 -64 -7 -93h133l-12 -44h-138
q-6 -12 -15 -24t-16.5 -20.5t-20.5 -21t-19.5 -18.5t-23 -18.5t-21 -16t-23 -17t-20.5 -14.5h168q120 0 216 77h5l-95 -227h-498z" />
    <glyph glyph-name="currency" unicode="&#xa4;" horiz-adv-x="567" 
d="M7 96l99 81q-18 36 -18 78q0 27 8 56q21 74 81 133l-54 78l39 32l54 -79q68 47 139 47t114 -48l99 81l21 -32l-98 -81q16 -33 16 -72q0 -28 -8 -59q-19 -74 -80 -133l55 -81l-38 -32l-55 82q-67 -48 -139 -48q-70 0 -113 45l-100 -80zM184 215q26 -41 78 -41q51 0 99 41
t62 96q5 20 5 38q0 32 -21.5 65t-71.5 33q-52 0 -100 -40.5t-62 -95.5q-5 -20 -5 -38q0 -32 16 -58z" />
    <glyph glyph-name="yen" unicode="&#xa5;" horiz-adv-x="660" 
d="M610 720h166l-1 -4q0 -1 -21.5 -24.5t-53 -61.5t-52.5 -68l-169 -233h145l-12 -44h-165l-4 -5l-17 -63h168l-12 -44h-168l-1 -2q-6 -21 -9.5 -45.5t-4.5 -45t-1 -37.5v-27.5v-11.5l-1 -4h-256l1 4q0 1 6 11.5t15 27.5t18.5 37.5t19 45t15.5 45.5l1 2h-149l12 44h148
l17 63l-1 5h-146l12 44h123l-56 234q-6 30 -17.5 67.5t-19.5 60.5t-8 24l2 5h289l-1 -4q0 -1 -6 -12.5t-13.5 -27.5t-15 -38.5t-10 -44.5t1.5 -46l41 -214l143 198q17 23 27 50t13.5 49.5t4.5 41t0.5 30.5t-0.5 13z" />
    <glyph glyph-name="brokenbar" unicode="&#xa6;" horiz-adv-x="168" 
d="M103 415l82 305h47l-81 -305h-48zM-8 0l82 306h47l-82 -306h-47z" />
    <glyph glyph-name="section" unicode="&#xa7;" horiz-adv-x="452" 
d="M-8 54q4 -5 23.5 -31t30.5 -39t30 -32t37.5 -27.5t36.5 -8.5q23 0 44 14.5t29 43.5q3 11 3 21q0 7 -3 18t-21 25t-31.5 21t-44.5 22q-17 8 -29 15t-27.5 17.5t-23 20.5t-15 24t-7.5 27q0 3 1 12.5t4 31.5q12 45 49.5 84t91.5 58q-73 40 -73 101q0 15 5 32q17 64 79.5 110
t152.5 46q74 0 159 -32l-36 -134q-13 13 -42.5 52.5t-54.5 60t-54 20.5q-26 0 -45 -16t-25 -37q-2 -7 -2 -14q0 -6 2.5 -14.5t16.5 -19.5t23.5 -17t34 -17.5t33.5 -16.5q92 -49 92 -127q0 -19 -5 -39q-26 -94 -123 -134q55 -43 55 -102q0 -19 -6 -39q-20 -74 -86.5 -114
t-145.5 -40q-87 0 -169 38zM164 272q5 -8 7 -12.5t10.5 -10.5t13.5 -9.5t15.5 -9.5t17 -9t18 -9t18.5 -9q25 16 33 46q3 10 3 20q0 21 -18 38.5t-69 42.5q-19 -6 -32.5 -20t-17.5 -31q0 -9 -1.5 -12.5t-1.5 -5.5q0 -4 4 -9z" />
    <glyph glyph-name="copyright" unicode="&#xa9;" horiz-adv-x="442" 
d="M110 535q22 81 91.5 138t146.5 57t109.5 -47t32.5 -93q0 -26 -15 -81t-84 -112q-70 -57 -147 -57t-109.5 47t-32.5 93q0 26 8 55zM154 417q32 -50 98 -50t125 49.5t77 119.5q7 26 7 50q0 39 -25.5 79t-89.5 40h-3q-66 0 -125 -49.5t-72 -97.5t-13 -70q0 -40 21 -71z
M207 536q12 44 45 71t72 27q24 0 61 -10l-16 -58q0 -2 -2 -2t-3 2q-3 18 -14 32t-26 14q-17 0 -34.5 -20t-26.5 -56q-5 -21 -5 -37q0 -11 4.5 -24.5t21.5 -13.5q27 0 64 46l5 1v-1l-15 -58q-42 -10 -69 -10q-38 0 -52.5 21.5t-14.5 43.5q0 15 5 32z" />
    <glyph glyph-name="guillemotleft" unicode="&#xab;" horiz-adv-x="505" 
d="M443 482h68l-227 -205l117 -205h-68l-117 205zM61 277l227 205h68l-227 -205l117 -205h-68z" />
    <glyph glyph-name="registered" unicode="&#xae;" horiz-adv-x="450" 
d="M87 673q57 57 138 57t138 -57t57 -138t-57 -138t-138 -57t-138 57t-57 138t57 138zM61 536q0 -70 48 -119q48 -50 117 -50t117 49.5t48 119.5q-1 71 -48 120t-114 49h-3q-69 0 -117 -49.5t-48 -119.5zM144 635h97q28 0 45.5 -14.5t17.5 -34.5q0 -1 -0.5 -12t-17.5 -24.5
t-42 -15.5q34 -4 46 -27q2 -4 8.5 -16t10.5 -19q9 -17 19 -27h-62q-9 5 -26 47q-9 23 -16.5 30t-18.5 7v-39q0 -6 1 -12.5t2.5 -12t2.5 -10t2 -7.5l1 -3h-70l1 3q1 3 2 7.5t2.5 10t2.5 12t1 12.5v100q0 6 -1 12.5t-2.5 12t-2.5 10t-2 7.5zM205 615v-65h17q26 0 26 31v2
q-1 18 -6.5 25t-19.5 7h-17z" />
    <glyph glyph-name="degree" unicode="&#xb0;" horiz-adv-x="388" 
d="M138 583q16 61 69 105t114 44t86 -37t25 -72q0 -19 -11 -59.5t-65 -85.5t-115 -45t-85 36.5t-24 72.5q0 19 6 41zM218 530q13 -24 43 -24t56 23.5t35 53.5q3 11 3 20q0 18 -12 37t-41 19q-30 0 -55.5 -23t-33.5 -53q-4 -12 -4 -22q0 -17 9 -31z" />
    <glyph glyph-name="plusminus" unicode="&#xb1;" horiz-adv-x="551" 
d="M80 384h79q67 0 86 2t28 10q9 7 15.5 26t25.5 91l24 89h48l-24 -90q-20 -72 -22.5 -86t-2.5 -20q0 -8 3 -11q5 -8 22 -9.5t86 -1.5h93l-13 -46h-92q-67 0 -86.5 -2t-28.5 -10q-8 -7 -14.5 -24.5t-26.5 -92.5l-23 -89h-48l24 89q20 75 22 87t2 18q0 7 -2 12q-5 8 -23 10
t-86 2h-79zM430 85v-50h-376v50h376z" />
    <glyph glyph-name="twosuperior" unicode="&#xb2;" horiz-adv-x="292" 
d="M59 368q115 112 173 179.5t72 118.5q3 12 3 20q0 21 -21 21q-44 0 -125 -106h-1l4 105q87 26 131 26q55 0 81.5 -20t26.5 -47q0 -11 -3 -23q-20 -72 -145 -148q-10 -6 -25 -14.5t-34.5 -19t-31.5 -17.5h74q64 0 113 37q1 1 2 1v-1v-1l-48 -111h-246z" />
    <glyph glyph-name="threesuperior" unicode="&#xb3;" horiz-adv-x="284" 
d="M121 487q1 1 2 1q17 -75 30 -91q12 -12 26 -13q37 0 54 65q4 17 4 32q0 49 -48 67l1 2q75 24 95 96q5 20 5 34q0 30 -23 30q-11 0 -23 -6.5t-29 -25.5t-25.5 -29t-31.5 -40h-1h-1l5 106q69 18 111 18q21 0 41.5 -3.5t43 -12t30.5 -24t8 -28.5q0 -11 -3 -23
q-11 -40 -51.5 -66.5t-93.5 -26.5q55 0 78 -23t23 -49q0 -11 -3 -23q-8 -28 -29 -48t-49 -29t-51 -12.5t-44 -3.5q-44 0 -104 18z" />
    <glyph glyph-name="paragraph" unicode="&#xb6;" horiz-adv-x="482" 
d="M80 499q26 98 105 159.5t166 61.5h127l-193 -720h-47l74 277h-80q-92 0 -127 48.5t-35 101.5q0 33 10 72zM524 720h48l-193 -720h-48z" />
    <glyph glyph-name="periodcentered" unicode="&#xb7;" horiz-adv-x="286" 
d="M6 342q11 45 44.5 74.5t70.5 29.5h3q38 -1 53.5 -26.5t15.5 -52.5q0 -13 -3 -29q-11 -45 -44.5 -74t-70.5 -29h-3q-38 1 -53.5 26t-15.5 52q0 13 3 29z" />
    <glyph glyph-name="onesuperior" unicode="&#xb9;" horiz-adv-x="208" 
d="M106 367l8 15q7 13 16.5 33.5t13.5 37.5l53 198h-63l4 15q115 31 183 74l-77 -287q-6 -23 -6 -84l-1 -2h-131z" />
    <glyph glyph-name="guillemotright" unicode="&#xbb;" horiz-adv-x="456" 
d="M363 277l-117 205h68l117 -205l-226 -205h-68zM208 277l-117 205h68l117 -205l-226 -205h-68z" />
    <glyph glyph-name="onequarter" unicode="&#xbc;" horiz-adv-x="773" 
d="M444 86l235 274h85l-66 -249h49l-7 -25h-49q-8 -30 -8 -86h-131l8 14q7 13 17 34t14 38h-147zM-39 -50l819 810h62l-819 -810h-62zM106 367l8 15q7 13 16.5 33.5t13.5 37.5l53 198h-63l4 15q115 31 183 74l-77 -287q-6 -23 -6 -84l-1 -2h-131zM598 111l47 176l-153 -176
h106z" />
    <glyph glyph-name="onehalf" unicode="&#xbd;" horiz-adv-x="754" 
d="M780 760h62l-819 -810h-62zM423 1q115 112 173 179.5t72 118.5q3 12 3 20q0 21 -21 21q-44 0 -125 -106h-1l4 105q87 26 131 26q55 0 81.5 -20t26.5 -47q0 -11 -3 -23q-20 -72 -145 -148q-10 -6 -25 -14.5t-34.5 -19t-31.5 -17.5h74q64 0 113 37q1 1 2 1v-1v-1l-48 -111
h-246zM114 382q7 13 16.5 33.5t13.5 37.5l53 198h-63l4 15q115 31 183 74l-77 -287q-6 -23 -6 -84l-1 -2h-131z" />
    <glyph glyph-name="threequarters" unicode="&#xbe;" horiz-adv-x="849" 
d="M520 86l235 274h85l-66 -249h49l-7 -25h-49q-8 -30 -8 -86h-131l8 14q7 13 17 34t14 38h-147zM37 -50l819 810h62l-819 -810h-62zM121 487q1 1 2 1q17 -75 30 -91q12 -12 26 -13q37 0 54 65q4 17 4 32q0 49 -48 67l1 2q75 24 95 96q5 20 5 34q0 30 -23 30q-11 0 -23 -6.5
t-29 -25.5t-25.5 -29t-31.5 -40h-1h-1l5 106q69 18 111 18q21 0 41.5 -3.5t43 -12t30.5 -24t8 -28.5q0 -11 -3 -23q-11 -40 -51.5 -66.5t-93.5 -26.5q55 0 78 -23t23 -49q0 -11 -3 -23q-8 -28 -29 -48t-49 -29t-51 -12.5t-44 -3.5q-44 0 -104 18zM674 111l47 176l-153 -176
h106z" />
    <glyph glyph-name="questiondown" unicode="&#xbf;" horiz-adv-x="560" 
d="M-18 -147l101 209h5q6 -29 10 -45.5t12.5 -45.5t17.5 -47t21.5 -37t28.5 -28t35 -9q26 0 46.5 20t27.5 37t10 32q6 16 6 35q0 8 -2 26t-6.5 32.5t-13.5 40t-13 41.5q-4 19 -4 38q0 57 38 113h34v-6q0 -27 16.5 -55t61.5 -65q2 -2 14.5 -11.5t17 -13.5t15.5 -14.5
t15.5 -18t11.5 -20t8.5 -22.5t1.5 -21q0 -4 -0.5 -13.5t-4.5 -26.5q-21 -80 -105.5 -129t-184.5 -49q-110 0 -221 53zM284 436q13 45 49 76q35 30 55 30.5t22 0.5q37 0 51 -23t14 -45q0 -16 -9 -48t-45.5 -63t-74.5 -32h-2q-38 0 -51.5 23t-13.5 46q0 16 5 35z" />
    <glyph glyph-name="Agrave" unicode="&#xc0;" horiz-adv-x="693" 
d="M628 775l-291 97l143 121l169 -201zM-63 0l1 4q78 99 163 240l199 329q11 18 17.5 39t8.5 38.5t2 32t-1 23.5l-1 10l1 4h211l47 -542q10 -106 36 -174l-1 -4h-281l1 4q0 1 6.5 12.5t15 29t17 38.5t13 46.5t2.5 47.5l-5 65h-231l-18 -31q-16 -26 -24.5 -56.5t-10.5 -55.5
t-1 -46t3 -35l2 -14l-1 -5h-171zM189 293h195l-24 284z" />
    <glyph glyph-name="Aacute" unicode="&#xc1;" horiz-adv-x="693" 
d="M376 785l-16 17l223 201l110 -121zM-63 0l1 4q78 99 163 240l199 329q11 18 17.5 39t8.5 38.5t2 32t-1 23.5l-1 10l1 4h211l47 -542q10 -106 36 -174l-1 -4h-281l1 4q0 1 6.5 12.5t15 29t17 38.5t13 46.5t2.5 47.5l-5 65h-231l-18 -31q-16 -26 -24.5 -56.5t-10.5 -55.5
t-1 -46t3 -35l2 -14l-1 -5h-171zM189 293h195l-24 284z" />
    <glyph glyph-name="Acircumflex" unicode="&#xc2;" horiz-adv-x="693" 
d="M333 767l-8 11l209 174l115 -174l-13 -11l-133 65zM-63 0l1 4q78 99 163 240l199 329q11 18 17.5 39t8.5 38.5t2 32t-1 23.5l-1 10l1 4h211l47 -542q10 -106 36 -174l-1 -4h-281l1 4q0 1 6.5 12.5t15 29t17 38.5t13 46.5t2.5 47.5l-5 65h-231l-18 -31
q-16 -26 -24.5 -56.5t-10.5 -55.5t-1 -46t3 -35l2 -14l-1 -5h-171zM189 293h195l-24 284z" />
    <glyph glyph-name="Atilde" unicode="&#xc3;" horiz-adv-x="693" 
d="M309 768q2 54 42.5 104t99.5 50q26 0 73 -15.5t75 -15.5q67 0 110 44q-22 -85 -64 -123.5t-92 -38.5q-28 0 -84.5 17.5t-76.5 16.5q-47 -2 -83 -39zM-63 0l1 4q78 99 163 240l199 329q11 18 17.5 39t8.5 38.5t2 32t-1 23.5l-1 10l1 4h211l47 -542q10 -106 36 -174l-1 -4
h-281l1 4q0 1 6.5 12.5t15 29t17 38.5t13 46.5t2.5 47.5l-5 65h-231l-18 -31q-16 -26 -24.5 -56.5t-10.5 -55.5t-1 -46t3 -35l2 -14l-1 -5h-171zM189 293h195l-24 284z" />
    <glyph glyph-name="Adieresis" unicode="&#xc4;" horiz-adv-x="693" 
d="M378 770q-35 0 -53 26.5t-8 63.5t42 63.5t67 26.5q36 0 54 -26t8 -64q-10 -37 -42 -63.5t-68 -26.5zM594 770q-36 0 -54 26t-8 64q10 37 42 63.5t68 26.5q35 0 53 -26.5t8 -63.5t-42 -63.5t-67 -26.5zM-63 0l1 4q78 99 163 240l199 329q11 18 17.5 39t8.5 38.5t2 32
t-1 23.5l-1 10l1 4h211l47 -542q10 -106 36 -174l-1 -4h-281l1 4q0 1 6.5 12.5t15 29t17 38.5t13 46.5t2.5 47.5l-5 65h-231l-18 -31q-16 -26 -24.5 -56.5t-10.5 -55.5t-1 -46t3 -35l2 -14l-1 -5h-171zM189 293h195l-24 284z" />
    <glyph glyph-name="Aring" unicode="&#xc5;" horiz-adv-x="693" 
d="M561 788q-37 -30 -78 -30t-62 29.5t-10 72.5t48 72.5t78 29.5t62 -29.5t10 -72.5t-48 -72zM496 806q20 0 39.5 16t24.5 38q6 22 -4.5 38t-31.5 16q-20 0 -39.5 -16t-24.5 -38q-6 -22 4.5 -38t31.5 -16zM-63 0l1 4q78 99 163 240l199 329q11 18 17.5 39t8.5 38.5t2 32
t-1 23.5l-1 10l1 4h211l47 -542q10 -106 36 -174l-1 -4h-281l1 4q0 1 6.5 12.5t15 29t17 38.5t13 46.5t2.5 47.5l-5 65h-231l-18 -31q-16 -26 -24.5 -56.5t-10.5 -55.5t-1 -46t3 -35l2 -14l-1 -5h-171zM189 293h195l-24 284z" />
    <glyph glyph-name="AE" unicode="&#xc6;" horiz-adv-x="994" 
d="M-63 0q86 67 119 107l375 461q24 29 43.5 67t25.5 55t8 26l1 4h569l-58 -217h-5q-1 0 -9.5 17.5t-22.5 42.5t-32.5 50t-44.5 42.5t-52 17.5h-87l-77 -288h9q26 0 57.5 6.5t58.5 15.5t49.5 18t36.5 15.5t15 6.5h5l-43 -159h-4q-1 0 -11.5 6.5t-28.5 15.5t-40 18t-50 15.5
t-55 6.5h-8l-81 -303h89q26 0 61.5 17.5t67 42.5t59.5 50.5t45.5 43t18.5 17.5h5l-58 -218h-527l1 4q0 1 6 11.5t15 27.5t18.5 37.5t19 45t15.5 45.5l20 72h-224l-41 -45q-15 -17 -26 -36t-17 -37t-9.5 -35.5t-4.5 -32t-0.5 -26t1 -18.5t0.5 -8l-2 -5h-196zM272 293h197
l99 368z" />
    <glyph glyph-name="Ccedilla" unicode="&#xc7;" horiz-adv-x="649" 
d="M490 730q83 0 232 -39l-58 -219h-6q-78 212 -168 212q-59 0 -115.5 -89t-95.5 -236q-35 -119 -24 -221.5t68 -102.5q89 0 282 224h6l-59 -221q-94 -35 -173 -45l-29 -39q45 0 76 -20.5t31 -55.5q0 -31 -24.5 -49t-66.5 -18q-60 0 -101 27v37q31 -19 54.5 -13t23.5 27
q0 15 -13.5 28.5t-35.5 17.5l39 54q-9 -1 -27 -1q-150 0 -219.5 105t-26.5 266q46 172 158 271.5t272 99.5z" />
    <glyph glyph-name="Egrave" unicode="&#xc8;" horiz-adv-x="603" 
d="M583 775l-291 97l143 121l169 -201zM-30 0l1 4q0 1 6 11.5t15 27.5t18.5 37.5t19 45t15.5 45.5l101 378q9 34 12.5 74.5t3.5 66v26.5l1 4h523l-58 -217h-4q-1 0 -9.5 17.5t-23 42.5t-33 50t-44 42.5t-52.5 17.5h-86l-77 -286h9q26 0 57.5 6.5t58.5 15.5t49.5 18
t36.5 15.5t15 6.5h5l-44 -164h-5q-1 0 -11.5 6.5t-28 15.5t-39.5 18t-50 15.5t-55 6.5h-8l-81 -300h90q26 0 61.5 17.5t67 42.5t59.5 50.5t45.5 43t18.5 17.5h5l-59 -218h-526z" />
    <glyph glyph-name="Eacute" unicode="&#xc9;" horiz-adv-x="603" 
d="M331 785l-16 17l223 201l110 -121zM-30 0l1 4q0 1 6 11.5t15 27.5t18.5 37.5t19 45t15.5 45.5l101 378q9 34 12.5 74.5t3.5 66v26.5l1 4h523l-58 -217h-4q-1 0 -9.5 17.5t-23 42.5t-33 50t-44 42.5t-52.5 17.5h-86l-77 -286h9q26 0 57.5 6.5t58.5 15.5t49.5 18t36.5 15.5
t15 6.5h5l-44 -164h-5q-1 0 -11.5 6.5t-28 15.5t-39.5 18t-50 15.5t-55 6.5h-8l-81 -300h90q26 0 61.5 17.5t67 42.5t59.5 50.5t45.5 43t18.5 17.5h5l-59 -218h-526z" />
    <glyph glyph-name="Ecircumflex" unicode="&#xca;" horiz-adv-x="603" 
d="M288 767l-8 11l209 174l115 -174l-13 -11l-133 65zM-30 0l1 4q0 1 6 11.5t15 27.5t18.5 37.5t19 45t15.5 45.5l101 378q9 34 12.5 74.5t3.5 66v26.5l1 4h523l-58 -217h-4q-1 0 -9.5 17.5t-23 42.5t-33 50t-44 42.5t-52.5 17.5h-86l-77 -286h9q26 0 57.5 6.5t58.5 15.5
t49.5 18t36.5 15.5t15 6.5h5l-44 -164h-5q-1 0 -11.5 6.5t-28 15.5t-39.5 18t-50 15.5t-55 6.5h-8l-81 -300h90q26 0 61.5 17.5t67 42.5t59.5 50.5t45.5 43t18.5 17.5h5l-59 -218h-526z" />
    <glyph glyph-name="Edieresis" unicode="&#xcb;" horiz-adv-x="603" 
d="M333 770q-35 0 -53 26.5t-8 63.5t42 63.5t67 26.5q36 0 54 -26t8 -64q-10 -37 -42 -63.5t-68 -26.5zM549 770q-36 0 -54 26t-8 64q10 37 42 63.5t68 26.5q35 0 53 -26.5t8 -63.5t-42 -63.5t-67 -26.5zM-30 0l1 4q0 1 6 11.5t15 27.5t18.5 37.5t19 45t15.5 45.5l101 378
q9 34 12.5 74.5t3.5 66v26.5l1 4h523l-58 -217h-4q-1 0 -9.5 17.5t-23 42.5t-33 50t-44 42.5t-52.5 17.5h-86l-77 -286h9q26 0 57.5 6.5t58.5 15.5t49.5 18t36.5 15.5t15 6.5h5l-44 -164h-5q-1 0 -11.5 6.5t-28 15.5t-39.5 18t-50 15.5t-55 6.5h-8l-81 -300h90
q26 0 61.5 17.5t67 42.5t59.5 50.5t45.5 43t18.5 17.5h5l-59 -218h-526z" />
    <glyph glyph-name="Igrave" unicode="&#xcc;" horiz-adv-x="330" 
d="M446 775l-291 97l143 121l169 -201zM-30 0l1 4q0 1 6 11.5t15 27.5t18.5 37.5t19 45t15.5 45.5l101 378q6 21 9.5 46t4.5 44.5t2 38t0 27t0 11.5l1 4h254l-1 -4q0 -1 -6 -11.5t-15 -27.5t-18.5 -37.5t-19 -45t-15.5 -45.5l-101 -378q-6 -21 -9.5 -46t-4.5 -44.5t-1.5 -38
t0 -27t-0.5 -11.5l-1 -4h-254z" />
    <glyph glyph-name="Iacute" unicode="&#xcd;" horiz-adv-x="330" 
d="M194 785l-16 17l223 201l110 -121zM-30 0l1 4q0 1 6 11.5t15 27.5t18.5 37.5t19 45t15.5 45.5l101 378q6 21 9.5 46t4.5 44.5t2 38t0 27t0 11.5l1 4h254l-1 -4q0 -1 -6 -11.5t-15 -27.5t-18.5 -37.5t-19 -45t-15.5 -45.5l-101 -378q-6 -21 -9.5 -46t-4.5 -44.5t-1.5 -38
t0 -27t-0.5 -11.5l-1 -4h-254z" />
    <glyph glyph-name="Icircumflex" unicode="&#xce;" horiz-adv-x="330" 
d="M151 767l-8 11l209 174l115 -174l-13 -11l-133 65zM-30 0l1 4q0 1 6 11.5t15 27.5t18.5 37.5t19 45t15.5 45.5l101 378q6 21 9.5 46t4.5 44.5t2 38t0 27t0 11.5l1 4h254l-1 -4q0 -1 -6 -11.5t-15 -27.5t-18.5 -37.5t-19 -45t-15.5 -45.5l-101 -378q-6 -21 -9.5 -46
t-4.5 -44.5t-1.5 -38t0 -27t-0.5 -11.5l-1 -4h-254z" />
    <glyph glyph-name="Idieresis" unicode="&#xcf;" horiz-adv-x="330" 
d="M196 770q-35 0 -53 26.5t-8 63.5t42 63.5t67 26.5q36 0 54 -26t8 -64q-10 -37 -42 -63.5t-68 -26.5zM412 770q-36 0 -54 26t-8 64q10 37 42 63.5t68 26.5q35 0 53 -26.5t8 -63.5t-42 -63.5t-67 -26.5zM-30 0l1 4q0 1 6 11.5t15 27.5t18.5 37.5t19 45t15.5 45.5l101 378
q6 21 9.5 46t4.5 44.5t2 38t0 27t0 11.5l1 4h254l-1 -4q0 -1 -6 -11.5t-15 -27.5t-18.5 -37.5t-19 -45t-15.5 -45.5l-101 -378q-6 -21 -9.5 -46t-4.5 -44.5t-1.5 -38t0 -27t-0.5 -11.5l-1 -4h-254z" />
    <glyph glyph-name="Eth" unicode="&#xd0;" horiz-adv-x="748" 
d="M11 0l1 4q0 1 6 11.5t15 27.5t18.5 37.5t19 45t15.5 45.5l42 156h-85l14 50h85l46 172q6 21 9.5 46t4.5 44.5t1.5 38t-0.5 27t0 11.5l1 4h300q145 0 214 -99t26 -260q-44 -165 -165.5 -263t-267.5 -98h-300zM243 46h22q66 0 121.5 48.5t89.5 115.5t56 151
q16 59 20.5 111.5t-2.5 100t-36.5 75t-79.5 27.5h-22l-80 -298h115l-13 -50h-115z" />
    <glyph glyph-name="Ntilde" unicode="&#xd1;" horiz-adv-x="709" 
d="M315 768q2 54 42.5 104t99.5 50q26 0 73 -15.5t75 -15.5q67 0 110 44q-22 -85 -64 -123.5t-92 -38.5q-28 0 -84.5 17.5t-76.5 16.5q-47 -2 -83 -39zM-43 0l2 6q0 1 10.5 17t26 41.5t32.5 56t33 67.5t24 69l78 292q6 21 8 45.5t1 45t-3 37.5t-3.5 27.5t-1.5 11.5l1 4h208
l191 -499l65 243q13 50 15.5 110.5t-0.5 99.5l-3 40l1 6h167l-2 -6l-25 -39q-25 -39 -56 -100t-45 -111l-124 -464h-114l-220 582l-88 -325q-13 -50 -14.5 -111t2.5 -100l4 -40l-1 -6h-169z" />
    <glyph glyph-name="Ograve" unicode="&#xd2;" horiz-adv-x="734" 
d="M648 775l-291 97l143 121l169 -201zM568 86q-118 -101 -266 -99t-215 106t-25 272q43 169 160 269t266 97q147 -3 214.5 -106.5t25.5 -270.5q-42 -168 -160 -268zM314 33q30 0 62 32.5t57.5 84.5t45 105.5t32.5 103.5q17 69 24 139t-6 127.5t-53 58.5q-30 1 -62 -32
t-57.5 -84.5t-45 -105t-32.5 -103.5q-17 -69 -24 -139.5t6.5 -128.5t52.5 -58z" />
    <glyph glyph-name="Oacute" unicode="&#xd3;" horiz-adv-x="734" 
d="M396 785l-16 17l223 201l110 -121zM568 86q-118 -101 -266 -99t-215 106t-25 272q43 169 160 269t266 97q147 -3 214.5 -106.5t25.5 -270.5q-42 -168 -160 -268zM314 33q30 0 62 32.5t57.5 84.5t45 105.5t32.5 103.5q17 69 24 139t-6 127.5t-53 58.5q-30 1 -62 -32
t-57.5 -84.5t-45 -105t-32.5 -103.5q-17 -69 -24 -139.5t6.5 -128.5t52.5 -58z" />
    <glyph glyph-name="Ocircumflex" unicode="&#xd4;" horiz-adv-x="734" 
d="M353 767l-8 11l209 174l115 -174l-13 -11l-133 65zM568 86q-118 -101 -266 -99t-215 106t-25 272q43 169 160 269t266 97q147 -3 214.5 -106.5t25.5 -270.5q-42 -168 -160 -268zM314 33q30 0 62 32.5t57.5 84.5t45 105.5t32.5 103.5q17 69 24 139t-6 127.5t-53 58.5
q-30 1 -62 -32t-57.5 -84.5t-45 -105t-32.5 -103.5q-17 -69 -24 -139.5t6.5 -128.5t52.5 -58z" />
    <glyph glyph-name="Otilde" unicode="&#xd5;" horiz-adv-x="734" 
d="M329 768q2 54 42.5 104t99.5 50q26 0 73 -15.5t75 -15.5q67 0 110 44q-22 -85 -64 -123.5t-92 -38.5q-28 0 -84.5 17.5t-76.5 16.5q-47 -2 -83 -39zM568 86q-118 -101 -266 -99t-215 106t-25 272q43 169 160 269t266 97q147 -3 214.5 -106.5t25.5 -270.5
q-42 -168 -160 -268zM314 33q30 0 62 32.5t57.5 84.5t45 105.5t32.5 103.5q17 69 24 139t-6 127.5t-53 58.5q-30 1 -62 -32t-57.5 -84.5t-45 -105t-32.5 -103.5q-17 -69 -24 -139.5t6.5 -128.5t52.5 -58z" />
    <glyph glyph-name="Odieresis" unicode="&#xd6;" horiz-adv-x="734" 
d="M398 770q-35 0 -53 26.5t-8 63.5t42 63.5t67 26.5q36 0 54 -26t8 -64q-10 -37 -42 -63.5t-68 -26.5zM614 770q-36 0 -54 26t-8 64q10 37 42 63.5t68 26.5q35 0 53 -26.5t8 -63.5t-42 -63.5t-67 -26.5zM568 86q-118 -101 -266 -99t-215 106t-25 272q43 169 160 269t266 97
q147 -3 214.5 -106.5t25.5 -270.5q-42 -168 -160 -268zM314 33q30 0 62 32.5t57.5 84.5t45 105.5t32.5 103.5q17 69 24 139t-6 127.5t-53 58.5q-30 1 -62 -32t-57.5 -84.5t-45 -105t-32.5 -103.5q-17 -69 -24 -139.5t6.5 -128.5t52.5 -58z" />
    <glyph glyph-name="multiply" unicode="&#xd7;" horiz-adv-x="539" 
d="M135 265q63 41 78 52.5t17 19.5v2q0 9 -11.5 22t-61.5 58l-59 53l40 25l59 -52q49 -45 64.5 -56t28.5 -12q11 0 29 9.5t80 50.5l77 50l36 -32l-78 -51q-64 -41 -79 -52.5t-16 -19.5v-3q0 -8 11 -20t62 -58l69 -62l-40 -26l-69 62q-48 44 -64.5 55.5t-28.5 12.5h-2
q-11 0 -26 -8.5t-81 -50.5l-77 -51l-35 32z" />
    <glyph glyph-name="Oslash" unicode="&#xd8;" horiz-adv-x="776" 
d="M9 -51l93 108q-48 50 -62 136t12 187q44 163 165.5 256.5t269.5 93.5q94 0 160 -46l73 85h47l-93 -108q48 -49 62 -135t-12 -186q-44 -164 -166 -258t-269 -94q-94 0 -160 46l-73 -85h-47zM238 214l302 348q0 122 -65 122q-32 0 -66 -33t-61.5 -85t-49 -105t-34.5 -103
q-20 -72 -26 -144zM301 35q43 0 88 58t75 128.5t49 140.5q19 72 26 143l-303 -349q2 -121 65 -121z" />
    <glyph glyph-name="Ugrave" unicode="&#xd9;" horiz-adv-x="692" 
d="M627 775l-291 97l143 121l169 -201zM304 -12q-43 0 -82 9.5t-75.5 31.5t-57 58.5t-27.5 90t14 126.5l65 245q6 21 9.5 46t4.5 44.5t1.5 38t0 27t0.5 11.5l1 4h254l-1 -4q0 -1 -6 -11.5t-15 -27.5t-18.5 -37.5t-19 -45t-15.5 -45.5l-72 -269q-28 -105 -0.5 -157.5
t92.5 -52.5t121.5 52t82.5 151l51 191q13 50 14.5 111t-2.5 100l-4 39l2 6h169l-1 -6q0 -1 -10.5 -17t-26 -41.5t-32.5 -55.5t-33 -67t-24 -69l-51 -191q-77 -285 -309 -285z" />
    <glyph glyph-name="Uacute" unicode="&#xda;" horiz-adv-x="692" 
d="M375 785l-16 17l223 201l110 -121zM304 -12q-43 0 -82 9.5t-75.5 31.5t-57 58.5t-27.5 90t14 126.5l65 245q6 21 9.5 46t4.5 44.5t1.5 38t0 27t0.5 11.5l1 4h254l-1 -4q0 -1 -6 -11.5t-15 -27.5t-18.5 -37.5t-19 -45t-15.5 -45.5l-72 -269q-28 -105 -0.5 -157.5
t92.5 -52.5t121.5 52t82.5 151l51 191q13 50 14.5 111t-2.5 100l-4 39l2 6h169l-1 -6q0 -1 -10.5 -17t-26 -41.5t-32.5 -55.5t-33 -67t-24 -69l-51 -191q-77 -285 -309 -285z" />
    <glyph glyph-name="Ucircumflex" unicode="&#xdb;" horiz-adv-x="692" 
d="M332 767l-8 11l209 174l115 -174l-13 -11l-133 65zM304 -12q-43 0 -82 9.5t-75.5 31.5t-57 58.5t-27.5 90t14 126.5l65 245q6 21 9.5 46t4.5 44.5t1.5 38t0 27t0.5 11.5l1 4h254l-1 -4q0 -1 -6 -11.5t-15 -27.5t-18.5 -37.5t-19 -45t-15.5 -45.5l-72 -269
q-28 -105 -0.5 -157.5t92.5 -52.5t121.5 52t82.5 151l51 191q13 50 14.5 111t-2.5 100l-4 39l2 6h169l-1 -6q0 -1 -10.5 -17t-26 -41.5t-32.5 -55.5t-33 -67t-24 -69l-51 -191q-77 -285 -309 -285z" />
    <glyph glyph-name="Udieresis" unicode="&#xdc;" horiz-adv-x="692" 
d="M377 770q-35 0 -53 26.5t-8 63.5t42 63.5t67 26.5q36 0 54 -26t8 -64q-10 -37 -42 -63.5t-68 -26.5zM593 770q-36 0 -54 26t-8 64q10 37 42 63.5t68 26.5q35 0 53 -26.5t8 -63.5t-42 -63.5t-67 -26.5zM304 -12q-43 0 -82 9.5t-75.5 31.5t-57 58.5t-27.5 90t14 126.5
l65 245q6 21 9.5 46t4.5 44.5t1.5 38t0 27t0.5 11.5l1 4h254l-1 -4q0 -1 -6 -11.5t-15 -27.5t-18.5 -37.5t-19 -45t-15.5 -45.5l-72 -269q-28 -105 -0.5 -157.5t92.5 -52.5t121.5 52t82.5 151l51 191q13 50 14.5 111t-2.5 100l-4 39l2 6h169l-1 -6q0 -1 -10.5 -17t-26 -41.5
t-32.5 -55.5t-33 -67t-24 -69l-51 -191q-77 -285 -309 -285z" />
    <glyph glyph-name="Yacute" unicode="&#xdd;" horiz-adv-x="660" 
d="M370 785l-16 17l223 201l110 -121zM141 0l1 4q0 1 6 11.5t15 27.5t18.5 37.5t19 45t15.5 45.5l29 109l-68 283q-6 30 -17.5 67.5t-19.5 60.5t-8 24l2 5h289l-1 -4q0 -1 -6 -12.5t-13.5 -27.5t-15 -38.5t-10 -44.5t1.5 -46l41 -214l143 198q17 23 27 50t13.5 49.5t4.5 41
t0.5 30.5t-0.5 13l2 5h166l-1 -4q0 -1 -21.5 -24.5t-53 -61.5t-52.5 -68l-205 -282l-30 -109q-6 -21 -9.5 -45.5t-4.5 -45t-1 -37.5v-27.5v-11.5l-1 -4h-256z" />
    <glyph glyph-name="Thorn" unicode="&#xde;" horiz-adv-x="627" 
d="M499 626q84 0 127.5 -67t10.5 -190q-35 -129 -120.5 -199.5t-167.5 -70.5q-74 0 -112 53q-7 -31 -9.5 -67t-2.5 -59v-22l-1 -4h-254l1 4q0 1 6 11.5t15 27.5t18.5 37.5t19 45t15.5 45.5l101 378q6 21 9.5 46t4.5 44.5t2 38t0 27t0 11.5l1 4h254l-1 -4l-12 -23
q-13 -23 -30 -59.5t-27 -68.5q67 61 152 61zM434 369q19 59 5 105t-61 46q-22 0 -46 -10l-83 -310q17 -8 37 -8q52 0 90 52t58 125z" />
    <glyph glyph-name="germandbls" unicode="&#xdf;" horiz-adv-x="652" 
d="M-36 0l1 4q0 1 6 11.5t15 27.5t18.5 37.5t19 45t15.5 45.5l98 366q55 203 304 203q35 0 70 -4t79.5 -15t67 -38t12.5 -66q-9 -33 -44 -65.5t-69.5 -61.5t-41.5 -56q-6 -22 4.5 -45.5t29 -43.5t36 -48.5t25 -59.5t-3.5 -77q-19 -70 -81.5 -120t-139 -53.5t-151.5 53.5
l15 46q36 -19 67 -21.5t50.5 8.5t31.5 24.5t16 28.5q6 24 -9.5 58.5t-37 64.5t-35.5 69.5t-5 73.5q9 32 36.5 61t56.5 48t57.5 50t38.5 67q20 77 -57 77q-35 0 -60 -13.5t-41.5 -41t-25 -51t-18.5 -61.5l-142 -528h-208z" />
    <glyph glyph-name="agrave" unicode="&#xe0;" horiz-adv-x="633" 
d="M559 582l-21 -17l-291 97l143 121zM592 168l12 -3q-29 -77 -84 -126t-122 -49q-56 0 -78 33t-16 85q-90 -120 -185 -120q-57 0 -87.5 44t-28.5 118t37 161q25 62 58.5 105t69 63.5t65.5 28.5t61 8q94 0 127 -57q40 10 149 51h23l-96 -357q-11 -42 16 -39q32 5 79 54z
M220 97q32 0 69.5 49.5t66.5 156.5l35 124q-8 29 -40 29q-55 0 -115 -152q-18 -45 -28.5 -79.5t-15.5 -65t2 -46.5t26 -16z" />
    <glyph glyph-name="aacute" unicode="&#xe1;" horiz-adv-x="633" 
d="M603 672l-317 -97l-16 17l223 201zM592 168l12 -3q-29 -77 -84 -126t-122 -49q-56 0 -78 33t-16 85q-90 -120 -185 -120q-57 0 -87.5 44t-28.5 118t37 161q25 62 58.5 105t69 63.5t65.5 28.5t61 8q94 0 127 -57q40 10 149 51h23l-96 -357q-11 -42 16 -39q32 5 79 54z
M220 97q32 0 69.5 49.5t66.5 156.5l35 124q-8 29 -40 29q-55 0 -115 -152q-18 -45 -28.5 -79.5t-15.5 -65t2 -46.5t26 -16z" />
    <glyph glyph-name="acircumflex" unicode="&#xe2;" horiz-adv-x="633" 
d="M413 622l-170 -65l-8 11l209 174l115 -174l-13 -11zM592 168l12 -3q-29 -77 -84 -126t-122 -49q-56 0 -78 33t-16 85q-90 -120 -185 -120q-57 0 -87.5 44t-28.5 118t37 161q25 62 58.5 105t69 63.5t65.5 28.5t61 8q94 0 127 -57q40 10 149 51h23l-96 -357q-11 -42 16 -39
q32 5 79 54zM220 97q32 0 69.5 49.5t66.5 156.5l35 124q-8 29 -40 29q-55 0 -115 -152q-18 -45 -28.5 -79.5t-15.5 -65t2 -46.5t26 -16z" />
    <glyph glyph-name="atilde" unicode="&#xe3;" horiz-adv-x="633" 
d="M302 597q-47 -2 -83 -39q2 54 42.5 104t99.5 50q26 0 73 -15.5t75 -15.5q67 0 110 44q-22 -85 -64 -123.5t-92 -38.5q-28 0 -84.5 17.5t-76.5 16.5zM497 153q-11 -42 16 -39q32 5 79 54l12 -3q-29 -77 -84 -126t-122 -49q-56 0 -78 33t-16 85q-90 -120 -185 -120
q-57 0 -87.5 44t-28.5 118t37 161q25 62 58.5 105t69 63.5t65.5 28.5t61 8q94 0 127 -57q40 10 149 51h23zM220 97q32 0 69.5 49.5t66.5 156.5l35 124q-8 29 -40 29q-55 0 -115 -152q-18 -45 -28.5 -79.5t-15.5 -65t2 -46.5t26 -16z" />
    <glyph glyph-name="adieresis" unicode="&#xe4;" horiz-adv-x="633" 
d="M288 560q-35 0 -53 26.5t-8 63.5t42 63.5t67 26.5q36 0 54 -26t8 -64q-10 -37 -42 -63.5t-68 -26.5zM552 740q35 0 53 -26.5t8 -63.5t-42 -63.5t-67 -26.5q-36 0 -54 26t-8 64q10 37 42 63.5t68 26.5zM497 153q-11 -42 16 -39q32 5 79 54l12 -3q-29 -77 -84 -126
t-122 -49q-56 0 -78 33t-16 85q-90 -120 -185 -120q-57 0 -87.5 44t-28.5 118t37 161q25 62 58.5 105t69 63.5t65.5 28.5t61 8q94 0 127 -57q40 10 149 51h23zM220 97q32 0 69.5 49.5t66.5 156.5l35 124q-8 29 -40 29q-55 0 -115 -152q-18 -45 -28.5 -79.5t-15.5 -65
t2 -46.5t26 -16z" />
    <glyph glyph-name="aring" unicode="&#xe5;" horiz-adv-x="633" 
d="M471 578q-37 -30 -78 -30t-62 29.5t-10 72.5t48 72.5t78 29.5t62 -29.5t10 -72.5t-48 -72zM370 650q-6 -22 4.5 -38t31.5 -16q20 0 39.5 16t24.5 38q6 22 -4.5 38t-31.5 16q-20 0 -39.5 -16t-24.5 -38zM592 168l12 -3q-29 -77 -84 -126t-122 -49q-56 0 -78 33t-16 85
q-90 -120 -185 -120q-57 0 -87.5 44t-28.5 118t37 161q25 62 58.5 105t69 63.5t65.5 28.5t61 8q94 0 127 -57q40 10 149 51h23l-96 -357q-11 -42 16 -39q32 5 79 54zM220 97q32 0 69.5 49.5t66.5 156.5l35 124q-8 29 -40 29q-55 0 -115 -152q-18 -45 -28.5 -79.5t-15.5 -65
t2 -46.5t26 -16z" />
    <glyph glyph-name="ae" unicode="&#xe6;" horiz-adv-x="825" 
d="M495 -12q-114 0 -166 77q-100 -74 -200 -74q-83 0 -118.5 48t-16.5 116q20 74 85.5 120t139.5 46q59 0 104 -22l14 55q6 20 9 32.5t6.5 26.5t4 22.5t0.5 16t-3 11t-8 3.5q-24 0 -90.5 -36t-121.5 -72l-54 -37l43 161q151 34 248 34q80 0 119 -34q71 34 151 34
q52 0 89 -15.5t56 -40.5t27 -59t5.5 -68.5t-12.5 -71.5h-294q-20 -152 98 -152q65 0 158 48q-31 -60 -106 -114.5t-167 -54.5zM517 287l131 40q7 28 11 48.5t5 44.5t-8.5 37t-29.5 13q-40 0 -69 -55t-40 -128zM234 91q19 0 38 12l43 162q-13 4 -29 4q-76 0 -99 -84
q-11 -41 1 -67.5t46 -26.5z" />
    <glyph glyph-name="ccedilla" unicode="&#xe7;" horiz-adv-x="512" 
d="M284 108q40 0 96 26t83 52l13 -3q-42 -76 -114.5 -135t-158.5 -60l-25 -34q45 0 76 -20.5t31 -55.5q0 -31 -24.5 -49t-66.5 -18q-60 0 -101 27v37q31 -19 54.5 -13t23.5 27q0 15 -13.5 28.5t-35.5 17.5l41 56q-85 16 -125 96.5t-8 201.5q32 116 116.5 171.5t178.5 55.5
q76 0 166 -45l-44 -175h-5q-2 7 -9 28l-11 33t-11.5 32t-14 32t-15 24.5t-18.5 18.5t-20 6q-33 0 -69.5 -56t-53.5 -126q-22 -77 -6 -128.5t70 -51.5z" />
    <glyph glyph-name="egrave" unicode="&#xe8;" horiz-adv-x="523" 
d="M507 582l-21 -17l-291 97l143 121zM473 475q50 -42 31 -106t-96 -102.5t-202 -36.5q-5 -57 14.5 -90t63.5 -33q43 0 95.5 24t88.5 55l15 -3q-43 -76 -119.5 -135.5t-164.5 -59.5q-100 0 -153.5 81t-19.5 206q18 65 54 114t81 75.5t89 39t88 12.5q85 0 135 -41zM334 470
q-33 0 -66 -55t-52 -127q-4 -16 -5 -24q58 12 94 45t50 72q12 29 7.5 59t-28.5 30z" />
    <glyph glyph-name="eacute" unicode="&#xe9;" horiz-adv-x="523" 
d="M551 672l-317 -97l-16 17l223 201zM338 516q85 0 135 -41.5t31 -105.5t-96 -102.5t-202 -36.5q-5 -57 14.5 -90t63.5 -33q43 0 95.5 24t88.5 55l15 -3q-43 -76 -119.5 -135.5t-164.5 -59.5q-100 0 -153.5 81t-19.5 206q18 65 54 114t81 75.5t89 39t88 12.5zM355 381
q12 29 7.5 59t-28.5 30q-33 0 -66 -55t-52 -127q-4 -16 -5 -24q58 12 94 45t50 72z" />
    <glyph glyph-name="ecircumflex" unicode="&#xea;" horiz-adv-x="523" 
d="M361 622l-170 -65l-8 11l209 174l115 -174l-13 -11zM473 475q50 -42 31 -106t-96 -102.5t-202 -36.5q-5 -57 14.5 -90t63.5 -33q43 0 95.5 24t88.5 55l15 -3q-43 -76 -119.5 -135.5t-164.5 -59.5q-100 0 -153.5 81t-19.5 206q18 65 54 114t81 75.5t89 39t88 12.5
q85 0 135 -41zM334 470q-33 0 -66 -55t-52 -127q-4 -16 -5 -24q58 12 94 45t50 72q12 29 7.5 59t-28.5 30z" />
    <glyph glyph-name="edieresis" unicode="&#xeb;" horiz-adv-x="523" 
d="M236 560q-35 0 -53 26.5t-8 63.5t42 63.5t67 26.5q36 0 54 -26t8 -64q-10 -37 -42 -63.5t-68 -26.5zM500 740q35 0 53 -26.5t8 -63.5t-42 -63.5t-67 -26.5q-36 0 -54 26t-8 64q10 37 42 63.5t68 26.5zM338 516q85 0 135 -41.5t31 -105.5t-96 -102.5t-202 -36.5
q-5 -57 14.5 -90t63.5 -33q43 0 95.5 24t88.5 55l15 -3q-43 -76 -119.5 -135.5t-164.5 -59.5q-100 0 -153.5 81t-19.5 206q18 65 54 114t81 75.5t89 39t88 12.5zM355 381q12 29 7.5 59t-28.5 30q-33 0 -66 -55t-52 -127q-4 -16 -5 -24q58 12 94 45t50 72z" />
    <glyph glyph-name="igrave" unicode="&#xec;" horiz-adv-x="350" 
d="M387 565l-291 97l143 121l169 -201zM118 -10q-68 0 -87.5 53t5.5 128l49 168q25 86 15 167l1 4h214l-101 -357q-11 -40 15 -38q31 2 80 53l12 -3q-29 -77 -82.5 -126t-120.5 -49z" />
    <glyph glyph-name="iacute" unicode="&#xed;" horiz-adv-x="350" 
d="M135 575l-16 17l223 201l110 -121zM118 -10q-68 0 -87.5 53t5.5 128l49 168q25 86 15 167l1 4h214l-101 -357q-11 -40 15 -38q31 2 80 53l12 -3q-29 -77 -82.5 -126t-120.5 -49z" />
    <glyph glyph-name="icircumflex" unicode="&#xee;" horiz-adv-x="350" 
d="M92 557l-8 11l209 174l115 -174l-13 -11l-133 65zM118 -10q-68 0 -87.5 53t5.5 128l49 168q25 86 15 167l1 4h214l-101 -357q-11 -40 15 -38q31 2 80 53l12 -3q-29 -77 -82.5 -126t-120.5 -49z" />
    <glyph glyph-name="idieresis" unicode="&#xef;" horiz-adv-x="350" 
d="M137 560q-35 0 -53 26.5t-8 63.5t42 63.5t67 26.5q36 0 54 -26t8 -64q-10 -37 -42 -63.5t-68 -26.5zM353 560q-36 0 -54 26t-8 64q10 37 42 63.5t68 26.5q35 0 53 -26.5t8 -63.5t-42 -63.5t-67 -26.5zM118 -10q-68 0 -87.5 53t5.5 128l49 168q25 86 15 167l1 4h214
l-101 -357q-11 -40 15 -38q31 2 80 53l12 -3q-29 -77 -82.5 -126t-120.5 -49z" />
    <glyph glyph-name="eth" unicode="&#xf0;" horiz-adv-x="601" 
d="M216 -12q-115 0 -173 65.5t-29 176.5q24 90 98 154t165 64q82 0 115 -52q23 90 -9 178l-134 -82l14 50l106 65q-39 80 -118 123q132 0 224 -58l130 80l-14 -50l-86 -53q66 -59 86 -151t-7 -187q-44 -161 -141 -242t-227 -81zM229 35q13 0 25 6.5t22.5 21t19.5 29.5
t18.5 39t16 42.5t15 48t13 47t12.5 48t11 42.5q-31 20 -60 20q-43 0 -75.5 -46t-49.5 -112q-23 -82 -14 -134t46 -52z" />
    <glyph glyph-name="ntilde" unicode="&#xf1;" horiz-adv-x="659" 
d="M315 597q-47 -2 -83 -39q2 54 42.5 104t99.5 50q26 0 73 -15.5t75 -15.5q67 0 110 44q-22 -85 -64 -123.5t-92 -38.5q-28 0 -84.5 17.5t-76.5 16.5zM522 153q-11 -41 16 -38q32 3 80 53l12 -3q-29 -77 -84 -126t-122 -49q-45 0 -70.5 23.5t-26.5 58t8 72.5l53 179
q24 79 -9 79q-13 0 -30 -11t-39 -35t-46 -73t-43 -115l-40 -168h-187l91 339q6 21 9.5 46t4.5 44.5t1.5 38t-0.5 27t0 11.5l1 4h202l-38 -157q105 163 212 163q63 0 94 -43.5t11 -113.5z" />
    <glyph glyph-name="ograve" unicode="&#xf2;" horiz-adv-x="548" 
d="M498 565l-291 97l143 121l169 -201zM207 -12q-106 2 -163 74t-21 199q24 86 77 145.5t115.5 85t130.5 24.5q105 -2 160 -70t20 -195q-36 -127 -126 -196t-193 -67zM219 37q11 0 21 6.5t19 21t16.5 29.5t16 38.5t14 40t14 43t12.5 39.5q16 48 24 94.5t2 82.5t-30 36
q-15 0 -28.5 -11.5t-25.5 -39t-19 -46t-20 -60.5t-17 -54q-12 -35 -20 -71.5t-11 -70.5t5 -56t27 -22z" />
    <glyph glyph-name="oacute" unicode="&#xf3;" horiz-adv-x="548" 
d="M246 575l-16 17l223 201l110 -121zM207 -12q-106 2 -163 74t-21 199q24 86 77 145.5t115.5 85t130.5 24.5q105 -2 160 -70t20 -195q-36 -127 -126 -196t-193 -67zM219 37q11 0 21 6.5t19 21t16.5 29.5t16 38.5t14 40t14 43t12.5 39.5q16 48 24 94.5t2 82.5t-30 36
q-15 0 -28.5 -11.5t-25.5 -39t-19 -46t-20 -60.5t-17 -54q-12 -35 -20 -71.5t-11 -70.5t5 -56t27 -22z" />
    <glyph glyph-name="ocircumflex" unicode="&#xf4;" horiz-adv-x="548" 
d="M203 557l-8 11l209 174l115 -174l-13 -11l-133 65zM207 -12q-106 2 -163 74t-21 199q24 86 77 145.5t115.5 85t130.5 24.5q105 -2 160 -70t20 -195q-36 -127 -126 -196t-193 -67zM219 37q11 0 21 6.5t19 21t16.5 29.5t16 38.5t14 40t14 43t12.5 39.5q16 48 24 94.5
t2 82.5t-30 36q-15 0 -28.5 -11.5t-25.5 -39t-19 -46t-20 -60.5t-17 -54q-12 -35 -20 -71.5t-11 -70.5t5 -56t27 -22z" />
    <glyph glyph-name="otilde" unicode="&#xf5;" horiz-adv-x="548" 
d="M179 558q2 54 42.5 104t99.5 50q26 0 73 -15.5t75 -15.5q67 0 110 44q-22 -85 -64 -123.5t-92 -38.5q-28 0 -84.5 17.5t-76.5 16.5q-47 -2 -83 -39zM207 -12q-106 2 -163 74t-21 199q24 86 77 145.5t115.5 85t130.5 24.5q105 -2 160 -70t20 -195q-36 -127 -126 -196
t-193 -67zM219 37q11 0 21 6.5t19 21t16.5 29.5t16 38.5t14 40t14 43t12.5 39.5q16 48 24 94.5t2 82.5t-30 36q-15 0 -28.5 -11.5t-25.5 -39t-19 -46t-20 -60.5t-17 -54q-12 -35 -20 -71.5t-11 -70.5t5 -56t27 -22z" />
    <glyph glyph-name="odieresis" unicode="&#xf6;" horiz-adv-x="548" 
d="M248 560q-35 0 -53 26.5t-8 63.5t42 63.5t67 26.5q36 0 54 -26t8 -64q-10 -37 -42 -63.5t-68 -26.5zM464 560q-36 0 -54 26t-8 64q10 37 42 63.5t68 26.5q35 0 53 -26.5t8 -63.5t-42 -63.5t-67 -26.5zM207 -12q-106 2 -163 74t-21 199q24 86 77 145.5t115.5 85
t130.5 24.5q105 -2 160 -70t20 -195q-36 -127 -126 -196t-193 -67zM219 37q11 0 21 6.5t19 21t16.5 29.5t16 38.5t14 40t14 43t12.5 39.5q16 48 24 94.5t2 82.5t-30 36q-15 0 -28.5 -11.5t-25.5 -39t-19 -46t-20 -60.5t-17 -54q-12 -35 -20 -71.5t-11 -70.5t5 -56t27 -22z
" />
    <glyph glyph-name="divide" unicode="&#xf7;" horiz-adv-x="529" 
d="M314 447q-24 0 -36 18.5t-5 43.5q7 24 29 43t45 19t35 -18.5t5 -43.5q-6 -25 -28 -43.5t-45 -18.5zM64 306l13 50h429l-14 -50h-428zM217 87q-23 0 -35 18.5t-5 43.5q6 24 28 43t45 19q24 0 36 -18.5t5 -43.5t-28.5 -43.5t-45.5 -18.5z" />
    <glyph glyph-name="oslash" unicode="&#xf8;" horiz-adv-x="548" 
d="M455 490q54 -30 73.5 -87.5t-2.5 -151.5q-36 -127 -126 -196t-193 -67q-39 2 -63 9l-41 -66h-50l51 81q-59 31 -81.5 91t0.5 158q24 86 77 145.5t115.5 85t130.5 24.5q32 0 69 -10l42 67h50zM218 257q-19 -55 -26 -106l168 268q-3 49 -32 49q-15 0 -28.5 -11.5t-25.5 -39
t-19 -46t-20 -60.5t-17 -54zM219 37q11 0 21 6.5t19 21t16.5 29.5t16 38.5t14 40t14 43t12.5 39.5q13 40 19 70l-161 -257q7 -31 29 -31z" />
    <glyph glyph-name="ugrave" unicode="&#xf9;" horiz-adv-x="661" 
d="M573 582l-21 -17l-291 97l143 121zM620 168l12 -3q-29 -77 -84 -126t-122 -49q-65 0 -85 43.5t-5 105.5q-97 -145 -200 -145q-63 0 -94 43.5t-11 113.5l54 188q4 16 7.5 33t5 32.5t2 30.5t0.5 27.5t-0.5 21t-1.5 14.5v7v5h222l-95 -323q-24 -79 9 -79q12 0 28.5 10t37 32
t43.5 66t42 103l52 191h184l-96 -357q-11 -42 16 -39q32 5 79 54z" />
    <glyph glyph-name="uacute" unicode="&#xfa;" horiz-adv-x="661" 
d="M617 672l-317 -97l-16 17l223 201zM620 168l12 -3q-29 -77 -84 -126t-122 -49q-65 0 -85 43.5t-5 105.5q-97 -145 -200 -145q-63 0 -94 43.5t-11 113.5l54 188q4 16 7.5 33t5 32.5t2 30.5t0.5 27.5t-0.5 21t-1.5 14.5v7v5h222l-95 -323q-24 -79 9 -79q12 0 28.5 10t37 32
t43.5 66t42 103l52 191h184l-96 -357q-11 -42 16 -39q32 5 79 54z" />
    <glyph glyph-name="ucircumflex" unicode="&#xfb;" horiz-adv-x="661" 
d="M427 622l-170 -65l-8 11l209 174l115 -174l-13 -11zM620 168l12 -3q-29 -77 -84 -126t-122 -49q-65 0 -85 43.5t-5 105.5q-97 -145 -200 -145q-63 0 -94 43.5t-11 113.5l54 188q4 16 7.5 33t5 32.5t2 30.5t0.5 27.5t-0.5 21t-1.5 14.5v7v5h222l-95 -323q-24 -79 9 -79
q12 0 28.5 10t37 32t43.5 66t42 103l52 191h184l-96 -357q-11 -42 16 -39q32 5 79 54z" />
    <glyph glyph-name="udieresis" unicode="&#xfc;" horiz-adv-x="661" 
d="M302 560q-35 0 -53 26.5t-8 63.5t42 63.5t67 26.5q36 0 54 -26t8 -64q-10 -37 -42 -63.5t-68 -26.5zM518 560q-36 0 -54 26t-8 64q10 37 42 63.5t68 26.5q35 0 53 -26.5t8 -63.5t-42 -63.5t-67 -26.5zM620 168l12 -3q-29 -77 -84 -126t-122 -49q-65 0 -85 43.5t-5 105.5
q-97 -145 -200 -145q-63 0 -94 43.5t-11 113.5l54 188q4 16 7.5 33t5 32.5t2 30.5t0.5 27.5t-0.5 21t-1.5 14.5v7v5h222l-95 -323q-24 -79 9 -79q12 0 28.5 10t37 32t43.5 66t42 103l52 191h184l-96 -357q-11 -42 16 -39q32 5 79 54z" />
    <glyph glyph-name="yacute" unicode="&#xfd;" horiz-adv-x="588" 
d="M560 672l-317 -97l-16 17l223 201zM424 475l203 45q-29 -134 -99 -274t-172.5 -254.5t-209.5 -155.5q-117 -45 -225 -15l88 186h3q49 -101 141 -92q9 1 27 5q-1 200 -25 412q-6 58 -34 58q-31 0 -81 -52l-12 3q35 80 90 127.5t110 47.5q47 0 68.5 -38.5t33.5 -123.5
q20 -147 23 -288q80 127 86 270q4 83 -15 139z" />
    <glyph glyph-name="thorn" unicode="&#xfe;" horiz-adv-x="590" 
d="M-89 -200l1 4q0 1 6 11.5t15 27.5t19 37.5t19.5 45t15.5 45.5l146 548q9 34 12.5 74.5t3.5 66v26.5l1 4h238l-1 -4q0 -1 -6 -11.5t-15 -27.5t-19 -37.5t-19.5 -45t-15.5 -45.5l-21 -80q32 37 75 57t86 20q79 0 115 -66.5t3 -190.5q-35 -130 -112.5 -200t-154.5 -70
q-80 0 -115 67l-22 -85q-6 -21 -9.5 -46t-4.5 -44.5t-2 -38t0 -27t0 -11.5l-1 -4h-238zM244 82q87 0 133 177q41 151 -41 151q-28 0 -57 -16l-80 -299q21 -13 45 -13z" />
    <glyph glyph-name="ydieresis" unicode="&#xff;" horiz-adv-x="588" 
d="M245 560q-35 0 -53 26.5t-8 63.5t42 63.5t67 26.5q36 0 54 -26t8 -64q-10 -37 -42 -63.5t-68 -26.5zM461 560q-36 0 -54 26t-8 64q10 37 42 63.5t68 26.5q35 0 53 -26.5t8 -63.5t-42 -63.5t-67 -26.5zM424 475l203 45q-29 -134 -99 -274t-172.5 -254.5t-209.5 -155.5
q-117 -45 -225 -15l88 186h3q49 -101 141 -92q9 1 27 5q-1 200 -25 412q-6 58 -34 58q-31 0 -81 -52l-12 3q35 80 90 127.5t110 47.5q47 0 68.5 -38.5t33.5 -123.5q20 -147 23 -288q80 127 86 270q4 83 -15 139z" />
    <glyph glyph-name="Amacron" unicode="&#x100;" horiz-adv-x="693" 
d="M357 831l13 50h289l-13 -50h-289zM-63 0l1 4q78 99 163 240l199 329q11 18 17.5 39t8.5 38.5t2 32t-1 23.5l-1 10l1 4h211l47 -542q10 -106 36 -174l-1 -4h-281l1 4q0 1 6.5 12.5t15 29t17 38.5t13 46.5t2.5 47.5l-5 65h-231l-18 -31q-16 -26 -24.5 -56.5t-10.5 -55.5
t-1 -46t3 -35l2 -14l-1 -5h-171zM189 293h195l-24 284z" />
    <glyph glyph-name="amacron" unicode="&#x101;" horiz-adv-x="633" 
d="M569 671l-13 -50h-289l13 50h289zM592 168l12 -3q-29 -77 -84 -126t-122 -49q-56 0 -78 33t-16 85q-90 -120 -185 -120q-57 0 -87.5 44t-28.5 118t37 161q25 62 58.5 105t69 63.5t65.5 28.5t61 8q94 0 127 -57q40 10 149 51h23l-96 -357q-11 -42 16 -39q32 5 79 54z
M220 97q32 0 69.5 49.5t66.5 156.5l35 124q-8 29 -40 29q-55 0 -115 -152q-18 -45 -28.5 -79.5t-15.5 -65t2 -46.5t26 -16z" />
    <glyph glyph-name="Abreve" unicode="&#x102;" horiz-adv-x="693" 
d="M605 820q-56 -45 -118 -45t-93.5 45t-14.5 110h21q6 -26 40.5 -42.5t72.5 -16.5q37 0 79.5 16.5t63.5 42.5h21q-17 -65 -72 -110zM-63 0l1 4q78 99 163 240l199 329q11 18 17.5 39t8.5 38.5t2 32t-1 23.5l-1 10l1 4h211l47 -542q10 -106 36 -174l-1 -4h-281l1 4
q0 1 6.5 12.5t15 29t17 38.5t13 46.5t2.5 47.5l-5 65h-231l-18 -31q-16 -26 -24.5 -56.5t-10.5 -55.5t-1 -46t3 -35l2 -14l-1 -5h-171zM189 293h195l-24 284z" />
    <glyph glyph-name="abreve" unicode="&#x103;" horiz-adv-x="633" 
d="M515 610q-56 -45 -118 -45t-93.5 45t-14.5 110h21q6 -26 40.5 -42.5t72.5 -16.5q37 0 79.5 16.5t63.5 42.5h21q-17 -65 -72 -110zM592 168l12 -3q-29 -77 -84 -126t-122 -49q-56 0 -78 33t-16 85q-90 -120 -185 -120q-57 0 -87.5 44t-28.5 118t37 161q25 62 58.5 105
t69 63.5t65.5 28.5t61 8q94 0 127 -57q40 10 149 51h23l-96 -357q-11 -42 16 -39q32 5 79 54zM220 97q32 0 69.5 49.5t66.5 156.5l35 124q-8 29 -40 29q-55 0 -115 -152q-18 -45 -28.5 -79.5t-15.5 -65t2 -46.5t26 -16z" />
    <glyph glyph-name="Aogonek" unicode="&#x104;" horiz-adv-x="693" 
d="M620 0h-104q-40 -40 -40 -83q0 -30 23.5 -41.5t54.5 7.5v-37q-50 -27 -97 -27q-43 0 -69 23t-26 59q0 64 73 99h-96l1 4q0 1 6.5 12.5t15 29t17 38.5t13 46.5t2.5 47.5l-5 65h-231l-18 -31q-16 -26 -24.5 -56.5t-10.5 -55.5t-1 -46t3 -35l2 -14l-1 -5h-171l1 4
q78 99 163 240l199 329q11 18 17.5 39t8.5 38.5t2 32t-1 23.5l-1 10l1 4h211l47 -542q10 -106 36 -174zM189 293h195l-24 284z" />
    <glyph glyph-name="aogonek" unicode="&#x105;" horiz-adv-x="633" 
d="M459 1q-42 -40 -42 -84q0 -30 23.5 -41.5t54.5 7.5v-37q-50 -27 -97 -27q-43 0 -69 23t-26 59q0 58 62 93q-72 19 -61 114q-90 -120 -185 -120q-57 0 -87.5 44t-28.5 118t37 161q25 62 58.5 105t69 63.5t65.5 28.5t61 8q94 0 127 -57q40 10 149 51h23l-96 -357
q-11 -42 16 -39q32 5 79 54l12 -3q-22 -59 -60 -102.5t-85 -61.5zM220 97q32 0 69.5 49.5t66.5 156.5l35 124q-8 29 -40 29q-55 0 -115 -152q-18 -45 -28.5 -79.5t-15.5 -65t2 -46.5t26 -16z" />
    <glyph glyph-name="Cacute" unicode="&#x106;" horiz-adv-x="649" 
d="M295 785l-16 17l223 201l110 -121zM306 -12q-150 0 -219.5 105t-26.5 266q46 172 158 271.5t272 99.5q83 0 232 -39l-58 -219h-6q-78 212 -168 212q-59 0 -115.5 -89t-95.5 -236q-35 -119 -24 -221.5t68 -102.5q89 0 282 224h6l-59 -221q-138 -50 -246 -50z" />
    <glyph glyph-name="cacute" unicode="&#x107;" horiz-adv-x="512" 
d="M238 575l-16 17l223 201l110 -121zM199 -12q-101 0 -153 83.5t-16 217.5q32 116 116.5 171.5t178.5 55.5q76 0 166 -45l-44 -175h-5q-2 7 -9 28l-11 33t-11.5 32t-14 32t-15 24.5t-18.5 18.5t-20 6q-33 0 -69.5 -56t-53.5 -126q-22 -77 -6 -128.5t70 -51.5q40 0 96 26
t83 52l13 -3q-44 -77 -116.5 -136t-160.5 -59z" />
    <glyph glyph-name="Ccaron" unicode="&#x10c;" horiz-adv-x="649" 
d="M308 972l135 -65l168 65l7 -11l-209 -174l-115 174zM306 -12q-150 0 -219.5 105t-26.5 266q46 172 158 271.5t272 99.5q83 0 232 -39l-58 -219h-6q-78 212 -168 212q-59 0 -115.5 -89t-95.5 -236q-35 -119 -24 -221.5t68 -102.5q89 0 282 224h6l-59 -221
q-138 -50 -246 -50z" />
    <glyph glyph-name="ccaron" unicode="&#x10d;" horiz-adv-x="512" 
d="M251 762l135 -65l168 65l7 -11l-209 -174l-115 174zM199 -12q-101 0 -153 83.5t-16 217.5q32 116 116.5 171.5t178.5 55.5q76 0 166 -45l-44 -175h-5q-2 7 -9 28l-11 33t-11.5 32t-14 32t-15 24.5t-18.5 18.5t-20 6q-33 0 -69.5 -56t-53.5 -126q-22 -77 -6 -128.5
t70 -51.5q40 0 96 26t83 52l13 -3q-44 -77 -116.5 -136t-160.5 -59z" />
    <glyph glyph-name="Dcaron" unicode="&#x10e;" horiz-adv-x="719" 
d="M282 972l135 -65l168 65l7 -11l-209 -174l-115 174zM-30 0l2 4l4 6q3 7 8 16t11.5 21.5t13.5 27.5t14 30.5t13 32.5t10 33l101 378q6 21 9.5 46t4.5 44.5t1.5 38t-0.5 27t0 11.5l1 4h306q147 0 217 -103t23 -279q-41 -153 -164 -245.5t-269 -92.5h-306zM209 46h22
q50 0 94 27t76.5 73.5t56 100t39.5 114.5q16 59 20.5 111.5t-2.5 100t-36.5 75t-79.5 27.5h-22z" />
    <glyph glyph-name="dcaron" unicode="&#x10f;" horiz-adv-x="746" 
d="M497 153q-11 -42 16 -39q32 5 79 54l12 -3q-29 -77 -84 -126t-122 -49q-57 0 -78.5 33.5t-15.5 85.5q-90 -121 -185 -121q-57 0 -87.5 44t-28.5 118t37 161q25 61 59 104.5t69 64t63.5 28.5t54.5 8q73 -1 108 -63l29 106q16 61 16 163v4l218 24zM771 738q43 -1 63 -38
t5 -99q-16 -69 -66 -128.5t-118 -78.5h-40q48 25 76 63t36 72q-45 -1 -65.5 30t-8.5 79q12 45 45.5 73t72.5 27zM220 97q28 0 61.5 39t60.5 123l38 139q-7 40 -36 40q-55 0 -108 -134q-18 -45 -28.5 -79.5t-15.5 -65t2 -46.5t26 -16z" />
    <glyph glyph-name="Dcroat" unicode="&#x110;" horiz-adv-x="748" 
d="M11 0l1 4q0 1 6 11.5t15 27.5t18.5 37.5t19 45t15.5 45.5l42 156h-85l14 50h85l46 172q6 21 9.5 46t4.5 44.5t1.5 38t-0.5 27t0 11.5l1 4h300q145 0 214 -99t26 -260q-44 -165 -165.5 -263t-267.5 -98h-300zM243 46h22q66 0 121.5 48.5t89.5 115.5t56 151
q16 59 20.5 111.5t-2.5 100t-36.5 75t-79.5 27.5h-22l-80 -298h115l-13 -50h-115z" />
    <glyph glyph-name="dcroat" unicode="&#x111;" horiz-adv-x="615" 
d="M611 580l-114 -427q-11 -42 16 -39q32 5 79 54l12 -3q-29 -77 -84 -126t-122 -49q-57 0 -78.5 33.5t-15.5 85.5q-90 -121 -185 -121q-57 0 -87.5 44t-28.5 118t37 161q25 61 59 104.5t69 64t63.5 28.5t54.5 8q73 -1 108 -63l29 106q1 3 2.5 10t2.5 11h-145l14 50h139
q3 29 3 92v4l218 24l-32 -120h82l-14 -50h-82zM220 97q28 0 61.5 39t60.5 123l38 139q-7 40 -36 40q-55 0 -108 -134q-18 -45 -28.5 -79.5t-15.5 -65t2 -46.5t26 -16z" />
    <glyph glyph-name="Emacron" unicode="&#x112;" horiz-adv-x="603" 
d="M312 831l13 50h289l-13 -50h-289zM-30 0l1 4q0 1 6 11.5t15 27.5t18.5 37.5t19 45t15.5 45.5l101 378q9 34 12.5 74.5t3.5 66v26.5l1 4h523l-58 -217h-4q-1 0 -9.5 17.5t-23 42.5t-33 50t-44 42.5t-52.5 17.5h-86l-77 -286h9q26 0 57.5 6.5t58.5 15.5t49.5 18t36.5 15.5
t15 6.5h5l-44 -164h-5q-1 0 -11.5 6.5t-28 15.5t-39.5 18t-50 15.5t-55 6.5h-8l-81 -300h90q26 0 61.5 17.5t67 42.5t59.5 50.5t45.5 43t18.5 17.5h5l-59 -218h-526z" />
    <glyph glyph-name="emacron" unicode="&#x113;" horiz-adv-x="523" 
d="M517 671l-13 -50h-289l13 50h289zM338 516q85 0 135 -41.5t31 -105.5t-96 -102.5t-202 -36.5q-5 -57 14.5 -90t63.5 -33q43 0 95.5 24t88.5 55l15 -3q-43 -76 -119.5 -135.5t-164.5 -59.5q-100 0 -153.5 81t-19.5 206q18 65 54 114t81 75.5t89 39t88 12.5zM355 381
q12 29 7.5 59t-28.5 30q-33 0 -66 -55t-52 -127q-4 -16 -5 -24q58 12 94 45t50 72z" />
    <glyph glyph-name="Edotaccent" unicode="&#x116;" horiz-adv-x="603" 
d="M432 763q-43 0 -66.5 32.5t-11.5 78.5q13 46 53.5 78.5t84.5 32.5t67 -32.5t11 -78.5q-13 -46 -53.5 -78.5t-84.5 -32.5zM-30 0l1 4q0 1 6 11.5t15 27.5t18.5 37.5t19 45t15.5 45.5l101 378q9 34 12.5 74.5t3.5 66v26.5l1 4h523l-58 -217h-4q-1 0 -9.5 17.5t-23 42.5
t-33 50t-44 42.5t-52.5 17.5h-86l-77 -286h9q26 0 57.5 6.5t58.5 15.5t49.5 18t36.5 15.5t15 6.5h5l-44 -164h-5q-1 0 -11.5 6.5t-28 15.5t-39.5 18t-50 15.5t-55 6.5h-8l-81 -300h90q26 0 61.5 17.5t67 42.5t59.5 50.5t45.5 43t18.5 17.5h5l-59 -218h-526z" />
    <glyph glyph-name="edotaccent" unicode="&#x117;" horiz-adv-x="523" 
d="M335 553q-43 0 -66.5 32.5t-11.5 78.5q13 46 53.5 78.5t84.5 32.5t67 -32.5t11 -78.5q-13 -46 -53.5 -78.5t-84.5 -32.5zM473 475q50 -42 31 -106t-96 -102.5t-202 -36.5q-5 -57 14.5 -90t63.5 -33q43 0 95.5 24t88.5 55l15 -3q-43 -76 -119.5 -135.5t-164.5 -59.5
q-100 0 -153.5 81t-19.5 206q18 65 54 114t81 75.5t89 39t88 12.5q85 0 135 -41zM334 470q-33 0 -66 -55t-52 -127q-4 -16 -5 -24q58 12 94 45t50 72q12 29 7.5 59t-28.5 30z" />
    <glyph glyph-name="Eogonek" unicode="&#x118;" horiz-adv-x="603" 
d="M163 720h523l-58 -217h-4q-1 0 -9.5 17.5t-23 42.5t-33 50t-44 42.5t-52.5 17.5h-86l-77 -286h9q26 0 57.5 6.5t58.5 15.5t49.5 18t36.5 15.5t15 6.5h5l-44 -164h-5q-1 0 -11.5 6.5t-28 15.5t-39.5 18t-50 15.5t-55 6.5h-8l-81 -300h90q26 0 61.5 17.5t67 42.5t59.5 50.5
t45.5 43t18.5 17.5h5l-59 -218h-61q-40 -40 -40 -83q0 -30 23.5 -41.5t54.5 7.5v-37q-50 -27 -97 -27q-43 0 -69 23t-26 59q0 64 73 99h-384l1 4q0 1 6 11.5t15 27.5t18.5 37.5t19 45t15.5 45.5l101 378q9 34 12.5 74.5t3.5 66v26.5z" />
    <glyph glyph-name="eogonek" unicode="&#x119;" horiz-adv-x="523" 
d="M473 475q50 -42 31 -106t-96 -102.5t-202 -36.5q-5 -57 14.5 -90t63.5 -33q43 0 95.5 24t88.5 55l15 -3q-36 -64 -98.5 -119t-136.5 -71q-34 -37 -34 -76q0 -30 23.5 -41.5t54.5 7.5v-37q-50 -27 -97 -27q-43 0 -69 23t-26 59q0 57 58 91q-83 17 -122.5 95t-9.5 188
q18 65 54 114t81 75.5t89 39t88 12.5q85 0 135 -41zM334 470q-33 0 -66 -55t-52 -127q-4 -16 -5 -24q58 12 94 45t50 72q12 29 7.5 59t-28.5 30z" />
    <glyph glyph-name="Ecaron" unicode="&#x11a;" horiz-adv-x="603" 
d="M344 972l135 -65l168 65l7 -11l-209 -174l-115 174zM-30 0l1 4q0 1 6 11.5t15 27.5t18.5 37.5t19 45t15.5 45.5l101 378q9 34 12.5 74.5t3.5 66v26.5l1 4h523l-58 -217h-4q-1 0 -9.5 17.5t-23 42.5t-33 50t-44 42.5t-52.5 17.5h-86l-77 -286h9q26 0 57.5 6.5t58.5 15.5
t49.5 18t36.5 15.5t15 6.5h5l-44 -164h-5q-1 0 -11.5 6.5t-28 15.5t-39.5 18t-50 15.5t-55 6.5h-8l-81 -300h90q26 0 61.5 17.5t67 42.5t59.5 50.5t45.5 43t18.5 17.5h5l-59 -218h-526z" />
    <glyph glyph-name="ecaron" unicode="&#x11b;" horiz-adv-x="523" 
d="M557 751l-209 -174l-115 174l14 11l135 -65l168 65zM338 516q85 0 135 -41.5t31 -105.5t-96 -102.5t-202 -36.5q-5 -57 14.5 -90t63.5 -33q43 0 95.5 24t88.5 55l15 -3q-43 -76 -119.5 -135.5t-164.5 -59.5q-100 0 -153.5 81t-19.5 206q18 65 54 114t81 75.5t89 39
t88 12.5zM355 381q12 29 7.5 59t-28.5 30q-33 0 -66 -55t-52 -127q-4 -16 -5 -24q58 12 94 45t50 72z" />
    <glyph glyph-name="uni0122" unicode="&#x122;" horiz-adv-x="714" 
d="M301 -11q-147 0 -215.5 103.5t-25.5 267.5q44 168 158 269t260 101q56 0 128 -15t131 -41l-58 -215h-8q-1 2 -12 34t-23.5 59.5t-32.5 60t-49.5 51.5t-63.5 20q-62 1 -116 -82t-96 -242q-40 -142 -28.5 -232t78.5 -90q42 0 91 18l39 146q6 24 5 46.5t-6.5 44t-12 38
t-11 27t-4.5 11.5l1 4h284l-1 -4q0 -1 -4.5 -11.5t-11.5 -27.5t-14.5 -37.5t-15.5 -45t-14 -45.5l-36 -134q-46 -27 -141 -53t-175 -26zM234 -383q48 25 76 63t36 72q-45 -1 -65.5 30t-8.5 79q12 45 45.5 73t72.5 27q43 -1 63 -38t5 -99q-16 -69 -66 -128.5t-118 -78.5h-40z
" />
    <glyph glyph-name="uni0123" unicode="&#x123;" horiz-adv-x="499" 
d="M471 895q-48 -25 -76 -63t-36 -72q45 1 65.5 -30t8.5 -79q-12 -45 -45.5 -73t-72.5 -27q-43 1 -63 38t-5 99q16 69 66 128.5t118 78.5h40zM122 -200q-30 0 -61 4t-69.5 15t-56 37t-3.5 63q12 31 42 59q-19 31 -6 79q26 94 142 122q-42 21 -60.5 69.5t-3.5 106.5
q12 46 41.5 79t68.5 50t77 24.5t77 7.5q63 0 109 -23q79 129 194 111l-61 -140l-4 -2q-45 32 -106 16q31 -22 42 -61t-2 -93q-17 -62 -65 -102t-98.5 -53t-104.5 -13q-40 0 -72 11q-39 -12 -47 -34q-4 -12 9 -18t40 -6h147q74 0 111.5 -47t18.5 -117q-39 -145 -299 -145z
M225 199q51 0 88 137q35 136 -14 136q-50 0 -85 -136q-37 -137 11 -137zM138 -152q55 0 108 12.5t60 40.5q4 17 -14 25t-57 8h-147q-37 0 -58 7q-5 -40 10 -60q24 -33 98 -33z" />
    <glyph glyph-name="Imacron" unicode="&#x12a;" horiz-adv-x="330" 
d="M175 831l13 50h289l-13 -50h-289zM-30 0l1 4q0 1 6 11.5t15 27.5t18.5 37.5t19 45t15.5 45.5l101 378q6 21 9.5 46t4.5 44.5t2 38t0 27t0 11.5l1 4h254l-1 -4q0 -1 -6 -11.5t-15 -27.5t-18.5 -37.5t-19 -45t-15.5 -45.5l-101 -378q-6 -21 -9.5 -46t-4.5 -44.5t-1.5 -38
t0 -27t-0.5 -11.5l-1 -4h-254z" />
    <glyph glyph-name="imacron" unicode="&#x12b;" horiz-adv-x="350" 
d="M116 621l13 50h289l-13 -50h-289zM118 -10q-68 0 -87.5 53t5.5 128l49 168q25 86 15 167l1 4h214l-101 -357q-11 -40 15 -38q31 2 80 53l12 -3q-29 -77 -82.5 -126t-120.5 -49z" />
    <glyph glyph-name="Iogonek" unicode="&#x12e;" horiz-adv-x="330" 
d="M163 720h254l-1 -4q0 -1 -6 -11.5t-15 -27.5t-18.5 -37.5t-19 -45t-15.5 -45.5l-101 -378q-6 -21 -9.5 -46t-4.5 -44.5t-1.5 -38t0 -27t-0.5 -11.5l-1 -4h-65q-40 -40 -40 -83q0 -30 23.5 -41.5t54.5 7.5v-37q-50 -27 -97 -27q-43 0 -69 23t-26 59q0 64 73 99h-108l1 4
q0 1 6 11.5t15 27.5t18.5 37.5t19 45t15.5 45.5l101 378q6 21 9.5 46t4.5 44.5t2 38t0 27t0 11.5z" />
    <glyph glyph-name="iogonek" unicode="&#x12f;" horiz-adv-x="350" 
d="M212 743q40 32 84 32t67 -32.5t11 -78.5q-13 -46 -53.5 -78.5t-84.5 -32.5q-43 0 -66.5 32.5t-11.5 78.5q13 46 54 79zM214 153q-11 -40 15 -38q31 2 80 53l12 -3q-45 -119 -131 -158q-20 -19 -33.5 -44t-13.5 -46q0 -30 23.5 -41.5t54.5 7.5v-37q-50 -27 -97 -27
q-43 0 -69 23t-26 59q0 57 60 92q-50 11 -62.5 61.5t9.5 116.5l49 168q25 86 15 167l1 4h214z" />
    <glyph glyph-name="dotlessi" unicode="&#x131;" horiz-adv-x="350" 
d="M118 -10q-68 0 -87.5 53t5.5 128l49 168q25 86 15 167l1 4h214l-101 -357q-11 -40 15 -38q31 2 80 53l12 -3q-29 -77 -82.5 -126t-120.5 -49z" />
    <glyph glyph-name="uni0136" unicode="&#x136;" horiz-adv-x="733" 
d="M-30 0l1 4q0 1 6 11.5t15 27.5t18.5 37.5t19 45t15.5 45.5l102 378q6 21 9.5 46t4.5 44.5t1.5 38t-0.5 27t0 11.5l1 4h255l-1 -4q0 -1 -6 -11.5t-15 -27.5t-18.5 -37.5t-19 -45t-15.5 -45.5l-101 -378q-6 -21 -9.5 -45.5t-4.5 -45t-1 -37.5v-27.5v-11.5l-2 -4h-255z
M379 0q2 8 4.5 26t2 55.5t-10.5 66.5l-73 206q-1 7 5 12l216 166q95 72 95 182l1 6h226l-1 -5q-66 -38 -169 -120l-204 -168l119 -295q11 -27 28.5 -58.5t29 -50t11.5 -19.5l-1 -4h-279zM128 -373q48 25 76 63t36 72q-45 -1 -65.5 30t-8.5 79q12 45 45.5 73t72.5 27
q43 -1 63 -38t5 -99q-16 -69 -66 -128.5t-118 -78.5h-40z" />
    <glyph glyph-name="uni0137" unicode="&#x137;" horiz-adv-x="599" 
d="M-59 0l1 4q0 1 6 11.5t15 27.5t19 37.5t19.5 45t15.5 45.5l104 388q4 16 7 33t4 32t2 29.5t0.5 26.5t-0.5 21v15l-1 6v4l223 24l-155 -579q-6 -21 -9.5 -46t-4.5 -44.5t-2 -38t0 -27t0 -11.5l-1 -4h-243zM386 -10q-24 0 -43 11t-29.5 23t-21 39t-13.5 38t-11 42l-30 118
v2l133 99q23 17 36.5 37t17.5 38t4.5 32.5t-1 24.5t-1.5 11l2 5h203l-1 -5l-228 -179l43 -171q9 -35 30 -38q27 -5 82 51l12 -3q-27 -80 -78 -127.5t-106 -47.5zM71 -373q48 25 76 63t36 72q-45 -1 -65.5 30t-8.5 79q12 45 45.5 73t72.5 27q43 -1 63 -38t5 -99
q-16 -69 -66 -128.5t-118 -78.5h-40z" />
    <glyph glyph-name="Lacute" unicode="&#x139;" horiz-adv-x="565" 
d="M233 785l-16 17l223 201l110 -121zM-28 0l1 4q0 1 6 11.5t15 27.5t19 37.5t19.5 45t15.5 45.5l101 378q6 21 9.5 46t4.5 44.5t1.5 38t-0.5 27t0 11.5l1 4h256l-1 -4q0 -1 -6 -11.5t-15 -27.5t-19 -37.5t-19.5 -45t-15.5 -45.5l-134 -502h67q26 0 62 19t68.5 46.5t61 55
t46.5 46.5t19 19h4l-62 -233h-505z" />
    <glyph glyph-name="lacute" unicode="&#x13a;" horiz-adv-x="345" 
d="M233 885l-16 17l223 201l110 -121zM110 -10q-45 0 -70 23.5t-25.5 58t8.5 72.5l112 415q16 61 16 163v4l218 24l-160 -597q-11 -42 16 -39q31 4 79 54l12 -3q-29 -77 -84 -126t-122 -49z" />
    <glyph glyph-name="uni013B" unicode="&#x13b;" horiz-adv-x="565" 
d="M-28 0l1 4q0 1 6 11.5t15 27.5t19 37.5t19.5 45t15.5 45.5l101 378q6 21 9.5 46t4.5 44.5t1.5 38t-0.5 27t0 11.5l1 4h256l-1 -4q0 -1 -6 -11.5t-15 -27.5t-19 -37.5t-19.5 -45t-15.5 -45.5l-134 -502h67q26 0 62 19t68.5 46.5t61 55t46.5 46.5t19 19h4l-62 -233h-505z
M158 -373q48 25 76 63t36 72q-45 -1 -65.5 30t-8.5 79q12 45 45.5 73t72.5 27q43 -1 63 -38t5 -99q-16 -69 -66 -128.5t-118 -78.5h-40z" />
    <glyph glyph-name="uni013C" unicode="&#x13c;" horiz-adv-x="345" 
d="M110 -10q-45 0 -70 23.5t-25.5 58t8.5 72.5l112 415q16 61 16 163v4l218 24l-160 -597q-11 -42 16 -39q31 4 79 54l12 -3q-29 -77 -84 -126t-122 -49zM-61 -373q48 25 76 63t36 72q-45 -1 -65.5 30t-8.5 79q12 45 45.5 73t72.5 27q43 -1 63 -38t5 -99q-16 -69 -66 -128.5
t-118 -78.5h-40z" />
    <glyph glyph-name="Lcaron" unicode="&#x13d;" horiz-adv-x="565" 
d="M402 394q48 25 76 63t36 72q-45 -1 -65.5 30t-8.5 79q12 45 45.5 73t72.5 27q43 -1 63 -38t5 -99q-16 -69 -66 -128.5t-118 -78.5h-40zM-28 0l1 4q0 1 6 11.5t15 27.5t19 37.5t19.5 45t15.5 45.5l101 378q6 21 9.5 46t4.5 44.5t1.5 38t-0.5 27t0 11.5l1 4h256l-1 -4
q0 -1 -6 -11.5t-15 -27.5t-19 -37.5t-19.5 -45t-15.5 -45.5l-134 -502h67q26 0 62 19t68.5 46.5t61 55t46.5 46.5t19 19h4l-62 -233h-505z" />
    <glyph glyph-name="lcaron" unicode="&#x13e;" horiz-adv-x="477" 
d="M110 -10q-45 0 -70 23.5t-25.5 58t8.5 72.5l112 415q16 61 16 163v4l218 24l-160 -597q-11 -42 16 -39q31 4 79 54l12 -3q-29 -77 -84 -126t-122 -49zM337 398q48 25 76 63t36 72q-45 -1 -65.5 30t-8.5 79q12 45 45.5 73t72.5 27q43 -1 63 -38t5 -99q-16 -69 -66 -128.5
t-118 -78.5h-40z" />
    <glyph glyph-name="Lslash" unicode="&#x141;" horiz-adv-x="641" 
d="M553 233h4l-62 -233h-505l1 4q0 1 6 11.5t15 27.5t19 37.5t19.5 45t15.5 45.5l22 84l-98 -49l13 50l99 49l65 244q6 21 9.5 46t4.5 44.5t1.5 38t-0.5 27t0 11.5l1 4h256l-1 -4q0 -1 -6 -11.5t-15 -27.5t-19 -37.5t-19.5 -45t-15.5 -45.5l-35 -131l206 103l-13 -50
l-206 -103l-86 -321h67q26 0 62 19t68.5 46.5t61 55t46.5 46.5t19 19z" />
    <glyph glyph-name="lslash" unicode="&#x142;" horiz-adv-x="420" 
d="M333 395l-65 -242q-11 -42 16 -39q31 4 79 54l12 -3q-29 -77 -84 -126t-122 -49q-45 0 -70 23.5t-25.5 58t8.5 72.5l41 153l-125 -59l15 54l125 59l56 208q16 61 16 163v4l218 24l-81 -301l135 63l-15 -54z" />
    <glyph glyph-name="Nacute" unicode="&#x143;" horiz-adv-x="709" 
d="M382 785l-16 17l223 201l110 -121zM-43 0l2 6q0 1 10.5 17t26 41.5t32.5 56t33 67.5t24 69l78 292q6 21 8 45.5t1 45t-3 37.5t-3.5 27.5t-1.5 11.5l1 4h208l191 -499l65 243q13 50 15.5 110.5t-0.5 99.5l-3 40l1 6h167l-2 -6l-25 -39q-25 -39 -56 -100t-45 -111
l-124 -464h-114l-220 582l-88 -325q-13 -50 -14.5 -111t2.5 -100l4 -40l-1 -6h-169z" />
    <glyph glyph-name="nacute" unicode="&#x144;" horiz-adv-x="659" 
d="M616 672l-317 -97l-16 17l223 201zM618 168l12 -3q-29 -77 -84 -126t-122 -49q-45 0 -70.5 23.5t-26.5 58t8 72.5l53 179q24 79 -9 79q-13 0 -30 -11t-39 -35t-46 -73t-43 -115l-40 -168h-187l91 339q6 21 9.5 46t4.5 44.5t1.5 38t-0.5 27t0 11.5l1 4h202l-38 -157
q105 163 212 163q63 0 94 -43.5t11 -113.5l-60 -206q-11 -41 16 -38q32 3 80 53z" />
    <glyph glyph-name="uni0145" unicode="&#x145;" horiz-adv-x="709" 
d="M-43 0l2 6q0 1 10.5 17t26 41.5t32.5 56t33 67.5t24 69l78 292q6 21 8 45.5t1 45t-3 37.5t-3.5 27.5t-1.5 11.5l1 4h208l191 -499l65 243q13 50 15.5 110.5t-0.5 99.5l-3 40l1 6h167l-2 -6l-25 -39q-25 -39 -56 -100t-45 -111l-124 -464h-114l-220 582l-88 -325
q-13 -50 -14.5 -111t2.5 -100l4 -40l-1 -6h-169zM114 -373q48 25 76 63t36 72q-45 -1 -65.5 30t-8.5 79q12 45 45.5 73t72.5 27q43 -1 63 -38t5 -99q-16 -69 -66 -128.5t-118 -78.5h-40z" />
    <glyph glyph-name="uni0146" unicode="&#x146;" horiz-adv-x="659" 
d="M618 168l12 -3q-29 -77 -84 -126t-122 -49q-45 0 -70.5 23.5t-26.5 58t8 72.5l53 179q24 79 -9 79q-13 0 -30 -11t-39 -35t-46 -73t-43 -115l-40 -168h-187l91 339q6 21 9.5 46t4.5 44.5t1.5 38t-0.5 27t0 11.5l1 4h202l-38 -157q105 163 212 163q63 0 94 -43.5
t11 -113.5l-60 -206q-11 -41 16 -38q32 3 80 53zM244 -29q43 -1 63 -38t5 -99q-16 -69 -66 -128.5t-118 -78.5h-40q48 25 76 63t36 72q-45 -1 -65.5 30t-8.5 79q12 45 45.5 73t72.5 27z" />
    <glyph glyph-name="Ncaron" unicode="&#x147;" horiz-adv-x="709" 
d="M395 972l135 -65l168 65l7 -11l-209 -174l-115 174zM-43 0l2 6q0 1 10.5 17t26 41.5t32.5 56t33 67.5t24 69l78 292q6 21 8 45.5t1 45t-3 37.5t-3.5 27.5t-1.5 11.5l1 4h208l191 -499l65 243q13 50 15.5 110.5t-0.5 99.5l-3 40l1 6h167l-2 -6l-25 -39q-25 -39 -56 -100
t-45 -111l-124 -464h-114l-220 582l-88 -325q-13 -50 -14.5 -111t2.5 -100l4 -40l-1 -6h-169z" />
    <glyph glyph-name="ncaron" unicode="&#x148;" horiz-adv-x="659" 
d="M622 751l-209 -174l-115 174l14 11l135 -65l168 65zM618 168l12 -3q-29 -77 -84 -126t-122 -49q-45 0 -70.5 23.5t-26.5 58t8 72.5l53 179q24 79 -9 79q-13 0 -30 -11t-39 -35t-46 -73t-43 -115l-40 -168h-187l91 339q6 21 9.5 46t4.5 44.5t1.5 38t-0.5 27t0 11.5l1 4
h202l-38 -157q105 163 212 163q63 0 94 -43.5t11 -113.5l-60 -206q-11 -41 16 -38q32 3 80 53z" />
    <glyph glyph-name="Eng" unicode="&#x14a;" horiz-adv-x="709" 
d="M642 720h167l-2 -6l-25 -39q-25 -39 -56 -100t-45 -111l-124 -464h-3l-21 -77q-18 -66 -65 -98t-113 -32q-60 0 -126 25l75 144q55 -68 111 -66q57 2 86 104h-58l-220 582l-88 -325q-13 -50 -14.5 -111t2.5 -100l4 -40l-1 -6h-169l2 6q0 1 10.5 17t26 41.5t32.5 56
t33 67.5t24 69l78 292q6 21 8 45.5t1 45t-3 37.5t-3.5 27.5t-1.5 11.5l1 4h208l191 -499l65 243q13 50 15.5 110.5t-0.5 99.5l-3 40z" />
    <glyph glyph-name="eng" unicode="&#x14b;" horiz-adv-x="574" 
d="M477 516q63 0 94 -43.5t11 -113.5l-102 -359q-29 -107 -83 -156t-123 -49q-49 0 -105 23l74 144q45 -63 96 -63q61 0 92 101h-135l92 323q23 79 -9 79q-13 0 -30 -11t-39 -35t-46 -73t-43 -115l-40 -168h-187l91 339q6 21 9.5 46t4.5 44.5t1.5 38t-0.5 27t0 11.5l1 4h202
l-38 -157q105 163 212 163z" />
    <glyph glyph-name="Omacron" unicode="&#x14c;" horiz-adv-x="734" 
d="M377 831l13 50h289l-13 -50h-289zM568 86q-118 -101 -266 -99t-215 106t-25 272q43 169 160 269t266 97q147 -3 214.5 -106.5t25.5 -270.5q-42 -168 -160 -268zM314 33q30 0 62 32.5t57.5 84.5t45 105.5t32.5 103.5q17 69 24 139t-6 127.5t-53 58.5q-30 1 -62 -32
t-57.5 -84.5t-45 -105t-32.5 -103.5q-17 -69 -24 -139.5t6.5 -128.5t52.5 -58z" />
    <glyph glyph-name="omacron" unicode="&#x14d;" horiz-adv-x="548" 
d="M227 621l13 50h289l-13 -50h-289zM207 -12q-106 2 -163 74t-21 199q24 86 77 145.5t115.5 85t130.5 24.5q105 -2 160 -70t20 -195q-36 -127 -126 -196t-193 -67zM219 37q11 0 21 6.5t19 21t16.5 29.5t16 38.5t14 40t14 43t12.5 39.5q16 48 24 94.5t2 82.5t-30 36
q-15 0 -28.5 -11.5t-25.5 -39t-19 -46t-20 -60.5t-17 -54q-12 -35 -20 -71.5t-11 -70.5t5 -56t27 -22z" />
    <glyph glyph-name="Ohungarumlaut" unicode="&#x150;" horiz-adv-x="734" 
d="M334 780l-11 16l149 162l81 -84zM534 780l-11 16l149 162l81 -84zM568 86q-118 -101 -266 -99t-215 106t-25 272q43 169 160 269t266 97q147 -3 214.5 -106.5t25.5 -270.5q-42 -168 -160 -268zM314 33q30 0 62 32.5t57.5 84.5t45 105.5t32.5 103.5q17 69 24 139t-6 127.5
t-53 58.5q-30 1 -62 -32t-57.5 -84.5t-45 -105t-32.5 -103.5q-17 -69 -24 -139.5t6.5 -128.5t52.5 -58z" />
    <glyph glyph-name="ohungarumlaut" unicode="&#x151;" horiz-adv-x="548" 
d="M184 570l-11 16l149 162l81 -84zM384 570l-11 16l149 162l81 -84zM207 -12q-106 2 -163 74t-21 199q24 86 77 145.5t115.5 85t130.5 24.5q105 -2 160 -70t20 -195q-36 -127 -126 -196t-193 -67zM219 37q11 0 21 6.5t19 21t16.5 29.5t16 38.5t14 40t14 43t12.5 39.5
q16 48 24 94.5t2 82.5t-30 36q-15 0 -28.5 -11.5t-25.5 -39t-19 -46t-20 -60.5t-17 -54q-12 -35 -20 -71.5t-11 -70.5t5 -56t27 -22z" />
    <glyph glyph-name="OE" unicode="&#x152;" horiz-adv-x="1001" 
d="M563 720h521l-58 -217h-4q-1 0 -9.5 17.5t-23 42.5t-33 50t-44 42.5t-52.5 17.5h-86l-77 -286h9q26 0 57.5 6.5t58.5 15.5t49.5 18t36.5 15.5t15 6.5h5l-44 -164h-5q-1 0 -11.5 6.5t-28 15.5t-39.5 18t-50 15.5t-55 6.5h-8l-81 -300h90q26 0 61.5 17.5t67 42.5t59.5 50.5
t45.5 43t18.5 17.5h5l-59 -218h-493q-48 -14 -99 -13q-148 2 -215 106t-25 272q43 169 160 269t266 97q47 -2 75 -11zM314 33q33 -1 66 36.5t62 98.5q1 1 1 3l93 349q9 163 -60 164q-30 1 -62 -32t-57.5 -84.5t-45 -105t-32.5 -103.5q-17 -69 -24 -139.5t6.5 -128.5
t52.5 -58z" />
    <glyph glyph-name="oe" unicode="&#x153;" horiz-adv-x="904" 
d="M854 475q50 -42 31 -106t-96 -102.5t-202 -36.5q-5 -57 14.5 -90t63.5 -33q43 0 95.5 24t88.5 55l15 -3q-43 -76 -119.5 -135.5t-164.5 -59.5q-105 0 -157 87q-93 -90 -216 -87q-106 2 -163 74t-21 199q24 86 77 145.5t115.5 85t130.5 24.5q114 -2 164 -75q89 75 209 75
q85 0 135 -41zM715 470q-33 0 -66 -55t-52 -127q-4 -16 -5 -24q58 12 94 45t50 72q12 29 7.5 59t-28.5 30zM332 255q16 48 24 94.5t2 82.5t-30 36q-15 0 -28.5 -11.5t-25.5 -39t-19 -46t-20 -60.5t-17 -54q-12 -35 -20 -71.5t-11 -70.5t5 -56t27 -22q11 0 21 6.5t19 21
t16.5 29.5t16 38.5t14 40t14 43t12.5 39.5z" />
    <glyph glyph-name="Racute" unicode="&#x154;" horiz-adv-x="709" 
d="M384 785l-16 17l223 201l110 -121zM-30 0l1 4q0 1 6 11.5t15 27.5t18.5 37.5t19 45t15.5 45.5l102 378q6 21 9.5 46t4.5 44.5t1.5 38t-0.5 27t0 11.5l1 4h355q101 0 146 -54.5t20 -148.5q-19 -73 -86 -115.5t-169 -49.5q97 -19 121 -116q5 -19 14.5 -77t21.5 -92.5
t35 -61.5l-1 -5h-207q-24 27 -44 177q-17 126 -83 157l-1 -3l-43 -160q-6 -21 -9.5 -46t-4.5 -44.5t-1.5 -38t0.5 -27t0 -11.5l-1 -4h-256zM298 380h61q84 0 122 144q19 65 9 110t-51 45h-61z" />
    <glyph glyph-name="racute" unicode="&#x155;" horiz-adv-x="472" 
d="M525 672l-317 -97l-16 17l223 201zM262 337q52 103 118 152.5t133 13.5l-72 -196h-3q-26 48 -71 48q-13 0 -27 -5t-35 -21t-43 -55.5t-39 -97.5l-42 -176h-187l91 339q6 21 9.5 46t4.5 44.5t1.5 38t-0.5 27t0 11.5l1 4h202z" />
    <glyph glyph-name="uni0156" unicode="&#x156;" horiz-adv-x="709" 
d="M-30 0l1 4q0 1 6 11.5t15 27.5t18.5 37.5t19 45t15.5 45.5l102 378q6 21 9.5 46t4.5 44.5t1.5 38t-0.5 27t0 11.5l1 4h355q101 0 146 -54.5t20 -148.5q-19 -73 -86 -115.5t-169 -49.5q97 -19 121 -116q5 -19 14.5 -77t21.5 -92.5t35 -61.5l-1 -5h-207q-24 27 -44 177
q-17 126 -83 157l-1 -3l-43 -160q-6 -21 -9.5 -46t-4.5 -44.5t-1.5 -38t0.5 -27t0 -11.5l-1 -4h-256zM298 380h61q84 0 122 144q19 65 9 110t-51 45h-61zM116 -373q48 25 76 63t36 72q-45 -1 -65.5 30t-8.5 79q12 45 45.5 73t72.5 27q43 -1 63 -38t5 -99q-16 -69 -66 -128.5
t-118 -78.5h-40z" />
    <glyph glyph-name="uni0157" unicode="&#x157;" horiz-adv-x="472" 
d="M262 337q52 103 118 152.5t133 13.5l-72 -196h-3q-26 48 -71 48q-13 0 -27 -5t-35 -21t-43 -55.5t-39 -97.5l-42 -176h-187l91 339q6 21 9.5 46t4.5 44.5t1.5 38t-0.5 27t0 11.5l1 4h202zM153 -29q43 -1 63 -38t5 -99q-16 -69 -66 -128.5t-118 -78.5h-40q48 25 76 63
t36 72q-45 -1 -65.5 30t-8.5 79q12 45 45.5 73t72.5 27z" />
    <glyph glyph-name="Rcaron" unicode="&#x158;" horiz-adv-x="709" 
d="M397 972l135 -65l168 65l7 -11l-209 -174l-115 174zM-30 0l1 4q0 1 6 11.5t15 27.5t18.5 37.5t19 45t15.5 45.5l102 378q6 21 9.5 46t4.5 44.5t1.5 38t-0.5 27t0 11.5l1 4h355q101 0 146 -54.5t20 -148.5q-19 -73 -86 -115.5t-169 -49.5q97 -19 121 -116q5 -19 14.5 -77
t21.5 -92.5t35 -61.5l-1 -5h-207q-24 27 -44 177q-17 126 -83 157l-1 -3l-43 -160q-6 -21 -9.5 -46t-4.5 -44.5t-1.5 -38t0.5 -27t0 -11.5l-1 -4h-256zM298 380h61q84 0 122 144q19 65 9 110t-51 45h-61z" />
    <glyph glyph-name="rcaron" unicode="&#x159;" horiz-adv-x="472" 
d="M531 751l-209 -174l-115 174l14 11l135 -65l168 65zM262 337q52 103 118 152.5t133 13.5l-72 -196h-3q-26 48 -71 48q-13 0 -27 -5t-35 -21t-43 -55.5t-39 -97.5l-42 -176h-187l91 339q6 21 9.5 46t4.5 44.5t1.5 38t-0.5 27t0 11.5l1 4h202z" />
    <glyph glyph-name="Sacute" unicode="&#x15a;" horiz-adv-x="611" 
d="M335 785l-16 17l223 201l110 -121zM263 -12q-129 0 -273 64l47 186h7q7 -9 29 -37.5t35 -45t36.5 -41t42 -38.5t43 -24.5t47.5 -10.5q31 0 59.5 18t39.5 59q14 51 -14 92.5t-98 85.5q-100 63 -138 122t-16 140t96.5 126.5t195.5 45.5q127 0 261 -49l-52 -194h-6
q-11 13 -40 53t-51 66.5t-58 50t-71 23.5q-36 0 -62.5 -20.5t-34.5 -53.5q-11 -47 20.5 -82t107.5 -84q91 -59 130 -120.5t16 -140.5q-22 -80 -102.5 -135.5t-196.5 -55.5z" />
    <glyph glyph-name="sacute" unicode="&#x15b;" horiz-adv-x="486" 
d="M217 575l-16 17l223 201l110 -121zM205 -11q-101 0 -218 47l46 164h5q5 -7 20.5 -28.5t23.5 -32t23 -29t26.5 -28.5t27 -21.5t30.5 -16.5t31 -5q37 0 46 35q4 16 -0.5 30.5t-19.5 30.5t-28 26.5t-40 30.5q-69 50 -98 94.5t-15 99.5q16 64 77 97t153 33q87 0 179 -34
l-36 -155h-5q-87 142 -165 142q-47 0 -47 -38q0 -10 3.5 -18.5t15.5 -19.5t20.5 -17.5t32 -23.5t37.5 -27q122 -91 91 -199q-18 -66 -77 -101.5t-139 -35.5z" />
    <glyph glyph-name="Scedilla" unicode="&#x15e;" horiz-adv-x="611" 
d="M402 730q127 0 261 -49l-52 -194h-6q-11 13 -40 53t-51 66.5t-58 50t-71 23.5q-36 0 -62.5 -20.5t-34.5 -53.5q-11 -47 20.5 -82t107.5 -84q91 -59 130 -120.5t16 -140.5q-22 -80 -102.5 -135.5t-196.5 -55.5h-11l-25 -34q45 0 76 -20.5t31 -55.5q0 -31 -24.5 -49
t-66.5 -18q-60 0 -101 27v37q31 -19 54.5 -13t23.5 27q0 15 -13.5 28.5t-35.5 17.5l40 56q-110 11 -221 61l47 186h7q7 -9 29 -37.5t35 -45t36.5 -41t42 -38.5t43 -24.5t47.5 -10.5q31 0 59.5 18t39.5 59q14 51 -14 92.5t-98 85.5q-100 63 -138 122t-16 140t96.5 126.5
t195.5 45.5z" />
    <glyph glyph-name="scedilla" unicode="&#x15f;" horiz-adv-x="486" 
d="M295 516q87 0 179 -34l-36 -155h-5q-87 142 -165 142q-47 0 -47 -38q0 -10 3.5 -18.5t15.5 -19.5t20.5 -17.5t32 -23.5t37.5 -27q122 -91 91 -199q-18 -66 -77 -101.5t-139 -35.5h-14l-26 -35q45 0 76 -20.5t31 -55.5q0 -31 -24.5 -49t-66.5 -18q-60 0 -101 27v37
q31 -19 54.5 -13t23.5 27q0 15 -13.5 28.5t-35.5 17.5l42 58q-79 9 -164 43l46 164h5q5 -7 20.5 -28.5t23.5 -32t23 -29t26.5 -28.5t27 -21.5t30.5 -16.5t31 -5q37 0 46 35q4 16 -0.5 30.5t-19.5 30.5t-28 26.5t-40 30.5q-69 50 -98 94.5t-15 99.5q16 64 77 97t153 33z" />
    <glyph glyph-name="Scaron" unicode="&#x160;" horiz-adv-x="611" 
d="M348 972l135 -65l168 65l7 -11l-209 -174l-115 174zM263 -12q-129 0 -273 64l47 186h7q7 -9 29 -37.5t35 -45t36.5 -41t42 -38.5t43 -24.5t47.5 -10.5q31 0 59.5 18t39.5 59q14 51 -14 92.5t-98 85.5q-100 63 -138 122t-16 140t96.5 126.5t195.5 45.5q127 0 261 -49
l-52 -194h-6q-11 13 -40 53t-51 66.5t-58 50t-71 23.5q-36 0 -62.5 -20.5t-34.5 -53.5q-11 -47 20.5 -82t107.5 -84q91 -59 130 -120.5t16 -140.5q-22 -80 -102.5 -135.5t-196.5 -55.5z" />
    <glyph glyph-name="scaron" unicode="&#x161;" horiz-adv-x="486" 
d="M230 762l135 -65l168 65l7 -11l-209 -174l-115 174zM205 -11q-101 0 -218 47l46 164h5q5 -7 20.5 -28.5t23.5 -32t23 -29t26.5 -28.5t27 -21.5t30.5 -16.5t31 -5q37 0 46 35q4 16 -0.5 30.5t-19.5 30.5t-28 26.5t-40 30.5q-69 50 -98 94.5t-15 99.5q16 64 77 97t153 33
q87 0 179 -34l-36 -155h-5q-87 142 -165 142q-47 0 -47 -38q0 -10 3.5 -18.5t15.5 -19.5t20.5 -17.5t32 -23.5t37.5 -27q122 -91 91 -199q-18 -66 -77 -101.5t-139 -35.5z" />
    <glyph glyph-name="uni0162" unicode="&#x162;" horiz-adv-x="651" 
d="M135 720h631l-68 -252h-5q-1 0 -8 20.5t-19.5 50t-29.5 59.5t-41.5 50.5t-50.5 20.5h-9l-133 -498q-6 -21 -9.5 -46t-4.5 -44.5t-1.5 -38t0 -27t-0.5 -11.5l-1 -4h-104l-34 -46q45 0 76 -20.5t31 -55.5q0 -31 -24.5 -49t-66.5 -18q-60 0 -101 27v37q31 -19 54.5 -13
t23.5 27q0 15 -13.5 28.5t-35.5 17.5l47 65h-108l1 4q0 1 6 11.5t15 27.5t18.5 37.5t19 45t15.5 45.5l134 498h-9q-26 0 -61.5 -20.5t-68.5 -50.5t-61.5 -59.5t-47 -50t-19.5 -20.5h-4z" />
    <glyph glyph-name="uni0163" unicode="&#x163;" horiz-adv-x="394" 
d="M310 460l-84 -307q-10 -34 13 -32q38 2 102 67l12 -3q-28 -74 -86.5 -131.5t-121.5 -63.5l-27 -36q45 0 76 -20.5t31 -55.5q0 -31 -24.5 -49t-66.5 -18q-60 0 -101 27v37q31 -19 54.5 -13t23.5 27q0 15 -13.5 28.5t-35.5 17.5l43 59q-45 13 -61.5 61t2.5 109l79 296h-70
l14 50q170 82 300 186l5 4l-51 -190h128l-13 -50h-128z" />
    <glyph glyph-name="Tcaron" unicode="&#x164;" horiz-adv-x="651" 
d="M368 972l135 -65l168 65l7 -11l-209 -174l-115 174zM130 0l1 4q0 1 6 11.5t15 27.5t18.5 37.5t19 45t15.5 45.5l134 498h-9q-26 0 -61.5 -20.5t-68.5 -50.5t-61.5 -59.5t-47 -50t-19.5 -20.5h-4l67 252h631l-68 -252h-5q-1 0 -8 20.5t-19.5 50t-29.5 59.5t-41.5 50.5
t-50.5 20.5h-9l-133 -498q-6 -21 -9.5 -46t-4.5 -44.5t-1.5 -38t0 -27t-0.5 -11.5l-1 -4h-255z" />
    <glyph glyph-name="tcaron" unicode="&#x165;" horiz-adv-x="419" 
d="M361 541q48 25 76 63t36 72q-45 -1 -65.5 30t-8.5 79q12 45 45.5 73t72.5 27q43 -1 63 -38t5 -99q-16 -69 -66 -128.5t-118 -78.5h-40zM134 -10q-61 0 -85 51t-3 123l79 296h-70l14 50q170 82 300 186l5 4l-51 -190h128l-13 -50h-128l-84 -307q-10 -34 13 -32
q38 2 102 67l12 -3q-29 -78 -91.5 -136.5t-127.5 -58.5z" />
    <glyph glyph-name="Tbar" unicode="&#x166;" horiz-adv-x="651" 
d="M135 720h631l-68 -252h-5q-1 0 -8 20.5t-19.5 50t-29.5 59.5t-41.5 50.5t-50.5 20.5h-9l-74 -276h124v-50h-137l-46 -172q-6 -21 -9.5 -46t-4.5 -44.5t-1.5 -38t0 -27t-0.5 -11.5l-1 -4h-255l1 4q0 1 6 11.5t15 27.5t18.5 37.5t19 45t15.5 45.5l46 172h-153v50h167
l74 276h-9q-26 0 -61.5 -20.5t-68.5 -50.5t-61.5 -59.5t-47 -50t-19.5 -20.5h-4z" />
    <glyph glyph-name="tbar" unicode="&#x167;" horiz-adv-x="416" 
d="M438 460h-128l-28 -104h102v-50h-116l-42 -153q-10 -34 13 -32q38 2 102 67l12 -3q-29 -78 -91.5 -136.5t-127.5 -58.5q-61 0 -85 51t-3 123l38 142h-60v50h73l28 104h-70l14 50q170 82 300 186l5 4l-51 -190h128z" />
    <glyph glyph-name="Umacron" unicode="&#x16a;" horiz-adv-x="692" 
d="M356 831l13 50h289l-13 -50h-289zM304 -12q-43 0 -82 9.5t-75.5 31.5t-57 58.5t-27.5 90t14 126.5l65 245q6 21 9.5 46t4.5 44.5t1.5 38t0 27t0.5 11.5l1 4h254l-1 -4q0 -1 -6 -11.5t-15 -27.5t-18.5 -37.5t-19 -45t-15.5 -45.5l-72 -269q-28 -105 -0.5 -157.5
t92.5 -52.5t121.5 52t82.5 151l51 191q13 50 14.5 111t-2.5 100l-4 39l2 6h169l-1 -6q0 -1 -10.5 -17t-26 -41.5t-32.5 -55.5t-33 -67t-24 -69l-51 -191q-77 -285 -309 -285z" />
    <glyph glyph-name="umacron" unicode="&#x16b;" horiz-adv-x="661" 
d="M583 671l-13 -50h-289l13 50h289zM620 168l12 -3q-29 -77 -84 -126t-122 -49q-65 0 -85 43.5t-5 105.5q-97 -145 -200 -145q-63 0 -94 43.5t-11 113.5l54 188q4 16 7.5 33t5 32.5t2 30.5t0.5 27.5t-0.5 21t-1.5 14.5v7v5h222l-95 -323q-24 -79 9 -79q12 0 28.5 10t37 32
t43.5 66t42 103l52 191h184l-96 -357q-11 -42 16 -39q32 5 79 54z" />
    <glyph glyph-name="Uring" unicode="&#x16e;" horiz-adv-x="692" 
d="M560 788q-37 -30 -78 -30t-62 29.5t-10 72.5t48 72.5t78 29.5t62 -29.5t10 -72.5t-48 -72zM495 806q20 0 39.5 16t24.5 38q6 22 -4.5 38t-31.5 16q-20 0 -39.5 -16t-24.5 -38q-6 -22 4.5 -38t31.5 -16zM304 -12q-43 0 -82 9.5t-75.5 31.5t-57 58.5t-27.5 90t14 126.5
l65 245q6 21 9.5 46t4.5 44.5t1.5 38t0 27t0.5 11.5l1 4h254l-1 -4q0 -1 -6 -11.5t-15 -27.5t-18.5 -37.5t-19 -45t-15.5 -45.5l-72 -269q-28 -105 -0.5 -157.5t92.5 -52.5t121.5 52t82.5 151l51 191q13 50 14.5 111t-2.5 100l-4 39l2 6h169l-1 -6q0 -1 -10.5 -17t-26 -41.5
t-32.5 -55.5t-33 -67t-24 -69l-51 -191q-77 -285 -309 -285z" />
    <glyph glyph-name="uring" unicode="&#x16f;" horiz-adv-x="661" 
d="M485 578q-37 -30 -78 -30t-62 29.5t-10 72.5t48 72.5t78 29.5t62 -29.5t10 -72.5t-48 -72zM384 650q-6 -22 4.5 -38t31.5 -16q20 0 39.5 16t24.5 38q6 22 -4.5 38t-31.5 16q-20 0 -39.5 -16t-24.5 -38zM620 168l12 -3q-29 -77 -84 -126t-122 -49q-65 0 -85 43.5t-5 105.5
q-97 -145 -200 -145q-63 0 -94 43.5t-11 113.5l54 188q4 16 7.5 33t5 32.5t2 30.5t0.5 27.5t-0.5 21t-1.5 14.5v7v5h222l-95 -323q-24 -79 9 -79q12 0 28.5 10t37 32t43.5 66t42 103l52 191h184l-96 -357q-11 -42 16 -39q32 5 79 54z" />
    <glyph glyph-name="Uhungarumlaut" unicode="&#x170;" horiz-adv-x="692" 
d="M313 780l-11 16l149 162l81 -84zM513 780l-11 16l149 162l81 -84zM304 -12q-43 0 -82 9.5t-75.5 31.5t-57 58.5t-27.5 90t14 126.5l65 245q6 21 9.5 46t4.5 44.5t1.5 38t0 27t0.5 11.5l1 4h254l-1 -4q0 -1 -6 -11.5t-15 -27.5t-18.5 -37.5t-19 -45t-15.5 -45.5l-72 -269
q-28 -105 -0.5 -157.5t92.5 -52.5t121.5 52t82.5 151l51 191q13 50 14.5 111t-2.5 100l-4 39l2 6h169l-1 -6q0 -1 -10.5 -17t-26 -41.5t-32.5 -55.5t-33 -67t-24 -69l-51 -191q-77 -285 -309 -285z" />
    <glyph glyph-name="uhungarumlaut" unicode="&#x171;" horiz-adv-x="661" 
d="M457 664l-219 -94l-11 16l149 162zM438 570l-11 16l149 162l81 -84zM525 153q-11 -42 16 -39q32 5 79 54l12 -3q-29 -77 -84 -126t-122 -49q-65 0 -85 43.5t-5 105.5q-97 -145 -200 -145q-63 0 -94 43.5t-11 113.5l54 188q4 16 7.5 33t5 32.5t2 30.5t0.5 27.5t-0.5 21
t-1.5 14.5v7v5h222l-95 -323q-24 -79 9 -79q12 0 28.5 10t37 32t43.5 66t42 103l52 191h184z" />
    <glyph glyph-name="Uogonek" unicode="&#x172;" horiz-adv-x="692" 
d="M622 720h169l-1 -6q0 -1 -10.5 -17t-26 -41.5t-32.5 -55.5t-33 -67t-24 -69l-51 -191q-53 -197 -180 -258q-24 -17 -41 -45t-17 -53q0 -30 23.5 -41.5t54.5 7.5v-37q-50 -27 -97 -27q-43 0 -69 23t-26 59q0 52 52 87h-9q-43 0 -82 9.5t-75.5 31.5t-57 58.5t-27.5 90
t14 126.5l65 245q6 21 9.5 46t4.5 44.5t1.5 38t0 27t0.5 11.5l1 4h254l-1 -4q0 -1 -6 -11.5t-15 -27.5t-18.5 -37.5t-19 -45t-15.5 -45.5l-72 -269q-28 -105 -0.5 -157.5t92.5 -52.5t121.5 52t82.5 151l51 191q13 50 14.5 111t-2.5 100l-4 39z" />
    <glyph glyph-name="uogonek" unicode="&#x173;" horiz-adv-x="661" 
d="M632 165q-22 -60 -61.5 -104t-88.5 -61q-40 -42 -40 -83q0 -30 23.5 -41.5t54.5 7.5v-37q-50 -27 -97 -27q-43 0 -69 23t-26 59q0 58 63 93q-44 13 -57 56t2 89q-97 -145 -200 -145q-63 0 -94 43.5t-11 113.5l54 188q4 16 7.5 33t5 32.5t2 30.5t0.5 27.5t-0.5 21
t-1.5 14.5v7v5h222l-95 -323q-24 -79 9 -79q12 0 28.5 10t37 32t43.5 66t42 103l52 191h184l-96 -357q-11 -42 16 -39q32 5 79 54z" />
    <glyph glyph-name="Wcircumflex" unicode="&#x174;" horiz-adv-x="976" 
d="M474 767l-8 11l209 174l115 -174l-13 -11l-133 65zM203 0l-42 557q-2 20 -5.5 44t-8 43t-8.5 35.5t-6.5 26t-2.5 10.5l1 4h281l-1 -4l-7 -12q-6 -11 -14.5 -29t-17 -39.5t-13.5 -47t-4 -47.5l19 -300l146 254l-5 62q-2 20 -6 43.5t-8.5 43t-8.5 35.5t-7 25.5t-3 10.5l2 5
h281l-2 -5l-2 -4q-2 -4 -5 -9t-6.5 -12.5t-7.5 -16.5t-8.5 -19.5t-8.5 -21.5t-7 -23.5t-5.5 -24t-3.5 -24.5t0 -24l20 -312l166 283q15 26 25.5 56.5t14 56.5t4.5 47t1 35l-1 14l1 4h154l-1 -5q0 -1 -19 -25t-47 -63t-46 -71l-323 -556h-103l-30 405l-232 -405h-90z" />
    <glyph glyph-name="wcircumflex" unicode="&#x175;" horiz-adv-x="876" 
d="M537 622l-170 -65l-8 11l209 174l115 -174l-13 -11zM711 472l199 45q0 -55 -47 -172q-63 -157 -164 -254t-214 -97q-67 0 -105 37t-28 98q-112 -135 -218 -135q-61 0 -92 43.5t-11 113.5l54 188q4 16 7.5 33t5 32.5t2 30.5t0.5 27.5t-0.5 21.5t-1.5 16v6v4h222l-95 -323
q-12 -40 -0.5 -59.5t29.5 -19.5q13 0 30 11t39 35.5t46 73.5t43 115q4 15 7 32t4.5 32.5t2 30t0.5 26.5t-0.5 21t-1.5 15v6v4h222l-95 -323q-15 -44 -8 -83t38 -39q56 0 106 86t46 213q-2 66 -22 108z" />
    <glyph glyph-name="Ycircumflex" unicode="&#x176;" horiz-adv-x="660" 
d="M327 767l-8 11l209 174l115 -174l-13 -11l-133 65zM141 0l1 4q0 1 6 11.5t15 27.5t18.5 37.5t19 45t15.5 45.5l29 109l-68 283q-6 30 -17.5 67.5t-19.5 60.5t-8 24l2 5h289l-1 -4q0 -1 -6 -12.5t-13.5 -27.5t-15 -38.5t-10 -44.5t1.5 -46l41 -214l143 198q17 23 27 50
t13.5 49.5t4.5 41t0.5 30.5t-0.5 13l2 5h166l-1 -4q0 -1 -21.5 -24.5t-53 -61.5t-52.5 -68l-205 -282l-30 -109q-6 -21 -9.5 -45.5t-4.5 -45t-1 -37.5v-27.5v-11.5l-1 -4h-256z" />
    <glyph glyph-name="ycircumflex" unicode="&#x177;" horiz-adv-x="588" 
d="M370 622l-170 -65l-8 11l209 174l115 -174l-13 -11zM424 475l203 45q-29 -134 -99 -274t-172.5 -254.5t-209.5 -155.5q-117 -45 -225 -15l88 186h3q49 -101 141 -92q9 1 27 5q-1 200 -25 412q-6 58 -34 58q-31 0 -81 -52l-12 3q35 80 90 127.5t110 47.5q47 0 68.5 -38.5
t33.5 -123.5q20 -147 23 -288q80 127 86 270q4 83 -15 139z" />
    <glyph glyph-name="Ydieresis" unicode="&#x178;" horiz-adv-x="660" 
d="M372 770q-35 0 -53 26.5t-8 63.5t42 63.5t67 26.5q36 0 54 -26t8 -64q-10 -37 -42 -63.5t-68 -26.5zM588 770q-36 0 -54 26t-8 64q10 37 42 63.5t68 26.5q35 0 53 -26.5t8 -63.5t-42 -63.5t-67 -26.5zM141 0l1 4q0 1 6 11.5t15 27.5t18.5 37.5t19 45t15.5 45.5l29 109
l-68 283q-6 30 -17.5 67.5t-19.5 60.5t-8 24l2 5h289l-1 -4q0 -1 -6 -12.5t-13.5 -27.5t-15 -38.5t-10 -44.5t1.5 -46l41 -214l143 198q17 23 27 50t13.5 49.5t4.5 41t0.5 30.5t-0.5 13l2 5h166l-1 -4q0 -1 -21.5 -24.5t-53 -61.5t-52.5 -68l-205 -282l-30 -109
q-6 -21 -9.5 -45.5t-4.5 -45t-1 -37.5v-27.5v-11.5l-1 -4h-256z" />
    <glyph glyph-name="Zacute" unicode="&#x179;" horiz-adv-x="615" 
d="M341 785l-16 17l223 201l110 -121zM-53 0l504 670h-80q-30 0 -67 -14.5t-68.5 -35t-58.5 -40.5t-44 -34.5t-18 -14.5h-6l51 189h567l-502 -670h87q30 0 67 14.5t68.5 35t58.5 41t44 35t18 14.5h6l-51 -190h-576z" />
    <glyph glyph-name="zacute" unicode="&#x17a;" horiz-adv-x="499" 
d="M222 575l-16 17l223 201l110 -121zM0 -10q15 44 45.5 85t74 79t83.5 68.5t94.5 70t86.5 65.5q-47 -25 -88 -27q-26 -1 -68 10t-62 12t-39 -3.5t-32 -11.5t-22.5 -14t-15 -12t-6.5 -5h-5l23 79q20 70 50.5 100t85.5 30q31 0 76.5 -10t80.5 -18t85 -3t98 29
q-22 -55 -70.5 -109.5t-93 -88t-116 -83t-102.5 -74.5q34 16 73 14q26 -1 68 -12.5t65 -11.5q53 0 91 38h5l-21 -80q-7 -28 -12.5 -42.5t-19.5 -35t-38 -30t-59 -9.5q-32 0 -72.5 8.5t-69 15t-75 2t-98.5 -25.5z" />
    <glyph glyph-name="Zdotaccent" unicode="&#x17b;" horiz-adv-x="615" 
d="M442 763q-43 0 -66.5 32.5t-11.5 78.5q13 46 53.5 78.5t84.5 32.5t67 -32.5t11 -78.5q-13 -46 -53.5 -78.5t-84.5 -32.5zM-53 0l504 670h-80q-30 0 -67 -14.5t-68.5 -35t-58.5 -40.5t-44 -34.5t-18 -14.5h-6l51 189h567l-502 -670h87q30 0 67 14.5t68.5 35t58.5 41t44 35
t18 14.5h6l-51 -190h-576z" />
    <glyph glyph-name="zdotaccent" unicode="&#x17c;" horiz-adv-x="499" 
d="M323 553q-43 0 -66.5 32.5t-11.5 78.5q13 46 53.5 78.5t84.5 32.5t67 -32.5t11 -78.5q-13 -46 -53.5 -78.5t-84.5 -32.5zM0 -10q15 44 45.5 85t74 79t83.5 68.5t94.5 70t86.5 65.5q-47 -25 -88 -27q-26 -1 -68 10t-62 12t-39 -3.5t-32 -11.5t-22.5 -14t-15 -12t-6.5 -5
h-5l23 79q20 70 50.5 100t85.5 30q31 0 76.5 -10t80.5 -18t85 -3t98 29q-22 -55 -70.5 -109.5t-93 -88t-116 -83t-102.5 -74.5q34 16 73 14q26 -1 68 -12.5t65 -11.5q53 0 91 38h5l-21 -80q-7 -28 -12.5 -42.5t-19.5 -35t-38 -30t-59 -9.5q-32 0 -72.5 8.5t-69 15t-75 2
t-98.5 -25.5z" />
    <glyph glyph-name="Zcaron" unicode="&#x17d;" horiz-adv-x="615" 
d="M354 972l135 -65l168 65l7 -11l-209 -174l-115 174zM-53 0l504 670h-80q-30 0 -67 -14.5t-68.5 -35t-58.5 -40.5t-44 -34.5t-18 -14.5h-6l51 189h567l-502 -670h87q30 0 67 14.5t68.5 35t58.5 41t44 35t18 14.5h6l-51 -190h-576z" />
    <glyph glyph-name="zcaron" unicode="&#x17e;" horiz-adv-x="499" 
d="M235 762l135 -65l168 65l7 -11l-209 -174l-115 174zM0 -10q15 44 45.5 85t74 79t83.5 68.5t94.5 70t86.5 65.5q-47 -25 -88 -27q-26 -1 -68 10t-62 12t-39 -3.5t-32 -11.5t-22.5 -14t-15 -12t-6.5 -5h-5l23 79q20 70 50.5 100t85.5 30q31 0 76.5 -10t80.5 -18t85 -3
t98 29q-22 -55 -70.5 -109.5t-93 -88t-116 -83t-102.5 -74.5q34 16 73 14q26 -1 68 -12.5t65 -11.5q53 0 91 38h5l-21 -80q-7 -28 -12.5 -42.5t-19.5 -35t-38 -30t-59 -9.5q-32 0 -72.5 8.5t-69 15t-75 2t-98.5 -25.5z" />
    <glyph glyph-name="gravecomb" unicode="&#x300;" 
d="M-228 565l-291 97l143 121l169 -201z" />
    <glyph glyph-name="acutecomb" unicode="&#x301;" 
d="M-411 575l-16 17l223 201l110 -121z" />
    <glyph glyph-name="uni0302" unicode="&#x302;" 
d="M-469 557l-8 11l209 174l115 -174l-13 -11l-133 65z" />
    <glyph glyph-name="tildecomb" unicode="&#x303;" 
d="M-496 558q2 54 42.5 104t99.5 50q26 0 73 -15.5t75 -15.5q67 0 110 44q-22 -85 -64 -123.5t-92 -38.5q-28 0 -84.5 17.5t-76.5 16.5q-47 -2 -83 -39z" />
    <glyph glyph-name="uni0304" unicode="&#x304;" 
d="M-442 621l13 50h289l-13 -50h-289z" />
    <glyph glyph-name="uni0306" unicode="&#x306;" 
d="M-187 610q-55 -45 -117 -45t-93.5 45t-14.5 110h21q6 -26 40.5 -42.5t72.5 -16.5q37 0 79.5 16.5t63.5 42.5h21q-17 -65 -73 -110z" />
    <glyph glyph-name="uni0307" unicode="&#x307;" 
d="M-38 553q-43 0 -66.5 32.5t-11.5 78.5q13 46 53.5 78.5t84.5 32.5t67 -32.5t11 -78.5q-13 -46 -53.5 -78.5t-84.5 -32.5z" />
    <glyph glyph-name="uni0308" unicode="&#x308;" 
d="M-447 560q-35 0 -53 26.5t-8 63.5t42 63.5t67 26.5q36 0 54 -26t8 -64q-10 -37 -42 -63.5t-68 -26.5zM-231 560q-36 0 -54 26t-8 64q10 37 42 63.5t68 26.5q35 0 53 -26.5t8 -63.5t-42 -63.5t-67 -26.5z" />
    <glyph glyph-name="uni030A" unicode="&#x30a;" 
d="M-49 578q-37 -30 -78 -30t-62 29.5t-10 72.5t48 72.5t78 29.5t62 -29.5t10 -72.5t-48 -72zM-114 596q20 0 39.5 16t24.5 38q6 22 -4.5 38t-31.5 16q-20 0 -39.5 -16t-24.5 -38q-6 -22 4.5 -38t31.5 -16z" />
    <glyph glyph-name="uni030B" unicode="&#x30b;" 
d="M-492 570l-11 16l149 162l81 -84zM-292 570l-11 16l149 162l81 -84z" />
    <glyph glyph-name="uni030C" unicode="&#x30c;" 
d="M-419 762l135 -65l168 65l7 -11l-209 -174l-115 174z" />
    <glyph glyph-name="uni0312" unicode="&#x312;" 
d="M77 895q-48 -25 -76 -63t-36 -72q45 1 65.5 -30t8.5 -79q-12 -45 -45.5 -73t-72.5 -27q-43 1 -63 38t-5 99q16 69 66 128.5t118 78.5h40z" />
    <glyph glyph-name="uni0326" unicode="&#x326;" 
d="M-392 -373q48 25 76 63t36 72q-45 -1 -65.5 30t-8.5 79q12 45 45.5 73t72.5 27q43 -1 63 -38t5 -99q-16 -69 -66 -128.5t-118 -78.5h-40z" />
    <glyph glyph-name="uni0327" unicode="&#x327;" 
d="M-314 -189q-60 0 -101 27v37q31 -19 54.5 -13t23.5 27q0 15 -13.5 28.5t-35.5 17.5l58 80h43l-45 -61q45 0 76 -20.5t31 -55.5q0 -31 -24.5 -49t-66.5 -18z" />
    <glyph glyph-name="uni0328" unicode="&#x328;" 
d="M-303 -163q-43 0 -69 23t-26 59q0 48 44 81.5t115 38.5h23q-27 -14 -47.5 -45.5t-20.5 -58.5q0 -30 23.5 -41.5t54.5 7.5v-37q-50 -27 -97 -27z" />
    <glyph glyph-name="Wgrave" unicode="&#x1e80;" horiz-adv-x="976" 
d="M769 775l-291 97l143 121l169 -201zM203 0l-42 557q-2 20 -5.5 44t-8 43t-8.5 35.5t-6.5 26t-2.5 10.5l1 4h281l-1 -4l-7 -12q-6 -11 -14.5 -29t-17 -39.5t-13.5 -47t-4 -47.5l19 -300l146 254l-5 62q-2 20 -6 43.5t-8.5 43t-8.5 35.5t-7 25.5t-3 10.5l2 5h281l-2 -5
l-2 -4q-2 -4 -5 -9t-6.5 -12.5t-7.5 -16.5t-8.5 -19.5t-8.5 -21.5t-7 -23.5t-5.5 -24t-3.5 -24.5t0 -24l20 -312l166 283q15 26 25.5 56.5t14 56.5t4.5 47t1 35l-1 14l1 4h154l-1 -5q0 -1 -19 -25t-47 -63t-46 -71l-323 -556h-103l-30 405l-232 -405h-90z" />
    <glyph glyph-name="wgrave" unicode="&#x1e81;" horiz-adv-x="876" 
d="M683 582l-21 -17l-291 97l143 121zM711 472l199 45q0 -55 -47 -172q-63 -157 -164 -254t-214 -97q-67 0 -105 37t-28 98q-112 -135 -218 -135q-61 0 -92 43.5t-11 113.5l54 188q4 16 7.5 33t5 32.5t2 30.5t0.5 27.5t-0.5 21.5t-1.5 16v6v4h222l-95 -323
q-12 -40 -0.5 -59.5t29.5 -19.5q13 0 30 11t39 35.5t46 73.5t43 115q4 15 7 32t4.5 32.5t2 30t0.5 26.5t-0.5 21t-1.5 15v6v4h222l-95 -323q-15 -44 -8 -83t38 -39q56 0 106 86t46 213q-2 66 -22 108z" />
    <glyph glyph-name="Wacute" unicode="&#x1e82;" horiz-adv-x="976" 
d="M517 785l-16 17l223 201l110 -121zM203 0l-42 557q-2 20 -5.5 44t-8 43t-8.5 35.5t-6.5 26t-2.5 10.5l1 4h281l-1 -4l-7 -12q-6 -11 -14.5 -29t-17 -39.5t-13.5 -47t-4 -47.5l19 -300l146 254l-5 62q-2 20 -6 43.5t-8.5 43t-8.5 35.5t-7 25.5t-3 10.5l2 5h281l-2 -5
l-2 -4q-2 -4 -5 -9t-6.5 -12.5t-7.5 -16.5t-8.5 -19.5t-8.5 -21.5t-7 -23.5t-5.5 -24t-3.5 -24.5t0 -24l20 -312l166 283q15 26 25.5 56.5t14 56.5t4.5 47t1 35l-1 14l1 4h154l-1 -5q0 -1 -19 -25t-47 -63t-46 -71l-323 -556h-103l-30 405l-232 -405h-90z" />
    <glyph glyph-name="wacute" unicode="&#x1e83;" horiz-adv-x="876" 
d="M727 672l-317 -97l-16 17l223 201zM711 472l199 45q0 -55 -47 -172q-63 -157 -164 -254t-214 -97q-67 0 -105 37t-28 98q-112 -135 -218 -135q-61 0 -92 43.5t-11 113.5l54 188q4 16 7.5 33t5 32.5t2 30.5t0.5 27.5t-0.5 21.5t-1.5 16v6v4h222l-95 -323
q-12 -40 -0.5 -59.5t29.5 -19.5q13 0 30 11t39 35.5t46 73.5t43 115q4 15 7 32t4.5 32.5t2 30t0.5 26.5t-0.5 21t-1.5 15v6v4h222l-95 -323q-15 -44 -8 -83t38 -39q56 0 106 86t46 213q-2 66 -22 108z" />
    <glyph glyph-name="Wdieresis" unicode="&#x1e84;" horiz-adv-x="976" 
d="M519 770q-35 0 -53 26.5t-8 63.5t42 63.5t67 26.5q36 0 54 -26t8 -64q-10 -37 -42 -63.5t-68 -26.5zM735 770q-36 0 -54 26t-8 64q10 37 42 63.5t68 26.5q35 0 53 -26.5t8 -63.5t-42 -63.5t-67 -26.5zM203 0l-42 557q-2 20 -5.5 44t-8 43t-8.5 35.5t-6.5 26t-2.5 10.5
l1 4h281l-1 -4l-7 -12q-6 -11 -14.5 -29t-17 -39.5t-13.5 -47t-4 -47.5l19 -300l146 254l-5 62q-2 20 -6 43.5t-8.5 43t-8.5 35.5t-7 25.5t-3 10.5l2 5h281l-2 -5l-2 -4q-2 -4 -5 -9t-6.5 -12.5t-7.5 -16.5t-8.5 -19.5t-8.5 -21.5t-7 -23.5t-5.5 -24t-3.5 -24.5t0 -24
l20 -312l166 283q15 26 25.5 56.5t14 56.5t4.5 47t1 35l-1 14l1 4h154l-1 -5q0 -1 -19 -25t-47 -63t-46 -71l-323 -556h-103l-30 405l-232 -405h-90z" />
    <glyph glyph-name="wdieresis" unicode="&#x1e85;" horiz-adv-x="876" 
d="M412 560q-35 0 -53 26.5t-8 63.5t42 63.5t67 26.5q36 0 54 -26t8 -64q-10 -37 -42 -63.5t-68 -26.5zM628 560q-36 0 -54 26t-8 64q10 37 42 63.5t68 26.5q35 0 53 -26.5t8 -63.5t-42 -63.5t-67 -26.5zM711 472l199 45q0 -55 -47 -172q-63 -157 -164 -254t-214 -97
q-67 0 -105 37t-28 98q-112 -135 -218 -135q-61 0 -92 43.5t-11 113.5l54 188q4 16 7.5 33t5 32.5t2 30.5t0.5 27.5t-0.5 21.5t-1.5 16v6v4h222l-95 -323q-12 -40 -0.5 -59.5t29.5 -19.5q13 0 30 11t39 35.5t46 73.5t43 115q4 15 7 32t4.5 32.5t2 30t0.5 26.5t-0.5 21
t-1.5 15v6v4h222l-95 -323q-15 -44 -8 -83t38 -39q56 0 106 86t46 213q-2 66 -22 108z" />
    <glyph glyph-name="Germandbls" unicode="&#x1e9e;" horiz-adv-x="744" 
d="M-46 0l1 4q0 1 6 11.5t15 27.5t18.5 37.5t19 45t15.5 45.5l99 366q53 203 284 203q72 0 169 -17t178 -49l-200 -256q51 -17 80 -53.5t31.5 -78t-6.5 -84.5q-18 -70 -67.5 -122t-112 -75.5t-135 -16t-134.5 51.5l15 46q77 -36 140 4t81 104q17 64 -26 102.5t-135 24.5
l247 333q-45 41 -96 41q-25 0 -45 -11t-31 -23t-22.5 -41t-15 -42t-13.5 -50l-142 -528h-218z" />
    <glyph glyph-name="Ygrave" unicode="&#x1ef2;" horiz-adv-x="660" 
d="M622 775l-291 97l143 121l169 -201zM141 0l1 4q0 1 6 11.5t15 27.5t18.5 37.5t19 45t15.5 45.5l29 109l-68 283q-6 30 -17.5 67.5t-19.5 60.5t-8 24l2 5h289l-1 -4q0 -1 -6 -12.5t-13.5 -27.5t-15 -38.5t-10 -44.5t1.5 -46l41 -214l143 198q17 23 27 50t13.5 49.5t4.5 41
t0.5 30.5t-0.5 13l2 5h166l-1 -4q0 -1 -21.5 -24.5t-53 -61.5t-52.5 -68l-205 -282l-30 -109q-6 -21 -9.5 -45.5t-4.5 -45t-1 -37.5v-27.5v-11.5l-1 -4h-256z" />
    <glyph glyph-name="ygrave" unicode="&#x1ef3;" horiz-adv-x="588" 
d="M516 582l-21 -17l-291 97l143 121zM424 475l203 45q-29 -134 -99 -274t-172.5 -254.5t-209.5 -155.5q-117 -45 -225 -15l88 186h3q49 -101 141 -92q9 1 27 5q-1 200 -25 412q-6 58 -34 58q-31 0 -81 -52l-12 3q35 80 90 127.5t110 47.5q47 0 68.5 -38.5t33.5 -123.5
q20 -147 23 -288q80 127 86 270q4 83 -15 139z" />
    <glyph glyph-name="endash" unicode="&#x2013;" horiz-adv-x="555" 
d="M50 274l14 50h464l-14 -50h-464z" />
    <glyph glyph-name="emdash" unicode="&#x2014;" horiz-adv-x="997" 
d="M50 274l14 50h906l-14 -50h-906z" />
    <glyph glyph-name="quoteleft" unicode="&#x2018;" horiz-adv-x="250" 
d="M166 432q0 29 -1 98.5t0 117.5t5 72h160q-8 -24 -33.5 -72t-63.5 -117t-54 -99h-13z" />
    <glyph glyph-name="quoteright" unicode="&#x2019;" horiz-adv-x="258" 
d="M166 432q0 29 -1 98.5t0 117.5t5 72h160q-8 -24 -33.5 -72t-63.5 -117t-54 -99h-13z" />
    <glyph glyph-name="quotesinglbase" unicode="&#x201a;" horiz-adv-x="274" 
d="M-41 -146q48 25 76 63t36 72q-45 -1 -65.5 30t-8.5 79q12 45 45.5 73t72.5 27q43 -1 63 -38t5 -99q-16 -69 -66 -128.5t-118 -78.5h-40z" />
    <glyph glyph-name="quotedblleft" unicode="&#x201c;" horiz-adv-x="463" 
d="M260 432q-8 25 -33 97.5t-39.5 119.5t-17.5 71h160q-1 -23 -11 -72.5t-25 -116.5t-21 -99h-13zM453 432q-8 25 -33 97.5t-39.5 119.5t-17.5 71h160q-1 -23 -11 -72.5t-25 -116.5t-21 -99h-13z" />
    <glyph glyph-name="quotedblright" unicode="&#x201d;" horiz-adv-x="513" 
d="M152 432q11 32 32 99t37.5 116.5t28.5 72.5h160q-16 -24 -56 -71t-103.5 -119.5t-85.5 -97.5h-13zM345 432q11 32 32 99t37.5 116.5t28.5 72.5h160q-16 -24 -56 -71t-103.5 -119.5t-85.5 -97.5h-13z" />
    <glyph glyph-name="quotedblbase" unicode="&#x201e;" horiz-adv-x="274" 
d="M115 198q43 -1 63 -38t5 -99q-16 -69 -66 -128.5t-118 -78.5h-40q48 25 76 63t36 72q-45 -1 -65.5 30t-8.5 79q12 45 45.5 73t72.5 27z" />
    <glyph glyph-name="dagger" unicode="&#x2020;" horiz-adv-x="404" 
d="M183 270l72 269h-133l12 48h134l35 133h48l-36 -133h133l-13 -48h-132l-73 -269h-47z" />
    <glyph glyph-name="daggerdbl" unicode="&#x2021;" horiz-adv-x="404" 
d="M182 270l35 131h-132l13 48h132l24 90h-132l12 48h133l36 133h47l-36 -133h134l-13 -48h-133l-24 -90h133l-13 -48h-133l-35 -131h-48z" />
    <glyph glyph-name="bullet" unicode="&#x2022;" horiz-adv-x="350" 
d="M164 214q-52 -1 -81 39t-13 95q14 55 64 95t102 39q54 -2 81.5 -41t12.5 -93q-15 -56 -63 -94t-103 -40z" />
    <glyph glyph-name="ellipsis" unicode="&#x2026;" horiz-adv-x="863" 
d="M62 -13q-38 1 -57 31.5t-9 75.5q11 45 45 75t73 29q38 -1 57 -32t9 -76q-11 -45 -45 -74.5t-73 -28.5zM350 -13q-38 1 -57 31.5t-9 75.5q11 45 45 75t73 29q38 -1 57 -32t9 -76q-11 -45 -45 -74.5t-73 -28.5zM658 -13q-38 1 -57 31.5t-9 75.5q11 45 45 75t73 29
q38 -1 57 -32t9 -76q-11 -45 -45 -74.5t-73 -28.5z" />
    <glyph glyph-name="perthousand" unicode="&#x2030;" horiz-adv-x="1086" 
d="M41 0l674 720h61l-674 -720h-61zM226 409q-52 0 -83.5 45t-14.5 111q18 66 73.5 110.5t107.5 44.5q53 0 85 -44.5t14 -110.5q-17 -66 -73.5 -111t-108.5 -45zM235 446q39 0 70 119q33 118 -6 118q-38 0 -69 -118q-32 -119 5 -119zM515 0q-52 0 -83.5 45t-13.5 111
q17 66 72.5 110.5t107.5 44.5q53 0 85 -44.5t15 -110.5q-18 -66 -74 -111t-109 -45zM851 0q-52 0 -83.5 45t-13.5 111t73.5 110.5t107.5 44.5t84.5 -44.5t14.5 -110.5t-74 -111t-109 -45zM525 37q39 0 70 119q15 56 13 87t-20 31q-37 0 -68 -118q-32 -119 5 -119zM861 37
q39 0 70 119q10 37 12.5 64t-2 40.5t-16.5 13.5q-38 0 -69 -118q-32 -119 5 -119z" />
    <glyph glyph-name="guilsinglleft" unicode="&#x2039;" horiz-adv-x="300" 
d="M153 72l-117 205l227 205h68l-227 -205l117 -205h-68z" />
    <glyph glyph-name="guilsinglright" unicode="&#x203a;" horiz-adv-x="300" 
d="M43 72h-68l226 205l-117 205h68l117 -205z" />
    <glyph glyph-name="fraction" unicode="&#x2044;" horiz-adv-x="254" 
d="M-247 -50l819 810h62l-819 -810h-62z" />
    <glyph glyph-name="Euro" unicode="&#x20ac;" horiz-adv-x="712" 
d="M351 -12q-127 0 -196 79.5t-55 213.5h-77l11 44h72q1 7 8 34q5 21 10 34h-71l11 44h77q58 134 171.5 213.5t244.5 79.5q82 0 233 -39l-59 -218l-6 -1q-16 44 -27.5 70t-32 63.5t-45 56t-52.5 18.5q-53 0 -114 -67t-102 -176h202l-12 -44h-206q-2 -6 -5 -17t-5 -17
q-7 -27 -8 -34h206l-12 -44h-202q-16 -108 8.5 -175t77.5 -67q49 0 114 55.5t155 154.5l6 -2l-59 -219q-169 -40 -261 -40z" />
    <glyph glyph-name="trademark" unicode="&#x2122;" horiz-adv-x="759" 
d="M167 371q21 40 43 124l52 195h-4q-36 0 -62 -13t-59 -44l23 87h296l-23 -87q-17 31 -35.5 44t-55.5 13h-3l-53 -195q-22 -82 -23 -124h-96zM389 371q28 50 58 161l17 64q22 81 19 124h110l16 -230l141 230h99q-21 -40 -43 -124l-27 -101q-23 -86 -24 -124h-98
q22 46 43 124l31 139l-161 -263h-34l-19 285q-8 -18 -20 -60l-17 -64q-32 -118 -29 -161h-62z" />
    <glyph glyph-name="oneeighth" unicode="&#x215b;" horiz-adv-x="777" 
d="M-39 -50l819 810h62l-819 -810h-62zM106 367l1 2l7 13q7 13 16.5 33.5t13.5 37.5l53 198h-63l4 15q115 31 183 74l-77 -287q-6 -23 -6 -84l-1 -2h-131zM570 -6q-59 0 -97 24t-27 66q8 29 35 49.5t59 26.5q-56 39 -41 95q12 45 58.5 77.5t111.5 32.5q52 0 85 -21t22 -61
q-7 -27 -31 -47t-53 -29q71 -44 55 -103q-15 -53 -66 -81.5t-111 -28.5zM666 222q23 19 32 49q8 30 -2 50t-36 20q-21 0 -39 -12.5t-24 -34.5q-4 -6 -1.5 -13.5t2.5 -11.5t6 -9.5t9 -8.5t11 -7.5t13 -7t14.5 -7t14.5 -7.5zM574 18q24 0 43 13.5t24 33.5q11 39 -74 80l-3 1
q-27 -22 -35 -54q-9 -30 3 -52t42 -22z" />
    <glyph glyph-name="threeeighths" unicode="&#x215c;" horiz-adv-x="853" 
d="M37 -50l819 810h62l-819 -810h-62zM172 361q-44 0 -104 18l53 108q1 1 2 1q17 -75 30 -91q12 -12 26 -13q37 0 54 65q19 75 -44 99l1 2q75 24 95 96q16 64 -18 64q-11 0 -23 -6.5t-29 -25.5t-25.5 -29t-31.5 -40q-2 -1 -2 0l5 106q69 18 111 18q21 0 41.5 -3.5t43 -12
t33 -28t2.5 -47.5q-11 -40 -51.5 -66.5t-93.5 -26.5q55 0 82 -27t16 -68q-8 -28 -29 -48t-49 -29t-51 -12.5t-44 -3.5zM646 -6q-59 0 -97 24t-27 66q8 29 35 49.5t59 26.5q-56 39 -41 95q12 45 58.5 77.5t111.5 32.5q52 0 85 -21t22 -61q-7 -27 -31 -47t-53 -29
q71 -44 55 -103q-15 -53 -66 -81.5t-111 -28.5zM742 222q23 19 32 49q8 30 -2 50t-36 20q-21 0 -39 -12.5t-24 -34.5q-4 -6 -1.5 -13.5t2.5 -11.5t6 -9.5t9 -8.5t11 -7.5t13 -7t14.5 -7t14.5 -7.5zM650 18q24 0 43 13.5t24 33.5q11 39 -74 80l-3 1q-27 -22 -35 -54
q-9 -30 3 -52t42 -22z" />
    <glyph glyph-name="fiveeighths" unicode="&#x215d;" horiz-adv-x="854" 
d="M38 -50l819 810h62l-819 -810h-62zM172 361q-54 0 -104 23l37 103h2q11 -43 30.5 -72.5t40.5 -29.5q36 0 56 75q23 87 -39 90q-29 2 -77 -16l70 193h136q11 0 24 1.5t24 3.5t20.5 4t15.5 4l6 1l-48 -99h-184l-27 -76q53 26 103 26q61 0 81 -33.5t7 -81.5q-15 -56 -62 -86
t-112 -30zM647 -6q-59 0 -97 24t-27 66q8 29 35 49.5t59 26.5q-56 39 -41 95q12 45 58.5 77.5t111.5 32.5q52 0 85 -21t22 -61q-7 -27 -31 -47t-53 -29q71 -44 55 -103q-15 -53 -66 -81.5t-111 -28.5zM743 222q23 19 32 49q8 30 -2 50t-36 20q-21 0 -39 -12.5t-24 -34.5
q-4 -6 -1.5 -13.5t2.5 -11.5t6 -9.5t9 -8.5t11 -7.5t13 -7t14.5 -7t14.5 -7.5zM651 18q24 0 43 13.5t24 33.5q11 39 -74 80l-3 1q-27 -22 -35 -54q-9 -30 3 -52t42 -22z" />
    <glyph glyph-name="seveneighths" unicode="&#x215e;" horiz-adv-x="857" 
d="M41 -50l819 810h62l-819 -810h-62zM93 367q3 11 105 125.5t138 149.5h-106q-40 0 -105 -29l68 114h236q-107 -135 -176 -279q-32 -72 -32 -81h-128zM650 -6q-59 0 -97 24t-27 66q8 29 35 49.5t59 26.5q-56 39 -41 95q12 45 58.5 77.5t111.5 32.5q52 0 85 -21t22 -61
q-7 -27 -31 -47t-53 -29q71 -44 55 -103q-15 -53 -66 -81.5t-111 -28.5zM746 222q23 19 32 49q8 30 -2 50t-36 20q-21 0 -39 -12.5t-24 -34.5q-4 -6 -1.5 -13.5t2.5 -11.5t6 -9.5t9 -8.5t11 -7.5t13 -7t14.5 -7t14.5 -7.5zM654 18q24 0 43 13.5t24 33.5q11 39 -74 80l-3 1
q-27 -22 -35 -54q-9 -30 3 -52t42 -22z" />
    <glyph glyph-name="arrowleft" unicode="&#x2190;" horiz-adv-x="607" 
d="M248 81l-176 237l304 237l29 -40l-220 -171h391l-14 -52h-398l129 -175z" />
    <glyph glyph-name="arrowup" unicode="&#x2191;" horiz-adv-x="584" 
d="M217 73l107 398l-222 -176l-27 35l302 240l172 -240l-45 -35l-128 176l-107 -398h-52z" />
    <glyph glyph-name="arrowright" unicode="&#x2192;" horiz-adv-x="607" 
d="M264 76l-28 40l219 171h-391l14 52h398l-129 175l45 36l176 -237z" />
    <glyph glyph-name="arrowdown" unicode="&#x2193;" horiz-adv-x="584" 
d="M239 61l-172 240l45 35l128 -176l107 398h52l-107 -398l222 176l27 -35z" />
    <glyph glyph-name="arrowboth" unicode="&#x2194;" horiz-adv-x="909" 
d="M694 553l176 -237l-304 -237l-29 40l220 171h-594l129 -175l-45 -36l-176 237l304 237l28 -41l-219 -170h594l-129 175z" />
    <glyph glyph-name="arrowupdn" unicode="&#x2195;" horiz-adv-x="584" 
d="M444 657l-80 -298l-92 -345l222 176l28 -38l-301 -240l-175 243l46 35l128 -176l65 245l27 100l14 53l66 245l-222 -176l-30 38l302 240l175 -243l-45 -35z" />
    <glyph glyph-name="uni2196" unicode="&#x2196;" horiz-adv-x="480" 
d="M353 123l-206 282l-65 -249h-51l88 337l337 -2l-14 -50h-248l206 -281z" />
    <glyph glyph-name="uni2197" unicode="&#x2197;" horiz-adv-x="480" 
d="M57 127l-26 37l356 281h-248l13 50l338 2l-93 -337l-50 1l67 248z" />
    <glyph glyph-name="uni2198" unicode="&#x2198;" horiz-adv-x="480" 
d="M394 138l-337 2l14 50h248l-206 281l47 37l206 -282l65 249h51z" />
    <glyph glyph-name="uni2199" unicode="&#x2199;" horiz-adv-x="479" 
d="M22 133l93 337l50 -1l-67 -248l357 282l26 -37l-356 -281h248l-13 -50z" />
    <glyph glyph-name="minus" unicode="&#x2212;" horiz-adv-x="551" 
d="M64 306l14 50h450l-14 -50h-450z" />
    <glyph glyph-name="notequal" unicode="&#x2260;" horiz-adv-x="529" 
d="M91 151l65 69h-115l14 50h149l116 122h-233l14 50h266l64 68h48l-64 -68h114l-13 -50h-149l-115 -122h231l-13 -50h-266l-65 -69h-48z" />
    <glyph glyph-name="lessequal" unicode="&#x2264;" horiz-adv-x="477" 
d="M387 121l-299 226l8 34l421 226l-16 -58l-343 -185l245 -185zM-9 35l14 50h376l-14 -50h-376z" />
    <glyph glyph-name="greaterequal" unicode="&#x2265;" horiz-adv-x="481" 
d="M15 121l15 58l344 185l-244 185l15 58l300 -226l-10 -34zM-5 35l14 50h376l-14 -50h-376z" />
    <glyph glyph-name="lozenge" unicode="&#x25ca;" horiz-adv-x="600" 
d="M289 0l-202 320l202 320h26l202 -320l-202 -320h-26zM302 75l155 245l-155 245l-155 -245z" />
    <glyph glyph-name="g.ss01" horiz-adv-x="503" 
d="M433 494q77 127 184 110l-54 -143h-2q-39 28 -98 16q72 -54 46 -152q-17 -63 -68.5 -108.5t-108 -64.5t-111.5 -19q-33 0 -61 7q-55 -21 -60 -40q-4 -14 34 -18.5t119 -4.5h35q55 0 90 -12t46.5 -31t14.5 -42.5t-6 -45.5q-38 -141 -220 -146l4 14q87 19 99 66
q4 15 -1.5 23.5t-25.5 12.5t-37 4.5t-55 0.5h-6h-44q-24 0 -43 0.5t-39.5 2.5t-34.5 5.5t-29 9t-22 13t-14.5 18.5t-6 24.5t4.5 31.5q27 98 155 128q-50 22 -73.5 65t-6.5 106t68 108.5t107 64t111 18.5q61 0 109 -22zM233 179q57 0 96 145t-18 145q-56 0 -95 -145t17 -145z
" />
    <glyph glyph-name="E_L" horiz-adv-x="974" 
d="M-30 0l1 4q0 1 6 11.5t14.5 27.5t18 37.5t19 45t14.5 45.5l96 378q6 21 9 45.5t4 45t1 37.5v27.5v11.5l1 4h523l-55 -217h-5q-1 0 -9.5 17.5t-23 42.5t-33.5 50t-45 42.5t-52 17.5h-92l-74 -288h9q26 0 58 6.5t59.5 15.5t51 18t38 15.5t15.5 6.5h5l-41 -159h-4
q-1 0 -12.5 6.5t-30 15.5t-41.5 18t-52 15.5t-55 6.5h-9l-77 -303h95q26 0 61 17.5t66.5 42.5t59 50.5t45 43t18.5 17.5h5l-55 -218h-527zM626 274l1 2q0 1 4 8t9 18t11 24t12 28.5t9 28.5l60 232q6 23 6.5 62t1.5 41v2h169l-1 -2q0 -1 -8.5 -16.5t-19.5 -40.5t-16 -46
l-76 -297h58q16 0 36 9.5t36.5 23.5t31 28t23 23.5t9.5 9.5h3l-36 -138h-323z" />
    <glyph glyph-name="L_A" horiz-adv-x="872" 
d="M-14 0l1 4q0 1 6 11.5t14.5 27.5t18 37.5t19 45t14.5 45.5l97 378q5 21 8.5 45.5t4 45t0.5 37.5v27.5v11.5l1 4h249l-1 -4q0 -1 -6 -11.5t-14.5 -27.5t-18 -37.5t-19 -45t-14.5 -45.5l-128 -502h73q27 0 62.5 19t67.5 46.5t60 55t45.5 46.5t18.5 19h5l-59 -233h-505z
M398 278l1 3q62 86 98 147l119 202q4 6 6.5 13t4 13.5t2.5 13t1 12.5v11t-0.5 9.5t-1 7.5t-0.5 5l-1 2l1 3h165l33 -332q7 -71 23 -107l-1 -3h-199l1 3l4 7q4 8 9 18.5t10 23.5t7.5 28.5t1.5 29.5l-3 40h-142l-11 -19q-9 -17 -14 -35.5t-6 -34t-0.5 -28.5t1.5 -21l1 -9
l-1 -3h-109zM561 468h113l-15 164z" />
    <glyph glyph-name="L_E" horiz-adv-x="766" 
d="M-19 0l1 4q0 1 6 11.5t14.5 27.5t18 37.5t19 45t14.5 45.5l97 378q5 21 8.5 45.5t4 45t0.5 37.5v27.5v11.5l1 4h249l-1 -4q0 -1 -6 -11.5t-14.5 -27.5t-18 -37.5t-18.5 -45t-15 -45.5l-128 -502h74q26 0 61.5 19t67.5 46.5t60 55t46 46.5t19 19h4l-59 -233h-505zM405 276
v2l3 7q4 7 9 18t11 23.5t11.5 28t8.5 28.5l59 229q5 21 7 46.5t2 42.5v17v2h327l-34 -133h-3q-1 0 -6.5 9.5t-14.5 22.5t-21 26t-28.5 22.5t-32.5 9.5h-47l-40 -156h5q16 0 34.5 3t34 7.5t28 9.5l20 8t8.5 3h3l-26 -101h-3q-1 0 -7 3t-16 7.5t-23 9.5t-30 8t-33 3h-5
l-42 -164h49q16 0 37.5 9.5t40 23.5t35 28t26.5 23l11 10h3l-32 -136h-329z" />
    <glyph glyph-name="N_o" horiz-adv-x="1299" 
d="M978 173q-109 0 -161 77t-20 202t123 201.5t200 76.5t161.5 -77t20.5 -201q-32 -125 -123.5 -202t-200.5 -77zM-18 0l1 6q0 1 10.5 17t25.5 41.5t31.5 56t32 67.5t23.5 69l75 292q5 21 7 45.5t0.5 45t-3.5 37.5t-3.5 27.5t-1.5 11.5l1 4h228l185 -475l56 219
q8 32 11.5 69t2.5 67t-3.5 55.5t-4.5 41.5t-2 17l2 6h167l-2 -6l-25 -39q-24 -39 -54.5 -100t-43.5 -111l-118 -464h-119l-226 571l-80 -314q-8 -32 -11.5 -69t-2.5 -67.5t3 -56t4 -41.5t2 -17l-2 -6h-166zM987 207q32 0 65.5 44t55.5 97t35 105q10 37 15 77t4 78t-14 62.5
t-37 24.5q-32 0 -65 -43.5t-55 -96.5t-35 -105q-10 -37 -15 -77t-4.5 -78.5t13.5 -63t37 -24.5zM933 -6q-19 0 -30 14.5t-6 34.5t23 34.5t38 14.5q19 0 29.5 -14.5t5.5 -34.5t-23 -34.5t-37 -14.5z" />
    <glyph glyph-name="t_i" horiz-adv-x="752" 
d="M706 775q44 0 67 -32.5t11 -78.5q-13 -46 -53.5 -78.5t-84.5 -32.5q-43 0 -66.5 32.5t-11.5 78.5q13 46 53.5 78.5t84.5 32.5zM630 153q-11 -40 15 -38q32 3 80 53l12 -3q-29 -77 -82.5 -126t-120.5 -49q-68 0 -87.5 53t5.5 128l49 168q17 60 17 121h-208l-84 -307
q-10 -34 13 -32q38 2 102 67l12 -3q-29 -78 -91.5 -136.5t-127.5 -58.5q-61 0 -85 51t-3 123l79 296h-70l14 50q170 82 300 186l5 4l-51 -190h408z" />
    <glyph glyph-name="t_t" horiz-adv-x="787" 
d="M703 460l-84 -307q-10 -34 13 -32q38 2 102 67l12 -3q-29 -78 -91.5 -136.5t-127.5 -58.5q-61 0 -85 51t-3 123l79 296h-208l-84 -307q-10 -34 13 -32q38 2 102 67l12 -3q-29 -78 -91.5 -136.5t-127.5 -58.5q-61 0 -85 51t-3 123l79 296h-70l14 50q170 82 300 186l5 4
l-51 -190h139q170 82 300 186l5 4l-51 -190h128l-13 -50h-128z" />
    <glyph glyph-name="t_u" horiz-adv-x="1072" 
d="M1031 168l12 -3q-29 -77 -84 -126t-122 -49q-65 0 -85 43.5t-5 105.5q-97 -145 -200 -145q-63 0 -94 43.5t-11 113.5l54 188q15 54 15 121h-201l-84 -307q-10 -34 13 -32q38 2 102 67l12 -3q-29 -78 -91.5 -136.5t-127.5 -58.5q-61 0 -85 51t-3 123l79 296h-70l14 50
q170 82 300 186l5 4l-51 -190h408l-95 -323q-24 -79 9 -79q12 0 28.5 10t37 32t43.5 66t42 103l52 191h184l-96 -357q-11 -42 16 -39q31 4 79 54z" />
    <glyph glyph-name="t_w" horiz-adv-x="1257" 
d="M1092 472l199 45q0 -55 -47 -172q-63 -157 -164 -254t-214 -97q-67 0 -105 37t-28 98q-113 -135 -218 -135q-61 0 -92 43.5t-11 113.5l54 188q15 52 15 121h-171l-84 -307q-10 -34 13 -32q38 2 102 67l12 -3q-29 -78 -91.5 -136.5t-127.5 -58.5q-61 0 -85 51t-3 123
l79 296h-70l14 50q170 82 300 186l5 4l-51 -190h378l-95 -323q-12 -40 -0.5 -59.5t29.5 -19.5q13 0 30 11t39 35.5t46 73.5t43 115q4 15 7 32t4.5 32.5t2 30t0.5 26.5t-0.5 21t-0.5 15l-1 6v4h222l-95 -323q-15 -44 -8 -83t38 -39q56 0 106 86t46 213q-2 66 -22 108z" />
    <glyph glyph-name="zero.dnom" horiz-adv-x="346" 
d="M124 -3q-67 0 -97.5 51t-9.5 133q22 81 80 131.5t125 50.5t98.5 -50.5t9.5 -131.5q-21 -82 -80 -133t-126 -51zM131 23q11 0 20.5 6.5t18 22t14.5 27.5t14 36t10.5 33.5t9.5 33.5q42 156 -3 156q-16 0 -29.5 -14.5t-24.5 -43.5t-17 -48t-15 -52q-31 -118 -18 -145
q6 -12 20 -12z" />
    <glyph glyph-name="one.dnom" horiz-adv-x="208" 
d="M8 0l1 2l7 13q7 13 16.5 33.5t13.5 37.5l53 198h-63l4 15q115 31 183 74l-77 -287q-6 -23 -6 -84l-1 -2h-131z" />
    <glyph glyph-name="two.dnom" horiz-adv-x="292" 
d="M-39 1q115 112 173 179.5t72 118.5q12 41 -18 41q-44 0 -125 -106h-1l4 105q87 26 131 26q55 0 86 -23t19 -67q-20 -72 -145 -148q-10 -6 -25 -14.5t-34.5 -19t-31.5 -17.5h74q64 0 113 37q3 2 2 -1l-48 -111h-246z" />
    <glyph glyph-name="three.dnom" horiz-adv-x="284" 
d="M74 -6q-44 0 -104 18l53 108q1 2 2 1q17 -75 30 -91q12 -12 26 -13q37 0 54 65q19 75 -44 99l1 2q75 24 95 96q16 64 -18 64q-11 0 -23 -6.5t-29 -25.5t-25.5 -29t-31.5 -40q-2 -1 -2 0l5 106q69 18 111 18q21 0 41.5 -3.5t43 -12t33 -28t2.5 -47.5q-11 -40 -51.5 -66.5
t-93.5 -26.5q55 0 82 -27t16 -68q-8 -28 -29 -48t-49 -29t-51 -12.5t-44 -3.5z" />
    <glyph glyph-name="four.dnom" horiz-adv-x="311" 
d="M90 0l8 14q7 13 17 34t14 38h-147l235 274h85l-66 -249h49l-7 -25h-49q-8 -30 -8 -86h-131zM30 111h106l47 176z" />
    <glyph glyph-name="five.dnom" horiz-adv-x="285" 
d="M74 -6q-54 0 -104 23l37 103h2q11 -43 30.5 -72.5t40.5 -29.5q36 0 56 75q23 87 -39 90q-29 2 -77 -16l70 193h136q11 0 24 1.5t24 3.5t20.5 4t15.5 3l6 2l-48 -99h-184l-27 -76q53 26 103 26q61 0 81 -33.5t7 -81.5q-15 -56 -62 -86t-112 -30z" />
    <glyph glyph-name="six.dnom" horiz-adv-x="328" 
d="M119 -6q-66 0 -95 52t-7 135q23 83 78 133.5t124 50.5q52 0 116 -23l-45 -103h-2q-34 103 -75 103q-22 0 -40 -34.5t-38 -106.5q39 23 84 23q50 0 70 -31t9 -74q-15 -54 -67 -89.5t-112 -35.5zM126 18q18 0 33.5 21t24.5 54q11 31 6 63t-31 32q-11 0 -30 -8l-10 -40
t-8.5 -36.5t-5.5 -34.5t0 -26.5t6.5 -18.5t14.5 -6z" />
    <glyph glyph-name="seven.dnom" horiz-adv-x="288" 
d="M-5 0q3 11 105 125.5t138 149.5h-106q-40 0 -105 -29l68 114h236q-107 -135 -176 -279q-32 -72 -32 -81h-128z" />
    <glyph glyph-name="eight.dnom" horiz-adv-x="315" 
d="M108 -6q-59 0 -97 24t-27 66q8 29 35 49.5t59 26.5q-56 39 -41 95q12 45 58.5 77.5t111.5 32.5q52 0 85 -21t22 -61q-7 -27 -31 -47t-53 -29q71 -44 55 -103q-15 -53 -66 -81.5t-111 -28.5zM204 222q23 19 32 49q8 30 -2 50t-36 20q-21 0 -39 -12.5t-24 -34.5
q-4 -6 -1.5 -13.5t2.5 -11.5t6 -9.5t9 -8.5t11 -7.5t13 -7t14.5 -7t14.5 -7.5zM112 18q24 0 43 13.5t24 33.5q11 39 -74 80l-3 1q-27 -22 -35 -54q-9 -30 3 -52t42 -22z" />
    <glyph glyph-name="nine.dnom" horiz-adv-x="328" 
d="M109 -6q-55 0 -115 24l44 102l2 1q36 -103 76 -103q22 0 39.5 33.5t38.5 107.5q-40 -24 -85 -24q-50 0 -70 31t-9 75q15 54 66.5 89t112.5 35q66 0 95 -52t7 -134q-23 -84 -78 -134.5t-124 -50.5zM169 172q14 0 30 8q7 25 10.5 40t8 36.5t5.5 34.5t0.5 26t-6 19t-14.5 6
q-18 0 -34 -21t-25 -54q-11 -31 -6 -63.5t31 -31.5z" />
    <glyph glyph-name="zero.numr" horiz-adv-x="346" 
d="M222 364q-67 0 -97.5 51t-9.5 133q22 81 80 131.5t125 50.5t98.5 -50.5t9.5 -131.5q-21 -82 -80 -133t-126 -51zM229 390q11 0 20.5 6.5t18 22t14.5 27.5t14 36t10.5 33.5t9.5 33.5q42 156 -3 156q-16 0 -29.5 -14.5t-24.5 -43.5t-17 -48t-15 -52q-31 -118 -18 -145
q6 -12 20 -12z" />
    <glyph glyph-name="one.numr" horiz-adv-x="208" 
d="M106 367l1 2l7 13q7 13 16.5 33.5t13.5 37.5l53 198h-63l4 15q115 31 183 74l-77 -287q-6 -23 -6 -84l-1 -2h-131z" />
    <glyph glyph-name="two.numr" horiz-adv-x="292" 
d="M59 368q115 112 173 179.5t72 118.5q12 41 -18 41q-44 0 -125 -106h-1l4 105q87 26 131 26q55 0 86 -23t19 -67q-20 -72 -145 -148q-10 -6 -25 -14.5t-34.5 -19t-31.5 -17.5h74q64 0 113 37q3 2 2 -1l-48 -111h-246z" />
    <glyph glyph-name="three.numr" horiz-adv-x="284" 
d="M172 361q-44 0 -104 18l53 108q1 1 2 1q17 -75 30 -91q12 -12 26 -13q37 0 54 65q19 75 -44 99l1 2q75 24 95 96q16 64 -18 64q-11 0 -23 -6.5t-29 -25.5t-25.5 -29t-31.5 -40q-2 -1 -2 0l5 106q69 18 111 18q21 0 41.5 -3.5t43 -12t33 -28t2.5 -47.5
q-11 -40 -51.5 -66.5t-93.5 -26.5q55 0 82 -27t16 -68q-8 -28 -29 -48t-49 -29t-51 -12.5t-44 -3.5z" />
    <glyph glyph-name="four.numr" horiz-adv-x="311" 
d="M188 367l8 13q7 14 17 35t14 38h-147l235 274h85l-66 -249h49l-7 -25h-49q-8 -30 -8 -86h-131zM128 478h106l47 176z" />
    <glyph glyph-name="five.numr" horiz-adv-x="285" 
d="M172 361q-54 0 -104 23l37 103h2q11 -43 30.5 -72.5t40.5 -29.5q36 0 56 75q23 87 -39 90q-29 2 -77 -16l70 193h136q11 0 24 1.5t24 3.5t20.5 4t15.5 4l6 1l-48 -99h-184l-27 -76q53 26 103 26q61 0 81 -33.5t7 -81.5q-15 -56 -62 -86t-112 -30z" />
    <glyph glyph-name="six.numr" horiz-adv-x="328" 
d="M217 361q-66 0 -95 52t-7 135q23 83 78 133.5t124 50.5q52 0 116 -23l-45 -103h-2q-34 103 -75 103q-22 0 -40 -34.5t-38 -106.5q39 23 84 23q50 0 70 -31t9 -74q-15 -54 -67 -89.5t-112 -35.5zM224 385q18 0 33.5 21t24.5 54q11 31 6 63t-31 32q-11 0 -30 -8l-10 -40
t-8.5 -36.5t-5.5 -34.5t0 -26.5t6.5 -18.5t14.5 -6z" />
    <glyph glyph-name="seven.numr" horiz-adv-x="288" 
d="M93 367q3 11 105 125.5t138 149.5h-106q-40 0 -105 -29l68 114h236q-107 -135 -176 -279q-32 -72 -32 -81h-128z" />
    <glyph glyph-name="eight.numr" horiz-adv-x="315" 
d="M206 361q-59 0 -97 24t-27 66q8 29 35 49.5t59 26.5q-56 39 -41 95q12 45 58.5 77.5t111.5 32.5q52 0 85 -21t22 -61q-7 -27 -31 -47t-53 -29q71 -44 55 -103q-15 -53 -66 -81.5t-111 -28.5zM302 589q23 19 32 49q8 30 -2 50t-36 20q-21 0 -39 -12.5t-24 -34.5
q-4 -6 -1.5 -13.5t2.5 -11.5t6 -9.5t9 -8.5t11 -7.5t13 -7t14.5 -7t14.5 -7.5zM210 385q24 0 43 13.5t24 33.5q11 39 -74 80l-3 1q-27 -22 -35 -54q-9 -30 3 -52t42 -22z" />
    <glyph glyph-name="nine.numr" horiz-adv-x="328" 
d="M207 361q-55 0 -115 24l44 102l2 1q36 -103 76 -103q22 0 39.5 33.5t38.5 107.5q-40 -24 -85 -24q-50 0 -70 31t-9 75q15 54 66.5 89t112.5 35q66 0 95 -52t7 -134q-23 -84 -78 -134.5t-124 -50.5zM267 539q14 0 30 8q7 25 10.5 40t8 36.5t5.5 34.5t0.5 26t-6 19t-14.5 6
q-18 0 -34 -21t-25 -54q-11 -31 -6 -63.5t31 -31.5z" />
    <glyph glyph-name="parenleft.case" horiz-adv-x="339" 
d="M225 -94q-35 20 -68 57.5t-61.5 97t-33.5 133t16 165.5q18 69 54.5 134.5t78.5 115.5t90.5 92.5t90 69.5t77.5 42l7 -10q-88 -71 -151 -199t-94 -245q-19 -70 -30 -144.5t-4 -162t41 -136.5z" />
    <glyph glyph-name="parenright.case" horiz-adv-x="326" 
d="M-73 -94l-8 10q85 71 146.5 198t93.5 245q19 71 30 145t6 162t-37 137l12 10q33 -20 64 -57.5t57.5 -97.5t30 -133.5t-17.5 -165.5q-23 -85 -70 -164t-103 -135.5t-108 -95t-96 -58.5z" />
    <glyph glyph-name="braceleft.case" horiz-adv-x="333" 
d="M134 -80q-63 0 -97 33.5t-20 87.5q8 29 52.5 108t55.5 119q9 38 -4 59.5t-44 26.5l5 20q33 5 59 28.5t36 61.5q11 41 8.5 117.5t4.5 105.5q15 54 67 87.5t115 33.5q73 0 99 -1l-6 -22q-51 0 -89.5 -22.5t-48.5 -60.5q-8 -31 5.5 -104t4.5 -106q-14 -50 -65 -82t-115 -46
q57 -14 91 -46t20 -82q-7 -29 -60.5 -103.5t-62.5 -106.5q-10 -38 17 -60.5t77 -22.5l-6 -22q-16 0 -49 -0.5t-50 -0.5z" />
    <glyph glyph-name="braceright.case" horiz-adv-x="333" 
d="M17 -81q-17 0 -50 0.5t-49 0.5l6 22q50 0 89.5 22.5t48.5 60.5q9 32 -4.5 106.5t-5.5 103.5q13 50 64 82t116 46q-57 14 -91 46t-21 82q9 33 62 106t61 104q10 38 -16.5 60.5t-77.5 22.5l6 22q26 1 99 1q64 0 98 -33.5t20 -87.5q-8 -28 -52 -105t-55 -118
q-10 -38 3.5 -61.5t43.5 -28.5l-6 -20q-72 -10 -94 -86q-10 -40 -8 -119t-6 -108q-15 -54 -66.5 -87.5t-114.5 -33.5z" />
    <glyph glyph-name="bracketleft.case" horiz-adv-x="325" 
d="M-42 -90l238 888h264l-4 -17q-37 -8 -55.5 -13t-37.5 -15.5t-26 -16.5t-17.5 -27t-15 -37t-14.5 -55l-141 -526q-10 -38 -14.5 -54.5t-5.5 -37t3 -27.5t17 -17t29.5 -15t48.5 -13l-5 -17h-264z" />
    <glyph glyph-name="bracketright.case" horiz-adv-x="325" 
d="M182 -90h-264l4 17q96 21 118.5 44t47.5 120l141 526q8 30 11.5 42.5t6.5 32t2.5 26t-4.5 17.5t-10 14.5t-19 10.5t-27 11t-38 10l5 17h264z" />
    <glyph glyph-name="space.001" horiz-adv-x="220" 
 />
    <glyph glyph-name="newGlyph" horiz-adv-x="590" 
 />
    <glyph glyph-name="newGlyph.001" horiz-adv-x="590" 
 />
    <glyph glyph-name="bdpq" horiz-adv-x="605" 
d="M393 -6q-60 0 -108.5 35.5t-61.5 98.5v5q37 -33 78 -33q86 0 86 151q0 177 -90 177q-38 0 -83 -32l-3 -1q27 67 76 96.5t98 29.5q81 0 143 -70t62 -200q0 -124 -57 -190.5t-140 -66.5z" />
    <glyph glyph-name="newGlyph.002" horiz-adv-x="590" 
 />
    <glyph glyph-name="newGlyph.003" horiz-adv-x="590" 
 />
    <glyph glyph-name="newGlyph.004" horiz-adv-x="590" 
 />
    <glyph glyph-name="newGlyph.005" horiz-adv-x="590" 
 />
    </font>
</defs>
</svg>
