<?xml version="1.0" standalone="no"?>
<!DOCTYPE svg PUBLIC "-//W3C//DTD SVG 1.1//EN" "http://www.w3.org/Graphics/SVG/1.1/DTD/svg11.dtd" >
<svg xmlns="http://www.w3.org/2000/svg" xmlns:xlink="http://www.w3.org/1999/xlink" version="1.1">
<metadata>
Created by FontForge 20170731 at Thu Oct  1 08:29:19 2020
 By Aleksey,,,
Copyright (c) 2020 by Tom Anders Watkins &#38; Ellen Luff. All rights reserved.
</metadata>
<defs>
<font id="Larken-ExtraBoldItalic" horiz-adv-x="0" >
  <font-face 
    font-family="Larken-ExtraBoldItalic"
    font-weight="400"
    font-style="italic"
    font-stretch="normal"
    units-per-em="1000"
    panose-1="0 0 9 0 0 0 0 0 0 0"
    ascent="793"
    descent="-207"
    x-height="507"
    cap-height="720"
    bbox="-508 -355 1292.19 1076"
    underline-thickness="50"
    underline-position="-150"
    slope="-15"
    unicode-range="U+0020-FB01"
  />
<missing-glyph horiz-adv-x="510" 
d="M95 -200v1020h323v-1020h-323zM340 9v115h-170v-115h170zM170 -14v-34h72l-72 -48v-34h170v34h-104l71 48h33v34h-170zM340 186v115h-102v-57h34v23h34v-48h-102v82h-34v-115h170zM170 620v-106h170v35h-68v71h-102zM340 647v33h-68v38h68v34h-169v-34h67v-38h-68v-33
h170zM170 415v-34h102v72h68v33h-170v-33h68v-38h-68zM306 358h-136v-35h170v102h-34v-67zM204 91h102v-48h-102v48zM204 585h34v-36h-34v36z" />
    <glyph glyph-name="fi" unicode="fi" horiz-adv-x="704" 
d="M663 172l11 -4q-30 -78 -82 -127t-114 -49q-60 0 -78.5 47t4.5 118l53 186q15 52 17 117h-163l-104 -389q-37 -139 -132.5 -204.5t-217.5 -55.5q74 44 117.5 105t69.5 155l103 389h-77l13 47h77l8 31q15 56 47.5 97t74 62.5t81.5 31.5t80 10q41 0 97.5 -9t92.5 -21
l-38 -140h-5q-24 48 -60.5 86.5t-76.5 38.5q-86 0 -130 -164l-7 -23h340l-102 -363q-11 -42 13 -39q32 3 84 62q2 2 4 5z" />
    <glyph glyph-name="fl" unicode="fl" horiz-adv-x="777" 
d="M636 144q-12 -44 14 -40q34 7 86 68l11 -4q-30 -77 -83 -126.5t-115 -49.5q-59 0 -77.5 41.5t-1.5 100.5l138 505q-53 57 -128 57q-105 0 -149 -166l-7 -23h145l-12 -47h-146l-104 -389q-37 -139 -132.5 -204.5t-217.5 -55.5q74 44 117.5 105t69.5 155l103 389h-77l13 47
h77l8 31q15 56 48 97t75.5 62.5t86 31.5t89.5 10q91 0 178 -29l153 39z" />
    <glyph glyph-name=".notdef" horiz-adv-x="510" 
d="M95 -200v1020h323v-1020h-323zM340 9v115h-170v-115h170zM170 -14v-34h72l-72 -48v-34h170v34h-104l71 48h33v34h-170zM340 186v115h-102v-57h34v23h34v-48h-102v82h-34v-115h170zM170 620v-106h170v35h-68v71h-102zM340 647v33h-68v38h68v34h-169v-34h67v-38h-68v-33
h170zM170 415v-34h102v72h68v33h-170v-33h68v-38h-68zM306 358h-136v-35h170v102h-34v-67zM204 91h102v-48h-102v48zM204 585h34v-36h-34v36z" />
    <glyph glyph-name=".null" 
 />
    <glyph glyph-name="uni000D" horiz-adv-x="333" 
 />
    <glyph glyph-name="space" unicode=" " horiz-adv-x="228" 
 />
    <glyph glyph-name="exclam" unicode="!" horiz-adv-x="294" 
d="M136 256q3 50 7.5 146t9.5 172.5t14 145.5h211q-37 -91 -122.5 -267.5t-94.5 -196.5h-25zM21 86q10 41 41.5 68t65.5 27q1 0 19 -0.5t33 -24t15 -46.5q0 -13 -7 -41t-38 -54.5t-65 -26.5h-3q-35 1 -50 24t-15 46q0 13 4 28z" />
    <glyph glyph-name="quotedbl" unicode="&#x22;" horiz-adv-x="436" 
d="M351 535q1 66 2.5 114t6.5 71h145q-8 -24 -31.5 -71t-59.5 -115t-51 -97h-14q1 32 2 98zM171 437q1 28 1.5 97t2.5 115.5t7 70.5h144q-8 -23 -32 -71t-58.5 -114t-50.5 -98h-14z" />
    <glyph glyph-name="numbersign" unicode="#" horiz-adv-x="627" 
d="M29 263h127l89 194h-139l11 40h146l101 223h44l-101 -223h195l100 223h44l-100 -223h121l-12 -40h-127l-89 -194h139l-11 -40h-146l-101 -223h-44l101 223h-195l-100 -223h-44l100 223h-120zM201 263h194l88 194h-194z" />
    <glyph glyph-name="dollar" unicode="$" horiz-adv-x="599" 
d="M-10 51l45 171h6q26 -36 37 -50.5t38.5 -46.5t53 -51t52.5 -29l66 246l-21 13q-98 61 -127.5 108.5t-29.5 91.5q0 28 9 59q24 79 96 123.5t187 45.5h4l23 86h44l-23 -87q99 -7 205 -49l-49 -177h-5q-7 9 -31 42t-40 52t-42.5 42.5t-52.5 33.5l-61 -224l27 -17
q90 -57 121.5 -107.5t31.5 -96.5q0 -27 -9 -57q-23 -79 -100 -132.5t-189 -54.5h-7l-25 -93h-43l25 95q-98 9 -216 63zM270 36q37 1 68 21t43 63q4 17 4 33q0 59 -61 111l-61 -228h7zM338 477l55 208h-8q-39 -2 -68.5 -24t-39.5 -57q-3 -12 -3 -25q0 -53 64 -102z" />
    <glyph glyph-name="percent" unicode="%" horiz-adv-x="770" 
d="M419 156q18 66 73 110.5t107 44.5q53 0 79 -36.5t26 -73.5q0 -21 -12.5 -66t-67.5 -90q-56 -45 -108 -45t-77.5 37t-25.5 75q0 21 6 44zM130 565q18 66 72.5 110.5t106.5 44.5q53 0 79 -36.5t26 -73.5q0 -21 -12.5 -66t-67.5 -90q-56 -45 -108 -45t-77.5 36.5t-25.5 73.5
q0 22 7 46zM44 0l674 720h56l-674 -720h-56zM502 68q3 -32 23 -32t40.5 31.5t36.5 88.5q12 44 12 73q0 8 -2.5 27.5t-22.5 19.5t-40.5 -32t-34 -82t-13.5 -79q0 -8 1 -15zM212 477q3 -33 23 -33q21 0 41.5 32t35.5 89q12 45 12 75q0 7 -2 26t-22 19t-40.5 -32t-34 -83.5
t-13.5 -81.5v-11z" />
    <glyph glyph-name="ampersand" unicode="&#x26;" horiz-adv-x="721" 
d="M11 189q20 69 71 106t130 66q-14 21 -21 33t-17.5 34.5t-14.5 40t-4 41t6 46.5q23 88 100.5 131t171.5 43q97 0 139 -38t42 -84q0 -17 -5 -36q-16 -59 -66.5 -96t-143.5 -71l105 -175l10 13q9 13 14 21q11 18 14.5 37.5t3.5 32.5q0 3 -0.5 12t-3.5 24l-2 14l1 2h149
l-1 -2q-66 -48 -122 -123q-20 -29 -45 -61q29 -47 44.5 -62t32.5 -18q8 -3 17 -3q23 0 52 17q-19 -70 -60.5 -106.5t-93.5 -36.5q-46 0 -81 29q-25 22 -42 49q-107 -80 -212 -80q-86 0 -130.5 48t-44.5 101q0 24 7 51zM185 110q22 -41 80 -41q51 0 103 35l-125 207
q-50 -47 -64 -100q-7 -26 -7 -48q0 -30 13 -53zM325 550q9 -33 19 -51.5t34 -59.5q74 56 94 133q8 22 8 43q0 16 -8.5 42t-49.5 26q-35 0 -63 -23t-37 -54q-2 -10 -2 -20q0 -17 5 -36z" />
    <glyph glyph-name="quotesingle" unicode="'" horiz-adv-x="244" 
d="M161 437q1 28 1.5 97t2.5 115.5t7 70.5h144q-8 -23 -32 -71t-58.5 -114t-50.5 -98h-14z" />
    <glyph glyph-name="parenleft" unicode="(" horiz-adv-x="316" 
d="M63 292q22 84 67.5 162.5t98.5 135.5t104 96.5t94 60.5l6 -9q-85 -73 -146 -200.5t-93 -245.5q-19 -71 -28.5 -133.5t-9.5 -120.5q0 -26 3.5 -84t35.5 -108l-11 -9q-33 21 -62 59.5t-52.5 98.5t-25 100.5t-1.5 48.5q0 67 20 148z" />
    <glyph glyph-name="parenright" unicode=")" horiz-adv-x="315" 
d="M49 46q61 126 94 246q19 72 28 133.5t9 118.5q0 27 -3.5 85.5t-34.5 108.5l11 9q45 -29 81 -88.5t48 -124t12 -100.5q0 -67 -21 -142q-22 -84 -67 -162.5t-98.5 -135.5t-104.5 -96.5t-94 -60.5l-7 9q85 73 147 200z" />
    <glyph glyph-name="asterisk" unicode="*" horiz-adv-x="333" 
d="M224 604q-49 22 -75 27l55 68q11 -23 48 -64q5 41 5 69q0 12 -1 22h75q-17 -28 -45 -91q50 33 82 64l19 -68q-27 -5 -90 -27q42 -19 76 -27l-55 -68q-12 20 -48 63q-4 -43 -4 -72v-18h-76q20 31 44 90q-52 -36 -81 -63l-19 68q37 7 90 27z" />
    <glyph glyph-name="plus" unicode="+" horiz-adv-x="569" 
d="M67 309l12 44h89q63 0 81 2t27 9t15.5 25t23.5 86l26 97h46l-26 -98q-18 -69 -20.5 -82.5t-2.5 -19.5t2 -9q5 -7 21.5 -8.5t81.5 -1.5h101l-13 -44h-99q-64 0 -82 -2t-27 -9q-8 -7 -14 -24t-25 -87l-26 -97h-46l27 97q18 72 20 82.5t2 16.5q0 7 -2 12q-5 7 -22 9t-81 2
h-89z" />
    <glyph glyph-name="comma" unicode="," horiz-adv-x="266" 
d="M-39 -137q45 24 72.5 60t34.5 67h-5q-38 0 -53 22.5t-15 46.5q0 14 4 30q10 41 40.5 66t64.5 25h3q40 -1 54 -28t14 -54q0 -20 -5 -43q-15 -64 -62 -119t-111 -73h-36z" />
    <glyph glyph-name="hyphen" unicode="-" horiz-adv-x="477" 
d="M52 277l12 47h381l-13 -47h-380z" />
    <glyph glyph-name="period" unicode="." horiz-adv-x="257" 
d="M-1 85q10 42 41 68.5t65 26.5q1 0 19 -0.5t33 -23.5t15 -46q0 -13 -7 -41t-38 -55q-31 -26 -65 -26q-1 0 -19 0.5t-33 23t-15 45.5q0 13 4 28z" />
    <glyph glyph-name="slash" unicode="/" horiz-adv-x="357" 
d="M-48 -17l463 749h46l-463 -749h-46z" />
    <glyph glyph-name="zero" unicode="0" horiz-adv-x="658" 
d="M68 392q38 142 147 238.5t233 96.5q128 0 175 -83.5t47 -165.5q0 -66 -22 -147q-37 -143 -147 -240t-233 -97q-129 0 -175.5 83.5t-46.5 165.5q0 67 22 149zM272 41q101 0 188 322q39 145 39 223q0 93 -55 93q-101 0 -187 -319q-41 -147 -41 -226q0 -93 56 -93z" />
    <glyph glyph-name="one" unicode="1" horiz-adv-x="367" 
d="M29 0l1 4l14 26q15 27 31.5 64.5t25.5 69.5l110 415h-116l7 27q208 59 328 138l-156 -580q-7 -25 -10.5 -54.5t-4 -49.5t-0.5 -37v-19l-1 -4h-229z" />
    <glyph glyph-name="two" unicode="2" horiz-adv-x="572" 
d="M-46 1q200 202 311 344t140 247q4 19 5 30.5t1 13.5q0 18 -11.5 32.5t-36.5 14.5q-83 0 -237 -199h-4l12 191q158 55 253 55q101 0 153 -42.5t52 -97.5q0 -21 -6 -45q-31 -116 -210 -243l-235 -167h175q118 0 212 69l3 -1l-84 -202h-493z" />
    <glyph glyph-name="three" unicode="3" horiz-adv-x="545" 
d="M58 226h6l12 -51q4 -17 12 -44.5t15 -41.5t18 -29t24.5 -21.5t30.5 -6.5q40 0 70 36t46 95q8 30 8 58q0 33 -17 75t-84 63l1 8q77 22 127 72.5t69 118.5q9 29 9 55q0 18 -8 46.5t-47 28.5q-44 0 -90 -46t-120 -144h-6l14 193q115 40 229 40q104 0 154.5 -45.5t50.5 -99.5
q0 -24 -8 -51q-21 -72 -88 -120.5t-162 -51.5q97 -2 130.5 -49t33.5 -93q0 -27 -8 -56q-15 -51 -51 -88t-81.5 -55t-87 -26t-81.5 -8q-56 0 -117 13t-97 28z" />
    <glyph glyph-name="four" unicode="4" horiz-adv-x="575" 
d="M448 720h144l-134 -502h95l-12 -47h-96l-2 -7q-7 -25 -10.5 -55t-4.5 -51t-1 -39v-19h-224q1 1 10 19l20 39q10 21 22 51t19 55l2 7h-289zM289 218l99 368l-312 -368h213z" />
    <glyph glyph-name="five" unicode="5" horiz-adv-x="531" 
d="M-32 38l66 187h5q21 -84 57 -138.5t78 -54.5q36 0 69 39.5t55 118.5q12 41 12 74q0 30 -14.5 68t-77.5 41h-12q-61 0 -147 -37l137 384h251q95 0 174 29l-83 -181h-346l-61 -170q100 52 193 52q113 0 145 -55t32 -106q0 -36 -11 -77q-28 -107 -110 -165.5t-200 -58.5
q-125 0 -212 50z" />
    <glyph glyph-name="six" unicode="6" horiz-adv-x="613" 
d="M64 385q39 149 142 247t231 98q106 0 221 -49l-78 -187l-6 -1q-61 193 -141 193q-51 0 -91.5 -76t-80.5 -224q76 62 172 62q95 0 127 -50.5t32 -100.5q0 -29 -9 -63q-29 -109 -118.5 -177.5t-200.5 -68.5q-128 0 -174.5 86t-46.5 168q0 65 21 143zM216 78
q3 -23 14.5 -34.5t29.5 -11.5q38 0 73.5 44.5t54.5 113.5q12 47 12.5 69t0.5 24q0 39 -16 68t-52 29q-40 0 -83 -36q-11 -44 -18 -79t-13 -72.5t-6.5 -53t-0.5 -18.5q0 -23 4 -43z" />
    <glyph glyph-name="seven" unicode="7" horiz-adv-x="537" 
d="M12 0q13 32 200 253t277 315h-204q-87 0 -197 -52h-4l119 204h450q-112 -146 -202 -297t-144 -268q-15 -32 -30.5 -70t-24 -60t-9.5 -25h-231z" />
    <glyph glyph-name="eight" unicode="8" horiz-adv-x="597" 
d="M8 185q14 53 66.5 90.5t117.5 52.5q-52 34 -67.5 74.5t-15.5 73.5q0 34 11 73q26 83 102 131.5t185 48.5q107 0 162 -43.5t55 -97.5q0 -19 -6 -40q-26 -95 -163 -139q104 -67 104 -169q0 -28 -8 -60q-26 -97 -112 -144t-193 -47q-113 0 -178 47t-65 109q0 19 5 40z
M157 80q27 -46 88 -46q50 0 85.5 28t47.5 72q3 13 3 25q0 35 -32 69t-108 71l-7 4q-70 -49 -88 -118q-6 -23 -6 -43q0 -34 17 -62zM324 482q21 -14 86 -46q60 44 78 111q7 27 7 50q0 27 -14 57t-72 30q-48 0 -83 -25.5t-48 -69.5q-4 -14 -4 -26q0 -47 50 -81z" />
    <glyph glyph-name="nine" unicode="9" horiz-adv-x="613" 
d="M10 37l79 187l5 1q63 -193 141 -193q52 0 92 75.5t80 224.5q-76 -62 -171 -62t-127.5 51t-32.5 100q0 30 9 63q30 109 119.5 177.5t199.5 68.5q128 0 175 -86t47 -168q0 -65 -21 -143q-40 -149 -143 -247t-231 -98q-106 0 -221 49zM271 401q4 -28 20.5 -45t43.5 -17
q41 0 83 35q17 67 26 117t11 78.5t2 37.5q0 34 -11 56.5t-38 22.5q-38 0 -73.5 -44t-53.5 -113q-9 -35 -11 -57.5t-2 -33.5q0 -19 3 -37z" />
    <glyph glyph-name="colon" unicode=":" horiz-adv-x="254" 
d="M86 412q10 42 40.5 68.5t64.5 26.5h3q35 -1 49.5 -24t14.5 -46q0 -13 -7 -41t-37.5 -54.5t-64.5 -26.5h-3q-35 1 -49.5 23.5t-14.5 45.5q0 13 4 28zM-2 85q10 42 40.5 68.5t64.5 26.5h3q35 -1 49.5 -24t14.5 -46q0 -13 -7 -41t-37.5 -54.5t-64.5 -26.5h-3
q-35 1 -49.5 23.5t-14.5 45.5q0 13 4 28z" />
    <glyph glyph-name="semicolon" unicode=";" horiz-adv-x="268" 
d="M35 -78q27 36 35 68h-5q-38 0 -53 22.5t-15 46.5q0 14 4 30q10 41 40.5 66t64.5 25h3q39 -1 53.5 -27.5t14.5 -53.5q0 -20 -6 -44q-14 -64 -61 -119t-111 -73h-36q45 24 72 59zM86 412q10 41 41 68t65 27q1 0 19 -0.5t32.5 -23.5t14.5 -48q0 -12 -3 -26q-10 -41 -41 -68
q-31 -26 -65 -26q-1 0 -19 0.5t-33 23t-15 45.5q0 13 4 28z" />
    <glyph glyph-name="less" unicode="&#x3c;" horiz-adv-x="464" 
d="M369 94l-299 223l9 34l418 223l-15 -54l-346 -186l248 -186z" />
    <glyph glyph-name="equal" unicode="=" horiz-adv-x="553" 
d="M88 391l13 47h450l-13 -47h-450zM43 224l13 47h450l-13 -47h-450z" />
    <glyph glyph-name="greater" unicode="&#x3e;" horiz-adv-x="465" 
d="M11 94l14 54l347 186l-247 186l15 54l299 -223l-10 -34z" />
    <glyph glyph-name="question" unicode="?" horiz-adv-x="541" 
d="M149 674q137 56 246 56q98 0 145.5 -42t47.5 -92q0 -19 -6 -41t-18 -41.5t-23 -33t-30.5 -29t-30 -22.5t-32.5 -20l-28 -17q-118 -71 -146 -136h-31q-1 7 -1 15q0 70 60 145q8 10 44 47.5t53 64t26 59.5q3 12 3.5 21.5t0.5 14.5q0 10 -1.5 24t-14 25t-34.5 11
q-82 0 -234 -198h-5zM139 86q10 42 41 68.5t65 26.5h3q35 0 50 -23.5t15 -46.5q0 -13 -7 -41t-38 -54.5t-65 -26.5h-3q-35 1 -50 23.5t-15 45.5q0 13 4 28z" />
    <glyph glyph-name="at" unicode="@" horiz-adv-x="905" 
d="M79 336q0 171 116 292t290 121q116 0 210.5 -52t141 -133.5t46.5 -166.5q0 -17 -2 -34q-11 -118 -69.5 -183.5t-163.5 -65.5q-76 0 -115 32t-39 80q0 7 1 14q-72 -101 -149 -101q-66 0 -78.5 47.5t-12.5 73.5q0 56 28 128q38 95 93.5 133t110.5 39q72 0 97 -48
q53 16 105 43h17l-75 -280q-6 -25 -6 -43q0 -26 16.5 -44t51.5 -18q54 0 91.5 48t47.5 144q2 17 2 34q0 120 -95.5 214.5t-253.5 94.5q-156 0 -256 -107.5t-100 -261.5q0 -153 89.5 -250.5t260.5 -97.5q86 0 166 40l8 -47q-79 -37 -174 -37q-190 0 -295 111t-105 281z
M394 230q6 -13 22 -13q26 1 56 36t53 103l37 129q-5 29 -33 31q-31 0 -60 -40t-48 -92q-13 -35 -21 -64.5t-9.5 -44.5t-1.5 -20q0 -15 5 -25z" />
    <glyph glyph-name="A" unicode="A" horiz-adv-x="683" 
d="M-58 4q71 89 152 223l217 357q7 12 12.5 25.5t8 26t4 24t2 19t0.5 11.5t-0.5 9.5t-1.5 10.5v6l1 4h189l48 -549q10 -107 34 -167l-1 -4h-251l1 4q0 1 9.5 20t18 40t14 48t5.5 47v12l-6 73h-239l-23 -40q-15 -25 -24 -53t-11.5 -52.5t-2.5 -43.5t1 -34t1 -16l-1 -5h-158z
M189 291h205l-26 297z" />
    <glyph glyph-name="B" unicode="B" horiz-adv-x="648" 
d="M-26 0l1 4l15 26q14 27 30.5 64.5t24.5 69.5l104 392q8 32 11.5 69.5t4 63.5t0.5 27l2 4h331q93 0 136 -46.5t43 -97.5q0 -22 -7 -47q-31 -116 -183 -162q69 -18 99 -56.5t30 -81.5q0 -23 -7 -50q-23 -85 -103 -132t-185 -47h-347zM274 46q114 0 153 142q9 42 9 76
t-21.5 55.5t-62.5 21.5l-86 -1l-78 -294h86zM279 386h71q47 1 83.5 45.5t51.5 99.5q7 33 7.5 50t0.5 19q0 29 -16.5 51.5t-48.5 22.5h-73z" />
    <glyph glyph-name="C" unicode="C" horiz-adv-x="644" 
d="M65 364q45 169 157 267.5t268 98.5q88 0 225 -41l-53 -200h-6q-12 35 -27.5 66t-36.5 62.5t-48 50t-56 18.5q-67 0 -129 -89t-100 -232q-25 -87 -25 -163q0 -34 10.5 -101.5t74.5 -67.5q94 0 274 207h6l-54 -201q-134 -51 -241 -51q-147 0 -201.5 85t-54.5 171
q0 56 17 120z" />
    <glyph glyph-name="D" unicode="D" horiz-adv-x="704" 
d="M-18 16q7 13 14.5 28t16.5 34.5t18 42.5t14 43l104 392q7 25 10.5 54.5t4.5 49.5t1 38v18l1 4h290q93 0 157.5 -45.5t80.5 -106t16 -102.5q0 -58 -18 -128q-41 -153 -163.5 -245.5t-265.5 -92.5h-290zM225 44q99 0 170.5 90.5t107.5 223.5q16 62 18.5 97.5t2.5 50.5
q0 37 -8 76.5t-39 67t-82 27.5h-39l-169 -633h38z" />
    <glyph glyph-name="E" unicode="E" horiz-adv-x="590" 
d="M-27 0l1 4l14 26q15 27 31.5 64.5t24.5 69.5l104 392q9 32 12.5 69.5t4 63.5t0.5 27l1 4h508l-53 -196h-4q-1 0 -23 39.5t-58.5 76t-75.5 36.5h-105l-77 -289h31q30 0 67.5 8.5t64 18.5t49 19.5t24.5 9.5h4l-40 -150h-5l-27 15q-26 14 -67.5 27.5t-80.5 13.5h-30
l-82 -305h109q39 0 95 37t98.5 76.5t43.5 39.5h5l-53 -197h-511z" />
    <glyph glyph-name="F" unicode="F" horiz-adv-x="567" 
d="M-27 0l1 4l14 26q15 27 31.5 64.5t25.5 69.5l104 392q7 25 10.5 54.5t4.5 49.5t1 38v18l1 4h494l-49 -183h-5q-1 0 -23.5 36t-59.5 69.5t-76 33.5h-96l-71 -286h23q37 3 82 16.5t76.5 27t32.5 13.5h5l-41 -151h-4q-1 0 -26 12.5t-63 26t-73 17.5h-22l-95 -352h-202z" />
    <glyph glyph-name="G" unicode="G" horiz-adv-x="708" 
d="M65 367q44 166 157.5 264.5t257.5 98.5q130 0 251 -56l-53 -197h-8q-1 2 -8.5 22.5t-14 35.5t-18 39t-25 41t-31 34.5t-39.5 27t-47 9.5h-3q-66 0 -124.5 -81.5t-100.5 -237.5q-28 -101 -28 -177q0 -33 11.5 -94t85.5 -61q46 0 103 24l38 144q5 24 5 45q0 14 -4 35.5
t-14 50.5l-11 29l1 4h257l-1 -4q-38 -75 -60 -160l-37 -138q-49 -27 -137 -51.5t-164 -24.5q-146 0 -201 86t-55 173q0 55 17 119z" />
    <glyph glyph-name="H" unicode="H" horiz-adv-x="710" 
d="M-26 4l14 26q15 27 31.5 64.5t24.5 69.5l104 392q7 25 11 54.5t4.5 49.5t1 37.5t0.5 18.5l1 4h228l-1 -4l-13 -26q-14 -27 -30.5 -64.5t-26.5 -69.5l-51 -172h237l40 172q6 25 10 54.5t5 49.5t1.5 37.5t0.5 18.5l1 4h228l-1 -4l-14 -26q-15 -27 -31.5 -64.5t-24.5 -69.5
l-104 -392q-7 -25 -11 -54.5t-4.5 -49.5t-1 -37.5t-0.5 -18.5l-1 -4h-228l1 4l13 26q14 27 30.5 64.5t26.5 69.5l51 172h-237l-40 -172q-6 -25 -9.5 -54.5t-5 -49.5t-2 -37.5t-0.5 -18.5l-1 -4h-228z" />
    <glyph glyph-name="I" unicode="I" horiz-adv-x="312" 
d="M-26 0l1 4l7 12q7 12 14.5 27.5t17 35t18 42.5t13.5 43l105 392q9 32 12.5 69.5t4 63.5t0.5 27v4h228l-1 -4l-14 -26q-15 -27 -31.5 -64.5t-24.5 -69.5l-105 -392q-7 -25 -10.5 -54.5t-4.5 -49.5t-1 -37v-19l-1 -4h-228z" />
    <glyph glyph-name="J" unicode="J" horiz-adv-x="304" 
d="M-179 -199q82 51 136.5 129t86.5 199l116 427q7 25 10.5 54.5t4 49.5t0.5 38v18l1 4h219l-1 -4l-7 -12q-7 -13 -14.5 -28t-16.5 -34.5t-18 -42.5t-14 -43l-116 -428q-20 -73 -54 -131t-73 -93.5t-86 -59t-89 -33t-85 -10.5z" />
    <glyph glyph-name="K" unicode="K" horiz-adv-x="708" 
d="M-26 4l14 26q15 27 31.5 64.5t24.5 69.5l105 392q7 25 10.5 54.5t4.5 49.5t1 38v18l1 4h228l-1 -4l-15 -26q-14 -27 -30.5 -64.5t-24.5 -69.5l-104 -392q-7 -25 -11 -54.5t-4.5 -49.5t-0.5 -37v-19l-2 -4h-228zM288 367l222 174q97 75 97 175l1 5h208v-4
q-72 -44 -153 -109l-228 -188l130 -298q11 -26 27 -54t28 -45.5t12 -18.5l-1 -4h-249q0 1 1 15.5t1.5 26t0.5 15.5q0 15 -2.5 37t-9.5 42l-89 221v3q0 4 4 7z" />
    <glyph glyph-name="L" unicode="L" horiz-adv-x="553" 
d="M-25 0l1 4l14 26q15 27 31.5 64.5t25.5 69.5l104 392q7 25 10.5 54.5t4.5 49.5t1 38v18l1 4h229l-1 -4l-14 -26q-15 -27 -32 -64.5t-25 -69.5l-136 -512h83q39 0 96 40.5t102 83.5l44 44h4l-56 -212h-487z" />
    <glyph glyph-name="M" unicode="M" horiz-adv-x="866" 
d="M-25 6q1 1 16.5 26.5t33 56t37 74.5t29.5 80l85 312q7 25 8 47t1 35q0 12 -1 27.5t-3.5 33t-2.5 18.5l1 4h206l54 -486l304 486h207l-1 -4l-15 -26q-14 -27 -30.5 -64.5t-25.5 -69.5l-108 -392q-7 -25 -10.5 -54.5t-4 -49.5t-0.5 -37v-19l-1 -4h-230l1 4l14 26
q14 27 30.5 64.5t25.5 69.5l116 415l-362 -579h-53l-66 580l-90 -337q-13 -47 -14.5 -85t-1.5 -56q0 -32 3 -63.5t3 -32.5l-2 -6h-155z" />
    <glyph glyph-name="N" unicode="N" horiz-adv-x="699" 
d="M-38 0l2 6q1 1 16.5 26.5t33.5 56t37.5 74.5t29.5 80l82 307q9 33 9.5 55t0.5 27q0 32 -3 57.5t-3 26.5l1 4h184l200 -521l74 279q10 36 13.5 75t3.5 66q0 6 -0.5 24.5t-2 44t-1.5 26.5l1 6h155l-2 -6q-1 -2 -16.5 -27t-33.5 -55.5t-38 -74t-30 -79.5l-127 -478h-102
l-223 589l-94 -346q-10 -36 -12.5 -72.5t-2.5 -60.5q0 -11 1 -31.5t3 -45.5t2 -27l-1 -6h-157z" />
    <glyph glyph-name="O" unicode="O" horiz-adv-x="725" 
d="M66 366q42 168 156.5 266.5t253.5 98.5h8q143 -3 196 -86.5t53 -170.5q0 -55 -16 -119q-42 -168 -157.5 -267.5t-255.5 -99.5h-6q-143 2 -195.5 85.5t-52.5 170.5q0 56 16 122zM248 88q18 -56 62 -56q43 0 88 54.5t76.5 126.5t49.5 146q13 54 17.5 100t4.5 81
q0 16 -1.5 49t-20.5 64.5t-52 32.5h-2q-43 0 -87.5 -54t-75 -125.5t-49.5 -145.5q-18 -74 -21 -118t-3 -59q0 -53 14 -96z" />
    <glyph glyph-name="P" unicode="P" horiz-adv-x="623" 
d="M-26 4l14 26q15 27 31.5 64.5t24.5 69.5l104 392q7 25 10.5 54.5t4.5 49.5t1.5 37.5t0.5 18.5l1 4h331q100 0 138 -52.5t38 -107.5q0 -31 -9 -66q-20 -75 -71.5 -125.5t-112 -70.5t-129.5 -20l-103 1l-30 -115q-8 -32 -12 -69.5t-4.5 -63.5t-0.5 -27l-1 -4h-227zM331 327
q30 0 56 17t44.5 45.5t30 55.5t20.5 57q7 27 9 47t3 33q-1 14 -3 35t-19 38t-47 17h-72l-92 -345h70z" />
    <glyph glyph-name="Q" unicode="Q" horiz-adv-x="737" 
d="M66 366q42 168 156.5 266.5t253.5 98.5h8q143 -3 196 -86.5t53 -170.5q0 -55 -16 -119q-39 -154 -141.5 -252.5t-233.5 -112.5q30 -42 76 -55q23 -7 49 -7q71 0 169 51l2 -3l-108 -163h-15q-75 0 -132 28q-44 20 -66 58t-22 81v8q-142 4 -194 87t-52 169q0 56 17 122z
M248 88q18 -56 62 -56q43 0 88 54.5t76.5 126.5t49.5 146q13 54 17.5 100t4.5 81q0 16 -1.5 49t-20.5 64.5t-52 32.5h-2q-43 0 -87.5 -54t-75 -125.5t-49.5 -145.5q-18 -74 -21 -118t-3 -59q0 -53 14 -96z" />
    <glyph glyph-name="R" unicode="R" horiz-adv-x="692" 
d="M-27 0l1 4l14 26q15 27 31.5 64.5t24.5 69.5l105 392q7 25 10.5 54.5t4.5 49.5t1 38v18l1 4h336q101 0 138 -45.5t37 -96.5q0 -28 -9 -61q-19 -73 -85.5 -116.5t-163.5 -50.5q91 -21 113 -113q5 -23 13 -65.5t13 -65t16.5 -51.5t28.5 -50l-1 -5h-185q-26 33 -45 181
q-10 73 -34.5 107.5t-50.5 44.5l-24 -2l-44 -167q-7 -25 -10.5 -54.5t-4.5 -49.5t-1 -37v-19l-1 -4h-229zM350 377q48 0 83 38t54 108q11 39 11 70q0 23 -10 55.5t-56 32.5h-75l-81 -304h74z" />
    <glyph glyph-name="S" unicode="S" horiz-adv-x="599" 
d="M35 222h6q3 -4 8 -11q27 -38 44.5 -59.5t48.5 -53.5t62 -47t62 -15h4q37 1 68 21t43 63q5 18 5 35q0 33 -23.5 69t-95.5 80q-98 61 -127.5 108.5t-29.5 91.5q0 28 9 59q24 79 96 123.5t187 45.5h13q111 0 240 -50l-49 -177h-5q-7 9 -29.5 40.5t-38.5 50t-40.5 42.5
t-51.5 35.5t-56 11.5q-39 -2 -68.5 -24t-39.5 -57q-4 -15 -4 -29q0 -31 26.5 -62.5t101.5 -78.5q90 -57 121.5 -107.5t31.5 -96.5q0 -27 -9 -57q-23 -79 -100 -132.5t-189 -54.5h-10q-114 0 -256 65z" />
    <glyph glyph-name="T" unicode="T" horiz-adv-x="639" 
d="M77 492l61 228h614l-61 -228h-5q-1 1 -13 30t-28 62t-44.5 60.5t-58.5 27.5h-22l-136 -508q-8 -32 -12 -69.5t-4.5 -63.5t-0.5 -27v-4h-229l1 4l15 26q14 27 30.5 64.5t24.5 69.5l136 508h-23q-39 0 -95.5 -43.5t-100.5 -90t-45 -46.5h-4z" />
    <glyph glyph-name="U" unicode="U" horiz-adv-x="681" 
d="M76 300l68 256q7 25 10.5 54.5t4.5 49.5t1.5 37.5t0.5 18.5l1 4h227l-1 -4l-14 -26q-15 -27 -31.5 -64.5t-24.5 -69.5l-73 -273q-15 -55 -15 -96t21.5 -82t89.5 -41q67 0 126.5 53t87.5 159l54 202q12 47 13.5 86t1.5 58q0 29 -2.5 60t-2.5 32l1 6h156l-1 -6
q-1 -1 -16.5 -26.5t-33.5 -56t-37.5 -74t-29.5 -79.5l-54 -203q-78 -287 -310 -287q-54 0 -99.5 15.5t-83 52t-43.5 76t-6 60.5q0 47 14 108z" />
    <glyph glyph-name="V" unicode="V" horiz-adv-x="709" 
d="M136 715l1 5h254l-1 -4q0 -1 -9.5 -20t-19 -40t-15 -48t-5.5 -47v-12l40 -438l246 405q15 25 25 53t13.5 52.5t4.5 40.5t1 27q0 5 -0.5 15t-0.5 11l2 5h151l-1 -4q-1 -2 -27 -37t-63.5 -88.5t-63.5 -97.5l-300 -493h-145l-53 549q-4 33 -12 72t-15 65.5t-7 28.5z" />
    <glyph glyph-name="W" unicode="W" horiz-adv-x="968" 
d="M135 720h252l-1 -4q0 -1 -5 -10.5t-11 -20.5t-12.5 -28t-12 -34t-8 -34.5t-2.5 -31.5v-9l19 -334l168 295l-4 53q-1 20 -4.5 41.5t-8 40.5t-8 33.5t-7.5 26.5l-3 11l2 5h252l-2 -5q-49 -88 -49 -160v-11l20 -345l183 317q12 21 21 45t13.5 44t7 40.5t3 33.5t0.5 25v12
l1 4h144l-1 -5l-14 -17q-13 -17 -27.5 -36.5t-34 -48t-33.5 -52.5l-323 -561h-95l-28 424l-241 -424h-84l-39 562q-4 53 -29 154z" />
    <glyph glyph-name="X" unicode="X" horiz-adv-x="670" 
d="M-54 0l1 5q1 2 20.5 18.5t47.5 41.5t47 46l218 228l-87 267q-7 21 -19.5 47t-22.5 43t-10 19l1 5h266l-1 -4q-24 -62 -24 -109q0 -25 6 -45l39 -115l102 103q14 14 25.5 30t18.5 31.5t11.5 29t6.5 27t3 22t1 16.5l1 9l2 5h171l-2 -5q-2 -2 -20 -18.5t-46 -42t-48 -45.5
l-209 -212l87 -260q8 -25 22.5 -57t24.5 -52.5t10 -22.5l-1 -5h-262l1 5q25 61 25 109q0 31 -10 56l-44 119l-128 -133q-18 -18 -30.5 -38.5t-17.5 -39.5t-7.5 -33.5t-3 -27t-0.5 -13.5l-1 -4h-164z" />
    <glyph glyph-name="Y" unicode="Y" horiz-adv-x="649" 
d="M137 720h259l-1 -4l-9 -19q-9 -19 -15.5 -38.5t-10.5 -42t-4 -35.5q0 -14 3 -27l44 -226l154 209q20 27 31.5 59.5t14 54.5t3.5 43l1 21l2 5h154l-1 -4q-1 -2 -22 -25.5t-50.5 -58t-49.5 -63.5l-216 -292l-31 -113q-7 -25 -10.5 -54.5t-4 -49.5t-0.5 -37v-19l-1 -4h-230
l1 4l14 26q15 27 31.5 64.5t24.5 69.5l30 113l-69 293q-6 29 -16.5 63t-19 57t-8.5 25z" />
    <glyph glyph-name="Z" unicode="Z" horiz-adv-x="602" 
d="M463 673h-104q-44 0 -100.5 -30t-98.5 -63l-41 -32h-6l47 172h551l-511 -673h109q35 0 78.5 19.5t75.5 42t58 43t28 21.5h6l-46 -173h-559z" />
    <glyph glyph-name="bracketleft" unicode="[" horiz-adv-x="310" 
d="M-55 -146l238 888h246l-4 -15q-36 -8 -53.5 -12.5t-36.5 -14t-25.5 -15.5t-16.5 -26t-14.5 -36t-14.5 -53l-146 -544q-10 -37 -14 -53t-4.5 -27t-0.5 -13q0 -16 3.5 -22t17 -15.5t29.5 -13.5l46 -12l-4 -16h-246z" />
    <glyph glyph-name="backslash" unicode="\" horiz-adv-x="418" 
d="M270 -17h-46l-91 749h45z" />
    <glyph glyph-name="bracketright" unicode="]" horiz-adv-x="309" 
d="M-95 -146l4 16q35 8 53 12t36.5 13.5t25.5 16t17 26t14.5 35.5t14.5 53l146 544q10 37 14 53.5t4.5 27t0.5 13.5q0 15 -3.5 21t-17.5 15.5t-29 14t-47 12.5l5 15h246l-238 -888h-246z" />
    <glyph glyph-name="asciicircum" unicode="^" horiz-adv-x="436" 
d="M141 560l-8 11l215 168l125 -168l-14 -11l-144 56z" />
    <glyph glyph-name="underscore" unicode="_" horiz-adv-x="564" 
d="M-31 -43l13 48h466l-13 -48h-466z" />
    <glyph glyph-name="a" unicode="a" horiz-adv-x="614" 
d="M40 301q25 62 58 106.5t68.5 66t66.5 30.5t61 9q43 0 75 -16t46 -43q70 21 133 53h22l-99 -368q-3 -11 -3 -19q0 -16 14 -16h3q32 4 85 63q1 2 3 4l11 -4q-31 -78 -84 -127t-115 -49q-54 0 -70 28t-16 59q0 16 3 34q-91 -123 -184 -123q-83 0 -98 59.5t-15 91.5
q0 71 35 161zM179 104q8 -17 28 -17q36 0 78 55t70 164h1l31 112q-7 38 -44 40q-38 0 -72 -49.5t-57 -112.5q-17 -44 -27.5 -80.5t-12.5 -55t-2 -24.5q0 -20 7 -32z" />
    <glyph glyph-name="b" unicode="b" horiz-adv-x="562" 
d="M34 164l103 382q7 28 11.5 59.5t5 52t1 38.5t0.5 19l1 4l190 1l-85 -328q89 121 182 121q82 0 97.5 -59t15.5 -92q0 -71 -35 -161q-24 -62 -58 -106.5t-69.5 -66t-65.5 -30.5t-57 -9q-68 1 -103 52l-192 -49h-9q40 69 67 172zM179 79q11 -32 43 -32q65 0 125 159
q17 44 26.5 80t12 55.5t2.5 26.5q0 19 -7.5 33t-27.5 14q-29 0 -63.5 -38t-62.5 -114z" />
    <glyph glyph-name="c" unicode="c" horiz-adv-x="500" 
d="M31 283q21 78 71 132t105 76t113 22q76 0 159 -45l-41 -160h-5q-2 6 -7 20.5t-8 23.5t-8.5 23.5t-10 24t-10.5 22t-12 20t-13 14.5t-15 10.5t-16 3.5q-37 0 -76 -57.5t-57 -129.5q-13 -45 -13 -82q0 -28 12.5 -66.5t69.5 -38.5q42 0 97.5 28t84.5 64l12 -4
q-42 -80 -114 -137.5t-155 -57.5q-98 0 -137.5 64.5t-39.5 130.5q0 45 14 99z" />
    <glyph glyph-name="d" unicode="d" horiz-adv-x="614" 
d="M40 301q24 62 58 106.5t68.5 66t64 30.5t56.5 9q72 -1 105 -63l31 115q9 32 13 69t4 56q0 2 -0.5 12.5t-0.5 19.5v4l195 23l-163 -610q-3 -11 -3 -19q0 -16 14 -16h3q32 4 85 63q1 2 3 4l11 -4q-31 -78 -84 -127t-115 -49q-54 0 -70 28.5t-16 59.5q0 16 3 34
q-89 -124 -184 -124q-83 0 -98 59.5t-15 91.5q0 71 35 161zM179 104q8 -17 28 -17q33 0 70.5 46.5t66.5 138.5l33 121q-6 48 -40 50q-34 0 -68 -45t-55 -102q-17 -44 -27.5 -80.5t-12.5 -55t-2 -24.5q0 -20 7 -32z" />
    <glyph glyph-name="e" unicode="e" horiz-adv-x="511" 
d="M28 273q18 63 52.5 111t77.5 75t87 40.5t87 13.5q81 0 122 -34.5t41 -75.5q0 -15 -4 -31q-17 -64 -93.5 -102t-187.5 -38h-23q-2 -17 -2 -32q0 -40 18 -72t66 -32q44 0 98 26t90 66l13 -4q-42 -79 -117 -137t-159 -58q-97 0 -138.5 64t-41.5 128q0 43 14 92zM302 307
q40 33 54 74q8 20 8 38q0 11 -5 31t-31 20q-38 0 -75 -56t-56 -129q-4 -14 -5 -22q69 10 110 44z" />
    <glyph glyph-name="f" unicode="f" horiz-adv-x="437" 
d="M-143 -189q74 44 117.5 105t69.5 155l103 389h-77l13 47h77l8 31q30 109 96 155t149 46q61 0 144 -30l-37 -140h-5q-4 7 -15.5 32t-18 36.5t-17 28t-22 23.5t-23.5 7q-16 0 -28.5 -10.5t-22 -33.5t-15.5 -43t-16 -56q-4 -15 -6 -23l-7 -23h145l-12 -47h-146l-104 -389
q-37 -139 -126 -200t-192 -61q-16 0 -32 1z" />
    <glyph glyph-name="g" unicode="g" horiz-adv-x="493" 
d="M-66 -80q12 36 50 66q-14 19 -14 47q0 15 4 32q25 88 134 115q-40 21 -53 57t-13 63q0 25 7 51q15 59 60.5 97t94.5 51.5t102 13.5q62 0 107 -24q67 103 158 103q13 0 27 -2l-55 -127l-4 -1q-27 20 -62 20q-20 0 -43 -7q30 -22 37.5 -50t7.5 -48q0 -25 -7 -54
q-16 -60 -62 -100t-95.5 -54t-102.5 -14q-41 0 -74 13q-40 -11 -50 -37q-1 -4 -1 -7q0 -10 12 -16.5t39 -6.5h146q73 0 103.5 -38t30.5 -77q0 -21 -6 -44q-40 -142 -291 -142q-31 0 -62.5 4.5t-68 15.5t-49.5 31.5t-13 38.5q0 14 6 30zM188 240q4 -45 35 -45t57 40.5
t41 97.5q12 39 12 74q0 11 -3 38t-35 27q-30 0 -55.5 -40t-40.5 -97q-12 -39 -12 -74q0 -11 1 -21zM33 -112q15 -43 104 -43q57 0 110.5 15.5t61.5 45.5q1 4 1 7q0 33 -75 33h-142q-37 0 -58 7q-8 -22 -8 -39q0 -14 6 -26z" />
    <glyph glyph-name="h" unicode="h" horiz-adv-x="644" 
d="M147 565q16 60 16 114q0 22 -3 43v4l199 23l-104 -390q98 154 205 154q61 0 85.5 -34.5t24.5 -70.5q0 -25 -8 -54l-61 -216q-3 -11 -3 -19q0 -14 13 -14h3q33 3 82 58l7 8l11 -4q-30 -77 -83 -126.5t-115 -49.5q-59 0 -74 31.5t-15 57.5q0 25 9 53l55 190q10 33 10 54
q0 34 -27 34q-35 0 -82 -56.5t-83 -167.5l-50 -187h-163z" />
    <glyph glyph-name="i" unicode="i" horiz-adv-x="333" 
d="M33 157l53 186q17 56 17 119q0 20 -2 41l1 4h191l-102 -363q-3 -13 -3 -22q0 -17 13 -17h3q32 3 84 62q2 2 4 5l11 -4q-30 -78 -82 -127t-114 -49q-60 0 -73.5 34t-13.5 60q0 32 13 71zM151 666q11 42 48 71t77 29t57 -24t17 -50q0 -12 -3 -26q-12 -42 -49 -71
q-37 -30 -76 -30t-56.5 24.5t-17.5 50.5q0 12 3 26z" />
    <glyph glyph-name="j" unicode="j" horiz-adv-x="277" 
d="M9 91l67 252q7 25 10.5 54.5t4.5 49.5t1 38v18l1 4h188l-112 -419q-36 -132 -122 -192.5t-184 -60.5q-12 0 -25 1l-4 6q129 82 175 249zM136 666q12 42 48.5 71t76.5 29t57.5 -24t17.5 -49q0 -13 -7.5 -41t-44.5 -57.5t-77 -29.5q-39 0 -56.5 24.5t-17.5 50.5q0 12 3 26z
" />
    <glyph glyph-name="k" unicode="k" horiz-adv-x="584" 
d="M-53 0l1 4l7 12q7 12 14.5 27.5t17 35t18.5 42.5t14 43l108 401q4 17 7 36t4.5 35t1.5 32v26q0 10 -0.5 18.5t-0.5 9.5v4l200 23l-157 -585q-7 -25 -11 -54.5t-4.5 -49.5t-0.5 -37v-19l-1 -4h-218zM222 263v2l133 98q22 16 36 35t19 36.5t6 27.5t1 18v10l-1 12l2 5h189
l-1 -5l-236 -184l51 -172q13 -38 33 -41h4q29 0 84 64l11 -4q-28 -78 -76.5 -126t-100.5 -48q-26 0 -45 12t-31 32.5t-20.5 43.5t-15.5 49l-3 12z" />
    <glyph glyph-name="l" unicode="l" horiz-adv-x="329" 
d="M22 134l116 431q16 61 16 158v3l195 23l-162 -605q-3 -13 -3 -22q0 -18 14 -18h2q32 3 84 63q2 2 4 5l11 -4q-30 -77 -83 -126.5t-115 -49.5q-41 0 -63 21t-23 39t-1 23q0 27 8 59z" />
    <glyph glyph-name="m" unicode="m" horiz-adv-x="938" 
d="M86 342q15 57 15 161l1 4h181l-39 -159q101 165 209 165q57 0 84 -33t27 -74q0 -15 -3 -33q91 140 192 140q61 0 85.5 -34.5t24.5 -70.5q0 -25 -8 -54l-60 -216q-3 -11 -3 -18q0 -15 13 -15h3q31 3 81 58q4 4 7 8l11 -4q-30 -77 -83 -126.5t-115 -49.5q-59 0 -74 31.5
t-15 57.5q0 25 9 53l55 190q10 33 10 54q0 34 -27 34q-31 0 -73.5 -49t-77.5 -147l-61 -215h-165l94 323q10 33 10 54q0 34 -27 34q-35 0 -83.5 -61.5t-83.5 -183.5l-41 -166h-165z" />
    <glyph glyph-name="n" unicode="n" horiz-adv-x="642" 
d="M86 342q15 57 15 161l1 4h181l-40 -162q103 168 214 168q62 0 86.5 -34.5t24.5 -70.5q0 -25 -8 -54l-62 -216q-3 -11 -3 -18q0 -15 14 -15h3q32 3 83 60l6 6l11 -4q-31 -78 -84 -127t-115 -49q-59 0 -73.5 31.5t-14.5 58.5q0 24 8 52l55 190q10 33 10 54q0 34 -27 34
q-36 0 -85.5 -62t-85.5 -183l-41 -166h-165z" />
    <glyph glyph-name="o" unicode="o" horiz-adv-x="535" 
d="M25 259q35 125 121.5 189.5t185.5 64.5q3 0 55.5 -1t94 -56t41.5 -117q0 -40 -13 -89q-35 -126 -121 -194t-182 -68h-6q-102 2 -146 60.5t-44 121.5q0 41 14 89zM176 71q8 -37 36 -37h2q19 0 37 18t35 58t26.5 66t25.5 77q24 67 24 136q0 3 -0.5 40.5t-39.5 38.5
q-14 0 -27 -8t-24.5 -26.5t-20.5 -34.5t-19.5 -47t-16 -47t-15.5 -49q-16 -51 -21.5 -87t-5.5 -57q0 -22 4 -41z" />
    <glyph glyph-name="p" unicode="p" horiz-adv-x="566" 
d="M-87 -200v4q0 1 6.5 11.5t14 24.5t17 32.5t18 40.5t13.5 42l101 378q8 28 12 59.5t5 52t1 38.5v19l1 4l190 1l-30 -117q89 123 183 123q82 0 98.5 -58t16.5 -92q0 -65 -30 -147q-20 -54 -47.5 -96t-54 -66.5t-56 -39.5t-52 -20t-43.5 -5q-70 1 -103 61l-65 -250h-196z
M227 59q35 0 69.5 48t61.5 122q14 36 22.5 67.5t10 48t1.5 22.5q0 19 -8 33.5t-28 14.5q-30 0 -66 -41t-64 -121l-40 -154q9 -38 41 -40z" />
    <glyph glyph-name="q" unicode="q" horiz-adv-x="564" 
d="M6 146q1 72 34 155q24 62 58 106.5t69 66t64 30.5t55 9q73 -1 107 -66l16 60h189l-2 -4q-1 -1 -9.5 -18t-19 -37.5t-22 -50t-18.5 -54.5l-102 -379q-7 -25 -10.5 -54.5t-4.5 -49.5t-1 -38v-18l-1 -4h-191l85 312q-91 -123 -185 -123q-53 0 -82 41t-29 107v9zM178 103
q8 -16 28 -16q36 0 78 55t70 164l24 88q-5 47 -41 49q-35 0 -69.5 -47t-59.5 -115q-15 -39 -24 -72t-11 -51t-2 -24q0 -19 7 -31z" />
    <glyph glyph-name="r" unicode="r" horiz-adv-x="451" 
d="M85 343q7 25 10.5 54.5t4.5 49.5t1 38v18l1 4h180l-42 -174q51 101 102.5 141t90.5 40q28 0 55 -14l-64 -174h-3q-25 42 -64 42h-4q-35 0 -77.5 -43t-73.5 -149l-43 -176h-166z" />
    <glyph glyph-name="s" unicode="s" horiz-adv-x="472" 
d="M31 188h5q24 -36 36 -52.5t37 -45t49.5 -41.5t51.5 -13h2q42 0 54 39q3 8 3 16q0 15 -10.5 33.5t-27.5 33t-53 40.5q-67 48 -91.5 84t-24.5 70q0 17 5 36q16 61 74.5 93t144.5 32t175 -35l-35 -143h-5q-32 56 -73.5 95t-85.5 39q-51 0 -56 -42v-5q0 -8 2.5 -17t15 -20.5
t20.5 -18t32 -23.5t36 -26q99 -73 99 -155q0 -20 -6 -41q-18 -64 -74 -98t-134 -34q-102 0 -209 48z" />
    <glyph glyph-name="t" unicode="t" horiz-adv-x="384" 
d="M47 158l81 302h-70l12 45q149 66 275 178l7 3l-48 -179h129l-12 -47h-129l-85 -308q-4 -14 -4 -23q0 -22 19 -22q20 1 50.5 23t59.5 58l11 -4q-31 -79 -90.5 -136t-122.5 -57q-58 0 -75 37t-17 69q0 28 9 61z" />
    <glyph glyph-name="u" unicode="u" horiz-adv-x="643" 
d="M32 153l54 189q16 55 16 111q0 24 -3 49v5h199l-94 -323q-10 -33 -10 -54q0 -34 27 -34q37 0 88.5 66t86.5 194l41 151h163l-100 -369q-3 -10 -3 -18q0 -16 14 -16h2q32 3 82 59q4 4 7 8l11 -4q-30 -77 -83 -126.5t-115 -49.5q-59 0 -73 31.5t-14 58.5q0 24 7 52l4 13
q-100 -152 -204 -152q-62 0 -86.5 34.5t-24.5 70.5q0 25 8 54z" />
    <glyph glyph-name="v" unicode="v" horiz-adv-x="541" 
d="M32 153l54 189q16 56 16 112q0 24 -3 49v4h199l-94 -323q-10 -33 -10.5 -47t-0.5 -15q0 -25 10 -41t31 -16q58 0 116.5 84t58.5 207v12q-1 64 -21 104l180 42q0 -50 -40 -161q-55 -161 -160.5 -260t-214.5 -99q-72 0 -100.5 35t-28.5 73q0 24 8 51z" />
    <glyph glyph-name="w" unicode="w" horiz-adv-x="845" 
d="M33 155l53 187q16 56 16 112q0 24 -3 49v4h199l-94 -321q-6 -25 -6 -42t8 -32.5t29 -15.5q36 0 85.5 65.5t84.5 191.5q13 52 13 103q0 24 -3 47v4h199l-94 -323q-10 -32 -10 -59q0 -14 5.5 -39.5t37.5 -25.5q60 0 110.5 85t50.5 201v22q-2 62 -21 104l180 42
q0 -50 -40 -157q-56 -164 -155.5 -263.5t-209.5 -99.5q-65 0 -96.5 32.5t-31.5 75.5q0 15 3 31q-105 -139 -212 -139q-60 0 -83.5 35t-23.5 70q0 26 9 56z" />
    <glyph glyph-name="x" unicode="x" horiz-adv-x="582" 
d="M53 183h2q24 -51 68 -51q51 0 98 72l-39 155q-6 23 -15 32t-20 9h-5q-28 -5 -80 -65l-11 3q28 79 77.5 127t102.5 48q43 0 67 -33.5t41 -98.5l11 -44q46 77 94.5 126.5t104.5 49.5q33 0 55 -20l-67 -174h-2q-24 51 -69 51q-56 0 -104 -82l35 -143q11 -41 36 -41q4 0 8 1
q27 5 78 64l11 -4q-28 -78 -77.5 -126t-101.5 -48q-22 0 -39.5 9.5t-28 21.5t-20 34t-13.5 35.5t-11 38.5l-6 25q-45 -74 -92 -120t-101 -46q-34 0 -54 20z" />
    <glyph glyph-name="y" unicode="y" horiz-adv-x="573" 
d="M0 -7h4q42 -90 120 -90q8 0 15 1q21 2 42 9v18q0 193 -20 405q-6 65 -36 65q-28 0 -86 -63l-11 3q34 77 86 124.5t105 47.5q44 0 65 -36.5t32 -117.5q18 -150 18 -301v-16q94 138 102 295v23q0 63 -14 115l183 41q-24 -135 -92.5 -277.5t-171.5 -257.5t-211 -150
q-59 -21 -115 -21q-49 0 -95 16z" />
    <glyph glyph-name="z" unicode="z" horiz-adv-x="491" 
d="M-2 -10q18 56 66 111.5t97 93t119.5 90.5t108.5 88q-47 -25 -90 -27h-4q-26 0 -66 10.5t-60 11.5h-8q-13 0 -27 -2.5t-25 -7.5t-21.5 -12t-16 -11.5t-11.5 -10.5l-6 -6h-6l23 75q20 65 49.5 92.5t80.5 27.5q29 0 73 -9.5t71.5 -15.5t55.5 -6q16 0 50 3t82 27
q-22 -58 -72 -113.5t-100 -92.5t-116.5 -85.5t-101.5 -80.5q31 15 67 15h9q27 -1 69.5 -12t63.5 -11q60 0 93 43h6l-21 -76q-7 -25 -13.5 -40.5t-20 -33t-36 -26t-53.5 -8.5q-34 0 -86.5 13t-104 13t-118.5 -27z" />
    <glyph glyph-name="braceleft" unicode="{" horiz-adv-x="323" 
d="M0 -29q8 29 52.5 108t55.5 119q5 17 5 31q0 47 -53 55l5 20q33 5 58.5 27.5t36.5 61.5q9 33 9 91q0 13 -0.5 30t-0.5 34q0 48 5 69q15 54 66 87.5t114 33.5q65 0 88 -1l-6 -20q-50 0 -89 -23t-49 -62q-3 -13 -3 -33q0 -29 6.5 -71.5t6.5 -71.5q0 -23 -4 -37
q-13 -49 -60 -80t-106 -45q52 -14 77.5 -40t25.5 -56q0 -14 -4 -29q-8 -31 -60.5 -106.5t-60.5 -106.5q-3 -11 -3 -20q0 -25 23.5 -45t73.5 -20l-6 -20q-14 0 -43 -0.5t-44 -0.5q-63 0 -91.5 28.5t-28.5 62.5q0 14 4 30z" />
    <glyph glyph-name="bar" unicode="|" horiz-adv-x="167" 
d="M-26 -70l230 860h46l-231 -860h-45z" />
    <glyph glyph-name="braceright" unicode="}" horiz-adv-x="323" 
d="M-91 -129q51 0 90 23t49 62q3 13 3 33q0 29 -6.5 72.5t-6.5 71.5q0 22 4 36q12 49 59 80t107 45q-52 14 -78 40.5t-26 56.5q0 13 4 28q9 33 61 107.5t60 105.5q3 11 3 21q0 25 -23 44.5t-74 19.5l6 20q24 1 88 1q63 0 91.5 -28.5t28.5 -62.5q0 -14 -4 -30
q-8 -29 -52 -106t-55 -118q-4 -17 -4 -31q0 -18 10 -35.5t41 -22.5l-6 -20q-72 -10 -94 -86q-8 -33 -8 -94v-27.5v-30.5q0 -52 -5 -75q-15 -54 -66.5 -87.5t-114.5 -33.5q-15 0 -44 0.5t-43 0.5z" />
    <glyph glyph-name="exclamdown" unicode="&#xa1;" horiz-adv-x="311" 
d="M112 -53q31 77 71 172.5t61 145.5h18q-3 -21 -23.5 -196.5t-35.5 -266.5h-148q25 69 57 145zM237 439q10 41 34 67.5t48 26.5h2q24 0 32 -21t8 -39q0 -17 -5 -37q-11 -42 -34.5 -68.5t-47.5 -26.5h-2q-24 1 -32 22t-8 39q0 17 5 37z" />
    <glyph glyph-name="cent" unicode="&#xa2;" horiz-adv-x="500" 
d="M31 283q21 78 71 132t105 76t113 22q17 0 25 -1l18 69h45l-20 -76q46 -12 91 -37l-41 -160h-5q-38 111 -61 139l-93 -351q42 4 93 31t79 61l12 -4q-35 -65 -90 -117.5t-121 -69.5l-24 -90h-45l22 82h-11q-98 0 -137.5 64.5t-39.5 130.5q0 45 14 99zM191 167q8 -50 44 -65
l98 368q-37 0 -76 -57.5t-57 -129.5q-12 -44 -12 -81q0 -18 3 -35z" />
    <glyph glyph-name="sterling" unicode="&#xa3;" horiz-adv-x="565" 
d="M-54 0q91 97 133 158.5t59 139.5h-73l11 42h65v11q0 26 -4 66t-5 54t-1 18q0 23 8 62q22 83 101.5 131t177.5 48q90 0 215 -54l-95 -193h-5q-8 30 -12 44t-13 43t-17.5 44.5t-21 34t-28 26.5t-33.5 8q-34 0 -56.5 -27t-31.5 -62q-10 -39 -10 -116v-15v-16q0 -74 -8 -107
h145l-11 -42h-149q-6 -12 -14 -24.5t-15.5 -22t-19.5 -22t-19.5 -20t-22.5 -20t-21.5 -18t-23.5 -19.5t-22 -18h170q124 0 215 73h4l-87 -207h-485z" />
    <glyph glyph-name="currency" unicode="&#xa4;" horiz-adv-x="565" 
d="M9 97l97 80q-18 36 -18 78q0 27 8 56q21 77 81 133l-53 77l38 31l53 -77q68 47 140 47q71 0 114 -48l97 79l20 -31l-96 -79q17 -35 17 -75q0 -27 -8 -57q-21 -74 -81 -133l54 -80l-37 -31l-54 80q-67 -48 -139 -48q-71 0 -114 45l-98 -78zM178 211q27 -43 82 -43
q53 0 103.5 42.5t65.5 100.5q6 21 6 40q0 33 -23 67.5t-76 34.5q-54 0 -104.5 -42.5t-65.5 -99.5q-6 -21 -6 -40q0 -33 18 -60z" />
    <glyph glyph-name="yen" unicode="&#xa5;" horiz-adv-x="649" 
d="M66 169l12 42h152l18 66l-1 5h-150l11 42h129l-58 246q-6 29 -16.5 63t-19 57t-8.5 25l2 5h259l-1 -4l-9 -19q-9 -19 -15.5 -38.5t-10.5 -42t-4 -35.5q0 -14 3 -27l44 -226l154 209q20 27 31.5 59.5t14 54.5t3.5 43l1 21l2 5h154l-1 -4q-1 -2 -22 -25.5t-50.5 -58
t-49.5 -63.5l-181 -245h147l-11 -42h-167l-4 -5l-18 -66h170l-11 -42h-171l-1 -5q-7 -25 -10.5 -54.5t-4 -49.5t-0.5 -37v-19l-1 -4h-230l1 4l14 26q15 27 31.5 64.5t24.5 69.5l1 5h-153z" />
    <glyph glyph-name="brokenbar" unicode="&#xa6;" horiz-adv-x="173" 
d="M107 415l82 305h45l-82 -305h-45zM-4 0l82 306h45l-82 -306h-45z" />
    <glyph glyph-name="section" unicode="&#xa7;" horiz-adv-x="446" 
d="M-6 50q3 -4 18.5 -26t22.5 -31t23 -27t28 -26.5t28.5 -16t32.5 -7.5q26 0 49 16t31 46q3 11 3 21q0 23 -20.5 42.5t-77.5 45.5q-57 25 -79.5 52t-22.5 57q0 17 5 36q11 44 47 81t89 55q-70 39 -70 98q0 15 4 31q17 62 77 106t145 44q72 0 154 -34l-34 -125q-7 8 -39 50
t-55 59.5t-51 17.5t-49.5 -16.5t-27.5 -40.5q-2 -8 -2 -15t3 -16.5t21 -22.5t27.5 -18.5t39.5 -19.5q5 -3 8.5 -4.5t7.5 -3.5q92 -49 92 -125q0 -18 -5 -38q-24 -89 -118 -128q53 -41 53 -98q0 -19 -6 -39q-19 -72 -82 -110.5t-140 -38.5q-81 0 -164 41zM155 263q5 -8 7 -12
t10.5 -10.5t13.5 -10t16 -9t17.5 -9t18.5 -9t19 -9.5q32 16 42 51q3 10 3 19q0 22 -18.5 40.5t-69.5 42.5q-22 -5 -38.5 -21t-21.5 -35q0 -9 -1.5 -13t-1.5 -6q0 -4 4 -9z" />
    <glyph glyph-name="copyright" unicode="&#xa9;" horiz-adv-x="473" 
d="M112 535q18 81 86 138t145 57q78 0 113.5 -48.5t35.5 -100.5q0 -22 -5 -46q-19 -81 -86 -138q-68 -57 -146 -57t-113.5 48t-35.5 99q0 23 6 48zM159 416q35 -50 103 -50q67 0 124.5 50t73.5 120q5 23 5 43q0 45 -29 86t-94 41h-3q-67 0 -124.5 -50t-74.5 -120
q-5 -22 -5 -42q0 -44 24 -78zM208 536q10 44 42.5 71.5t72.5 27.5q25 0 63 -10l-13 -57q0 -2 -2 -2t-3 2q-4 18 -16 32t-28 14q-20 0 -37.5 -21t-23.5 -47.5t-6 -40.5q0 -15 6.5 -31t26.5 -16q30 0 64 47q1 1 3 1q1 0 2 -1l-13 -57q-46 -11 -70 -11q-38 0 -54.5 23t-16.5 49
q0 12 3 27z" />
    <glyph glyph-name="guillemotleft" unicode="&#xab;" horiz-adv-x="496" 
d="M438 482h64l-226 -205l116 -205h-64l-116 205zM61 277l226 205h64l-226 -205l116 -205h-64z" />
    <glyph glyph-name="registered" unicode="&#xae;" horiz-adv-x="459" 
d="M92 673q57 57 138 57t138 -57t57 -138t-57 -138t-138 -57t-138 57t-57 138t57 138zM64 536q0 -70 48.5 -120t117.5 -50q70 0 118.5 50t48.5 120q-1 71 -48.5 120.5t-115.5 49.5h-3q-69 0 -117.5 -50t-48.5 -120zM159 490v99q0 6 -1 13t-2 13t-2 10.5t-2 7.5l-1 3h93
q28 0 46 -15t18 -35q0 -1 -0.5 -12t-16.5 -24t-40 -16q32 -6 42 -27q4 -8 19 -37q9 -19 18 -27h-58q-6 4 -26 50q-9 23 -17 29.5t-21 6.5v-39q0 -10 2 -21.5t4 -18.5l2 -7h-65q8 25 8 47zM208 617v-68h19q29 0 29 32q0 1 -0.5 18.5t-28.5 17.5h-19z" />
    <glyph glyph-name="degree" unicode="&#xb0;" horiz-adv-x="388" 
d="M141 585q16 60 68 103.5t112 43.5q61 0 85.5 -36t24.5 -71q0 -19 -11 -59.5t-64 -84.5t-113 -44t-84 36t-24 71q0 20 6 41zM215 528q14 -25 46 -25t60 24.5t37 57.5q3 11 3 21q0 19 -12.5 39t-44.5 20t-59 -24t-36 -56q-3 -12 -3 -23q0 -19 9 -34z" />
    <glyph glyph-name="plusminus" unicode="&#xb1;" horiz-adv-x="565" 
d="M84 387h89q64 0 81.5 2t26.5 10q8 6 14 23t25 87l26 98h46l-26 -98q-22 -80 -22 -103q0 -6 1 -8q5 -8 21 -9.5t82 -1.5h101l-13 -43h-99q-64 0 -82.5 -2t-27.5 -10q-7 -6 -13 -23t-26 -87l-25 -97h-46l26 97q19 71 21 82.5t2 16.5q0 7 -2 11q-5 8 -22 10t-82 2h-88z
M448 88v-46h-392v46h392z" />
    <glyph glyph-name="twosuperior" unicode="&#xb2;" horiz-adv-x="292" 
d="M63 367q65 64 92.5 92t68 73t59 75t25.5 56q3 12 3 21q0 24 -24 24q-45 0 -123 -99h-1l4 96q79 27 128 27q53 0 78 -19.5t25 -46.5q0 -11 -3 -23q-17 -67 -135 -142q-32 -23 -100 -65h74q65 0 110 34q1 1 2 1t1 -0.5t1 -0.5q-1 -1 -1 -2l-44 -101h-240z" />
    <glyph glyph-name="threesuperior" unicode="&#xb3;" horiz-adv-x="285" 
d="M120 480q1 1 2 1h1q6 -25 10 -39t11 -29.5t16.5 -22.5t21.5 -7q21 0 37 18.5t24 48.5q4 14 4 26q0 18 -10 39t-44 32l1 4q80 22 100 95q5 14 5 27q0 9 -4.5 23.5t-23.5 14.5q-16 0 -35.5 -14.5t-33.5 -31t-41 -49.5l-1 -1q-1 0 -1 1l5 97q63 20 112 20q21 0 41 -4t41 -13
t28 -24t7 -28q0 -11 -3 -22q-11 -39 -49 -65t-89 -28q51 -1 72.5 -24t21.5 -48q0 -11 -3 -23q-7 -27 -27.5 -46.5t-46.5 -29t-49 -13.5t-44 -4q-56 0 -103 20z" />
    <glyph glyph-name="paragraph" unicode="&#xb6;" horiz-adv-x="481" 
d="M83 499q26 98 105 159.5t166 61.5h124l-193 -720h-44l74 277h-80q-92 0 -127 48.5t-35 101.5q0 33 10 72zM522 720h45l-193 -720h-45z" />
    <glyph glyph-name="periodcentered" unicode="&#xb7;" horiz-adv-x="276" 
d="M19 342q10 41 41 67.5t65 26.5q1 0 19 -0.5t33 -23.5t15 -46q0 -13 -7 -41t-38 -55q-31 -26 -65 -26q-1 0 -19 0.5t-33 23.5t-15 46q0 13 4 28z" />
    <glyph glyph-name="onesuperior" unicode="&#xb9;" horiz-adv-x="202" 
d="M109 367l1 1q0 1 7 14t15.5 32t12.5 35l55 207h-61l4 15q102 26 169 70l-78 -292q-6 -24 -6 -81l-1 -1h-118z" />
    <glyph glyph-name="guillemotright" unicode="&#xbb;" horiz-adv-x="456" 
d="M363 277l-116 205h64l116 -205l-226 -205h-64zM212 277l-116 205h64l116 -205l-226 -205h-64z" />
    <glyph glyph-name="onequarter" unicode="&#xbc;" horiz-adv-x="766" 
d="M439 85l238 275h76l-66 -250h49l-7 -25h-49q-9 -34 -9 -85h-118q0 1 7.5 15t16.5 34t13 36h-151zM-37 -47l804 806h58l-805 -806h-57zM109 367l1 1q0 1 7 14t15.5 32t12.5 35l55 207h-61l4 15q102 26 169 70l-78 -292q-6 -24 -6 -81l-1 -1h-118zM597 110l49 182
l-159 -182h110z" />
    <glyph glyph-name="onehalf" unicode="&#xbd;" horiz-adv-x="748" 
d="M-37 -47l804 806h58l-805 -806h-57zM420 0q65 64 92.5 92t68 73t59 75t25.5 56q3 8 3 16q0 7 -3 18t-21 11q-45 0 -123 -99h-1l4 96q79 27 128 27q53 0 78 -19.5t25 -46.5q0 -11 -3 -23q-17 -67 -135 -142q-32 -23 -100 -65h74q65 0 110 34q1 1 2 1t1 -0.5t1 -0.5
q-1 -1 -1 -2l-44 -101h-240zM110 368q0 1 7 14t15.5 32t12.5 35l55 207h-61l4 15q102 26 169 70l-78 -292q-6 -24 -6 -81l-1 -1h-118z" />
    <glyph glyph-name="threequarters" unicode="&#xbe;" horiz-adv-x="849" 
d="M522 85l238 275h76l-66 -250h49l-7 -25h-49q-9 -34 -9 -85h-118q0 1 7.5 15t16.5 34t13 36h-151zM850 759h58l-805 -806h-57zM120 480q1 1 2 1h1q6 -25 10 -39t11 -29.5t16.5 -22.5t21.5 -7q21 0 37 18.5t24 48.5q4 14 4 26q0 18 -10 39t-44 32l1 4q80 22 100 95
q5 14 5 27q0 9 -4.5 23.5t-23.5 14.5q-16 0 -35.5 -14.5t-33.5 -31t-41 -49.5l-1 -1q-1 0 -1 1l5 97q63 20 112 20q21 0 41 -4t41 -13t28 -24t7 -28q0 -11 -3 -22q-11 -39 -49 -65t-89 -28q51 -1 72.5 -24t21.5 -48q0 -11 -3 -23q-7 -27 -27.5 -46.5t-46.5 -29t-49 -13.5
t-44 -4q-56 0 -103 20zM680 110l49 182l-159 -182h110z" />
    <glyph glyph-name="questiondown" unicode="&#xbf;" horiz-adv-x="553" 
d="M-26 -144l93 189h5q46 -198 128 -198q40 0 64.5 32t33.5 64q6 15 6 34q0 8 -2 26t-6.5 32t-14.5 39t-14 40q-7 26 -7 52q0 55 33 108h31q-1 -7 -1 -13q0 -28 15.5 -56t58.5 -67q4 -4 16 -14.5t18 -16.5t16.5 -18t15.5 -22.5t10 -24.5t5 -29q0 -1 -0.5 -10t-5.5 -28
q-21 -78 -102.5 -126.5t-178.5 -48.5q-107 0 -217 56zM280 444q12 41 45 68.5t68 28.5h3q34 0 47 -21t13 -41q0 -15 -8.5 -44t-41.5 -57t-68 -29h-3q-34 0 -47 21t-13 42q0 15 5 32z" />
    <glyph glyph-name="Agrave" unicode="&#xc0;" horiz-adv-x="683" 
d="M-59 0l1 4q71 89 152 223l217 357q7 12 12.5 25.5t8 26t4 24t2 19t0.5 11.5t-0.5 9.5t-1.5 10.5v6l1 4h189l48 -549q10 -107 34 -167l-1 -4h-251l1 4q0 1 9.5 20t18 40t14 48t5.5 47v12l-6 73h-239l-23 -40q-15 -25 -24 -53t-11.5 -52.5t-2.5 -43.5t1 -34t1 -16l-1 -5
h-158zM394 291l-26 297l-179 -297h205zM471 982l168 -187l-21 -17l-277 94z" />
    <glyph glyph-name="Aacute" unicode="&#xc1;" horiz-adv-x="683" 
d="M-59 0l1 4q71 89 152 223l217 357q7 12 12.5 25.5t8 26t4 24t2 19t0.5 11.5t-0.5 9.5t-1.5 10.5v6l1 4h189l48 -549q10 -107 34 -167l-1 -4h-251l1 4q0 1 9.5 20t18 40t14 48t5.5 47v12l-6 73h-239l-23 -40q-15 -25 -24 -53t-11.5 -52.5t-2.5 -43.5t1 -34t1 -16l-1 -5
h-158zM394 291l-26 297l-179 -297h205zM359 803l218 188l101 -110l-303 -94z" />
    <glyph glyph-name="Acircumflex" unicode="&#xc2;" horiz-adv-x="683" 
d="M-59 0l1 4q71 89 152 223l217 357q7 12 12.5 25.5t8 26t4 24t2 19t0.5 11.5t-0.5 9.5t-1.5 10.5v6l1 4h189l48 -549q10 -107 34 -167l-1 -4h-251l1 4q0 1 9.5 20t18 40t14 48t5.5 47v12l-6 73h-239l-23 -40q-15 -25 -24 -53t-11.5 -52.5t-2.5 -43.5t1 -34t1 -16l-1 -5
h-158zM394 291l-26 297l-179 -297h205zM320 781l208 168l118 -168l-13 -11l-133 68l-172 -68z" />
    <glyph glyph-name="Atilde" unicode="&#xc3;" horiz-adv-x="683" 
d="M-58 4q71 89 152 223l217 357q7 12 12.5 25.5t8 26t4 24t2 19t0.5 11.5t-0.5 9.5t-1.5 10.5v6l1 4h189l48 -549q10 -107 34 -167l-1 -4h-251l1 4q0 1 9.5 20t18 40t14 48t5.5 47v12l-6 73h-239l-23 -40q-15 -25 -24 -53t-11.5 -52.5t-2.5 -43.5t1 -34t1 -16l-1 -5h-158z
M352 871q39 47 95 47q25 0 70.5 -16t72.5 -16q64 0 109 46q-22 -80 -62.5 -117t-87.5 -37q-28 0 -79.5 17.5t-73.5 17.5h-2q-46 -2 -85 -42q3 52 43 100zM394 291l-26 297l-179 -297h205z" />
    <glyph glyph-name="Adieresis" unicode="&#xc4;" horiz-adv-x="683" 
d="M-58 4q71 89 152 223l217 357q7 12 12.5 25.5t8 26t4 24t2 19t0.5 11.5t-0.5 9.5t-1.5 10.5v6l1 4h189l48 -549q10 -107 34 -167l-1 -4h-251l1 4q0 1 9.5 20t18 40t14 48t5.5 47v12l-6 73h-239l-23 -40q-15 -25 -24 -53t-11.5 -52.5t-2.5 -43.5t1 -34t1 -16l-1 -5h-158z
M394 291l-26 297l-179 -297h205zM320 859q9 35 38.5 59.5t62.5 24.5q34 0 47.5 -20t13.5 -41q0 -11 -3 -23q-9 -34 -39 -58q-30 -25 -63 -25t-47 20t-14 39q0 11 4 24zM529 859q10 35 39.5 59.5t63.5 24.5q32 0 46 -20t14 -40q0 -11 -4 -24q-9 -35 -38 -59q-30 -24 -63 -24
t-47 20.5t-14 40.5q0 10 3 22z" />
    <glyph glyph-name="Aring" unicode="&#xc5;" horiz-adv-x="683" 
d="M-59 0l1 4q71 89 152 223l217 357q7 12 12.5 25.5t8 26t4 24t2 19t0.5 11.5t-0.5 9.5t-1.5 10.5v6l1 4h189l48 -549q10 -107 34 -167l-1 -4h-251l1 4q0 1 9.5 20t18 40t14 48t5.5 47v12l-6 73h-239l-23 -40q-15 -25 -24 -53t-11.5 -52.5t-2.5 -43.5t1 -34t1 -16l-1 -5
h-158zM408 863q11 42 47.5 71.5t76.5 29.5q41 0 58 -24.5t17 -48.5q0 -13 -7.5 -41.5t-44 -58t-76.5 -29.5q-41 0 -58 24.5t-17 48.5q0 13 4 28zM189 291h205l-26 297zM459 824q10 -16 32 -16q21 0 40.5 16t23.5 31.5t4 22.5q0 14 -9 27.5t-30 13.5t-40.5 -16.5t-23.5 -32
t-4 -22.5q0 -14 7 -24z" />
    <glyph glyph-name="AE" unicode="&#xc6;" horiz-adv-x="987" 
d="M-59 0q83 62 122 110l385 471q22 27 39.5 59.5t24 51.5t6.5 24l1 4h552l-54 -200h-5l-14 26q-13 27 -30 54.5t-46 51.5t-59 24h-111l-78 -291h36q24 0 52.5 5.5t53 14t44.5 16.5t34.5 15t15.5 7h5l-40 -149h-4q-1 0 -18 9.5t-37.5 20t-52.5 19t-62 8.5h-36l-82 -307h113
q30 0 72 24t73.5 52t59.5 54l28 27h5l-53 -201h-512l1 4l7 12q7 13 14.5 28t16.5 34.5t18 42.5t14 43l22 80h-228l-48 -54q-13 -14 -23 -30t-16 -30t-10.5 -29.5t-6.5 -27.5t-3 -25t-1 -20v-15l1 -8l-2 -5h-184zM475 291l100 375l-303 -375h203z" />
    <glyph glyph-name="Ccedilla" unicode="&#xc7;" horiz-adv-x="644" 
d="M65 364q45 169 157 267.5t268 98.5q88 0 225 -41l-53 -200h-6q-12 35 -27.5 66t-36.5 62.5t-48 50t-56 18.5q-67 0 -129 -89t-100 -232q-25 -87 -25 -163q0 -34 10.5 -101.5t74.5 -67.5q94 0 274 207h6l-54 -201q-97 -37 -183 -48l-30 -38h4q41 0 70 -20.5t29 -54.5v-2
q-1 -31 -25.5 -48.5t-64.5 -17.5q-59 0 -98 28l1 36q25 -18 46 -18q5 0 20.5 3.5t16.5 27.5v4q0 14 -14.5 26.5t-40.5 16.5l41 54h-13q-147 0 -201.5 85t-54.5 171q0 56 17 120z" />
    <glyph glyph-name="Egrave" unicode="&#xc8;" horiz-adv-x="590" 
d="M-27 0l1 4l14 26q15 27 31.5 64.5t24.5 69.5l104 392q9 32 12.5 69.5t4 63.5t0.5 27l1 4h508l-53 -196h-4q-1 0 -23 39.5t-58.5 76t-75.5 36.5h-105l-77 -289h31q30 0 67.5 8.5t64 18.5t49 19.5t24.5 9.5h4l-40 -150h-5l-27 15q-26 14 -67.5 27.5t-80.5 13.5h-30
l-82 -305h109q39 0 95 37t98.5 76.5t43.5 39.5h5l-53 -197h-511zM425 982l168 -187l-21 -17l-277 94z" />
    <glyph glyph-name="Eacute" unicode="&#xc9;" horiz-adv-x="590" 
d="M-27 0l1 4l14 26q15 27 31.5 64.5t24.5 69.5l104 392q9 32 12.5 69.5t4 63.5t0.5 27l1 4h508l-53 -196h-4q-1 0 -23 39.5t-58.5 76t-75.5 36.5h-105l-77 -289h31q30 0 67.5 8.5t64 18.5t49 19.5t24.5 9.5h4l-40 -150h-5l-27 15q-26 14 -67.5 27.5t-80.5 13.5h-30
l-82 -305h109q39 0 95 37t98.5 76.5t43.5 39.5h5l-53 -197h-511zM531 991l101 -110l-303 -94l-16 16z" />
    <glyph glyph-name="Ecircumflex" unicode="&#xca;" horiz-adv-x="590" 
d="M-27 0l1 4l14 26q15 27 31.5 64.5t24.5 69.5l104 392q9 32 12.5 69.5t4 63.5t0.5 27l1 4h508l-53 -196h-4q-1 0 -23 39.5t-58.5 76t-75.5 36.5h-105l-77 -289h31q30 0 67.5 8.5t64 18.5t49 19.5t24.5 9.5h4l-40 -150h-5l-27 15q-26 14 -67.5 27.5t-80.5 13.5h-30
l-82 -305h109q39 0 95 37t98.5 76.5t43.5 39.5h5l-53 -197h-511zM482 949l118 -168l-13 -11l-133 68l-172 -68l-8 11z" />
    <glyph glyph-name="Edieresis" unicode="&#xcb;" horiz-adv-x="590" 
d="M-26 4l14 26q15 27 31.5 64.5t24.5 69.5l104 392q9 32 12.5 69.5t4 63.5t0.5 27l1 4h508l-53 -196h-4q-1 0 -23 39.5t-58.5 76t-75.5 36.5h-105l-77 -289h31q30 0 67.5 8.5t64 18.5t49 19.5t24.5 9.5h4l-40 -150h-5l-27 15q-26 14 -67.5 27.5t-80.5 13.5h-30l-82 -305
h109q39 0 95 37t98.5 76.5t43.5 39.5h5l-53 -197h-511zM274 859q9 35 38.5 59.5t62.5 24.5q34 0 47.5 -20t13.5 -41q0 -11 -3 -23q-9 -34 -39 -58q-30 -25 -63 -25t-47 20t-14 39q0 11 4 24zM483 859q10 35 39.5 59.5t63.5 24.5q32 0 46 -20t14 -40q0 -11 -4 -24
q-9 -35 -38 -59q-30 -24 -63 -24t-47 20.5t-14 40.5q0 10 3 22z" />
    <glyph glyph-name="Igrave" unicode="&#xcc;" horiz-adv-x="312" 
d="M-26 0l1 4l7 12q7 12 14.5 27.5t17 35t18 42.5t13.5 43l105 392q9 32 12.5 69.5t4 63.5t0.5 27v4h228l-1 -4l-14 -26q-15 -27 -31.5 -64.5t-24.5 -69.5l-105 -392q-7 -25 -10.5 -54.5t-4.5 -49.5t-1 -37v-19l-1 -4h-228zM285 981l167 -187l-20 -17l-277 94z" />
    <glyph glyph-name="Iacute" unicode="&#xcd;" horiz-adv-x="312" 
d="M-26 0l1 4l7 12q7 12 14.5 27.5t17 35t18 42.5t13.5 43l105 392q9 32 12.5 69.5t4 63.5t0.5 27v4h228l-1 -4l-14 -26q-15 -27 -31.5 -64.5t-24.5 -69.5l-105 -392q-7 -25 -10.5 -54.5t-4.5 -49.5t-1 -37v-19l-1 -4h-228zM174 803l217 186l100 -109l-301 -94z" />
    <glyph glyph-name="Icircumflex" unicode="&#xce;" horiz-adv-x="312" 
d="M-26 0l1 4l7 12q7 12 14.5 27.5t17 35t18 42.5t13.5 43l105 392q9 32 12.5 69.5t4 63.5t0.5 27v4h228l-1 -4l-14 -26q-15 -27 -31.5 -64.5t-24.5 -69.5l-105 -392q-7 -25 -10.5 -54.5t-4.5 -49.5t-1 -37v-19l-1 -4h-228zM135 781l207 166l118 -166l-14 -11l-132 67
l-171 -67z" />
    <glyph glyph-name="Idieresis" unicode="&#xcf;" horiz-adv-x="312" 
d="M-26 0l1 4l7 12q7 12 14.5 27.5t17 35t18 42.5t13.5 43l105 392q9 32 12.5 69.5t4 63.5t0.5 27v4h228l-1 -4l-14 -26q-15 -27 -31.5 -64.5t-24.5 -69.5l-105 -392q-7 -25 -10.5 -54.5t-4.5 -49.5t-1 -37v-19l-1 -4h-228zM135 858q9 35 38.5 59.5t62.5 24.5q34 0 47.5 -20
t13.5 -41q0 -11 -3 -23q-9 -34 -39 -58q-30 -25 -63 -25t-47 20t-14 39q0 11 4 24zM345 858q9 35 38.5 59.5t62.5 24.5t47 -20t14 -40q0 -11 -4 -24q-9 -35 -38 -59q-30 -24 -63 -24t-47 20t-14 39q0 11 4 24z" />
    <glyph glyph-name="Eth" unicode="&#xd0;" horiz-adv-x="737" 
d="M17 4l15 26q14 27 30.5 64.5t24.5 69.5l44 166h-87l14 47h87l47 179q7 25 10.5 54.5t4.5 49.5t1 38v18l1 4h285q142 0 198 -80t56 -164q0 -53 -17 -114q-44 -164 -165.5 -263t-264.5 -99h-285zM224 44h38q67 0 125 47t95 116t60 155q16 61 18 95.5t2 47.5q0 38 -8 78
t-39.5 67t-82.5 27h-38l-81 -300h128l-13 -47h-127z" />
    <glyph glyph-name="Ntilde" unicode="&#xd1;" horiz-adv-x="699" 
d="M-38 0l2 6q1 1 16.5 26.5t33.5 56t37.5 74.5t29.5 80l82 307q9 33 9.5 55t0.5 27q0 32 -3 57.5t-3 26.5l1 4h184l200 -521l74 279q10 36 13.5 75t3.5 66q0 6 -0.5 24.5t-2 44t-1.5 26.5l1 6h155l-2 -6q-1 -2 -16.5 -27t-33.5 -55.5t-38 -74t-30 -79.5l-127 -478h-102
l-223 589l-94 -346q-10 -36 -12.5 -72.5t-2.5 -60.5q0 -11 1 -31.5t3 -45.5t2 -27l-1 -6h-157zM357 871q39 47 95 47q25 0 70.5 -16t72.5 -16q64 0 109 46q-22 -80 -62.5 -117t-87.5 -37q-28 0 -79.5 17.5t-73.5 17.5h-2q-46 -2 -85 -42q3 52 43 100z" />
    <glyph glyph-name="Ograve" unicode="&#xd2;" horiz-adv-x="725" 
d="M66 366q42 168 156.5 266.5t253.5 98.5h8q143 -3 196 -86.5t53 -170.5q0 -55 -16 -119q-42 -168 -157.5 -267.5t-255.5 -99.5h-6q-143 2 -195.5 85.5t-52.5 170.5q0 56 16 122zM248 88q18 -56 62 -56q43 0 88 54.5t76.5 126.5t49.5 146q13 54 17.5 100t4.5 81
q0 16 -1.5 49t-20.5 64.5t-52 32.5h-2q-43 0 -87.5 -54t-75 -125.5t-49.5 -145.5q-18 -74 -21 -118t-3 -59q0 -53 14 -96zM362 872l130 110l168 -187l-21 -17z" />
    <glyph glyph-name="Oacute" unicode="&#xd3;" horiz-adv-x="725" 
d="M66 366q42 168 156.5 266.5t253.5 98.5h8q143 -3 196 -86.5t53 -170.5q0 -55 -16 -119q-42 -168 -157.5 -267.5t-255.5 -99.5h-6q-143 2 -195.5 85.5t-52.5 170.5q0 56 16 122zM248 88q18 -56 62 -56q43 0 88 54.5t76.5 126.5t49.5 146q13 54 17.5 100t4.5 81
q0 16 -1.5 49t-20.5 64.5t-52 32.5h-2q-43 0 -87.5 -54t-75 -125.5t-49.5 -145.5q-18 -74 -21 -118t-3 -59q0 -53 14 -96zM598 991l101 -110l-303 -94l-16 16z" />
    <glyph glyph-name="Ocircumflex" unicode="&#xd4;" horiz-adv-x="725" 
d="M66 366q42 168 156.5 266.5t253.5 98.5h8q143 -3 196 -86.5t53 -170.5q0 -55 -16 -119q-42 -168 -157.5 -267.5t-255.5 -99.5h-6q-143 2 -195.5 85.5t-52.5 170.5q0 56 16 122zM248 88q18 -56 62 -56q43 0 88 54.5t76.5 126.5t49.5 146q13 54 17.5 100t4.5 81
q0 16 -1.5 49t-20.5 64.5t-52 32.5h-2q-43 0 -87.5 -54t-75 -125.5t-49.5 -145.5q-18 -74 -21 -118t-3 -59q0 -53 14 -96zM549 949l118 -168l-13 -11l-133 68l-172 -68l-8 11z" />
    <glyph glyph-name="Otilde" unicode="&#xd5;" horiz-adv-x="725" 
d="M66 366q42 168 156.5 266.5t253.5 98.5h8q143 -3 196 -86.5t53 -170.5q0 -55 -16 -119q-42 -168 -157.5 -267.5t-255.5 -99.5h-6q-143 2 -195.5 85.5t-52.5 170.5q0 56 16 122zM248 88q18 -56 62 -56q43 0 88 54.5t76.5 126.5t49.5 146q13 54 17.5 100t4.5 81
q0 16 -1.5 49t-20.5 64.5t-52 32.5h-2q-43 0 -87.5 -54t-75 -125.5t-49.5 -145.5q-18 -74 -21 -118t-3 -59q0 -53 14 -96zM373 871q39 47 95 47q25 0 70.5 -16t72.5 -16q64 0 109 46q-22 -80 -62.5 -117t-87.5 -37q-28 0 -79.5 17.5t-73.5 17.5h-2q-46 -2 -85 -42
q3 52 43 100z" />
    <glyph glyph-name="Odieresis" unicode="&#xd6;" horiz-adv-x="725" 
d="M66 366q42 168 156.5 266.5t253.5 98.5h8q143 -3 196 -86.5t53 -170.5q0 -55 -16 -119q-42 -168 -157.5 -267.5t-255.5 -99.5h-6q-143 2 -195.5 85.5t-52.5 170.5q0 56 16 122zM248 88q18 -56 62 -56q43 0 88 54.5t76.5 126.5t49.5 146q13 54 17.5 100t4.5 81
q0 16 -1.5 49t-20.5 64.5t-52 32.5h-2q-43 0 -87.5 -54t-75 -125.5t-49.5 -145.5q-18 -74 -21 -118t-3 -59q0 -53 14 -96zM341 859q9 35 38.5 59.5t62.5 24.5q34 0 47.5 -20t13.5 -41q0 -11 -3 -23q-9 -34 -39 -58q-30 -25 -63 -25t-47 20t-14 39q0 11 4 24zM550 859
q10 35 39.5 59.5t63.5 24.5q32 0 46 -20t14 -40q0 -11 -4 -24q-9 -35 -38 -59q-30 -24 -63 -24t-47 20.5t-14 40.5q0 10 3 22z" />
    <glyph glyph-name="multiply" unicode="&#xd7;" horiz-adv-x="547" 
d="M148 268q60 39 74 50t16 19v1q0 9 -11 21t-59 55l-66 60l38 24l66 -59q47 -43 62 -53.5t27 -11.5q10 0 26.5 9t76.5 48l84 55l34 -31l-85 -55q-59 -38 -73.5 -49.5t-15.5 -19.5v-3q0 -8 10.5 -19.5t58.5 -54.5l75 -67l-39 -24l-74 67q-47 43 -62 53.5t-26 10.5h-2
q-11 0 -25.5 -8t-76.5 -47l-84 -56l-33 31z" />
    <glyph glyph-name="Oslash" unicode="&#xd8;" horiz-adv-x="775" 
d="M25 -51l90 109q-50 50 -62 110.5t-12 100.5q0 52 13 109q37 162 154.5 257t262.5 95q96 0 163 -49l72 88h46l-91 -110q49 -49 61 -109.5t12 -98.5q0 -52 -13 -107q-37 -164 -155.5 -260t-262.5 -96q-94 0 -162 48l-71 -87h-45zM233 197l308 376q-12 113 -80 113
q-47 0 -94 -55.5t-78 -128t-46 -143.5q-12 -62 -12 -119q0 -22 2 -43zM235 144q12 -111 78 -111q48 0 95.5 55.5t78.5 128.5t46 145q11 65 11 125q0 17 -1 34z" />
    <glyph glyph-name="Ugrave" unicode="&#xd9;" horiz-adv-x="681" 
d="M76 300l68 256q7 25 10.5 54.5t4.5 49.5t1.5 37.5t0.5 18.5l1 4h227l-1 -4l-14 -26q-15 -27 -31.5 -64.5t-24.5 -69.5l-73 -273q-15 -55 -15 -96t21.5 -82t89.5 -41q67 0 126.5 53t87.5 159l54 202q12 47 13.5 86t1.5 58q0 29 -2.5 60t-2.5 32l1 6h156l-1 -6
q-1 -1 -16.5 -26.5t-33.5 -56t-37.5 -74t-29.5 -79.5l-54 -203q-78 -287 -310 -287q-54 0 -99.5 15.5t-83 52t-43.5 76t-6 60.5q0 47 14 108zM469 982l168 -187l-21 -17l-277 94z" />
    <glyph glyph-name="Uacute" unicode="&#xda;" horiz-adv-x="681" 
d="M76 300l68 256q7 25 10.5 54.5t4.5 49.5t1.5 37.5t0.5 18.5l1 4h227l-1 -4l-14 -26q-15 -27 -31.5 -64.5t-24.5 -69.5l-73 -273q-15 -55 -15 -96t21.5 -82t89.5 -41q67 0 126.5 53t87.5 159l54 202q12 47 13.5 86t1.5 58q0 29 -2.5 60t-2.5 32l1 6h156l-1 -6
q-1 -1 -16.5 -26.5t-33.5 -56t-37.5 -74t-29.5 -79.5l-54 -203q-78 -287 -310 -287q-54 0 -99.5 15.5t-83 52t-43.5 76t-6 60.5q0 47 14 108zM358 803l218 188l101 -110l-303 -94z" />
    <glyph glyph-name="Ucircumflex" unicode="&#xdb;" horiz-adv-x="681" 
d="M76 300l68 256q7 25 10.5 54.5t4.5 49.5t1.5 37.5t0.5 18.5l1 4h227l-1 -4l-14 -26q-15 -27 -31.5 -64.5t-24.5 -69.5l-73 -273q-15 -55 -15 -96t21.5 -82t89.5 -41q67 0 126.5 53t87.5 159l54 202q12 47 13.5 86t1.5 58q0 29 -2.5 60t-2.5 32l1 6h156l-1 -6
q-1 -1 -16.5 -26.5t-33.5 -56t-37.5 -74t-29.5 -79.5l-54 -203q-78 -287 -310 -287q-54 0 -99.5 15.5t-83 52t-43.5 76t-6 60.5q0 47 14 108zM318 781l208 168l118 -168l-13 -11l-133 68l-172 -68z" />
    <glyph glyph-name="Udieresis" unicode="&#xdc;" horiz-adv-x="681" 
d="M76 300l68 256q7 25 10.5 54.5t4.5 49.5t1.5 37.5t0.5 18.5l1 4h227l-1 -4l-14 -26q-15 -27 -31.5 -64.5t-24.5 -69.5l-73 -273q-15 -55 -15 -96t21.5 -82t89.5 -41q67 0 126.5 53t87.5 159l54 202q12 47 13.5 86t1.5 58q0 29 -2.5 60t-2.5 32l1 6h156l-1 -6
q-1 -1 -16.5 -26.5t-33.5 -56t-37.5 -74t-29.5 -79.5l-54 -203q-78 -287 -310 -287q-54 0 -99.5 15.5t-83 52t-43.5 76t-6 60.5q0 47 14 108zM319 859q9 35 38.5 59.5t62.5 24.5q34 0 47.5 -20t13.5 -41q0 -11 -3 -23q-9 -34 -39 -58q-30 -25 -63 -25t-47 20t-14 39
q0 11 4 24zM528 859q10 35 39.5 59.5t63.5 24.5q32 0 46 -20t14 -40q0 -11 -4 -24q-9 -35 -38 -59q-30 -24 -63 -24t-47 20.5t-14 40.5q0 10 3 22z" />
    <glyph glyph-name="Yacute" unicode="&#xdd;" horiz-adv-x="649" 
d="M137 720h259l-1 -4l-9 -19q-9 -19 -15.5 -38.5t-10.5 -42t-4 -35.5q0 -14 3 -27l44 -226l154 209q20 27 31.5 59.5t14 54.5t3.5 43l1 21l2 5h154l-1 -4q-1 -2 -22 -25.5t-50.5 -58t-49.5 -63.5l-216 -292l-31 -113q-7 -25 -10.5 -54.5t-4 -49.5t-0.5 -37v-19l-1 -4h-230
l1 4l14 26q15 27 31.5 64.5t24.5 69.5l30 113l-69 293q-6 29 -16.5 63t-19 57t-8.5 25zM570 991l101 -110l-303 -94l-16 16z" />
    <glyph glyph-name="Thorn" unicode="&#xde;" horiz-adv-x="604" 
d="M-25 4l7 12q7 12 14.5 27.5t17 35t18 42.5t13.5 43l105 392q9 32 12.5 69.5t4 63.5t0.5 27v4h228l-1 -4q0 -1 -13.5 -25.5t-29.5 -60t-25 -66.5q67 61 151 61t117 -52.5t33 -107.5q0 -42 -14 -95q-35 -129 -119.5 -198.5t-167.5 -69.5q-71 0 -110 51q-5 -24 -8.5 -51.5
t-4 -46t-0.5 -34.5v-17l-1 -4h-228zM228 198q22 -13 46 -13q54 0 95.5 53.5t62.5 130.5q11 36 11 67q0 24 -10.5 59t-60.5 35q-29 0 -59 -17z" />
    <glyph glyph-name="germandbls" unicode="&#xdf;" horiz-adv-x="631" 
d="M-34 0l1 4l15 26q14 27 30.5 64.5t24.5 69.5l100 373q55 203 296 203q26 0 54 -3t62 -11.5t58 -21.5t34.5 -32.5t10.5 -36.5q0 -11 -3 -22q-8 -29 -33.5 -56t-52.5 -44.5t-51.5 -40t-28.5 -37.5t-4 -22q0 -15 9.5 -33.5t29.5 -38t39 -47t25 -50t6 -39.5q0 -20 -5 -45
q-18 -70 -79.5 -119.5t-102 -51.5t-45.5 -2q-71 0 -141 53l13 42q45 -24 80 -24q7 0 30 3.5t45.5 23.5t28.5 45q2 7 2 15q0 22 -15 52t-38.5 58t-36 58.5t-12.5 53.5q0 13 3 25q9 32 37.5 60t59 46t59.5 49t39 67q4 15 4 28q0 19 -12 37t-56 18q-64 0 -98 -45t-54 -123
l-142 -529h-186z" />
    <glyph glyph-name="agrave" unicode="&#xe0;" horiz-adv-x="614" 
d="M40 301q25 62 58 106.5t68.5 66t66.5 30.5t61 9q43 0 75 -16t46 -43q70 21 133 53h22l-99 -368q-3 -11 -3 -19q0 -16 14 -16h3q32 4 85 63q1 2 3 4l11 -4q-31 -78 -84 -127t-115 -49q-54 0 -70 28t-16 59q0 16 3 34q-91 -123 -184 -123q-83 0 -98 59.5t-15 91.5
q0 71 35 161zM179 104q8 -17 28 -17q36 0 78 55t70 164h1l31 112q-7 38 -44 40q-38 0 -72 -49.5t-57 -112.5q-17 -44 -27.5 -80.5t-12.5 -55t-2 -24.5q0 -20 7 -32zM374 769l168 -187l-21 -17l-277 94z" />
    <glyph glyph-name="aacute" unicode="&#xe1;" horiz-adv-x="614" 
d="M40 301q25 62 58 106.5t68.5 66t66.5 30.5t61 9q43 0 75 -16t46 -43q70 21 133 53h22l-99 -368q-3 -11 -3 -19q0 -16 14 -16h3q32 4 85 63q1 2 3 4l11 -4q-31 -78 -84 -127t-115 -49q-54 0 -70 28t-16 59q0 16 3 34q-91 -123 -184 -123q-83 0 -98 59.5t-15 91.5
q0 71 35 161zM179 104q8 -17 28 -17q36 0 78 55t70 164h1l31 112q-7 38 -44 40q-38 0 -72 -49.5t-57 -112.5q-17 -44 -27.5 -80.5t-12.5 -55t-2 -24.5q0 -20 7 -32zM263 590l218 188l101 -110l-303 -94z" />
    <glyph glyph-name="acircumflex" unicode="&#xe2;" horiz-adv-x="614" 
d="M40 301q25 62 58 106.5t68.5 66t66.5 30.5t61 9q43 0 75 -16t46 -43q70 21 133 53h22l-99 -368q-3 -11 -3 -19q0 -16 14 -16h3q32 4 85 63q1 2 3 4l11 -4q-31 -78 -84 -127t-115 -49q-54 0 -70 28t-16 59q0 16 3 34q-91 -123 -184 -123q-83 0 -98 59.5t-15 91.5
q0 71 35 161zM179 104q8 -17 28 -17q36 0 78 55t70 164h1l31 112q-7 38 -44 40q-38 0 -72 -49.5t-57 -112.5q-17 -44 -27.5 -80.5t-12.5 -55t-2 -24.5q0 -20 7 -32zM224 568l207 166l117 -166l-13 -11l-133 67l-170 -67z" />
    <glyph glyph-name="atilde" unicode="&#xe3;" horiz-adv-x="614" 
d="M40 301q25 62 58 106.5t68.5 66t66.5 30.5t61 9q43 0 75 -16t46 -43q70 21 133 53h22l-99 -368q-3 -11 -3 -19q0 -16 14 -16h3q32 4 85 63q1 2 3 4l11 -4q-31 -78 -84 -127t-115 -49q-54 0 -70 28t-16 59q0 16 3 34q-91 -123 -184 -123q-83 0 -98 59.5t-15 91.5
q0 71 35 161zM179 104q8 -17 28 -17q36 0 78 55t70 164h1l31 112q-7 38 -44 40q-38 0 -72 -49.5t-57 -112.5q-17 -44 -27.5 -80.5t-12.5 -55t-2 -24.5q0 -20 7 -32zM212 558q3 52 42.5 99.5t95.5 47.5q25 0 70.5 -16t72.5 -16q64 0 109 46q-22 -80 -62.5 -117t-87.5 -37
q-28 0 -79.5 17.5t-73.5 17.5h-2q-46 -2 -85 -42z" />
    <glyph glyph-name="adieresis" unicode="&#xe4;" horiz-adv-x="614" 
d="M40 301q25 62 58 106.5t68.5 66t66.5 30.5t61 9q43 0 75 -16t46 -43q70 21 133 53h22l-99 -368q-3 -11 -3 -19q0 -16 14 -16h3q32 4 85 63q1 2 3 4l11 -4q-31 -78 -84 -127t-115 -49q-54 0 -70 28t-16 59q0 16 3 34q-91 -123 -184 -123q-83 0 -98 59.5t-15 91.5
q0 71 35 161zM179 104q8 -17 28 -17q36 0 78 55t70 164h1l31 112q-7 38 -44 40q-38 0 -72 -49.5t-57 -112.5q-17 -44 -27.5 -80.5t-12.5 -55t-2 -24.5q0 -20 7 -32zM224 646q9 35 38.5 59.5t62.5 24.5q34 0 47.5 -20t13.5 -41q0 -11 -3 -23q-9 -34 -39 -58q-30 -25 -63 -25
t-47 20t-14 39q0 11 4 24zM433 646q10 35 39.5 59.5t63.5 24.5q32 0 46 -20t14 -40q0 -11 -4 -24q-9 -35 -38.5 -59t-62.5 -24t-47 20.5t-14 40.5q0 10 3 22z" />
    <glyph glyph-name="aring" unicode="&#xe5;" horiz-adv-x="614" 
d="M40 301q25 62 58 106.5t68.5 66t66.5 30.5t61 9q43 0 75 -16t46 -43q70 21 133 53h22l-99 -368q-3 -11 -3 -19q0 -16 14 -16h3q32 4 85 63q1 2 3 4l11 -4q-31 -78 -84 -127t-115 -49q-54 0 -70 28t-16 59q0 16 3 34q-91 -123 -184 -123q-83 0 -98 59.5t-15 91.5
q0 71 35 161zM179 104q8 -17 28 -17q36 0 78 55t70 164h1l31 112q-7 38 -44 40q-38 0 -72 -49.5t-57 -112.5q-17 -44 -27.5 -80.5t-12.5 -55t-2 -24.5q0 -20 7 -32zM311 650q11 42 47.5 71.5t76.5 29.5q41 0 58 -24.5t17 -48.5q0 -13 -7.5 -41.5t-44 -58t-76.5 -29.5
q-41 0 -58 24.5t-17 48.5q0 13 4 28zM362 611q10 -16 32 -16q21 0 40.5 16.5t25.5 38.5q2 8 2 15q0 14 -9 27.5t-30 13.5t-40 -16q-20 -17 -24 -32.5t-4 -22.5q0 -14 7 -24z" />
    <glyph glyph-name="ae" unicode="&#xe6;" horiz-adv-x="816" 
d="M-4 152q19 72 82 116.5t137 46.5h12q56 0 100 -17l14 55q14 52 14 80q0 33 -19 33q-35 0 -136.5 -61t-117.5 -77l40 150q146 35 237 35q89 0 120 -44q74 44 157 44q61 0 101 -22.5t54 -58t15.5 -61t1.5 -32.5q0 -38 -13 -77h-301q-4 -28 -4 -52q0 -113 104 -113
q69 0 164 55q-34 -61 -106.5 -112t-159.5 -51q-114 0 -163 84q-98 -81 -201 -81q-81 0 -110 38.5t-29 76.5q0 21 7 45zM500 288l154 34q14 52 14 86q0 62 -46 62q-43 0 -75.5 -54t-46.5 -128zM170 108q14 -27 50 -27q32 0 58 29l41 155q-13 2 -26 2q-10 0 -20 -1
q-82 -4 -106 -89q-5 -18 -5 -34q0 -20 8 -35z" />
    <glyph glyph-name="ccedilla" unicode="&#xe7;" horiz-adv-x="500" 
d="M31 283q21 78 71 132t105 76t113 22q76 0 159 -45l-41 -160h-5q-2 6 -7 20.5t-8 23.5t-8.5 23.5t-10 24t-10.5 22t-12 20t-13 14.5t-15 10.5t-16 3.5q-37 0 -76 -57.5t-57 -129.5q-13 -45 -13 -82q0 -28 12.5 -66.5t69.5 -38.5q42 0 97.5 28t84.5 64l12 -4
q-41 -78 -110.5 -135t-150.5 -60l-28 -36h4q41 0 70 -20.5t29 -54.5v-2q-1 -31 -25.5 -48.5t-64.5 -17.5q-59 0 -98 28l1 36q25 -18 46 -18q5 0 20.5 3.5t16.5 27.5v4q0 14 -14.5 26.5t-40.5 16.5l44 58q-84 13 -114.5 74.5t-30.5 117.5q0 46 14 99z" />
    <glyph glyph-name="egrave" unicode="&#xe8;" horiz-adv-x="511" 
d="M28 273q18 63 52.5 111t77.5 75t87 40.5t87 13.5q81 0 122 -34.5t41 -75.5q0 -15 -4 -31q-17 -64 -93.5 -102t-187.5 -38h-23q-2 -17 -2 -32q0 -40 18 -72t66 -32q44 0 98 26t90 66l13 -4q-42 -79 -117 -137t-159 -58q-97 0 -138.5 64t-41.5 128q0 43 14 92zM327 769
l168 -187l-21 -17l-277 94zM302 307q40 33 54 74q8 20 8 38q0 11 -5 31t-31 20q-38 0 -75 -56t-56 -129q-4 -14 -5 -22q69 10 110 44z" />
    <glyph glyph-name="eacute" unicode="&#xe9;" horiz-adv-x="511" 
d="M28 273q18 63 52.5 111t77.5 75t87 40.5t87 13.5q81 0 122 -34.5t41 -75.5q0 -15 -4 -31q-17 -64 -93.5 -102t-187.5 -38h-23q-2 -17 -2 -32q0 -40 18 -72t66 -32q44 0 98 26t90 66l13 -4q-42 -79 -117 -137t-159 -58q-97 0 -138.5 64t-41.5 128q0 43 14 92zM216 590
l218 188l101 -110l-303 -94zM192 263q69 10 109.5 43.5t54.5 74.5q8 20 8 38q0 11 -5 31t-31 20q-38 0 -75 -56t-56 -129q-4 -14 -5 -22z" />
    <glyph glyph-name="ecircumflex" unicode="&#xea;" horiz-adv-x="511" 
d="M28 273q18 63 52.5 111t77.5 75t87 40.5t87 13.5q81 0 122 -34.5t41 -75.5q0 -15 -4 -31q-17 -64 -93.5 -102t-187.5 -38h-23q-2 -17 -2 -32q0 -40 18 -72t66 -32q44 0 98 26t90 66l13 -4q-42 -79 -117 -137t-159 -58q-97 0 -138.5 64t-41.5 128q0 43 14 92zM192 263
q69 10 109.5 43.5t54.5 74.5q8 20 8 38q0 11 -5 31t-31 20q-38 0 -75 -56t-56 -129q-4 -14 -5 -22zM384 734l117 -166l-13 -11l-133 67l-170 -67l-8 11z" />
    <glyph glyph-name="edieresis" unicode="&#xeb;" horiz-adv-x="511" 
d="M28 273q18 63 52.5 111t77.5 75t87 40.5t87 13.5q81 0 122 -34.5t41 -75.5q0 -15 -4 -31q-17 -64 -93.5 -102t-187.5 -38h-23q-2 -17 -2 -32q0 -40 18 -72t66 -32q44 0 98 26t90 66l13 -4q-42 -79 -117 -137t-159 -58q-97 0 -138.5 64t-41.5 128q0 43 14 92zM177 646
q9 35 38.5 59.5t62.5 24.5q34 0 47.5 -20t13.5 -41q0 -11 -3 -23q-9 -34 -39 -58.5t-64 -24.5q-32 0 -46 20t-14 39q0 11 4 24zM386 646q10 35 39.5 59.5t63.5 24.5q32 0 46 -20t14 -40q0 -11 -4 -24q-9 -35 -38.5 -59t-62.5 -24t-47 20.5t-14 40.5q0 10 3 22zM302 307
q40 33 54 74q8 20 8 38q0 11 -5 31t-31 20q-38 0 -75 -56t-56 -129q-4 -14 -5 -22q69 10 110 44z" />
    <glyph glyph-name="igrave" unicode="&#xec;" horiz-adv-x="333" 
d="M33 157l53 186q17 56 17 119q0 20 -2 41l1 4h191l-102 -363q-3 -13 -3 -22q0 -17 13 -17h3q32 3 84 62q2 2 4 5l11 -4q-30 -78 -82 -127t-114 -49q-60 0 -73.5 34t-13.5 60q0 32 13 71zM221 768l167 -186l-21 -17l-275 93z" />
    <glyph glyph-name="iacute" unicode="&#xed;" horiz-adv-x="333" 
d="M33 157l53 186q17 56 17 119q0 20 -2 41l1 4h191l-102 -363q-3 -13 -3 -22q0 -17 13 -17h3q32 3 84 62q2 2 4 5l11 -4q-30 -78 -82 -127t-114 -49q-60 0 -73.5 34t-13.5 60q0 32 13 71zM327 776l100 -109l-300 -94l-16 17z" />
    <glyph glyph-name="icircumflex" unicode="&#xee;" horiz-adv-x="333" 
d="M33 157l53 186q17 56 17 119q0 20 -2 41l1 4h191l-102 -363q-3 -13 -3 -22q0 -17 13 -17h3q32 3 84 62q2 2 4 5l11 -4q-30 -78 -82 -127t-114 -49q-60 0 -73.5 34t-13.5 60q0 32 13 71zM72 567l205 165l117 -165l-13 -11l-132 67l-169 -67z" />
    <glyph glyph-name="idieresis" unicode="&#xef;" horiz-adv-x="333" 
d="M33 157l53 186q17 56 17 119q0 20 -2 41l1 4h191l-102 -363q-3 -13 -3 -22q0 -17 13 -17h3q32 3 84 62q2 2 4 5l11 -4q-30 -78 -82 -127t-114 -49q-60 0 -73.5 34t-13.5 60q0 32 13 71zM280 646q9 35 38.5 59t63.5 24q32 0 46 -20t14 -39q0 -11 -4 -24q-9 -35 -38 -59
q-30 -24 -63 -24t-46.5 20t-13.5 40q0 11 3 23zM72 646q9 35 38.5 59t62.5 24t46.5 -20t13.5 -40q0 -11 -6 -34.5t-35.5 -47.5t-63.5 -24q-32 0 -46 20t-14 39q0 11 4 24z" />
    <glyph glyph-name="eth" unicode="&#xf0;" horiz-adv-x="584" 
d="M208 -12q-111 0 -166 65.5t-26 174.5q25 91 97.5 155.5t160.5 64.5q91 0 120 -66q27 103 -12 198l-138 -85l13 47l111 69q-41 77 -123 119q130 0 218 -61l129 80l-12 -47l-89 -55q62 -59 80.5 -151.5t-8.5 -188.5q-43 -159 -137.5 -239t-217.5 -80zM220 32q27 0 52 28
t46.5 81.5t35 97t30.5 106.5q-33 40 -72 40q-46 0 -80.5 -48t-52.5 -116q-23 -81 -12.5 -135t53.5 -54z" />
    <glyph glyph-name="ntilde" unicode="&#xf1;" horiz-adv-x="642" 
d="M86 342q15 57 15 161l1 4h181l-40 -162q103 168 214 168q62 0 86.5 -34.5t24.5 -70.5q0 -25 -8 -54l-62 -216q-3 -11 -3 -18q0 -15 14 -15h3q32 3 83 60l6 6l11 -4q-31 -78 -84 -127t-115 -49q-59 0 -73.5 31.5t-14.5 58.5q0 24 8 52l55 190q10 33 10 54q0 34 -27 34
q-36 0 -85.5 -62t-85.5 -183l-41 -166h-165zM222 558q3 52 42.5 99.5t95.5 47.5q25 0 70.5 -16t72.5 -16q64 0 109 46q-22 -80 -62.5 -117t-87.5 -37q-28 0 -79.5 17.5t-73.5 17.5h-2q-46 -2 -85 -42z" />
    <glyph glyph-name="ograve" unicode="&#xf2;" horiz-adv-x="535" 
d="M25 259q35 125 121.5 189.5t185.5 64.5q3 0 55.5 -1t94 -56t41.5 -117q0 -40 -13 -89q-35 -126 -121 -194t-182 -68h-6q-102 2 -146 60.5t-44 121.5q0 41 14 89zM176 71q8 -37 36 -37h2q19 0 37 18t35 58t26.5 66t25.5 77q24 67 24 136q0 3 -0.5 40.5t-39.5 38.5
q-14 0 -27 -8t-24.5 -26.5t-20.5 -34.5t-19.5 -47t-16 -47t-15.5 -49q-16 -51 -21.5 -87t-5.5 -57q0 -22 4 -41zM339 769l168 -187l-21 -17l-277 94z" />
    <glyph glyph-name="oacute" unicode="&#xf3;" horiz-adv-x="535" 
d="M25 259q35 125 121.5 189.5t185.5 64.5q3 0 55.5 -1t94 -56t41.5 -117q0 -40 -13 -89q-35 -126 -121 -194t-182 -68h-6q-102 2 -146 60.5t-44 121.5q0 41 14 89zM176 71q8 -37 36 -37h2q19 0 37 18t35 58t26.5 66t25.5 77q24 67 24 136q0 3 -0.5 40.5t-39.5 38.5
q-14 0 -27 -8t-24.5 -26.5t-20.5 -34.5t-19.5 -47t-16 -47t-15.5 -49q-16 -51 -21.5 -87t-5.5 -57q0 -22 4 -41zM445 778l101 -110l-303 -94l-16 16z" />
    <glyph glyph-name="ocircumflex" unicode="&#xf4;" horiz-adv-x="535" 
d="M25 259q35 125 121.5 189.5t185.5 64.5q3 0 55.5 -1t94 -56t41.5 -117q0 -40 -13 -89q-35 -126 -121 -194t-182 -68h-6q-102 2 -146 60.5t-44 121.5q0 41 14 89zM176 71q8 -37 36 -37h2q19 0 37 18t35 58t26.5 66t25.5 77q24 67 24 136q0 3 -0.5 40.5t-39.5 38.5
q-14 0 -27 -8t-24.5 -26.5t-20.5 -34.5t-19.5 -47t-16 -47t-15.5 -49q-16 -51 -21.5 -87t-5.5 -57q0 -22 4 -41zM396 736l118 -168l-13 -11l-133 68l-172 -68l-8 11z" />
    <glyph glyph-name="otilde" unicode="&#xf5;" horiz-adv-x="535" 
d="M25 259q35 125 121.5 189.5t185.5 64.5q3 0 55.5 -1t94 -56t41.5 -117q0 -40 -13 -89q-35 -126 -121 -194t-182 -68h-6q-102 2 -146 60.5t-44 121.5q0 41 14 89zM176 71q8 -37 36 -37h2q19 0 37 18t35 58t26.5 66t25.5 77q24 67 24 136q0 3 -0.5 40.5t-39.5 38.5
q-14 0 -27 -8t-24.5 -26.5t-20.5 -34.5t-19.5 -47t-16 -47t-15.5 -49q-16 -51 -21.5 -87t-5.5 -57q0 -22 4 -41zM177 558q3 52 42.5 99.5t95.5 47.5q25 0 70.5 -16t72.5 -16q64 0 109 46q-22 -80 -62.5 -117t-87.5 -37q-28 0 -79.5 17.5t-73.5 17.5h-2q-46 -2 -85 -42z" />
    <glyph glyph-name="odieresis" unicode="&#xf6;" horiz-adv-x="535" 
d="M25 259q35 125 121.5 189.5t185.5 64.5q3 0 55.5 -1t94 -56t41.5 -117q0 -40 -13 -89q-35 -126 -121 -194t-182 -68h-6q-102 2 -146 60.5t-44 121.5q0 41 14 89zM176 71q8 -37 36 -37h2q19 0 37 18t35 58t26.5 66t25.5 77q24 67 24 136q0 3 -0.5 40.5t-39.5 38.5
q-14 0 -27 -8t-24.5 -26.5t-20.5 -34.5t-19.5 -47t-16 -47t-15.5 -49q-16 -51 -21.5 -87t-5.5 -57q0 -22 4 -41zM188 646q9 35 38.5 59.5t62.5 24.5q34 0 47.5 -20t13.5 -41q0 -11 -3 -23q-9 -34 -39 -58.5t-64 -24.5q-32 0 -46 20t-14 39q0 11 4 24zM397 646
q10 35 39.5 59.5t63.5 24.5q32 0 46 -20t14 -40q0 -11 -4 -24q-9 -35 -38 -59q-30 -24 -63 -24t-47 20.5t-14 40.5q0 10 3 22z" />
    <glyph glyph-name="divide" unicode="&#xf7;" horiz-adv-x="535" 
d="M317 446q-22 0 -33.5 17.5t-5.5 41.5q7 23 28 41t43 18t33 -18t5 -41q-6 -24 -27 -41.5t-43 -17.5zM68 307l12 48h429l-13 -48h-428zM223 95q-22 0 -33.5 18t-4.5 41q6 23 27 41t42 18q23 0 34.5 -17.5t4.5 -41.5q-6 -24 -27 -41.5t-43 -17.5z" />
    <glyph glyph-name="oslash" unicode="&#xf8;" horiz-adv-x="539" 
d="M29 259q35 125 121.5 189.5t185.5 64.5h6q39 0 76 -13l45 67h48l-57 -85q73 -47 74 -142q-1 -41 -14 -90q-35 -126 -121 -194t-182 -68h-6q-41 2 -74 13l-45 -67h-47l57 84q-52 32 -65.5 75t-13.5 77q0 40 12 89zM364 420q-7 48 -38 48q-14 0 -27 -8t-24.5 -26.5
t-20.5 -34.5t-19.5 -47t-16 -47t-15.5 -49q-19 -56 -25 -114zM216 34h2q19 0 37 18t35 58t26.5 66t25.5 77q15 52 21 93l-184 -273q8 -39 37 -39z" />
    <glyph glyph-name="ugrave" unicode="&#xf9;" horiz-adv-x="643" 
d="M32 153l54 189q16 55 16 111q0 24 -3 49v5h199l-94 -323q-10 -33 -10 -54q0 -34 27 -34q37 0 88.5 66t86.5 194l41 151h163l-100 -369q-3 -10 -3 -18q0 -16 14 -16h2q32 3 82 59q4 4 7 8l11 -4q-30 -77 -83 -126.5t-115 -49.5q-59 0 -73 31.5t-14 58.5q0 24 7 52l4 13
q-100 -152 -204 -152q-62 0 -86.5 34.5t-24.5 70.5q0 25 8 54zM385 769l168 -187l-21 -17l-277 94z" />
    <glyph glyph-name="uacute" unicode="&#xfa;" horiz-adv-x="643" 
d="M32 153l54 189q16 55 16 111q0 24 -3 49v5h199l-94 -323q-10 -33 -10 -54q0 -34 27 -34q37 0 88.5 66t86.5 194l41 151h163l-100 -369q-3 -10 -3 -18q0 -16 14 -16h2q32 3 82 59q4 4 7 8l11 -4q-30 -77 -83 -126.5t-115 -49.5q-59 0 -73 31.5t-14 58.5q0 24 7 52l4 13
q-100 -152 -204 -152q-62 0 -86.5 34.5t-24.5 70.5q0 25 8 54zM491 778l101 -110l-303 -94l-16 16z" />
    <glyph glyph-name="ucircumflex" unicode="&#xfb;" horiz-adv-x="643" 
d="M32 153l54 189q16 55 16 111q0 24 -3 49v5h199l-94 -323q-10 -33 -10 -54q0 -34 27 -34q37 0 88.5 66t86.5 194l41 151h163l-100 -369q-3 -10 -3 -18q0 -16 14 -16h2q32 3 82 59q4 4 7 8l11 -4q-30 -77 -83 -126.5t-115 -49.5q-59 0 -73 31.5t-14 58.5q0 24 7 52l4 13
q-100 -152 -204 -152q-62 0 -86.5 34.5t-24.5 70.5q0 25 8 54zM235 568l207 166l117 -166l-13 -11l-133 67l-170 -67z" />
    <glyph glyph-name="udieresis" unicode="&#xfc;" horiz-adv-x="643" 
d="M32 153l54 189q16 55 16 111q0 24 -3 49v5h199l-94 -323q-10 -33 -10 -54q0 -34 27 -34q37 0 88.5 66t86.5 194l41 151h163l-100 -369q-3 -10 -3 -18q0 -16 14 -16h2q32 3 82 59q4 4 7 8l11 -4q-30 -77 -83 -126.5t-115 -49.5q-59 0 -73 31.5t-14 58.5q0 24 7 52l4 13
q-100 -152 -204 -152q-62 0 -86.5 34.5t-24.5 70.5q0 25 8 54zM234 646q9 35 38.5 59.5t62.5 24.5q34 0 47.5 -20t13.5 -41q0 -11 -3 -23q-9 -34 -39 -58q-30 -25 -63 -25t-47 20t-14 39q0 11 4 24zM443 646q10 35 39.5 59.5t63.5 24.5q32 0 46 -20t14 -40q0 -11 -4 -24
q-9 -35 -38 -59q-30 -24 -63 -24t-47 20.5t-14 40.5q0 10 3 22z" />
    <glyph glyph-name="yacute" unicode="&#xfd;" horiz-adv-x="573" 
d="M0 -7h4q42 -90 120 -90q8 0 15 1q21 2 42 9v18q0 193 -20 405q-6 65 -36 65q-28 0 -86 -63l-11 3q34 77 86 124.5t105 47.5q44 0 65 -36.5t32 -117.5q18 -150 18 -301v-16q94 138 102 295v23q0 63 -14 115l183 41q-24 -135 -92.5 -277.5t-171.5 -257.5t-211 -150
q-59 -21 -115 -21q-49 0 -95 16zM223 590l218 188l101 -110l-303 -94z" />
    <glyph glyph-name="thorn" unicode="&#xfe;" horiz-adv-x="569" 
d="M-88 -200l1 4l7 12q6 12 14 27.5t17.5 35t18 42.5t14.5 43l150 562q7 25 11 54.5t4.5 49.5t0.5 38v18l1 4h214l-1 -4l-14 -26q-15 -27 -31.5 -64.5t-25.5 -69.5l-23 -87q68 74 159 74q79 0 106.5 -50t27.5 -100q0 -46 -16 -105q-23 -87 -70.5 -150t-98 -90.5t-99.5 -27.5
q-77 0 -112 63l-23 -89q-7 -25 -11 -54.5t-4.5 -49.5t-1 -37.5t-0.5 -18.5l-1 -4h-214zM230 73q51 0 87.5 52.5t57.5 131.5q12 45 12.5 63.5t0.5 20.5q0 32 -14 54.5t-46 22.5q-34 0 -69 -23l-82 -304q25 -18 53 -18z" />
    <glyph glyph-name="ydieresis" unicode="&#xff;" horiz-adv-x="573" 
d="M0 -7h4q42 -90 120 -90q8 0 15 1q21 2 42 9v18q0 193 -20 405q-6 65 -36 65q-28 0 -86 -63l-11 3q34 77 86 124.5t105 47.5q44 0 65 -36.5t32 -117.5q18 -150 18 -301v-16q94 138 102 295v23q0 63 -14 115l183 41q-24 -135 -92.5 -277.5t-171.5 -257.5t-211 -150
q-59 -21 -115 -21q-49 0 -95 16zM184 646q9 35 38.5 59.5t62.5 24.5q34 0 47.5 -20t13.5 -41q0 -11 -3 -23q-9 -34 -39 -58.5t-64 -24.5q-32 0 -46 20t-14 39q0 11 4 24zM393 646q10 35 39.5 59.5t63.5 24.5q32 0 46 -20t14 -40q0 -11 -4 -24q-9 -35 -38 -59
q-30 -24 -63 -24t-47 20.5t-14 40.5q0 10 3 22z" />
    <glyph glyph-name="Amacron" unicode="&#x100;" horiz-adv-x="683" 
d="M-59 0l1 4q71 89 152 223l217 357q7 12 12.5 25.5t8 26t4 24t2 19t0.5 11.5t-0.5 9.5t-1.5 10.5v6l1 4h189l48 -549q10 -107 34 -167l-1 -4h-251l1 4q0 1 9.5 20t18 40t14 48t5.5 47v12l-6 73h-239l-23 -40q-15 -25 -24 -53t-11.5 -52.5t-2.5 -43.5t1 -34t1 -16l-1 -5
h-158zM394 291l-26 297l-179 -297h205zM365 878h289l-12 -47h-289z" />
    <glyph glyph-name="amacron" unicode="&#x101;" horiz-adv-x="614" 
d="M40 301q25 62 58 106.5t68.5 66t66.5 30.5t61 9q43 0 75 -16t46 -43q70 21 133 53h22l-99 -368q-3 -11 -3 -19q0 -16 14 -16h3q32 4 85 63q1 2 3 4l11 -4q-31 -78 -84 -127t-115 -49q-54 0 -70 28t-16 59q0 16 3 34q-91 -123 -184 -123q-83 0 -98 59.5t-15 91.5
q0 71 35 161zM179 104q8 -17 28 -17q36 0 78 55t70 164h1l31 112q-7 38 -44 40q-38 0 -72 -49.5t-57 -112.5q-17 -44 -27.5 -80.5t-12.5 -55t-2 -24.5q0 -20 7 -32zM255 618l13 47h289l-12 -47h-290z" />
    <glyph glyph-name="Abreve" unicode="&#x102;" horiz-adv-x="683" 
d="M-59 0l1 4q71 89 152 223l217 357q7 12 12.5 25.5t8 26t4 24t2 19t0.5 11.5t-0.5 9.5t-1.5 10.5v6l1 4h189l48 -549q10 -107 34 -167l-1 -4h-251l1 4q0 1 9.5 20t18 40t14 48t5.5 47v12l-6 73h-239l-23 -40q-15 -25 -24 -53t-11.5 -52.5t-2.5 -43.5t1 -34t1 -16l-1 -5
h-158zM394 291l-26 297l-179 -297h205zM373 930h20q6 -30 40.5 -47t72.5 -17t81 17t65 47h19q-16 -63 -71 -107q-56 -45 -118 -45t-88.5 36.5t-26.5 73.5q0 20 6 42z" />
    <glyph glyph-name="abreve" unicode="&#x103;" horiz-adv-x="614" 
d="M40 301q25 62 58 106.5t68.5 66t66.5 30.5t61 9q43 0 75 -16t46 -43q70 21 133 53h22l-99 -368q-3 -11 -3 -19q0 -16 14 -16h3q32 4 85 63q1 2 3 4l11 -4q-31 -78 -84 -127t-115 -49q-54 0 -70 28t-16 59q0 16 3 34q-91 -123 -184 -123q-83 0 -98 59.5t-15 91.5
q0 71 35 161zM179 104q8 -17 28 -17q36 0 78 55t70 164h1l31 112q-7 38 -44 40q-38 0 -72 -49.5t-57 -112.5q-17 -44 -27.5 -80.5t-12.5 -55t-2 -24.5q0 -20 7 -32zM277 717h20q6 -30 40.5 -47t72.5 -17t81 17t65 47h19q-16 -63 -71 -107q-56 -45 -118 -45t-88.5 36.5
t-26.5 73.5q0 20 6 42z" />
    <glyph glyph-name="Aogonek" unicode="&#x104;" horiz-adv-x="683" 
d="M-59 0l1 4q71 89 152 223l217 357q7 12 12.5 25.5t8 26t4 24t2 19t0.5 11.5t-0.5 9.5t-1.5 10.5v6l1 4h189l48 -549q10 -107 34 -167l-1 -4h-97q-43 -40 -43 -85q0 -31 17.5 -38t26.5 -7q19 0 41 15v-34q-49 -31 -98 -31q-42 0 -66.5 22.5t-24.5 57.5q0 66 76 100h-83
l1 4q0 1 9.5 20t18 40t14 48t5.5 47v12l-6 73h-239l-23 -40q-15 -25 -24 -53t-11.5 -52.5t-2.5 -43.5t1 -34t1 -16l-1 -5h-158zM189 291h205l-26 297z" />
    <glyph glyph-name="aogonek" unicode="&#x105;" horiz-adv-x="614" 
d="M40 301q25 62 58 106.5t68.5 66t66.5 30.5t61 9q43 0 75 -16t46 -43q70 21 133 53h22l-99 -368q-3 -11 -3 -19q0 -16 14 -16h3q32 4 85 63q1 2 3 4l11 -4q-47 -119 -133 -161q-22 -17 -36.5 -42.5t-14.5 -48.5q0 -31 17.5 -38t26.5 -7q19 0 41 15v-34q-49 -31 -98 -31
q-42 0 -66.5 22.5t-24.5 57.5q0 58 63 94q-60 12 -60 81q0 17 3 37q-91 -123 -184 -123q-83 0 -98 59.5t-15 91.5q0 71 35 161zM179 104q8 -17 28 -17q36 0 78 55t70 164h1l31 112q-7 38 -44 40q-38 0 -72 -49.5t-57 -112.5q-17 -44 -27.5 -80.5t-12.5 -55t-2 -24.5
q0 -20 7 -32z" />
    <glyph glyph-name="Cacute" unicode="&#x106;" horiz-adv-x="644" 
d="M65 364q45 169 157 267.5t268 98.5q88 0 225 -41l-53 -200h-6q-12 35 -27.5 66t-36.5 62.5t-48 50t-56 18.5q-67 0 -129 -89t-100 -232q-25 -87 -25 -163q0 -34 10.5 -101.5t74.5 -67.5q94 0 274 207h6l-54 -201q-134 -51 -241 -51q-147 0 -201.5 85t-54.5 171
q0 56 17 120zM298 803l218 188l101 -110l-303 -94z" />
    <glyph glyph-name="cacute" unicode="&#x107;" horiz-adv-x="500" 
d="M31 283q21 78 71 132t105 76t113 22q76 0 159 -45l-41 -160h-5q-2 6 -7 20.5t-8 23.5t-8.5 23.5t-10 24t-10.5 22t-12 20t-13 14.5t-15 10.5t-16 3.5q-37 0 -76 -57.5t-57 -129.5q-13 -45 -13 -82q0 -28 12.5 -66.5t69.5 -38.5q42 0 97.5 28t84.5 64l12 -4
q-42 -80 -114 -137.5t-155 -57.5q-98 0 -137.5 64.5t-39.5 130.5q0 45 14 99zM219 590l218 188l101 -110l-303 -94z" />
    <glyph glyph-name="Ccaron" unicode="&#x10c;" horiz-adv-x="644" 
d="M65 364q45 169 157 267.5t268 98.5q88 0 225 -41l-53 -200h-6q-12 35 -27.5 66t-36.5 62.5t-48 50t-56 18.5q-67 0 -129 -89t-100 -232q-25 -87 -25 -163q0 -34 10.5 -101.5t74.5 -67.5q94 0 274 207h6l-54 -201q-134 -51 -241 -51q-147 0 -201.5 85t-54.5 171
q0 56 17 120zM319 965l135 -68l170 68l7 -11l-208 -168l-119 168z" />
    <glyph glyph-name="ccaron" unicode="&#x10d;" horiz-adv-x="500" 
d="M31 283q21 78 71 132t105 76t113 22q76 0 159 -45l-41 -160h-5q-2 6 -7 20.5t-8 23.5t-8.5 23.5t-10 24t-10.5 22t-12 20t-13 14.5t-15 10.5t-16 3.5q-37 0 -76 -57.5t-57 -129.5q-13 -45 -13 -82q0 -28 12.5 -66.5t69.5 -38.5q42 0 97.5 28t84.5 64l12 -4
q-42 -80 -114 -137.5t-155 -57.5q-98 0 -137.5 64.5t-39.5 130.5q0 45 14 99zM226 739l14 12l135 -68l168 68l7 -12l-206 -166z" />
    <glyph glyph-name="Dcaron" unicode="&#x10e;" horiz-adv-x="704" 
d="M-18 16q7 13 14.5 28t16.5 34.5t18 42.5t14 43l104 392q7 25 10.5 54.5t4.5 49.5t1 38v18l1 4h290q93 0 157.5 -45.5t80.5 -106t16 -102.5q0 -58 -18 -128q-41 -153 -163.5 -245.5t-265.5 -92.5h-290zM225 44q99 0 170.5 90.5t107.5 223.5q16 62 18.5 97.5t2.5 50.5
q0 37 -8 76.5t-39 67t-82 27.5h-39l-169 -633h38zM267 954l15 11l135 -68l170 68l7 -11l-208 -168z" />
    <glyph glyph-name="dcaron" unicode="&#x10f;" horiz-adv-x="716" 
d="M40 301q24 62 58 106.5t68.5 66t64 30.5t56.5 9q72 -1 105 -63l31 115q9 32 13 69t4 56q0 2 -0.5 12.5t-0.5 19.5v4l195 23l-163 -610q-3 -11 -3 -19q0 -16 14 -16h3q32 4 85 63q1 2 3 4l11 -4q-31 -78 -84 -127t-115 -49q-54 0 -70 28.5t-16 59.5q0 16 3 34
q-89 -124 -184 -124q-83 0 -98 59.5t-15 91.5q0 71 35 161zM179 104q8 -17 28 -17q33 0 70.5 46.5t66.5 138.5l33 121q-6 48 -40 50q-34 0 -68 -45t-55 -102q-17 -44 -27.5 -80.5t-12.5 -55t-2 -24.5q0 -20 7 -32zM599 418q45 24 72 60.5t34 67.5h-5q-37 0 -52.5 22.5
t-15.5 46.5q0 14 4 30q11 40 42 65.5t66 25.5q40 -1 54.5 -28t14.5 -54q0 -20 -6 -44q-14 -63 -61.5 -118t-110.5 -74h-36z" />
    <glyph glyph-name="Dcroat" unicode="&#x110;" horiz-adv-x="732" 
d="M17 4q1 1 9.5 18t19 37.5t22 50t18.5 54.5l45 166h-87l13 47h87l47 179q7 25 10.5 54.5t4 49.5t0.5 38v18l1 4h283q141 0 196.5 -80t55.5 -164q0 -52 -17 -114q-43 -164 -164 -263t-262 -99h-283zM260 44q51 0 96.5 26.5t80 72.5t60 101t41.5 118q16 61 18 95.5t2 47.5
q0 38 -8 78t-39.5 67t-81.5 27h-38l-80 -300h126l-12 -47h-126l-77 -286h38z" />
    <glyph glyph-name="dcroat" unicode="&#x111;" horiz-adv-x="603" 
d="M40 301q24 62 58 106.5t68.5 66t64 30.5t56.5 9q72 -1 105 -63l31 115q1 3 2.5 9.5t2.5 9.5h-155l11 47h151q5 43 5 69q0 13 -1 22v4l195 23l-32 -118h79l-12 -47h-79l-119 -445q-3 -11 -3 -19q0 -16 14 -16h3q32 4 85 63q1 2 3 4l11 -4q-31 -78 -84 -127t-115 -49
q-54 0 -70 28.5t-16 59.5q0 16 3 34q-89 -124 -184 -124q-83 0 -98 59.5t-15 91.5q0 71 35 161zM179 104q8 -17 28 -17q33 0 70.5 46.5t66.5 138.5l33 121q-6 48 -40 50q-34 0 -68 -45t-55 -102q-17 -44 -27.5 -80.5t-12.5 -55t-2 -24.5q0 -20 7 -32z" />
    <glyph glyph-name="Emacron" unicode="&#x112;" horiz-adv-x="590" 
d="M-27 0l1 4l14 26q15 27 31.5 64.5t24.5 69.5l104 392q9 32 12.5 69.5t4 63.5t0.5 27l1 4h508l-53 -196h-4q-1 0 -23 39.5t-58.5 76t-75.5 36.5h-105l-77 -289h31q30 0 67.5 8.5t64 18.5t49 19.5t24.5 9.5h4l-40 -150h-5l-27 15q-26 14 -67.5 27.5t-80.5 13.5h-30
l-82 -305h109q39 0 95 37t98.5 76.5t43.5 39.5h5l-53 -197h-511zM319 878h289l-12 -47h-289z" />
    <glyph glyph-name="emacron" unicode="&#x113;" horiz-adv-x="511" 
d="M28 273q18 63 52.5 111t77.5 75t87 40.5t87 13.5q81 0 122 -34.5t41 -75.5q0 -15 -4 -31q-17 -64 -93.5 -102t-187.5 -38h-23q-2 -17 -2 -32q0 -40 18 -72t66 -32q44 0 98 26t90 66l13 -4q-42 -79 -117 -137t-159 -58q-97 0 -138.5 64t-41.5 128q0 43 14 92zM192 263
q69 10 109.5 43.5t54.5 74.5q8 20 8 38q0 11 -5 31t-31 20q-38 0 -75 -56t-56 -129q-4 -14 -5 -22zM208 618l13 47h289l-12 -47h-290z" />
    <glyph glyph-name="Edotaccent" unicode="&#x116;" horiz-adv-x="590" 
d="M-26 4l14 26q15 27 31.5 64.5t24.5 69.5l104 392q9 32 12.5 69.5t4 63.5t0.5 27l1 4h508l-53 -196h-4q-1 0 -23 39.5t-58.5 76t-75.5 36.5h-105l-77 -289h31q30 0 67.5 8.5t64 18.5t49 19.5t24.5 9.5h4l-40 -150h-5l-27 15q-26 14 -67.5 27.5t-80.5 13.5h-30l-82 -305
h109q39 0 95 37t98.5 76.5t43.5 39.5h5l-53 -197h-511zM360 879q11 42 47.5 71.5t77.5 29.5q40 0 57 -24.5t17 -48.5q0 -13 -7.5 -41.5t-44.5 -58t-77 -29.5q-39 0 -56.5 24.5t-17.5 49.5q0 13 4 27z" />
    <glyph glyph-name="edotaccent" unicode="&#x117;" horiz-adv-x="511" 
d="M28 273q18 63 52.5 111t77.5 75t87 40.5t87 13.5q81 0 122 -34.5t41 -75.5q0 -15 -4 -31q-17 -64 -93.5 -102t-187.5 -38h-23q-2 -17 -2 -32q0 -40 18 -72t66 -32q44 0 98 26t90 66l13 -4q-42 -79 -117 -137t-159 -58q-97 0 -138.5 64t-41.5 128q0 43 14 92zM262 666
q11 42 47.5 71.5t77.5 29.5q40 0 57 -24.5t17 -48.5q0 -13 -7.5 -41.5t-44.5 -58t-77 -29.5q-39 0 -56.5 24.5t-17.5 49.5q0 13 4 27zM302 307q40 33 54 74q8 20 8 38q0 11 -5 31t-31 20q-38 0 -75 -56t-56 -129q-4 -14 -5 -22q69 10 110 44z" />
    <glyph glyph-name="Eogonek" unicode="&#x118;" horiz-adv-x="590" 
d="M-27 0l1 4l14 26q15 27 31.5 64.5t24.5 69.5l104 392q9 32 12.5 69.5t4 63.5t0.5 27l1 4h508l-53 -196h-4q-1 0 -23 39.5t-58.5 76t-75.5 36.5h-105l-77 -289h31q30 0 67.5 8.5t64 18.5t49 19.5t24.5 9.5h4l-40 -150h-5l-27 15q-26 14 -67.5 27.5t-80.5 13.5h-30
l-82 -305h109q39 0 95 37t98.5 76.5t43.5 39.5h5l-53 -197h-64q-43 -40 -43 -85q0 -31 17.5 -38t26.5 -7q19 0 41 15v-34q-49 -31 -98 -31q-42 0 -66.5 22.5t-24.5 57.5q0 66 76 100h-376z" />
    <glyph glyph-name="eogonek" unicode="&#x119;" horiz-adv-x="511" 
d="M28 273q18 63 52.5 111t77.5 75t87 40.5t87 13.5q81 0 122 -34.5t41 -75.5q0 -15 -4 -31q-17 -64 -93.5 -102t-187.5 -38h-23q-2 -17 -2 -32q0 -40 18 -72t66 -32q44 0 98 26t90 66l13 -4q-35 -66 -96.5 -120t-132.5 -70q-37 -39 -37 -79q0 -31 17.5 -38t26.5 -7
q19 0 41 15v-34q-49 -31 -98 -31q-42 0 -66.5 22.5t-24.5 57.5q0 56 60 92q-83 14 -114.5 74t-31.5 115q0 43 14 92zM302 307q40 33 54 74q8 20 8 38q0 11 -5 31t-31 20q-38 0 -75 -56t-56 -129q-4 -14 -5 -22q69 10 110 44z" />
    <glyph glyph-name="Ecaron" unicode="&#x11a;" horiz-adv-x="590" 
d="M-27 0l1 4l14 26q15 27 31.5 64.5t24.5 69.5l104 392q9 32 12.5 69.5t4 63.5t0.5 27l1 4h508l-53 -196h-4q-1 0 -23 39.5t-58.5 76t-75.5 36.5h-105l-77 -289h31q30 0 67.5 8.5t64 18.5t49 19.5t24.5 9.5h4l-40 -150h-5l-27 15q-26 14 -67.5 27.5t-80.5 13.5h-30
l-82 -305h109q39 0 95 37t98.5 76.5t43.5 39.5h5l-53 -197h-511zM335 965l135 -68l170 68l7 -11l-208 -168l-119 168z" />
    <glyph glyph-name="ecaron" unicode="&#x11b;" horiz-adv-x="511" 
d="M28 273q18 63 52.5 111t77.5 75t87 40.5t87 13.5q81 0 122 -34.5t41 -75.5q0 -15 -4 -31q-17 -64 -93.5 -102t-187.5 -38h-23q-2 -17 -2 -32q0 -40 18 -72t66 -32q44 0 98 26t90 66l13 -4q-42 -79 -117 -137t-159 -58q-97 0 -138.5 64t-41.5 128q0 43 14 92zM192 263
q69 10 109.5 43.5t54.5 74.5q8 20 8 38q0 11 -5 31t-31 20q-38 0 -75 -56t-56 -129q-4 -14 -5 -22zM237 751l135 -68l168 68l7 -12l-206 -166l-118 166z" />
    <glyph glyph-name="uni0122" unicode="&#x122;" horiz-adv-x="708" 
d="M65 367q44 166 157.5 264.5t257.5 98.5q130 0 251 -56l-53 -197h-8q-1 2 -8.5 22.5t-14 35.5t-18 39t-25 41t-31 34.5t-39.5 27t-47 9.5h-3q-66 0 -124.5 -81.5t-100.5 -237.5q-28 -101 -28 -177q0 -33 11.5 -94t85.5 -61q46 0 103 24l38 144q5 24 5 45q0 14 -4 35.5
t-14 50.5l-11 29l1 4h257l-1 -4q-38 -75 -60 -160l-37 -138q-49 -27 -137 -51.5t-164 -24.5q-146 0 -201 86t-55 173q0 55 17 119zM305 -297q26 36 33 67h-5q-37 0 -52 22t-15 45q0 14 4 30q10 40 40.5 64.5t62.5 24.5h3q39 0 53 -26.5t14 -53.5q0 -20 -5 -43
q-14 -62 -60.5 -116.5t-108.5 -71.5h-36q45 23 72 58z" />
    <glyph glyph-name="uni0123" unicode="&#x123;" horiz-adv-x="493" 
d="M-66 -80q12 36 50 66q-14 19 -14 47q0 15 4 32q25 88 134 115q-40 21 -53 57t-13 63q0 25 7 51q15 59 60.5 97t94.5 51.5t102 13.5q62 0 107 -24q67 103 158 103q13 0 27 -2l-55 -127l-4 -1q-27 20 -62 20q-20 0 -43 -7q30 -22 37.5 -50t7.5 -48q0 -25 -7 -54
q-16 -60 -62 -100t-95.5 -54t-102.5 -14q-41 0 -74 13q-40 -11 -50 -37q-1 -4 -1 -7q0 -10 12 -16.5t39 -6.5h146q73 0 103.5 -38t30.5 -77q0 -21 -6 -44q-40 -142 -291 -142q-31 0 -62.5 4.5t-68 15.5t-49.5 31.5t-13 38.5q0 14 6 30zM260 677q15 64 62 119t111 73h36
q-45 -24 -72.5 -60t-34.5 -67h5q38 0 53 -22.5t15 -46.5q0 -14 -4 -30q-11 -41 -41.5 -66t-63.5 -25h-3q-40 1 -54 28t-14 54q0 20 5 43zM188 240q4 -45 35 -45t57 40.5t41 97.5q12 39 12 74q0 11 -3 38t-35 27q-30 0 -55.5 -40t-40.5 -97q-12 -39 -12 -74q0 -11 1 -21z
M33 -112q15 -43 104 -43q57 0 110.5 15.5t61.5 45.5q1 4 1 7q0 33 -75 33h-142q-37 0 -58 7q-8 -22 -8 -39q0 -14 6 -26z" />
    <glyph glyph-name="Imacron" unicode="&#x12a;" horiz-adv-x="312" 
d="M-26 0l1 4l7 12q7 12 14.5 27.5t17 35t18 42.5t13.5 43l105 392q9 32 12.5 69.5t4 63.5t0.5 27v4h228l-1 -4l-14 -26q-15 -27 -31.5 -64.5t-24.5 -69.5l-105 -392q-7 -25 -10.5 -54.5t-4.5 -49.5t-1 -37v-19l-1 -4h-228zM167 830l12 47h289l-13 -47h-288z" />
    <glyph glyph-name="imacron" unicode="&#x12b;" horiz-adv-x="333" 
d="M33 157l53 186q17 56 17 119q0 20 -2 41l1 4h191l-102 -363q-3 -13 -3 -22q0 -17 13 -17h3q32 3 84 62q2 2 4 5l11 -4q-30 -78 -82 -127t-114 -49q-60 0 -73.5 34t-13.5 60q0 32 13 71zM103 618l13 46h287l-13 -46h-287z" />
    <glyph glyph-name="Iogonek" unicode="&#x12e;" horiz-adv-x="312" 
d="M-26 0l1 4l7 12q7 12 14.5 27.5t17 35t18 42.5t13.5 43l105 392q9 32 12.5 69.5t4 63.5t0.5 27v4h228l-1 -4l-14 -26q-15 -27 -31.5 -64.5t-24.5 -69.5l-105 -392q-7 -25 -10.5 -54.5t-4.5 -49.5t-1 -37v-19l-1 -4h-63q-43 -40 -43 -85q0 -31 17.5 -38t26.5 -7
q19 0 41 15v-34q-49 -31 -98 -31q-42 0 -66.5 22.5t-24.5 57.5q0 66 76 100h-94z" />
    <glyph glyph-name="iogonek" unicode="&#x12f;" horiz-adv-x="333" 
d="M16 -100q0 59 65 95q-44 9 -52 40t-8 50q0 33 12 72l53 186q17 56 17 119q0 20 -2 41l1 4h191l-102 -363q-3 -13 -3 -22q0 -17 13 -17h3q32 3 84 62q2 2 4 5l11 -4q-46 -120 -131 -161q-23 -17 -37.5 -43t-14.5 -49q0 -31 17.5 -38t26.5 -7q19 0 41 15v-34
q-49 -31 -98 -31q-42 0 -66.5 22.5t-24.5 57.5zM157 666q11 42 47.5 71.5t77.5 29.5q40 0 57 -24.5t17 -48.5q0 -13 -7.5 -41.5t-44.5 -58t-77 -29.5q-39 0 -56.5 24.5t-17.5 49.5q0 13 4 27z" />
    <glyph glyph-name="dotlessi" unicode="&#x131;" horiz-adv-x="333" 
d="M33 157l53 186q17 56 17 119q0 20 -2 41l1 4h191l-102 -363q-3 -13 -3 -22q0 -17 13 -17h3q32 3 84 62q2 2 4 5l11 -4q-30 -78 -82 -127t-114 -49q-60 0 -73.5 34t-13.5 60q0 32 13 71z" />
    <glyph glyph-name="uni0136" unicode="&#x136;" horiz-adv-x="708" 
d="M-27 0l1 4l14 26q15 27 31.5 64.5t24.5 69.5l105 392q7 25 10.5 54.5t4.5 49.5t1 38v18l1 4h228l-1 -4l-15 -26q-14 -27 -30.5 -64.5t-24.5 -69.5l-104 -392q-7 -25 -11 -54.5t-4.5 -49.5t-0.5 -37v-19l-2 -4h-228zM288 367l222 174q97 75 97 175l1 5h208v-4
q-72 -44 -153 -109l-228 -188l130 -298q11 -26 27 -54t28 -45.5t12 -18.5l-1 -4h-249q0 1 1 15.5t1.5 26t0.5 15.5q0 15 -2.5 37t-9.5 42l-89 221v3q0 4 4 7zM132 -345q45 23 71.5 58.5t33.5 66.5h-5q-37 0 -52 22t-15 45q0 14 4 30q10 40 40.5 64.5t62.5 24.5h3
q39 0 53 -26.5t14 -53.5q0 -20 -5 -43q-14 -62 -60.5 -116.5t-108.5 -71.5h-36z" />
    <glyph glyph-name="uni0137" unicode="&#x137;" horiz-adv-x="584" 
d="M-53 0l1 4l7 12q7 12 14.5 27.5t17 35t18.5 42.5t14 43l108 401q4 17 7 36t4.5 35t1.5 32v26q0 10 -0.5 18.5t-0.5 9.5v4l200 23l-157 -585q-7 -25 -11 -54.5t-4.5 -49.5t-0.5 -37v-19l-1 -4h-218zM222 263v2l133 98q22 16 36 35t19 36.5t6 27.5t1 18v10l-1 12l2 5h189
l-1 -5l-236 -184l51 -172q13 -38 33 -41h4q29 0 84 64l11 -4q-28 -78 -76.5 -126t-100.5 -48q-26 0 -45 12t-31 32.5t-20.5 43.5t-15.5 49l-3 12zM145 -287q26 36 33 67h-5q-37 0 -52 22t-15 45q0 14 4 30q10 40 40.5 64.5t62.5 24.5h3q39 0 53 -26.5t14 -53.5q0 -20 -5 -43
q-14 -62 -60.5 -116.5t-108.5 -71.5h-36q45 23 72 58z" />
    <glyph glyph-name="Lacute" unicode="&#x139;" horiz-adv-x="553" 
d="M-24 4l14 26q15 27 31.5 64.5t25.5 69.5l104 392q7 25 10.5 54.5t4.5 49.5t1 38v18l1 4h229l-1 -4l-14 -26q-15 -27 -32 -64.5t-25 -69.5l-136 -512h83q39 0 96 40.5t102 83.5l44 44h4l-56 -212h-487zM447 991l101 -110l-303 -94l-16 16z" />
    <glyph glyph-name="lacute" unicode="&#x13a;" horiz-adv-x="329" 
d="M22 134l116 431q16 61 16 158v3l195 23l-162 -605q-3 -13 -3 -22q0 -18 14 -18h2q32 3 84 63q2 2 4 5l11 -4q-30 -77 -83 -126.5t-115 -49.5q-41 0 -63 21t-23 39t-1 23q0 27 8 59zM202 888l218 188l101 -110l-303 -94z" />
    <glyph glyph-name="uni013B" unicode="&#x13b;" horiz-adv-x="553" 
d="M-25 0l1 4l14 26q15 27 31.5 64.5t25.5 69.5l104 392q7 25 10.5 54.5t4.5 49.5t1 38v18l1 4h229l-1 -4l-14 -26q-15 -27 -32 -64.5t-25 -69.5l-136 -512h83q39 0 96 40.5t102 83.5l44 44h4l-56 -212h-487zM221 -287q26 36 33 67h-5q-37 0 -52 22t-15 45q0 14 4 30
q10 40 40.5 64.5t62.5 24.5h3q39 0 53 -26.5t14 -53.5q0 -20 -5 -43q-14 -62 -60.5 -116.5t-108.5 -71.5h-36q45 23 72 58z" />
    <glyph glyph-name="uni013C" unicode="&#x13c;" horiz-adv-x="329" 
d="M22 134l116 431q16 61 16 158v3l195 23l-162 -605q-3 -13 -3 -22q0 -18 14 -18h2q32 3 84 63q2 2 4 5l11 -4q-30 -77 -83 -126.5t-115 -49.5q-41 0 -63 21t-23 39t-1 23q0 27 8 59zM-57 -345q45 23 71.5 58.5t33.5 66.5h-5q-37 0 -52 22t-15 45q0 14 4 30
q10 40 40.5 64.5t62.5 24.5h3q39 0 53 -26.5t14 -53.5q0 -20 -5 -43q-14 -62 -60.5 -116.5t-108.5 -71.5h-36z" />
    <glyph glyph-name="Lcaron" unicode="&#x13d;" horiz-adv-x="553" 
d="M-25 0l1 4l14 26q15 27 31.5 64.5t25.5 69.5l104 392q7 25 10.5 54.5t4.5 49.5t1 38v18l1 4h229l-1 -4l-14 -26q-15 -27 -32 -64.5t-25 -69.5l-136 -512h83q39 0 96 40.5t102 83.5l44 44h4l-56 -212h-487zM393 418q45 24 72 60.5t34 67.5h-5q-37 0 -52 22.5t-15 46.5
q0 14 4 30q10 40 41 65.5t67 25.5q39 -1 53.5 -28t14.5 -54q0 -20 -6 -44q-14 -63 -61.5 -118t-110.5 -74h-36z" />
    <glyph glyph-name="lcaron" unicode="&#x13e;" horiz-adv-x="448" 
d="M22 134l116 431q16 61 16 158v3l195 23l-162 -605q-3 -13 -3 -22q0 -18 14 -18h2q32 3 84 63q2 2 4 5l11 -4q-30 -77 -83 -126.5t-115 -49.5q-41 0 -63 21t-23 39t-1 23q0 27 8 59zM324 422q45 24 72 60t34 67h-3q-40 0 -55 22.5t-15 46.5q0 14 4 30q11 41 41.5 66
t63.5 25h3q40 -1 54.5 -27.5t14.5 -53.5q0 -20 -6 -44q-15 -64 -62 -119t-110 -73h-36z" />
    <glyph glyph-name="Lslash" unicode="&#x141;" horiz-adv-x="632" 
d="M6 264l106 54l64 238q7 25 10.5 54.5t4 49.5t0.5 38v18l1 4h230l-1 -4l-15 -26q-14 -27 -31 -64.5t-25 -69.5l-36 -136l199 101l-11 -48l-202 -102l-87 -327h84q39 0 96 40.5t101 83.5l45 44h4l-56 -212h-488l1 4l6 12q7 12 15 27.5t17.5 35t18 42.5t14.5 43l28 105
l-104 -53z" />
    <glyph glyph-name="lslash" unicode="&#x142;" horiz-adv-x="408" 
d="M1 241l14 51l122 59l58 214q9 32 13 68.5t4 55.5q0 2 -0.5 13t-0.5 21v3l196 23l-83 -308l140 67l-14 -52l-140 -67l-66 -245q-3 -13 -3 -22q0 -18 15 -18h3q33 6 86 68l11 -4q-30 -77 -83 -126.5t-115 -49.5q-59 0 -73 31.5t-14 58.5q0 24 8 52l45 166z" />
    <glyph glyph-name="Nacute" unicode="&#x143;" horiz-adv-x="699" 
d="M-36 6q1 1 16.5 26.5t33.5 56t37.5 74.5t29.5 80l82 307q9 33 9.5 55t0.5 27q0 32 -3 57.5t-3 26.5l1 4h184l200 -521l74 279q10 36 13.5 75t3.5 66q0 6 -0.5 24.5t-2 44t-1.5 26.5l1 6h155l-2 -6q-1 -2 -16.5 -27t-33.5 -55.5t-38 -74t-30 -79.5l-127 -478h-102
l-223 589l-94 -346q-10 -36 -12.5 -72.5t-2.5 -60.5q0 -11 1 -31.5t3 -45.5t2 -27l-1 -6h-157zM365 803l218 188l101 -110l-303 -94z" />
    <glyph glyph-name="nacute" unicode="&#x144;" horiz-adv-x="642" 
d="M-6 0l92 342q15 57 15 161l1 4h181l-40 -162q103 168 214 168q62 0 86.5 -34.5t24.5 -70.5q0 -25 -8 -54l-62 -216q-3 -11 -3 -18q0 -15 14 -15h3q32 3 83 60l6 6l11 -4q-31 -78 -84 -127t-115 -49q-59 0 -73.5 31.5t-14.5 58.5q0 24 8 52l55 190q10 33 10 54
q0 34 -27 34q-36 0 -85.5 -62t-85.5 -183l-41 -166h-165zM272 590l218 188l101 -110l-303 -94z" />
    <glyph glyph-name="uni0145" unicode="&#x145;" horiz-adv-x="699" 
d="M-38 0l2 6q1 1 16.5 26.5t33.5 56t37.5 74.5t29.5 80l82 307q9 33 9.5 55t0.5 27q0 32 -3 57.5t-3 26.5l1 4h184l200 -521l74 279q10 36 13.5 75t3.5 66q0 6 -0.5 24.5t-2 44t-1.5 26.5l1 6h155l-2 -6q-1 -2 -16.5 -27t-33.5 -55.5t-38 -74t-30 -79.5l-127 -478h-102
l-223 589l-94 -346q-10 -36 -12.5 -72.5t-2.5 -60.5q0 -11 1 -31.5t3 -45.5t2 -27l-1 -6h-157zM193 -287q26 36 33 67h-5q-37 0 -52 22t-15 45q0 14 4 30q10 40 40.5 64.5t62.5 24.5h3q39 0 53 -26.5t14 -53.5q0 -20 -5 -43q-14 -62 -60.5 -116.5t-108.5 -71.5h-36
q45 23 72 58z" />
    <glyph glyph-name="uni0146" unicode="&#x146;" horiz-adv-x="642" 
d="M86 342q15 57 15 161l1 4h181l-40 -162q103 168 214 168q62 0 86.5 -34.5t24.5 -70.5q0 -25 -8 -54l-62 -216q-3 -11 -3 -18q0 -15 14 -15h3q32 3 83 60l6 6l11 -4q-31 -78 -84 -127t-115 -49q-59 0 -73.5 31.5t-14.5 58.5q0 24 8 52l55 190q10 33 10 54q0 34 -27 34
q-36 0 -85.5 -62t-85.5 -183l-41 -166h-165zM167 -287q26 36 33 67h-5q-37 0 -52 22t-15 45q0 14 4 30q10 40 40.5 64.5t62.5 24.5h3q39 0 53 -26.5t14 -53.5q0 -20 -5 -43q-14 -62 -60.5 -116.5t-108.5 -71.5h-36q45 23 72 58z" />
    <glyph glyph-name="Ncaron" unicode="&#x147;" horiz-adv-x="699" 
d="M-36 6q1 1 16.5 26.5t33.5 56t37.5 74.5t29.5 80l82 307q9 33 9.5 55t0.5 27q0 32 -3 57.5t-3 26.5l1 4h184l200 -521l74 279q10 36 13.5 75t3.5 66q0 6 -0.5 24.5t-2 44t-1.5 26.5l1 6h155l-2 -6q-1 -2 -16.5 -27t-33.5 -55.5t-38 -74t-30 -79.5l-127 -478h-102
l-223 589l-94 -346q-10 -36 -12.5 -72.5t-2.5 -60.5q0 -11 1 -31.5t3 -45.5t2 -27l-1 -6h-157zM371 954l15 11l135 -68l170 68l7 -11l-208 -168z" />
    <glyph glyph-name="ncaron" unicode="&#x148;" horiz-adv-x="642" 
d="M86 342q15 57 15 161l1 4h181l-40 -162q103 168 214 168q62 0 86.5 -34.5t24.5 -70.5q0 -25 -8 -54l-62 -216q-3 -11 -3 -18q0 -15 14 -15h3q32 3 83 60l6 6l11 -4q-31 -78 -84 -127t-115 -49q-59 0 -73.5 31.5t-14.5 58.5q0 24 8 52l55 190q10 33 10 54q0 34 -27 34
q-36 0 -85.5 -62t-85.5 -183l-41 -166h-165zM293 751l135 -68l168 68l7 -12l-206 -166l-118 166z" />
    <glyph glyph-name="Eng" unicode="&#x14a;" horiz-adv-x="699" 
d="M-36 6q1 1 16.5 26.5t33.5 56t37.5 74.5t29.5 80l82 307q9 33 9.5 55t0.5 27q0 32 -3 57.5t-3 26.5l1 4h184l200 -521l74 279q10 36 13.5 75t3.5 66q0 6 -0.5 24.5t-2 44t-1.5 26.5l1 6h155l-2 -6q-1 -2 -16.5 -27t-33.5 -55.5t-38 -74t-30 -79.5l-127 -478h-4l-17 -65
q-19 -71 -66 -104t-111 -33q-59 0 -123 26l67 132q53 -66 106 -66h2q61 2 93 110h-49l-223 589l-94 -346q-10 -36 -12.5 -72.5t-2.5 -60.5q0 -11 1 -31.5t3 -45.5t2 -27l-1 -6h-157z" />
    <glyph glyph-name="eng" unicode="&#x14b;" horiz-adv-x="555" 
d="M457 513q61 0 92 -43t11 -116l-100 -354q-55 -200 -200 -200q-48 0 -102 23l67 130q44 -60 92 -60q62 0 95 107l-115 1l91 322q26 88 -17 88q-36 0 -85.5 -62t-85.5 -183l-41 -166h-165l92 342q15 57 15 161l1 4h181l-40 -162q103 168 214 168z" />
    <glyph glyph-name="Omacron" unicode="&#x14c;" horiz-adv-x="725" 
d="M66 366q42 168 156.5 266.5t253.5 98.5h8q143 -3 196 -86.5t53 -170.5q0 -55 -16 -119q-42 -168 -157.5 -267.5t-255.5 -99.5h-6q-143 2 -195.5 85.5t-52.5 170.5q0 56 16 122zM248 88q18 -56 62 -56q43 0 88 54.5t76.5 126.5t49.5 146q13 54 17.5 100t4.5 81
q0 16 -1.5 49t-20.5 64.5t-52 32.5h-2q-43 0 -87.5 -54t-75 -125.5t-49.5 -145.5q-18 -74 -21 -118t-3 -59q0 -53 14 -96zM386 878h289l-12 -47h-289z" />
    <glyph glyph-name="omacron" unicode="&#x14d;" horiz-adv-x="535" 
d="M25 259q35 125 121.5 189.5t185.5 64.5q3 0 55.5 -1t94 -56t41.5 -117q0 -40 -13 -89q-35 -126 -121 -194t-182 -68h-6q-102 2 -146 60.5t-44 121.5q0 41 14 89zM176 71q8 -37 36 -37h2q19 0 37 18t35 58t26.5 66t25.5 77q24 67 24 136q0 3 -0.5 40.5t-39.5 38.5
q-14 0 -27 -8t-24.5 -26.5t-20.5 -34.5t-19.5 -47t-16 -47t-15.5 -49q-16 -51 -21.5 -87t-5.5 -57q0 -22 4 -41zM233 665h289l-12 -47h-290z" />
    <glyph glyph-name="Ohungarumlaut" unicode="&#x150;" horiz-adv-x="725" 
d="M66 366q42 168 156.5 266.5t253.5 98.5h8q143 -3 196 -86.5t53 -170.5q0 -55 -16 -119q-42 -168 -157.5 -267.5t-255.5 -99.5h-6q-143 2 -195.5 85.5t-52.5 170.5q0 56 16 122zM248 88q18 -56 62 -56q43 0 88 54.5t76.5 126.5t49.5 146q13 54 17.5 100t4.5 81
q0 16 -1.5 49t-20.5 64.5t-52 32.5h-2q-43 0 -87.5 -54t-75 -125.5t-49.5 -145.5q-18 -74 -21 -118t-3 -59q0 -53 14 -96zM474 951l73 -77l-211 -90l-11 16zM665 951l73 -77l-210 -90l-11 16z" />
    <glyph glyph-name="ohungarumlaut" unicode="&#x151;" horiz-adv-x="535" 
d="M25 259q35 125 121.5 189.5t185.5 64.5q3 0 55.5 -1t94 -56t41.5 -117q0 -40 -13 -89q-35 -126 -121 -194t-182 -68h-6q-102 2 -146 60.5t-44 121.5q0 41 14 89zM176 71q8 -37 36 -37h2q19 0 37 18t35 58t26.5 66t25.5 77q24 67 24 136q0 3 -0.5 40.5t-39.5 38.5
q-14 0 -27 -8t-24.5 -26.5t-20.5 -34.5t-19.5 -47t-16 -47t-15.5 -49q-16 -51 -21.5 -87t-5.5 -57q0 -22 4 -41zM321 738l73 -77l-211 -90l-11 16zM364 587l148 151l73 -77l-210 -90z" />
    <glyph glyph-name="OE" unicode="&#x152;" horiz-adv-x="1005" 
d="M66 366q42 168 156.5 266.5t253.5 98.5h8q56 -1 96 -20v5l1 4h507l-52 -196h-4q-1 0 -23 39.5t-58.5 76t-75.5 36.5h-105l-78 -289h31q30 0 67.5 8.5t64.5 18.5t49 19.5t24 9.5h5l-40 -150h-5l-26 15q-27 14 -68.5 27.5t-80.5 13.5h-30l-82 -305h108q39 0 95.5 37
t99 76.5t43.5 39.5h4l-53 -197h-507q-44 -12 -86 -12h-7q-143 2 -195.5 85.5t-52.5 170.5q0 56 16 122zM248 88q18 -55 62 -56h2q40 0 80.5 46.5t75.5 121.5l77 288q2 26 2 49q0 26 -3.5 58.5t-22 61.5t-49.5 29h-2q-43 0 -87.5 -54t-75 -125.5t-49.5 -145.5
q-18 -74 -21 -118t-3 -59q0 -53 14 -96z" />
    <glyph glyph-name="oe" unicode="&#x153;" horiz-adv-x="886" 
d="M25 259q35 125 121.5 189.5t185.5 64.5h6q113 -2 161 -81q90 81 208 81q81 0 122 -34.5t41 -75.5q0 -15 -4 -31q-18 -64 -94 -102t-187 -38h-23q-2 -17 -2 -32q0 -40 18 -72t66 -32q44 0 97.5 26t89.5 66l14 -4q-42 -79 -117 -137t-159 -58q-50 0 -91 23.5t-63 66.5
q-90 -91 -207 -91h-7q-102 2 -146 60.5t-44 121.5q0 41 14 89zM176 71q8 -37 36 -37h2q19 0 37 18t35 58t26.5 66t25.5 77q24 67 24 136q0 3 -0.5 40.5t-39.5 38.5q-14 0 -27 -8t-24.5 -26.5t-20.5 -34.5t-19.5 -47t-16 -47t-15.5 -49q-16 -51 -21.5 -87t-5.5 -57
q0 -22 4 -41zM567 263q69 10 109 43.5t55 74.5q8 20 8 38q0 11 -5 31t-31 20q-38 0 -74.5 -55.5t-56.5 -129.5q-4 -14 -5 -22z" />
    <glyph glyph-name="Racute" unicode="&#x154;" horiz-adv-x="692" 
d="M-27 0l1 4l14 26q15 27 31.5 64.5t24.5 69.5l105 392q7 25 10.5 54.5t4.5 49.5t1 38v18l1 4h336q101 0 138 -45.5t37 -96.5q0 -28 -9 -61q-19 -73 -85.5 -116.5t-163.5 -50.5q91 -21 113 -113q5 -23 13 -65.5t13 -65t16.5 -51.5t28.5 -50l-1 -5h-185q-26 33 -45 181
q-10 73 -34.5 107.5t-50.5 44.5l-24 -2l-44 -167q-7 -25 -10.5 -54.5t-4.5 -49.5t-1 -37v-19l-1 -4h-229zM350 377q48 0 83 38t54 108q11 39 11 70q0 23 -10 55.5t-56 32.5h-75l-81 -304h74zM575 991l101 -110l-303 -94l-16 16z" />
    <glyph glyph-name="racute" unicode="&#x155;" horiz-adv-x="451" 
d="M-7 0l92 343q7 25 10.5 54.5t4.5 49.5t1 38v18l1 4h180l-42 -174q51 101 102.5 141t90.5 40q28 0 55 -14l-64 -174h-3q-25 42 -64 42h-4q-35 0 -77.5 -43t-73.5 -149l-43 -176h-166zM185 590l218 188l101 -110l-303 -94z" />
    <glyph glyph-name="uni0156" unicode="&#x156;" horiz-adv-x="692" 
d="M-27 0l1 4l14 26q15 27 31.5 64.5t24.5 69.5l105 392q7 25 10.5 54.5t4.5 49.5t1 38v18l1 4h336q101 0 138 -45.5t37 -96.5q0 -28 -9 -61q-19 -73 -85.5 -116.5t-163.5 -50.5q91 -21 113 -113q5 -23 13 -65.5t13 -65t16.5 -51.5t28.5 -50l-1 -5h-185q-26 33 -45 181
q-10 73 -34.5 107.5t-50.5 44.5l-24 -2l-44 -167q-7 -25 -10.5 -54.5t-4.5 -49.5t-1 -37v-19l-1 -4h-229zM350 377q48 0 83 38t54 108q11 39 11 70q0 23 -10 55.5t-56 32.5h-75l-81 -304h74zM194 -287q26 36 33 67h-5q-37 0 -52 22t-15 45q0 14 4 30q10 40 40.5 64.5
t62.5 24.5h3q39 0 53 -26.5t14 -53.5q0 -20 -5 -43q-14 -62 -60.5 -116.5t-108.5 -71.5h-36q45 23 72 58z" />
    <glyph glyph-name="uni0157" unicode="&#x157;" horiz-adv-x="451" 
d="M-7 0l92 343q7 25 10.5 54.5t4.5 49.5t1 38v18l1 4h180l-42 -174q51 101 102.5 141t90.5 40q28 0 55 -14l-64 -174h-3q-25 42 -64 42h-4q-35 0 -77.5 -43t-73.5 -149l-43 -176h-166zM70 -287q26 36 33 67h-5q-37 0 -52 22t-15 45q0 14 4 30q10 40 40.5 64.5t62.5 24.5h3
q39 0 53 -26.5t14 -53.5q0 -20 -5 -43q-14 -62 -60.5 -116.5t-108.5 -71.5h-36q45 23 72 58z" />
    <glyph glyph-name="Rcaron" unicode="&#x158;" horiz-adv-x="692" 
d="M-27 0l1 4l14 26q15 27 31.5 64.5t24.5 69.5l105 392q7 25 10.5 54.5t4.5 49.5t1 38v18l1 4h336q101 0 138 -45.5t37 -96.5q0 -28 -9 -61q-19 -73 -85.5 -116.5t-163.5 -50.5q91 -21 113 -113q5 -23 13 -65.5t13 -65t16.5 -51.5t28.5 -50l-1 -5h-185q-26 33 -45 181
q-10 73 -34.5 107.5t-50.5 44.5l-24 -2l-44 -167q-7 -25 -10.5 -54.5t-4.5 -49.5t-1 -37v-19l-1 -4h-229zM350 377q48 0 83 38t54 108q11 39 11 70q0 23 -10 55.5t-56 32.5h-75l-81 -304h74zM378 965l135 -68l170 68l7 -11l-208 -168l-119 168z" />
    <glyph glyph-name="rcaron" unicode="&#x159;" horiz-adv-x="451" 
d="M-7 0l92 343q7 25 10.5 54.5t4.5 49.5t1 38v18l1 4h180l-42 -174q51 101 102.5 141t90.5 40q28 0 55 -14l-64 -174h-3q-25 42 -64 42h-4q-35 0 -77.5 -43t-73.5 -149l-43 -176h-166zM193 739l14 12l135 -68l168 68l7 -12l-206 -166z" />
    <glyph glyph-name="Sacute" unicode="&#x15a;" horiz-adv-x="599" 
d="M-10 51l45 171h6q3 -4 8 -11q27 -38 44.5 -59.5t48.5 -53.5t62 -47t62 -15h4q37 1 68 21t43 63q5 18 5 35q0 33 -23.5 69t-95.5 80q-98 61 -127.5 108.5t-29.5 91.5q0 28 9 59q24 79 96 123.5t187 45.5h13q111 0 240 -50l-49 -177h-5q-7 9 -29.5 40.5t-38.5 50
t-40.5 42.5t-51.5 35.5t-56 11.5q-39 -2 -68.5 -24t-39.5 -57q-4 -15 -4 -29q0 -31 26.5 -62.5t101.5 -78.5q90 -57 121.5 -107.5t31.5 -96.5q0 -27 -9 -57q-23 -79 -100 -132.5t-189 -54.5h-10q-114 0 -256 65zM317 803l218 188l101 -110l-303 -94z" />
    <glyph glyph-name="sacute" unicode="&#x15b;" horiz-adv-x="472" 
d="M-12 37l43 151h5q24 -36 36 -52.5t37 -45t49.5 -41.5t51.5 -13h2q42 0 54 39q3 8 3 16q0 15 -10.5 33.5t-27.5 33t-53 40.5q-67 48 -91.5 84t-24.5 70q0 17 5 36q16 61 74.5 93t144.5 32t175 -35l-35 -143h-5q-32 56 -73.5 95t-85.5 39q-51 0 -56 -42v-5q0 -8 2.5 -17
t15 -20.5t20.5 -18t32 -23.5t36 -26q99 -73 99 -155q0 -20 -6 -41q-18 -64 -74 -98t-134 -34q-102 0 -209 48zM414 778l101 -110l-303 -94l-16 16z" />
    <glyph glyph-name="Scedilla" unicode="&#x15e;" horiz-adv-x="599" 
d="M-10 51l45 171h6q3 -4 8 -11q27 -38 44.5 -59.5t48.5 -53.5t62 -47t62 -15h4q37 1 68 21t43 63q5 18 5 35q0 33 -23.5 69t-95.5 80q-98 61 -127.5 108.5t-29.5 91.5q0 28 9 59q24 79 96 123.5t187 45.5h13q111 0 240 -50l-49 -177h-5q-7 9 -29.5 40.5t-38.5 50
t-40.5 42.5t-51.5 35.5t-56 11.5q-39 -2 -68.5 -24t-39.5 -57q-4 -15 -4 -29q0 -31 26.5 -62.5t101.5 -78.5q90 -57 121.5 -107.5t31.5 -96.5q0 -27 -9 -57q-23 -79 -100 -132.5t-189 -54.5h-11l-25 -33h4q41 0 70 -20.5t29 -54.5v-2q-1 -31 -25.5 -48.5t-64.5 -17.5
q-59 0 -98 28l1 36q25 -18 46 -18q5 0 20.5 3.5t16.5 27.5v4q0 14 -14.5 26.5t-40.5 16.5l41 54q-99 9 -215 63z" />
    <glyph glyph-name="scedilla" unicode="&#x15f;" horiz-adv-x="472" 
d="M-12 37l43 151h5q24 -36 36 -52.5t37 -45t49.5 -41.5t51.5 -13h2q42 0 54 39q3 8 3 16q0 15 -10.5 33.5t-27.5 33t-53 40.5q-67 48 -91.5 84t-24.5 70q0 17 5 36q16 61 75 93q58 32 144 32t175 -35l-35 -143h-5q-32 56 -73.5 95t-85.5 39q-51 0 -56 -42v-5q0 -8 2.5 -17
t15 -20.5t20.5 -18t32 -23.5t36 -26q99 -73 99 -155q0 -20 -6 -41q-18 -64 -74 -98t-134 -34h-13l-28 -36h4q41 0 70 -20.5t29 -54.5v-2q-1 -31 -25.5 -48.5t-64.5 -17.5q-59 0 -98 28l1 36q25 -18 46 -18q5 0 20.5 3.5t16.5 27.5v4q0 14 -14.5 26.5t-40.5 16.5l45 58
q-82 11 -157 45z" />
    <glyph glyph-name="Scaron" unicode="&#x160;" horiz-adv-x="599" 
d="M35 222h6q3 -4 8 -11q27 -38 44.5 -59.5t48.5 -53.5t62 -47t62 -15h4q37 1 68 21t43 63q5 18 5 35q0 33 -23.5 69t-95.5 80q-98 61 -127.5 108.5t-29.5 91.5q0 28 9 59q24 79 96 123.5t187 45.5h13q111 0 240 -50l-49 -177h-5q-7 9 -29.5 40.5t-38.5 50t-40.5 42.5
t-51.5 35.5t-56 11.5q-39 -2 -68.5 -24t-39.5 -57q-4 -15 -4 -29q0 -31 26.5 -62.5t101.5 -78.5q90 -57 121.5 -107.5t31.5 -96.5q0 -27 -9 -57q-23 -79 -100 -132.5t-189 -54.5h-10q-114 0 -256 65zM339 964l135 -68l169 68l7 -12l-207 -166l-118 166z" />
    <glyph glyph-name="scaron" unicode="&#x161;" horiz-adv-x="472" 
d="M31 188h5q24 -36 36 -52.5t37 -45t49.5 -41.5t51.5 -13h2q42 0 54 39q3 8 3 16q0 15 -10.5 33.5t-27.5 33t-53 40.5q-67 48 -91.5 84t-24.5 70q0 17 5 36q16 61 74.5 93t144.5 32t175 -35l-35 -143h-5q-32 56 -73.5 95t-85.5 39q-51 0 -56 -42v-5q0 -8 2.5 -17t15 -20.5
t20.5 -18t32 -23.5t36 -26q99 -73 99 -155q0 -20 -6 -41q-18 -64 -74 -98t-134 -34q-102 0 -209 48zM204 739l14 12l135 -68l168 68l7 -12l-206 -166z" />
    <glyph glyph-name="uni0162" unicode="&#x162;" horiz-adv-x="639" 
d="M138 720h614l-61 -228h-5q-1 1 -13 30t-28 62t-44.5 60.5t-58.5 27.5h-22l-136 -508q-8 -32 -12 -69.5t-4.5 -63.5t-0.5 -27v-4h-92l-36 -47h4q41 0 70 -20.5t29 -54.5v-2q-1 -31 -25.5 -48.5t-64.5 -17.5q-60 0 -98 28l1 36q25 -18 46 -18q5 0 20.5 3.5t16.5 27.5v4
q0 14 -14.5 26.5t-40.5 16.5l51 66h-96l1 4l15 26q14 27 30.5 64.5t24.5 69.5l136 508h-23q-39 0 -95.5 -43.5t-100.5 -90t-45 -46.5h-4z" />
    <glyph glyph-name="uni0163" unicode="&#x163;" horiz-adv-x="384" 
d="M29 -162l1 36q25 -18 46 -18q5 0 20.5 3.5t16.5 27.5v4q0 14 -14.5 26.5t-40.5 16.5l46 60q-44 11 -55.5 45t-11.5 58q0 29 10 61l81 302h-70l12 45q149 66 275 178l7 3l-48 -179h129l-12 -47h-129l-85 -308q-4 -14 -4 -23q0 -22 19 -22q20 1 50.5 23t59.5 58l11 -4
q-29 -74 -84 -130t-115 -62l-30 -39h4q41 0 70 -20.5t29 -54.5v-2q-1 -31 -25.5 -48.5t-64.5 -17.5q-59 0 -98 28z" />
    <glyph glyph-name="Tcaron" unicode="&#x164;" horiz-adv-x="639" 
d="M138 720h614l-61 -228h-5q-1 1 -13 30t-28 62t-44.5 60.5t-58.5 27.5h-22l-136 -508q-8 -32 -12 -69.5t-4.5 -63.5t-0.5 -27v-4h-229l1 4l15 26q14 27 30.5 64.5t24.5 69.5l136 508h-23q-39 0 -95.5 -43.5t-100.5 -90t-45 -46.5h-4zM359 965l135 -68l170 68l7 -11
l-208 -168l-119 168z" />
    <glyph glyph-name="tcaron" unicode="&#x165;" horiz-adv-x="405" 
d="M47 158l81 302h-70l12 45q153 68 275 178l7 3l-48 -179h129l-12 -47h-129l-85 -308q-4 -14 -4 -23q0 -22 19 -22q20 1 50.5 23t59.5 58l11 -4q-31 -79 -90.5 -136t-122.5 -57q-58 0 -75 37t-17 69q0 28 9 61zM421 604q27 36 34 67h-5q-37 0 -52.5 22.5t-15.5 46.5
q0 14 4 30q11 41 41.5 66t63.5 25h3q40 -1 54.5 -27.5t14.5 -53.5q0 -20 -6 -44q-15 -64 -62 -119t-110 -73h-36q45 24 72 60z" />
    <glyph glyph-name="Tbar" unicode="&#x166;" horiz-adv-x="639" 
d="M77 492l61 228h614l-61 -228h-5q-1 1 -13 30t-28 62t-44.5 60.5t-58.5 27.5h-22l-73 -274h127v-47h-140l-50 -187q-8 -32 -12 -69.5t-4.5 -63.5t-0.5 -27v-4h-229l1 4l15 26q14 27 30.5 64.5t24.5 69.5l50 187h-158v47h171l73 274h-23q-39 0 -95.5 -43.5t-100.5 -90
t-45 -46.5h-4z" />
    <glyph glyph-name="tbar" unicode="&#x167;" horiz-adv-x="412" 
d="M100 355l28 105h-70l12 45q153 68 275 178l7 3l-48 -179h129l-12 -47h-129l-29 -105h106v-48h-119l-43 -155q-4 -14 -4 -23q0 -22 19 -22q20 1 50.5 23t59.5 58l11 -4q-31 -79 -90.5 -136t-122.5 -57q-58 0 -75 37t-17 69q0 28 9 61l40 149h-57v48h70z" />
    <glyph glyph-name="Umacron" unicode="&#x16a;" horiz-adv-x="681" 
d="M76 300l68 256q7 25 10.5 54.5t4.5 49.5t1.5 37.5t0.5 18.5l1 4h227l-1 -4l-14 -26q-15 -27 -31.5 -64.5t-24.5 -69.5l-73 -273q-15 -55 -15 -96t21.5 -82t89.5 -41q67 0 126.5 53t87.5 159l54 202q12 47 13.5 86t1.5 58q0 29 -2.5 60t-2.5 32l1 6h156l-1 -6
q-1 -1 -16.5 -26.5t-33.5 -56t-37.5 -74t-29.5 -79.5l-54 -203q-78 -287 -310 -287q-54 0 -99.5 15.5t-83 52t-43.5 76t-6 60.5q0 47 14 108zM351 831l12 47h289l-12 -47h-289z" />
    <glyph glyph-name="umacron" unicode="&#x16b;" horiz-adv-x="643" 
d="M32 153l54 189q16 55 16 111q0 24 -3 49v5h199l-94 -323q-10 -33 -10 -54q0 -34 27 -34q37 0 88.5 66t86.5 194l41 151h163l-100 -369q-3 -10 -3 -18q0 -16 14 -16h2q32 3 82 59q4 4 7 8l11 -4q-30 -77 -83 -126.5t-115 -49.5q-59 0 -73 31.5t-14 58.5q0 24 7 52l4 13
q-100 -152 -204 -152q-62 0 -86.5 34.5t-24.5 70.5q0 25 8 54zM279 665h289l-12 -47h-289z" />
    <glyph glyph-name="Uring" unicode="&#x16e;" horiz-adv-x="681" 
d="M76 300l68 256q7 25 10.5 54.5t4.5 49.5t1.5 37.5t0.5 18.5l1 4h227l-1 -4l-14 -26q-15 -27 -31.5 -64.5t-24.5 -69.5l-73 -273q-15 -55 -15 -96t21.5 -82t89.5 -41q67 0 126.5 53t87.5 159l54 202q12 47 13.5 86t1.5 58q0 29 -2.5 60t-2.5 32l1 6h156l-1 -6
q-1 -1 -16.5 -26.5t-33.5 -56t-37.5 -74t-29.5 -79.5l-54 -203q-78 -287 -310 -287q-54 0 -99.5 15.5t-83 52t-43.5 76t-6 60.5q0 47 14 108zM406 863q11 42 47.5 71.5t76.5 29.5q41 0 58 -24.5t17 -48.5q0 -13 -7.5 -41.5t-44 -58t-76.5 -29.5q-41 0 -58 24.5t-17 48.5
q0 13 4 28zM457 824q10 -16 32 -16q21 0 40.5 16t23.5 31.5t4 22.5q0 14 -9 27.5t-30 13.5t-40.5 -16.5t-23.5 -32t-4 -22.5q0 -14 7 -24z" />
    <glyph glyph-name="uring" unicode="&#x16f;" horiz-adv-x="643" 
d="M32 153l54 189q16 55 16 111q0 24 -3 49v5h199l-94 -323q-10 -33 -10 -54q0 -34 27 -34q37 0 88.5 66t86.5 194l41 151h163l-100 -369q-3 -10 -3 -18q0 -16 14 -16h2q32 3 82 59q4 4 7 8l11 -4q-30 -77 -83 -126.5t-115 -49.5q-59 0 -73 31.5t-14 58.5q0 24 7 52l4 13
q-100 -152 -204 -152q-62 0 -86.5 34.5t-24.5 70.5q0 25 8 54zM322 650q11 42 47.5 71.5t76.5 29.5q41 0 58 -24.5t17 -48.5q0 -13 -7.5 -41.5t-44 -58t-76.5 -29.5q-41 0 -58 24.5t-17 48.5q0 13 4 28zM373 611q10 -16 32 -16q21 0 40.5 16.5t25.5 38.5q2 8 2 15
q0 14 -9 27.5t-30 13.5t-40 -16q-20 -17 -24 -32.5t-4 -22.5q0 -14 7 -24z" />
    <glyph glyph-name="Uhungarumlaut" unicode="&#x170;" horiz-adv-x="681" 
d="M76 300l68 256q7 25 10.5 54.5t4.5 49.5t1.5 37.5t0.5 18.5l1 4h227l-1 -4l-14 -26q-15 -27 -31.5 -64.5t-24.5 -69.5l-73 -273q-15 -55 -15 -96t21.5 -82t89.5 -41q67 0 126.5 53t87.5 159l54 202q12 47 13.5 86t1.5 58q0 29 -2.5 60t-2.5 32l1 6h156l-1 -6
q-1 -1 -16.5 -26.5t-33.5 -56t-37.5 -74t-29.5 -79.5l-54 -203q-78 -287 -310 -287q-54 0 -99.5 15.5t-83 52t-43.5 76t-6 60.5q0 47 14 108zM303 800l149 151l73 -77l-211 -90zM495 800l148 151l73 -77l-210 -90z" />
    <glyph glyph-name="uhungarumlaut" unicode="&#x171;" horiz-adv-x="643" 
d="M32 153l54 189q16 55 16 111q0 24 -3 49v5h199l-94 -323q-10 -33 -10 -54q0 -34 27 -34q37 0 88.5 66t86.5 194l41 151h163l-100 -369q-3 -10 -3 -18q0 -16 14 -16h2q32 3 82 59q4 4 7 8l11 -4q-30 -77 -83 -126.5t-115 -49.5q-59 0 -73 31.5t-14 58.5q0 24 7 52l4 13
q-100 -152 -204 -152q-62 0 -86.5 34.5t-24.5 70.5q0 25 8 54zM218 587l149 151l73 -77l-211 -90zM558 738l73 -77l-210 -90l-11 16z" />
    <glyph glyph-name="Uogonek" unicode="&#x172;" horiz-adv-x="681" 
d="M76 300l68 256q7 25 10.5 54.5t4.5 49.5t1.5 37.5t0.5 18.5l1 4h227l-1 -4l-14 -26q-15 -27 -31.5 -64.5t-24.5 -69.5l-73 -273q-15 -55 -15 -96t21.5 -82t89.5 -41q67 0 126.5 53t87.5 159l54 202q12 47 13.5 86t1.5 58q0 29 -2.5 60t-2.5 32l1 6h156l-1 -6
q-1 -1 -16.5 -26.5t-33.5 -56t-37.5 -74t-29.5 -79.5l-54 -203q-55 -206 -192 -264q-26 -16 -43 -44.5t-17 -53.5q0 -31 17.5 -38t26.5 -7q19 0 41 15v-34q-49 -31 -98 -31q-42 0 -66.5 22.5t-24.5 57.5q0 54 57 90h-11q-54 0 -99.5 15.5t-83 52t-43.5 76t-6 60.5
q0 47 14 108z" />
    <glyph glyph-name="uogonek" unicode="&#x173;" horiz-adv-x="643" 
d="M32 153l54 189q16 55 16 111q0 24 -3 49v5h199l-94 -323q-10 -33 -10 -54q0 -34 27 -34q37 0 88.5 66t86.5 194l41 151h163l-100 -369q-3 -10 -3 -18q0 -16 14 -16h2q32 3 82 59q4 4 7 8l11 -4q-24 -62 -63.5 -107t-87.5 -61q-42 -40 -42 -84q0 -31 17.5 -38t26.5 -7
q19 0 41 15v-34q-49 -31 -98 -31q-42 0 -66.5 22.5t-24.5 57.5q0 60 66 95q-39 11 -47 40t-8 48q0 24 8 50l4 13q-100 -152 -204 -152q-62 0 -86.5 34.5t-24.5 70.5q0 25 8 54z" />
    <glyph glyph-name="Wcircumflex" unicode="&#x174;" horiz-adv-x="968" 
d="M134 716l1 4h252l-1 -4q0 -1 -5 -10.5t-11 -20.5t-12.5 -28t-12 -34t-8 -34.5t-2.5 -31.5v-9l19 -334l168 295l-4 53q-1 20 -4.5 41.5t-8 40.5t-8 33.5t-7.5 26.5l-3 11l2 5h252l-2 -5q-49 -88 -49 -160v-11l20 -345l183 317q12 21 21 45t13.5 44t7 40.5t3 33.5t0.5 25
v12l1 4h144l-1 -5l-14 -17q-13 -17 -27.5 -36.5t-34 -48t-33.5 -52.5l-323 -561h-95l-28 424l-241 -424h-84l-39 562q-4 53 -29 154zM458 781l208 168l118 -168l-13 -11l-133 68l-172 -68z" />
    <glyph glyph-name="wcircumflex" unicode="&#x175;" horiz-adv-x="845" 
d="M33 155l53 187q16 56 16 112q0 24 -3 49v4h199l-94 -321q-6 -25 -6 -42t8 -32.5t29 -15.5q36 0 85.5 65.5t84.5 191.5q13 52 13 103q0 24 -3 47v4h199l-94 -323q-10 -32 -10 -59q0 -14 5.5 -39.5t37.5 -25.5q60 0 110.5 85t50.5 201v22q-2 62 -21 104l180 42
q0 -50 -40 -157q-56 -164 -155.5 -263.5t-209.5 -99.5q-65 0 -96.5 32.5t-31.5 75.5q0 15 3 31q-105 -139 -212 -139q-60 0 -83.5 35t-23.5 70q0 26 9 56zM550 734l117 -166l-13 -11l-133 67l-170 -67l-8 11z" />
    <glyph glyph-name="Ycircumflex" unicode="&#x176;" horiz-adv-x="649" 
d="M137 720h259l-1 -4l-9 -19q-9 -19 -15.5 -38.5t-10.5 -42t-4 -35.5q0 -14 3 -27l44 -226l154 209q20 27 31.5 59.5t14 54.5t3.5 43l1 21l2 5h154l-1 -4q-1 -2 -22 -25.5t-50.5 -58t-49.5 -63.5l-216 -292l-31 -113q-7 -25 -10.5 -54.5t-4 -49.5t-0.5 -37v-19l-1 -4h-230
l1 4l14 26q15 27 31.5 64.5t24.5 69.5l30 113l-69 293q-6 29 -16.5 63t-19 57t-8.5 25zM312 781l208 168l118 -168l-13 -11l-133 68l-172 -68z" />
    <glyph glyph-name="ycircumflex" unicode="&#x177;" horiz-adv-x="573" 
d="M0 -7h4q42 -90 120 -90q8 0 15 1q21 2 42 9v18q0 193 -20 405q-6 65 -36 65q-28 0 -86 -63l-11 3q34 77 86 124.5t105 47.5q44 0 65 -36.5t32 -117.5q18 -150 18 -301v-16q94 138 102 295v23q0 63 -14 115l183 41q-24 -135 -92.5 -277.5t-171.5 -257.5t-211 -150
q-59 -21 -115 -21q-49 0 -95 16zM391 734l117 -166l-13 -11l-133 67l-170 -67l-8 11z" />
    <glyph glyph-name="Ydieresis" unicode="&#x178;" horiz-adv-x="649" 
d="M135 715l2 5h259l-1 -4l-9 -19q-9 -19 -15.5 -38.5t-10.5 -42t-4 -35.5q0 -14 3 -27l44 -226l154 209q20 27 31.5 59.5t14 54.5t3.5 43l1 21l2 5h154l-1 -4q-1 -2 -22 -25.5t-50.5 -58t-49.5 -63.5l-216 -292l-31 -113q-7 -25 -10.5 -54.5t-4 -49.5t-0.5 -37v-19l-1 -4
h-230l1 4l14 26q15 27 31.5 64.5t24.5 69.5l30 113l-69 293q-6 29 -16.5 63t-19 57t-8.5 25zM313 859q9 35 38.5 59.5t62.5 24.5q34 0 47.5 -20t13.5 -41q0 -11 -3 -23q-9 -34 -39 -58q-30 -25 -63 -25t-47 20t-14 39q0 11 4 24zM522 859q10 35 39.5 59.5t63.5 24.5
q32 0 46 -20t14 -40q0 -11 -4 -24q-9 -35 -38 -59q-30 -24 -63 -24t-47 20.5t-14 40.5q0 10 3 22z" />
    <glyph glyph-name="Zacute" unicode="&#x179;" horiz-adv-x="602" 
d="M463 673h-104q-44 0 -100.5 -30t-98.5 -63l-41 -32h-6l47 172h551l-511 -673h109q35 0 78.5 19.5t75.5 42t58 43t28 21.5h6l-46 -173h-559zM323 803l218 188l101 -110l-303 -94z" />
    <glyph glyph-name="zacute" unicode="&#x17a;" horiz-adv-x="491" 
d="M64 102q48 55 97 92.5t119.5 90.5t108.5 88q-47 -25 -90 -27h-4q-26 0 -66 10.5t-60 11.5h-8q-13 0 -27 -2.5t-25 -7.5t-21.5 -12t-16 -11.5t-11.5 -10.5l-6 -6h-6l23 75q20 65 49.5 92.5t80.5 27.5q29 0 73 -9.5t71.5 -15.5t55.5 -6q16 0 50 3t82 27q-22 -58 -72 -113.5
t-100 -92.5t-116.5 -85.5t-101.5 -80.5q31 15 67 15h9q27 -1 69.5 -12t63.5 -11q60 0 93 43h6l-21 -76q-7 -25 -13.5 -40.5t-20 -33t-36 -26t-53.5 -8.5q-34 0 -86.5 13t-104 13t-118.5 -27q18 56 66 112zM424 778l101 -110l-303 -94l-16 16z" />
    <glyph glyph-name="Zdotaccent" unicode="&#x17b;" horiz-adv-x="602" 
d="M463 673h-104q-44 0 -100.5 -30t-98.5 -63l-41 -32h-6l47 172h551l-511 -673h109q35 0 78.5 19.5t75.5 42t58 43t28 21.5h6l-46 -173h-559zM369 879q11 42 47.5 71.5t77.5 29.5q40 0 57 -24.5t17 -48.5q0 -13 -7.5 -41.5t-44.5 -58t-77 -29.5q-39 0 -56.5 24.5
t-17.5 49.5q0 13 4 27z" />
    <glyph glyph-name="zdotaccent" unicode="&#x17c;" horiz-adv-x="491" 
d="M-2 -10q18 56 66 111.5t97 93t119.5 90.5t108.5 88q-47 -25 -90 -27h-4q-26 0 -66 10.5t-60 11.5h-8q-13 0 -27 -2.5t-25 -7.5t-21.5 -12t-16 -11.5t-11.5 -10.5l-6 -6h-6l23 75q20 65 49.5 92.5t80.5 27.5q29 0 73 -9.5t71.5 -15.5t55.5 -6q16 0 50 3t82 27
q-22 -58 -72 -113.5t-100 -92.5t-116.5 -85.5t-101.5 -80.5q31 15 67 15h9q27 -1 69.5 -12t63.5 -11q60 0 93 43h6l-21 -76q-7 -25 -13.5 -40.5t-20 -33t-36 -26t-53.5 -8.5q-34 0 -86.5 13t-104 13t-118.5 -27zM253 666q11 42 47.5 71.5t77.5 29.5q40 0 57 -24.5t17 -48.5
q0 -13 -7.5 -41.5t-44.5 -58t-77 -29.5q-39 0 -56.5 24.5t-17.5 49.5q0 13 4 27z" />
    <glyph glyph-name="Zcaron" unicode="&#x17d;" horiz-adv-x="602" 
d="M463 673h-104q-44 0 -100.5 -30t-98.5 -63l-41 -32h-6l47 172h551l-511 -673h109q35 0 78.5 19.5t75.5 42t58 43t28 21.5h6l-46 -173h-559zM344 965l135 -68l170 68l7 -11l-208 -168l-119 168z" />
    <glyph glyph-name="zcaron" unicode="&#x17e;" horiz-adv-x="491" 
d="M64 102q48 55 97 92.5t119.5 90.5t108.5 88q-47 -25 -90 -27h-4q-26 0 -66 10.5t-60 11.5h-8q-13 0 -27 -2.5t-25 -7.5t-21.5 -12t-16 -11.5t-11.5 -10.5l-6 -6h-6l23 75q20 65 49.5 92.5t80.5 27.5q29 0 73 -9.5t71.5 -15.5t55.5 -6q16 0 50 3t82 27q-22 -58 -72 -113.5
t-100 -92.5t-116.5 -85.5t-101.5 -80.5q31 15 67 15h9q27 -1 69.5 -12t63.5 -11q60 0 93 43h6l-21 -76q-7 -25 -13.5 -40.5t-20 -33t-36 -26t-53.5 -8.5q-34 0 -86.5 13t-104 13t-118.5 -27q18 56 66 112zM228 751l135 -68l168 68l7 -12l-206 -166l-118 166z" />
    <glyph glyph-name="gravecomb" unicode="&#x300;" 
d="M-231 565l-277 94l130 110l168 -187z" />
    <glyph glyph-name="acutecomb" unicode="&#x301;" 
d="M-415 574l-16 16l218 188l101 -110z" />
    <glyph glyph-name="uni0302" unicode="&#x302;" 
d="M-474 557l-8 11l208 168l118 -168l-13 -11l-133 68z" />
    <glyph glyph-name="tildecomb" unicode="&#x303;" 
d="M-495 558q3 52 42.5 99.5t95.5 47.5q25 0 70.5 -16t72.5 -16q64 0 109 46q-22 -80 -62.5 -117t-87.5 -37q-28 0 -79.5 17.5t-73.5 17.5h-2q-46 -2 -85 -42z" />
    <glyph glyph-name="uni0304" unicode="&#x304;" 
d="M-446 618l13 47h289l-12 -47h-290z" />
    <glyph glyph-name="uni0306" unicode="&#x306;" 
d="M-417 717h20q6 -30 40.5 -47t72.5 -17t80.5 17t65.5 47h19q-16 -63 -72 -107q-55 -45 -117 -45t-88.5 36.5t-26.5 73.5q0 20 6 42z" />
    <glyph glyph-name="uni0307" unicode="&#x307;" 
d="M-101 667q11 42 47.5 71.5t77.5 29.5q40 0 57 -24.5t17 -48.5q0 -13 -7.5 -41.5t-44.5 -58t-77 -29.5q-39 0 -56.5 24.5t-17.5 49.5q0 13 4 27z" />
    <glyph glyph-name="uni0308" unicode="&#x308;" 
d="M-501 646q9 35 38.5 59.5t62.5 24.5q34 0 47.5 -20t13.5 -41q0 -11 -3 -23q-9 -34 -39 -58.5t-64 -24.5q-32 0 -46 20t-14 39q0 11 4 24zM-292 646q10 35 39.5 59.5t63.5 24.5q32 0 46 -20t14 -40q0 -11 -4 -24q-9 -35 -39 -59q-29 -24 -62 -24t-47 20.5t-14 40.5
q0 10 3 22z" />
    <glyph glyph-name="uni030A" unicode="&#x30a;" 
d="M-230 650q11 42 47.5 71.5t76.5 29.5q41 0 58 -24.5t17 -48.5q0 -13 -7.5 -41.5t-44 -58t-76.5 -29.5q-41 0 -58 24.5t-17 48.5q0 13 4 28zM-180 611q11 -16 33 -16q21 0 40.5 16.5t25.5 38.5q2 8 2 15q0 14 -9 27.5t-30 13.5t-40.5 -16.5t-23.5 -32.5t-4 -23
q0 -13 6 -23z" />
    <glyph glyph-name="uni030B" unicode="&#x30b;" 
d="M-489 571l-11 16l149 151l73 -77zM-297 571l-11 16l148 151l73 -77z" />
    <glyph glyph-name="uni030C" unicode="&#x30c;" 
d="M-396 752l135 -68l170 68l7 -11l-208 -168l-119 168z" />
    <glyph glyph-name="uni0312" unicode="&#x312;" 
d="M-141 677q15 64 62 119t110 73h36q-45 -24 -72 -60t-34 -67h5q38 0 53 -22.5t15 -46.5q0 -14 -4 -30q-11 -41 -41.5 -66t-63.5 -25h-3q-40 1 -54.5 27.5t-14.5 53.5q0 20 6 44z" />
    <glyph glyph-name="uni0326" unicode="&#x326;" 
d="M-375 -345q45 23 71.5 58.5t33.5 66.5h-5q-37 0 -52 22t-15 45q0 14 4 30q10 40 40.5 64.5t62.5 24.5h3q39 0 53 -26.5t14 -53.5q0 -20 -5 -43q-14 -62 -60.5 -116.5t-108.5 -71.5h-36z" />
    <glyph glyph-name="uni0327" unicode="&#x327;" 
d="M-401 -126q25 -18 46 -18q5 0 20.5 3.5t16.5 27.5v4q0 14 -14.5 26.5t-40.5 16.5l62 81h42l-48 -62h4q41 0 70 -20.5t29 -54.5v-2q-1 -31 -25.5 -48.5t-64.5 -17.5q-60 0 -98 28z" />
    <glyph glyph-name="uni0328" unicode="&#x328;" 
d="M-339 -1q44 34 112 38h20q-29 -14 -50 -45t-21 -59q0 -31 17.5 -38t26.5 -7q19 0 41 15v-34q-49 -31 -98 -31q-42 0 -66.5 22.5t-24.5 57.5q0 47 43 81z" />
    <glyph glyph-name="Wgrave" unicode="&#x1e80;" horiz-adv-x="968" 
d="M134 716l1 4h252l-1 -4q0 -1 -5 -10.5t-11 -20.5t-12.5 -28t-12 -34t-8 -34.5t-2.5 -31.5v-9l19 -334l168 295l-4 53q-1 20 -4.5 41.5t-8 40.5t-8 33.5t-7.5 26.5l-3 11l2 5h252l-2 -5q-49 -88 -49 -160v-11l20 -345l183 317q12 21 21 45t13.5 44t7 40.5t3 33.5t0.5 25
v12l1 4h144l-1 -5l-14 -17q-13 -17 -27.5 -36.5t-34 -48t-33.5 -52.5l-323 -561h-95l-28 424l-241 -424h-84l-39 562q-4 53 -29 154zM479 872l130 110l168 -187l-21 -17z" />
    <glyph glyph-name="wgrave" unicode="&#x1e81;" horiz-adv-x="845" 
d="M33 155l53 187q16 56 16 112q0 24 -3 49v4h199l-94 -321q-6 -25 -6 -42t8 -32.5t29 -15.5q36 0 85.5 65.5t84.5 191.5q13 52 13 103q0 24 -3 47v4h199l-94 -323q-10 -32 -10 -59q0 -14 5.5 -39.5t37.5 -25.5q60 0 110.5 85t50.5 201v22q-2 62 -21 104l180 42
q0 -50 -40 -157q-56 -164 -155.5 -263.5t-209.5 -99.5q-65 0 -96.5 32.5t-31.5 75.5q0 15 3 31q-105 -139 -212 -139q-60 0 -83.5 35t-23.5 70q0 26 9 56zM363 659l130 110l168 -187l-21 -17z" />
    <glyph glyph-name="Wacute" unicode="&#x1e82;" horiz-adv-x="968" 
d="M134 716l1 4h252l-1 -4q0 -1 -5 -10.5t-11 -20.5t-12.5 -28t-12 -34t-8 -34.5t-2.5 -31.5v-9l19 -334l168 295l-4 53q-1 20 -4.5 41.5t-8 40.5t-8 33.5t-7.5 26.5l-3 11l2 5h252l-2 -5q-49 -88 -49 -160v-11l20 -345l183 317q12 21 21 45t13.5 44t7 40.5t3 33.5t0.5 25
v12l1 4h144l-1 -5l-14 -17q-13 -17 -27.5 -36.5t-34 -48t-33.5 -52.5l-323 -561h-95l-28 424l-241 -424h-84l-39 562q-4 53 -29 154zM497 803l218 188l101 -110l-303 -94z" />
    <glyph glyph-name="wacute" unicode="&#x1e83;" horiz-adv-x="845" 
d="M33 155l53 187q16 56 16 112q0 24 -3 49v4h199l-94 -321q-6 -25 -6 -42t8 -32.5t29 -15.5q36 0 85.5 65.5t84.5 191.5q13 52 13 103q0 24 -3 47v4h199l-94 -323q-10 -32 -10 -59q0 -14 5.5 -39.5t37.5 -25.5q60 0 110.5 85t50.5 201v22q-2 62 -21 104l180 42
q0 -50 -40 -157q-56 -164 -155.5 -263.5t-209.5 -99.5q-65 0 -96.5 32.5t-31.5 75.5q0 15 3 31q-105 -139 -212 -139q-60 0 -83.5 35t-23.5 70q0 26 9 56zM381 590l218 188l101 -110l-303 -94z" />
    <glyph glyph-name="Wdieresis" unicode="&#x1e84;" horiz-adv-x="968" 
d="M135 720h252l-1 -4q0 -1 -5 -10.5t-11 -20.5t-12.5 -28t-12 -34t-8 -34.5t-2.5 -31.5v-9l19 -334l168 295l-4 53q-1 20 -4.5 41.5t-8 40.5t-8 33.5t-7.5 26.5l-3 11l2 5h252l-2 -5q-49 -88 -49 -160v-11l20 -345l183 317q12 21 21 45t13.5 44t7 40.5t3 33.5t0.5 25v12
l1 4h144l-1 -5l-14 -17q-13 -17 -27.5 -36.5t-34 -48t-33.5 -52.5l-323 -561h-95l-28 424l-241 -424h-84l-39 562q-4 53 -29 154zM459 859q9 35 38.5 59.5t62.5 24.5q34 0 47.5 -20t13.5 -41q0 -11 -3 -23q-9 -34 -39 -58q-30 -25 -63 -25t-47 20t-14 39q0 11 4 24zM668 859
q10 35 39.5 59.5t63.5 24.5q32 0 46 -20t14 -40q0 -11 -4 -24q-9 -35 -38 -59q-30 -24 -63 -24t-47 20.5t-14 40.5q0 10 3 22z" />
    <glyph glyph-name="wdieresis" unicode="&#x1e85;" horiz-adv-x="845" 
d="M33 155l53 187q16 56 16 112q0 24 -3 49v4h199l-94 -321q-6 -25 -6 -42t8 -32.5t29 -15.5q36 0 85.5 65.5t84.5 191.5q13 52 13 103q0 24 -3 47v4h199l-94 -323q-10 -32 -10 -59q0 -14 5.5 -39.5t37.5 -25.5q60 0 110.5 85t50.5 201v22q-2 62 -21 104l180 42
q0 -50 -40 -157q-56 -164 -155.5 -263.5t-209.5 -99.5q-65 0 -96.5 32.5t-31.5 75.5q0 15 3 31q-105 -139 -212 -139q-60 0 -83.5 35t-23.5 70q0 26 9 56zM343 646q9 35 38.5 59.5t62.5 24.5q34 0 47.5 -20t13.5 -41q0 -11 -3 -23q-9 -34 -39 -58q-30 -25 -63 -25t-47 20
t-14 39q0 11 4 24zM552 646q10 35 39.5 59.5t63.5 24.5q32 0 46 -20t14 -40q0 -11 -4 -24q-9 -35 -38 -59q-30 -24 -63 -24t-47 20.5t-14 40.5q0 10 3 22z" />
    <glyph glyph-name="Germandbls" unicode="&#x1e9e;" horiz-adv-x="720" 
d="M-43 0l1 4l14 26q15 27 31.5 64.5t24.5 69.5l101 373q53 203 284 203q71 0 162 -17.5t166 -50.5l-212 -262q76 -21 97.5 -70t21.5 -88q0 -28 -8 -57q-18 -67 -65 -117.5t-100 -71t-104 -20.5q-17 0 -61.5 5t-105.5 49l14 42q41 -20 78 -20q36 0 86.5 29t69.5 97
q5 18 5 35q0 43 -33 73.5t-94 30.5q-19 0 -41 -3l252 330q-47 43 -105 43q-60 0 -90.5 -44t-51.5 -124l-142 -529h-195z" />
    <glyph glyph-name="Ygrave" unicode="&#x1ef2;" horiz-adv-x="649" 
d="M137 720h259l-1 -4l-9 -19q-9 -19 -15.5 -38.5t-10.5 -42t-4 -35.5q0 -14 3 -27l44 -226l154 209q20 27 31.5 59.5t14 54.5t3.5 43l1 21l2 5h154l-1 -4q-1 -2 -22 -25.5t-50.5 -58t-49.5 -63.5l-216 -292l-31 -113q-7 -25 -10.5 -54.5t-4 -49.5t-0.5 -37v-19l-1 -4h-230
l1 4l14 26q15 27 31.5 64.5t24.5 69.5l30 113l-69 293q-6 29 -16.5 63t-19 57t-8.5 25zM463 982l168 -187l-21 -17l-277 94z" />
    <glyph glyph-name="ygrave" unicode="&#x1ef3;" horiz-adv-x="573" 
d="M0 -7h4q42 -90 120 -90q8 0 15 1q21 2 42 9v18q0 193 -20 405q-6 65 -36 65q-28 0 -86 -63l-11 3q34 77 86 124.5t105 47.5q44 0 65 -36.5t32 -117.5q18 -150 18 -301v-16q94 138 102 295v23q0 63 -14 115l183 41q-24 -135 -92.5 -277.5t-171.5 -257.5t-211 -150
q-59 -21 -115 -21q-49 0 -95 16zM204 659l130 110l168 -187l-21 -17z" />
    <glyph glyph-name="endash" unicode="&#x2013;" horiz-adv-x="556" 
d="M52 277l12 47h459l-12 -47h-459z" />
    <glyph glyph-name="emdash" unicode="&#x2014;" horiz-adv-x="979" 
d="M52 277l12 47h883l-12 -47h-883z" />
    <glyph glyph-name="quoteleft" unicode="&#x2018;" horiz-adv-x="242" 
d="M163 437q1 32 2 98t2.5 114t6.5 71h144q-8 -23 -32 -71t-58.5 -114t-50.5 -98h-14z" />
    <glyph glyph-name="quoteright" unicode="&#x2019;" horiz-adv-x="247" 
d="M162 437q1 32 2 98t2.5 114t6.5 71h145q-8 -24 -31.5 -71t-59.5 -115t-51 -97h-14z" />
    <glyph glyph-name="quotesinglbase" unicode="&#x201a;" horiz-adv-x="265" 
d="M-39 -137q45 24 72 60t34 67q-41 -2 -60 26.5t-8 72.5q10 41 41 66.5t67 24.5q39 -1 57.5 -35t4.5 -90q-14 -63 -61.5 -118.5t-110.5 -73.5h-36z" />
    <glyph glyph-name="quotedblleft" unicode="&#x201c;" horiz-adv-x="438" 
d="M241 437q-7 31 -25 97.5t-29 114t-13 71.5h144q-1 -24 -11.5 -71t-27.5 -115t-24 -97h-14zM420 437q-7 31 -25 97.5t-29.5 114t-12.5 71.5h144q-2 -23 -13 -71.5t-27 -113.5t-23 -98h-14z" />
    <glyph glyph-name="quotedblright" unicode="&#x201d;" horiz-adv-x="482" 
d="M145 437q11 30 33 97.5t39 114.5t29 71h144q-16 -24 -54.5 -71t-95 -114.5t-81.5 -97.5h-14zM323 437q11 30 33 97.5t39 114.5t29 71h144q-15 -24 -53.5 -71t-95.5 -114.5t-82 -97.5h-14z" />
    <glyph glyph-name="quotedblbase" unicode="&#x201e;" horiz-adv-x="265" 
d="M107 180q39 -1 57.5 -35t4.5 -90q-14 -63 -61.5 -118.5t-110.5 -73.5h-36q45 24 72 60t34 67q-41 -2 -60 26.5t-8 72.5q10 41 41 66.5t67 24.5z" />
    <glyph glyph-name="dagger" unicode="&#x2020;" horiz-adv-x="413" 
d="M189 270l73 270h-135l12 46h135l35 134h45l-36 -134h134l-12 -46h-133l-74 -270h-44z" />
    <glyph glyph-name="daggerdbl" unicode="&#x2021;" horiz-adv-x="413" 
d="M188 270l36 132h-134l12 46h134l25 92h-134l12 46h134l36 134h45l-37 -134h135l-12 -46h-134l-25 -92h134l-12 -46h-134l-36 -132h-45z" />
    <glyph glyph-name="bullet" unicode="&#x2022;" horiz-adv-x="343" 
d="M162 220q-49 -1 -76.5 37t-12.5 91q13 52 60.5 90.5t97.5 37.5q51 -2 77.5 -39t12.5 -89q-14 -53 -60.5 -89.5t-98.5 -38.5z" />
    <glyph glyph-name="ellipsis" unicode="&#x2026;" horiz-adv-x="823" 
d="M59 -12q-35 1 -52.5 28.5t-7.5 68.5q10 42 41 69t67 26q35 -1 52.5 -29t7.5 -69t-41 -68t-67 -26zM333 -12q-35 1 -53 28.5t-8 68.5q10 42 41 69t67 26q35 -1 53 -29t8 -69t-41.5 -68t-66.5 -26zM623 -12q-35 1 -53 28.5t-8 68.5q10 42 41.5 69t66.5 26t53 -29t8 -69
t-41.5 -68t-66.5 -26z" />
    <glyph glyph-name="perthousand" unicode="&#x2030;" horiz-adv-x="1088" 
d="M46 0l674 720h56l-673 -720h-57zM228 409q-53 0 -83.5 45t-13.5 111q18 66 72.5 110.5t107.5 44.5t84.5 -44.5t13.5 -110.5q-17 -66 -73 -111t-108 -45zM237 445q44 0 77 120q15 56 11 87.5t-24 31.5t-40 -31.5t-35 -87.5t-12 -88t23 -32zM517 0q-53 0 -83 45t-12 111
q17 66 71.5 110.5t106.5 44.5q54 0 85 -44.5t14 -110.5q-18 -66 -73 -111t-109 -45zM849 0q-53 0 -83 45t-12 111t72 110.5t107 44.5t84.5 -44.5t13.5 -110.5t-73 -111t-109 -45zM527 36q45 0 77 120q15 56 11 87.5t-24 31.5t-40 -31.5t-35 -87.5t-12 -88t23 -32zM859 36
q45 0 77 120q15 56 11.5 87.5t-23.5 31.5t-40.5 -31.5t-35.5 -87.5t-12 -88t23 -32z" />
    <glyph glyph-name="guilsinglleft" unicode="&#x2039;" horiz-adv-x="302" 
d="M156 72l-116 205l226 205h64l-226 -205l116 -205h-64z" />
    <glyph glyph-name="guilsinglright" unicode="&#x203a;" horiz-adv-x="304" 
d="M44 72h-64l226 205l-116 205h64l116 -205z" />
    <glyph glyph-name="fraction" unicode="&#x2044;" horiz-adv-x="253" 
d="M-239 -47l804 806h58l-805 -806h-57z" />
    <glyph glyph-name="Euro" unicode="&#x20ac;" horiz-adv-x="699" 
d="M345 -12q-124 0 -191 80t-53 213h-76l11 42h71q2 12 8 36q3 12 11 36h-71l11 42h76q57 134 169 213.5t239 79.5q85 0 225 -41l-54 -199l-6 -1q-11 30 -20 51.5t-24.5 51t-31 47.5t-37 31t-44.5 13q-60 0 -123 -67.5t-106 -178.5h215l-12 -42h-218q-2 -6 -5 -18t-5 -18
l-9 -36h218l-11 -42h-214q-16 -110 11 -177.5t85 -67.5q86 0 262 196l6 -2l-54 -200q-161 -42 -253 -42z" />
    <glyph glyph-name="trademark" unicode="&#x2122;" horiz-adv-x="754" 
d="M172 371q21 40 43 124l52 197h-5q-38 0 -62.5 -12.5t-56.5 -43.5l22 84h289l-22 -84q-16 31 -34.5 43.5t-55.5 12.5h-5l-53 -197q-22 -82 -23 -124h-89zM389 371q26 47 57 161l17 64q23 85 19 124h102l16 -242l149 242h91q-21 -40 -43 -124l-27 -101q-23 -86 -24 -124
h-91q22 46 43 124l33 142l-164 -266h-33l-19 285q-8 -18 -20 -60l-17 -64q-32 -118 -29 -161h-60z" />
    <glyph glyph-name="oneeighth" unicode="&#x215b;" horiz-adv-x="770" 
d="M-37 -47l804 806h58l-805 -806h-57zM109 367l1 1q0 1 7 14t15.5 32t12.5 35l55 207h-61l4 15q102 26 169 70l-78 -292q-6 -24 -6 -81l-1 -1h-118zM563 -6q-57 0 -93.5 24t-25.5 67q8 30 35.5 51t60.5 28q-58 38 -42 95q11 44 56 75t108 31q52 0 83 -21.5t20 -61.5
q-7 -27 -31 -47.5t-54 -29.5q70 -43 55 -103q-14 -52 -64 -80t-108 -28zM655 219q31 21 39 53q8 30 -2.5 50t-37.5 20q-23 0 -42.5 -14t-25.5 -36q-9 -32 33 -56q7 -3 36 -17zM567 17q26 0 46.5 14.5t26.5 37.5q11 42 -73 80l-4 1q-34 -22 -44 -58q-9 -31 4 -53t44 -22z" />
    <glyph glyph-name="threeeighths" unicode="&#x215c;" horiz-adv-x="853" 
d="M46 -47l804 806h58l-805 -806h-57zM176 361q-56 0 -103 20l47 99q2 2 3 1q6 -25 10 -39t11 -29.5t16.5 -22.5t21.5 -7q21 0 37 18.5t24 48.5q9 33 -3.5 59.5t-46.5 37.5l1 4q80 22 100 95q8 25 2 45t-25 20q-16 0 -35.5 -14.5t-33.5 -31t-41 -49.5q-2 -2 -2 0l5 97
q63 20 112 20q21 0 41 -4t41 -13t30 -28.5t2 -45.5q-11 -39 -49 -65t-89 -28q51 -1 76.5 -28t14.5 -67q-7 -27 -27.5 -46.5t-46.5 -29t-49 -13.5t-44 -4zM646 -6q-57 0 -93.5 24t-25.5 67q8 30 35.5 51t60.5 28q-58 38 -42 95q11 44 56 75t108 31q52 0 83 -21.5t20 -61.5
q-7 -27 -31 -47.5t-54 -29.5q70 -43 55 -103q-14 -52 -64 -80t-108 -28zM738 219q31 21 39 53q8 30 -2.5 50t-37.5 20q-23 0 -42.5 -14t-25.5 -36q-9 -32 33 -56q7 -3 36 -17zM650 17q26 0 46.5 14.5t26.5 37.5q11 42 -73 80l-4 1q-34 -22 -44 -58q-9 -31 4 -53t44 -22z" />
    <glyph glyph-name="fiveeighths" unicode="&#x215d;" horiz-adv-x="854" 
d="M47 -47l804 806h58l-805 -806h-57zM174 361q-57 0 -101 25l34 95h2q11 -42 30 -69.5t41 -27.5q19 0 36 19.5t28 59.5q11 38 0.5 63.5t-42.5 26.5q-31 2 -81 -19l70 193h128q25 0 55 6t37 10l-44 -92h-179l-30 -83q51 25 99 25q59 0 79 -33.5t8 -82.5q-15 -55 -61.5 -85.5
t-108.5 -30.5zM647 -6q-57 0 -93.5 24t-25.5 67q8 30 35.5 51t60.5 28q-58 38 -42 95q11 44 56 75t108 31q52 0 83 -21.5t20 -61.5q-7 -27 -31 -47.5t-54 -29.5q70 -43 55 -103q-14 -52 -64 -80t-108 -28zM739 219q31 21 39 53q8 30 -2.5 50t-37.5 20q-23 0 -42.5 -14
t-25.5 -36q-9 -32 33 -56q7 -3 36 -17zM651 17q26 0 46.5 14.5t26.5 37.5q11 42 -73 80l-4 1q-34 -22 -44 -58q-9 -31 4 -53t44 -22z" />
    <glyph glyph-name="seveneighths" unicode="&#x215e;" horiz-adv-x="859" 
d="M52 -47l804 806h58l-805 -806h-57zM99 367q7 16 103.5 128t139.5 156h-106q-42 0 -105 -28l62 104h235q-111 -138 -181 -282q-32 -68 -32 -78h-116zM652 -6q-57 0 -93.5 24t-25.5 67q8 30 35.5 51t60.5 28q-58 38 -42 95q11 44 56 75t108 31q52 0 83 -21.5t20 -61.5
q-7 -27 -31 -47.5t-54 -29.5q70 -43 55 -103q-14 -52 -64 -80t-108 -28zM744 219q31 21 39 53q8 30 -2.5 50t-37.5 20q-23 0 -42.5 -14t-25.5 -36q-9 -32 33 -56q7 -3 36 -17zM656 17q26 0 46.5 14.5t26.5 37.5q11 42 -73 80l-4 1q-34 -22 -44 -58q-9 -31 4 -53t44 -22z" />
    <glyph glyph-name="arrowleft" unicode="&#x2190;" horiz-adv-x="608" 
d="M248 83l-174 234l300 235l28 -37l-222 -173h396l-13 -49h-403l130 -177z" />
    <glyph glyph-name="arrowup" unicode="&#x2191;" horiz-adv-x="583" 
d="M218 73l109 403l-225 -178l-25 33l299 238l171 -238l-42 -33l-129 178l-109 -403h-49z" />
    <glyph glyph-name="arrowright" unicode="&#x2192;" horiz-adv-x="609" 
d="M268 78l-27 38l221 173h-396l14 49h403l-131 176l43 34l173 -235z" />
    <glyph glyph-name="arrowdown" unicode="&#x2193;" horiz-adv-x="583" 
d="M239 62l-170 238l42 32l129 -177l108 403h49l-108 -403l224 177l25 -32z" />
    <glyph glyph-name="arrowboth" unicode="&#x2194;" horiz-adv-x="902" 
d="M688 551l174 -235l-301 -235l-27 37l222 173h-597l130 -176l-42 -34l-174 235l301 235l26 -39l-221 -172h597l-130 177z" />
    <glyph glyph-name="arrowupdn" unicode="&#x2195;" horiz-adv-x="583" 
d="M330 249l-63 -237l224 178l27 -36l-298 -237l-174 240l43 33l129 -178l107 403l64 237l-224 -178l-28 36l299 237l174 -240l-43 -33l-129 178z" />
    <glyph glyph-name="uni2196" unicode="&#x2196;" horiz-adv-x="481" 
d="M356 125l-209 286l-66 -252h-48l88 334l334 -2l-13 -47l-251 1l209 -285z" />
    <glyph glyph-name="uni2197" unicode="&#x2197;" horiz-adv-x="481" 
d="M57 129l-24 34l360 285h-250l12 47l335 1l-92 -333l-47 1l68 250z" />
    <glyph glyph-name="uni2198" unicode="&#x2198;" horiz-adv-x="481" 
d="M346 138l-285 6l52 42l177 46l-171 242l74 -14l185 -200l60 211l31 -47z" />
    <glyph glyph-name="uni2199" unicode="&#x2199;" horiz-adv-x="480" 
d="M71 133l32 287l55 46l-52 -211l292 200l81 15l-300 -242l152 -46l29 -42z" />
    <glyph glyph-name="minus" unicode="&#x2212;" horiz-adv-x="551" 
d="M65 307l13 48h450l-13 -48h-450z" />
    <glyph glyph-name="notequal" unicode="&#x2260;" horiz-adv-x="535" 
d="M93 154l68 70h-117l13 47h150l117 120h-235l13 47h267l68 69h47l-67 -69h116l-12 -47h-150l-116 -120h233l-12 -47h-268l-68 -70h-47z" />
    <glyph glyph-name="lessequal" unicode="&#x2264;" horiz-adv-x="476" 
d="M387 125l-299 224l9 33l419 224l-16 -55l-346 -185l248 -186zM-5 41l13 47h372l-13 -47h-372z" />
    <glyph glyph-name="greaterequal" unicode="&#x2265;" horiz-adv-x="481" 
d="M19 125l14 55l347 186l-247 185l14 55l299 -224l-10 -33zM-1 41l13 47h372l-13 -47h-372z" />
    <glyph glyph-name="lozenge" unicode="&#x25ca;" horiz-adv-x="587" 
d="M273 0l-186 320l211 320h26l186 -320l-212 -320h-25zM287 69l167 251l-144 251l-167 -251z" />
    <glyph glyph-name="g.ss01" horiz-adv-x="499" 
d="M-33 32q26 93 147 122q-81 41 -81 119q0 24 7 50q25 91 108.5 140.5t170.5 49.5q60 0 108 -24q66 103 153 103q12 0 24 -2l-49 -129l-3 -1q-25 20 -60 20q-18 0 -40 -6q52 -40 52 -102q0 -23 -7 -49q-17 -62 -66.5 -107t-105 -64.5t-108.5 -19.5q-33 0 -65 9
q-56 -23 -62 -43v-3q0 -14 33.5 -18.5t108.5 -4.5h49q51 0 84 -11.5t45 -30t14 -33t2 -21.5q0 -16 -6 -32q-19 -70 -77.5 -106t-139.5 -36l4 16q40 6 71 24t38 45q0 8 1 11.5t1 5.5q0 4 -5 8t-8.5 7.5t-14 5.5t-18 3t-22 2t-25.5 1h-86q-98 0 -137 18t-39 54q0 13 4 29z
M188 222q5 -46 40 -46q36 0 64 42.5t44 104.5q14 41 14 78q0 11 -3.5 39.5t-39.5 28.5q-66 0 -107 -146q-13 -41 -13 -77q0 -12 1 -24z" />
    <glyph glyph-name="E_L" horiz-adv-x="959" 
d="M-28 4q1 1 9.5 18t19 37.5t22 50t17.5 54.5l100 392q7 25 10 54.5t3.5 50t0.5 37.5v18l1 4h507l-49 -196h-5q-1 1 -15.5 25.5t-33 52t-49 51t-60.5 23.5h-110l-74 -291h31q38 0 87.5 13.5t85 28t36.5 14.5h4l-37 -146h-4q-1 0 -19.5 9.5t-41.5 19.5t-56.5 18.5t-63.5 8.5
h-31l-78 -307h113q39 0 94.5 37t97.5 77l43 39h5l-50 -197h-511zM608 263q33 57 46 109l61 240q7 24 8.5 64t1.5 42v2h155l-10 -21q-9 -17 -19.5 -41.5t-15.5 -45.5l-80 -310h69q19 0 43 13t42 28.5t33 30t16 15.5h3l-33 -129h-321z" />
    <glyph glyph-name="L_A" horiz-adv-x="847" 
d="M-15 4q1 1 9.5 18t19 37.5t22 50t17.5 54.5l100 392q7 25 10 54.5t3.5 50t0.5 37.5v18l1 4h223l-1 -4q-1 -1 -9.5 -18t-19 -37.5t-22 -50t-17.5 -54.5l-130 -512h89q31 0 73.5 25.5t75.5 56t60.5 58t29.5 28.5h5l-53 -212h-488zM370 268q54 73 93 139l134 226
q16 26 16 56q0 13 -4 28l1 3h151l35 -347q8 -73 22 -105l-1 -3h-181l1 3q0 1 4.5 9.5t8.5 19t8 23.5t5.5 26t1.5 23v9l-3 41h-153l-11 -19q-11 -20 -17 -44.5t-6.5 -40.5t-0.5 -31v-16l-1 -3h-104zM657 457l-17 181l-108 -181h125z" />
    <glyph glyph-name="L_E" horiz-adv-x="759" 
d="M-15 4q1 1 9.5 18t19 37.5t22 50t17.5 54.5l100 392q6 25 9.5 54.5t4 49.5t0.5 38v18l1 4h223l-1 -4q-1 -1 -9.5 -18t-19 -37.5t-22 -50t-17.5 -54.5l-131 -512h90q39 0 95.5 40.5t100.5 83.5l44 44h4l-54 -212h-487zM390 262v2q0 2 8.5 18.5t18.5 41t15 44.5l63 245
q5 20 7 44.5t2 42.5v20h327l-32 -124h-3l-14 22q-15 21 -38.5 41t-48.5 20h-64l-42 -165h21q24 0 52.5 7t48.5 14.5t21 7.5h3l-25 -95h-3l-16 8q-16 7 -41 14t-50 7h-21l-44 -175h66q19 0 45 13.5t45.5 29t36 30t17.5 14.5h3l-30 -127h-328z" />
    <glyph glyph-name="N_o" horiz-adv-x="1278" 
d="M959 174q-106 0 -157.5 77t-19.5 200t122.5 199.5t196.5 76.5q107 0 159 -76.5t20 -199.5t-123 -200t-198 -77zM-14 3l1 5q1 2 16 27.5t32.5 56t37 74t28.5 79.5l80 309q6 25 7.5 54.5t-0.5 49.5t-4.5 37.5t-2.5 18.5l1 3h203l195 -493l65 252q9 36 12 79.5t1 74
t-4.5 55.5t-2.5 27l2 5h155l-2 -5q-1 -1 -16.5 -26.5t-33 -56t-37 -74t-28.5 -79.5l-121 -473h-107l-229 575l-86 -333q-9 -36 -12 -79.5t-1.5 -74t4 -56t2.5 -27.5l-1 -5h-154zM968 207q51 0 99 78.5t70 166.5q10 39 14 80t1.5 78t-18 60.5t-41.5 23.5q-50 0 -98 -78.5
t-70 -166.5q-14 -54 -17.5 -107t11 -94t49.5 -41zM914 -3q-20 0 -30 14t-6 34q5 20 23 34.5t38 14.5q19 0 29.5 -14.5t5.5 -34.5t-23 -34t-37 -14z" />
    <glyph glyph-name="t_i" horiz-adv-x="728" 
d="M681 766q40 0 60.5 -29t9.5 -71t-48 -71.5t-77 -29.5q-39 0 -60 29.5t-10 71.5t48 71t77 29zM596 144q-12 -42 12 -39q32 3 85 62q2 2 4 5l11 -4q-31 -78 -82.5 -127t-113.5 -49q-61 0 -79 47t5 118l53 186q16 55 16 117h-214l-84 -308q-13 -45 14 -45q20 1 51 23.5
t59 57.5l11 -4q-30 -79 -89.5 -136t-122.5 -57q-58 0 -81 48.5t-3 118.5l81 302h-70l13 45q149 66 275 178l6 3l-48 -179h393z" />
    <glyph glyph-name="t_t" horiz-adv-x="770" 
d="M678 460l-84 -308q-13 -45 14 -45q20 1 51 23.5t59 57.5l11 -4q-30 -79 -89.5 -136t-122.5 -57q-58 0 -81 48.5t-3 118.5l81 302h-221l-84 -308q-13 -45 14 -45q20 1 51 23.5t59 57.5l11 -4q-30 -79 -89.5 -136t-122.5 -57q-58 0 -81 48.5t-3 118.5l81 302h-70l13 45
q149 66 275 178l6 3l-48 -179h156q148 67 271 176l6 3l-48 -179h129l-12 -47h-129z" />
    <glyph glyph-name="t_u" horiz-adv-x="1043" 
d="M1001 171l11 -4q-30 -77 -83 -126.5t-115 -49.5q-59 0 -77.5 41t-2.5 101l3 12q-97 -151 -203 -151q-62 0 -93 43t-10 116l54 189q15 53 15 118h-207l-84 -308q-13 -45 14 -45q20 1 51 23.5t59 57.5l11 -4q-30 -79 -89.5 -136t-122.5 -57q-58 0 -81 48.5t-3 118.5l81 302
h-70l13 45q149 66 275 178l6 3l-48 -179h392l-94 -323q-26 -88 17 -88q35 0 82.5 57.5t83.5 169.5l50 184h163l-99 -369q-10 -37 14 -34q32 5 83 62q2 2 4 5z" />
    <glyph glyph-name="t_w" horiz-adv-x="1210" 
d="M1057 472l180 42q0 -50 -40 -157q-56 -164 -155.5 -263.5t-209.5 -99.5q-64 0 -100 37.5t-24 102.5q-106 -140 -213 -140q-60 0 -89.5 44t-8.5 117l53 187q15 53 15 118h-172l-84 -308q-13 -45 14 -45q20 1 51 23.5t59 57.5l11 -4q-30 -79 -89.5 -136t-122.5 -57
q-58 0 -81 48.5t-3 118.5l81 302h-70l13 45q149 66 275 178l6 3l-48 -179h357l-93 -321q-11 -48 -1 -69t31 -21q33 0 78.5 56.5t81.5 166.5l7 23q9 32 12.5 72t3 60t-1.5 29v4h198l-94 -323q-16 -49 -7.5 -86.5t40.5 -37.5q60 0 113 89t48 219q-2 62 -21 104z" />
    <glyph glyph-name="zero.dnom" horiz-adv-x="345" 
d="M123 -4q-65 0 -95 51.5t-8 133.5q22 81 79.5 132t122.5 51t95 -51t9 -132t-79 -133t-124 -52zM130 22q52 0 95 160q43 157 -10 157t-94 -159q-42 -158 9 -158z" />
    <glyph glyph-name="one.dnom" horiz-adv-x="202" 
d="M11 0l1 1q0 1 7 14t15.5 32t12.5 35l55 207h-61l4 15q102 26 169 70l-78 -292q-6 -24 -6 -81l-1 -1h-118z" />
    <glyph glyph-name="two.dnom" horiz-adv-x="292" 
d="M-35 0q65 64 92.5 92t68 73t59 75t25.5 56q12 45 -21 45q-45 0 -123 -99h-1l4 96q79 27 128 27q53 0 82.5 -23t17.5 -66q-17 -67 -135 -142q-32 -23 -100 -65h74q65 0 110 34q2 1 3 0.5t0 -2.5l-44 -101h-240z" />
    <glyph glyph-name="three.dnom" horiz-adv-x="285" 
d="M78 -6q-56 0 -103 20l47 99q2 2 3 1q6 -25 10 -39t11 -29.5t16.5 -22.5t21.5 -7q21 0 37 18.5t24 48.5q9 33 -3.5 59.5t-46.5 37.5l1 4q80 22 100 95q8 25 2 45t-25 20q-16 0 -35.5 -14.5t-33.5 -31t-41 -49.5q-2 -2 -2 0l5 97q62 20 112 20q21 0 41 -4t41 -13t30 -28.5
t2 -45.5q-11 -39 -49 -65t-89 -28q51 -1 76.5 -28t14.5 -67q-7 -27 -27.5 -46.5t-46.5 -29t-49 -13.5t-44 -4z" />
    <glyph glyph-name="four.dnom" horiz-adv-x="310" 
d="M98 0q0 1 7.5 15t16.5 34t13 36h-151l238 275h76l-66 -250h49l-7 -25h-49q-9 -34 -9 -85h-118zM32 110h110l49 182z" />
    <glyph glyph-name="five.dnom" horiz-adv-x="286" 
d="M76 -6q-56 0 -102 25l35 95h2q11 -42 30 -69.5t41 -27.5q19 0 36 19.5t28 59.5q11 38 0.5 63.5t-42.5 26.5q-31 2 -81 -19l70 193h128q25 0 55 6t37 10l-44 -92h-179l-30 -83q51 25 99 25q59 0 79 -33.5t8 -82.5q-15 -55 -61.5 -85.5t-108.5 -30.5z" />
    <glyph glyph-name="six.dnom" horiz-adv-x="326" 
d="M118 -6q-65 -1 -92 52t-5 135t75.5 133t121.5 51q55 0 112 -24l-41 -94h-2q-32 96 -75 96q-26 0 -46.5 -37t-40.5 -111q40 29 88 29q49 0 69.5 -31t9.5 -76q-15 -54 -65 -88.5t-109 -34.5zM125 17q20 0 38 22t27 56q11 32 4.5 63.5t-33.5 31.5q-17 0 -42 -17
q-39 -156 6 -156z" />
    <glyph glyph-name="seven.dnom" horiz-adv-x="291" 
d="M1 0q7 16 103.5 128t139.5 156h-106q-42 0 -105 -28l62 104h235q-111 -138 -181 -282q-32 -68 -32 -78h-116z" />
    <glyph glyph-name="eight.dnom" horiz-adv-x="315" 
d="M108 -6q-57 0 -93.5 24t-25.5 67q8 30 35.5 51t60.5 28q-58 38 -42 95q11 44 56 75t108 31q52 0 83 -21.5t20 -61.5q-7 -27 -31 -47.5t-54 -29.5q70 -43 55 -103q-14 -52 -64 -80t-108 -28zM200 219q31 21 39 53q8 30 -2.5 50t-37.5 20q-23 0 -42.5 -14t-25.5 -36
q-9 -32 33 -55q8 -5 28 -14q5 -3 8 -4zM112 17q26 0 46.5 14.5t26.5 37.5q11 42 -73 80l-4 1q-34 -22 -44 -58q-9 -31 4 -53t44 -22z" />
    <glyph glyph-name="nine.dnom" horiz-adv-x="327" 
d="M109 -6q-56 0 -111 24l39 94q2 2 3 1q34 -96 75 -96q26 0 46.5 36.5t41.5 111.5q-41 -30 -90 -30t-69.5 31.5t-8.5 76.5q15 53 65 87.5t109 34.5q65 1 92 -51.5t5 -134.5q-22 -83 -75.5 -134t-121.5 -51zM165 170q20 0 43 17q8 35 12.5 58.5t6.5 48t-4 37t-20 12.5
q-21 0 -39 -22t-27 -56q-11 -32 -5 -64t33 -31z" />
    <glyph glyph-name="zero.numr" horiz-adv-x="345" 
d="M221 363q-65 0 -95 51.5t-8 133.5q22 81 79.5 132t122.5 51t95 -51t9 -132t-79 -133t-124 -52zM228 389q51 0 96 160q40 157 -11 157q-53 0 -94 -159q-42 -158 9 -158z" />
    <glyph glyph-name="one.numr" horiz-adv-x="202" 
d="M109 367l1 1q0 1 7 14t15.5 32t12.5 35l55 207h-61l4 15q102 26 169 70l-78 -292q-6 -24 -6 -81l-1 -1h-118z" />
    <glyph glyph-name="two.numr" horiz-adv-x="292" 
d="M63 367q65 64 92.5 92t68 73t59 75t25.5 56q12 45 -21 45q-45 0 -123 -99h-1l4 96q79 27 128 27q53 0 82.5 -23t17.5 -66q-17 -67 -135 -142q-32 -23 -100 -65h74q65 0 110 34q2 1 3 0.5t0 -2.5l-44 -101h-240z" />
    <glyph glyph-name="three.numr" horiz-adv-x="285" 
d="M176 361q-56 0 -103 20l47 99q2 2 3 1q6 -25 10 -39t11 -29.5t16.5 -22.5t21.5 -7q21 0 37 18.5t24 48.5q9 33 -3.5 59.5t-46.5 37.5l1 4q80 22 100 95q8 25 2 45t-25 20q-16 0 -35.5 -14.5t-33.5 -31t-41 -49.5q-2 -2 -2 0l5 97q63 20 112 20q21 0 41 -4t41 -13
t30 -28.5t2 -45.5q-11 -39 -49 -65t-89 -28q51 -1 76.5 -28t14.5 -67q-7 -27 -27.5 -46.5t-46.5 -29t-49 -13.5t-44 -4z" />
    <glyph glyph-name="four.numr" horiz-adv-x="310" 
d="M196 367q0 1 7.5 15t16.5 34t13 36h-151l238 275h76l-66 -250h49l-7 -25h-49q-9 -34 -9 -85h-118zM130 477h110l49 182z" />
    <glyph glyph-name="five.numr" horiz-adv-x="286" 
d="M174 361q-57 0 -101 25l34 95h2q11 -42 30 -69.5t41 -27.5q19 0 36 19.5t28 59.5q11 38 0.5 63.5t-42.5 26.5q-31 2 -81 -19l70 193h128q25 0 55 6t37 10l-44 -92h-179l-30 -83q51 25 99 25q59 0 79 -33.5t8 -82.5q-15 -55 -61.5 -85.5t-108.5 -30.5z" />
    <glyph glyph-name="six.numr" horiz-adv-x="326" 
d="M216 361q-65 -1 -92 52t-5 135t75.5 133t121.5 51q55 0 112 -24l-41 -94h-2q-32 96 -75 96q-26 0 -46.5 -37t-40.5 -111q40 29 88 29q49 0 69.5 -31t9.5 -76q-15 -54 -65 -88.5t-109 -34.5zM223 384q20 0 38 22t27 56q11 32 4.5 63.5t-33.5 31.5q-17 0 -42 -17
q-39 -156 6 -156z" />
    <glyph glyph-name="seven.numr" horiz-adv-x="291" 
d="M99 367q7 16 103.5 128t139.5 156h-106q-42 0 -105 -28l62 104h235q-111 -138 -181 -282q-32 -68 -32 -78h-116z" />
    <glyph glyph-name="eight.numr" horiz-adv-x="315" 
d="M206 361q-57 0 -93.5 24.5t-25.5 66.5q8 30 35.5 51t60.5 28q-58 38 -42 95q11 44 56 75t108 31q52 0 83 -21.5t20 -61.5q-7 -27 -31 -47.5t-54 -29.5q70 -43 55 -103q-14 -52 -64 -80t-108 -28zM298 586q31 21 39 53q8 30 -2.5 50t-37.5 20q-23 0 -42.5 -14t-25.5 -36
q-9 -32 33 -55q8 -5 28 -14q5 -3 8 -4zM210 384q26 0 46.5 14.5t26.5 37.5q11 42 -73 80l-4 1q-34 -22 -44 -58q-9 -31 4 -53t44 -22z" />
    <glyph glyph-name="nine.numr" horiz-adv-x="327" 
d="M207 361q-56 0 -111 24l39 94q2 2 3 1q34 -96 75 -96q26 0 46.5 36.5t41.5 111.5q-41 -30 -90 -30t-69.5 31.5t-8.5 76.5q15 53 65 87.5t109 34.5q65 1 92 -51.5t5 -134.5q-22 -83 -75.5 -134t-121.5 -51zM263 537q20 0 43 17q8 35 12.5 58.5t6.5 48t-4 37t-20 12.5
q-21 0 -39 -22t-27 -56q-11 -32 -5 -64t33 -31z" />
    <glyph glyph-name="parenleft.case" horiz-adv-x="326" 
d="M212 -95q-34 21 -65 59.5t-56.5 98.5t-28.5 134t18 164q22 84 68.5 162.5t101.5 135.5t108 96.5t98 60.5l6 -10q-88 -73 -150.5 -200.5t-93.5 -244.5q-19 -71 -30 -145.5t-5 -163t40 -138.5z" />
    <glyph glyph-name="parenright.case" horiz-adv-x="314" 
d="M-73 -96l-7 9q85 73 146.5 199.5t94.5 246.5q19 72 30 145.5t6 162t-37 138.5l11 9q45 -29 81 -88.5t54 -155t-15 -211.5q-22 -84 -67 -162.5t-98.5 -135.5t-104.5 -96.5t-94 -60.5z" />
    <glyph glyph-name="braceleft.case" horiz-adv-x="321" 
d="M133 -82q-63 0 -96.5 33.5t-19.5 88.5q8 29 52.5 108t55.5 119q18 76 -48 86l5 20q33 5 58.5 27.5t36.5 61.5q11 41 8.5 117.5t4.5 105.5q15 54 66 88t114 34q65 0 88 -2l-6 -20q-51 0 -89.5 -22.5t-48.5 -62.5q-8 -31 3.5 -105.5t2.5 -107.5q-13 -48 -60 -79.5
t-106 -44.5q52 -14 82 -45.5t17 -79.5q-8 -30 -60 -106t-61 -108q-10 -39 17 -61.5t77 -22.5l-6 -20q-58 -2 -87 -2z" />
    <glyph glyph-name="braceright.case" horiz-adv-x="323" 
d="M7 -82q-15 0 -44 0.5t-43 0.5l5 20q51 0 90 23t49 62q8 31 -3.5 106.5t-2.5 106.5q12 49 59 80t107 45q-52 14 -82.5 45t-17.5 79q9 34 61 108.5t60 105.5q10 39 -16.5 61.5t-77.5 22.5l6 21q24 1 88 1q63 0 96.5 -33.5t19.5 -87.5q-8 -29 -52 -106t-55 -118
q-10 -39 3 -61.5t44 -27.5l-6 -20q-72 -10 -94 -86q-10 -40 -8 -119t-5 -108q-15 -54 -66.5 -87.5t-114.5 -33.5z" />
    <glyph glyph-name="bracketleft.case" horiz-adv-x="311" 
d="M-40 -90l238 888h247l-4 -16q-37 -9 -54 -13t-36.5 -13.5t-26 -15.5t-16.5 -25.5t-14.5 -35.5t-14.5 -53l-146 -544q-7 -28 -11 -41.5t-6 -31t-2 -24.5t4.5 -17t10.5 -14t19.5 -10t26 -9.5t36.5 -9.5l-4 -15h-247z" />
    <glyph glyph-name="bracketright.case" horiz-adv-x="310" 
d="M166 -90h-246l4 15q36 8 53.5 12t36.5 14t25.5 16t16.5 25.5t14.5 36t14.5 53.5l146 544q7 28 11 41.5t6 31t2 24t-5 17t-10 13.5t-19 9.5t-26.5 10t-36.5 9.5l5 16h246z" />
    <glyph glyph-name="space.001" horiz-adv-x="228" 
 />
    <glyph glyph-name="newGlyph" horiz-adv-x="595" 
 />
    <glyph glyph-name="newGlyph.001" horiz-adv-x="595" 
 />
    <glyph glyph-name="bdpq" horiz-adv-x="611" 
d="M385 -6q-58 0 -105.5 34t-62.5 95v10q42 -45 90 -45q50 0 74 45.5t24 116.5q0 79 -23 131.5t-77 52.5q-42 0 -95 -46l-2 7q28 65 75.5 93.5t98.5 28.5q81 0 142 -69t61 -196q0 -124 -58 -191t-142 -67z" />
    <glyph glyph-name="newGlyph.002" horiz-adv-x="595" 
 />
    <glyph glyph-name="newGlyph.003" horiz-adv-x="595" 
 />
    <glyph glyph-name="newGlyph.004" horiz-adv-x="595" 
 />
    <glyph glyph-name="newGlyph.005" horiz-adv-x="595" 
 />
    </font>
</defs>
</svg>
