<?xml version="1.0" standalone="no"?>
<!DOCTYPE svg PUBLIC "-//W3C//DTD SVG 1.1//EN" "http://www.w3.org/Graphics/SVG/1.1/DTD/svg11.dtd" >
<svg xmlns="http://www.w3.org/2000/svg" xmlns:xlink="http://www.w3.org/1999/xlink" version="1.1">
<metadata>
Created by FontForge 20170731 at Thu Oct  1 08:29:22 2020
 By Aleksey,,,
Copyright (c) 2020 by Tom Anders Watkins &#38; Ellen Luff. All rights reserved.
</metadata>
<defs>
<font id="Larken-BoldItalic" horiz-adv-x="0" >
  <font-face 
    font-family="Larken-BoldItalic"
    font-weight="400"
    font-style="italic"
    font-stretch="normal"
    units-per-em="1000"
    panose-1="0 0 8 0 0 0 0 0 0 0"
    ascent="791"
    descent="-209"
    x-height="504"
    cap-height="720"
    bbox="-497 -329 1270.34 1048"
    underline-thickness="50"
    underline-position="-150"
    slope="-15"
    unicode-range="U+0020-FB01"
  />
<missing-glyph horiz-adv-x="510" 
d="M95 -200v1020h323v-1020h-323zM340 9v115h-170v-115h170zM170 -14v-34h72l-72 -48v-34h170v34h-104l71 48h33v34h-170zM340 186v115h-102v-57h34v23h34v-48h-102v82h-34v-115h170zM170 620v-106h170v35h-68v71h-102zM340 647v33h-68v38h68v34h-169v-34h67v-38h-68v-33
h170zM170 415v-34h102v72h68v33h-170v-33h68v-38h-68zM306 358h-136v-35h170v102h-34v-67zM204 91h102v-48h-102v48zM204 585h34v-36h-34v36z" />
    <glyph glyph-name="fi" unicode="fi" horiz-adv-x="676" 
d="M635 176l10 -5q-32 -78 -82 -128t-107 -50q-53 0 -70 41.5t4 108.5l57 204q16 59 16 113h-171l-101 -378q-38 -142 -125.5 -208.5t-206.5 -61.5q75 44 119 105t71 165l100 378h-77l12 44h77l10 34q15 55 45.5 95.5t69 62t76.5 31.5t76 10q101 0 175 -30l-33 -126h-5
q-23 45 -58 79.5t-72 34.5q-88 0 -133 -163l-8 -28h327l-102 -370q-12 -43 11 -40q30 4 83 67z" />
    <glyph glyph-name="fl" unicode="fl" horiz-adv-x="743" 
d="M596 134q-11 -44 13 -40q31 4 84 69l10 13l9 -5q-31 -78 -82 -128t-108 -50q-52 0 -69.5 37.5t-0.5 94.5l140 518q-53 54 -128 54q-106 0 -152 -165l-7 -28h147l-12 -44h-147l-102 -378q-38 -142 -125.5 -208.5t-206.5 -61.5q75 44 118.5 105t71.5 165l101 378h-78l12 44
h78l9 34q19 73 67.5 119.5t101.5 63t115 16.5q86 0 169 -29l136 39z" />
    <glyph glyph-name=".notdef" horiz-adv-x="510" 
d="M95 -200v1020h323v-1020h-323zM340 9v115h-170v-115h170zM170 -14v-34h72l-72 -48v-34h170v34h-104l71 48h33v34h-170zM340 186v115h-102v-57h34v23h34v-48h-102v82h-34v-115h170zM170 620v-106h170v35h-68v71h-102zM340 647v33h-68v38h68v34h-169v-34h67v-38h-68v-33
h170zM170 415v-34h102v72h68v33h-170v-33h68v-38h-68zM306 358h-136v-35h170v102h-34v-67zM204 91h102v-48h-102v48zM204 585h34v-36h-34v36z" />
    <glyph glyph-name=".null" 
 />
    <glyph glyph-name="uni000D" horiz-adv-x="333" 
 />
    <glyph glyph-name="space" unicode=" " horiz-adv-x="235" 
 />
    <glyph glyph-name="exclam" unicode="!" horiz-adv-x="279" 
d="M126 247q5 50 12.5 148t15 176.5t18.5 148.5h186q-27 -70 -61.5 -149t-79 -175.5t-67.5 -148.5h-24zM19 78q9 36 38 61t61 25q32 -1 45.5 -22t13.5 -42q0 -12 -3 -25q-10 -37 -38.5 -61.5t-61.5 -24.5q-31 1 -45 22t-14 41q0 12 4 26z" />
    <glyph glyph-name="quotedbl" unicode="&#x22;" horiz-adv-x="408" 
d="M166 441q2 31 4.5 96.5t5.5 112t8 70.5h128q-8 -24 -30 -70.5t-54.5 -112t-47.5 -96.5h-14zM335 538q2 65 5 111.5t8 70.5h128q-8 -24 -30 -70.5t-54.5 -112t-47.5 -96.5h-14q2 31 5 97z" />
    <glyph glyph-name="numbersign" unicode="#" horiz-adv-x="631" 
d="M32 263h128l89 195h-139l10 38h146l102 224h42l-102 -224h196l101 224h42l-101 -224h122l-11 -38h-128l-89 -195h139l-10 -39h-146l-102 -224h-42l101 224h-195l-101 -224h-42l101 224h-122zM202 263h196l89 195h-196z" />
    <glyph glyph-name="dollar" unicode="$" horiz-adv-x="588" 
d="M33 206h6q93 -142 179 -169l71 265l-18 11q-96 57 -124 104t-28 88q0 29 10 62q24 77 94.5 121t177.5 47h4l21 80h41l-22 -81q93 -5 202 -51l-46 -159h-5q-2 3 -19 26t-23.5 32t-24 29.5t-30 31t-31 22.5t-36.5 18l-66 -244q10 -5 19 -11q89 -55 120.5 -105t31.5 -96
q0 -28 -9 -60q-23 -77 -97.5 -129t-181.5 -54h-4l-24 -88h-41l24 89q-96 7 -214 66zM264 31q41 3 74.5 25.5t46.5 66.5q5 18 5 36q0 62 -67 118l-66 -246h7zM332 463l61 227h-8q-42 -2 -74.5 -26t-44.5 -62q-5 -15 -5 -30q0 -57 71 -109z" />
    <glyph glyph-name="percent" unicode="%" horiz-adv-x="771" 
d="M132 565q18 66 72 110.5t106 44.5t77.5 -36.5t25.5 -72.5q0 -22 -7 -46q-17 -66 -72 -111t-107 -45t-77 36.5t-25 73.5q0 22 7 46zM422 156q18 66 72 110.5t106 44.5t77.5 -36.5t25.5 -72.5q0 -22 -7 -46q-17 -66 -72 -111t-107 -45t-77 36.5t-25 73.5q0 22 7 46zM47 0
l674 720h53l-674 -720h-53zM498 67q5 -33 28 -33t45.5 33t35.5 81.5t13 76.5q0 11 -3.5 31.5t-25.5 20.5q-23 0 -45.5 -32.5t-35.5 -81.5t-13 -78q0 -10 1 -18zM209 476q4 -33 27 -33t45.5 33t35.5 81.5t13 76.5q0 11 -3.5 31.5t-25.5 20.5q-23 0 -45 -32.5t-35 -81.5
t-13 -78q0 -10 1 -18z" />
    <glyph glyph-name="ampersand" unicode="&#x26;" horiz-adv-x="709" 
d="M15 187q19 68 71.5 108t131.5 69q-14 22 -21 34.5t-17.5 34t-14 39t-3.5 40.5t6 46q15 58 58 98t94.5 57t109.5 17q91 0 132 -37.5t41 -81.5q0 -17 -5 -37q-15 -58 -67 -96.5t-149 -75.5l109 -184q19 22 31 44q19 31 19 72q0 21 -5 45l1 3h137l-1 -3q-63 -48 -113 -119
q-39 -55 -52 -71q25 -41 40 -56.5t32 -23.5q12 -6 26 -6q20 0 45 13q-16 -60 -53.5 -92.5t-85.5 -32.5q-43 0 -78 33q-23 24 -40 51q-105 -85 -214 -85q-86 0 -129.5 46.5t-43.5 98.5q0 25 8 52zM171 103q23 -42 83 -42q57 0 119 46l-128 213q-67 -53 -82 -114
q-6 -25 -6 -46q0 -32 14 -57zM308 555q1 -10 6.5 -25t9 -23.5t12.5 -25.5t13 -24t15 -25q93 65 114 142q6 21 6 40q0 21 -11 47t-54 26q-38 0 -69 -25.5t-40 -60.5q-3 -11 -3 -23.5t1 -22.5z" />
    <glyph glyph-name="quotesingle" unicode="'" horiz-adv-x="230" 
d="M156 441q2 31 4.5 96.5t5.5 112t8 70.5h128q-8 -24 -30 -70.5t-54.5 -112t-47.5 -96.5h-14z" />
    <glyph glyph-name="parenleft" unicode="(" horiz-adv-x="306" 
d="M67 295q22 83 65 161t94 135t100.5 97.5t92.5 62.5l4 -8q-85 -75 -146.5 -202.5t-92.5 -245.5q-19 -71 -29 -134t-10 -121q0 -26 3.5 -84t35.5 -110l-10 -9q-71 48 -100 141.5t-29 161.5q0 73 22 155z" />
    <glyph glyph-name="parenright" unicode=")" horiz-adv-x="303" 
d="M-96 -154q86 75 147.5 202.5t93.5 246.5q19 72 28.5 134t9.5 120q0 26 -3.5 84t-34.5 110l9 8q72 -48 101 -140t29 -160q0 -74 -22 -156q-29 -108 -95 -208t-132 -160t-126 -90z" />
    <glyph glyph-name="asterisk" unicode="*" horiz-adv-x="332" 
d="M228 604q-48 23 -77 28l52 65q13 -26 50 -65q5 39 5 74v19h70q-16 -26 -45 -93q49 31 85 65l17 -65q-37 -7 -92 -28q49 -21 78 -28l-53 -65q-15 26 -49 65q-6 -37 -6 -69q0 -13 1 -24h-71q25 42 44 93q-60 -42 -83 -65l-19 65q32 5 93 28z" />
    <glyph glyph-name="plus" unicode="+" horiz-adv-x="577" 
d="M70 310l12 42h98q60 0 77 2t26 8q12 10 36 105l29 105h44l-29 -106q-20 -74 -20 -96q0 -6 1 -8q5 -7 20 -8.5t77 -1.5h108l-11 -42h-107q-61 0 -78 -2t-26 -8q-8 -6 -13.5 -22.5t-23.5 -82.5l-28 -105h-43l28 105q18 69 19.5 78.5t1.5 14.5q0 7 -2 12q-5 6 -21 8t-77 2
h-98z" />
    <glyph glyph-name="comma" unicode="," horiz-adv-x="258" 
d="M-37 -129q43 23 69 57.5t33 62.5h-6q-34 0 -48 20t-14 42q0 12 4 27q10 36 38 59t60 23q36 -1 49.5 -26t13.5 -50q0 -17 -5 -38q-14 -57 -58.5 -108t-102.5 -69h-33z" />
    <glyph glyph-name="hyphen" unicode="-" horiz-adv-x="472" 
d="M53 280l12 44h370l-11 -44h-371z" />
    <glyph glyph-name="period" unicode="." horiz-adv-x="252" 
d="M3 77q9 37 37 61t58 24q2 0 18.5 -0.5t29.5 -21t13 -41.5q0 -12 -6 -37t-34 -49t-59 -24q-1 0 -17.5 0.5t-29.5 21t-13 41.5q0 12 3 25z" />
    <glyph glyph-name="slash" unicode="/" horiz-adv-x="356" 
d="M-50 -34l470 778h42l-470 -778h-42z" />
    <glyph glyph-name="zero" unicode="0" horiz-adv-x="654" 
d="M72 387q39 145 146.5 242.5t228.5 97.5q125 0 170 -83t45 -162q0 -65 -22 -145q-39 -147 -147 -245.5t-228 -98.5q-126 0 -170.5 83t-44.5 163q0 67 22 148zM218 67q17 -29 51 -29q35 0 67.5 29.5t58 79.5t45 103.5t35.5 113.5q16 58 25 111t9.5 78t0.5 26
q0 47 -16.5 75.5t-50.5 28.5q-35 0 -67.5 -29.5t-58.5 -80t-45 -102t-34 -110.5q-17 -61 -25.5 -113.5t-9.5 -79.5t-1 -31q0 -44 16 -70z" />
    <glyph glyph-name="one" unicode="1" horiz-adv-x="346" 
d="M32 0l1 4l7 14q7 13 14 26.5t16 32.5t17 40.5t13 40.5l115 431h-115l7 26q184 50 301 129l-157 -586q-6 -23 -10 -51t-4.5 -47t-1 -36.5t-0.5 -19.5l-1 -4h-202z" />
    <glyph glyph-name="two" unicode="2" horiz-adv-x="556" 
d="M-45 1q212 215 321.5 350.5t136.5 235.5q5 23 5.5 34.5l0.5 11.5q0 22 -14.5 37.5t-42.5 15.5q-85 0 -233 -186l-4 1l13 172q148 57 246 57t146 -42t48 -95q0 -21 -6 -44q-29 -112 -208 -247l-240 -183h172q117 0 207 64l3 -2l-75 -180h-476z" />
    <glyph glyph-name="three" unicode="3" horiz-adv-x="538" 
d="M52 211l5 1q10 -43 19 -71t23.5 -56t34.5 -42t46 -14q45 0 78.5 37.5t49.5 96.5q7 27 7 52q0 38 -21.5 82t-91.5 61l3 10q78 19 133 70t74 121q7 27 7 49q0 24 -11.5 53t-55.5 29q-45 0 -92.5 -43t-119.5 -134h-5l14 174q116 44 226 44q101 0 150.5 -44.5t49.5 -98.5
q0 -23 -8 -49q-21 -71 -86.5 -120.5t-156.5 -54.5q91 -5 123 -51.5t32 -92.5q0 -26 -8 -55q-18 -64 -71.5 -106t-108.5 -56.5t-110 -14.5q-56 0 -115.5 14t-96.5 31z" />
    <glyph glyph-name="four" unicode="4" horiz-adv-x="566" 
d="M-13 170l466 550h128l-135 -506h96l-11 -44h-97l-4 -13q-6 -23 -10 -51.5t-5 -47.5t-1.5 -38t-0.5 -20h-197q1 1 10.5 20t18.5 38t20.5 47.5t17.5 51.5l4 13h-300zM298 214l104 386l-330 -386h226z" />
    <glyph glyph-name="five" unicode="5" horiz-adv-x="526" 
d="M-28 42l60 169l5 1q20 -81 57 -131.5t83 -50.5q43 0 79.5 42.5t58.5 121.5q12 40 12 73q0 32 -16.5 72t-82.5 42h-6q-68 0 -160 -42l136 381h235q108 0 180 31l-75 -164h-341l-66 -187q96 51 186 51q110 0 143 -55.5t33 -108.5q0 -35 -11 -75q-28 -105 -108 -164.5
t-194 -59.5q-124 0 -208 54z" />
    <glyph glyph-name="six" unicode="6" horiz-adv-x="602" 
d="M65 381q40 150 140.5 249.5t226.5 99.5q100 0 213 -50l-70 -171h-6q-58 179 -141 179q-112 0 -193 -317q79 76 183 76q93 0 126 -51t33 -101q0 -30 -10 -65q-29 -107 -116.5 -174.5t-194.5 -67.5q-126 0 -169 85.5t-43 164.5q0 65 21 143zM254 30q45 0 84.5 46t58.5 118
q11 48 11.5 70.5t0.5 24.5q0 39 -19 67t-57 28q-55 0 -109 -55q-27 -122 -27 -194q0 -105 57 -105z" />
    <glyph glyph-name="seven" unicode="7" horiz-adv-x="532" 
d="M26 0q21 44 194.5 257t278.5 329h-207q-91 0 -196 -50h-4l106 184h448q-214 -276 -353 -571q-53 -109 -63 -149h-204z" />
    <glyph glyph-name="eight" unicode="8" horiz-adv-x="588" 
d="M12 185q15 57 69.5 95.5t121.5 54.5q-56 34 -73 76.5t-17 74.5q0 31 11 65q26 83 100.5 130.5t180.5 47.5q104 0 156 -43t52 -96q0 -19 -6 -41q-26 -100 -169 -145q72 -44 89.5 -90.5t17.5 -81.5q0 -26 -7 -53q-25 -94 -109.5 -141.5t-188.5 -47.5q-109 0 -171.5 46.5
t-62.5 107.5q0 19 6 41zM147 78q29 -46 93 -46q55 0 95 31t52 79q4 14 4 28q0 35 -31.5 69t-108.5 69l-10 5q-86 -51 -107 -128q-6 -22 -6 -41q0 -36 19 -66zM283 497q34 -34 113 -69q77 47 96 119q7 26 7 48q0 29 -16.5 60.5t-77.5 31.5q-52 0 -90 -27.5t-51 -73.5
q-5 -18 -5 -33q0 -33 24 -56z" />
    <glyph glyph-name="nine" unicode="9" horiz-adv-x="602" 
d="M12 38l70 171h6q58 -179 141 -179q61 0 107.5 82.5t85.5 234.5q-79 -76 -183 -76q-93 0 -126 51t-33 101q0 30 10 65q29 107 116.5 174.5t194.5 67.5q126 0 169 -85.5t43 -164.5q0 -65 -21 -143q-40 -150 -140.5 -249.5t-226.5 -99.5q-100 0 -213 50zM267 363
q19 -29 57 -29q55 0 109 55q27 122 27 194q0 105 -57 105q-45 0 -84.5 -46t-58.5 -118q-11 -48 -11.5 -70.5t-0.5 -24.5q0 -39 19 -66z" />
    <glyph glyph-name="colon" unicode=":" horiz-adv-x="248" 
d="M0 77q10 37 38 61t58 24q2 0 18.5 -0.5t29.5 -21t13 -42.5q0 -11 -3 -24q-9 -37 -37 -61t-59 -24q-1 0 -17.5 0.5t-30 21.5t-13.5 43q0 11 3 23zM93 420q10 37 38 61t58 24h3q31 -1 44.5 -22.5t13.5 -42.5q0 -11 -3 -23q-10 -37 -38 -61q-27 -24 -58 -24q-1 0 -17.5 0.5
t-30 21.5t-13.5 43q0 11 3 23z" />
    <glyph glyph-name="semicolon" unicode=";" horiz-adv-x="260" 
d="M34 -72q26 35 32 63h-5q-34 0 -48.5 20t-14.5 42q0 13 4 27q10 36 38 59t61 23q36 -1 49 -25.5t13 -49.5q0 -18 -5 -39q-13 -57 -57.5 -108t-103.5 -69h-32q43 23 69 57zM93 420q9 37 37 61t58 24h3q32 0 45 -21t13 -42q0 -12 -3 -25q-9 -36 -37.5 -60.5t-60.5 -24.5
q-32 1 -45 21.5t-13 41.5q0 12 3 25z" />
    <glyph glyph-name="less" unicode="&#x3c;" horiz-adv-x="467" 
d="M370 96l-297 221l8 34l417 221l-14 -52l-350 -186l251 -186z" />
    <glyph glyph-name="equal" unicode="=" horiz-adv-x="554" 
d="M89 389l12 45h450l-12 -45h-450zM45 227l13 45h450l-13 -45h-450z" />
    <glyph glyph-name="greater" unicode="&#x3e;" horiz-adv-x="470" 
d="M15 96l13 52l351 186l-250 186l13 52l299 -221l-10 -34z" />
    <glyph glyph-name="question" unicode="?" horiz-adv-x="532" 
d="M147 671q138 59 244 59q95 0 140 -41t45 -90q0 -20 -6 -42q-7 -25 -18.5 -45.5t-34.5 -40.5t-32.5 -28t-41.5 -29t-33 -21q-63 -42 -96 -74t-49 -71h-27v10q0 75 71 158q11 13 35 38t37.5 40.5t28.5 40t22 49.5q3 18 4 30.5t1 14.5q0 21 -15 39t-46 18q-83 0 -231 -185
h-4zM139 79q10 37 38.5 61.5t61.5 24.5q31 -1 45 -22t14 -41q0 -12 -4 -26q-9 -37 -37 -61t-59 -24h-3q-32 0 -45.5 21t-13.5 42q0 12 3 25z" />
    <glyph glyph-name="at" unicode="@" horiz-adv-x="901" 
d="M80 335q0 172 115 293t289 121q176 0 285 -108t109 -243q0 -17 -2 -34q-11 -119 -69.5 -185.5t-160.5 -66.5q-74 0 -109.5 31.5t-35.5 77.5q0 11 2 24q-76 -109 -154 -109q-64 0 -77 46t-13 72q0 55 27 127q26 68 65.5 110.5t74 56.5t68.5 14q71 0 93 -50q52 18 95 45h16
l-76 -284q-7 -27 -7 -46q0 -25 15.5 -44.5t53.5 -19.5q56 0 95.5 50.5t49.5 149.5q2 18 2 36q0 119 -94.5 214t-252.5 95q-157 0 -257.5 -108.5t-100.5 -264.5q0 -153 90.5 -251.5t259.5 -98.5q88 0 168 40l7 -45q-79 -37 -175 -37q-126 0 -217 53.5t-135 141t-44 197.5z
M385 219q8 -13 25 -13q30 1 64 40.5t59 111.5l34 124q-4 39 -37 39h-2q-33 0 -66.5 -42.5t-54.5 -99.5q-14 -37 -21.5 -68t-8 -44t-0.5 -16q0 -20 8 -32z" />
    <glyph glyph-name="A" unicode="A" horiz-adv-x="674" 
d="M-54 3q59 73 141 207l236 386q25 41 25 92q0 14 -2 29l1 3h166l50 -556q10 -103 32 -161l-1 -3h-221v4q0 1 5.5 12t9.5 21t10 26.5t10 31.5t5.5 31t1.5 27v11l-7 81h-248l-29 -50q-10 -17 -18 -35.5t-12 -36t-6.5 -33t-3.5 -30.5t-1 -24.5t0.5 -19.5t0.5 -11l-1 -5h-145z
M188 289h215l-26 311z" />
    <glyph glyph-name="B" unicode="B" horiz-adv-x="634" 
d="M-23 4q0 1 7 13.5t14 26.5t16 33t17 40.5t13 40.5l108 404q8 30 11 65t4 61t1 28l1 4h316q92 0 133.5 -46t41.5 -96q0 -22 -7 -47q-31 -116 -180 -163q67 -18 96 -56.5t29 -80.5q0 -23 -7 -50q-23 -86 -103 -133.5t-184 -47.5h-328zM264 43q129 0 167 145q9 33 9 60
q0 30 -16 62.5t-80 32.5h-99l-80 -300h99zM346 386q52 1 90 45t55 103q8 33 8 63q0 2 -0.5 19t-20 39t-54.5 22h-89l-78 -291h89z" />
    <glyph glyph-name="C" unicode="C" horiz-adv-x="639" 
d="M70 370q44 165 156.5 262.5t263.5 97.5q92 0 218 -43l-48 -181h-6q-16 45 -37 82.5t-56.5 68.5t-74.5 31q-74 0 -141.5 -89t-105.5 -229q-23 -83 -23 -155q0 -42 14.5 -113t85.5 -71q100 0 265 190h6l-49 -182q-132 -51 -236 -51q-144 0 -197 86t-53 171q0 58 18 125z
" />
    <glyph glyph-name="D" unicode="D" horiz-adv-x="690" 
d="M-23 4q48 82 67 154l108 404q6 23 10 51t4.5 47t1 36.5t0.5 19.5l1 4h274q141 0 195.5 -83.5t54.5 -170.5q0 -58 -18 -128q-41 -153 -162.5 -245.5t-262.5 -92.5h-274zM220 41q102 0 177.5 89.5t111.5 223.5q20 87 20.5 123.5t0.5 37.5q0 71 -35.5 117.5t-104.5 46.5h-55
l-170 -638h55z" />
    <glyph glyph-name="E" unicode="E" horiz-adv-x="578" 
d="M-23 4l14 28q14 27 29 61.5t23 64.5l108 404q8 30 11.5 65t4.5 61t1 28l1 4h492l-46 -174h-4q-2 1 -24.5 35.5t-57 65.5t-71.5 31h-123l-79 -291h53q36 0 79.5 11.5t77.5 25t36 13.5h4l-36 -137h-5q-2 1 -19.5 9.5t-37 17t-50.5 16t-59 7.5h-52l-83 -308h127q37 0 88 31
t91.5 66t43.5 36h4l-47 -175h-495z" />
    <glyph glyph-name="F" unicode="F" horiz-adv-x="558" 
d="M-23 4l14 28q14 27 29 61.5t23 64.5l109 404q6 23 9.5 51t4.5 47t1.5 37t0.5 19l1 4h481l-44 -164h-4q-2 1 -25 33t-58 60.5t-71 28.5h-117l-73 -288h44q27 2 59.5 9.5t55 15.5t43.5 16t23 9h5l-37 -137h-4q-2 1 -27 12.5t-60 23t-68 14.5h-44l-95 -353h-177z" />
    <glyph glyph-name="G" unicode="G" horiz-adv-x="701" 
d="M71 374q44 165 157 260.5t255 95.5q128 0 241 -55l-48 -180h-7q-36 93 -71 134q-51 58 -113 59h-4q-73 0 -136.5 -80.5t-104.5 -233.5q-26 -95 -26 -168q0 -42 16 -107.5t98 -65.5q52 0 114 29l38 142q5 18 5 39q0 6 -1 23t-6 35.5t-11 36.5t-6 20l1 4h230l-1 -4
q-38 -70 -60 -154l-38 -142q-54 -27 -134 -50t-151 -23q-145 0 -200 87.5t-55 174.5q0 57 18 123z" />
    <glyph glyph-name="H" unicode="H" horiz-adv-x="695" 
d="M-23 4q54 107 66 154l108 404q6 23 10 51t5 47t1.5 37t0.5 19l1 4h202l-1 -4q-50 -101 -66 -154l-52 -178h262l44 178q6 23 9.5 51t4.5 47t1.5 37t0.5 19l1 4h202l-1 -4q-54 -107 -66 -154l-108 -404q-7 -23 -10.5 -51t-4.5 -47t-1.5 -37t-0.5 -19l-1 -4h-202l1 4
q50 101 66 154l53 181h-263l-44 -181q-5 -23 -8.5 -51t-4.5 -47t-2 -37t-1 -19l-1 -4h-202z" />
    <glyph glyph-name="I" unicode="I" horiz-adv-x="294" 
d="M-21 0l1 4q54 107 66 154l108 404q7 23 10.5 51t4.5 47t1.5 37t0.5 19l1 4h201l-1 -4q-54 -107 -66 -154l-108 -404q-6 -23 -10 -51t-5 -47t-1.5 -37t-0.5 -19l-1 -4h-201z" />
    <glyph glyph-name="J" unicode="J" horiz-adv-x="291" 
d="M-177 -198q84 50 139 127t90 209l114 424q7 23 10.5 51t4.5 47t1 37v19l1 4h194v-4l-7 -14q-7 -13 -14 -26.5t-16 -32.5t-17 -40.5t-13 -40.5l-115 -428q-21 -76 -54.5 -134.5t-70.5 -94.5t-81.5 -59.5t-84 -33t-81.5 -10.5z" />
    <glyph glyph-name="K" unicode="K" horiz-adv-x="683" 
d="M-24 0l1 4q54 107 66 154l109 404q6 23 10 51t4.5 47t1 36.5t0.5 19.5l1 4h202l-1 -4q-54 -107 -66 -154l-108 -404q-7 -23 -10.5 -51t-4.5 -47t-1 -36v-20l-2 -4h-202zM269 369l229 181q40 31 64 69.5t29 60t5 37.5l1 5h191l-1 -4q-56 -35 -135 -97l-253 -209l140 -301
q11 -24 26.5 -49t27 -41t11.5 -17l-1 -4h-217q-1 5 -1 14v8.5v9.5q0 15 -2.5 41.5t-11.5 49.5l-106 237v2q0 4 4 7z" />
    <glyph glyph-name="L" unicode="L" horiz-adv-x="541" 
d="M-23 0l1 4l7 14q7 13 14 26.5t16 32.5t17 40.5t13 40.5l108 404q6 23 10 51t4.5 47t1 36.5t0.5 19.5l1 4h203l-1 -4q0 -1 -7 -13.5t-14 -26.5t-16 -33t-17 -40.5t-13 -40.5l-139 -520h101q36 0 88 34.5t94.5 73.5t44.5 40h4l-51 -190h-470z" />
    <glyph glyph-name="M" unicode="M" horiz-adv-x="846" 
d="M-23 5q1 1 17 27.5t31 54t33.5 68t27.5 74.5l89 333q7 23 8.5 46.5t1.5 37.5q0 7 -0.5 19.5t-2.5 30.5t-2 20l1 4h182l56 -520l327 520h183l-16 -32q-14 -27 -29 -61.5t-23 -64.5l-111 -404q-8 -30 -12 -65t-4.5 -61t-0.5 -28v-4h-204l1 4q54 107 66 154l120 431
l-370 -589h-54l-64 589l-96 -360q-9 -34 -12.5 -70.5t-3.5 -60.5q0 -6 0.5 -22t2.5 -43t2 -28l-2 -5h-143z" />
    <glyph glyph-name="N" unicode="N" horiz-adv-x="690" 
d="M-31 5q1 3 17 28.5t31.5 53t33.5 68t27 74.5l86 322q8 32 9 57t1 38q0 21 -2 44.5t-2 25.5l1 4h161l208 -542l83 313q9 34 13 72t4 65q0 3 -0.5 18.5t-1.5 40.5t-1 28l1 5h143l-2 -5l-24 -39q-24 -40 -48.5 -90.5t-36.5 -94.5l-131 -491h-91l-226 597l-99 -368
q-12 -44 -13.5 -79t-1.5 -53q0 -28 2 -52l2 -40l-1 -5h-144z" />
    <glyph glyph-name="O" unicode="O" horiz-adv-x="716" 
d="M69 367q41 167 155 265.5t250 98.5h5q138 -3 190 -86.5t52 -169.5q0 -55 -16 -119q-41 -167 -156 -268q-113 -99 -249 -99q-2 0 -73 1t-122.5 84.5t-51.5 171.5q0 55 16 121zM220 142q6 -49 27.5 -79.5t57.5 -30.5h1q70 0 135 100.5t96 226.5q14 58 17 98.5t3 62.5
q0 31 -4.5 69t-26.5 68t-58 31h-1q-70 0 -134.5 -101t-94.5 -225q-14 -58 -17.5 -99.5t-3.5 -65.5q0 -29 3 -55z" />
    <glyph glyph-name="P" unicode="P" horiz-adv-x="610" 
d="M-23 4l14 28q14 27 29 61.5t23 64.5l108 404q6 23 10 51t5 47t1.5 37t0.5 19l1 4h313q99 0 136.5 -53t37.5 -107q0 -31 -9 -66q-28 -109 -114.5 -162.5t-191.5 -53.5h-4l-111 1l-31 -121q-8 -30 -11.5 -65t-4.5 -61t-1 -28l-1 -4h-201zM322 323q60 0 103 54t62 123
q8 38 9.5 59.5t1.5 26.5q0 33 -19 60.5t-60 27.5h-86l-94 -351h83z" />
    <glyph glyph-name="Q" unicode="Q" horiz-adv-x="729" 
d="M69 367q41 167 155 265.5t250 98.5h5q138 -3 190 -86.5t52 -169.5q0 -55 -16 -119q-38 -153 -139 -251.5t-227 -113.5q24 -46 86 -60q19 -5 40 -5q73 0 170 53l2 -3l-98 -149q-17 -1 -33 -1q-63 0 -110 19q-50 16 -75.5 54t-25.5 83v7q-139 2 -190.5 85.5t-51.5 171.5
q0 55 16 121zM220 142q6 -49 27.5 -79.5t57.5 -30.5h1q70 0 135 100.5t96 226.5q14 58 17 98.5t3 62.5q0 31 -4.5 69t-26.5 68t-58 31h-1q-70 0 -134.5 -101t-94.5 -225q-14 -58 -17.5 -99.5t-3.5 -65.5q0 -29 3 -55z" />
    <glyph glyph-name="R" unicode="R" horiz-adv-x="675" 
d="M-24 0l1 4l14 28q14 27 29 61.5t23 64.5l109 404q6 23 9.5 51t4.5 47t1.5 37t0.5 19l1 4h317q100 0 137 -46t37 -96q0 -28 -9 -60q-19 -74 -84 -118.5t-158 -52.5q85 -21 105 -108q4 -19 11 -57t11 -55t11 -43t16.5 -44.5t22.5 -35.5l-1 -4h-164q-24 35 -47 184
q-16 122 -86 149l-46 -2l-47 -173q-6 -23 -9.5 -51t-4.5 -47t-1.5 -37t-0.5 -19l-1 -4h-202zM340 374q54 0 93.5 38.5t58.5 110.5q11 37 11 68q0 25 -12.5 58t-64.5 33h-90l-83 -308h87z" />
    <glyph glyph-name="S" unicode="S" horiz-adv-x="588" 
d="M-10 51l43 155h6q22 -34 42 -59t49.5 -55t63 -45.5t66.5 -15.5h4q41 3 74.5 25.5t46.5 66.5q5 18 5 35q0 83 -119 155q-96 57 -124 104t-28 88q0 29 10 62q24 77 94.5 121t177.5 47h15q109 0 231 -52l-46 -159h-5q-2 3 -17 23.5t-20.5 28.5t-21.5 27t-25.5 28t-26.5 23
t-31 20.5t-31 11t-32 4.5h-6q-42 -2 -74.5 -26t-44.5 -62q-5 -18 -5 -34q0 -31 25.5 -63.5t98.5 -76.5q89 -55 120.5 -105t31.5 -96q0 -28 -9 -60q-23 -77 -97.5 -129t-181.5 -54h-17q-106 0 -242 67z" />
    <glyph glyph-name="T" unicode="T" horiz-adv-x="627" 
d="M140 720h598l-54 -203h-5q-2 2 -14.5 28.5t-27.5 54.5t-41.5 51.5t-54.5 23.5h-37l-138 -517q-6 -23 -10 -51t-5 -47t-1.5 -37t-0.5 -19l-1 -4h-202l1 4l14 28q14 27 29 61.5t23 64.5l139 517h-38q-27 0 -66 -23.5t-70 -51.5t-57.5 -54.5t-30.5 -28.5h-4z" />
    <glyph glyph-name="U" unicode="U" horiz-adv-x="670" 
d="M76 296l71 266q6 23 10 51t5 47t1.5 37t0.5 19l1 4h201l-1 -4q-1 -2 -10 -19.5t-18 -36.5t-20 -47t-17 -51l-74 -276q-17 -57 -17 -100q0 -16 6 -48.5t34.5 -56t74.5 -23.5q70 0 132.5 54.5t92.5 166.5l57 212q9 34 12 70t3 60q0 7 -0.5 24t-2 42t-1.5 28l2 5h142l-1 -5
q-1 -1 -17 -28t-31 -54t-33 -67.5t-27 -74.5l-58 -215q-39 -149 -120 -218.5t-190 -69.5q-52 0 -96 16t-80 52.5t-41 74t-5 56.5q0 48 14 109z" />
    <glyph glyph-name="V" unicode="V" horiz-adv-x="696" 
d="M139 715l1 5h225l-1 -4q-1 -1 -6 -11.5t-9.5 -21t-10.5 -27t-10 -31.5t-5.5 -31t-1.5 -27v-11l41 -457l258 425q46 75 46 191l2 5h139l-1 -4q-92 -123 -142 -206l-310 -510h-129l-54 556q-2 24 -7 53t-10 47.5t-10 38t-5 20.5z" />
    <glyph glyph-name="W" unicode="W" horiz-adv-x="960" 
d="M138 716l1 4h222l-1 -4q-1 -1 -7 -14t-12 -28t-12.5 -34.5t-9.5 -39.5t-3 -36v-9l18 -369l190 337l-3 45q-5 71 -29 148l1 4h223l-2 -5q-43 -93 -43 -153v-10l19 -379l200 351q10 17 18 36t12.5 36.5t8 33t5 31t2 25t1 19.5t0.5 11l1 4h133l-1 -4q0 -1 -14 -18.5
t-27.5 -36t-32 -45.5t-31.5 -50l-323 -566h-88l-26 443l-249 -443h-78l-35 567q-6 77 -28 149z" />
    <glyph glyph-name="X" unicode="X" horiz-adv-x="659" 
d="M-48 4q2 2 43 39t66 63l224 237l-90 269q-9 26 -28.5 64t-20.5 40l1 4h234l-1 -4q-21 -49 -21 -92q0 -29 9 -55l45 -131l114 117q12 12 22 25.5t17 25t12.5 25t8.5 23t5.5 21.5t3 17.5t1.5 13.5l1 9l2 5h157l-2 -4q-2 -3 -19.5 -19t-44 -40.5t-44.5 -43.5l-218 -222
l91 -265q8 -23 20.5 -51t22 -48t10.5 -23l-1 -4h-232l1 4q20 51 20 97q0 32 -10 61l-49 133l-136 -141q-57 -58 -63 -150l-1 -4h-151z" />
    <glyph glyph-name="Y" unicode="Y" horiz-adv-x="638" 
d="M138 716l1 4h230l-1 -4q0 -1 -6 -15.5t-10 -26t-10 -34t-6 -39t3 -40.5l47 -239l165 221q48 65 55 172l2 5h142l-1 -4q-2 -3 -23 -26t-48 -55t-46 -59l-227 -303l-31 -115q-7 -23 -10.5 -51t-4.5 -47t-1 -36v-20l-1 -4h-204l1 4q54 107 66 154l31 115l-70 304
q-5 27 -15 58.5t-18.5 54t-9.5 26.5z" />
    <glyph glyph-name="Z" unicode="Z" horiz-adv-x="589" 
d="M-46 0l522 676h-128q-41 0 -92 -25.5t-91.5 -55t-41.5 -30.5h-5l41 155h536l-521 -676h131q41 0 92 25.5t92 55.5t42 31h5l-42 -156h-540z" />
    <glyph glyph-name="bracketleft" unicode="[" horiz-adv-x="295" 
d="M185 742h227l-3 -15q-92 -21 -112 -39.5t-44 -108.5l-151 -563q-10 -35 -14 -50.5t-4 -31.5q0 -2 0.5 -12t3 -16t17 -15t28 -12.5t45.5 -11.5l-4 -14h-228z" />
    <glyph glyph-name="backslash" unicode="\" horiz-adv-x="450" 
d="M302 -34h-43l-115 778h42z" />
    <glyph glyph-name="bracketright" unicode="]" horiz-adv-x="294" 
d="M-93 -147l3 14q91 20 111.5 39.5t44.5 109.5l151 563q7 27 10.5 40t5.5 30t2.5 20t0.5 4q0 6 -6 15.5t-9.5 11.5t-19 8.5t-25 9t-35.5 9.5l4 15h227l-237 -889h-228z" />
    <glyph glyph-name="asciicircum" unicode="^" horiz-adv-x="441" 
d="M145 563l-8 12l213 160l127 -160l-14 -12l-143 59z" />
    <glyph glyph-name="underscore" unicode="_" horiz-adv-x="574" 
d="M-25 -35l13 44h468l-12 -44h-469z" />
    <glyph glyph-name="a" unicode="a" horiz-adv-x="595" 
d="M39 291q24 63 57.5 108t69 68t66.5 33t61 10q42 0 72.5 -16.5t42.5 -44.5q65 23 119 55h20l-102 -379q-3 -10 -3 -17q0 -15 14 -15h2q30 3 80 62q8 9 15 18l10 -4q-31 -78 -82 -128t-109 -50q-50 0 -63 27.5t-13 53.5q0 21 6 46q-91 -128 -186 -128q-51 0 -80.5 38.5
t-29.5 108t33 154.5zM163 94q10 -16 31 -16q37 0 79.5 51.5t72.5 146.5l36 133q-1 21 -14 35.5t-33 14.5h-2q-40 0 -78 -50.5t-64 -120.5q-17 -45 -26 -82.5t-10 -54t-1 -19.5q0 -24 9 -38z" />
    <glyph glyph-name="b" unicode="b" horiz-adv-x="539" 
d="M33 157l106 398q7 26 11.5 55t5.5 47t2 39v20l1 3l167 1l-89 -336q90 126 184 126q79 0 94.5 -56.5t15.5 -88.5q0 -67 -33 -156q-24 -62 -57.5 -108t-69 -68.5t-66.5 -32.5t-59 -10q-67 0 -99 50l-169 -46h-9q38 65 64 163zM157 77q12 -35 48 -35q39 0 77 48.5t64 120.5
q17 44 26.5 82t10 54t0.5 18q0 26 -9 41.5t-30 15.5q-34 0 -73 -44t-68 -126z" />
    <glyph glyph-name="c" unicode="c" horiz-adv-x="489" 
d="M32 276q31 114 112 174t170 60q78 0 152 -45l-38 -146h-5q-10 30 -17 49t-20 46.5t-29 41.5t-34 14q-41 -1 -82.5 -59.5t-60.5 -132.5q-13 -45 -13 -82q0 -30 14 -70.5t72 -40.5q44 0 98.5 29.5t86.5 76.5l11 -6q-42 -83 -111.5 -139t-148.5 -56q-94 0 -132.5 63
t-38.5 126q0 45 14 97z" />
    <glyph glyph-name="d" unicode="d" horiz-adv-x="595" 
d="M39 291q46 118 116 168.5t131 50.5h2q72 -1 102 -63l34 125q12 44 14 79.5t2 51.5q0 12 -1 19v4l173 21l-167 -622q-3 -10 -3 -17q0 -15 14 -15h2q30 3 80 62q8 9 15 18l10 -4q-31 -78 -82 -128t-109 -50q-50 0 -63 27.5t-13 53.5q0 21 6 46q-91 -128 -186 -128
q-51 0 -80.5 38.5t-29.5 108t33 154.5zM163 94q10 -16 31 -16q36 0 78 50.5t71 143.5l31 115q-3 58 -44 60h-2q-37 0 -75 -46.5t-62 -112.5q-17 -45 -26 -82.5t-10 -54t-1 -19.5q0 -24 9 -38z" />
    <glyph glyph-name="e" unicode="e" horiz-adv-x="500" 
d="M31 271q33 117 118 178t177 61q76 0 116 -33t40 -73q0 -13 -4 -28q-17 -66 -93 -104t-184 -38q-16 0 -33 1q-3 -21 -3 -39q0 -42 19 -77t69 -35q47 0 101 28.5t91 78.5l12 -6q-40 -82 -114 -138.5t-154 -56.5q-94 0 -133 62.5t-39 124.5q0 43 14 94zM298 304q45 33 59 77
q7 18 7 35q0 13 -7.5 33.5t-35.5 20.5q-42 0 -82 -57t-61 -131q-1 -3 -2.5 -9.5t-2.5 -9.5q80 7 125 41z" />
    <glyph glyph-name="f" unicode="f" horiz-adv-x="425" 
d="M-141 -188q75 44 118.5 105t71.5 165l101 378h-78l12 44h78l9 34q28 107 90.5 153t141.5 46q61 0 136 -30l-34 -126h-5q-3 5 -9 17t-9 18.5t-9 17.5t-10 17t-10 14.5t-11 13t-11 9.5t-12 7t-13 2q-12 0 -22 -5t-19 -18.5t-15 -24.5t-14 -35.5t-11.5 -37.5t-12.5 -44
l-7 -28h147l-12 -44h-147l-102 -378q-38 -142 -122.5 -206t-193.5 -64h-16z" />
    <glyph glyph-name="g" unicode="g" horiz-adv-x="488" 
d="M-63 -80q12 41 56 73q-17 21 -17 48q0 15 5 32q23 82 124 108q-37 22 -48.5 56.5t-11.5 60.5q0 24 7 50q23 83 95 122.5t155 39.5q62 0 106 -25q65 93 150 93q12 0 25 -2l-50 -113l-3 -2q-27 18 -60 18q-21 0 -44 -7q29 -23 36.5 -51t7.5 -48q0 -24 -7 -52
q-16 -58 -60 -97.5t-92.5 -54.5t-100.5 -15q-44 0 -77 15q-43 -12 -51 -40q-2 -5 -2 -9q0 -11 12.5 -19t40.5 -8h145q72 0 102 -36.5t30 -74.5q0 -21 -7 -44q-41 -138 -283 -138q-31 0 -62.5 4.5t-66.5 16t-47.5 31.5t-12.5 38q0 14 6 30zM177 236q8 -44 43 -44t64.5 40
t44.5 97q10 35 10 66q0 17 -6 46.5t-42 29.5q-34 0 -62.5 -39t-43.5 -97q-11 -36 -11 -67q0 -17 3 -32zM25 -105q10 -53 111 -53q60 0 113.5 18.5t61.5 49.5q1 5 1 10q0 16 -17 27.5t-59 11.5h-139q-34 0 -58 6q-16 -31 -16 -54q0 -9 2 -16z" />
    <glyph glyph-name="h" unicode="h" horiz-adv-x="627" 
d="M148 572q15 58 15 116q0 17 -1 34v4l176 21l-106 -395q97 158 208 158q60 0 84 -34t24 -70q0 -26 -9 -58l-63 -224q-3 -10 -3 -16q0 -15 14 -15h2q32 5 82 62l14 18l10 -4q-31 -78 -82 -128t-108 -50q-52 0 -66 28.5t-14 53.5q0 22 8 49l57 200q10 34 10 56q0 41 -34 41
q-41 0 -93.5 -65.5t-88.5 -178.5l-47 -175h-142z" />
    <glyph glyph-name="i" unicode="i" horiz-adv-x="316" 
d="M30 143l57 204q16 58 16 113q0 20 -2 40l1 4h169l-103 -370q-4 -14 -4 -24q0 -16 13 -16h3q32 5 84 68l11 14l10 -5q-32 -78 -82 -128t-107 -50q-53 0 -65.5 30t-12.5 54q0 29 12 66zM150 667q10 38 43 64.5t69 26.5t51.5 -22t15.5 -44q0 -12 -7 -37.5t-40 -52t-68 -26.5
q-36 0 -51.5 22t-15.5 44q0 12 3 25z" />
    <glyph glyph-name="j" unicode="j" horiz-adv-x="266" 
d="M-49 -55q41 62 64 146l68 255q6 23 10 51t4.5 47t1 36.5t0.5 19.5l1 4h166l-112 -418q-36 -133 -117 -193t-176 -60q-9 0 -18 1l-4 4q71 45 112 107zM143 667q10 38 43 64.5t69 26.5q35 0 50.5 -22t15.5 -44q0 -12 -6.5 -37.5t-39.5 -52t-69 -26.5q-35 0 -50.5 22
t-15.5 44q0 12 3 25z" />
    <glyph glyph-name="k" unicode="k" horiz-adv-x="568" 
d="M-46 0l1 4l14 28q14 27 29 61.5t23 64.5l111 414q13 49 13 150v4l176 21l-157 -589q-7 -23 -10.5 -51t-4.5 -47t-1.5 -37t-0.5 -19l-1 -4h-192zM339 364q66 50 66 124v11l2 5h175l-1 -5l-245 -188l60 -174q17 -43 36 -44h3q28 0 91 77l10 -5q-28 -77 -74.5 -125.5
t-95.5 -48.5q-13 0 -24 4t-19 8.5t-16.5 15t-13 17.5t-11.5 23t-10 24t-10 27t-9 26l-46 128v2z" />
    <glyph glyph-name="l" unicode="l" horiz-adv-x="313" 
d="M21 125l120 447q16 62 16 121q0 15 -1 30v3l173 21l-164 -613q-3 -14 -3 -23q0 -17 12 -17h4q31 4 84 69q5 7 10 13l10 -5q-31 -78 -82.5 -128t-108.5 -50q-52 0 -65 28.5t-13 52.5q0 23 8 51z" />
    <glyph glyph-name="m" unicode="m" horiz-adv-x="914" 
d="M-7 0l94 346q15 57 15 154v4h161l-39 -159q97 165 206 165q56 0 82 -32t26 -72q0 -18 -4 -39q90 143 193 143q60 0 84.5 -34t24.5 -72q0 -25 -9 -56l-63 -225q-3 -10 -3 -16q0 -14 13 -14h2q31 3 82 62l15 18l10 -4q-31 -78 -82.5 -128t-108.5 -50q-52 0 -65.5 28.5
t-13.5 52.5q0 23 8 50l56 200q10 34 10 56q0 41 -34 41q-37 0 -82.5 -55t-79.5 -156l-59 -208h-144l92 322q10 34 10 56q0 41 -34 41q-42 0 -92.5 -67.5t-85.5 -189.5l-40 -162h-145z" />
    <glyph glyph-name="n" unicode="n" horiz-adv-x="625" 
d="M-7 0l94 346q15 57 15 154v4h161l-41 -164q103 170 215 170q61 0 85 -34t24 -71q0 -26 -9 -57l-63 -224q-3 -10 -3 -16q0 -15 14 -15h2q32 5 82 62l14 18l10 -4q-31 -78 -82 -128t-108 -50q-53 0 -66.5 28t-13.5 52q0 23 8 51l57 200q10 34 10 56q0 41 -34 41
q-43 0 -96 -68.5t-89 -186.5l-41 -164h-145z" />
    <glyph glyph-name="o" unicode="o" horiz-adv-x="521" 
d="M28 258q34 121 118 186.5t178 65.5q3 0 53.5 -1t90.5 -56.5t40 -115.5q0 -40 -13 -89q-34 -123 -118 -191.5t-177 -68.5h-5q-99 2 -140 60t-41 120q0 41 14 90zM157 105q4 -74 48 -75q22 0 43 19t38.5 54t30 69.5t26.5 78.5q21 62 21 121q0 13 -3 54.5t-46 42.5h-1
q-42 0 -74 -59.5t-61 -154.5q-23 -66 -23 -130q0 -10 1 -20z" />
    <glyph glyph-name="p" unicode="p" horiz-adv-x="541" 
d="M-85 -196q0 1 14 25.5t28 57.5t22 63l105 389q7 26 11 55t5 47.5t1.5 38t0.5 20.5l1 3l167 1l-32 -123q90 129 185 129q78 0 94.5 -55.5t16.5 -90.5q0 -63 -28 -143q-24 -67 -58.5 -115t-70.5 -72t-66.5 -34t-58.5 -10q-68 1 -100 61l-66 -251h-172zM182 66
q12 -13 29 -13h2q37 0 75 49t67 128q30 80 30 136t-40 56q-33 0 -72 -43.5t-68 -123.5l-40 -153q4 -23 17 -36z" />
    <glyph glyph-name="q" unicode="q" horiz-adv-x="541" 
d="M39 291q24 62 58 108t68.5 68.5t65 32.5t56.5 10q71 -1 103 -65l16 59h166l-1 -4l-14 -28q-14 -27 -29 -61.5t-23 -64.5l-104 -388q-6 -23 -10 -51t-4.5 -47t-1 -36.5t-0.5 -19.5l-1 -4h-168l86 319q-91 -129 -187 -129q-78 0 -93 58t-15 90q0 68 32 153zM158 106
q8 -28 35 -28q36 0 78.5 51t72.5 145l31 115q-3 56 -44 58h-2q-38 0 -76.5 -48.5t-66.5 -122.5q-20 -55 -26.5 -87.5t-6.5 -49.5q0 -19 5 -33z" />
    <glyph glyph-name="r" unicode="r" horiz-adv-x="429" 
d="M85 346q6 23 10 51t4.5 47t1 36.5t0.5 19.5l1 4h159l-43 -173q50 99 101.5 139.5t91.5 40.5q26 0 52 -13l-56 -153h-4q-24 37 -64 37q-38 -1 -82.5 -51.5t-75.5 -152.5l-44 -178h-145z" />
    <glyph glyph-name="s" unicode="s" horiz-adv-x="457" 
d="M29 175l5 1q84 -143 165 -144q53 0 68 44q3 11 3 21q0 23 -19.5 47t-72.5 61q-65 46 -89.5 80.5t-24.5 67.5q0 18 6 37q16 59 70.5 89t96.5 30.5t44 0.5q80 0 167 -35l-34 -131h-5q-27 53 -67 89t-84 36h-2q-56 -2 -65 -45v-9q0 -4 0.5 -10.5t6.5 -15t10.5 -14.5
t16.5 -16t19 -15t24 -17t25 -18q101 -73 101 -155q0 -19 -5 -38q-18 -61 -72 -94t-128 -33h-8q-96 0 -193 49z" />
    <glyph glyph-name="t" unicode="t" horiz-adv-x="374" 
d="M48 151l82 309h-70l11 40q138 56 251 170l8 3l-45 -169h130l-12 -44h-130l-84 -309q-6 -20 -6 -33q0 -24 20 -24h2q21 0 53.5 25t63.5 68l10 -4q-31 -79 -87.5 -135.5t-117.5 -56.5q-55 0 -71.5 35.5t-16.5 66.5q0 27 9 58z" />
    <glyph glyph-name="u" unicode="u" horiz-adv-x="626" 
d="M33 156l54 190q12 44 13.5 81.5t1.5 50.5q0 21 -2 22v4h175l-92 -322q-10 -34 -10 -56q0 -41 34 -41q41 0 92.5 63.5t87.5 174.5l49 181h143l-103 -380q-3 -10 -3 -16q0 -15 14 -15h2q31 4 80 62q8 9 15 18l10 -4q-31 -78 -82 -128t-108 -50q-52 0 -65.5 28t-13.5 54
q0 22 7 49l8 28q-99 -156 -207 -156q-60 0 -84.5 34t-24.5 72q0 25 9 56z" />
    <glyph glyph-name="v" unicode="v" horiz-adv-x="522" 
d="M33 156l54 190q12 44 13.5 81.5t1.5 50.5q0 21 -2 22v4h175l-92 -322q-12 -37 -12 -66q0 -12 5 -34.5t38 -22.5q62 0 124.5 86t62.5 215v12q-1 62 -20 100l161 39q0 -52 -34 -151q-47 -167 -152.5 -266.5t-211.5 -99.5q-68 0 -94 34t-26 71q0 26 9 57z" />
    <glyph glyph-name="w" unicode="w" horiz-adv-x="815" 
d="M34 159l53 187q12 44 13.5 81.5t1.5 50.5q0 21 -2 22v4h175l-91 -319q-7 -29 -7 -49q0 -16 7.5 -33.5t31.5 -17.5q39 0 88.5 66t84.5 181l4 14q16 56 16 114q0 20 -2 40v4h175l-93 -322q-10 -35 -10 -62q0 -15 6 -40t39 -25q64 0 118 88t54 204q0 12 -1 25q-2 51 -20 100
l161 39q0 -49 -34 -142q-48 -171 -146 -273t-205 -102q-62 0 -90.5 32.5t-28.5 74.5q0 18 4 38q-104 -145 -209 -145q-59 0 -81 34.5t-22 69.5q0 28 10 61z" />
    <glyph glyph-name="x" unicode="x" horiz-adv-x="582" 
d="M51 168h2q25 -54 66 -54q56 0 110 96l-38 157q-6 24 -15 34t-21 10h-4q-33 -4 -89 -80l-10 5q28 77 75.5 125.5t98.5 48.5q40 0 63 -30.5t38 -89.5l15 -63q22 37 40 64t44 57t55 46t59 16q36 0 58 -26l-61 -153h-2q-23 54 -66 54q-59 0 -115 -105l35 -146q10 -43 37 -43
h6q31 5 88 79l10 -5q-28 -77 -76 -125.5t-99 -48.5q-31 0 -53.5 21.5t-31.5 45t-18 59.5l-11 47q-46 -78 -92 -126t-100 -48q-37 0 -59 26z" />
    <glyph glyph-name="y" unicode="y" horiz-adv-x="558" 
d="M-8 -22h3q40 -86 120 -86h10q28 1 56 14q1 39 1 77q0 182 -16 358q-5 70 -37 70q-29 0 -91 -74l-9 5q33 74 81.5 121t98.5 47q41 0 62.5 -35t29.5 -110q16 -140 16 -321v-21q49 66 80.5 151t35.5 164q1 15 1 30q0 61 -14 106l164 39q-15 -101 -59 -212.5t-105.5 -209
t-143 -170.5t-163.5 -95q-49 -15 -93 -15q-53 0 -101 21z" />
    <glyph glyph-name="z" unicode="z" horiz-adv-x="484" 
d="M-5 -9q14 47 47.5 91t78.5 83t90.5 73t97.5 74.5t85 74.5q-49 -25 -92 -26h-5q-25 0 -64.5 10.5t-60.5 11.5h-5q-64 0 -109 -54h-7l23 72q18 58 47.5 83.5t76.5 25.5q28 0 70.5 -9t68.5 -15t51 -6q17 0 51 3.5t83 26.5q-23 -60 -75.5 -117.5t-105.5 -96t-118 -88.5
t-99 -86q35 16 70 16h8q27 -1 69.5 -12t63.5 -11q59 0 96 47h6l-21 -71q-14 -48 -39 -74t-78 -26q-33 0 -84 13t-102 13t-118 -26z" />
    <glyph glyph-name="braceleft" unicode="{" horiz-adv-x="314" 
d="M2 -29q8 29 52.5 108t55.5 119q4 17 4 30q0 48 -52 56l5 20q73 10 95 89q8 33 8 93v27v30q0 51 5 74q15 54 65.5 87.5t113.5 33.5q56 0 76 -1l-5 -19q-51 0 -89.5 -23t-49.5 -63q-4 -14 -4 -36q0 -29 5.5 -69.5t5.5 -69.5q0 -25 -4 -42q-25 -88 -153 -121q47 -14 69 -39
t22 -53q0 -14 -4 -29q-8 -32 -59.5 -109t-59.5 -108q-3 -12 -3 -22q0 -25 23 -44.5t74 -19.5l-6 -19q-12 0 -37.5 -0.5t-38.5 -0.5q-63 0 -90.5 28.5t-27.5 61.5q0 15 4 31z" />
    <glyph glyph-name="bar" unicode="|" horiz-adv-x="166" 
d="M-25 -70l231 860h42l-230 -860h-43z" />
    <glyph glyph-name="braceright" unicode="}" horiz-adv-x="313" 
d="M-89 -130q50 0 89 23t50 63q4 14 4 37q0 28 -5.5 70t-5.5 70q0 25 4 40q12 47 55 77t98 44q-47 14 -69.5 39.5t-22.5 53.5q0 13 4 28q9 35 60 110.5t59 106.5q3 11 3 21q0 25 -22.5 45t-73.5 20l5 19q21 1 77 1q63 0 90.5 -28.5t27.5 -61.5q0 -15 -4 -31q-8 -29 -52 -106
t-55 -118q-5 -19 -5 -33q0 -48 52 -56l-6 -20q-73 -10 -93 -86q-9 -35 -9 -96v-25.5v-29.5q0 -53 -5 -76q-15 -54 -66 -87.5t-114 -33.5q-13 0 -38 0.5t-37 0.5z" />
    <glyph glyph-name="exclamdown" unicode="&#xa1;" horiz-adv-x="294" 
d="M127 -48q26 79 59 175.5t51 149.5h10q-6 -32 -40 -206.5t-55 -267.5h-74q22 70 49 149zM255 449q10 37 25 61t28 24h1q12 -1 13.5 -16t1.5 -21q0 -21 -7 -51q-10 -37 -25 -61.5t-28 -24.5h-1q-12 1 -13.5 16t-1.5 21q0 22 7 52z" />
    <glyph glyph-name="cent" unicode="&#xa2;" horiz-adv-x="489" 
d="M32 276q31 114 112 174t170 60q13 0 19 -1l19 72h42l-21 -78q49 -11 93 -38l-38 -146h-5q-32 103 -63 134l-98 -368q44 3 95 32.5t81 73.5l11 -6q-35 -69 -90.5 -121t-120.5 -68l-24 -89h-43l22 83h-4q-94 0 -132.5 63t-38.5 126q0 45 14 97zM171 158q10 -52 49 -67
l102 379q-41 -1 -82 -59.5t-60 -132.5q-12 -45 -12 -83q0 -19 3 -37z" />
    <glyph glyph-name="sterling" unicode="&#xa3;" horiz-adv-x="557" 
d="M-50 0q95 106 133.5 163t55.5 132h-76l10 40h69v16q0 31 -3.5 79t-3.5 70q0 41 8 55q22 80 97.5 127.5t168.5 47.5t211 -56l-87 -171h-5q-10 37 -20 64.5t-25.5 57t-36 45.5t-45.5 16q-38 0 -64 -28.5t-35 -67.5q-12 -43 -12 -130.5t-8 -124.5h157l-11 -40h-159
q-14 -32 -42.5 -66t-49 -52.5t-65.5 -57.5h173q127 0 212 68h4l-78 -187h-473z" />
    <glyph glyph-name="currency" unicode="&#xa4;" horiz-adv-x="563" 
d="M10 98l96 78q-18 36 -18 79q0 27 7 56q20 74 82 134l-52 75l37 30l52 -76q69 48 140 48q72 0 115 -49l95 78l20 -30l-95 -78q17 -34 17 -74q0 -28 -13.5 -80.5t-75.5 -111.5l53 -78l-35 -30l-54 79q-66 -49 -140 -49q-71 0 -114 46l-96 -77zM172 206q29 -45 86 -45
q56 0 108.5 45t68.5 105q6 22 6 42q0 34 -24 70.5t-80 36.5q-57 0 -109.5 -44.5t-67.5 -104.5q-6 -23 -6 -43q0 -34 18 -62z" />
    <glyph glyph-name="yen" unicode="&#xa5;" horiz-adv-x="638" 
d="M75 204h157l19 69l-1 6h-155l11 40h134l-59 258q-5 27 -15 58.5t-18.5 54t-9.5 26.5l1 4h230l-1 -4q0 -1 -6 -15.5t-10 -26t-10 -34t-6 -39t3 -40.5l47 -239l165 221q48 65 55 172l2 5h142l-1 -4q-2 -3 -23 -26t-48 -55t-46 -59l-193 -257h150l-11 -40h-169l-4 -6
l-19 -69h172l-11 -40h-171l-2 -6q-7 -23 -10.5 -51t-4.5 -47t-1 -36v-20l-1 -4h-204l1 4q54 107 66 154l2 6h-158z" />
    <glyph glyph-name="brokenbar" unicode="&#xa6;" horiz-adv-x="178" 
d="M111 415l82 305h42l-81 -305h-43zM0 0l82 306h42l-82 -306h-42z" />
    <glyph glyph-name="section" unicode="&#xa7;" horiz-adv-x="440" 
d="M-3 45q1 -1 12.5 -18.5t14.5 -22t15 -20.5t18 -21.5t18 -17t21.5 -16t22 -8.5t24.5 -4q30 0 54.5 17t33.5 48q3 11 3 21q0 23 -20.5 43.5t-76.5 45.5q-58 26 -80 53t-22 56q0 16 5 34q11 43 46 77.5t86 51.5q-67 38 -67 96q0 14 4 30q16 60 73 102t138 42q74 0 148 -37
l-31 -115q-6 7 -29.5 38t-34.5 43t-33 25.5t-43 13.5q-29 0 -52 -17.5t-31 -42.5q-2 -8 -2 -15q0 -8 3.5 -18.5t21 -23.5t30.5 -20.5t42 -21.5l6 -3q94 -48 94 -122q0 -18 -5 -37q-25 -86 -114 -122q51 -39 51 -94q0 -19 -6 -39q-18 -68 -78 -105.5t-133 -37.5
q-76 0 -159 42zM146 255q4 -8 6.5 -12.5t10.5 -11t13.5 -10t16 -9t17.5 -8.5l39 -20q41 15 51 57q3 11 3 20q0 23 -18 41.5t-69 40.5q-25 -4 -45 -20.5t-25 -38.5q0 -9 -1.5 -13.5t-1.5 -6.5q0 -4 3 -9z" />
    <glyph glyph-name="copyright" unicode="&#xa9;" horiz-adv-x="504" 
d="M114 535q15 81 80.5 138t144.5 57q78 0 117 -50t39 -106q0 -19 -9.5 -69.5t-75.5 -107.5t-144 -57q-79 0 -117.5 49.5t-38.5 104.5q0 20 4 41zM165 415q38 -51 107 -51q68 0 124.5 50.5t68.5 121.5q4 19 4 37q0 48 -32.5 91t-98.5 43h-3q-68 0 -124.5 -50t-69.5 -121
q-4 -19 -4 -37q0 -47 28 -84zM209 536q9 45 40.5 73t73.5 28q22 0 64 -11l-11 -56h-1h-3q-13 47 -48 47q-22 0 -39.5 -21.5t-24.5 -59.5q-3 -14 -3 -26q0 -19 9 -36.5t31 -17.5q31 0 64 46l4 1l-10 -57q-48 -11 -72 -11q-39 0 -57.5 24t-18.5 54q0 11 2 23z" />
    <glyph glyph-name="guillemotleft" unicode="&#xab;" horiz-adv-x="488" 
d="M433 482h60l-224 -205l114 -205h-60l-114 205zM62 277l225 205h59l-224 -205l114 -205h-59z" />
    <glyph glyph-name="registered" unicode="&#xae;" horiz-adv-x="468" 
d="M39 535q0 81 57 138t138 57t138 -57t57 -138t-57 -138t-138 -57t-138 57t-57 138zM67 536q0 -71 48.5 -121.5t119.5 -50.5q70 0 119 50.5t49 121.5q-1 72 -49 121.5t-116 49.5h-3q-71 0 -119.5 -50t-48.5 -121zM247 637q29 0 47 -15t18 -35q0 -1 -0.5 -12t-15.5 -24
t-38 -17q27 -5 38 -28q2 -4 8 -17t10 -21q10 -20 19 -28h-55q-4 3 -8 12t-10 23t-8 19q-9 22 -17.5 28t-24.5 6v-38q0 -7 1 -14.5t2 -13.5t2.5 -11t2.5 -8l1 -3h-62l1 3q1 3 2.5 8t2.5 11t2 13.5t1 14.5v97q0 7 -1 14.5t-2 13.5t-2.5 11t-2.5 8l-1 3h90zM210 618v-70h23
q31 0 31 36q-1 34 -31 34h-23z" />
    <glyph glyph-name="degree" unicode="&#xb0;" horiz-adv-x="389" 
d="M144 587q16 59 67 101.5t111 42.5t84 -35t24 -69q0 -19 -6 -40q-15 -59 -67.5 -102.5t-112.5 -43.5q-59 0 -82 36t-23 71q0 18 5 39zM211 526q15 -26 49 -26t64.5 26t39.5 61q3 12 3 23q0 20 -13 41t-47 21t-63.5 -25.5t-38.5 -59.5q-3 -13 -3 -25q0 -20 9 -36z" />
    <glyph glyph-name="plusminus" unicode="&#xb1;" horiz-adv-x="579" 
d="M88 391h98q61 0 78 2t25 8q8 7 14.5 24.5t22.5 80.5l29 105h43l-28 -106q-18 -65 -20 -76.5t-2 -16.5q0 -8 3 -11q5 -7 20 -8.5t77 -1.5h108l-11 -42h-108q-91 0 -103 -10q-8 -6 -13.5 -22.5t-23.5 -82.5l-28 -105h-44l29 105q20 77 20 98q0 5 -1 7q-5 6 -21 8t-77 2h-98
zM466 92v-44h-407v44h407z" />
    <glyph glyph-name="twosuperior" unicode="&#xb2;" horiz-adv-x="293" 
d="M66 367q149 147 187 194q49 60 60 100q3 8 3 17q0 7 -4 19t-24 12q-46 0 -120 -92q-1 -1 -2 -1t-1 2l6 87q76 28 125 28q50 0 74 -20t24 -46q0 -11 -3 -23q-17 -62 -125 -136l-109 -80h74q63 0 107 31q1 1 2 1l0.5 -0.5l0.5 -0.5q0 -1 -1 -2l-38 -90h-236z" />
    <glyph glyph-name="threesuperior" unicode="&#xb3;" horiz-adv-x="287" 
d="M119 473q2 2 3 2t1 -1q11 -45 25 -68t38 -23q23 0 41 18.5t26 49.5q3 12 3 23q0 20 -12 41t-47 31l2 6q40 10 67.5 34.5t36.5 58.5q4 13 4 25q0 11 -5.5 26t-27.5 15q-39 0 -109 -88q-2 -1 -3 -1h-1l1 1l6 88q66 23 112 23q29 0 55 -7.5t41 -26t15 -37.5q0 -10 -3 -21
q-11 -38 -47 -63.5t-84 -29.5q48 -3 68 -25t20 -45q0 -12 -4 -24q-10 -34 -40.5 -57t-61 -30.5t-60.5 -7.5q-52 0 -102 23z" />
    <glyph glyph-name="paragraph" unicode="&#xb6;" horiz-adv-x="480" 
d="M87 499q26 98 105 159.5t166 61.5h121l-193 -720h-41l74 277h-80q-92 0 -127 48.5t-35 101.5q0 33 10 72zM519 720h42l-193 -720h-41z" />
    <glyph glyph-name="periodcentered" unicode="&#xb7;" horiz-adv-x="265" 
d="M32 341q10 37 38 61.5t61 24.5q32 -1 45 -22t13 -43q0 -11 -3 -24q-9 -36 -37 -60t-58 -24h-3q-32 0 -45.5 21t-13.5 43q0 11 3 23z" />
    <glyph glyph-name="onesuperior" unicode="&#xb9;" horiz-adv-x="195" 
d="M112 368q27 55 34 78l57 215h-60l4 14q98 27 157 67l-80 -296q-4 -15 -5.5 -33t-1.5 -31v-16h-105v2z" />
    <glyph glyph-name="guillemotright" unicode="&#xbb;" horiz-adv-x="455" 
d="M216 277l-115 205h60l115 -205l-225 -205h-60zM363 277l-115 205h60l114 -205l-224 -205h-60z" />
    <glyph glyph-name="onequarter" unicode="&#xbc;" horiz-adv-x="757" 
d="M674 361h69l-68 -253h50l-7 -24h-49q-10 -39 -10 -85h-106q29 59 36 85h-155zM-36 -44l790 801h53l-790 -801h-53zM112 366v2q27 55 34 78l57 215h-60l4 14q98 27 157 67l-80 -296q-4 -15 -5.5 -33t-1.5 -31v-16h-105zM596 108l51 188l-165 -188h114z" />
    <glyph glyph-name="onehalf" unicode="&#xbd;" horiz-adv-x="740" 
d="M754 757h53l-790 -801h-53zM416 0q149 147 187 194q49 60 60 100q3 8 3 17q0 7 -4 19t-24 12q-46 0 -120 -92q-1 -1 -2 -1t-1 2l6 87q76 28 125 28q50 0 74 -20t24 -46q0 -11 -3 -23q-17 -62 -125 -136l-109 -80h74q63 0 107 31q1 1 2 1l0.5 -0.5l0.5 -0.5q0 -1 -1 -2
l-38 -90h-236zM112 366v2q27 55 34 78l57 215h-60l4 14q98 27 157 67l-80 -296q-4 -15 -5.5 -33t-1.5 -31v-16h-105z" />
    <glyph glyph-name="threequarters" unicode="&#xbe;" horiz-adv-x="849" 
d="M526 84l240 277h69l-68 -253h50l-7 -24h-49q-10 -39 -10 -85h-106q29 59 36 85h-155zM56 -44l790 801h53l-790 -801h-53zM77 383l42 90q2 2 3 2t1 -1q11 -45 25 -68t38 -23q23 0 41 18.5t26 49.5q3 12 3 23q0 20 -12 41t-47 31l2 6q40 10 67.5 34.5t36.5 58.5q4 13 4 25
q0 11 -5.5 26t-27.5 15q-39 0 -109 -88q-2 -1 -3 -1h-1l1 1l6 88q66 23 112 23q29 0 55 -7.5t41 -26t15 -37.5q0 -10 -3 -21q-11 -38 -47 -63.5t-84 -29.5q48 -3 68 -25t20 -45q0 -12 -4 -24q-10 -34 -40.5 -57t-61 -30.5t-60.5 -7.5q-52 0 -102 23zM688 108l51 188
l-165 -188h114z" />
    <glyph glyph-name="questiondown" unicode="&#xbf;" horiz-adv-x="547" 
d="M-33 -141l84 170h5q46 -185 132 -185q44 0 72 33.5t38 68.5q5 20 5.5 30.5t0.5 12.5q0 17 -4.5 33t-9.5 29.5t-13 32t-12 30.5q-10 33 -10 65q0 53 29 103h28q-1 -10 -1 -19q0 -28 13.5 -56.5t54.5 -69.5q5 -5 16 -15.5t17.5 -17.5t16 -19t14.5 -23t9 -24t4 -27
q0 -2 -0.5 -11t-5.5 -27q-21 -77 -99 -125t-173 -48q-106 0 -211 59zM276 451q11 37 41 62.5t62 25.5h3q31 0 43 -19t12 -39q0 -12 -4 -27q-11 -37 -41 -62.5t-62 -26.5q-33 0 -45.5 19.5t-12.5 39.5q0 12 4 27z" />
    <glyph glyph-name="Agrave" unicode="&#xc0;" horiz-adv-x="674" 
d="M-54 3q59 73 141 207l236 386q25 41 25 92q0 14 -2 29l1 3h166l50 -556q10 -103 32 -161l-1 -3h-221v4q0 1 5.5 12t9.5 21t10 26.5t10 31.5t5.5 31t1.5 27v11l-7 81h-248l-29 -50q-10 -17 -18 -35.5t-12 -36t-6.5 -33t-3.5 -30.5t-1 -24.5t0.5 -19.5t0.5 -11l-1 -5h-145z
M403 289l-26 311l-189 -311h215zM461 971l166 -174l-20 -16l-264 91z" />
    <glyph glyph-name="Aacute" unicode="&#xc1;" horiz-adv-x="674" 
d="M-54 3q59 73 141 207l236 386q25 41 25 92q0 14 -2 29l1 3h166l50 -556q10 -103 32 -161l-1 -3h-221v4q0 1 5.5 12t9.5 21t10 26.5t10 31.5t5.5 31t1.5 27v11l-7 81h-248l-29 -50q-10 -17 -18 -35.5t-12 -36t-6.5 -33t-3.5 -30.5t-1 -24.5t0.5 -19.5t0.5 -11l-1 -5h-145z
M403 289l-26 311l-189 -311h215zM358 804l213 174l91 -99l-288 -91z" />
    <glyph glyph-name="Acircumflex" unicode="&#xc2;" horiz-adv-x="674" 
d="M-54 3q59 73 141 207l236 386q25 41 25 92q0 14 -2 29l1 3h166l50 -556q10 -103 32 -161l-1 -3h-221v4q0 1 5.5 12t9.5 21t10 26.5t10 31.5t5.5 31t1.5 27v11l-7 81h-248l-29 -50q-10 -17 -18 -35.5t-12 -36t-6.5 -33t-3.5 -30.5t-1 -24.5t0.5 -19.5t0.5 -11l-1 -5h-145z
M403 289l-26 311l-189 -311h215zM313 785l208 160l122 -160l-14 -12l-134 70l-173 -70z" />
    <glyph glyph-name="Atilde" unicode="&#xc3;" horiz-adv-x="674" 
d="M-54 3q59 73 141 207l236 386q25 41 25 92q0 14 -2 29l1 3h166l50 -556q10 -103 32 -161l-1 -3h-221v4q0 1 5.5 12t9.5 21t10 26.5t10 31.5t5.5 31t1.5 27v11l-7 81h-248l-29 -50q-10 -17 -18 -35.5t-12 -36t-6.5 -33t-3.5 -30.5t-1 -24.5t0.5 -19.5t0.5 -11l-1 -5h-145z
M403 289l-26 311l-189 -311h215zM351 870q37 44 91 44q25 0 68 -16.5t69 -16.5q63 0 110 48q-23 -76 -61.5 -111t-83.5 -35q-27 0 -77.5 18t-71.5 18q-46 -2 -88 -44q6 51 44 95z" />
    <glyph glyph-name="Adieresis" unicode="&#xc4;" horiz-adv-x="674" 
d="M-54 3q59 73 141 207l236 386q25 41 25 92q0 14 -2 29l1 3h166l50 -556q10 -103 32 -161l-1 -3h-221v4q0 1 5.5 12t9.5 21t10 26.5t10 31.5t5.5 31t1.5 27v11l-7 81h-248l-29 -50q-10 -17 -18 -35.5t-12 -36t-6.5 -33t-3.5 -30.5t-1 -24.5t0.5 -19.5t0.5 -11l-1 -5h-145z
M188 289h215l-26 311zM527 859q8 32 35.5 54.5t58.5 22.5t43.5 -18.5t12.5 -36.5q0 -10 -3 -22q-8 -32 -35 -54q-28 -23 -59 -23t-43.5 18.5t-12.5 37.5q0 10 3 21zM322 859q9 32 36.5 54.5t57.5 22.5q31 0 43.5 -18.5t12.5 -36.5q0 -10 -3 -22q-8 -32 -35.5 -54.5
t-58.5 -22.5q-30 0 -43 18.5t-13 37.5q0 10 3 21z" />
    <glyph glyph-name="Aring" unicode="&#xc5;" horiz-adv-x="674" 
d="M-55 0l1 3q59 73 141 207l236 386q25 41 25 92q0 14 -2 29l1 3h166l50 -556q10 -103 32 -161l-1 -3h-221v4q0 1 5.5 12t9.5 21t10 26.5t10 31.5t5.5 31t1.5 27v11l-7 81h-248l-29 -50q-10 -17 -18 -35.5t-12 -36t-6.5 -33t-3.5 -30.5t-1 -24.5t0.5 -19.5t0.5 -11l-1 -5
h-145zM403 289l-26 311l-189 -311h215zM405 866q10 42 46.5 71t75.5 29q40 0 57 -24t17 -48q0 -13 -4 -28q-11 -41 -47 -70q-36 -30 -76 -30t-56.5 24.5t-16.5 47.5q0 13 4 28zM453 826q11 -17 33 -17q21 0 41.5 17.5t25.5 39.5q3 9 3 17q0 13 -9 26.5t-31 13.5
q-21 0 -41.5 -17.5t-25.5 -39.5q-3 -9 -3 -17q0 -13 7 -23z" />
    <glyph glyph-name="AE" unicode="&#xc6;" horiz-adv-x="979" 
d="M70 114l395 480q20 24 35.5 53t21.5 46.5t6 23.5l1 3h534l-49 -183h-4l-14 26q-14 26 -29 49.5t-42 44.5t-54 21h-135l-78 -292h64q18 0 39.5 3.5t39 8.5t37 12t31 12t23.5 10l12 6h4l-37 -138h-3l-12 7q-12 7 -25.5 13.5t-32.5 14.5t-41.5 12.5t-44.5 4.5h-63l-83 -310
h138q22 0 50 13t55.5 34t49 39.5t40.5 37.5l19 18h4l-49 -184h-495l1 4l14 28q14 27 29 61.5t23 64.5l24 87h-233l-55 -63q-12 -13 -21.5 -28t-15.5 -28t-11 -28t-7.5 -26t-4 -23.5t-2 -19t-1.5 -15.5v-9l-1 -5h-172q84 63 125 114zM480 289l103 382l-312 -382h209z" />
    <glyph glyph-name="Ccedilla" unicode="&#xc7;" horiz-adv-x="639" 
d="M70 370q44 165 156.5 262.5t263.5 97.5q92 0 218 -43l-48 -181h-6q-16 45 -37 82.5t-56.5 68.5t-74.5 31q-74 0 -141.5 -89t-105.5 -229q-23 -83 -23 -155q0 -42 14.5 -113t85.5 -71q100 0 265 190h6l-49 -182q-105 -40 -195 -49l-31 -37q43 0 71.5 -20.5t28.5 -52.5v-6
q-3 -31 -27.5 -48t-61.5 -17q-58 0 -96 29l3 34q25 -20 48 -20q6 0 22 3t19 29v4q0 16 -16 29.5t-45 16.5l43 54q-143 1 -196 87t-53 171q0 57 18 124z" />
    <glyph glyph-name="Egrave" unicode="&#xc8;" horiz-adv-x="578" 
d="M-24 0l1 4l14 28q14 27 29 61.5t23 64.5l108 404q8 30 11.5 65t4.5 61t1 28l1 4h492l-46 -174h-4q-2 1 -24.5 35.5t-57 65.5t-71.5 31h-123l-79 -291h53q36 0 79.5 11.5t77.5 25t36 13.5h4l-36 -137h-5q-2 1 -19.5 9.5t-37 17t-50.5 16t-59 7.5h-52l-83 -308h127
q37 0 88 31t91.5 66t43.5 36h4l-47 -175h-495zM415 971l166 -174l-20 -16l-264 91z" />
    <glyph glyph-name="Eacute" unicode="&#xc9;" horiz-adv-x="578" 
d="M-24 0l1 4l14 28q14 27 29 61.5t23 64.5l108 404q8 30 11.5 65t4.5 61t1 28l1 4h492l-46 -174h-4q-2 1 -24.5 35.5t-57 65.5t-71.5 31h-123l-79 -291h53q36 0 79.5 11.5t77.5 25t36 13.5h4l-36 -137h-5q-2 1 -19.5 9.5t-37 17t-50.5 16t-59 7.5h-52l-83 -308h127
q37 0 88 31t91.5 66t43.5 36h4l-47 -175h-495zM311 804l213 174l91 -99l-288 -91z" />
    <glyph glyph-name="Ecircumflex" unicode="&#xca;" horiz-adv-x="578" 
d="M-24 0l1 4l14 28q14 27 29 61.5t23 64.5l108 404q8 30 11.5 65t4.5 61t1 28l1 4h492l-46 -174h-4q-2 1 -24.5 35.5t-57 65.5t-71.5 31h-123l-79 -291h53q36 0 79.5 11.5t77.5 25t36 13.5h4l-36 -137h-5q-2 1 -19.5 9.5t-37 17t-50.5 16t-59 7.5h-52l-83 -308h127
q37 0 88 31t91.5 66t43.5 36h4l-47 -175h-495zM474 945l122 -160l-14 -12l-134 70l-173 -70l-9 12z" />
    <glyph glyph-name="Edieresis" unicode="&#xcb;" horiz-adv-x="578" 
d="M-23 4l14 28q14 27 29 61.5t23 64.5l108 404q8 30 11.5 65t4.5 61t1 28l1 4h492l-46 -174h-4q-2 1 -24.5 35.5t-57 65.5t-71.5 31h-123l-79 -291h53q36 0 79.5 11.5t77.5 25t36 13.5h4l-36 -137h-5q-2 1 -19.5 9.5t-37 17t-50.5 16t-59 7.5h-52l-83 -308h127q37 0 88 31
t91.5 66t43.5 36h4l-47 -175h-495zM481 859q8 32 35.5 54.5t58.5 22.5t43.5 -18.5t12.5 -36.5q0 -10 -3 -22q-8 -32 -35 -54q-28 -23 -59 -23t-43.5 18.5t-12.5 37.5q0 10 3 21zM276 859q9 32 36.5 54.5t57.5 22.5q31 0 43.5 -18.5t12.5 -36.5q0 -10 -3 -22
q-8 -32 -35.5 -54.5t-58.5 -22.5q-30 0 -43 18.5t-13 37.5q0 10 3 21z" />
    <glyph glyph-name="Igrave" unicode="&#xcc;" horiz-adv-x="294" 
d="M-21 0l1 4q54 107 66 154l108 404q7 23 10.5 51t4.5 47t1.5 37t0.5 19l1 4h201l-1 -4q-54 -107 -66 -154l-108 -404q-6 -23 -10 -51t-5 -47t-1.5 -37t-0.5 -19l-1 -4h-201zM272 970l166 -173l-20 -16l-262 90z" />
    <glyph glyph-name="Iacute" unicode="&#xcd;" horiz-adv-x="294" 
d="M-21 0l1 4q54 107 66 154l108 404q7 23 10.5 51t4.5 47t1.5 37t0.5 19l1 4h201l-1 -4q-54 -107 -66 -154l-108 -404q-6 -23 -10 -51t-5 -47t-1.5 -37t-0.5 -19l-1 -4h-201zM171 804l211 171l90 -97l-285 -91z" />
    <glyph glyph-name="Icircumflex" unicode="&#xce;" horiz-adv-x="294" 
d="M-21 0l1 4q54 107 66 154l108 404q7 23 10.5 51t4.5 47t1.5 37t0.5 19l1 4h201l-1 -4q-54 -107 -66 -154l-108 -404q-6 -23 -10 -51t-5 -47t-1.5 -37t-0.5 -19l-1 -4h-201zM127 784l205 159l120 -159l-14 -11l-132 69l-171 -69z" />
    <glyph glyph-name="Idieresis" unicode="&#xcf;" horiz-adv-x="294" 
d="M-21 0l1 4q54 107 66 154l108 404q7 23 10.5 51t4.5 47t1.5 37t0.5 19l1 4h201l-1 -4q-54 -107 -66 -154l-108 -404q-6 -23 -10 -51t-5 -47t-1.5 -37t-0.5 -19l-1 -4h-201zM338 858q8 32 35.5 54.5t58.5 22.5q30 0 42.5 -18.5t12.5 -36.5q0 -10 -3 -22
q-8 -32 -35.5 -54.5t-57.5 -22.5q-31 0 -43.5 18.5t-12.5 37.5q0 10 3 21zM135 858q8 32 35.5 54.5t57.5 22.5q31 0 43.5 -18.5t12.5 -37.5q0 -10 -5.5 -31.5t-33 -44t-58.5 -22.5q-30 0 -42.5 18.5t-12.5 36.5q0 10 3 22z" />
    <glyph glyph-name="Eth" unicode="&#xd0;" horiz-adv-x="726" 
d="M22 4l14 28q14 27 29 61.5t23 64.5l47 175h-89l12 44h89l50 185q6 23 10 51t4.5 47t1 36.5t0.5 19.5l1 4h270q138 0 194 -80.5t56 -163.5q0 -52 -17 -113q-43 -163 -165 -263t-261 -100h-270zM205 42h55q102 0 179 92.5t113 228.5q17 63 18.5 95t1.5 41q0 44 -11.5 85.5
t-44.5 68t-85 26.5h-56l-80 -302h139l-12 -44h-139z" />
    <glyph glyph-name="Ntilde" unicode="&#xd1;" horiz-adv-x="690" 
d="M-33 0l2 5q1 3 17 28.5t31.5 53t33.5 68t27 74.5l86 322q8 32 9 57t1 38q0 21 -2 44.5t-2 25.5l1 4h161l208 -542l83 313q9 34 13 72t4 65q0 3 -0.5 18.5t-1.5 40.5t-1 28l1 5h143l-2 -5l-24 -39q-24 -40 -48.5 -90.5t-36.5 -94.5l-131 -491h-91l-226 597l-99 -368
q-12 -44 -13.5 -79t-1.5 -53q0 -28 2 -52l2 -40l-1 -5h-144zM356 870q37 44 91 44q25 0 68 -16.5t69 -16.5q63 0 110 48q-23 -76 -61.5 -111t-83.5 -35q-27 0 -77.5 18t-71.5 18q-46 -2 -88 -44q6 51 44 95z" />
    <glyph glyph-name="Ograve" unicode="&#xd2;" horiz-adv-x="716" 
d="M69 367q41 167 155 265.5t250 98.5h5q138 -3 190 -86.5t52 -169.5q0 -55 -16 -119q-41 -167 -156 -268q-113 -99 -249 -99q-2 0 -73 1t-122.5 84.5t-51.5 171.5q0 55 16 121zM220 142q6 -49 27.5 -79.5t57.5 -30.5h1q70 0 135 100.5t96 226.5q14 58 17 98.5t3 62.5
q0 31 -4.5 69t-26.5 68t-58 31h-1q-70 0 -134.5 -101t-94.5 -225q-14 -58 -17.5 -99.5t-3.5 -65.5q0 -29 3 -55zM366 872l118 99l166 -174l-20 -16z" />
    <glyph glyph-name="Oacute" unicode="&#xd3;" horiz-adv-x="716" 
d="M69 367q41 167 155 265.5t250 98.5h5q138 -3 190 -86.5t52 -169.5q0 -55 -16 -119q-41 -167 -156 -268q-113 -99 -249 -99q-2 0 -73 1t-122.5 84.5t-51.5 171.5q0 55 16 121zM220 142q6 -49 27.5 -79.5t57.5 -30.5h1q70 0 135 100.5t96 226.5q14 58 17 98.5t3 62.5
q0 31 -4.5 69t-26.5 68t-58 31h-1q-70 0 -134.5 -101t-94.5 -225q-14 -58 -17.5 -99.5t-3.5 -65.5q0 -29 3 -55zM593 978l91 -99l-288 -91l-16 16z" />
    <glyph glyph-name="Ocircumflex" unicode="&#xd4;" horiz-adv-x="716" 
d="M69 367q41 167 155 265.5t250 98.5h5q138 -3 190 -86.5t52 -169.5q0 -55 -16 -119q-41 -167 -156 -268q-113 -99 -249 -99q-2 0 -73 1t-122.5 84.5t-51.5 171.5q0 55 16 121zM220 142q6 -49 27.5 -79.5t57.5 -30.5h1q70 0 135 100.5t96 226.5q14 58 17 98.5t3 62.5
q0 31 -4.5 69t-26.5 68t-58 31h-1q-70 0 -134.5 -101t-94.5 -225q-14 -58 -17.5 -99.5t-3.5 -65.5q0 -29 3 -55zM544 945l122 -160l-14 -12l-134 70l-173 -70l-9 12z" />
    <glyph glyph-name="Otilde" unicode="&#xd5;" horiz-adv-x="716" 
d="M69 367q41 167 155 265.5t250 98.5h5q138 -3 190 -86.5t52 -169.5q0 -55 -16 -119q-41 -167 -156 -268q-113 -99 -249 -99q-2 0 -73 1t-122.5 84.5t-51.5 171.5q0 55 16 121zM220 142q6 -49 27.5 -79.5t57.5 -30.5h1q70 0 135 100.5t96 226.5q14 58 17 98.5t3 62.5
q0 31 -4.5 69t-26.5 68t-58 31h-1q-70 0 -134.5 -101t-94.5 -225q-14 -58 -17.5 -99.5t-3.5 -65.5q0 -29 3 -55zM374 870q37 44 91 44q25 0 68 -16.5t69 -16.5q63 0 110 48q-23 -76 -61.5 -111t-83.5 -35q-27 0 -77.5 18t-71.5 18q-46 -2 -88 -44q6 51 44 95z" />
    <glyph glyph-name="Odieresis" unicode="&#xd6;" horiz-adv-x="716" 
d="M69 367q41 167 155 265.5t250 98.5h5q138 -3 190 -86.5t52 -169.5q0 -55 -16 -119q-41 -167 -156 -268q-113 -99 -249 -99q-2 0 -73 1t-122.5 84.5t-51.5 171.5q0 55 16 121zM220 142q6 -49 27.5 -79.5t57.5 -30.5h1q70 0 135 100.5t96 226.5q14 58 17 98.5t3 62.5
q0 31 -4.5 69t-26.5 68t-58 31h-1q-70 0 -134.5 -101t-94.5 -225q-14 -58 -17.5 -99.5t-3.5 -65.5q0 -29 3 -55zM550 859q8 32 35.5 54.5t58.5 22.5t43.5 -18.5t12.5 -36.5q0 -10 -3 -22q-8 -32 -35 -54q-28 -23 -59 -23t-43.5 18.5t-12.5 37.5q0 10 3 21zM345 859
q9 32 36.5 54.5t57.5 22.5q31 0 43.5 -18.5t12.5 -36.5q0 -10 -3 -22q-8 -32 -35.5 -54.5t-58.5 -22.5q-30 0 -43 18.5t-13 37.5q0 10 3 21z" />
    <glyph glyph-name="multiply" unicode="&#xd7;" horiz-adv-x="554" 
d="M161 272q56 36 69 46.5t15 17.5v2q0 8 -10.5 20t-55.5 52l-73 66l36 23l73 -66q44 -40 58.5 -50t25.5 -11q10 0 26.5 8.5t70.5 44.5l92 59l32 -29l-91 -60q-58 -37 -71 -47t-14 -17v-1q0 -8 9.5 -18.5t56.5 -53.5l80 -72l-36 -24l-80 72q-67 61 -84 62h-2q-9 0 -21.5 -7
t-73.5 -46l-92 -60l-32 30z" />
    <glyph glyph-name="Oslash" unicode="&#xd8;" horiz-adv-x="773" 
d="M128 60q-51 50 -66 114t-15 110q0 45 9 92q31 161 144.5 257.5t255.5 96.5q95 0 166 -51l71 90h43l-88 -112q50 -50 64 -112t15 -106q-1 -44 -10 -91q-31 -164 -144.5 -262t-255.5 -98q-94 0 -164 50l-69 -89h-44zM229 180l312 404q-23 104 -94 104q-52 0 -101.5 -53
t-80.5 -127t-43 -148q-6 -39 -6 -75q0 -55 13 -105zM234 133q22 -102 92 -102q77 0 142 105t84 227q5 38 5 74q0 52 -10 100z" />
    <glyph glyph-name="Ugrave" unicode="&#xd9;" horiz-adv-x="670" 
d="M76 296l71 266q6 23 10 51t5 47t1.5 37t0.5 19l1 4h201l-1 -4q-1 -2 -10 -19.5t-18 -36.5t-20 -47t-17 -51l-74 -276q-17 -57 -17 -100q0 -16 6 -48.5t34.5 -56t74.5 -23.5q70 0 132.5 54.5t92.5 166.5l57 212q9 34 12 70t3 60q0 7 -0.5 24t-2 42t-1.5 28l2 5h142l-1 -5
q-1 -1 -17 -28t-31 -54t-33 -67.5t-27 -74.5l-58 -215q-39 -149 -120 -218.5t-190 -69.5q-52 0 -96 16t-80 52.5t-41 74t-5 56.5q0 48 14 109zM459 971l166 -174l-20 -16l-264 91z" />
    <glyph glyph-name="Uacute" unicode="&#xda;" horiz-adv-x="670" 
d="M76 296l71 266q6 23 10 51t5 47t1.5 37t0.5 19l1 4h201l-1 -4q-1 -2 -10 -19.5t-18 -36.5t-20 -47t-17 -51l-74 -276q-17 -57 -17 -100q0 -16 6 -48.5t34.5 -56t74.5 -23.5q70 0 132.5 54.5t92.5 166.5l57 212q9 34 12 70t3 60q0 7 -0.5 24t-2 42t-1.5 28l2 5h142l-1 -5
q-1 -1 -17 -28t-31 -54t-33 -67.5t-27 -74.5l-58 -215q-39 -149 -120 -218.5t-190 -69.5q-52 0 -96 16t-80 52.5t-41 74t-5 56.5q0 48 14 109zM356 804l213 174l91 -99l-288 -91z" />
    <glyph glyph-name="Ucircumflex" unicode="&#xdb;" horiz-adv-x="670" 
d="M76 296l71 266q6 23 10 51t5 47t1.5 37t0.5 19l1 4h201l-1 -4q-1 -2 -10 -19.5t-18 -36.5t-20 -47t-17 -51l-74 -276q-17 -57 -17 -100q0 -16 6 -48.5t34.5 -56t74.5 -23.5q70 0 132.5 54.5t92.5 166.5l57 212q9 34 12 70t3 60q0 7 -0.5 24t-2 42t-1.5 28l2 5h142l-1 -5
q-1 -1 -17 -28t-31 -54t-33 -67.5t-27 -74.5l-58 -215q-39 -149 -120 -218.5t-190 -69.5q-52 0 -96 16t-80 52.5t-41 74t-5 56.5q0 48 14 109zM311 785l208 160l122 -160l-14 -12l-134 70l-173 -70z" />
    <glyph glyph-name="Udieresis" unicode="&#xdc;" horiz-adv-x="670" 
d="M76 296l71 266q6 23 10 51t5 47t1.5 37t0.5 19l1 4h201l-1 -4q-1 -2 -10 -19.5t-18 -36.5t-20 -47t-17 -51l-74 -276q-17 -57 -17 -100q0 -16 6 -48.5t34.5 -56t74.5 -23.5q70 0 132.5 54.5t92.5 166.5l57 212q9 34 12 70t3 60q0 7 -0.5 24t-2 42t-1.5 28l2 5h142l-1 -5
q-1 -1 -17 -28t-31 -54t-33 -67.5t-27 -74.5l-58 -215q-39 -149 -120 -218.5t-190 -69.5q-52 0 -96 16t-80 52.5t-41 74t-5 56.5q0 48 14 109zM525 859q8 32 35.5 54.5t58.5 22.5t43.5 -18.5t12.5 -36.5q0 -10 -3 -22q-8 -32 -35 -54q-28 -23 -59 -23t-43.5 18.5t-12.5 37.5
q0 10 3 21zM320 859q9 32 36.5 54.5t57.5 22.5q31 0 43.5 -18.5t12.5 -36.5q0 -10 -3 -22q-8 -32 -35.5 -54.5t-58.5 -22.5q-30 0 -43 18.5t-13 37.5q0 10 3 21z" />
    <glyph glyph-name="Yacute" unicode="&#xdd;" horiz-adv-x="638" 
d="M139 720h230l-1 -4q0 -1 -6 -15.5t-10 -26t-10 -34t-6 -39t3 -40.5l47 -239l165 221q48 65 55 172l2 5h142l-1 -4q-2 -3 -23 -26t-48 -55t-46 -59l-227 -303l-31 -115q-7 -23 -10.5 -51t-4.5 -47t-1 -36v-20l-1 -4h-204l1 4q54 107 66 154l31 115l-70 304q-5 27 -15 58.5
t-18.5 54t-9.5 26.5zM349 804l213 174l91 -99l-288 -91z" />
    <glyph glyph-name="Thorn" unicode="&#xde;" horiz-adv-x="582" 
d="M-21 0l1 4q54 107 66 154l108 404q7 23 10.5 51t4.5 47t1.5 37t0.5 19l1 4h201l-1 -4q-53 -106 -65 -151q67 59 148 59q83 0 115 -52t32 -106q0 -42 -14 -95q-34 -127 -117.5 -197t-166.5 -70q-70 0 -107 49q-6 -23 -9.5 -50t-4.5 -45t-1.5 -35.5t-0.5 -18.5l-1 -4h-201z
M261 178q57 0 102 55t67 136q12 39 12 72q0 25 -11.5 62t-65.5 37q-33 0 -71 -24l-86 -320q24 -18 53 -18z" />
    <glyph glyph-name="germandbls" unicode="&#xdf;" horiz-adv-x="611" 
d="M-32 0l1 4q54 107 66 154l102 379q55 203 288 203q35 0 71 -6.5t71 -20.5t49.5 -36.5t14.5 -44.5q0 -11 -3 -23q-8 -32 -36 -60t-57 -44.5t-55.5 -38.5t-32.5 -44q-2 -7 -2 -14q0 -14 10.5 -32t31.5 -38.5t41.5 -44t28 -50t7.5 -47.5q0 -18 -4 -37q-16 -69 -76.5 -118
t-101 -51t-45.5 -2q-71 0 -142 53l13 38q48 -28 88 -28q6 0 30.5 3t51 26.5t33.5 53.5q1 7 1 15q0 24 -16.5 55t-41.5 57t-39 56t-14 52q0 12 3 23q8 32 37.5 59t61 44.5t62 47.5t40.5 67q4 15 4 28q0 21 -14 41.5t-62 20.5q-63 0 -100 -45t-58 -125l-143 -530h-164z" />
    <glyph glyph-name="agrave" unicode="&#xe0;" horiz-adv-x="595" 
d="M39 291q24 63 57.5 108t69 68t66.5 33t61 10q42 0 72.5 -16.5t42.5 -44.5q65 23 119 55h20l-102 -379q-3 -10 -3 -17q0 -15 14 -15h2q30 3 80 62q8 9 15 18l10 -4q-31 -78 -82 -128t-109 -50q-50 0 -63 27.5t-13 53.5q0 21 6 46q-91 -128 -186 -128q-51 0 -80.5 38.5
t-29.5 108t33 154.5zM163 94q10 -16 31 -16q37 0 79.5 51.5t72.5 146.5l36 133q-1 21 -14 35.5t-33 14.5h-2q-40 0 -78 -50.5t-64 -120.5q-17 -45 -26 -82.5t-10 -54t-1 -19.5q0 -24 9 -38zM358 755l166 -174l-20 -16l-264 91z" />
    <glyph glyph-name="aacute" unicode="&#xe1;" horiz-adv-x="595" 
d="M39 291q24 63 57.5 108t69 68t66.5 33t61 10q42 0 72.5 -16.5t42.5 -44.5q65 23 119 55h20l-102 -379q-3 -10 -3 -17q0 -15 14 -15h2q30 3 80 62q8 9 15 18l10 -4q-31 -78 -82 -128t-109 -50q-50 0 -63 27.5t-13 53.5q0 21 6 46q-91 -128 -186 -128q-51 0 -80.5 38.5
t-29.5 108t33 154.5zM163 94q10 -16 31 -16q37 0 79.5 51.5t72.5 146.5l36 133q-1 21 -14 35.5t-33 14.5h-2q-40 0 -78 -50.5t-64 -120.5q-17 -45 -26 -82.5t-10 -54t-1 -19.5q0 -24 9 -38zM255 588l213 174l91 -99l-288 -91z" />
    <glyph glyph-name="acircumflex" unicode="&#xe2;" horiz-adv-x="595" 
d="M6 137q0 69 33 154q24 63 57.5 108t69 68t66.5 33t61 10q42 0 72.5 -16.5t42.5 -44.5q65 23 119 55h20l-102 -379q-3 -10 -3 -17q0 -15 14 -15h2q30 3 80 62q8 9 15 18l10 -4q-31 -78 -82 -128t-109 -50q-50 0 -63 27.5t-13 53.5q0 21 6 46q-91 -128 -186 -128
q-51 0 -80.5 38.5t-29.5 108.5zM163 94q10 -16 31 -16q37 0 79.5 51.5t72.5 146.5l36 133q-1 21 -14 35.5t-33 14.5h-2q-40 0 -78 -50.5t-64 -120.5q-17 -45 -26 -82.5t-10 -54t-1 -19.5q0 -24 9 -38zM213 567l204 159l120 -159l-14 -11l-131 69l-171 -69z" />
    <glyph glyph-name="atilde" unicode="&#xe3;" horiz-adv-x="595" 
d="M6 137q0 69 33 154q24 63 57.5 108t69 68t66.5 33t61 10q42 0 72.5 -16.5t42.5 -44.5q65 23 119 55h20l-102 -379q-3 -10 -3 -17q0 -15 14 -15h2q30 3 80 62q8 9 15 18l10 -4q-31 -78 -82 -128t-109 -50q-50 0 -63 27.5t-13 53.5q0 21 6 46q-91 -128 -186 -128
q-51 0 -80.5 38.5t-29.5 108.5zM163 94q10 -16 31 -16q37 0 79.5 51.5t72.5 146.5l36 133q-1 21 -14 35.5t-33 14.5h-2q-40 0 -78 -50.5t-64 -120.5q-17 -45 -26 -82.5t-10 -54t-1 -19.5q0 -24 9 -38zM248 654q37 44 91 44q25 0 68 -16.5t69 -16.5q63 0 110 48
q-23 -76 -61.5 -111t-83.5 -35q-27 0 -77.5 18t-71.5 18q-46 -2 -88 -44q6 51 44 95z" />
    <glyph glyph-name="adieresis" unicode="&#xe4;" horiz-adv-x="595" 
d="M39 291q24 63 57.5 108t69 68t66.5 33t61 10q42 0 72.5 -16.5t42.5 -44.5q65 23 119 55h20l-102 -379q-3 -10 -3 -17q0 -15 14 -15h2q30 3 80 62q8 9 15 18l10 -4q-31 -78 -82 -128t-109 -50q-50 0 -63 27.5t-13 53.5q0 21 6 46q-91 -128 -186 -128q-51 0 -80.5 38.5
t-29.5 108t33 154.5zM163 94q10 -16 31 -16q37 0 79.5 51.5t72.5 146.5l36 133q-1 21 -14 35.5t-33 14.5h-2q-40 0 -78 -50.5t-64 -120.5q-17 -45 -26 -82.5t-10 -54t-1 -19.5q0 -24 9 -38zM424 643q8 32 36 55q27 22 58 22t43.5 -18.5t12.5 -36.5q0 -10 -3 -22
q-8 -32 -35.5 -54.5t-58.5 -22.5t-43.5 18.5t-12.5 37.5q0 10 3 21zM219 643q9 32 36.5 54.5t57.5 22.5q31 0 43.5 -18.5t12.5 -36.5q0 -10 -3 -22q-8 -32 -35.5 -54.5t-58.5 -22.5q-30 0 -43 18.5t-13 37.5q0 10 3 21z" />
    <glyph glyph-name="aring" unicode="&#xe5;" horiz-adv-x="595" 
d="M39 291q24 63 57.5 108t69 68t66.5 33t61 10q42 0 72.5 -16.5t42.5 -44.5q65 23 119 55h20l-102 -379q-3 -10 -3 -17q0 -15 14 -15h2q30 3 80 62q8 9 15 18l10 -4q-31 -78 -82 -128t-109 -50q-50 0 -63 27.5t-13 53.5q0 21 6 46q-91 -128 -186 -128q-51 0 -80.5 38.5
t-29.5 108t33 154.5zM163 94q10 -16 31 -16q37 0 79.5 51.5t72.5 146.5l36 133q-1 21 -14 35.5t-33 14.5h-2q-40 0 -78 -50.5t-64 -120.5q-17 -45 -26 -82.5t-10 -54t-1 -19.5q0 -24 9 -38zM302 650q10 42 46.5 71t75.5 29q40 0 57 -24t17 -48q0 -13 -4 -28q-11 -41 -47 -70
q-36 -30 -76 -30t-56.5 24.5t-16.5 47.5q0 13 4 28zM350 610q11 -17 33 -17q21 0 41.5 17.5t25.5 39.5q3 9 3 17q0 13 -9 26.5t-31 13.5q-21 0 -41.5 -17.5t-25.5 -39.5q-3 -9 -3 -17q0 -13 7 -23z" />
    <glyph glyph-name="ae" unicode="&#xe6;" horiz-adv-x="807" 
d="M-2 149q18 69 79 111.5t135 48.5q15 1 29 1q46 0 90 -12l14 55q12 44 12 71q0 43 -31 43q-36 0 -127.5 -54.5t-114.5 -76.5l37 137q133 37 225 37q96 0 122 -53q79 53 163 53q57 0 95 -21t53 -55.5t16.5 -60t1.5 -31.5q0 -39 -13 -79h-307q-7 -36 -7 -64q0 -113 108 -113
q74 0 170 62q-36 -61 -106.5 -109.5t-151.5 -48.5q-54 0 -96.5 23.5t-64.5 66.5q-98 -88 -202 -88q-79 0 -107 37.5t-28 76.5q0 20 6 43zM153 99q15 -28 54 -28q44 0 77 46l39 149q-12 1 -23 1q-20 0 -39 -3q-90 -9 -113 -95q-4 -18 -4 -32q0 -22 9 -38zM483 289l178 28
q11 48 11 81q0 72 -54 72q-46 0 -81.5 -53t-53.5 -128z" />
    <glyph glyph-name="ccedilla" unicode="&#xe7;" horiz-adv-x="489" 
d="M32 276q31 114 112 174t170 60q78 0 152 -45l-38 -146h-5q-10 30 -17 49t-20 46.5t-29 41.5t-34 14q-41 -1 -82.5 -59.5t-60.5 -132.5q-13 -45 -13 -82q0 -30 14 -70.5t72 -40.5q44 0 98.5 29.5t86.5 76.5l11 -6q-40 -80 -106 -135t-142 -60l-31 -37q43 0 71.5 -20.5
t28.5 -52.5v-6q-3 -31 -27.5 -48t-61.5 -17q-58 0 -96 29l3 34q25 -20 48 -20q6 0 22 3t19 29v4q0 16 -16.5 29.5t-45.5 16.5l47 58q-83 13 -113.5 73t-30.5 115q0 44 14 96z" />
    <glyph glyph-name="egrave" unicode="&#xe8;" horiz-adv-x="500" 
d="M31 271q33 117 118 178t177 61q76 0 116 -33t40 -73q0 -13 -4 -28q-17 -66 -93 -104t-184 -38q-16 0 -33 1q-3 -21 -3 -39q0 -42 19 -77t69 -35q47 0 101 28.5t91 78.5l12 -6q-40 -82 -114 -138.5t-154 -56.5q-94 0 -133 62.5t-39 124.5q0 43 14 94zM173 263
q80 7 125 40.5t59 77.5q7 18 7 35q0 13 -7.5 33.5t-35.5 20.5q-42 0 -82 -57t-61 -131q-1 -3 -2.5 -9.5t-2.5 -9.5zM199 656l118 99l166 -174l-20 -16z" />
    <glyph glyph-name="eacute" unicode="&#xe9;" horiz-adv-x="500" 
d="M31 271q33 117 118 178t177 61q76 0 116 -33t40 -73q0 -13 -4 -28q-17 -66 -93 -104t-184 -38q-16 0 -33 1q-3 -21 -3 -39q0 -42 19 -77t69 -35q47 0 101 28.5t91 78.5l12 -6q-40 -82 -114 -138.5t-154 -56.5q-94 0 -133 62.5t-39 124.5q0 43 14 94zM173 263
q80 7 125 40.5t59 77.5q7 18 7 35q0 13 -7.5 33.5t-35.5 20.5q-42 0 -82 -57t-61 -131q-1 -3 -2.5 -9.5t-2.5 -9.5zM213 588l213 174l91 -99l-288 -91z" />
    <glyph glyph-name="ecircumflex" unicode="&#xea;" horiz-adv-x="500" 
d="M31 271q33 117 118 178t177 61q76 0 116 -33t40 -73q0 -13 -4 -28q-17 -66 -93 -104t-184 -38q-16 0 -33 1q-3 -21 -3 -39q0 -42 19 -77t69 -35q47 0 101 28.5t91 78.5l12 -6q-40 -82 -114 -138.5t-154 -56.5q-94 0 -133 62.5t-39 124.5q0 43 14 94zM298 304q45 33 59 77
q7 18 7 35q0 13 -7.5 33.5t-35.5 20.5q-42 0 -82 -57t-61 -131q-1 -3 -2.5 -9.5t-2.5 -9.5q80 7 125 41zM375 726l120 -159l-14 -11l-131 69l-171 -69l-8 11z" />
    <glyph glyph-name="edieresis" unicode="&#xeb;" horiz-adv-x="500" 
d="M31 271q33 117 118 178t177 61q76 0 116 -33t40 -73q0 -13 -4 -28q-17 -66 -93 -104t-184 -38q-16 0 -33 1q-3 -21 -3 -39q0 -42 19 -77t69 -35q47 0 101 28.5t91 78.5l12 -6q-40 -82 -114 -138.5t-154 -56.5q-94 0 -133 62.5t-39 124.5q0 43 14 94zM298 304q45 33 59 77
q7 18 7 35q0 13 -7.5 33.5t-35.5 20.5q-42 0 -82 -57t-61 -131q-1 -3 -2.5 -9.5t-2.5 -9.5q80 7 125 41zM383 643q8 32 36 55q27 22 58 22t43.5 -18.5t12.5 -36.5q0 -10 -3 -22q-8 -32 -35.5 -54.5t-58.5 -22.5t-43.5 18.5t-12.5 37.5q0 10 3 21zM178 643q9 32 36.5 54.5
t57.5 22.5q31 0 43.5 -18.5t12.5 -36.5q0 -10 -3 -22q-8 -32 -35.5 -54.5t-58.5 -22.5q-30 0 -43 18.5t-13 37.5q0 10 3 21z" />
    <glyph glyph-name="igrave" unicode="&#xec;" horiz-adv-x="316" 
d="M30 143l57 204q16 58 16 113q0 20 -2 40l1 4h169l-103 -370q-4 -14 -4 -24q0 -16 13 -16h3q32 5 84 68l11 14l10 -5q-32 -78 -82 -128t-107 -50q-53 0 -65.5 30t-12.5 54q0 29 12 66zM88 654l115 97l164 -171l-20 -16z" />
    <glyph glyph-name="iacute" unicode="&#xed;" horiz-adv-x="316" 
d="M30 143l57 204q16 58 16 113q0 20 -2 40l1 4h169l-103 -370q-4 -14 -4 -24q0 -16 13 -16h3q32 5 84 68l11 14l10 -5q-32 -78 -82 -128t-107 -50q-53 0 -65.5 30t-12.5 54q0 29 12 66zM313 758l89 -97l-284 -90l-15 16z" />
    <glyph glyph-name="icircumflex" unicode="&#xee;" horiz-adv-x="316" 
d="M30 143l57 204q16 58 16 113q0 20 -2 40l1 4h169l-103 -370q-4 -14 -4 -24q0 -16 13 -16h3q32 5 84 68l11 14l10 -5q-32 -78 -82 -128t-107 -50q-53 0 -65.5 30t-12.5 54q0 29 12 66zM262 723l118 -156l-14 -12l-130 69l-168 -69l-8 12z" />
    <glyph glyph-name="idieresis" unicode="&#xef;" horiz-adv-x="316" 
d="M30 143l57 204q16 58 16 113q0 20 -2 40l1 4h169l-103 -370q-4 -14 -4 -24q0 -16 13 -16h3q32 5 84 68l11 14l10 -5q-32 -78 -82 -128t-107 -50q-53 0 -65.5 30t-12.5 54q0 29 12 66zM68 641q8 32 35 54t57 22q31 0 43.5 -18t12.5 -37q0 -10 -5.5 -31.5t-32.5 -43.5
q-28 -22 -58 -22t-42.5 18t-12.5 36q0 10 3 22zM269 641q8 31 35.5 53.5t57.5 22.5t42.5 -18.5t12.5 -35.5q0 -11 -3 -22q-8 -32 -35 -54t-57 -22q-31 0 -43.5 18t-12.5 37q0 10 3 21z" />
    <glyph glyph-name="eth" unicode="&#xf0;" horiz-adv-x="567" 
d="M199 -12q-107 0 -158 65.5t-22 173.5q24 91 95 156t157 65q47 0 80.5 -22.5t45.5 -56.5q29 118 -16 216l-142 -88l12 45l116 72q-43 77 -129 116q128 0 213 -64l129 80l-12 -45l-91 -57q58 -57 75.5 -150.5t-9.5 -189.5q-43 -159 -135 -237.5t-209 -78.5zM211 30
q93 0 175 301q-32 60 -84 60q-49 0 -86 -49.5t-56 -121.5q-23 -80 -10 -135t61 -55z" />
    <glyph glyph-name="ntilde" unicode="&#xf1;" horiz-adv-x="625" 
d="M-7 0l94 346q15 57 15 154v4h161l-41 -164q103 170 215 170q61 0 85 -34t24 -71q0 -26 -9 -57l-63 -224q-3 -10 -3 -16q0 -15 14 -15h2q32 5 82 62l14 18l10 -4q-31 -78 -82 -128t-108 -50q-53 0 -66.5 28t-13.5 52q0 23 8 51l57 200q10 34 10 56q0 41 -34 41
q-43 0 -96 -68.5t-89 -186.5l-41 -164h-145zM254 654q37 44 91 44q25 0 68 -16.5t69 -16.5q63 0 110 48q-23 -76 -61.5 -111t-83.5 -35q-27 0 -77.5 18t-71.5 18q-46 -2 -88 -44q6 51 44 95z" />
    <glyph glyph-name="ograve" unicode="&#xf2;" horiz-adv-x="521" 
d="M28 258q34 121 118 186.5t178 65.5q3 0 53.5 -1t90.5 -56.5t40 -115.5q0 -40 -13 -89q-34 -123 -118 -191.5t-177 -68.5h-5q-99 2 -140 60t-41 120q0 41 14 90zM157 105q4 -74 48 -75q22 0 43 19t38.5 54t30 69.5t26.5 78.5q21 62 21 121q0 13 -3 54.5t-46 42.5h-1
q-42 0 -74 -59.5t-61 -154.5q-23 -66 -23 -130q0 -10 1 -20zM327 755l166 -174l-20 -16l-264 91z" />
    <glyph glyph-name="oacute" unicode="&#xf3;" horiz-adv-x="521" 
d="M28 258q34 121 118 186.5t178 65.5q3 0 53.5 -1t90.5 -56.5t40 -115.5q0 -40 -13 -89q-34 -123 -118 -191.5t-177 -68.5h-5q-99 2 -140 60t-41 120q0 41 14 90zM157 105q4 -74 48 -75q22 0 43 19t38.5 54t30 69.5t26.5 78.5q21 62 21 121q0 13 -3 54.5t-46 42.5h-1
q-42 0 -74 -59.5t-61 -154.5q-23 -66 -23 -130q0 -10 1 -20zM437 762l91 -99l-288 -91l-16 16z" />
    <glyph glyph-name="ocircumflex" unicode="&#xf4;" horiz-adv-x="521" 
d="M28 258q34 121 118 186.5t178 65.5q3 0 53.5 -1t90.5 -56.5t40 -115.5q0 -40 -13 -89q-34 -123 -118 -191.5t-177 -68.5h-5q-99 2 -140 60t-41 120q0 41 14 90zM157 105q4 -74 48 -75q22 0 43 19t38.5 54t30 69.5t26.5 78.5q21 62 21 121q0 13 -3 54.5t-46 42.5h-1
q-42 0 -74 -59.5t-61 -154.5q-23 -66 -23 -130q0 -10 1 -20zM387 729l122 -160l-14 -12l-134 70l-173 -70l-9 12z" />
    <glyph glyph-name="otilde" unicode="&#xf5;" horiz-adv-x="521" 
d="M28 258q34 121 118 186.5t178 65.5q3 0 53.5 -1t90.5 -56.5t40 -115.5q0 -40 -13 -89q-34 -123 -118 -191.5t-177 -68.5h-5q-99 2 -140 60t-41 120q0 41 14 90zM157 105q4 -74 48 -75q22 0 43 19t38.5 54t30 69.5t26.5 78.5q21 62 21 121q0 13 -3 54.5t-46 42.5h-1
q-42 0 -74 -59.5t-61 -154.5q-23 -66 -23 -130q0 -10 1 -20zM173 559q6 51 43.5 95t91.5 44q25 0 68 -16.5t69 -16.5q63 0 110 48q-23 -76 -61.5 -111t-83.5 -35q-27 0 -77.5 18t-71.5 18q-46 -2 -88 -44z" />
    <glyph glyph-name="odieresis" unicode="&#xf6;" horiz-adv-x="521" 
d="M28 258q34 121 118 186.5t178 65.5q3 0 53.5 -1t90.5 -56.5t40 -115.5q0 -40 -13 -89q-34 -123 -118 -191.5t-177 -68.5h-5q-99 2 -140 60t-41 120q0 41 14 90zM157 105q4 -74 48 -75q22 0 43 19t38.5 54t30 69.5t26.5 78.5q21 62 21 121q0 13 -3 54.5t-46 42.5h-1
q-42 0 -74 -59.5t-61 -154.5q-23 -66 -23 -130q0 -10 1 -20zM393 643q8 32 35.5 54.5t58.5 22.5t43.5 -18.5t12.5 -36.5q0 -10 -3 -22q-8 -32 -35 -54q-28 -23 -59 -23t-43.5 18.5t-12.5 37.5q0 10 3 21zM188 643q9 32 36.5 54.5t57.5 22.5q31 0 43.5 -18.5t12.5 -36.5
q0 -10 -3 -22q-8 -32 -35.5 -54.5t-58.5 -22.5q-30 0 -43 18.5t-13 37.5q0 10 3 21z" />
    <glyph glyph-name="divide" unicode="&#xf7;" horiz-adv-x="541" 
d="M321 445q-22 0 -32.5 16.5t-4.5 39.5q6 21 25.5 38t40.5 17t32 -16.5t4 -38.5q-5 -23 -24.5 -39.5t-40.5 -16.5zM71 309l12 44h429l-12 -44h-429zM229 103q-21 0 -31.5 16.5t-4.5 39.5q5 22 24.5 38.5t40.5 16.5t32 -16.5t5 -38.5q-6 -23 -25.5 -39.5t-40.5 -16.5z" />
    <glyph glyph-name="oslash" unicode="&#xf8;" horiz-adv-x="531" 
d="M36 258q34 121 118 186.5t178 65.5h6q44 0 83 -17l49 69h45l-63 -88q64 -48 64 -137q0 -40 -13 -89q-34 -123 -118 -191.5t-177 -68.5h-5q-48 2 -84 19l-49 -69h-45l63 88q-66 51 -66 141q0 41 14 91zM165 135l203 285q-10 48 -45 49q-22 0 -42.5 -18t-38 -52.5
t-29.5 -66.5t-26 -77q-19 -63 -22 -120zM214 30q22 0 42.5 19t38 54t30 69t26.5 79q16 55 21 110l-203 -284q10 -47 45 -47z" />
    <glyph glyph-name="ugrave" unicode="&#xf9;" horiz-adv-x="626" 
d="M33 156l54 190q12 44 13.5 81.5t1.5 50.5q0 21 -2 22v4h175l-92 -322q-10 -34 -10 -56q0 -41 34 -41q41 0 92.5 63.5t87.5 174.5l49 181h143l-103 -380q-3 -10 -3 -16q0 -15 14 -15h2q31 4 80 62q8 9 15 18l10 -4q-31 -78 -82 -128t-108 -50q-52 0 -65.5 28t-13.5 54
q0 22 7 49l8 28q-99 -156 -207 -156q-60 0 -84.5 34t-24.5 72q0 25 9 56zM248 656l118 99l166 -174l-20 -16z" />
    <glyph glyph-name="uacute" unicode="&#xfa;" horiz-adv-x="626" 
d="M33 156l54 190q12 44 13.5 81.5t1.5 50.5q0 21 -2 22v4h175l-92 -322q-10 -34 -10 -56q0 -41 34 -41q41 0 92.5 63.5t87.5 174.5l49 181h143l-103 -380q-3 -10 -3 -16q0 -15 14 -15h2q31 4 80 62q8 9 15 18l10 -4q-31 -78 -82 -128t-108 -50q-52 0 -65.5 28t-13.5 54
q0 22 7 49l8 28q-99 -156 -207 -156q-60 0 -84.5 34t-24.5 72q0 25 9 56zM476 762l91 -99l-288 -91l-16 16z" />
    <glyph glyph-name="ucircumflex" unicode="&#xfb;" horiz-adv-x="626" 
d="M33 156l54 190q12 44 13.5 81.5t1.5 50.5q0 21 -2 22v4h175l-92 -322q-10 -34 -10 -56q0 -41 34 -41q41 0 92.5 63.5t87.5 174.5l49 181h143l-103 -380q-3 -10 -3 -16q0 -15 14 -15h2q31 4 80 62q8 9 15 18l10 -4q-31 -78 -82 -128t-108 -50q-52 0 -65.5 28t-13.5 54
q0 22 7 49l8 28q-99 -156 -207 -156q-60 0 -84.5 34t-24.5 72q0 25 9 56zM221 567l204 159l120 -159l-14 -11l-131 69l-171 -69z" />
    <glyph glyph-name="udieresis" unicode="&#xfc;" horiz-adv-x="626" 
d="M33 156l54 190q12 44 13.5 81.5t1.5 50.5q0 21 -2 22v4h175l-92 -322q-10 -34 -10 -56q0 -41 34 -41q41 0 92.5 63.5t87.5 174.5l49 181h143l-103 -380q-3 -10 -3 -16q0 -15 14 -15h2q31 4 80 62q8 9 15 18l10 -4q-31 -78 -82 -128t-108 -50q-52 0 -65.5 28t-13.5 54
q0 22 7 49l8 28q-99 -156 -207 -156q-60 0 -84.5 34t-24.5 72q0 25 9 56zM432 643q8 32 35.5 54.5t58.5 22.5t43.5 -18.5t12.5 -36.5q0 -10 -3 -22q-8 -32 -35 -54q-28 -23 -59 -23t-43.5 18.5t-12.5 37.5q0 10 3 21zM227 643q9 32 36.5 54.5t57.5 22.5q31 0 43.5 -18.5
t12.5 -36.5q0 -10 -3 -22q-8 -32 -35.5 -54.5t-58.5 -22.5q-30 0 -43 18.5t-13 37.5q0 10 3 21z" />
    <glyph glyph-name="yacute" unicode="&#xfd;" horiz-adv-x="558" 
d="M-8 -22h3q40 -86 120 -86h10q28 1 56 14q1 39 1 77q0 182 -16 358q-5 70 -37 70q-29 0 -91 -74l-9 5q33 74 81.5 121t98.5 47q41 0 62.5 -35t29.5 -110q16 -140 16 -321v-21q49 66 80.5 151t35.5 164q1 15 1 30q0 61 -14 106l164 39q-15 -101 -59 -212.5t-105.5 -209
t-143 -170.5t-163.5 -95q-49 -15 -93 -15q-53 0 -101 21zM218 588l213 174l91 -99l-288 -91z" />
    <glyph glyph-name="thorn" unicode="&#xfe;" horiz-adv-x="549" 
d="M-85 -196l14 28q14 27 29 61.5t23 64.5l154 574q8 30 11.5 65t4.5 61t1 28l1 4h189l-1 -4l-14 -28q-14 -27 -29 -61.5t-23 -64.5l-25 -93q66 71 156 71q79 0 106 -50.5t27 -99.5q0 -45 -15 -102q-34 -128 -112 -197.5t-157 -69.5q-75 0 -110 59l-24 -92q-7 -23 -10.5 -51
t-4.5 -47t-1.5 -37t-0.5 -19l-1 -4h-189zM215 64q55 0 96 54t63 137q11 47 12 67.5t1 23.5q0 34 -16.5 57.5t-51.5 23.5q-38 0 -81 -32l-83 -307q27 -24 60 -24z" />
    <glyph glyph-name="ydieresis" unicode="&#xff;" horiz-adv-x="558" 
d="M-8 -22h3q40 -86 120 -86h10q28 1 56 14q1 39 1 77q0 182 -16 358q-5 70 -37 70q-29 0 -91 -74l-9 5q33 74 81.5 121t98.5 47q41 0 62.5 -35t29.5 -110q16 -140 16 -321v-21q49 66 80.5 151t35.5 164q1 15 1 30q0 61 -14 106l164 39q-15 -101 -59 -212.5t-105.5 -209
t-143 -170.5t-163.5 -95q-49 -15 -93 -15q-53 0 -101 21zM387 643q8 32 35.5 54.5t58.5 22.5t43.5 -18.5t12.5 -36.5q0 -10 -3 -22q-8 -32 -35 -54q-28 -23 -59 -23t-43.5 18.5t-12.5 37.5q0 10 3 21zM182 643q9 32 36.5 54.5t57.5 22.5q31 0 43.5 -18.5t12.5 -36.5
q0 -10 -3 -22q-8 -32 -35.5 -54.5t-58.5 -22.5q-30 0 -43 18.5t-13 37.5q0 10 3 21z" />
    <glyph glyph-name="Amacron" unicode="&#x100;" horiz-adv-x="674" 
d="M-54 3q59 73 141 207l236 386q25 41 25 92q0 14 -2 29l1 3h166l50 -556q10 -103 32 -161l-1 -3h-221v4q0 1 5.5 12t9.5 21t10 26.5t10 31.5t5.5 31t1.5 27v11l-7 81h-248l-29 -50q-10 -17 -18 -35.5t-12 -36t-6.5 -33t-3.5 -30.5t-1 -24.5t0.5 -19.5t0.5 -11l-1 -5h-145z
M403 289l-26 311l-189 -311h215zM347 831l12 44h289l-12 -44h-289z" />
    <glyph glyph-name="amacron" unicode="&#x101;" horiz-adv-x="595" 
d="M39 291q24 63 57.5 108t69 68t66.5 33t61 10q42 0 72.5 -16.5t42.5 -44.5q65 23 119 55h20l-102 -379q-3 -10 -3 -17q0 -15 14 -15h2q30 3 80 62q8 9 15 18l10 -4q-31 -78 -82 -128t-109 -50q-50 0 -63 27.5t-13 53.5q0 21 6 46q-91 -128 -186 -128q-51 0 -80.5 38.5
t-29.5 108t33 154.5zM163 94q10 -16 31 -16q37 0 79.5 51.5t72.5 146.5l36 133q-1 21 -14 35.5t-33 14.5h-2q-40 0 -78 -50.5t-64 -120.5q-17 -45 -26 -82.5t-10 -54t-1 -19.5q0 -24 9 -38zM256 659h289l-12 -44h-289z" />
    <glyph glyph-name="Abreve" unicode="&#x102;" horiz-adv-x="674" 
d="M-55 0l1 3q59 73 141 207l236 386q25 41 25 92q0 14 -2 29l1 3h166l50 -556q10 -103 32 -161l-1 -3h-221v4q0 1 5.5 12t9.5 21t10 26.5t10 31.5t5.5 31t1.5 27v11l-7 81h-248l-29 -50q-10 -17 -18 -35.5t-12 -36t-6.5 -33t-3.5 -30.5t-1 -24.5t0.5 -19.5t0.5 -11l-1 -5
h-145zM403 289l-26 311l-189 -311h215zM368 930h19q6 -34 39 -51t73 -17q39 0 81.5 17t66.5 51h19q-16 -63 -71 -106q-56 -43 -118 -43t-88 36t-26 73q0 19 5 40z" />
    <glyph glyph-name="abreve" unicode="&#x103;" horiz-adv-x="595" 
d="M6 137q0 69 33 154q24 63 57.5 108t69 68t66.5 33t61 10q42 0 72.5 -16.5t42.5 -44.5q65 23 119 55h20l-102 -379q-3 -10 -3 -17q0 -15 14 -15h2q30 3 80 62q8 9 15 18l10 -4q-31 -78 -82 -128t-109 -50q-50 0 -63 27.5t-13 53.5q0 21 6 46q-91 -128 -186 -128
q-51 0 -80.5 38.5t-29.5 108.5zM163 94q10 -16 31 -16q37 0 79.5 51.5t72.5 146.5l36 133q-1 21 -14 35.5t-33 14.5h-2q-40 0 -78 -50.5t-64 -120.5q-17 -45 -26 -82.5t-10 -54t-1 -19.5q0 -24 9 -38zM265 714h19q6 -34 39 -51t73 -17q39 0 81.5 17t66.5 51h19
q-16 -63 -71 -106q-56 -43 -118 -43t-88 36t-26 73q0 19 5 40z" />
    <glyph glyph-name="Aogonek" unicode="&#x104;" horiz-adv-x="674" 
d="M-55 0l1 3q59 73 141 207l236 386q25 41 25 92q0 14 -2 29l1 3h166l50 -556q10 -103 32 -161l-1 -3h-90q-45 -40 -45 -86q0 -33 18 -38.5t27 -5.5q22 0 47 17v-30q-50 -36 -99 -36q-41 0 -64 22t-23 55q0 32 20.5 59t54.5 43h-67v4q0 1 5.5 12t9.5 21t10 26.5t10 31.5
t5.5 31t1.5 27v11l-7 81h-248l-29 -50q-10 -17 -18 -35.5t-12 -36t-6.5 -33t-3.5 -30.5t-1 -24.5t0.5 -19.5t0.5 -11l-1 -5h-145zM403 289l-26 311l-189 -311h215z" />
    <glyph glyph-name="aogonek" unicode="&#x105;" horiz-adv-x="595" 
d="M39 291q24 63 57.5 108t69 68t66.5 33t61 10q42 0 72.5 -16.5t42.5 -44.5q65 23 119 55h20l-102 -379q-3 -10 -3 -17q0 -15 14 -15h2q30 3 80 62q8 9 15 18l10 -4q-41 -104 -110 -151h3q-31 -15 -51.5 -45.5t-20.5 -58.5q0 -33 18 -38.5t27 -5.5q22 0 47 17v-30
q-50 -36 -99 -36q-41 0 -64 22t-23 55q0 59 62 95q-38 7 -47.5 33.5t-9.5 46.5q0 21 7 45q-91 -128 -186 -128q-51 0 -80.5 38.5t-29.5 108t33 154.5zM163 94q10 -16 31 -16q37 0 79.5 51.5t72.5 146.5l36 133q-1 21 -14 35.5t-33 14.5h-2q-40 0 -78 -50.5t-64 -120.5
q-17 -45 -26 -82.5t-10 -54t-1 -19.5q0 -24 9 -38z" />
    <glyph glyph-name="Cacute" unicode="&#x106;" horiz-adv-x="639" 
d="M70 370q44 165 156.5 262.5t263.5 97.5q92 0 218 -43l-48 -181h-6q-16 45 -37 82.5t-56.5 68.5t-74.5 31q-74 0 -141.5 -89t-105.5 -229q-23 -83 -23 -155q0 -42 14.5 -113t85.5 -71q100 0 265 190h6l-49 -182q-132 -51 -236 -51q-144 0 -197 86t-53 171q0 58 18 125z
M316 804l213 174l91 -99l-288 -91z" />
    <glyph glyph-name="cacute" unicode="&#x107;" horiz-adv-x="489" 
d="M32 276q31 114 112 174t170 60q78 0 152 -45l-38 -146h-5q-10 30 -17 49t-20 46.5t-29 41.5t-34 14q-41 -1 -82.5 -59.5t-60.5 -132.5q-13 -45 -13 -82q0 -30 14 -70.5t72 -40.5q44 0 98.5 29.5t86.5 76.5l11 -6q-42 -83 -111.5 -139t-148.5 -56q-94 0 -132.5 63
t-38.5 126q0 45 14 97zM428 762l91 -99l-288 -91l-16 16z" />
    <glyph glyph-name="Ccaron" unicode="&#x10c;" horiz-adv-x="639" 
d="M70 370q44 165 156.5 262.5t263.5 97.5q92 0 218 -43l-48 -181h-6q-16 45 -37 82.5t-56.5 68.5t-74.5 31q-74 0 -141.5 -89t-105.5 -229q-23 -83 -23 -155q0 -42 14.5 -113t85.5 -71q100 0 265 190h6l-49 -182q-132 -51 -236 -51q-144 0 -197 86t-53 171q0 58 18 125z
M330 958l135 -71l172 71l7 -12l-207 -161l-122 161z" />
    <glyph glyph-name="ccaron" unicode="&#x10d;" horiz-adv-x="489" 
d="M32 276q31 114 112 174t170 60q78 0 152 -45l-38 -146h-5q-10 30 -17 49t-20 46.5t-29 41.5t-34 14q-41 -1 -82.5 -59.5t-60.5 -132.5q-13 -45 -13 -82q0 -30 14 -70.5t72 -40.5q44 0 98.5 29.5t86.5 76.5l11 -6q-42 -83 -111.5 -139t-148.5 -56q-94 0 -132.5 63
t-38.5 126q0 45 14 97zM216 727l14 11l134 -69l169 69l7 -11l-204 -159z" />
    <glyph glyph-name="Dcaron" unicode="&#x10e;" horiz-adv-x="690" 
d="M-23 4q48 82 67 154l108 404q6 23 10 51t4.5 47t1 36.5t0.5 19.5l1 4h274q141 0 195.5 -83.5t54.5 -170.5q0 -58 -18 -128q-41 -153 -162.5 -245.5t-262.5 -92.5h-274zM220 41q102 0 177.5 89.5t111.5 223.5q20 87 20.5 123.5t0.5 37.5q0 71 -35.5 117.5t-104.5 46.5h-55
l-170 -638h55zM283 958l135 -71l172 71l7 -12l-207 -161l-122 161z" />
    <glyph glyph-name="dcaron" unicode="&#x10f;" horiz-adv-x="686" 
d="M39 291q46 118 116 168.5t131 50.5h2q72 -1 102 -63l34 125q12 44 14 79.5t2 51.5q0 12 -1 19v4l173 21l-167 -622q-3 -10 -3 -17q0 -15 14 -15h2q30 3 80 62q8 9 15 18l10 -4q-31 -78 -82 -128t-109 -50q-50 0 -63 27.5t-13 53.5q0 21 6 46q-91 -128 -186 -128
q-51 0 -80.5 38.5t-29.5 108t33 154.5zM163 94q10 -16 31 -16q36 0 78 50.5t71 143.5l31 115q-3 58 -44 60h-2q-37 0 -75 -46.5t-62 -112.5q-17 -45 -26 -82.5t-10 -54t-1 -19.5q0 -24 9 -38zM582 443q43 22 68.5 56t33.5 63h-6q-34 0 -48 19.5t-14 41.5q0 13 4 28
q10 37 37.5 59.5t57.5 22.5h3q36 0 49 -24.5t13 -49.5q0 -18 -5 -39q-13 -58 -57 -109t-103 -68h-33z" />
    <glyph glyph-name="Dcroat" unicode="&#x110;" horiz-adv-x="716" 
d="M21 0l1 4q1 2 9.5 19.5t18 36.5t20.5 47t17 51l46 175h-88l12 44h88l49 185q6 23 10 51t4.5 47t1 36.5t0.5 19.5l1 4h266q137 0 191.5 -80t54.5 -164q0 -52 -16 -113q-43 -164 -163 -263.5t-258 -99.5h-265zM256 42q100 0 176 92t112 229q19 84 19 154t-35.5 116
t-102.5 46h-55l-80 -302h138l-12 -44h-137l-77 -291h54z" />
    <glyph glyph-name="dcroat" unicode="&#x111;" horiz-adv-x="590" 
d="M39 291q46 118 116 168.5t131 50.5h2q72 -1 102 -63l38 141h-166l10 44h164q4 38 4 64q0 15 -1 26v4l173 21l-31 -115h74l-10 -44h-76l-124 -463q-3 -10 -3 -17q0 -15 14 -15h2q30 3 80 62q8 9 15 18l10 -4q-31 -78 -82 -128t-109 -50q-50 0 -63 27.5t-13 53.5q0 21 6 46
q-91 -128 -186 -128q-51 0 -80.5 38.5t-29.5 108t33 154.5zM163 94q10 -16 31 -16q36 0 78 50.5t71 143.5l31 115q-3 58 -44 60h-2q-37 0 -75 -46.5t-62 -112.5q-17 -45 -26 -82.5t-10 -54t-1 -19.5q0 -24 9 -38z" />
    <glyph glyph-name="Emacron" unicode="&#x112;" horiz-adv-x="578" 
d="M-24 0l1 4l14 28q14 27 29 61.5t23 64.5l108 404q8 30 11.5 65t4.5 61t1 28l1 4h492l-46 -174h-4q-2 1 -24.5 35.5t-57 65.5t-71.5 31h-123l-79 -291h53q36 0 79.5 11.5t77.5 25t36 13.5h4l-36 -137h-5q-2 1 -19.5 9.5t-37 17t-50.5 16t-59 7.5h-52l-83 -308h127
q37 0 88 31t91.5 66t43.5 36h4l-47 -175h-495zM300 831l12 44h289l-12 -44h-289z" />
    <glyph glyph-name="emacron" unicode="&#x113;" horiz-adv-x="500" 
d="M31 271q33 117 118 178t177 61q76 0 116 -33t40 -73q0 -13 -4 -28q-17 -66 -93 -104t-184 -38q-16 0 -33 1q-3 -21 -3 -39q0 -42 19 -77t69 -35q47 0 101 28.5t91 78.5l12 -6q-40 -82 -114 -138.5t-154 -56.5q-94 0 -133 62.5t-39 124.5q0 43 14 94zM173 263
q80 7 125 40.5t59 77.5q7 18 7 35q0 13 -7.5 33.5t-35.5 20.5q-42 0 -82 -57t-61 -131q-1 -3 -2.5 -9.5t-2.5 -9.5zM202 615l12 44h289l-12 -44h-289z" />
    <glyph glyph-name="Edotaccent" unicode="&#x116;" horiz-adv-x="578" 
d="M-24 0l1 4l14 28q14 27 29 61.5t23 64.5l108 404q8 30 11.5 65t4.5 61t1 28l1 4h492l-46 -174h-4q-2 1 -24.5 35.5t-57 65.5t-71.5 31h-123l-79 -291h53q36 0 79.5 11.5t77.5 25t36 13.5h4l-36 -137h-5q-2 1 -19.5 9.5t-37 17t-50.5 16t-59 7.5h-52l-83 -308h127
q37 0 88 31t91.5 66t43.5 36h4l-47 -175h-495zM365 883q10 37 43.5 63.5t68.5 26.5q36 0 51.5 -22t15.5 -44q0 -11 -3 -24q-10 -38 -43 -64q-33 -27 -69 -27t-51.5 22t-15.5 44q0 12 3 25z" />
    <glyph glyph-name="edotaccent" unicode="&#x117;" horiz-adv-x="500" 
d="M31 271q33 117 118 178t177 61q76 0 116 -33t40 -73q0 -13 -4 -28q-17 -66 -93 -104t-184 -38q-16 0 -33 1q-3 -21 -3 -39q0 -42 19 -77t69 -35q47 0 101 28.5t91 78.5l12 -6q-40 -82 -114 -138.5t-154 -56.5q-94 0 -133 62.5t-39 124.5q0 43 14 94zM267 667
q10 37 43.5 63.5t68.5 26.5q36 0 51.5 -22t15.5 -44q0 -11 -3 -24q-10 -38 -43 -64q-33 -27 -69 -27t-51.5 22t-15.5 44q0 12 3 25zM173 263q80 7 125 40.5t59 77.5q7 18 7 35q0 13 -7.5 33.5t-35.5 20.5q-42 0 -82 -57t-61 -131q-1 -3 -2.5 -9.5t-2.5 -9.5z" />
    <glyph glyph-name="Eogonek" unicode="&#x118;" horiz-adv-x="578" 
d="M-23 4l14 28q14 27 29 61.5t23 64.5l108 404q8 30 11.5 65t4.5 61t1 28l1 4h492l-46 -174h-4q-2 1 -24.5 35.5t-57 65.5t-71.5 31h-123l-79 -291h53q36 0 79.5 11.5t77.5 25t36 13.5h4l-36 -137h-5q-2 1 -19.5 9.5t-37 17t-50.5 16t-59 7.5h-52l-83 -308h127q37 0 88 31
t91.5 66t43.5 36h4l-47 -175h-66q-45 -40 -45 -86q0 -33 18 -38.5t27 -5.5q22 0 47 17v-30q-50 -36 -99 -36q-41 0 -64 22t-23 55q0 32 20.5 59t54.5 43h-365z" />
    <glyph glyph-name="eogonek" unicode="&#x119;" horiz-adv-x="500" 
d="M31 271q33 117 118 178t177 61q76 0 116 -33t40 -73q0 -13 -4 -28q-17 -66 -93 -104t-184 -38q-16 0 -33 1q-3 -21 -3 -39q0 -42 19 -77t69 -35q47 0 101 28.5t91 78.5l12 -6q-34 -69 -94 -122t-128 -68q-40 -38 -40 -81q0 -33 18 -38.5t27 -5.5q22 0 47 17v-30
q-50 -36 -99 -36q-41 0 -64 22t-23 55q0 58 60 94q-82 13 -113 72.5t-31 113.5q0 43 14 93zM173 263q80 7 125 40.5t59 77.5q7 18 7 35q0 13 -7.5 33.5t-35.5 20.5q-42 0 -82 -57t-61 -131q-1 -3 -2.5 -9.5t-2.5 -9.5z" />
    <glyph glyph-name="Ecaron" unicode="&#x11a;" horiz-adv-x="578" 
d="M-24 0l1 4l14 28q14 27 29 61.5t23 64.5l108 404q8 30 11.5 65t4.5 61t1 28l1 4h492l-46 -174h-4q-2 1 -24.5 35.5t-57 65.5t-71.5 31h-123l-79 -291h53q36 0 79.5 11.5t77.5 25t36 13.5h4l-36 -137h-5q-2 1 -19.5 9.5t-37 17t-50.5 16t-59 7.5h-52l-83 -308h127
q37 0 88 31t91.5 66t43.5 36h4l-47 -175h-495zM325 958l135 -71l172 71l7 -12l-207 -161l-122 161z" />
    <glyph glyph-name="ecaron" unicode="&#x11b;" horiz-adv-x="500" 
d="M31 271q33 117 118 178t177 61q76 0 116 -33t40 -73q0 -13 -4 -28q-17 -66 -93 -104t-184 -38q-16 0 -33 1q-3 -21 -3 -39q0 -42 19 -77t69 -35q47 0 101 28.5t91 78.5l12 -6q-40 -82 -114 -138.5t-154 -56.5q-94 0 -133 62.5t-39 124.5q0 43 14 94zM173 263
q80 7 125 40.5t59 77.5q7 18 7 35q0 13 -7.5 33.5t-35.5 20.5q-42 0 -82 -57t-61 -131q-1 -3 -2.5 -9.5t-2.5 -9.5zM214 727l14 11l134 -69l169 69l7 -11l-204 -159z" />
    <glyph glyph-name="uni0122" unicode="&#x122;" horiz-adv-x="701" 
d="M71 374q44 165 157 260.5t255 95.5q128 0 241 -55l-48 -180h-7q-36 93 -71 134q-51 58 -113 59h-4q-73 0 -136.5 -80.5t-104.5 -233.5q-26 -95 -26 -168q0 -42 16 -107.5t98 -65.5q52 0 114 29l38 142q5 18 5 39q0 6 -1 23t-6 35.5t-11 36.5t-6 20l1 4h230l-1 -4
q-38 -70 -60 -154l-38 -142q-54 -27 -134 -50t-151 -23q-145 0 -200 87.5t-55 174.5q0 57 18 123zM299 -274q25 33 32 60h-3q-36 0 -49.5 19.5t-13.5 40.5q0 12 4 26q10 35 37 57.5t58 22.5q35 -1 48 -24.5t13 -47.5q0 -17 -5 -38q-13 -56 -56 -105t-100 -66h-31
q41 22 66 55z" />
    <glyph glyph-name="uni0123" unicode="&#x123;" horiz-adv-x="488" 
d="M-63 -80q12 41 56 73q-17 21 -17 48q0 15 5 32q23 82 124 108q-37 22 -48.5 56.5t-11.5 60.5q0 24 7 50q23 83 95 122.5t155 39.5q62 0 106 -25q65 93 150 93q12 0 25 -2l-50 -113l-3 -2q-27 18 -60 18q-21 0 -44 -7q29 -23 36.5 -51t7.5 -48q0 -24 -7 -52
q-16 -58 -60 -97.5t-92.5 -54.5t-100.5 -15q-44 0 -77 15q-43 -12 -51 -40q-2 -5 -2 -9q0 -11 12.5 -19t40.5 -8h145q72 0 102 -36.5t30 -74.5q0 -21 -7 -44q-41 -138 -283 -138q-31 0 -62.5 4.5t-66.5 16t-47.5 31.5t-12.5 38q0 14 6 30zM177 236q8 -44 43 -44t64.5 40
t44.5 97q10 35 10 66q0 17 -6 46.5t-42 29.5q-34 0 -62.5 -39t-43.5 -97q-11 -36 -11 -67q0 -17 3 -32zM273 667q13 57 57.5 108t103.5 69h32q-43 -23 -69 -57.5t-32 -62.5h5q34 0 48.5 -20t14.5 -42q0 -13 -4 -27q-10 -36 -38 -59t-60 -23q-37 1 -50 25.5t-13 49.5
q0 18 5 39zM25 -105q10 -53 111 -53q60 0 113.5 18.5t61.5 49.5q1 5 1 10q0 16 -17 27.5t-59 11.5h-139q-34 0 -58 6q-16 -31 -16 -54q0 -9 2 -16z" />
    <glyph glyph-name="Imacron" unicode="&#x12a;" horiz-adv-x="294" 
d="M-21 0l1 4q54 107 66 154l108 404q7 23 10.5 51t4.5 47t1.5 37t0.5 19l1 4h201l-1 -4q-54 -107 -66 -154l-108 -404q-6 -23 -10 -51t-5 -47t-1.5 -37t-0.5 -19l-1 -4h-201zM159 830l11 44h288l-11 -44h-288z" />
    <glyph glyph-name="imacron" unicode="&#x12b;" horiz-adv-x="316" 
d="M30 143l57 204q16 58 16 113q0 20 -2 40l1 4h169l-103 -370q-4 -14 -4 -24q0 -16 13 -16h3q32 5 84 68l11 14l10 -5q-32 -78 -82 -128t-107 -50q-53 0 -65.5 30t-12.5 54q0 29 12 66zM103 657h285l-11 -44h-285z" />
    <glyph glyph-name="Iogonek" unicode="&#x12e;" horiz-adv-x="294" 
d="M-21 0l1 4q54 107 66 154l108 404q7 23 10.5 51t4.5 47t1.5 37t0.5 19l1 4h201l-1 -4q-54 -107 -66 -154l-108 -404q-6 -23 -10 -51t-5 -47t-1.5 -37t-0.5 -19l-1 -4h-62q-45 -40 -45 -86q0 -33 18 -38.5t27 -5.5q22 0 47 17v-30q-50 -36 -99 -36q-41 0 -64 22t-23 55
q0 32 20.5 59t54.5 43h-75z" />
    <glyph glyph-name="iogonek" unicode="&#x12f;" horiz-adv-x="316" 
d="M70 -4q-37 10 -44 37t-7 44q0 29 11 66l57 204q16 58 16 113q0 20 -2 40l1 4h169l-103 -370q-4 -14 -4 -24q0 -16 13 -16h3q32 5 84 68l11 14l10 -5q-52 -130 -138 -167q-22 -18 -36 -43t-14 -47q0 -33 18 -38.5t27 -5.5q22 0 47 17v-30q-50 -36 -99 -36q-41 0 -64 22
t-23 55q0 62 67 98zM154 667q10 37 43.5 63.5t68.5 26.5q36 0 51.5 -22t15.5 -44q0 -11 -3 -24q-10 -38 -43 -64.5t-69 -26.5t-51.5 22t-15.5 44q0 12 3 25z" />
    <glyph glyph-name="dotlessi" unicode="&#x131;" horiz-adv-x="316" 
d="M30 143l57 204q16 58 16 113q0 20 -2 40l1 4h169l-103 -370q-4 -14 -4 -24q0 -16 13 -16h3q32 5 84 68l11 14l10 -5q-32 -78 -82 -128t-107 -50q-53 0 -65.5 30t-12.5 54q0 29 12 66z" />
    <glyph glyph-name="uni0136" unicode="&#x136;" horiz-adv-x="683" 
d="M-23 4q54 107 66 154l109 404q6 23 10 51t4.5 47t1 36.5t0.5 19.5l1 4h202l-1 -4q-54 -107 -66 -154l-108 -404q-7 -23 -10.5 -51t-4.5 -47t-1 -36v-20l-2 -4h-202zM269 369l229 181q40 31 64 69.5t29 60t5 37.5l1 5h191l-1 -4q-56 -35 -135 -97l-253 -209l140 -301
q11 -24 26.5 -49t27 -41t11.5 -17l-1 -4h-217q-1 5 -1 14v8.5v9.5q0 15 -2.5 41.5t-11.5 49.5l-106 237v2q0 4 4 7zM136 -318q41 22 66 55t32 60h-3q-36 0 -49.5 19.5t-13.5 40.5q0 12 4 26q10 35 37 57.5t58 22.5q35 -1 48 -24.5t13 -47.5q0 -17 -5 -38q-13 -56 -56 -105
t-100 -66h-31z" />
    <glyph glyph-name="uni0137" unicode="&#x137;" horiz-adv-x="568" 
d="M-46 0l1 4l14 28q14 27 29 61.5t23 64.5l111 414q13 49 13 150v4l176 21l-157 -589q-7 -23 -10.5 -51t-4.5 -47t-1.5 -37t-0.5 -19l-1 -4h-192zM207 266l132 98q66 50 66 124v11l2 5h175l-1 -5l-245 -188l60 -174q17 -43 36 -44h3q28 0 91 77l10 -5q-28 -77 -74.5 -125.5
t-95.5 -48.5q-13 0 -24 4t-19 8.5t-16.5 15t-13 17.5t-11.5 23t-10 24t-10 27t-9 26l-46 128v2zM140 -263q25 33 32 60h-3q-36 0 -49.5 19.5t-13.5 40.5q0 12 4 26q10 35 37 57.5t58 22.5q35 -1 48 -24.5t13 -47.5q0 -17 -5 -38q-13 -56 -56 -105t-100 -66h-31q41 22 66 55z
" />
    <glyph glyph-name="Lacute" unicode="&#x139;" horiz-adv-x="541" 
d="M-23 0l1 4l7 14q7 13 14 26.5t16 32.5t17 40.5t13 40.5l108 404q6 23 10 51t4.5 47t1 36.5t0.5 19.5l1 4h203l-1 -4q0 -1 -7 -13.5t-14 -26.5t-16 -33t-17 -40.5t-13 -40.5l-139 -520h101q36 0 88 34.5t94.5 73.5t44.5 40h4l-51 -190h-470zM455 978l91 -99l-288 -91
l-16 16z" />
    <glyph glyph-name="lacute" unicode="&#x13a;" horiz-adv-x="313" 
d="M21 125l120 447q16 62 16 121q0 15 -1 30v3l173 21l-164 -613q-3 -14 -3 -23q0 -17 12 -17h4q31 4 84 69q5 7 10 13l10 -5q-31 -78 -82.5 -128t-108.5 -50q-52 0 -65 28.5t-13 52.5q0 23 8 51zM187 874l213 174l91 -99l-288 -91z" />
    <glyph glyph-name="uni013B" unicode="&#x13b;" horiz-adv-x="541" 
d="M-23 0l1 4l7 14q7 13 14 26.5t16 32.5t17 40.5t13 40.5l108 404q6 23 10 51t4.5 47t1 36.5t0.5 19.5l1 4h203l-1 -4q0 -1 -7 -13.5t-14 -26.5t-16 -33t-17 -40.5t-13 -40.5l-139 -520h101q36 0 88 34.5t94.5 73.5t44.5 40h4l-51 -190h-470zM205 -263q25 33 32 60h-3
q-36 0 -49.5 19.5t-13.5 40.5q0 12 4 26q10 35 37 57.5t58 22.5q35 -1 48 -24.5t13 -47.5q0 -17 -5 -38q-13 -56 -56 -105t-100 -66h-31q41 22 66 55z" />
    <glyph glyph-name="uni013C" unicode="&#x13c;" horiz-adv-x="313" 
d="M21 125l120 447q16 62 16 121q0 15 -1 30v3l173 21l-164 -613q-3 -14 -3 -23q0 -17 12 -17h4q31 4 84 69q5 7 10 13l10 -5q-31 -78 -82.5 -128t-108.5 -50q-52 0 -65 28.5t-13 52.5q0 23 8 51zM13 -263q25 33 32 60h-3q-36 0 -49.5 19.5t-13.5 40.5q0 12 4 26
q10 35 37 57.5t58 22.5q35 -1 48 -24.5t13 -47.5q0 -17 -5 -38q-13 -56 -56 -105t-100 -66h-31q41 22 66 55z" />
    <glyph glyph-name="Lcaron" unicode="&#x13d;" horiz-adv-x="541" 
d="M-23 0l1 4l7 14q7 13 14 26.5t16 32.5t17 40.5t13 40.5l108 404q6 23 10 51t4.5 47t1 36.5t0.5 19.5l1 4h203l-1 -4q0 -1 -7 -13.5t-14 -26.5t-16 -33t-17 -40.5t-13 -40.5l-139 -520h101q36 0 88 34.5t94.5 73.5t44.5 40h4l-51 -190h-470zM384 443q43 22 68.5 56.5
t32.5 62.5h-5q-34 0 -48.5 20t-14.5 42q0 13 4 27q10 37 37.5 59.5t57.5 22.5h3q37 0 50.5 -24.5t13.5 -48.5q0 -18 -6 -40q-14 -58 -58.5 -109t-102.5 -68h-32z" />
    <glyph glyph-name="lcaron" unicode="&#x13e;" horiz-adv-x="419" 
d="M21 125l120 447q16 62 16 121q0 15 -1 30v3l173 21l-164 -613q-3 -14 -3 -23q0 -17 12 -17h4q31 4 84 69q5 7 10 13l10 -5q-31 -78 -82.5 -128t-108.5 -50q-52 0 -65 28.5t-13 52.5q0 23 8 51zM310 446q43 22 68.5 56.5t32.5 62.5h-5q-34 0 -48.5 20t-14.5 42q0 13 4 27
q10 37 37.5 59.5t58.5 22.5h3q36 -1 49 -25t13 -49q0 -18 -5 -39q-13 -58 -57.5 -109t-103.5 -68h-32z" />
    <glyph glyph-name="Lslash" unicode="&#x141;" horiz-adv-x="623" 
d="M1 226l9 45l112 58l62 233q7 23 10.5 51t4.5 47t1.5 37t0.5 19l1 4h203l-1 -4q0 -1 -7 -13.5t-14 -26.5t-16 -33t-17 -40.5t-13 -40.5l-38 -142l193 100l-9 -44l-196 -102l-89 -332h100q37 0 88.5 34.5t94 73.5t44.5 40h4l-50 -190h-470l1 4q0 1 14 27.5t29.5 61.5
t23.5 65l33 125z" />
    <glyph glyph-name="lslash" unicode="&#x142;" horiz-adv-x="396" 
d="M3 244l13 48l122 60l59 220q16 62 16 121q0 15 -1 30v3l173 21l-84 -316l146 72l-13 -48l-146 -72l-67 -249q-4 -14 -4 -23q0 -17 13 -17h4q31 5 83 69l10 13l10 -5q-31 -78 -82 -128t-108 -50q-52 0 -65 28.5t-13 52.5q0 23 8 51l48 179z" />
    <glyph glyph-name="Nacute" unicode="&#x143;" horiz-adv-x="690" 
d="M-33 0l2 5q1 3 17 28.5t31.5 53t33.5 68t27 74.5l86 322q8 32 9 57t1 38q0 21 -2 44.5t-2 25.5l1 4h161l208 -542l83 313q9 34 13 72t4 65q0 3 -0.5 18.5t-1.5 40.5t-1 28l1 5h143l-2 -5l-24 -39q-24 -40 -48.5 -90.5t-36.5 -94.5l-131 -491h-91l-226 597l-99 -368
q-12 -44 -13.5 -79t-1.5 -53q0 -28 2 -52l2 -40l-1 -5h-144zM576 978l91 -99l-288 -91l-16 16z" />
    <glyph glyph-name="nacute" unicode="&#x144;" horiz-adv-x="625" 
d="M-7 0l94 346q15 57 15 154v4h161l-41 -164q103 170 215 170q61 0 85 -34t24 -71q0 -26 -9 -57l-63 -224q-3 -10 -3 -16q0 -15 14 -15h2q32 5 82 62l14 18l10 -4q-31 -78 -82 -128t-108 -50q-53 0 -66.5 28t-13.5 52q0 23 8 51l57 200q10 34 10 56q0 41 -34 41
q-43 0 -96 -68.5t-89 -186.5l-41 -164h-145zM261 588l213 174l91 -99l-288 -91z" />
    <glyph glyph-name="uni0145" unicode="&#x145;" horiz-adv-x="690" 
d="M-33 0l2 5q1 3 17 28.5t31.5 53t33.5 68t27 74.5l86 322q8 32 9 57t1 38q0 21 -2 44.5t-2 25.5l1 4h161l208 -542l83 313q9 34 13 72t4 65q0 3 -0.5 18.5t-1.5 40.5t-1 28l1 5h143l-2 -5l-24 -39q-24 -40 -48.5 -90.5t-36.5 -94.5l-131 -491h-91l-226 597l-99 -368
q-12 -44 -13.5 -79t-1.5 -53q0 -28 2 -52l2 -40l-1 -5h-144zM194 -263q25 33 32 60h-3q-36 0 -49.5 19.5t-13.5 40.5q0 12 4 26q10 35 37 57.5t58 22.5q35 -1 48 -24.5t13 -47.5q0 -17 -5 -38q-13 -56 -56 -105t-100 -66h-31q41 22 66 55z" />
    <glyph glyph-name="uni0146" unicode="&#x146;" horiz-adv-x="625" 
d="M87 346q15 57 15 154v4h161l-41 -164q103 170 215 170q61 0 85 -34t24 -71q0 -26 -9 -57l-63 -224q-3 -10 -3 -16q0 -15 14 -15h2q32 5 82 62l14 18l10 -4q-31 -78 -82 -128t-108 -50q-53 0 -66.5 28t-13.5 52q0 23 8 51l57 200q10 34 10 56q0 41 -34 41q-43 0 -96 -68.5
t-89 -186.5l-41 -164h-145zM169 -263q25 33 32 60h-3q-36 0 -49.5 19.5t-13.5 40.5q0 12 4 26q10 35 37 57.5t58 22.5q35 -1 48 -24.5t13 -47.5q0 -17 -5 -38q-13 -56 -56 -105t-100 -66h-31q41 22 66 55z" />
    <glyph glyph-name="Ncaron" unicode="&#x147;" horiz-adv-x="690" 
d="M-33 0l2 5q1 3 17 28.5t31.5 53t33.5 68t27 74.5l86 322q8 32 9 57t1 38q0 21 -2 44.5t-2 25.5l1 4h161l208 -542l83 313q9 34 13 72t4 65q0 3 -0.5 18.5t-1.5 40.5t-1 28l1 5h143l-2 -5l-24 -39q-24 -40 -48.5 -90.5t-36.5 -94.5l-131 -491h-91l-226 597l-99 -368
q-12 -44 -13.5 -79t-1.5 -53q0 -28 2 -52l2 -40l-1 -5h-144zM377 958l135 -71l172 71l7 -12l-207 -161l-122 161z" />
    <glyph glyph-name="ncaron" unicode="&#x148;" horiz-adv-x="625" 
d="M87 346q15 57 15 154v4h161l-41 -164q103 170 215 170q61 0 85 -34t24 -71q0 -26 -9 -57l-63 -224q-3 -10 -3 -16q0 -15 14 -15h2q32 5 82 62l14 18l10 -4q-31 -78 -82 -128t-108 -50q-53 0 -66.5 28t-13.5 52q0 23 8 51l57 200q10 34 10 56q0 41 -34 41q-43 0 -96 -68.5
t-89 -186.5l-41 -164h-145zM276 738l134 -69l169 69l7 -11l-204 -159l-120 159z" />
    <glyph glyph-name="Eng" unicode="&#x14a;" horiz-adv-x="690" 
d="M-31 5q1 3 17 28.5t31.5 53t33.5 68t27 74.5l86 322q8 32 9 57t1 38q0 21 -2 44.5t-2 25.5l1 4h161l208 -542l83 313q9 34 13 72t4 65q0 3 -0.5 18.5t-1.5 40.5t-1 28l1 5h143l-2 -5l-24 -39q-24 -40 -48.5 -90.5t-36.5 -94.5l-131 -491h-2l-15 -54q-19 -74 -66.5 -108
t-110.5 -34q-56 0 -119 26l57 121q52 -66 103 -66h2q67 0 101 115h-41l-226 597l-99 -368q-12 -44 -13.5 -79t-1.5 -53q0 -28 2 -52l2 -40l-1 -5h-144z" />
    <glyph glyph-name="eng" unicode="&#x14b;" horiz-adv-x="536" 
d="M437 510q61 0 91 -43t9 -119l-97 -348q-54 -195 -194 -195q-49 0 -98 23l60 117q39 -59 87 -59q63 0 97 114l-94 2l90 320q27 97 -24 97q-43 0 -96 -68.5t-89 -186.5l-41 -164h-145l94 346q15 57 15 154v4h161l-41 -164q103 170 215 170z" />
    <glyph glyph-name="Omacron" unicode="&#x14c;" horiz-adv-x="716" 
d="M69 367q41 167 155 265.5t250 98.5h5q138 -3 190 -86.5t52 -169.5q0 -55 -16 -119q-41 -167 -156 -268q-113 -99 -249 -99q-2 0 -73 1t-122.5 84.5t-51.5 171.5q0 55 16 121zM220 142q6 -49 27.5 -79.5t57.5 -30.5h1q70 0 135 100.5t96 226.5q14 58 17 98.5t3 62.5
q0 31 -4.5 69t-26.5 68t-58 31h-1q-70 0 -134.5 -101t-94.5 -225q-14 -58 -17.5 -99.5t-3.5 -65.5q0 -29 3 -55zM381 875h289l-12 -44h-289z" />
    <glyph glyph-name="omacron" unicode="&#x14d;" horiz-adv-x="521" 
d="M28 258q34 121 118 186.5t178 65.5q3 0 53.5 -1t90.5 -56.5t40 -115.5q0 -40 -13 -89q-34 -123 -118 -191.5t-177 -68.5h-5q-99 2 -140 60t-41 120q0 41 14 90zM157 105q4 -74 48 -75q22 0 43 19t38.5 54t30 69.5t26.5 78.5q21 62 21 121q0 13 -3 54.5t-46 42.5h-1
q-42 0 -74 -59.5t-61 -154.5q-23 -66 -23 -130q0 -10 1 -20zM225 659h289l-12 -44h-289z" />
    <glyph glyph-name="Ohungarumlaut" unicode="&#x150;" horiz-adv-x="716" 
d="M69 367q41 167 155 265.5t250 98.5h5q138 -3 190 -86.5t52 -169.5q0 -55 -16 -119q-41 -167 -156 -268q-113 -99 -249 -99q-2 0 -73 1t-122.5 84.5t-51.5 171.5q0 55 16 121zM220 142q6 -49 27.5 -79.5t57.5 -30.5h1q70 0 135 100.5t96 226.5q14 58 17 98.5t3 62.5
q0 31 -4.5 69t-26.5 68t-58 31h-1q-70 0 -134.5 -101t-94.5 -225q-14 -58 -17.5 -99.5t-3.5 -65.5q0 -29 3 -55zM510 803l149 141l65 -70l-203 -86zM476 944l65 -70l-202 -86l-11 15z" />
    <glyph glyph-name="ohungarumlaut" unicode="&#x151;" horiz-adv-x="521" 
d="M28 258q34 121 118 186.5t178 65.5q3 0 53.5 -1t90.5 -56.5t40 -115.5q0 -40 -13 -89q-34 -123 -118 -191.5t-177 -68.5h-5q-99 2 -140 60t-41 120q0 41 14 90zM157 105q4 -74 48 -75q22 0 43 19t38.5 54t30 69.5t26.5 78.5q21 62 21 121q0 13 -3 54.5t-46 42.5h-1
q-42 0 -74 -59.5t-61 -154.5q-23 -66 -23 -130q0 -10 1 -20zM503 728l65 -70l-203 -86l-11 15zM320 728l65 -70l-202 -86l-11 15z" />
    <glyph glyph-name="OE" unicode="&#x152;" horiz-adv-x="1009" 
d="M69 367q41 167 155 265.5t250 98.5h5q75 -1 119 -35q0 17 1 20l1 4h492l-46 -174h-4q-2 1 -24.5 35.5t-56.5 65.5t-71 31h-124l-78 -291h53q36 0 79.5 11.5t77 25t36.5 13.5h4l-37 -137h-4q-2 1 -20 9.5t-37.5 17t-50 16t-59.5 7.5h-52l-83 -308h128q36 0 87 31t92 66
t43 36h5l-48 -175h-495l4 10q-49 -21 -106 -21h-10q-139 2 -190.5 85.5t-51.5 171.5q0 55 16 121zM220 142q6 -49 27.5 -79.5t57.5 -30.5h2q51 0 100 55.5t87 143.5l60 227q3 34 3 65q0 24 -3 61t-25.5 70t-60.5 34h-1q-70 0 -134.5 -101t-94.5 -225q-14 -58 -17.5 -99.5
t-3.5 -65.5q0 -29 3 -55z" />
    <glyph glyph-name="oe" unicode="&#x153;" horiz-adv-x="869" 
d="M28 258q34 121 118 186.5t178 65.5h6q113 -2 157 -87q88 87 207 87q77 0 117 -33t40 -73q0 -13 -4 -28q-17 -65 -93.5 -103.5t-184.5 -38.5q-15 0 -32 1q-3 -21 -3 -40q0 -41 18.5 -76t69.5 -35q46 0 100.5 28.5t91.5 78.5l12 -6q-41 -82 -114.5 -138.5t-153.5 -56.5
q-51 0 -91 24.5t-61 69.5q-90 -96 -204 -96h-7q-99 2 -140 60t-41 120q0 41 14 90zM157 105q4 -74 48 -75q22 0 43 19t38.5 54t30 69.5t26.5 78.5q21 62 21 121q0 13 -3 54.5t-46 42.5h-1q-42 0 -74 -59.5t-61 -154.5q-23 -66 -23 -130q0 -10 1 -20zM667 305q45 33 59 76
q7 18 7 35q0 13 -7.5 33.5t-35.5 20.5q-42 0 -82 -57t-61 -131q-1 -3 -2.5 -9.5t-2.5 -9.5q79 8 125 42z" />
    <glyph glyph-name="Racute" unicode="&#x154;" horiz-adv-x="675" 
d="M-24 0l1 4l14 28q14 27 29 61.5t23 64.5l109 404q6 23 9.5 51t4.5 47t1.5 37t0.5 19l1 4h317q100 0 137 -46t37 -96q0 -28 -9 -60q-19 -74 -84 -118.5t-158 -52.5q85 -21 105 -108q4 -19 11 -57t11 -55t11 -43t16.5 -44.5t22.5 -35.5l-1 -4h-164q-24 35 -47 184
q-16 122 -86 149l-46 -2l-47 -173q-6 -23 -9.5 -51t-4.5 -47t-1.5 -37t-0.5 -19l-1 -4h-202zM340 374q54 0 93.5 38.5t58.5 110.5q11 37 11 68q0 25 -12.5 58t-64.5 33h-90l-83 -308h87zM558 978l91 -99l-288 -91l-16 16z" />
    <glyph glyph-name="racute" unicode="&#x155;" horiz-adv-x="429" 
d="M-8 0l93 346q6 23 10 51t4.5 47t1 36.5t0.5 19.5l1 4h159l-43 -173q50 99 101.5 139.5t91.5 40.5q26 0 52 -13l-56 -153h-4q-24 37 -64 37q-38 -1 -82.5 -51.5t-75.5 -152.5l-44 -178h-145zM392 762l91 -99l-288 -91l-16 16z" />
    <glyph glyph-name="uni0156" unicode="&#x156;" horiz-adv-x="675" 
d="M-24 0l1 4l14 28q14 27 29 61.5t23 64.5l109 404q6 23 9.5 51t4.5 47t1.5 37t0.5 19l1 4h317q100 0 137 -46t37 -96q0 -28 -9 -60q-19 -74 -84 -118.5t-158 -52.5q85 -21 105 -108q4 -19 11 -57t11 -55t11 -43t16.5 -44.5t22.5 -35.5l-1 -4h-164q-24 35 -47 184
q-16 122 -86 149l-46 -2l-47 -173q-6 -23 -9.5 -51t-4.5 -47t-1.5 -37t-0.5 -19l-1 -4h-202zM340 374q54 0 93.5 38.5t58.5 110.5q11 37 11 68q0 25 -12.5 58t-64.5 33h-90l-83 -308h87zM194 -263q25 33 32 60h-3q-36 0 -49.5 19.5t-13.5 40.5q0 12 4 26q10 35 37 57.5
t58 22.5q35 -1 48 -24.5t13 -47.5q0 -17 -5 -38q-13 -56 -56 -105t-100 -66h-31q41 22 66 55z" />
    <glyph glyph-name="uni0157" unicode="&#x157;" horiz-adv-x="429" 
d="M-8 0l93 346q6 23 10 51t4.5 47t1 36.5t0.5 19.5l1 4h159l-43 -173q50 99 101.5 139.5t91.5 40.5q26 0 52 -13l-56 -153h-4q-24 37 -64 37q-38 -1 -82.5 -51.5t-75.5 -152.5l-44 -178h-145zM-1 -318q41 22 66 55t32 60h-3q-36 0 -49.5 19.5t-13.5 40.5q0 12 4 26
q10 35 37 57.5t58 22.5q35 -1 48 -24.5t13 -47.5q0 -17 -5 -38q-13 -56 -56 -105t-100 -66h-31z" />
    <glyph glyph-name="Rcaron" unicode="&#x158;" horiz-adv-x="675" 
d="M-24 0l1 4l14 28q14 27 29 61.5t23 64.5l109 404q6 23 9.5 51t4.5 47t1.5 37t0.5 19l1 4h317q100 0 137 -46t37 -96q0 -28 -9 -60q-19 -74 -84 -118.5t-158 -52.5q85 -21 105 -108q4 -19 11 -57t11 -55t11 -43t16.5 -44.5t22.5 -35.5l-1 -4h-164q-24 35 -47 184
q-16 122 -86 149l-46 -2l-47 -173q-6 -23 -9.5 -51t-4.5 -47t-1.5 -37t-0.5 -19l-1 -4h-202zM340 374q54 0 93.5 38.5t58.5 110.5q11 37 11 68q0 25 -12.5 58t-64.5 33h-90l-83 -308h87zM344 946l15 12l135 -71l172 71l7 -12l-207 -161z" />
    <glyph glyph-name="rcaron" unicode="&#x159;" horiz-adv-x="429" 
d="M-8 0l93 346q6 23 10 51t4.5 47t1 36.5t0.5 19.5l1 4h159l-43 -173q50 99 101.5 139.5t91.5 40.5q26 0 52 -13l-56 -153h-4q-24 37 -64 37q-38 -1 -82.5 -51.5t-75.5 -152.5l-44 -178h-145zM180 727l14 11l134 -69l169 69l7 -11l-204 -159z" />
    <glyph glyph-name="Sacute" unicode="&#x15a;" horiz-adv-x="588" 
d="M-10 51l43 155h6q22 -34 42 -59t49.5 -55t63 -45.5t66.5 -15.5h4q41 3 74.5 25.5t46.5 66.5q5 18 5 35q0 83 -119 155q-96 57 -124 104t-28 88q0 29 10 62q24 77 94.5 121t177.5 47h15q109 0 231 -52l-46 -159h-5q-2 3 -17 23.5t-20.5 28.5t-21.5 27t-25.5 28t-26.5 23
t-31 20.5t-31 11t-32 4.5h-6q-42 -2 -74.5 -26t-44.5 -62q-5 -18 -5 -34q0 -31 25.5 -63.5t98.5 -76.5q89 -55 120.5 -105t31.5 -96q0 -28 -9 -60q-23 -77 -97.5 -129t-181.5 -54h-17q-106 0 -242 67zM529 978l91 -99l-288 -91l-16 16z" />
    <glyph glyph-name="sacute" unicode="&#x15b;" horiz-adv-x="457" 
d="M-12 38l41 137l5 1q84 -143 165 -144h4q50 0 64 44q3 11 3 21q0 23 -19.5 47t-72.5 61q-65 46 -89.5 80.5t-24.5 67.5q0 18 6 37q16 59 70.5 89t96.5 30.5t44 0.5q80 0 167 -35l-34 -131h-5q-27 53 -67 89t-84 36h-2q-56 -2 -65 -45v-9q0 -4 0.5 -10.5t6.5 -15
t10.5 -14.5t16.5 -16t19 -15t24 -17t25 -18q101 -73 101 -155q0 -19 -5 -38q-18 -61 -72 -94t-128 -33h-8q-96 0 -193 49zM405 762l91 -99l-288 -91l-16 16z" />
    <glyph glyph-name="Scedilla" unicode="&#x15e;" horiz-adv-x="588" 
d="M-10 51l43 155h6q22 -34 42 -59t49.5 -55t63 -45.5t66.5 -15.5h4q41 3 74.5 25.5t46.5 66.5q5 18 5 35q0 83 -119 155q-96 57 -124 104t-28 88q0 29 10 62q24 77 94.5 121t177.5 47h15q109 0 231 -52l-46 -159h-5q-2 3 -17 23.5t-20.5 28.5t-21.5 27t-25.5 28t-26.5 23
t-31 20.5t-31 11t-32 4.5h-6q-42 -2 -74.5 -26t-44.5 -62q-5 -18 -5 -34q0 -31 25.5 -63.5t98.5 -76.5q89 -55 120.5 -105t31.5 -96q0 -28 -9 -60q-23 -77 -97.5 -129t-181.5 -54h-10l-26 -31q43 0 71.5 -20.5t28.5 -52.5v-6q-3 -31 -27.5 -48t-61.5 -17q-58 0 -96 29l3 34
q25 -20 48 -20q6 0 22 3t19 29v4q0 16 -16.5 29.5t-45.5 16.5l41 51q-94 9 -209 66z" />
    <glyph glyph-name="scedilla" unicode="&#x15f;" horiz-adv-x="457" 
d="M-12 38l41 137l5 1q84 -143 165 -144q53 0 68 44q3 11 3 21q0 23 -19.5 47t-72.5 61q-65 46 -89.5 80.5t-24.5 67.5q0 18 6 37q16 59 71 89q54 30 96 30.5t44 0.5q80 0 167 -35l-34 -131h-5q-27 53 -67 89t-84 36h-2q-56 -2 -65 -45v-9q0 -4 0.5 -10.5t6.5 -15
t10.5 -14.5t16.5 -16t19 -15t24 -17t25 -18q101 -73 101 -155q0 -19 -5 -38q-18 -61 -72 -94t-128 -33h-13l-30 -36q43 0 71.5 -20.5t28.5 -52.5v-6q-3 -31 -27.5 -48t-61.5 -17q-58 0 -96 29l3 34q25 -20 48 -20q6 0 22 3t19 29v4q0 16 -16.5 29.5t-45.5 16.5l47 58
q-78 9 -150 46z" />
    <glyph glyph-name="Scaron" unicode="&#x160;" horiz-adv-x="588" 
d="M33 206h6q22 -34 42 -59t49.5 -55t63 -45.5t66.5 -15.5h4q41 3 74.5 25.5t46.5 66.5q5 18 5 35q0 83 -119 155q-96 57 -124 104t-28 88q0 29 10 62q24 77 94.5 121t177.5 47h15q109 0 231 -52l-46 -159h-5q-2 3 -17 23.5t-20.5 28.5t-21.5 27t-25.5 28t-26.5 23t-31 20.5
t-31 11t-32 4.5h-6q-42 -2 -74.5 -26t-44.5 -62q-5 -18 -5 -34q0 -31 25.5 -63.5t98.5 -76.5q89 -55 120.5 -105t31.5 -96q0 -28 -9 -60q-23 -77 -97.5 -129t-181.5 -54h-17q-106 0 -242 67zM316 944l14 11l134 -69l170 69l7 -11l-205 -159z" />
    <glyph glyph-name="scaron" unicode="&#x161;" horiz-adv-x="457" 
d="M29 175l5 1q84 -143 165 -144h4q50 0 64 44q3 11 3 21q0 23 -19.5 47t-72.5 61q-65 46 -89.5 80.5t-24.5 67.5q0 18 6 37q16 59 70.5 89t96.5 30.5t44 0.5q80 0 167 -35l-34 -131h-5q-27 53 -67 89t-84 36h-2q-56 -2 -65 -45v-9q0 -4 0.5 -10.5t6.5 -15t10.5 -14.5
t16.5 -16t19 -15t24 -17t25 -18q101 -73 101 -155q0 -19 -5 -38q-18 -61 -72 -94t-128 -33h-8q-96 0 -193 49zM193 727l14 11l134 -69l169 69l7 -11l-204 -159z" />
    <glyph glyph-name="uni0162" unicode="&#x162;" horiz-adv-x="627" 
d="M86 517l54 203h598l-54 -203h-5q-2 2 -14.5 28.5t-27.5 54.5t-41.5 51.5t-54.5 23.5h-37l-138 -517q-6 -23 -10 -51t-5 -47t-1.5 -37t-0.5 -19l-1 -4h-79l-39 -47q43 0 71.5 -20.5t28.5 -52.5v-6q-3 -31 -27.5 -48t-61.5 -17q-58 0 -96 29l3 34q25 -20 48 -20q6 0 22 3
t19 29v4q0 16 -16.5 29.5t-45.5 16.5l53 66h-82l1 4l14 28q14 27 29 61.5t23 64.5l139 517h-38q-27 0 -66 -23.5t-70 -51.5t-57.5 -54.5t-30.5 -28.5h-4z" />
    <glyph glyph-name="uni0163" unicode="&#x163;" horiz-adv-x="374" 
d="M23 -162l3 34q25 -20 48 -20q6 0 22 3t19 29v4q0 16 -16.5 29.5t-45.5 16.5l48 60q-41 11 -51.5 43.5t-10.5 55.5q0 27 9 58l82 309h-70l11 40q138 56 251 170l8 3l-45 -169h130l-12 -44h-130l-84 -309q-6 -20 -6 -33q0 -24 20 -24h2q21 0 53.5 25t63.5 68l10 -4
q-29 -74 -81.5 -129.5t-109.5 -61.5l-33 -39q43 0 71.5 -20.5t28.5 -52.5v-6q-3 -31 -27.5 -48t-61.5 -17q-58 0 -96 29z" />
    <glyph glyph-name="Tcaron" unicode="&#x164;" horiz-adv-x="627" 
d="M140 720h598l-54 -203h-5q-2 2 -14.5 28.5t-27.5 54.5t-41.5 51.5t-54.5 23.5h-37l-138 -517q-6 -23 -10 -51t-5 -47t-1.5 -37t-0.5 -19l-1 -4h-202l1 4l14 28q14 27 29 61.5t23 64.5l139 517h-38q-27 0 -66 -23.5t-70 -51.5t-57.5 -54.5t-30.5 -28.5h-4zM351 958
l135 -71l172 71l7 -12l-207 -161l-122 161z" />
    <glyph glyph-name="tcaron" unicode="&#x165;" horiz-adv-x="391" 
d="M47 151l83 309h-70l11 40q138 56 251 170l8 3l-45 -169h130l-12 -44h-130l-84 -309q-6 -20 -6 -34q0 -23 19 -23h2q22 0 54.5 25t63.5 68l10 -4q-31 -79 -87.5 -135.5t-117.5 -56.5q-55 0 -71.5 36t-16.5 67q0 26 8 57zM405 604q25 34 32 61h-3q-36 0 -50.5 20t-14.5 42
q0 13 4 27q10 37 37.5 59.5t58.5 22.5h3q36 0 49 -24.5t13 -49.5q0 -18 -5 -39q-13 -58 -57.5 -109t-103.5 -68h-32q43 23 69 58z" />
    <glyph glyph-name="Tbar" unicode="&#x166;" horiz-adv-x="627" 
d="M86 517l54 203h598l-54 -203h-5q-2 2 -14.5 28.5t-27.5 54.5t-41.5 51.5t-54.5 23.5h-37l-73 -272h131v-44h-142l-54 -201q-6 -23 -10 -51t-5 -47t-1.5 -37t-0.5 -19l-1 -4h-202l1 4l14 28q14 27 29 61.5t23 64.5l54 201h-163v44h175l73 272h-38q-27 0 -66 -23.5
t-70 -51.5t-57.5 -54.5t-30.5 -28.5h-4z" />
    <glyph glyph-name="tbar" unicode="&#x167;" horiz-adv-x="409" 
d="M36 353h65l29 107h-70l11 40q138 56 251 170l8 3l-45 -169h130l-12 -44h-130l-29 -107h110v-44h-122l-43 -158q-6 -20 -6 -34q0 -23 19 -23h2q22 0 54.5 25t63.5 68l10 -4q-31 -79 -87.5 -135.5t-117.5 -56.5q-55 0 -71.5 36t-16.5 67q0 26 8 57l42 158h-53v44z" />
    <glyph glyph-name="Umacron" unicode="&#x16a;" horiz-adv-x="670" 
d="M76 296l71 266q6 23 10 51t5 47t1.5 37t0.5 19l1 4h201l-1 -4q-1 -2 -10 -19.5t-18 -36.5t-20 -47t-17 -51l-74 -276q-17 -57 -17 -100q0 -16 6 -48.5t34.5 -56t74.5 -23.5q70 0 132.5 54.5t92.5 166.5l57 212q9 34 12 70t3 60q0 7 -0.5 24t-2 42t-1.5 28l2 5h142l-1 -5
q-1 -1 -17 -28t-31 -54t-33 -67.5t-27 -74.5l-58 -215q-39 -149 -120 -218.5t-190 -69.5q-52 0 -96 16t-80 52.5t-41 74t-5 56.5q0 48 14 109zM345 831l12 44h289l-12 -44h-289z" />
    <glyph glyph-name="umacron" unicode="&#x16b;" horiz-adv-x="626" 
d="M33 156l54 190q12 44 13.5 81.5t1.5 50.5q0 21 -2 22v4h175l-92 -322q-10 -34 -10 -56q0 -41 34 -41q41 0 92.5 63.5t87.5 174.5l49 181h143l-103 -380q-3 -10 -3 -16q0 -15 14 -15h2q31 4 80 62q8 9 15 18l10 -4q-31 -78 -82 -128t-108 -50q-52 0 -65.5 28t-13.5 54
q0 22 7 49l8 28q-99 -156 -207 -156q-60 0 -84.5 34t-24.5 72q0 25 9 56zM252 615l12 44h289l-12 -44h-289z" />
    <glyph glyph-name="Uring" unicode="&#x16e;" horiz-adv-x="670" 
d="M76 296l71 266q6 23 10 51t5 47t1.5 37t0.5 19l1 4h201l-1 -4q-1 -2 -10 -19.5t-18 -36.5t-20 -47t-17 -51l-74 -276q-17 -57 -17 -100q0 -16 6 -48.5t34.5 -56t74.5 -23.5q70 0 132.5 54.5t92.5 166.5l57 212q9 34 12 70t3 60q0 7 -0.5 24t-2 42t-1.5 28l2 5h142l-1 -5
q-1 -1 -17 -28t-31 -54t-33 -67.5t-27 -74.5l-58 -215q-39 -149 -120 -218.5t-190 -69.5q-52 0 -96 16t-80 52.5t-41 74t-5 56.5q0 48 14 109zM403 866q10 42 46.5 71t75.5 29q40 0 57 -24t17 -48q0 -13 -4 -28q-11 -41 -47 -70q-36 -30 -76 -30t-56.5 24.5t-16.5 47.5
q0 13 4 28zM451 826q11 -17 33 -17q21 0 41.5 17.5t25.5 39.5q3 9 3 17q0 13 -9 26.5t-31 13.5q-21 0 -41.5 -17.5t-25.5 -39.5q-3 -9 -3 -17q0 -13 7 -23z" />
    <glyph glyph-name="uring" unicode="&#x16f;" horiz-adv-x="626" 
d="M33 156l54 190q12 44 13.5 81.5t1.5 50.5q0 21 -2 22v4h175l-92 -322q-10 -34 -10 -56q0 -41 34 -41q41 0 92.5 63.5t87.5 174.5l49 181h143l-103 -380q-3 -10 -3 -16q0 -15 14 -15h2q31 4 80 62q8 9 15 18l10 -4q-31 -78 -82 -128t-108 -50q-52 0 -65.5 28t-13.5 54
q0 22 7 49l8 28q-99 -156 -207 -156q-60 0 -84.5 34t-24.5 72q0 25 9 56zM309 650q10 42 46.5 71t75.5 29q40 0 57 -24t17 -48q0 -13 -4 -28q-11 -41 -47 -70q-36 -30 -76 -30t-56.5 24.5t-16.5 47.5q0 13 4 28zM357 610q11 -17 33 -17q21 0 41.5 17.5t25.5 39.5q3 9 3 17
q0 13 -9 26.5t-31 13.5q-21 0 -41.5 -17.5t-25.5 -39.5q-3 -9 -3 -17q0 -13 7 -23z" />
    <glyph glyph-name="Uhungarumlaut" unicode="&#x170;" horiz-adv-x="670" 
d="M76 296l71 266q6 23 10 51t5 47t1.5 37t0.5 19l1 4h201l-1 -4q-1 -2 -10 -19.5t-18 -36.5t-20 -47t-17 -51l-74 -276q-17 -57 -17 -100q0 -16 6 -48.5t34.5 -56t74.5 -23.5q70 0 132.5 54.5t92.5 166.5l57 212q9 34 12 70t3 60q0 7 -0.5 24t-2 42t-1.5 28l2 5h142l-1 -5
q-1 -1 -17 -28t-31 -54t-33 -67.5t-27 -74.5l-58 -215q-39 -149 -120 -218.5t-190 -69.5q-52 0 -96 16t-80 52.5t-41 74t-5 56.5q0 48 14 109zM486 803l149 141l65 -70l-203 -86zM304 803l148 141l65 -70l-202 -86z" />
    <glyph glyph-name="uhungarumlaut" unicode="&#x171;" horiz-adv-x="626" 
d="M33 156l54 190q12 44 13.5 81.5t1.5 50.5q0 21 -2 22v4h175l-92 -322q-10 -34 -10 -56q0 -41 34 -41q41 0 92.5 63.5t87.5 174.5l49 181h143l-103 -380q-3 -10 -3 -16q0 -15 14 -15h2q31 4 80 62q8 9 15 18l10 -4q-31 -78 -82 -128t-108 -50q-52 0 -65.5 28t-13.5 54
q0 22 7 49l8 28q-99 -156 -207 -156q-60 0 -84.5 34t-24.5 72q0 25 9 56zM541 728l65 -70l-203 -86l-11 15zM358 728l65 -70l-202 -86l-11 15z" />
    <glyph glyph-name="Uogonek" unicode="&#x172;" horiz-adv-x="670" 
d="M76 296l71 266q6 23 10 51t5 47t1.5 37t0.5 19l1 4h201l-1 -4q-1 -2 -10 -19.5t-18 -36.5t-20 -47t-17 -51l-74 -276q-17 -57 -17 -100q0 -16 6 -48.5t34.5 -56t74.5 -23.5q70 0 132.5 54.5t92.5 166.5l57 212q9 34 12 70t3 60q0 7 -0.5 24t-2 42t-1.5 28l2 5h142l-1 -5
q-1 -1 -17 -28t-31 -54t-33 -67.5t-27 -74.5l-58 -215q-58 -217 -209 -271q-25 -18 -40 -44.5t-15 -49.5q0 -33 18 -38.5t27 -5.5q22 0 47 17v-30q-50 -36 -99 -36q-41 0 -64 22t-23 55q0 57 59 93h-11q-52 0 -96 16t-80 52.5t-41 74t-5 56.5q0 48 14 109z" />
    <glyph glyph-name="uogonek" unicode="&#x173;" horiz-adv-x="626" 
d="M33 156l54 190q12 44 13.5 81.5t1.5 50.5q0 21 -2 22v4h175l-92 -322q-10 -34 -10 -56q0 -41 34 -41q41 0 92.5 63.5t87.5 174.5l49 181h143l-103 -380q-3 -10 -3 -16q0 -15 14 -15h2q31 4 80 62q8 9 15 18l10 -4q-26 -65 -66 -111.5t-87 -60.5q-42 -39 -42 -83
q0 -33 18 -38.5t27 -5.5q22 0 47 17v-30q-50 -36 -99 -36q-41 0 -64 22t-23 55q0 62 67 98q-33 11 -40 36t-7 42q0 23 7 48l8 28q-99 -156 -207 -156q-60 0 -84.5 34t-24.5 72q0 25 9 56z" />
    <glyph glyph-name="Wcircumflex" unicode="&#x174;" horiz-adv-x="960" 
d="M138 716l1 4h222l-1 -4q-1 -1 -7 -14t-12 -28t-12.5 -34.5t-9.5 -39.5t-3 -36v-9l18 -369l190 337l-3 45q-5 71 -29 148l1 4h223l-2 -5q-43 -93 -43 -153v-10l19 -379l200 351q10 17 18 36t12.5 36.5t8 33t5 31t2 25t1 19.5t0.5 11l1 4h133l-1 -4q0 -1 -14 -18.5
t-27.5 -36t-32 -45.5t-31.5 -50l-323 -566h-88l-26 443l-249 -443h-78l-35 567q-6 77 -28 149zM657 945l122 -160l-14 -12l-134 70l-173 -70l-9 12z" />
    <glyph glyph-name="wcircumflex" unicode="&#x175;" horiz-adv-x="815" 
d="M34 159l53 187q12 44 13.5 81.5t1.5 50.5q0 21 -2 22v4h175l-91 -319q-7 -29 -7 -49q0 -16 7.5 -33.5t31.5 -17.5q39 0 88.5 66t84.5 181l4 14q16 56 16 114q0 20 -2 40v4h175l-93 -322q-10 -35 -10 -62q0 -15 6 -40t39 -25q64 0 118 88t54 204q0 12 -1 25q-2 51 -20 100
l161 39q0 -49 -34 -142q-48 -171 -146 -273t-205 -102q-62 0 -90.5 32.5t-28.5 74.5q0 18 4 38q-104 -145 -209 -145q-59 0 -81 34.5t-22 69.5q0 28 10 61zM327 567l204 159l120 -159l-14 -11l-131 69l-171 -69z" />
    <glyph glyph-name="Ycircumflex" unicode="&#x176;" horiz-adv-x="638" 
d="M139 720h230l-1 -4q0 -1 -6 -15.5t-10 -26t-10 -34t-6 -39t3 -40.5l47 -239l165 221q48 65 55 172l2 5h142l-1 -4q-2 -3 -23 -26t-48 -55t-46 -59l-227 -303l-31 -115q-7 -23 -10.5 -51t-4.5 -47t-1 -36v-20l-1 -4h-204l1 4q54 107 66 154l31 115l-70 304q-5 27 -15 58.5
t-18.5 54t-9.5 26.5zM513 945l122 -160l-14 -12l-134 70l-173 -70l-9 12z" />
    <glyph glyph-name="ycircumflex" unicode="&#x177;" horiz-adv-x="558" 
d="M-8 -22h3q40 -86 120 -86h10q28 1 56 14q1 39 1 77q0 182 -16 358q-5 70 -37 70q-29 0 -91 -74l-9 5q33 74 81.5 121t98.5 47q41 0 62.5 -35t29.5 -110q16 -140 16 -321v-21q49 66 80.5 151t35.5 164q1 15 1 30q0 61 -14 106l164 39q-15 -101 -59 -212.5t-105.5 -209
t-143 -170.5t-163.5 -95q-49 -15 -93 -15q-53 0 -101 21zM380 726l120 -159l-14 -11l-131 69l-171 -69l-8 11z" />
    <glyph glyph-name="Ydieresis" unicode="&#x178;" horiz-adv-x="638" 
d="M138 716l1 4h230l-1 -4q0 -1 -6 -15.5t-10 -26t-10 -34t-6 -39t3 -40.5l47 -239l165 221q48 65 55 172l2 5h142l-1 -4q-2 -3 -23 -26t-48 -55t-46 -59l-227 -303l-31 -115q-7 -23 -10.5 -51t-4.5 -47t-1 -36v-20l-1 -4h-204l1 4q54 107 66 154l31 115l-70 304
q-5 27 -15 58.5t-18.5 54t-9.5 26.5zM519 859q8 32 35.5 54.5t58.5 22.5t43.5 -18.5t12.5 -36.5q0 -10 -3 -22q-8 -32 -35 -54q-28 -23 -59 -23t-43.5 18.5t-12.5 37.5q0 10 3 21zM314 859q9 32 36.5 54.5t57.5 22.5q31 0 43.5 -18.5t12.5 -36.5q0 -10 -3 -22
q-8 -32 -35.5 -54.5t-58.5 -22.5q-30 0 -43 18.5t-13 37.5q0 10 3 21z" />
    <glyph glyph-name="Zacute" unicode="&#x179;" horiz-adv-x="589" 
d="M476 676h-128q-41 0 -92 -25.5t-91.5 -55t-41.5 -30.5h-5l41 155h536l-521 -676h131q41 0 92 25.5t92 55.5t42 31h5l-42 -156h-540zM320 804l213 174l91 -99l-288 -91z" />
    <glyph glyph-name="zacute" unicode="&#x17a;" horiz-adv-x="484" 
d="M-5 -9q14 47 47.5 91t78.5 83t90.5 73t97.5 74.5t85 74.5q-49 -25 -92 -26h-5q-25 0 -64.5 10.5t-60.5 11.5h-5q-64 0 -109 -54h-7l23 72q18 58 47.5 83.5t76.5 25.5q28 0 70.5 -9t68.5 -15t51 -6q17 0 51 3.5t83 26.5q-23 -60 -75.5 -117.5t-105.5 -96t-118 -88.5
t-99 -86q35 16 70 16h8q27 -1 69.5 -12t63.5 -11q59 0 96 47h6l-21 -71q-14 -48 -39 -74t-78 -26q-33 0 -84 13t-102 13t-118 -26zM207 588l213 174l91 -99l-288 -91z" />
    <glyph glyph-name="Zdotaccent" unicode="&#x17b;" horiz-adv-x="589" 
d="M476 676h-128q-41 0 -92 -25.5t-91.5 -55t-41.5 -30.5h-5l41 155h536l-521 -676h131q41 0 92 25.5t92 55.5t42 31h5l-42 -156h-540zM374 883q10 37 43.5 63.5t68.5 26.5q36 0 51.5 -22t15.5 -44q0 -11 -3 -24q-10 -38 -43 -64q-33 -27 -69 -27t-51.5 22t-15.5 44
q0 12 3 25z" />
    <glyph glyph-name="zdotaccent" unicode="&#x17c;" horiz-adv-x="484" 
d="M-5 -9q14 47 47.5 91t78.5 83t90.5 73t97.5 74.5t85 74.5q-49 -25 -92 -26h-5q-25 0 -64.5 10.5t-60.5 11.5h-5q-64 0 -109 -54h-7l23 72q18 58 47.5 83.5t76.5 25.5q28 0 70.5 -9t68.5 -15t51 -6q17 0 51 3.5t83 26.5q-23 -60 -75.5 -117.5t-105.5 -96t-118 -88.5
t-99 -86q35 16 70 16h8q27 -1 69.5 -12t63.5 -11q59 0 96 47h6l-21 -71q-14 -48 -39 -74t-78 -26q-33 0 -84 13t-102 13t-118 -26zM260 667q10 37 43.5 63.5t68.5 26.5q36 0 51.5 -22t15.5 -44q0 -11 -3 -24q-10 -38 -43 -64q-33 -27 -69 -27t-51.5 22t-15.5 44q0 12 3 25z
" />
    <glyph glyph-name="Zcaron" unicode="&#x17d;" horiz-adv-x="589" 
d="M476 676h-128q-41 0 -92 -25.5t-91.5 -55t-41.5 -30.5h-5l41 155h536l-521 -676h131q41 0 92 25.5t92 55.5t42 31h5l-42 -156h-540zM334 958l135 -71l172 71l7 -12l-207 -161l-122 161z" />
    <glyph glyph-name="zcaron" unicode="&#x17e;" horiz-adv-x="484" 
d="M-5 -9q14 47 47.5 91t78.5 83t90.5 73t97.5 74.5t85 74.5q-49 -25 -92 -26h-5q-25 0 -64.5 10.5t-60.5 11.5h-5q-64 0 -109 -54h-7l23 72q18 58 47.5 83.5t76.5 25.5q28 0 70.5 -9t68.5 -15t51 -6q17 0 51 3.5t83 26.5q-23 -60 -75.5 -117.5t-105.5 -96t-118 -88.5
t-99 -86q35 16 70 16h8q27 -1 69.5 -12t63.5 -11q59 0 96 47h6l-21 -71q-14 -48 -39 -74t-78 -26q-33 0 -84 13t-102 13t-118 -26zM221 738l134 -69l169 69l7 -11l-204 -159l-120 159z" />
    <glyph glyph-name="gravecomb" unicode="&#x300;" 
d="M-233 565l-264 91l118 99l166 -174z" />
    <glyph glyph-name="acutecomb" unicode="&#x301;" 
d="M-418 572l-16 16l213 174l91 -99z" />
    <glyph glyph-name="uni0302" unicode="&#x302;" 
d="M-478 557l-9 12l208 160l122 -160l-14 -12l-134 70z" />
    <glyph glyph-name="tildecomb" unicode="&#x303;" 
d="M-494 559q6 51 43.5 95t91.5 44q25 0 68 -16.5t69 -16.5q64 0 109 48q-22 -76 -60.5 -111t-83.5 -35q-27 0 -77.5 18t-71.5 18q-46 -2 -88 -44z" />
    <glyph glyph-name="uni0304" unicode="&#x304;" 
d="M-448 615l12 44h289l-12 -44h-289z" />
    <glyph glyph-name="uni0306" unicode="&#x306;" 
d="M-420 714h19q6 -34 39 -51t73 -17q39 0 81.5 17t66.5 51h19q-16 -63 -72 -106q-55 -43 -117 -43t-88 36t-26 73q0 19 5 40z" />
    <glyph glyph-name="uni0307" unicode="&#x307;" 
d="M-87 670q10 37 43.5 63.5t68.5 26.5q36 0 51.5 -22t15.5 -44q0 -11 -3 -24q-10 -38 -43 -64q-33 -27 -69 -27t-51.5 22t-15.5 44q0 12 3 25z" />
    <glyph glyph-name="uni0308" unicode="&#x308;" 
d="M-289 643q8 32 35.5 54.5t58.5 22.5t43.5 -18.5t12.5 -36.5q0 -10 -3 -22q-8 -32 -36 -54q-27 -23 -58 -23t-43.5 18.5t-12.5 37.5q0 10 3 21zM-494 643q9 32 36.5 54.5t57.5 22.5q31 0 43.5 -18.5t12.5 -36.5q0 -10 -3 -22q-8 -32 -35.5 -54.5t-58.5 -22.5
q-30 0 -43 18.5t-13 37.5q0 10 3 21z" />
    <glyph glyph-name="uni030A" unicode="&#x30a;" 
d="M-260 650q10 42 46.5 71t75.5 29q40 0 57 -24t17 -48q0 -13 -4 -28q-11 -41 -47 -70q-36 -30 -76 -30t-56.5 24.5t-16.5 47.5q0 13 4 28zM-212 610q11 -17 33 -17q21 0 41.5 17.5t25.5 39.5q3 9 3 17q0 13 -9 26.5t-31 13.5q-21 0 -41.5 -17.5t-25.5 -39.5q-3 -9 -3 -17
q0 -13 7 -23z" />
    <glyph glyph-name="uni030B" unicode="&#x30b;" 
d="M-484 572l-11 15l148 141l65 -70zM-302 572l-11 15l149 141l65 -70z" />
    <glyph glyph-name="uni030C" unicode="&#x30c;" 
d="M-372 742l135 -71l172 71l7 -12l-207 -161l-122 161z" />
    <glyph glyph-name="uni0312" unicode="&#x312;" 
d="M-135 667q13 57 57.5 108t103.5 69h32q-43 -23 -69 -57.5t-32 -62.5h5q34 0 48.5 -20t14.5 -42q0 -13 -4 -27q-10 -36 -38 -59t-61 -23q-36 1 -49 25.5t-13 49.5q0 18 5 39z" />
    <glyph glyph-name="uni0326" unicode="&#x326;" 
d="M-359 -318q41 22 66 55t32 60h-3q-36 0 -49.5 19.5t-13.5 40.5q0 12 4 26q10 35 37 57.5t58 22.5q35 -1 48 -24.5t13 -47.5q0 -17 -5 -38q-13 -56 -56 -105t-100 -66h-31z" />
    <glyph glyph-name="uni0327" unicode="&#x327;" 
d="M-388 -128q25 -20 48 -20q6 0 22 3t19 29v4q0 16 -16.5 29.5t-45.5 16.5l65 81h42l-52 -62q43 0 71.5 -20.5t28.5 -52.5v-6q-3 -31 -27.5 -48t-61.5 -17q-58 0 -96 29z" />
    <glyph glyph-name="uni0328" unicode="&#x328;" 
d="M-323 -3q43 35 107 39h17q-31 -15 -51.5 -45.5t-20.5 -58.5q0 -33 18 -38.5t27 -5.5q22 0 47 17v-30q-50 -36 -99 -36q-41 0 -64 22t-23 55q0 47 42 81z" />
    <glyph glyph-name="Wgrave" unicode="&#x1e80;" horiz-adv-x="960" 
d="M138 716l1 4h222l-1 -4q-1 -1 -7 -14t-12 -28t-12.5 -34.5t-9.5 -39.5t-3 -36v-9l18 -369l190 337l-3 45q-5 71 -29 148l1 4h223l-2 -5q-43 -93 -43 -153v-10l19 -379l200 351q10 17 18 36t12.5 36.5t8 33t5 31t2 25t1 19.5t0.5 11l1 4h133l-1 -4q0 -1 -14 -18.5
t-27.5 -36t-32 -45.5t-31.5 -50l-323 -566h-88l-26 443l-249 -443h-78l-35 567q-6 77 -28 149zM479 872l118 99l166 -174l-20 -16z" />
    <glyph glyph-name="wgrave" unicode="&#x1e81;" horiz-adv-x="815" 
d="M34 159l53 187q12 44 13.5 81.5t1.5 50.5q0 21 -2 22v4h175l-91 -319q-7 -29 -7 -49q0 -16 7.5 -33.5t31.5 -17.5q39 0 88.5 66t84.5 181l4 14q16 56 16 114q0 20 -2 40v4h175l-93 -322q-10 -35 -10 -62q0 -15 6 -40t39 -25q64 0 118 88t54 204q0 12 -1 25q-2 51 -20 100
l161 39q0 -49 -34 -142q-48 -171 -146 -273t-205 -102q-62 0 -90.5 32.5t-28.5 74.5q0 18 4 38q-104 -145 -209 -145q-59 0 -81 34.5t-22 69.5q0 28 10 61zM472 755l166 -174l-20 -16l-264 91z" />
    <glyph glyph-name="Wacute" unicode="&#x1e82;" horiz-adv-x="960" 
d="M138 716l1 4h222l-1 -4q-1 -1 -7 -14t-12 -28t-12.5 -34.5t-9.5 -39.5t-3 -36v-9l18 -369l190 337l-3 45q-5 71 -29 148l1 4h223l-2 -5q-43 -93 -43 -153v-10l19 -379l200 351q10 17 18 36t12.5 36.5t8 33t5 31t2 25t1 19.5t0.5 11l1 4h133l-1 -4q0 -1 -14 -18.5
t-27.5 -36t-32 -45.5t-31.5 -50l-323 -566h-88l-26 443l-249 -443h-78l-35 567q-6 77 -28 149zM494 804l213 174l91 -99l-288 -91z" />
    <glyph glyph-name="wacute" unicode="&#x1e83;" horiz-adv-x="815" 
d="M34 159l53 187q12 44 13.5 81.5t1.5 50.5q0 21 -2 22v4h175l-91 -319q-7 -29 -7 -49q0 -16 7.5 -33.5t31.5 -17.5q39 0 88.5 66t84.5 181l4 14q16 56 16 114q0 20 -2 40v4h175l-93 -322q-10 -35 -10 -62q0 -15 6 -40t39 -25q64 0 118 88t54 204q0 12 -1 25q-2 51 -20 100
l161 39q0 -49 -34 -142q-48 -171 -146 -273t-205 -102q-62 0 -90.5 32.5t-28.5 74.5q0 18 4 38q-104 -145 -209 -145q-59 0 -81 34.5t-22 69.5q0 28 10 61zM582 762l91 -99l-288 -91l-16 16z" />
    <glyph glyph-name="Wdieresis" unicode="&#x1e84;" horiz-adv-x="960" 
d="M139 720h222l-1 -4q-1 -1 -7 -14t-12 -28t-12.5 -34.5t-9.5 -39.5t-3 -36v-9l18 -369l190 337l-3 45q-5 71 -29 148l1 4h223l-2 -5q-43 -93 -43 -153v-10l19 -379l200 351q10 17 18 36t12.5 36.5t8 33t5 31t2 25t1 19.5t0.5 11l1 4h133l-1 -4q0 -1 -14 -18.5t-27.5 -36
t-32 -45.5t-31.5 -50l-323 -566h-88l-26 443l-249 -443h-78l-35 567q-6 77 -28 149zM663 859q8 32 35.5 54.5t58.5 22.5t43.5 -18.5t12.5 -36.5q0 -10 -3 -22q-8 -32 -35 -54q-28 -23 -59 -23t-43.5 18.5t-12.5 37.5q0 10 3 21zM458 859q9 32 36.5 54.5t57.5 22.5
q31 0 43.5 -18.5t12.5 -36.5q0 -10 -3 -22q-8 -32 -35.5 -54.5t-58.5 -22.5q-30 0 -43 18.5t-13 37.5q0 10 3 21z" />
    <glyph glyph-name="wdieresis" unicode="&#x1e85;" horiz-adv-x="815" 
d="M34 159l53 187q12 44 13.5 81.5t1.5 50.5q0 21 -2 22v4h175l-91 -319q-7 -29 -7 -49q0 -16 7.5 -33.5t31.5 -17.5q39 0 88.5 66t84.5 181l4 14q16 56 16 114q0 20 -2 40v4h175l-93 -322q-10 -35 -10 -62q0 -15 6 -40t39 -25q64 0 118 88t54 204q0 12 -1 25q-2 51 -20 100
l161 39q0 -49 -34 -142q-48 -171 -146 -273t-205 -102q-62 0 -90.5 32.5t-28.5 74.5q0 18 4 38q-104 -145 -209 -145q-59 0 -81 34.5t-22 69.5q0 28 10 61zM538 643q8 32 35.5 54.5t58.5 22.5t43.5 -18.5t12.5 -36.5q0 -10 -3 -22q-8 -32 -35 -54q-28 -23 -59 -23
t-43.5 18.5t-12.5 37.5q0 10 3 21zM333 643q9 32 36.5 54.5t57.5 22.5q31 0 43.5 -18.5t12.5 -36.5q0 -10 -3 -22q-8 -32 -35.5 -54.5t-58.5 -22.5q-30 0 -43 18.5t-13 37.5q0 10 3 21z" />
    <glyph glyph-name="Germandbls" unicode="&#x1e9e;" horiz-adv-x="696" 
d="M-40 0l1 4l14 28q14 27 29 61.5t23 64.5l102 379q55 203 285 203q70 0 154.5 -18t153.5 -52l-222 -267q77 -18 100.5 -68t23.5 -91q0 -27 -7 -55q-17 -64 -62.5 -113t-96 -69t-99.5 -20q-17 0 -61 5.5t-104 48.5l12 38q45 -24 85 -24q13 0 45.5 7t68 41t48.5 79
q5 19 5 36q0 44 -34 78t-98 34q-18 0 -37 -3l256 326q-47 47 -114 47q-114 0 -157 -170l-143 -530h-171z" />
    <glyph glyph-name="Ygrave" unicode="&#x1ef2;" horiz-adv-x="638" 
d="M139 720h230l-1 -4q0 -1 -6 -15.5t-10 -26t-10 -34t-6 -39t3 -40.5l47 -239l165 221q48 65 55 172l2 5h142l-1 -4q-2 -3 -23 -26t-48 -55t-46 -59l-227 -303l-31 -115q-7 -23 -10.5 -51t-4.5 -47t-1 -36v-20l-1 -4h-204l1 4q54 107 66 154l31 115l-70 304q-5 27 -15 58.5
t-18.5 54t-9.5 26.5zM453 971l166 -174l-20 -16l-264 91z" />
    <glyph glyph-name="ygrave" unicode="&#x1ef3;" horiz-adv-x="558" 
d="M-8 -22h3q40 -86 120 -86h10q28 1 56 14q1 39 1 77q0 182 -16 358q-5 70 -37 70q-29 0 -91 -74l-9 5q33 74 81.5 121t98.5 47q41 0 62.5 -35t29.5 -110q16 -140 16 -321v-21q49 66 80.5 151t35.5 164q1 15 1 30q0 61 -14 106l164 39q-15 -101 -59 -212.5t-105.5 -209
t-143 -170.5t-163.5 -95q-49 -15 -93 -15q-53 0 -101 21zM203 656l118 99l166 -174l-20 -16z" />
    <glyph glyph-name="endash" unicode="&#x2013;" horiz-adv-x="557" 
d="M55 280l9 44h454l-9 -44h-454z" />
    <glyph glyph-name="emdash" unicode="&#x2014;" horiz-adv-x="962" 
d="M55 280l9 44h860l-10 -44h-859z" />
    <glyph glyph-name="quoteleft" unicode="&#x2018;" horiz-adv-x="234" 
d="M160 441q2 31 4.5 96.5t5.5 112t8 70.5h129q-8 -24 -30 -70.5t-54.5 -112t-47.5 -96.5h-15z" />
    <glyph glyph-name="quoteright" unicode="&#x2019;" horiz-adv-x="236" 
d="M159 441q2 31 4.5 96.5t5.5 112t8 70.5h128q-8 -24 -30 -70.5t-54.5 -112t-47.5 -96.5h-14z" />
    <glyph glyph-name="quotesinglbase" unicode="&#x201a;" horiz-adv-x="256" 
d="M-37 -129q43 23 69 57.5t32 62.5q-39 -2 -56.5 23.5t-7.5 65.5q10 36 38 59t60 23q36 -1 53 -32.5t5 -81.5q-14 -57 -58.5 -108t-102.5 -69h-32z" />
    <glyph glyph-name="quotedblleft" unicode="&#x201c;" horiz-adv-x="412" 
d="M224 441q-5 27 -18 95.5t-20.5 114t-7.5 69.5h129q-2 -24 -13.5 -70.5t-29.5 -112t-26 -96.5h-14zM388 441q-5 27 -18 95.5t-20.5 114t-7.5 69.5h129q-2 -24 -13.5 -70.5t-29.5 -112t-26 -96.5h-14z" />
    <glyph glyph-name="quotedblright" unicode="&#x201d;" horiz-adv-x="450" 
d="M138 441q11 29 33.5 96t40 113t29.5 70h129q-15 -24 -51 -70t-90 -113t-77 -96h-14zM301 441q12 32 34.5 97t40 112t29.5 70h129q-15 -23 -52 -70.5t-88.5 -111.5t-77.5 -97h-15z" />
    <glyph glyph-name="quotedblbase" unicode="&#x201e;" horiz-adv-x="256" 
d="M98 162q36 -1 53 -32.5t5 -81.5q-14 -57 -58.5 -108t-102.5 -69h-32q43 23 69 57.5t32 62.5q-39 -2 -56.5 23.5t-7.5 65.5q10 36 38 59t60 23z" />
    <glyph glyph-name="dagger" unicode="&#x2020;" horiz-adv-x="422" 
d="M195 270l73 272h-136l11 42h137l36 136h42l-37 -136h136l-12 -42h-135l-73 -272h-42z" />
    <glyph glyph-name="daggerdbl" unicode="&#x2021;" horiz-adv-x="422" 
d="M195 270l35 134h-135l12 42h135l26 96h-136l11 42h136l37 136h41l-37 -136h137l-12 -42h-135l-26 -96h136l-12 -42h-135l-36 -134h-42z" />
    <glyph glyph-name="bullet" unicode="&#x2022;" horiz-adv-x="335" 
d="M161 226q-47 -1 -73 35.5t-13 86.5q14 50 59 86.5t92 35.5q49 -2 73.5 -37.5t11.5 -84.5q-13 -50 -57 -85t-93 -37z" />
    <glyph glyph-name="ellipsis" unicode="&#x2026;" horiz-adv-x="783" 
d="M56 -11q-32 1 -48 26t-7 62q9 36 37.5 61t60.5 24t48 -26t8 -62q-10 -37 -38.5 -61.5t-60.5 -23.5zM315 -11q-32 1 -48 26t-7 62q9 36 37.5 61t60.5 24t48 -26t7 -62t-37 -61.5t-61 -23.5zM588 -11q-32 1 -48 26t-8 62q10 37 38.5 61.5t60.5 23.5q31 -1 47 -26.5t8 -61.5
q-10 -37 -38 -61.5t-60 -23.5z" />
    <glyph glyph-name="perthousand" unicode="&#x2030;" horiz-adv-x="1091" 
d="M51 0l674 720h52l-674 -720h-52zM230 409q-54 0 -83 44.5t-12 111.5q18 67 71 111t107 44t84 -44t12 -111q-17 -66 -71.5 -111t-107.5 -45zM239 444q23 0 45.5 32.5t37.5 88.5t9.5 88t-27.5 32q-23 0 -45.5 -32.5t-37.5 -87.5q-15 -56 -9.5 -88.5t27.5 -32.5zM519 0
q-54 0 -83 44.5t-11 111.5q17 67 70.5 111t107.5 44q53 0 83.5 -44.5t13.5 -110.5q-18 -67 -72.5 -111.5t-108.5 -44.5zM848 0q-54 0 -83.5 44.5t-11.5 111.5t71.5 111t106.5 44q54 0 84.5 -44.5t12.5 -110.5q-18 -67 -72.5 -111.5t-107.5 -44.5zM529 35q23 0 45.5 32.5
t37.5 88.5t9.5 88t-28.5 32q-22 0 -44.5 -32.5t-37.5 -87.5q-15 -56 -10 -88.5t28 -32.5zM857 35q23 0 45.5 32t38.5 89q14 56 8.5 88t-27.5 32t-44.5 -32.5t-37.5 -87.5q-15 -56 -10.5 -88.5t27.5 -32.5z" />
    <glyph glyph-name="guilsinglleft" unicode="&#x2039;" horiz-adv-x="305" 
d="M159 72l-115 205l225 205h60l-225 -205l115 -205h-60z" />
    <glyph glyph-name="guilsinglright" unicode="&#x203a;" horiz-adv-x="308" 
d="M46 72h-60l225 205l-115 205h60l115 -205z" />
    <glyph glyph-name="fraction" unicode="&#x2044;" horiz-adv-x="253" 
d="M-231 -44l790 801h53l-790 -801h-53z" />
    <glyph glyph-name="Euro" unicode="&#x20ac;" horiz-adv-x="687" 
d="M339 -12q-121 0 -186 80t-51 214h-75l10 40h71q1 8 8 37q10 31 12 37h-71l11 40h75q58 134 167 214t233 80q89 0 216 -43l-48 -180l-6 -1q-13 36 -25.5 61.5t-32 55.5t-45 46t-55.5 16q-66 0 -131.5 -68t-108.5 -181h226l-10 -40h-230q-2 -5 -4 -11t-4 -13t-3 -12
q-6 -22 -9 -38h230l-11 -40h-226q-16 -112 14 -180.5t93 -68.5q90 0 253 181l6 -2l-48 -180q-155 -44 -245 -44z" />
    <glyph glyph-name="trademark" unicode="&#x2122;" horiz-adv-x="749" 
d="M177 371q21 40 43 124l53 198h-8q-39 0 -63 -12t-54 -42l22 81h282l-21 -81q-15 31 -33 42.5t-56 11.5h-6l-54 -198q-22 -82 -23 -124h-82zM388 371q28 50 58 161l17 64q22 81 19 124h93l17 -255l157 255h81q-21 -40 -43 -124l-27 -101q-21 -81 -24 -124h-83
q22 46 43 124l34 144l-165 -268h-33l-19 285q-8 -18 -20 -60l-17 -64q-32 -118 -29 -161h-59z" />
    <glyph glyph-name="oneeighth" unicode="&#x215b;" horiz-adv-x="762" 
d="M-36 -44l790 801h53l-790 -801h-53zM112 366v2q27 55 34 78l57 215h-60l4 14q98 27 157 67l-80 -296q-4 -15 -5.5 -33t-1.5 -31v-14v-2h-105zM555 -7q-54 0 -89 25.5t-24 67.5q9 30 37 52t61 29q-60 39 -44 95q12 43 56 73.5t103 30.5q50 0 80 -22.5t20 -61.5
q-15 -56 -87 -80q71 -40 54 -102q-14 -49 -62.5 -78t-104.5 -29zM644 215q37 24 47 58q8 31 -3.5 50.5t-40.5 19.5q-25 0 -45.5 -14.5t-27.5 -37.5q-6 -10 -1.5 -21t8 -17t16 -14t21.5 -12.5t26 -11.5zM560 17q28 0 50.5 16t28.5 40q12 44 -72 80l-5 2q-42 -24 -53 -63
q-9 -31 5 -53t46 -22z" />
    <glyph glyph-name="threeeighths" unicode="&#x215c;" horiz-adv-x="854" 
d="M56 -44l790 801h53l-790 -801h-53zM179 360q-52 0 -102 23l42 90q3 3 4 1q11 -45 25 -68t38 -23q23 0 41 18.5t26 49.5q8 34 -6.5 59.5t-49.5 35.5l2 6q40 10 67.5 34.5t36.5 58.5q8 26 0.5 46t-29.5 20q-39 0 -109 -88q-5 -3 -3 0l6 88q66 23 112 23q29 0 55 -7.5
t44 -29.5t9 -55q-11 -38 -47 -63.5t-84 -29.5q48 -3 71.5 -29t12.5 -65q-10 -34 -40.5 -57t-61 -30.5t-60.5 -7.5zM647 -7q-54 0 -89 25.5t-24 67.5q9 30 37 52t61 29q-60 39 -44 95q12 43 56 73.5t103 30.5q50 0 80 -22.5t20 -61.5q-15 -56 -87 -80q71 -40 54 -102
q-14 -49 -62.5 -78t-104.5 -29zM736 215q37 24 47 58q8 31 -3.5 50.5t-40.5 19.5q-25 0 -45.5 -14.5t-27.5 -37.5q-6 -10 -1.5 -21t8 -17t16 -14t21.5 -12.5t26 -11.5zM652 17q28 0 50.5 16t28.5 40q12 44 -72 80l-5 2q-42 -24 -53 -63q-9 -31 5 -53t46 -22z" />
    <glyph glyph-name="fiveeighths" unicode="&#x215d;" horiz-adv-x="854" 
d="M56 -44l790 801h53l-790 -801h-53zM175 360q-56 0 -98 28l31 86h3q10 -40 29 -65.5t41 -25.5t42 21t31 62q22 88 -45 91q-36 0 -85 -22l70 193h120q27 0 56 6t39 11l-40 -85h-176l-33 -91q51 25 95 25q57 0 78 -33.5t9 -82.5q-15 -55 -61 -86.5t-106 -31.5zM647 -7
q-54 0 -89 25.5t-24 67.5q9 30 37 52t61 29q-60 39 -44 95q12 43 56 73.5t103 30.5q50 0 80 -22.5t20 -61.5q-15 -56 -87 -80q71 -40 54 -102q-14 -49 -62.5 -78t-104.5 -29zM736 215q37 24 47 58q8 31 -3.5 50.5t-40.5 19.5q-25 0 -45.5 -14.5t-27.5 -37.5q-6 -10 -1.5 -21
t8 -17t16 -14t21.5 -12.5t26 -11.5zM652 17q28 0 50.5 16t28.5 40q12 44 -72 80l-5 2q-42 -24 -53 -63q-9 -31 5 -53t46 -22z" />
    <glyph glyph-name="seveneighths" unicode="&#x215e;" horiz-adv-x="860" 
d="M62 -44l790 801h53l-790 -801h-53zM106 366q10 22 101 131t141 162h-106q-47 0 -104 -27l56 96h233q-114 -141 -187 -286q-31 -67 -31 -76h-103zM653 -7q-54 0 -89 25.5t-24 67.5q9 30 37 52t61 29q-60 39 -44 95q12 43 56 73.5t103 30.5q50 0 80 -22.5t20 -61.5
q-15 -56 -87 -80q71 -40 54 -102q-14 -49 -62.5 -78t-104.5 -29zM742 215q37 24 47 58q8 31 -3.5 50.5t-40.5 19.5q-25 0 -45.5 -14.5t-27.5 -37.5q-6 -10 -1.5 -21t8 -17t16 -14t21.5 -12.5t26 -11.5zM658 17q28 0 50.5 16t28.5 40q12 44 -72 80l-5 2q-42 -24 -53 -63
q-9 -31 5 -53t46 -22z" />
    <glyph glyph-name="arrowleft" unicode="&#x2190;" horiz-adv-x="610" 
d="M247 84l-172 233l298 233l25 -36l-223 -174h400l-12 -46h-408l132 -178z" />
    <glyph glyph-name="arrowup" unicode="&#x2191;" horiz-adv-x="582" 
d="M220 73l109 408l-226 -179l-23 30l296 235l169 -235l-40 -30l-130 179l-109 -408h-46z" />
    <glyph glyph-name="arrowright" unicode="&#x2192;" horiz-adv-x="610" 
d="M272 81l-25 35l223 174h-401l12 46h408l-131 179l39 31l172 -233z" />
    <glyph glyph-name="arrowdown" unicode="&#x2193;" horiz-adv-x="582" 
d="M240 63l-170 235l40 31l130 -180l109 408h46l-109 -408l226 180l24 -31z" />
    <glyph glyph-name="arrowboth" unicode="&#x2194;" horiz-adv-x="895" 
d="M682 548l172 -233l-298 -232l-25 35l223 174h-600l132 -178l-40 -31l-171 232l297 233l25 -36l-223 -174h600l-132 179z" />
    <glyph glyph-name="arrowupdn" unicode="&#x2195;" horiz-adv-x="582" 
d="M323 239l-61 -228l227 179l24 -33l-295 -235l-172 238l40 30l130 -179l109 408h1l61 228l-227 -179l-26 33l296 235l172 -237l-39 -31l-130 179z" />
    <glyph glyph-name="uni2196" unicode="&#x2196;" horiz-adv-x="482" 
d="M358 127l-211 289l-66 -253h-45l87 330l330 -1l-12 -44h-253l212 -288z" />
    <glyph glyph-name="uni2197" unicode="&#x2197;" horiz-adv-x="482" 
d="M58 130l-24 33l366 288l-253 -1l11 44l331 2l-90 -331l-44 1l69 253z" />
    <glyph glyph-name="uni2198" unicode="&#x2198;" horiz-adv-x="482" 
d="M299 137l-234 11l89 34l107 92l-136 203l100 -66l165 -117l55 174l10 -95z" />
    <glyph glyph-name="uni2199" unicode="&#x2199;" horiz-adv-x="481" 
d="M121 134l-29 236l60 93l-38 -173l228 118l134 66l-244 -204l57 -92l71 -34z" />
    <glyph glyph-name="minus" unicode="&#x2212;" horiz-adv-x="551" 
d="M66 309l12 44h450l-12 -44h-450z" />
    <glyph glyph-name="notequal" unicode="&#x2260;" horiz-adv-x="542" 
d="M94 156l72 71h-119l12 45h151l118 117h-238l12 45h270l71 70h47l-71 -70h118l-12 -45h-151l-117 -117h237l-12 -45h-269l-72 -71h-47z" />
    <glyph glyph-name="lessequal" unicode="&#x2264;" horiz-adv-x="476" 
d="M386 129l-297 221l8 34l417 221l-14 -52l-350 -186l251 -186zM-2 47l12 45h369l-13 -45h-368z" />
    <glyph glyph-name="greaterequal" unicode="&#x2265;" horiz-adv-x="481" 
d="M22 129l14 52l350 186l-250 186l14 52l298 -221l-10 -34zM3 47l12 45h368l-12 -45h-368z" />
    <glyph glyph-name="lozenge" unicode="&#x25ca;" horiz-adv-x="574" 
d="M256 0l-170 320l221 320h26l170 -320l-221 -320h-26zM272 63l179 257l-134 257l-179 -257z" />
    <glyph glyph-name="g.ss01" horiz-adv-x="496" 
d="M-28 37q24 87 139 118q-44 23 -59.5 55.5t-15.5 61.5q0 23 7 49q24 89 105 139t166 50q61 0 107 -25q64 93 148 93q11 0 22 -2l-45 -116h-2q-27 18 -59 18q-20 0 -43 -7q50 -39 50 -101q0 -23 -7 -49q-24 -89 -106.5 -139t-166.5 -50q-34 0 -66 9q-59 -22 -66 -46v-3
q0 -7 8 -13t28 -8.5t41.5 -3.5t53.5 -1h64q89 0 113 -29t24 -61q0 -16 -5 -34q-18 -67 -75.5 -102.5t-131.5 -35.5h-8l5 19q44 2 78 22.5t41 49.5q2 7 2 12q0 19 -24.5 26.5t-91.5 7.5h-72q-44 0 -74 4t-53 14t-29 24.5t-6 26.5q0 13 4 27zM175 217q8 -45 48 -45t71.5 42.5
t48.5 106.5q12 39 12 71q0 17 -6.5 47t-45.5 30q-40 0 -71 -42t-48 -106q-12 -39 -12 -72q0 -17 3 -32z" />
    <glyph glyph-name="E_L" horiz-adv-x="944" 
d="M-27 4q51 102 64 154l103 404q6 23 9.5 51t4.5 47t1 37v19l1 4h492l-44 -174h-5q-1 1 -24 35.5t-57.5 65.5t-71.5 31h-128l-75 -292h53q28 0 63 7.5t59.5 16t48 17t25.5 9.5h5l-35 -134h-3l-29 14q-30 14 -68.5 25t-74.5 11h-52l-80 -310h132q36 0 86.5 31t91 66t42.5 36
h5l-44 -175h-496zM600 270q11 22 20.5 46t14.5 45l64 247q7 26 9 67t2 43v2h141l-1 -2q0 -1 -10 -21t-20 -44t-15 -45l-82 -321h78q24 0 53 17t55 40l26 22h2l-31 -119h-317z" />
    <glyph glyph-name="L_A" horiz-adv-x="822" 
d="M-17 4q51 102 64 154l104 404q6 23 9 51t4 47t1 37v19l1 4h197l-1 -4q-1 -2 -9.5 -19.5t-18 -36.5t-20 -47t-16.5 -51l-132 -520h105q37 0 88 34t93.5 73.5t43.5 40.5h5l-49 -190h-470zM342 255q51 69 88 131l148 249q9 16 12.5 34.5t3.5 28.5q0 2 -0.5 8t-2.5 11l1 3
h136l38 -362q6 -69 21 -103l-1 -3h-164l1 3q26 57 26 101v12l-4 42h-163l-11 -19q-31 -55 -31 -136l-1 -3h-98zM641 447l-19 196l-118 -196h137z" />
    <glyph glyph-name="L_E" horiz-adv-x="751" 
d="M-13 4q51 102 64 154l104 404q6 23 9 51t4 47t1 37v19l1 4h197l-1 -4q-1 -2 -9.5 -19.5t-17.5 -36.5t-20 -47t-17 -51l-132 -520h106q36 0 87.5 34.5t93.5 73.5t44 40h4l-49 -190h-470zM374 250q31 62 41 103l67 261q5 20 7.5 42.5t2.5 41.5l1 20v2h326l-29 -115h-3
q-2 1 -17 21t-37 37.5t-45 17.5h-82l-44 -174h37q18 0 39 4t35.5 8.5t29 9.5t15.5 5h3l-23 -90h-3q-1 0 -13 5.5t-24 10t-31.5 8.5t-37.5 4h-36l-48 -186h84q24 0 55.5 18.5t56.5 39t27 21.5h3l-28 -117h-329v2z" />
    <glyph glyph-name="N_o" horiz-adv-x="1258" 
d="M941 175q-105 0 -155.5 76.5t-18.5 198.5t122 198.5t194 76.5q105 0 156 -76.5t19 -198.5t-122.5 -198.5t-194.5 -76.5zM-11 5l1 6q1 1 12 19t22.5 38.5t25.5 47.5t26.5 57.5t19.5 58.5l86 327q5 19 6.5 40t1 39.5t-2 32.5t-3.5 26.5t-2 13.5l1 4h178l205 -512l74 286
q9 34 12 74t2 67t-3.5 52.5t-2.5 27.5l2 5h142l-1 -5q-1 -3 -16 -28t-30.5 -52.5t-33 -67t-26.5 -73.5l-126 -484h-93l-233 579l-92 -352q-9 -34 -12 -74t-1.5 -67t3.5 -53t2 -27l-2 -6h-142zM949 207q55 0 107 77t75 167q11 41 14 83t-2 77.5t-23 58t-46 22.5
q-54 0 -105.5 -76.5t-75.5 -166.5q-15 -56 -16 -110t17 -93t55 -39zM895 -1q-19 0 -29.5 14.5t-5.5 34.5q5 19 23 33.5t37 14.5t30 -14.5t5 -33.5q-4 -20 -22.5 -34.5t-37.5 -14.5z" />
    <glyph glyph-name="t_i" horiz-adv-x="704" 
d="M656 758q35 0 54 -26.5t9 -64.5t-43 -64.5t-69 -26.5q-35 0 -54 26.5t-9 64.5t43 64.5t69 26.5zM562 134q-12 -43 11 -40q31 4 82 65l13 17l10 -5q-31 -78 -81 -128t-107 -50q-53 0 -70 41.5t3 108.5l57 204q16 54 16 113h-220l-84 -309q-17 -59 16 -57q21 0 53.5 25
t63.5 68l10 -4q-31 -79 -87.5 -135.5t-117.5 -56.5q-55 0 -76.5 46.5t-2.5 113.5l82 309h-70l11 40q138 56 251 170l8 3l-45 -169h377z" />
    <glyph glyph-name="t_t" horiz-adv-x="753" 
d="M653 460l-84 -309q-17 -59 15 -57q22 0 54.5 25t63.5 68l10 -4q-32 -79 -88.5 -135.5t-116.5 -56.5q-56 0 -77.5 46.5t-2.5 113.5l83 309h-234l-84 -309q-17 -59 16 -57q21 0 53.5 25t63.5 68l10 -4q-31 -79 -87.5 -135.5t-117.5 -56.5q-55 0 -76.5 46.5t-2.5 113.5
l82 309h-70l11 40q138 56 251 170l8 3l-45 -169h173q131 55 240 166l9 3l-46 -169h131l-12 -44h-130z" />
    <glyph glyph-name="t_u" horiz-adv-x="1014" 
d="M972 173l10 -4q-31 -78 -82.5 -128t-108.5 -50q-52 0 -69.5 36.5t-1.5 94.5l8 30q-97 -158 -207 -158q-60 0 -90.5 43t-9.5 119l54 190q14 52 14 114h-213l-84 -309q-17 -59 16 -57q21 0 53.5 25t63.5 68l10 -4q-31 -79 -87.5 -135.5t-117.5 -56.5q-55 0 -76.5 46.5
t-2.5 113.5l82 309h-70l11 40q138 56 251 170l8 3l-45 -169h375l-93 -322q-27 -97 25 -97q41 0 92.5 64t87.5 174l49 181h142l-103 -380q-8 -33 14 -31q32 5 83 65z" />
    <glyph glyph-name="t_w" horiz-adv-x="1163" 
d="M1022 472l162 39q0 -49 -34 -142q-48 -171 -146 -273t-205 -102q-62 0 -95.5 38t-19.5 106q-105 -144 -209 -144q-59 0 -87 44.5t-6 120.5l53 187q15 56 15 114h-174l-84 -309q-17 -59 16 -57q21 0 53.5 25t63.5 68l10 -4q-31 -79 -87.5 -135.5t-117.5 -56.5
q-55 0 -76.5 46.5t-2.5 113.5l82 309h-70l11 40q138 56 251 170l8 3l-45 -169h335l-92 -319q-12 -52 -1.5 -76t34.5 -24q40 0 89.5 67.5t85.5 185.5l2 8q21 74 14 154v4h175l-93 -322q-17 -54 -8 -90.5t43 -36.5q63 0 119.5 92.5t51.5 224.5q-2 55 -21 100z" />
    <glyph glyph-name="zero.dnom" horiz-adv-x="344" 
d="M123 -5q-64 0 -92.5 52t-6.5 135q22 80 77.5 131.5t119.5 51.5t93 -51.5t7 -131.5q-21 -82 -77.5 -134.5t-120.5 -52.5zM129 20q60 0 104 162q42 158 -18 158t-103 -159q-43 -161 17 -161z" />
    <glyph glyph-name="one.dnom" horiz-adv-x="195" 
d="M14 -1v2q27 53 33 78l58 215h-60l4 14q97 27 157 66l-80 -295q-4 -15 -5.5 -33t-1.5 -31v-14v-2h-105z" />
    <glyph glyph-name="two.dnom" horiz-adv-x="293" 
d="M-32 0q149 147 187 194q49 60 60 100q6 16 0.5 32t-25.5 16q-46 0 -120 -92q-3 -3 -3 1l6 87q76 28 125 28q50 0 78 -23t17 -66q-17 -62 -125 -136l-109 -80h74q63 0 107 31q2 1 2.5 0.5t-0.5 -2.5l-38 -90h-236z" />
    <glyph glyph-name="three.dnom" horiz-adv-x="287" 
d="M81 -7q-52 0 -102 23l42 90q2 4 4 1q11 -45 25 -68.5t38 -23.5q23 0 41 19t26 50q8 34 -6.5 59.5t-49.5 35.5l2 6q85 21 104 93q8 26 0.5 46t-29.5 20q-39 0 -109 -88q-5 -3 -3 0l6 88q66 23 112 23q29 0 55 -7.5t44 -29.5t9 -55q-11 -38 -47 -63.5t-84 -29.5
q48 -3 71 -29.5t12 -64.5q-9 -34 -39.5 -57t-61 -30.5t-60.5 -7.5z" />
    <glyph glyph-name="four.dnom" horiz-adv-x="310" 
d="M105 -1q29 59 36 85h-155l240 277h69l-68 -253h50l-7 -24h-49q-10 -39 -10 -85h-106zM34 108h114l51 188z" />
    <glyph glyph-name="five.dnom" horiz-adv-x="287" 
d="M77 -7q-56 0 -98 28l31 86h3q10 -40 29 -65.5t41 -25.5t42 21t31 62q22 88 -45 91q-36 0 -85 -22l70 193h120q27 0 56 6t39 11l-40 -85h-176l-33 -91q51 25 95 25q57 0 78 -33.5t9 -82.5q-15 -55 -61 -86.5t-106 -31.5z" />
    <glyph glyph-name="six.dnom" horiz-adv-x="324" 
d="M117 -7q-64 0 -89 53.5t-3 135.5q22 81 74 132.5t118 51.5q50 0 108 -25l-36 -86q0 -2 -1 -2t-2 1q-32 90 -74 90q-56 0 -97 -154q43 35 93 35q48 0 69 -32t9 -77q-15 -53 -63.5 -88t-105.5 -35zM124 16q23 0 43 23t30 59q11 34 3 64t-36 30q-25 0 -55 -27
q-34 -149 15 -149z" />
    <glyph glyph-name="seven.dnom" horiz-adv-x="293" 
d="M8 -1q10 22 101 131t141 162h-106q-47 0 -104 -27l56 96h233q-114 -141 -187 -286q-31 -67 -31 -76h-103z" />
    <glyph glyph-name="eight.dnom" horiz-adv-x="314" 
d="M107 -7q-54 0 -89 25.5t-24 67.5q9 30 37 52t61 29q-60 39 -44 95q12 43 56 73.5t103 30.5q50 0 80 -22.5t20 -61.5q-15 -56 -87 -80q71 -40 54 -102q-14 -49 -62.5 -78t-104.5 -29zM196 215q37 24 47 58q8 31 -3.5 50.5t-40.5 19.5q-25 0 -45.5 -14.5t-27.5 -37.5
q-6 -10 -1.5 -21t8 -17t16 -14t21.5 -12.5t26 -11.5zM112 17q28 0 50.5 16t28.5 40q12 44 -72 80l-5 2q-42 -24 -53 -63q-9 -31 5 -53t46 -22z" />
    <glyph glyph-name="nine.dnom" horiz-adv-x="325" 
d="M108 -7q-51 0 -107 26l36 85q2 2 3 2q32 -90 75 -90q54 0 96 154q-44 -36 -94 -36q-49 0 -69 32t-8 78q14 53 62.5 87.5t105.5 34.5q64 0 89.5 -53t3.5 -135q-21 -81 -74 -133t-119 -52zM162 168q27 0 54 27q34 149 -14 149q-23 0 -43 -23t-30 -58q-11 -35 -3 -65t36 -30
z" />
    <glyph glyph-name="zero.numr" horiz-adv-x="344" 
d="M221 362q-64 0 -92.5 52t-6.5 135q22 80 77.5 131.5t119.5 51.5t93 -51.5t7 -131.5q-21 -82 -77.5 -134.5t-120.5 -52.5zM227 387q60 0 104 162q42 158 -18 158t-103 -159q-43 -161 17 -161z" />
    <glyph glyph-name="one.numr" horiz-adv-x="195" 
d="M112 366v2q27 55 34 78l57 215h-60l4 14q98 27 157 67l-80 -296q-4 -15 -5.5 -33t-1.5 -31v-14v-2h-105z" />
    <glyph glyph-name="two.numr" horiz-adv-x="293" 
d="M66 367q149 147 187 194q49 60 60 100q6 16 0.5 32t-25.5 16q-46 0 -120 -92q-3 -3 -3 1l6 87q76 28 125 28q50 0 78 -23t17 -66q-17 -62 -125 -136l-109 -80h74q63 0 107 31q2 1 2.5 0.5t-0.5 -2.5l-38 -90h-236z" />
    <glyph glyph-name="three.numr" horiz-adv-x="287" 
d="M179 360q-52 0 -102 23l42 90q3 3 4 1q11 -45 25 -68t38 -23q23 0 41 18.5t26 49.5q8 34 -6.5 59.5t-49.5 35.5l2 6q40 10 67.5 34.5t36.5 58.5q8 26 0.5 46t-29.5 20q-39 0 -109 -88q-5 -3 -3 0l6 88q66 23 112 23q29 0 55 -7.5t44 -29.5t9 -55q-11 -38 -47 -63.5
t-84 -29.5q48 -3 71.5 -29t12.5 -65q-10 -34 -40.5 -57t-61 -30.5t-60.5 -7.5z" />
    <glyph glyph-name="four.numr" horiz-adv-x="310" 
d="M203 366q29 59 36 85h-155l240 277h69l-68 -253h50l-7 -24h-49q-10 -39 -10 -85h-106zM132 475h114l51 188z" />
    <glyph glyph-name="five.numr" horiz-adv-x="287" 
d="M175 360q-56 0 -98 28l31 86h3q10 -40 29 -65.5t41 -25.5t42 21t31 62q22 88 -45 91q-36 0 -85 -22l70 193h120q27 0 56 6t39 11l-40 -85h-176l-33 -91q51 25 95 25q57 0 78 -33.5t9 -82.5q-15 -55 -61 -86.5t-106 -31.5z" />
    <glyph glyph-name="six.numr" horiz-adv-x="324" 
d="M215 360q-64 0 -89 53.5t-3 135.5q22 81 74 132.5t118 51.5q50 0 108 -25l-36 -86q0 -2 -1 -2t-2 1q-32 90 -74 90q-56 0 -97 -154q43 35 93 35q48 0 69 -32t9 -77q-15 -53 -63.5 -88t-105.5 -35zM222 383q23 0 43 23t30 59q11 34 3 64t-36 30q-25 0 -55 -27
q-34 -149 15 -149z" />
    <glyph glyph-name="seven.numr" horiz-adv-x="293" 
d="M106 366q10 22 101 131t141 162h-106q-47 0 -104 -27l56 96h233q-114 -141 -187 -286q-31 -67 -31 -76h-103z" />
    <glyph glyph-name="eight.numr" horiz-adv-x="314" 
d="M205 360q-54 0 -89 25.5t-24 67.5q9 30 37 52t61 29q-60 39 -44 95q12 43 56 73.5t103 30.5q50 0 80 -22.5t20 -61.5q-8 -29 -32.5 -49.5t-54.5 -29.5q71 -41 54 -103q-14 -49 -62.5 -78t-104.5 -29zM294 582q37 24 47 58q8 31 -3.5 50.5t-40.5 19.5q-25 0 -45.5 -14.5
t-27.5 -37.5q-6 -10 -1.5 -21t8 -17t16 -14t21.5 -12.5t26 -11.5zM210 384q28 0 50.5 16t28.5 40q12 44 -72 80l-5 2q-42 -24 -53 -63q-9 -31 5 -53t46 -22z" />
    <glyph glyph-name="nine.numr" horiz-adv-x="325" 
d="M206 360q-51 0 -107 26l36 85q2 2 3 2q32 -90 75 -90q54 0 96 154q-44 -36 -94 -36q-49 0 -69 32t-8 78q14 53 62.5 87.5t105.5 34.5q64 0 89.5 -53t3.5 -135q-21 -81 -74 -133t-119 -52zM260 535q27 0 54 27q34 149 -14 149q-23 0 -43 -23t-30 -58q-11 -34 -3 -64.5
t36 -30.5z" />
    <glyph glyph-name="parenleft.case" horiz-adv-x="312" 
d="M198 -96q-74 48 -116 174t1 284q42 159 151 283t210 173l4 -8q-88 -75 -150 -202t-94 -246q-19 -71 -30 -145.5t-5 -163t39 -140.5z" />
    <glyph glyph-name="parenright.case" horiz-adv-x="303" 
d="M-73 -99l-6 9q86 75 147.5 202t94.5 247q13 52 22.5 106.5t14 119t-4.5 123.5t-33 99l10 8q71 -49 110 -173t-3 -283q-22 -83 -65.5 -161t-94 -135.5t-100 -99t-92.5 -62.5z" />
    <glyph glyph-name="braceleft.case" horiz-adv-x="310" 
d="M131 -83q-63 0 -96 33.5t-18 87.5q8 29 52 107.5t55 119.5q20 75 -47 86l5 20q73 10 94 89q11 40 8.5 117.5t5.5 106.5q15 54 65.5 87.5t113.5 33.5q56 0 76 -1l-5 -19q-51 0 -89.5 -23t-49.5 -63q-8 -31 1.5 -106.5t0.5 -110.5q-12 -47 -55 -77t-98 -44q48 -14 74.5 -44
t13.5 -77q-8 -32 -59.5 -109t-59.5 -108q-11 -40 16 -63t77 -23l-5 -19q-12 0 -37.5 -0.5t-38.5 -0.5z" />
    <glyph glyph-name="braceright.case" horiz-adv-x="313" 
d="M-3 -84q-13 0 -38 0.5t-37 0.5l5 19q50 0 89 23t50 63q8 32 -2 109t-1 108q12 47 55.5 77.5t97.5 43.5q-47 14 -73.5 44.5t-14.5 77.5q9 34 60 109.5t59 106.5q10 40 -16 63t-77 23l5 19q21 1 77 1q63 0 95.5 -33.5t18.5 -87.5q-8 -29 -52 -106t-55 -118q-21 -79 47 -89
l-6 -20q-73 -10 -93 -86q-11 -41 -9 -119t-5 -108q-15 -54 -66 -87.5t-114 -33.5z" />
    <glyph glyph-name="bracketleft.case" horiz-adv-x="297" 
d="M-38 -90l238 888h229l-3 -14q-38 -9 -52.5 -12t-35 -12.5t-25.5 -15t-15.5 -23.5t-15 -34.5t-14.5 -51.5l-150 -562q-10 -35 -14 -51.5t-3.5 -34.5t3 -24.5t17 -15t28.5 -12l46 -11.5l-4 -14h-229z" />
    <glyph glyph-name="bracketright.case" horiz-adv-x="295" 
d="M150 -90h-228l4 14q36 8 51.5 11.5t34.5 12.5t25 14.5t16 24t14.5 34.5t14.5 52l150 562q7 27 11 40.5t5.5 30t2.5 23t-5 16t-10 12t-19 9t-25.5 9t-35.5 9.5l4 14h228z" />
    <glyph glyph-name="space.001" horiz-adv-x="235" 
 />
    <glyph glyph-name="newGlyph" horiz-adv-x="599" 
 />
    <glyph glyph-name="newGlyph.001" horiz-adv-x="599" 
 />
    <glyph glyph-name="bdpq" horiz-adv-x="618" 
d="M377 -6q-57 0 -103.5 32.5t-63.5 91.5v16q47 -57 102 -57t82.5 48t27.5 125q0 80 -25.5 134.5t-82.5 54.5q-51 0 -108 -59v15q29 62 75.5 90.5t96.5 28.5q83 0 142.5 -68.5t59.5 -193.5q0 -124 -59 -191t-144 -67z" />
    <glyph glyph-name="newGlyph.002" horiz-adv-x="599" 
 />
    <glyph glyph-name="newGlyph.003" horiz-adv-x="599" 
 />
    <glyph glyph-name="newGlyph.004" horiz-adv-x="599" 
 />
    <glyph glyph-name="newGlyph.005" horiz-adv-x="599" 
 />
    </font>
</defs>
</svg>
