<svg width="813" height="304" viewBox="0 0 813 304" fill="none" xmlns="http://www.w3.org/2000/svg">
<path d="M811.6 302.2L1 302.1" stroke="#020203" stroke-width="1.9086" stroke-miterlimit="10" stroke-linecap="round" stroke-linejoin="round"/>
<path d="M468.8 44.9998C468.3 45.5998 468.301 46.5998 468.601 47.2998C469.001 48.1998 469.801 48.7998 470.601 49.2998C472.401 50.1998 474.401 50.2998 476.401 50.2998C480.201 50.3998 483.901 50.4997 487.701 50.5997C488.101 50.5997 488.701 50.5997 488.901 50.1997C489.101 49.5997 488.401 49.0998 487.701 48.9998C486.301 48.5998 484.801 48.1998 483.401 47.7998C478.601 46.3998 473.8 45.0998 468.8 44.9998ZM433.001 47.9998L433.101 48.2998C433.301 48.9998 433.501 49.6998 433.801 50.2998C433.901 50.5998 434.101 50.9997 434.501 51.0997C434.701 51.0997 434.901 50.9998 435.101 50.8998C438.601 49.0998 442.801 51.7997 446.601 51.0997C448.901 50.6997 450.801 49.0998 452.401 47.4998C452.801 47.0998 453.3 46.3998 453 45.8998C452.901 45.6998 452.601 45.4998 452.401 45.2998C452.001 45.0998 451.601 44.7997 451.201 44.5997C451.001 44.4997 450.801 44.3998 450.501 44.2998C450.201 44.2998 449.901 44.3997 449.601 44.5997C447.701 45.4997 445.601 45.8998 443.501 46.2998C440.301 46.9998 436.301 47.4998 433.001 47.9998ZM486.001 111.8C485.101 112.9 484.201 113.9 483.201 114.8C475.701 122 464.601 125 454.5 123C444.3 121 435.301 114.2 430.401 105.1C428.801 102.1 427.501 98.9998 426.501 95.7998C426.301 95.1998 426.101 94.4998 425.901 93.8998C425.401 92.2998 424.901 90.6997 424.501 89.0997C422.701 82.8997 421.301 76.6998 419.901 70.3998C419.801 69.7998 419.701 69.2997 419.501 68.6997C419.301 65.8997 420.901 63.4998 421.901 60.4998C423.101 56.8998 424.701 53.3997 425.601 49.5997C426.701 44.5997 426.401 39.4998 427.101 34.4998C427.501 31.7998 428.301 28.9997 430.301 27.0997C432.401 25.0997 435.401 23.5998 437.301 21.2998C443.401 26.2998 449.5 31.2998 455.5 36.2998C456.6 37.1998 457.801 38.0997 459.201 38.0997C460.601 38.0997 462.1 36.6998 461.5 35.4998C461.3 35.0998 460.901 34.6998 460.601 34.3998C458.401 32.3998 456.201 30.4998 454 28.4998C465 30.7998 475.901 33.1998 486.901 35.4998C487.701 31.6998 488.5 27.7998 489.3 23.9998C493.4 26.9998 495.9 31.9997 495.8 37.0997C495.7 40.9997 494.301 44.6997 494.401 48.5997C494.501 52.1997 496.001 55.5998 497.101 58.9998C498.901 64.5998 500.301 70.4998 500.101 76.2998C498.901 80.0998 497.9 84.0998 496.8 87.8998C496.3 89.7998 495.701 91.6997 495.101 93.6997C493.201 99.6997 490.701 105.7 486.901 110.8C486.601 111.1 486.301 111.5 486.001 111.8Z" fill="white"/>
<path d="M486.8 110.8C490.6 105.8 493.1 99.7998 495 93.6998C510 93.5998 526.4 94.7998 541.3 94.5998C546.4 94.5998 551.9 94.5998 556.2 97.5998C563.7 102.8 563.9 114.1 563.8 123.6C563.6 143.4 561 156 560 174.2L559.5 174.8C543.7 158.8 518.8 144.5 499 142.7V142.5C495.9 140.5 491.5 134.9 490.3 131.4C488.4 126.1 487.1 120.7 486.4 115.1C486.7 113.6 486.8 112.2 486.8 110.8Z" fill="white"/>
<path d="M486.8 110.8C486.8 112.2 486.701 113.6 486.401 115.1C486.201 114 486.1 112.9 486 111.8C486.3 111.5 486.6 111.1 486.8 110.8Z" fill="black"/>
<path d="M499.1 142.7C494.7 142.3 490.6 142.5 486.9 143.5C482.2 144.7 472.9 150.4 468.5 152.4C455.4 158.5 447 151.3 437.3 148.1C431.4 146.1 425.9 145.3 420.4 145.5V145.2C431 138.6 437.9 123.8 434.2 111.9C435.8 114.8 437.5 117.6 439.8 120.3C443.1 124.1 446.8 127.8 451.2 130.3C455.6 132.8 460.9 134.1 465.8 133.1C470.6 132.1 475.7 129.6 479.7 126.6C483.6 123.7 485.7 119.3 486.5 115.1C487.2 120.7 488.5 126.1 490.4 131.4C491.6 134.9 496 140.5 499.1 142.5V142.7Z" fill="white"/>
<path d="M355.5 193.4C355.8 192.9 356 192.5 356.3 192C362.9 180.2 391.1 154.7 402.9 149.7C408.9 147.1 414.6 145.7 420.4 145.5C425.9 145.3 431.4 146.2 437.3 148.1C447 151.3 455.4 158.5 468.5 152.4C472.9 150.3 482.2 144.7 486.9 143.5C490.6 142.6 494.8 142.3 499.1 142.7C518.9 144.5 543.8 158.8 559.6 174.8C564.4 179.7 568.5 184.8 571.2 189.7C578.1 202.2 580.9 212 587.1 224.2C590.9 231.8 594.8 239.5 596.2 247.9C597.6 256.3 596.2 265.6 590.4 271.8C583.4 279.5 575.5 286.1 567.1 292.5L566.6 292.4C567.6 285 566.8 274.5 566.4 269.6C564.6 243.5 567.1 227.3 563.9 201.7C563.4 197.9 562.8 194 560.6 191C556.8 185.8 549.6 184.3 543.2 184.1C488.9 181.7 433.9 183.5 379.5 184.5C365 184.6 363.5 203.6 363.2 215.7C362.6 238.8 363.4 262 365.4 285.1C365.6 287.1 365.8 289.2 366.3 291.1L365.6 291.3C353.7 285.1 344.4 274.7 336.6 263.8C334.5 260.8 332.5 257.6 331.5 254.1C330.4 250.2 330.6 246.1 331.3 242.2C334.3 223.7 346.3 210.1 355.5 193.4Z" fill="#1720FC"/>
<path d="M434.1 111.9C432.9 109.7 431.7 107.4 430.3 105.1C435.3 114.2 444.3 121 454.4 123C464.6 125 475.7 122 483.1 114.8C484.1 113.8 485 112.8 485.9 111.8C486 112.9 486.1 114 486.3 115.1C485.5 119.3 483.4 123.7 479.5 126.6C475.5 129.5 470.5 132.1 465.6 133.1C460.6 134.2 455.4 132.8 451 130.3C446.6 127.8 442.9 124.1 439.6 120.3C437.4 117.6 435.7 114.8 434.1 111.9Z" fill="black"/>
<path d="M418.6 65.1997C418.8 66.3997 419.1 67.4997 419.4 68.6997C419.4 69.2997 419.6 69.7998 419.8 70.3998C421.2 76.6998 422.7 82.8997 424.4 89.0997C420.3 89.7997 410.5 81.4998 412.3 72.2998C413.9 64.5998 416.5 66.4997 418.3 65.1997H418.6Z" fill="white"/>
<path d="M496.7 88C497.8 84.1 498.8 80.2 500 76.4C500.6 74.4 501.3 72.4 502.1 70.4C502.4 69.6 502.8 68.7999 503.2 68.0999C503.6 67.4999 504.1 66.9 504.7 66.5C507.4 64.7 511.4 66.9999 512.3 70.0999C513.2 73.1999 512 76.6 510.5 79.4C507.6 84.5 502.4 89.5 496.7 88Z" fill="white"/>
<path d="M349.3 128.9C348.8 117.9 349.5 104.9 358.1 98.7998C363.1 95.2998 369.3 95.2998 375.2 95.2998C392.3 95.4998 409.4 95.5997 426.5 95.6997C427.6 98.8997 428.8 102.1 430.4 105C431.8 107.3 432.9 109.6 434.2 111.8C437.9 123.7 431 138.5 420.4 145.1V145.4C414.6 145.6 408.9 147 402.9 149.6C391.1 154.6 363 180.1 356.3 191.9C356.1 192.4 355.8 192.8 355.5 193.3C352.4 172 350.3 150.5 349.3 128.9Z" fill="white"/>
<path d="M470.6 49.1998C469.7 48.7998 468.9 48.0998 468.6 47.1998C468.3 46.4998 468.3 45.4999 468.8 44.8999C473.8 44.9999 478.6 46.3999 483.4 47.5999C484.8 47.9999 486.3 48.3999 487.7 48.7999C488.3 48.9999 489.1 49.3999 488.9 49.9999C488.7 50.3999 488.2 50.4999 487.7 50.3999C483.9 50.2999 480.2 50.1999 476.4 50.0999C474.4 50.1999 472.4 50.0998 470.6 49.1998Z" fill="black"/>
<path d="M469.6 231C468.7 231.5 467.6 231.6 466.3 231.2C466.8 230.3 468.1 228.3 471.4 228.4C471.2 229.2 470.7 230.3 469.6 231Z" fill="white"/>
<path d="M472.2 227.9C468.4 227.5 466.7 229.5 466 230.7C465.9 230.5 465.9 230.2 465.8 230C466.7 228.7 468.6 227 472.3 227.4C472.5 227.4 472.6 227.5 472.7 227.6C472.8 227.7 472.8 227.9 472.8 228C472.8 228.1 472.3 230.7 470.2 232C469.5 232.4 468.7 232.6 467.8 232.6C467.3 232.6 466.8 232.5 466.2 232.4C466.2 232.2 466.2 232 466.2 231.8C471.3 233.2 472.2 227.9 472.2 227.9Z" fill="white"/>
<path d="M465 231.6C465 231.7 465 231.7 465 231.8C465.1 232.2 465.1 232.7 465 233C463.7 232.9 461.8 233.1 460.9 234.9C460.4 235.8 460 236.8 459.5 237.9C458.8 239.6 458 241.5 456.6 243.9C455 246.7 454.8 252.7 457.1 256.7C458.3 258.9 460.8 261.4 465.6 261.4C470.4 261.4 472.9 258.8 474.1 256.7C476.4 252.6 476.2 246.7 474.6 243.9C473.2 241.4 472.4 239.5 471.7 237.9C471.2 236.8 470.8 235.8 470.3 234.9C469.4 233.2 467.5 232.9 466.2 233C466.2 232.8 466.2 232.7 466.2 232.4C466.8 232.5 467.3 232.6 467.8 232.6C468.7 232.6 469.5 232.4 470.2 232C472.3 230.8 472.8 228.1 472.8 228C472.8 227.8 472.8 227.7 472.7 227.6C472.6 227.5 472.5 227.4 472.3 227.4C468.6 227.1 466.7 228.7 465.8 230C465.5 229.1 464.9 228.3 464 227.7L463.4 228.7C464.4 229.3 464.8 230.5 465 231.6ZM566.4 269.6C566.7 274.5 567.6 285 566.6 292.4C566.1 295.9 565.2 298.7 563.6 299.8C560.4 302.1 552.8 302.1 548.9 302.1C493 301.8 437.8 302.9 382.4 301.4C378.1 301.3 373.4 301 370.1 298.2C368 296.4 366.9 293.8 366.2 291C365.7 289 365.5 287 365.3 285C363.3 261.9 362.6 238.8 363.1 215.6C363.4 203.5 364.9 184.4 379.4 184.4C433.8 183.4 488.8 181.5 543.1 184C549.6 184.3 556.7 185.7 560.5 190.9C562.7 194 563.3 197.9 563.8 201.6C567.1 227.3 564.6 243.5 566.4 269.6Z" fill="black"/>
<path d="M466.3 231.2C467.6 231.6 468.7 231.5 469.6 231C470.7 230.4 471.2 229.2 471.5 228.4C468.1 228.4 466.8 230.3 466.3 231.2ZM466.1 231.8C466.1 231.5 466 231.1 465.9 230.7C466.6 229.5 468.3 227.6 472.1 227.9C472.2 227.9 471.3 233.2 466.1 231.8Z" fill="white"/>
<path d="M465.601 231.6C465.601 231.6 465.701 231.2 466.001 230.7C466.101 231.1 466.101 231.5 466.201 231.8C465.901 231.7 465.801 231.7 465.601 231.6Z" fill="white"/>
<path d="M461.9 235.4C462.5 234.3 463.6 234.1 464.4 234.1C465 234.1 465.4 234.2 465.4 234.2C465.5 234.2 465.6 234.2 465.7 234.2C465.7 234.2 468.2 233.6 469.3 235.4C469.8 236.3 470.2 237.2 470.6 238.3C471.3 239.9 472.1 241.9 473.6 244.5C474.9 246.7 475.4 252.1 473.1 256.2C471.5 259 469 260.4 465.6 260.4C462.2 260.4 459.7 259 458.1 256.2C455.8 252.1 456.3 246.7 457.6 244.5C459.1 242 459.9 239.9 460.6 238.3C461 237.2 461.4 236.2 461.9 235.4Z" fill="white"/>
<path d="M465 231.5C465 231.5 465.2 230.8 465.8 230C465.9 230.2 466 230.5 466 230.7C465.7 231.2 465.601 231.6 465.601 231.6C465.801 231.7 466.001 231.7 466.201 231.8C466.201 232 466.201 232.2 466.201 232.4C465.901 232.3 465.601 232.3 465.401 232.2C465.201 232.1 465.1 232 465 231.8V231.7C465 231.5 465 231.5 465 231.5Z" fill="white"/>
<path d="M465 233.5C465.4 233.5 465.601 233.6 465.601 233.6C465.601 233.6 465.801 233.5 466.101 233.5C466.101 233.6 466.101 233.7 466.101 233.7L465.5 233.6H465.401H465.201L465 233.5Z" fill="white"/>
<path d="M465.601 233C465.401 233 465.2 232.9 465 232.9C465 232.6 465 232.2 465 231.7C465.1 231.9 465.201 232 465.401 232.1C465.701 232.2 466.001 232.3 466.201 232.3C466.201 232.5 466.201 232.7 466.201 232.9C466.001 233 465.801 233 465.601 233Z" fill="white"/>
<path d="M465 232.9C465.2 232.9 465.401 232.9 465.601 233C465.801 233 466.001 232.9 466.201 232.9C466.201 233.1 466.201 233.3 466.201 233.5C465.901 233.5 465.701 233.6 465.701 233.6C465.701 233.6 465.501 233.5 465.101 233.5C465.001 233.4 465 233.2 465 232.9Z" fill="white"/>
<path d="M465 231.6C464.9 230.5 464.5 229.4 463.4 228.7L464 227.7C464.9 228.3 465.4 229.1 465.8 230C465.2 230.8 465 231.5 465 231.5C465 231.5 465 231.5 465 231.6Z" fill="white"/>
<path d="M457.6 244.4C456.3 246.6 455.8 252 458.1 256.1C459.7 258.9 462.2 260.3 465.6 260.3C469 260.3 471.5 258.9 473.1 256.1C475.4 252 474.9 246.6 473.6 244.4C472.1 241.9 471.3 239.8 470.6 238.2C470.1 237.1 469.8 236.2 469.3 235.3C468.3 233.5 465.8 234.1 465.7 234.1C465.6 234.1 465.5 234.1 465.4 234.1C465.4 234.1 464.9 234 464.4 234C463.6 234 462.5 234.2 461.9 235.3C461.4 236.2 461 237.1 460.6 238.2C459.9 239.9 459.1 241.9 457.6 244.4ZM457.1 244.1C459.5 240 460.2 237.3 461.4 235.1C462.3 233.5 464 233.4 465 233.5H465.2H465.5L466.1 233.6C466.1 233.6 466.1 233.5 466.1 233.4C467 233.3 468.9 233.3 469.8 235C471 237.2 471.7 239.9 474.1 244C476.5 248.1 475.9 260.7 465.6 260.7C455.3 260.8 454.7 248.3 457.1 244.1Z" fill="white"/>
<path d="M457.1 256.7C454.8 252.6 455 246.7 456.6 243.9C458 241.4 458.8 239.5 459.5 237.9C460 236.8 460.4 235.8 460.9 234.9C461.8 233.2 463.7 232.9 465 233C465 233.3 465 233.5 465 233.6C464.1 233.5 462.3 233.6 461.4 235.2C460.2 237.4 459.5 240.1 457.1 244.2C454.7 248.3 455.3 260.9 465.6 260.9C476 260.9 476.5 248.3 474.1 244.2C471.7 240.1 471 237.4 469.8 235.2C468.9 233.5 467 233.5 466.1 233.6C466.1 233.5 466.1 233.3 466.1 233C467.4 232.9 469.3 233.1 470.2 234.9C470.7 235.8 471.1 236.8 471.6 237.9C472.3 239.6 473.1 241.5 474.5 243.9C476.1 246.7 476.3 252.7 474 256.7C472.8 258.9 470.3 261.4 465.5 261.4C460.8 261.4 458.3 258.8 457.1 256.7Z" fill="white"/>
<path d="M433.7 50.3999C433.5 49.6999 433.3 48.9999 433 48.3999L432.9 48.0999C436.2 47.4999 440.2 46.9999 443.3 46.3999C445.4 45.9999 447.5 45.5998 449.4 44.6998C449.7 44.5998 450 44.3999 450.3 44.3999C450.5 44.3999 450.8 44.4998 451 44.6998C451.4 44.8998 451.8 45.0999 452.2 45.3999C452.4 45.4999 452.7 45.6999 452.8 45.9999C453.1 46.5999 452.6 47.1999 452.2 47.5999C450.6 49.1999 448.7 50.7998 446.4 51.1998C442.6 51.8998 438.4 49.1999 434.9 50.9999C434.7 51.0999 434.5 51.1998 434.3 51.1998C434 51.1998 433.8 50.7999 433.7 50.3999Z" fill="black"/>
<path d="M430.9 17.9999C436.7 17.2999 440 11.2999 444.3 7.2999C448.8 3.1999 455.1 1.19988 461.2 1.39988C467.3 1.59988 473.2 3.99983 478.2 7.59983C482.7 10.8998 486.4 15.0999 490.9 18.4999C494.4 21.1999 498.5 23.4998 501.1 27.0998C505 32.6998 504.5 40.1999 503.4 46.8999C502.2 53.5999 501.2 61.4999 503.3 67.9999C502.8 68.6999 502.5 69.4999 502.2 70.2999C501.4 72.2999 500.7 74.2999 500.1 76.2999C500.2 70.3999 498.9 64.4999 497.1 58.9999C496 55.5998 494.5 52.1998 494.4 48.5998C494.3 44.6998 495.7 40.9998 495.8 37.0998C495.9 31.9998 493.4 26.9999 489.3 23.9999C488.5 27.7999 487.7 31.6999 486.9 35.4999C475.9 33.1999 465 30.7999 454 28.4999C456.2 30.4999 458.4 32.3999 460.6 34.3999C461 34.6999 461.3 35.0998 461.5 35.4999C462 36.7999 460.6 38.1998 459.2 38.0998C457.8 38.0998 456.6 37.0999 455.5 36.2999C449.4 31.2999 443.3 26.2999 437.3 21.2999C435.4 23.4999 432.4 24.9998 430.3 27.0998C428.3 28.9998 427.5 31.7999 427.1 34.4999C426.4 39.4999 426.7 44.6998 425.6 49.5998C424.8 53.2998 423.1 56.7999 421.9 60.4999C421 63.4999 419.3 65.8998 419.5 68.6998C419.2 67.4998 419 66.3998 418.7 65.1998H418.4C418.6 56.9998 418.9 48.7998 419.1 40.6998C419.2 36.0998 419.4 31.2999 421.1 26.9999C422.8 22.5999 426.3 18.6999 430.9 17.9999Z" fill="black"/>
<path d="M303 180.5C314.1 180.5 322.7 188.9 322.6 199.9C322.6 199.8 322.6 199.7 322.6 199.6C319.4 198.2 315.8 197.8 312.3 197.4C308.4 197 304.7 196.5 301.5 194.8C296.8 192.3 293.5 190.5 287.5 191.3C284.5 191.7 281.9 192.9 279.3 194C277.1 194.9 274.9 195.9 272.5 196.4C271.6 196.6 270.8 196.7 270 196.8C268 197.1 266.2 197.4 264 198.4C261 199.9 258.7 201.9 256.4 204.1C257.8 199.7 259.8 195.8 265.7 193.4C269.9 191.7 274.5 191.4 278.4 188.9C280.7 187.4 282.7 185.5 284.2 183.3C285.4 183.5 286.8 183.5 288.3 183C290 182.5 291.8 180.9 293.7 180.5C296.5 179.9 300.1 180.5 303 180.5Z" fill="#222B53"/>
<path d="M284.1 183.3C282.5 185.5 280.6 187.3 278.3 188.9C274.4 191.4 269.8 191.7 265.6 193.4C259.7 195.7 257.7 199.7 256.3 204.1C256.2 204.2 256.1 204.3 256 204.4C254.9 205.5 253.7 206.6 252.4 207.6C250.9 208.8 249.1 209.6 247.2 210.3C245.3 211.1 243.3 211.9 241.7 213.2C238 216.2 235.9 220.4 234.2 224.1C233.3 226.1 232.1 227.9 230.9 229.6C230.4 230.3 229.9 231.1 229.4 231.9C227.6 231.9 225.7 231.9 223.9 231.9C225.7 222.9 227.8 214.9 235.9 208.5C239.7 205.5 244.1 204.3 248.2 202.2C252.4 200.1 253.2 196.9 255.1 192.8C259.5 183.7 265.1 175.8 276.5 180.2C279.3 181.5 281.5 183 284.1 183.3Z" fill="#1720FC"/>
<path d="M255.7 216.6C254.9 217 254.3 217.6 253.8 218.2L250.3 218C250.8 217.5 251.3 216.9 251.7 216.3C253.9 213.1 254.8 209.5 255.7 206.2C256.1 205.9 256.5 205.5 256.8 205.2C259.2 203 261.4 200.9 264.5 199.4C266.5 198.4 268.2 198.2 270.2 197.9C271 197.8 271.9 197.7 272.8 197.5C275.3 197 277.6 196 279.8 195C282.3 193.9 284.9 192.8 287.7 192.4C293.3 191.7 296.4 193.3 301 195.8C304.4 197.6 308.4 198.1 312.2 198.5C315.7 198.9 319.3 199.3 322.5 200.8C321.6 207.1 312.3 217.3 305.8 214.5C302.4 213.1 301.3 207.8 297.8 206.1C293.8 204.1 290.7 206.8 287.8 209.4C281.4 215.3 276.8 219.9 267.7 217.7C264.1 216.9 259.2 214.7 255.7 216.6Z" fill="#222B53"/>
<path d="M263.9 198.4C266.1 197.4 267.9 197.1 269.9 196.8C270.7 196.7 271.5 196.6 272.4 196.4C274.8 195.9 277 194.9 279.2 194C281.8 192.9 284.5 191.7 287.4 191.3C293.4 190.5 296.8 192.3 301.4 194.8C304.6 196.5 308.3 197 312.2 197.4C315.7 197.8 319.2 198.2 322.5 199.6C322.5 199.7 322.5 199.8 322.5 199.9C322.5 200.1 322.5 200.3 322.4 200.6C322.4 200.7 322.4 200.8 322.4 200.9C319.2 199.4 315.6 199 312.1 198.6C308.3 198.2 304.3 197.7 300.9 195.9C296.3 193.4 293.2 191.8 287.6 192.5C284.8 192.9 282.2 194 279.7 195.1C277.5 196.1 275.2 197.1 272.7 197.6C271.8 197.8 271 197.9 270.1 198C268.1 198.3 266.4 198.6 264.4 199.5C261.4 200.9 259.1 203 256.7 205.3C256.3 205.6 256 206 255.6 206.3C255.8 205.6 256 204.8 256.3 204.1C258.6 201.9 260.9 199.8 263.9 198.4Z" fill="white"/>
<path d="M254.6 151.4C255.5 158.6 255.6 164.5 250.8 170.1C250.5 170.5 250.1 170.9 249.7 171.3C247.2 173.9 244.1 176 242 179C238.5 183.8 238 188.9 237.8 194.7C237.8 195 237.8 195.3 237.7 195.6C236.4 197.8 234.8 199.6 233 201.3C231.8 202.6 230.5 203.9 229.4 205.5C227.5 208 227 210.6 226.4 213.4C226.2 214.3 226 215.3 225.8 216.3C225.3 218.3 224.6 220.3 224 222.3C223 225.5 222 228.7 221.4 232.1C219.1 232.1 216.9 232.1 214.6 232.2C214.2 230 213.4 227.9 213.4 225.6C213.3 221.3 214.8 218.3 217.2 215C219.8 211.5 221.6 209.1 222.5 204.7C223.6 199.5 223.5 194.3 224.6 189C224.7 188.4 224.9 187.8 225 187.2C226.4 182.2 229.2 177.8 233.5 174.9C236.8 172.7 240.8 171.6 243.8 168.8C248 164.8 248.1 159.8 250.3 154.7C251.3 152.4 252.4 149.7 253.7 147.2C254.2 148.5 254.4 149.9 254.6 151.4Z" fill="#1720FC"/>
<path d="M253.1 208.4C254 207.7 254.8 206.9 255.6 206.2C254.6 209.6 253.7 213.1 251.6 216.3C251.2 216.9 250.7 217.5 250.2 218C246 222.3 239.2 222.9 234.2 226.6C234.6 226 234.9 225.3 235.2 224.6C236.8 221 238.9 217 242.4 214.1C243.9 212.9 245.7 212.1 247.6 211.3C249.5 210.6 251.4 209.8 253.1 208.4Z" fill="#1720FC"/>
<path d="M253.8 218.2C251.5 220.9 251 225.1 248.1 227.4C245 229.9 240.8 228.7 237.5 230.4C236.9 230.7 236.2 231.2 235.6 231.8C234 231.8 232.3 231.8 230.7 231.8C231.1 231.2 231.4 230.7 231.8 230.2C232.6 229 233.5 227.8 234.2 226.5C239.2 222.9 246 222.3 250.2 217.9L253.8 218.2Z" fill="#222B53"/>
<path d="M249.8 171.3C250.2 170.9 250.5 170.5 250.9 170.1C255.7 164.5 255.6 158.6 254.7 151.4C254.5 149.9 254.2 148.5 253.9 147.1C255.2 144.6 256.6 142.1 258.2 140.2C260.7 137.1 264.7 136.1 268.1 134.3C272.8 131.9 273.9 128.5 276.9 124.1C281.3 117.6 289.6 110.5 297 114.3C294.8 121.2 290.6 127.3 287.9 130.7C285.6 133.7 282.8 135.9 279.8 138.2C278.1 139.5 276.3 140.9 274.7 142.4C272.2 144.7 271.3 147.6 270.4 150.5C269.7 152.7 269 155 267.7 156.9C265.6 159.8 262.3 162 259.1 164.2C258 164.9 257 165.6 256 166.4C253.7 168.1 251.8 169.8 250.1 171.6L249.8 171.3Z" fill="#1720FC"/>
<path d="M248.5 271.6C248.4 273 248.3 274.3 248.3 275.6H247.2C247.2 274.2 247.3 272.8 247.4 271.5C247.5 270.4 247.6 269.2 247.6 268H248.7C248.7 269.2 248.6 270.4 248.5 271.6Z" fill="#1720FC"/>
<path d="M248.3 261.6L247.2 262C246.8 261 246.8 260 246.7 259C246.7 258.2 246.6 257.4 246.4 256.6L247.5 256.3C247.7 257.2 247.8 258 247.8 258.9C247.9 259.9 248 260.8 248.3 261.6Z" fill="#1720FC"/>
<path d="M246.5 281.4L247.5 282C246.2 284.1 245.3 285.9 244.9 287.6L243.8 287.3C244.3 285.5 245.2 283.6 246.5 281.4Z" fill="#1720FC"/>
<path d="M245.8 250.7L245.2 251.7C244.4 251.2 244 250.2 243.7 249.2C243.5 248.5 243.2 247.8 242.8 247.3L243.7 246.6C244.2 247.2 244.5 248 244.8 248.8C245 249.6 245.3 250.4 245.8 250.7Z" fill="#1720FC"/>
<path d="M242.6 242.5L241.5 242.9C241.1 241.9 240.5 241 239.9 240.1C239.4 239.3 238.8 238.4 238.4 237.5L239.4 237C239.8 237.8 240.3 238.6 240.8 239.4C241.5 240.5 242.1 241.5 242.6 242.5Z" fill="#1720FC"/>
<path d="M241.1 187.3C240.3 189.9 239.4 192.7 238.1 195.1C238 195.2 237.9 195.4 237.9 195.5C237.9 195.2 238 194.9 238 194.6C238.2 188.9 238.6 183.7 242.2 178.9C244.4 176 247.4 173.8 249.9 171.2L250.1 171.4C247.8 173.8 245.9 176.3 244.4 179.1C242.8 181.8 241.9 184.6 241.1 187.3Z" fill="#1720FC"/>
<path d="M239.4 298.3C240.1 297.2 240.7 296 241.6 295L242.4 295.8C241.6 296.7 240.9 297.8 240.3 298.9L240.2 299.1L239.2 298.5L239.4 298.3Z" fill="#1720FC"/>
<path d="M239.9 268.7H238.8V274.4H239.9V268.7Z" fill="#1720FC"/>
<path d="M239.5 262.1L238.4 262.4C238 260.9 237.8 259.2 238 257.6L239.1 257.7C239 259.1 239.2 260.7 239.5 262.1Z" fill="#1720FC"/>
<path d="M242.201 187.6C241.301 190.3 240.5 193.1 239.1 195.6C238.6 196.5 238 197.3 237.5 198.1C237.7 197.3 237.801 196.4 237.901 195.5C238.001 195.4 238.1 195.2 238.1 195.1C239.5 192.7 240.3 189.9 241.1 187.3C242 184.6 242.801 181.8 244.301 179.2C245.801 176.4 247.7 173.9 250 171.5C251.7 169.7 253.701 168 255.901 166.3C256.901 165.6 257.9 164.9 259 164.1C262.2 161.9 265.5 159.6 267.6 156.8C269 154.9 269.701 152.6 270.301 150.4C271.201 147.5 272.1 144.5 274.6 142.3C276.2 140.8 278 139.4 279.701 138.1C282.701 135.8 285.501 133.6 287.801 130.6C290.501 127.2 294.701 121.1 296.901 114.2C297.201 114.4 297.601 114.6 297.901 114.8C295.601 121.8 291.401 127.9 288.701 131.3C286.3 134.4 283.301 136.7 280.401 139C278.701 140.3 277.001 141.7 275.401 143.1C273.201 145.1 272.3 147.9 271.5 150.7C270.8 153 270.1 155.4 268.6 157.4C266.4 160.4 263 162.7 259.701 165C258.601 165.7 257.601 166.4 256.701 167.1C251.501 170.9 247.901 174.9 245.301 179.6C243.901 182.2 243.001 185 242.201 187.6Z" fill="white"/>
<path d="M237.7 282.4H238.8C238.8 284.1 238.2 287.1 238 287.9L236.9 287.6C237.1 287 237.7 284.1 237.7 282.4Z" fill="#1720FC"/>
<path d="M238.401 250.1V250.2L237.301 250.5V250.4C236.801 248.8 236.2 246.9 235.5 245.7L236.5 245.1C237.3 246.5 237.901 248.5 238.401 250.1Z" fill="#1720FC"/>
<path d="M236.901 292.3C237.001 294.9 235.501 297.4 234.901 298.4L234 297.8C234.6 296.9 235.901 294.7 235.801 292.4L236.901 292.3Z" fill="#1720FC"/>
<path d="M235.2 240.8L235.3 241L234.2 241.4L234.1 241.2C233.6 239.9 233 238.6 231.9 238.3L232.2 237.2C234 237.7 234.6 239.3 235.2 240.8Z" fill="#1720FC"/>
<path d="M232.2 228.3C232.8 227.7 233.5 227.1 234.2 226.6C233.5 227.9 232.6 229.1 231.8 230.3C231.4 230.8 231.1 231.4 230.7 231.9C230.6 231.9 230.4 231.9 230.3 231.9C230.6 230.7 231.1 229.4 232.2 228.3Z" fill="white"/>
<path d="M232.3 273.1L231.2 273.5C230.6 271.8 230.5 269.6 230.5 267.6C230.5 267.1 230.5 266.6 230.4 266.1L231.5 266C231.5 266.5 231.5 267 231.6 267.5C231.6 269.4 231.7 271.6 232.3 273.1Z" fill="#1720FC"/>
<path d="M231.2 256.4L230.1 256.6C229.8 254.7 229.5 252.5 228.3 251.2L229.1 250.4C230.5 251.9 230.9 254.4 231.2 256.4Z" fill="#1720FC"/>
<path d="M247.6 211.4C245.7 212.2 243.9 212.9 242.4 214.2C238.9 217.1 236.9 221.1 235.2 224.7C234.9 225.4 234.5 226.1 234.2 226.7C233.5 227.2 232.8 227.8 232.2 228.4C231.1 229.5 230.6 230.8 230.3 232.1C230 232.1 229.7 232.1 229.4 232.1C229.9 231.3 230.4 230.6 230.9 229.8C232.1 228.1 233.3 226.3 234.2 224.3C235.9 220.6 238 216.4 241.7 213.4C243.4 212 245.3 211.2 247.2 210.5C249.1 209.7 250.9 209 252.4 207.8C253.7 206.8 254.8 205.7 256 204.6C256.1 204.5 256.2 204.4 256.3 204.3C256.1 205 255.8 205.7 255.6 206.5C254.8 207.2 254 208 253.1 208.7C251.4 209.8 249.5 210.6 247.6 211.4Z" fill="#2F4C9C"/>
<path d="M230.3 231.9C230.4 231.9 230.6 231.9 230.7 231.9C230.4 232.3 230.2 232.7 229.9 233.1C230 232.8 230.1 232.3 230.3 231.9Z" fill="#30323B"/>
<path d="M229.3 282.3L230.4 282.7C229.9 284.1 230 285.5 230 287.1H228.9C228.8 285.5 228.8 283.9 229.3 282.3Z" fill="#1720FC"/>
<path d="M228.5 235.7C228.9 234.8 229.4 234 229.9 233.2C229.5 234.6 229.2 235.9 228.3 237C228.1 237.2 227.9 237.4 227.7 237.6C227.9 237.2 228.1 236.8 228.3 236.4L228.5 235.7Z" fill="#30323B"/>
<path d="M227.9 293.2L228.8 293.9C228.3 294.5 227.8 295.5 227.4 296.3C227 297 226.6 297.8 226.2 298.4L225.3 297.7C225.7 297.1 226 296.5 226.4 295.7C226.8 294.8 227.3 293.9 227.9 293.2Z" fill="#1720FC"/>
<path d="M232.5 207.2C230.4 209.8 228.7 212.2 227.4 214.7C227.5 214.3 227.6 213.9 227.6 213.6C228.1 211 228.6 208.5 230.3 206.2C231.4 204.7 232.7 203.4 233.8 202.2C235 201 236.2 199.7 237.3 198.3C236.6 201.5 234.9 204.3 232.5 207.2Z" fill="#1720FC"/>
<path d="M227.5 235.2C228 234 228.701 233 229.301 231.9C229.601 231.9 229.901 231.9 230.201 231.9C230.101 232.3 230.001 232.7 229.901 233.1C229.401 233.9 228.9 234.8 228.5 235.6L228.201 236.2C228.001 236.6 227.8 237 227.6 237.4C227.1 237.8 226.6 238 226 238.2C226.4 237.3 226.8 236.5 227.1 235.7L227.5 235.2Z" fill="#30323B"/>
<path d="M227.7 237.5C227.3 238.4 226.9 239.2 226.6 240C226.5 240 226.3 240 226.2 240C226.1 240 226 240 225.9 240C225.7 240 225.6 240 225.4 239.9C225.6 239.3 225.9 238.8 226.1 238.2C226.7 238.1 227.2 237.9 227.7 237.5Z" fill="#30323B"/>
<path d="M226.6 240.1C227 239.3 227.3 238.4 227.7 237.6C227.9 237.4 228.1 237.3 228.3 237C229.2 235.9 229.6 234.6 229.9 233.2C230.1 232.8 230.4 232.4 230.7 232C232.3 232 234 232 235.6 232C233.5 234 231.6 237.4 231.3 239.7C229.6 239.8 227.8 240.2 226.2 240.2C226.3 240.1 226.4 240.1 226.6 240.1Z" fill="#30323B"/>
<path d="M225.301 240C224.901 239.5 224.5 239 224 238.7C224.7 238.7 225.4 238.6 226 238.4C225.8 238.9 225.601 239.4 225.301 240C225.501 240 225.601 240 225.801 240.1C225.701 240 225.501 240 225.301 240Z" fill="#30323B"/>
<path d="M223.3 239C223.9 239.5 224.6 239.8 225.3 239.9C225.6 240.4 225.9 240.9 226.2 241.4C226.7 242.3 227.2 243.2 227.8 243.7L227.1 244.6C226.3 244 225.7 242.9 225.2 241.9C224.6 240.7 224 239.7 223.1 239.3L223.3 239Z" fill="#1720FC"/>
<path d="M225.2 187.1C225 187.7 224.9 188.3 224.8 188.9L223.3 188.6C224.1 185.2 223.8 182.2 223.5 178.9C223.4 177.7 223.3 176.5 223.2 175.2C223 170.4 224.1 166.1 225.4 161.6C229.2 148.2 229.9 137.8 227.7 127.9C227.5 127.2 227.4 126.5 227.2 125.8C225.4 118.1 223.9 111.5 227.8 104C228.4 102.8 229 101.7 229.6 100.6C231.6 96.9999 233.4 93.7 234.5 89.4C235.9 83.8 236.1 78.4 236.1 72.9C242.2 72.2 248.2 76.6 250.5 83.8C254 94.5 255.6 107.4 250 117.4C247.9 121.1 245.9 125 247.3 129.3C249.2 135.4 252.2 140.8 253.8 147C252.5 149.6 251.4 152.2 250.4 154.5C248.2 159.6 248.2 164.6 243.9 168.6C240.9 171.4 236.9 172.5 233.6 174.7C229.4 177.7 226.6 182.1 225.2 187.1Z" fill="#222B53"/>
<path d="M224 238.7C224.5 239 224.9 239.5 225.3 240C224.5 239.9 223.8 239.6 223.3 239.1L223.4 238.7C223.7 238.7 223.9 238.7 224 238.7Z" fill="#6671B4"/>
<path d="M248.2 202.3C244 204.4 239.7 205.6 235.9 208.6C227.8 214.9 225.7 223 223.9 232C223.5 232 223.1 232 222.7 232C223.3 228.8 224.3 225.6 225.3 222.6C225.9 220.6 226.5 218.6 227.1 216.6C227.3 216 227.4 215.4 227.5 214.7C228.9 212.2 230.5 209.8 232.6 207.2C235 204.3 236.7 201.5 237.5 198.1C238.1 197.3 238.6 196.5 239.1 195.6C240.5 193.1 241.4 190.3 242.2 187.6C243 184.9 243.9 182.2 245.3 179.7C247.9 175 251.5 171.1 256.7 167.2C257.7 166.5 258.7 165.8 259.7 165.1C263 162.8 266.4 160.5 268.6 157.5C270.1 155.4 270.8 153.1 271.5 150.8C272.4 147.9 273.2 145.2 275.4 143.2C277 141.7 278.7 140.4 280.4 139.1C283.3 136.8 286.3 134.5 288.7 131.4C291.4 128 295.6 121.9 297.9 114.9C298.6 115.4 299.4 116 300.1 116.8C308.6 125.7 306 137.5 301.6 147.3C299.5 152 297.1 155.6 294.4 159.9C291.4 164.7 290.4 169.4 288.6 174.8C287.5 177.9 286.1 180.8 284.2 183.4C281.6 183 279.4 181.6 276.6 180.5C265.2 176 259.7 184 255.2 193.1C253.1 197 252.4 200.2 248.2 202.3Z" fill="#1720FC"/>
<path d="M223.5 238.7L223.6 238.4C223.8 238.5 223.9 238.6 224.1 238.6C223.9 238.7 223.7 238.7 223.5 238.7Z" fill="#6671B4"/>
<path d="M218.8 198.1C220.6 195.1 222.4 192 223.2 188.6L224.7 188.9C223.6 194.1 223.7 199.4 222.6 204.6C221.7 209 219.9 211.4 217.3 214.9C214.8 218.2 213.4 221.2 213.5 225.5C213.5 227.8 214.4 230 214.7 232.1C212 232.1 209.3 232.2 206.7 232.2C206.7 232.1 206.7 232 206.7 232C207.4 228.4 208.3 224.9 209.2 221.8C209.5 220.8 209.7 219.9 210 218.9C211.6 213 213.8 207.4 217.1 201.4C217.6 200.2 218.2 199.1 218.8 198.1Z" fill="#222B53"/>
<path d="M223.5 238.7L223.401 239.1C223.301 239 223.2 238.9 223 238.7C223.1 238.7 223.3 238.7 223.5 238.7Z" fill="#30323B"/>
<path d="M222.6 238.1C223 236 223.5 234 223.9 232C225.7 232 227.6 232 229.4 232C228.7 233 228.1 234.1 227.6 235.3L227.3 235.9C226.9 236.7 226.5 237.6 226.2 238.4C225.6 238.6 224.9 238.7 224.2 238.7C224 238.6 223.9 238.5 223.7 238.5L223.6 238.8C223.4 238.8 223.3 238.8 223.1 238.8C222.8 238.5 222.7 238.3 222.6 238.1Z" fill="#30323B"/>
<path d="M222.5 230.1C223.4 224 224.9 219.2 227.4 214.7C227.3 215.3 227.1 215.9 227 216.6C226.5 218.6 225.8 220.7 225.2 222.6C224.2 225.7 223.3 228.8 222.6 232C222.5 232 222.3 232 222.2 232C222.3 231.4 222.4 230.7 222.5 230.1Z" fill="white"/>
<path d="M221.5 238.6C221.8 236.7 222.101 235 222.401 233.3C222.501 232.9 222.5 232.5 222.6 232C223 232 223.401 232 223.801 232C223.401 234 223 236 222.5 238.1C222.6 238.3 222.701 238.5 222.901 238.7C222.501 238.7 222 238.6 221.5 238.6Z" fill="#30323B"/>
<path d="M237.4 198.1C236.3 199.5 235.1 200.8 233.9 202C232.7 203.3 231.5 204.6 230.4 206C228.7 208.3 228.2 210.8 227.7 213.4C227.6 213.8 227.5 214.1 227.5 214.5C225 219.1 223.5 223.8 222.6 229.9C222.5 230.5 222.4 231.2 222.3 231.8C222.1 231.8 221.8 231.8 221.6 231.8C222.2 228.4 223.2 225.2 224.2 222C224.8 220.1 225.4 218 226 216C226.2 215 226.4 214 226.6 213.1C227.2 210.3 227.7 207.7 229.6 205.2C230.7 203.6 232 202.3 233.2 201C234.9 199.2 236.6 197.5 237.9 195.3C237.7 196.4 237.6 197.3 237.4 198.1Z" fill="white"/>
<path d="M221.5 232C221.7 232 222 232 222.2 232C221.9 233.9 221.4 235.7 220.6 237.1C220.8 235.7 221.1 234.3 221.3 233.1C221.3 232.7 221.4 232.4 221.5 232Z" fill="#30323B"/>
<path d="M222.4 233.3C222.1 235 221.8 236.7 221.5 238.6C221.1 238.5 220.7 238.5 220.4 238.4C220.5 238 220.5 237.6 220.6 237.2C221.4 235.7 221.8 234 222.2 232.1C222.3 232.1 222.5 232.1 222.6 232.1C222.5 232.4 222.5 232.8 222.4 233.3Z" fill="#30323B"/>
<path d="M220.1 274.7L221.2 274.9C221 275.9 220.7 276.8 220.5 277.7C220.2 278.8 219.9 279.9 219.7 280.9L218.6 280.7C218.8 279.6 219.1 278.5 219.4 277.4C219.7 276.6 219.9 275.6 220.1 274.7Z" fill="#1720FC"/>
<path d="M220.4 238.3C220.8 238.4 221.1 238.4 221.5 238.5C221.1 238.5 220.7 238.4 220.4 238.3Z" fill="#30323B"/>
<path d="M219.9 238.2C220.2 237.9 220.4 237.5 220.6 237.1C220.5 237.5 220.5 237.9 220.4 238.3C220.2 238.3 220.1 238.3 219.9 238.2Z" fill="#30323B"/>
<path d="M219.4 286L220.4 286.6C219.8 287.7 219.3 288.8 218.9 289.9L217.8 289.5C218.3 288.3 218.8 287.1 219.4 286Z" fill="#1720FC"/>
<path d="M219.7 266.9C219.6 265.7 219.7 264.5 219.9 263.4C220 262.4 220.2 261.4 220.1 260.4L221.2 260.3C221.3 261.4 221.1 262.5 221 263.5C220.8 264.6 220.7 265.6 220.8 266.7L219.7 266.9Z" fill="#1720FC"/>
<path d="M219.5 238.1C218.4 237.8 217.001 237.4 215.801 236.8C215.301 236.5 214.8 236.2 214.5 235.8C214.8 234.5 214.8 233.3 214.6 232.1C216.9 232.1 219.101 232 221.401 232C221.301 232.4 221.301 232.7 221.201 233.1C221.001 234.4 220.8 235.7 220.5 237.1C220.3 237.5 220.101 237.9 219.801 238.2C219.801 238.2 219.6 238.2 219.5 238.1Z" fill="#30323B"/>
<path d="M216.5 238.2C216.3 237.7 216.1 237.2 215.9 236.8C217 237.4 218.5 237.8 219.6 238.1C219.7 238.1 219.8 238.2 220 238.2C219.4 239.1 218.5 239.8 217.5 240.3C217 239.7 216.7 239 216.5 238.2Z" fill="#30323B"/>
<path d="M219.7 248.5H218.6V253.8H219.7V248.5Z" fill="#1720FC"/>
<path d="M218.7 295.8L219.5 296.6C218.8 297.4 218.1 298.7 217.7 299.8L216.6 299.5C217.1 298.1 217.9 296.7 218.7 295.8Z" fill="#1720FC"/>
<path d="M218.5 242.4L217.5 243C217.1 242.3 216.6 241.5 216.3 240.7C216.7 240.6 217 240.5 217.4 240.3C217.7 241.1 218.1 241.9 218.5 242.4Z" fill="#1720FC"/>
<path d="M216.5 238.2C216.8 238.9 217.1 239.6 217.4 240.3C217.1 240.5 216.7 240.6 216.3 240.7C216 240 215.7 239.3 215.4 238.6C215.2 238.1 215 237.6 214.8 237.2L215.8 236.8C216 237.3 216.3 237.7 216.5 238.2Z" fill="#1720FC"/>
<path d="M205.8 239.4C205.8 238.6 205.9 237.7 205.9 236.9C206.6 235.6 206.7 234 206.6 232.1C209.3 232.1 212 232 214.6 232C214.8 233.2 214.8 234.5 214.5 235.7C214.8 236.1 215.2 236.4 215.8 236.7L214.8 237.1C215 237.6 215.2 238 215.4 238.5C215.7 239.2 216 239.9 216.3 240.6C215.6 240.8 214.7 241 213.8 241C213 241.1 211.8 240.9 210.6 240.7V237.6H209.5V240.4C208.2 240.3 206.9 239.9 205.8 239.4Z" fill="#30323B"/>
<path d="M213 278.8C213.1 277.7 213.3 276.7 213.2 275.6L214.3 275.5C214.4 276.7 214.2 277.8 214.1 278.9C214 279.3 214 279.8 213.9 280.2L212.8 280.1C212.9 279.7 212.9 279.2 213 278.8Z" fill="#1720FC"/>
<path d="M212.9 266H211.7V270.6H212.9V266Z" fill="#1720FC"/>
<path d="M212.8 294.2C212.9 295.5 212.8 296.8 212.6 298C212.5 298.7 212.4 299.3 212.4 300L211.3 299.9C211.3 299.2 211.4 298.5 211.5 297.8C211.6 296.6 211.8 295.5 211.7 294.3L212.8 294.2Z" fill="#1720FC"/>
<path d="M212.4 285.5H211.3V290.1H212.4V285.5Z" fill="#1720FC"/>
<path d="M212 251.5H210.9V258.4H212V251.5Z" fill="#1720FC"/>
<path d="M210.6 240.9V242.4H209.5V240.7C209.8 240.7 210.2 240.8 210.6 240.9Z" fill="#1720FC"/>
<path d="M210.6 237.8V240.9C210.2 240.8 209.8 240.8 209.5 240.7V237.9H210.6V237.8Z" fill="#1720FC"/>
<path d="M205.4 222.6C205.3 219.7 205 216.1 205.5 213.1C205.6 212.7 205.7 212.2 205.8 211.8C206.9 208.3 209.5 205.7 209.9 201.9C210.6 194.9 206.6 189.9 203.7 184.4C203.8 183.1 203.9 181.9 204.1 180.6C204.9 175.2 209.3 171.7 212.5 167.5C215.9 163 218 159.2 218.2 153.5C218.8 141.5 208 135 206.7 124.1C206.2 119.9 206.7 115.2 209 111.7C212.1 107 218 104.6 220.8 100C225.2 92.9 221.3 83.7 227.7 77.2C230.1 74.8 232.7 73.5 235.3 73C235.1 73 234.9 73.1 234.7 73.1C234.7 78.5 234.4 83.8 233.1 89.2C232.1 93.3 230.3 96.6 228.3 100.2C227.7 101.3 227.1 102.4 226.5 103.6C222.4 111.5 224 118.7 225.8 126.2C226 126.9 226.1 127.6 226.3 128.3C228.5 138 227.8 148.2 224 161.4C222.7 165.9 221.6 170.4 221.8 175.3C221.9 176.6 222 177.8 222.1 179C222.4 182.1 222.7 185.1 221.9 188.3C221.1 191.6 219.3 194.6 217.6 197.5C217 198.6 216.3 199.6 215.7 200.7C212.4 206.8 210.1 212.5 208.5 218.5C208.3 219.4 208 220.4 207.7 221.4C207.1 223.6 206.4 226 205.9 228.4C205.9 226.4 205.5 224.4 205.4 222.6Z" fill="#222B53"/>
<path d="M223.4 178.9C223.7 182.1 224 185.2 223.2 188.6C222.4 192.1 220.5 195.1 218.8 198.1C218.2 199.2 217.6 200.2 217 201.3C213.7 207.3 211.5 212.9 209.9 218.8C209.7 219.7 209.4 220.7 209.1 221.7C208.2 224.9 207.2 228.4 206.6 231.9C206.5 230.8 206.4 229.6 206.2 228.4C206.8 225.9 207.4 223.6 208 221.4C208.3 220.4 208.5 219.5 208.8 218.5C210.4 212.5 212.7 206.8 216 200.7C216.6 199.6 217.2 198.5 217.9 197.5C219.6 194.6 221.4 191.6 222.2 188.3C223 185.1 222.7 182.2 222.4 179C222.3 177.8 222.2 176.6 222.1 175.3C221.9 170.4 223 165.9 224.3 161.4C228.1 148.2 228.8 138 226.6 128.3C226.4 127.6 226.3 126.9 226.1 126.2C224.4 118.6 222.7 111.5 226.8 103.6C227.4 102.4 228 101.3 228.6 100.2C230.5 96.6998 232.4 93.3998 233.4 89.1998C234.7 83.7998 235 78.5999 235 73.0999C235.2 73.0999 235.4 72.9999 235.6 72.9999C235.8 72.9999 236 72.8999 236.2 72.8999C236.2 78.4999 235.9 83.7999 234.6 89.3999C233.5 93.6999 231.7 97.0999 229.7 100.6C229.1 101.7 228.5 102.8 227.9 104C224 111.6 225.5 118.2 227.3 125.8C227.5 126.5 227.6 127.2 227.8 127.9C230 137.8 229.3 148.2 225.5 161.6C224.2 166 223.1 170.4 223.3 175.2C223.2 176.5 223.3 177.7 223.4 178.9Z" fill="white"/>
<path d="M206.6 232.2C206.7 234 206.6 235.7 205.9 237C206 235.4 206.2 233.8 206.6 232.2Z" fill="#30323B"/>
<path d="M206.6 299.6L205.801 300.4C205.501 300.2 205.301 299.6 204.801 297.5C204.701 297.1 204.6 296.7 204.5 296.3L205.6 296C205.7 296.4 205.801 296.8 205.901 297.2C206.101 298.1 206.4 299.4 206.6 299.6Z" fill="#1720FC"/>
<path d="M206.6 231.9C206.6 232 206.6 232.1 206.6 232.1C206.6 232.1 206.6 232.1 206.5 232.1C206.6 232.1 206.6 232 206.6 231.9Z" fill="#222B53"/>
<path d="M206.6 231.9C206.6 232 206.6 232.1 206.5 232.1C206.1 232.1 205.7 232.1 205.3 232.1C205.5 230.8 205.8 229.6 206.1 228.3C206.3 229.6 206.5 230.8 206.6 231.9Z" fill="white"/>
<path d="M205.9 211.8C205.8 212.2 205.7 212.6 205.6 213.1L203.1 212.7C203.3 211.9 203.4 211.1 203.5 210.3C204.4 201.9 203.2 193 203.9 184.4C206.8 189.9 210.8 194.9 210.1 201.9C209.6 205.7 207 208.3 205.9 211.8Z" fill="#222B53"/>
<path d="M205.9 236.9C205.8 237.7 205.8 238.6 205.8 239.4C205.5 239.3 205.2 239.1 204.9 239C204.8 238.9 204.7 238.9 204.7 238.9C204.7 238.8 204.7 238.6 204.7 238.5C205.2 238 205.6 237.5 205.9 236.9Z" fill="#30323B"/>
<path d="M204.6 238.4C204.7 236.3 205 234.2 205.3 232.1C205.7 232.1 206.1 232.1 206.5 232.1C206.2 233.7 206 235.3 205.9 236.9C205.6 237.5 205.2 238 204.6 238.4Z" fill="#30323B"/>
<path d="M205.7 239.4C205.4 239.3 205.1 239.1 204.8 239C205.2 239.1 205.4 239.3 205.7 239.4Z" fill="#30323B"/>
<path d="M205.6 213.1C205 216.1 205.3 219.7 205.5 222.6C205.6 224.4 205.9 226.4 206.2 228.4C205.9 229.6 205.6 230.9 205.4 232.2C204 232.2 202.5 232.2 201.1 232.2C200.7 229 200.8 225.2 200.9 222.9C201.1 219.5 202.4 216.1 203.1 212.6L205.6 213.1Z" fill="#222B53"/>
<path d="M205.4 232.2C205 234.3 204.8 236.4 204.7 238.5C204.6 238.6 204.5 238.7 204.3 238.7C203.4 238.2 202.7 237.6 202.4 237C201.8 235.9 201.3 234.1 201.1 232.2C202.5 232.2 203.9 232.2 205.4 232.2Z" fill="#30323B"/>
<path d="M204.6 238.4C204.6 238.5 204.6 238.7 204.6 238.8C204.5 238.7 204.4 238.7 204.3 238.6C204.4 238.6 204.5 238.5 204.6 238.4Z" fill="#30323B"/>
<path d="M204.4 291.4L203.3 291.8C202.6 289.9 202.3 287.8 202.5 285.8L203.6 285.9C203.5 287.8 203.8 289.7 204.4 291.4Z" fill="#1720FC"/>
<path d="M203.6 279.5L202.6 280C202 278.7 201.7 277.3 201.8 275.9L202.9 276C202.9 277.2 203.1 278.4 203.6 279.5Z" fill="#1720FC"/>
<path d="M202.1 239.5C202.1 239.3 202.1 239.1 202.1 239H203.2C203.2 239.1 203.2 239.1 203.2 239.2C203 239.3 202.6 239.4 202.1 239.5Z" fill="#6671B4"/>
<path d="M203.3 239.1C203.3 240.5 202.9 241.9 202.6 243.2C202.5 243.8 202.3 244.5 202.2 245.1L201.1 244.9C201.2 244.2 201.4 243.6 201.5 242.9C201.8 241.7 202.1 240.6 202.2 239.4C202.6 239.4 203 239.3 203.3 239.1Z" fill="#1720FC"/>
<path d="M201.1 270.4C200.5 268.9 200.6 267.2 200.7 265.5C200.7 265 200.7 264.6 200.7 264.1H201.8C201.8 264.6 201.8 265 201.8 265.5C201.7 267.1 201.7 268.7 202.2 270L201.1 270.4Z" fill="#1720FC"/>
<path d="M201.4 251.2H200.3V257.3H201.4V251.2Z" fill="#1720FC"/>
<path d="M200.301 235.3C200.001 234.3 199.7 233.3 199.5 232.3C200 232.3 200.5 232.3 201.1 232.3C201.3 234.2 201.801 235.9 202.401 237.1C202.801 237.7 203.401 238.3 204.301 238.8C204.001 239 203.701 239.1 203.301 239.3C203.301 239.2 203.301 239.2 203.301 239.1H202.201C202.201 239.3 202.201 239.5 202.201 239.6C201.901 239.7 201.601 239.7 201.201 239.7C200.901 238 200.701 236.4 200.301 235.3Z" fill="#30323B"/>
<path d="M197.9 225.9C197.6 224.1 197.3 222.3 197 220.6C195.5 213.3 197.8 205.3 193.9 198.7C193.8 198.6 193.8 198.5 193.7 198.4C193.6 196.1 193 193.9 191.4 191.3C190.5 189.9 189.7 188.5 188.8 187.3C185.3 182 182.6 177.9 183.3 170.3C184.3 160 181.9 154.9 173.1 148.3C167.1 143.9 164.4 136.9 161.7 130.2C160.5 127.3 159.3 124.2 157.9 121.5C157.5 120.7 157.1 119.9 156.6 119C154.3 114.5 151.8 109.5 148.7 106.1C146.3 103.4 142.9 101.8 139.5 100.6C146.2 98.8998 153.7 101.3 159.6 104.9C167.4 109.7 172.8 118.4 177 126.3C179 130 179.9 133.7 182.6 137C186 141.1 190.7 142.9 194.7 146.6C203.9 155 200.3 165.1 200.9 175.9C201.1 179.1 202.2 181.8 203.5 184.5C202.9 193 204.1 201.9 203.1 210.4C203 211.2 202.9 212 202.7 212.8C202 216.3 200.6 219.7 200.5 223.1C200.4 225.4 200.3 229.1 200.7 232.4C200.2 232.4 199.6 232.4 199.1 232.4C198.9 231.4 198.6 230.4 198.4 229.5C198.5 228.2 198.2 227.1 197.9 225.9Z" fill="#1720FC"/>
<path d="M199.5 232.2C199.8 233.2 200 234.2 200.3 235.2C200.6 236.3 200.9 237.9 201.1 239.5C200.9 239.5 200.6 239.5 200.3 239.5C199.6 237.1 199.2 234.6 198.8 232.1C199.1 232.2 199.3 232.2 199.5 232.2Z" fill="#30323B"/>
<path d="M199.2 298.8L198.5 299.7C197.7 299.2 196.7 297.3 196.4 295.9L197.5 295.7C197.8 296.9 198.8 298.5 199.2 298.8Z" fill="#1720FC"/>
<path d="M200 239.6C199.8 238.1 199.5 236.6 199.3 235.6C199 234.5 198.7 233.4 198.4 232.2C198.6 232.2 198.7 232.2 198.9 232.2C199.3 234.7 199.7 237.2 200.4 239.6C200.2 239.6 200.1 239.6 200 239.6Z" fill="#30323B"/>
<path d="M198.801 229.3C199.001 230.3 199.3 231.3 199.5 232.2C199.3 232.2 199.101 232.2 198.901 232.2C198.601 230.1 198.3 228 198 225.9C198.2 227.1 198.501 228.2 198.801 229.3Z" fill="white"/>
<path d="M232 238.3C233.1 238.6 233.7 239.9 234.2 241.2L234.3 241.4L235.4 241L235.3 240.8C234.7 239.4 234 237.7 232.3 237.3L232 238.3ZM225.2 297.8L226.1 298.5C226.5 297.9 226.9 297.1 227.3 296.4C227.8 295.5 228.2 294.6 228.7 294L227.8 293.3C227.2 294 226.7 295 226.2 295.9C225.9 296.5 225.5 297.2 225.2 297.8ZM186.4 297.7L185.6 298.5C186.4 299.3 187.1 300 187.9 300.8L188.7 300C187.8 299.2 187.1 298.5 186.4 297.7ZM216.7 299.5L217.8 299.8C218.2 298.6 218.9 297.4 219.6 296.6L218.8 295.8C217.9 296.7 217.1 298.1 216.7 299.5ZM205.8 300.4L206.6 299.6C206.4 299.4 206.1 298.1 205.9 297.2C205.8 296.8 205.7 296.4 205.6 296L204.5 296.3C204.6 296.7 204.7 297.1 204.8 297.5C205.3 299.6 205.5 300.2 205.8 300.4ZM188.8 295.2L189.9 294.8C189.7 294.2 189.5 293.7 189.2 293.1C188.8 292 188.3 290.9 188 289.9L186.9 290.2C187.2 291.3 187.7 292.5 188.2 293.6C188.4 294.2 188.6 294.7 188.8 295.2ZM196.4 295.9C196.7 297.3 197.8 299.1 198.5 299.7L199.2 298.8C198.8 298.5 197.8 296.9 197.5 295.7L196.4 295.9ZM181.8 239.6L180.9 238.9C180.6 239.4 180.2 239.9 179.8 240.3C178.6 241.8 177.4 243.4 177 245.2L178.1 245.5C178.5 244 179.6 242.5 180.7 241.1C181.1 240.6 181.5 240.1 181.8 239.6ZM219.9 263.3C219.8 264.4 219.6 265.6 219.7 266.8L220.8 266.7C220.7 265.6 220.8 264.6 221 263.5C221.1 262.5 221.3 261.4 221.2 260.3L220.1 260.4C220.2 261.4 220 262.3 219.9 263.3ZM193 300.5L194.1 300.2C193.9 299.4 193.6 298.6 193.3 297.8L192.2 298.2C192.6 299.1 192.8 299.8 193 300.5ZM212.7 298C212.9 296.8 213 295.5 212.9 294.2L211.8 294.3C211.9 295.5 211.8 296.6 211.6 297.8C211.5 298.5 211.4 299.2 211.4 299.9L212.5 300C212.5 299.4 212.6 298.7 212.7 298ZM234.9 298.4C235.5 297.5 237 295 236.9 292.3L235.8 292.4C235.9 294.7 234.6 296.9 234 297.8L234.9 298.4ZM257.8 273.6C253.1 295.2 238.1 301.4 238.1 301.4L189 302.2C189 302.2 170.3 298 165.2 273.8C162.2 259.3 174.5 233 183.2 232.3C183.6 233.3 184.1 234.5 184.4 235.7C185.1 237.8 185.5 239 186.3 239.7C185.7 240.9 184.7 242.8 184.3 242.9V244C185.4 244 186.2 242.5 187.3 240.2C188.1 240.5 189.2 240.6 190.8 240.7C191.3 240.7 191.8 240.7 192.3 240.7C191.7 242.3 191.4 244.2 191.4 245.7H192.5C192.5 244.2 192.8 242.3 193.5 240.7C193.8 240.7 194.1 240.7 194.4 240.7C196.5 240.6 198.7 240.6 200.7 241C200.5 240.5 200.4 240 200.3 239.5C200.6 239.5 200.8 239.5 201.1 239.5C201.5 239.5 201.8 239.4 202.1 239.4C202 240.6 201.7 241.8 201.4 242.9C201.2 243.6 201.1 244.2 201 244.9L202.1 245.1C202.2 244.5 202.4 243.8 202.5 243.2C202.8 241.9 203.2 240.5 203.2 239.1C203.6 239 203.9 238.8 204.2 238.6C204.3 238.7 204.4 238.7 204.5 238.8C204.6 238.8 204.7 238.9 204.7 238.9C205 239 205.3 239.2 205.6 239.3C206.7 239.8 208 240.2 209.3 240.5V242.2H210.4V240.7C211.7 240.9 212.8 241.1 213.6 241C214.5 240.9 215.4 240.8 216.1 240.6C216.5 241.5 216.9 242.3 217.3 242.9L218.3 242.3C217.9 241.7 217.5 241 217.2 240.2C218.3 239.7 219.1 239 219.7 238.1C219.9 238.2 220 238.2 220.2 238.2C220.6 238.3 220.9 238.4 221.3 238.4C221.8 238.5 222.3 238.5 222.8 238.5C222.9 238.6 223 238.8 223.2 238.9L223 239.3C223.9 239.7 224.5 240.7 225.1 241.9C225.7 242.9 226.2 243.9 227 244.6L227.7 243.7C227.1 243.2 226.5 242.3 226.1 241.4C225.8 240.9 225.5 240.3 225.2 239.9C225.4 239.9 225.5 240 225.7 240C225.8 240 225.9 240 226 240C227.6 240.1 229.5 239.6 231.1 239.5C231.4 237.2 233.3 233.9 235.4 231.8C236.7 231.8 237.9 231.8 239.2 231.8C246.1 231.8 252.1 242.8 255 248.8C258.9 256.5 259.6 265.4 257.8 273.6ZM240.2 299.1L240.3 298.9C240.9 297.8 241.6 296.7 242.4 295.8L241.6 295C240.7 296 240 297.2 239.4 298.3L239.3 298.5L240.2 299.1ZM248.7 267.9H247.6C247.6 269.1 247.5 270.3 247.4 271.4C247.3 272.7 247.2 274.1 247.2 275.5H248.3C248.3 274.2 248.4 272.9 248.5 271.5C248.6 270.4 248.7 269.2 248.7 267.9ZM247.2 262L248.3 261.6C248 260.8 247.9 259.9 247.9 258.9C247.9 258 247.8 257.2 247.6 256.3L246.5 256.6C246.7 257.3 246.7 258.1 246.8 259C246.8 260 246.9 261.1 247.2 262ZM247.5 282L246.5 281.4C245.1 283.6 244.2 285.5 243.8 287.3L244.9 287.6C245.3 285.9 246.2 284.1 247.5 282ZM245.2 251.6L245.8 250.6C245.3 250.3 245 249.5 244.7 248.7C244.4 247.9 244.1 247.1 243.6 246.5L242.7 247.2C243.1 247.7 243.4 248.4 243.6 249.1C244 250.1 244.4 251.1 245.2 251.6ZM241.5 243L242.6 242.6C242.2 241.5 241.5 240.6 240.9 239.7C240.4 238.9 239.9 238.1 239.5 237.3L238.5 237.8C238.9 238.7 239.4 239.5 240 240.4C240.5 241.1 241.1 242 241.5 243ZM239.9 274.4V268.7H238.8V274.4H239.9ZM238.4 262.4L239.5 262.1C239.1 260.7 239 259.2 239.1 257.7L238 257.6C237.9 259.2 238 260.9 238.4 262.4ZM238.8 282.4H237.7C237.7 284 237.1 286.9 237 287.6L238.1 287.9C238.2 287.1 238.8 284.2 238.8 282.4ZM238.4 250.2V250.1C237.9 248.5 237.3 246.4 236.5 245.1L235.5 245.7C236.3 246.9 236.9 248.9 237.3 250.4V250.5L238.4 250.2ZM231.2 273.5L232.3 273.1C231.7 271.6 231.7 269.4 231.6 267.5C231.6 267 231.6 266.5 231.5 266L230.4 266.1C230.4 266.6 230.4 267.1 230.5 267.6C230.5 269.6 230.6 271.8 231.2 273.5ZM230 256.6L231.1 256.4C230.8 254.4 230.5 251.9 229.1 250.4L228.3 251.2C229.4 252.4 229.8 254.7 230 256.6ZM230.4 282.6L229.3 282.2C228.8 283.8 228.8 285.4 228.9 287H230C230 285.5 229.9 284 230.4 282.6ZM221.2 274.9L220.1 274.7C219.9 275.6 219.7 276.6 219.4 277.5C219.1 278.6 218.8 279.7 218.6 280.8L219.7 281C219.9 279.9 220.2 278.9 220.5 277.8C220.8 276.9 221 275.9 221.2 274.9ZM220.4 286.5L219.4 285.9C218.8 287 218.2 288.2 217.8 289.4L218.9 289.8C219.3 288.7 219.8 287.6 220.4 286.5ZM219.7 253.8V248.5H218.6V253.8H219.7ZM214.1 278.9C214.2 277.8 214.4 276.7 214.3 275.5L213.2 275.6C213.2 276.7 213.1 277.7 213 278.8C212.9 279.2 212.9 279.7 212.8 280.1L213.9 280.2C214 279.8 214.1 279.3 214.1 278.9ZM212.9 270.6V266H211.7V270.6H212.9ZM212.5 290.1V285.5H211.4V290.1H212.5ZM212.1 258.4V251.5H211V258.4H212.1ZM203.3 291.8L204.4 291.4C203.8 289.7 203.5 287.7 203.7 285.9L202.6 285.8C202.4 287.8 202.7 289.9 203.3 291.8ZM202.6 280L203.6 279.5C203.1 278.4 202.8 277.2 202.9 276L201.8 275.9C201.7 277.4 202 278.7 202.6 280ZM201.1 270.4L202.2 270C201.7 268.7 201.8 267.1 201.8 265.5C201.8 265 201.8 264.6 201.8 264.1H200.7C200.7 264.5 200.7 265 200.7 265.5C200.6 267.2 200.5 268.9 201.1 270.4ZM201.4 257.3V251.2H200.3V257.3H201.4ZM194.2 290L195.2 289.4C194.7 288.5 194.2 287.2 194.8 285.7L193.8 285.2C193.1 286.8 193.3 288.4 194.2 290ZM192.7 280.5L193.7 279.9C193.1 278.8 192.8 277.5 193 276.1L191.9 276C191.7 277.6 191.9 279.2 192.7 280.5ZM191.1 268.9L192.2 268.5C191.8 267.2 191.8 265.9 191.8 264.5C191.8 264.1 191.8 263.7 191.8 263.4H190.7C190.7 263.8 190.7 264.1 190.7 264.5C190.7 265.9 190.6 267.4 191.1 268.9ZM191.5 257.4C191.8 256 192.1 254.1 191.9 252.3L190.8 252.4C191 254.1 190.7 255.9 190.4 257.2L191.5 257.4ZM185 285.3L186.1 285C185.9 284.2 185.7 283.3 185.5 282.4C185.2 280.7 184.9 279 184.1 277.6L183.1 278.2C183.8 279.4 184.1 281.1 184.4 282.6C184.6 283.5 184.8 284.4 185 285.3ZM183.7 251.5L182.8 250.9C181.5 252.8 181.1 256.2 181.2 258.5H182.3C182.3 256.1 182.7 253 183.7 251.5ZM182.1 272.9L183 272.2C182.1 271.1 182.2 269 182.3 267.1C182.3 266.5 182.4 265.9 182.4 265.4H181.2C181.2 265.9 181.2 266.5 181.1 267.1C181 269 180.8 271.5 182.1 272.9ZM181.7 294.3L182.5 293.5C181.6 292.6 180.8 291 180.3 289.9L179.2 290.3C179.6 290.9 180.5 293 181.7 294.3ZM176.6 284.2L177.7 283.7C177.3 282.9 177 281.9 176.7 281C176.4 280 176.1 279.1 175.8 278.3L174.7 278.8C175 279.5 175.3 280.4 175.6 281.3C175.9 282.4 176.3 283.3 176.6 284.2ZM175 254.7C175.4 253.5 175.9 252.2 175.8 250.8L174.7 250.9C174.8 252.1 174.4 253.2 174 254.4C173.6 255.5 173.2 256.5 173.2 257.7H174.3C174.3 256.6 174.7 255.7 175 254.7ZM173.6 272L174.7 271.6C174.1 270.2 174 268.7 173.9 267.1C173.8 266.1 173.8 265.1 173.6 264.1L172.5 264.3C172.7 265.2 172.7 266.2 172.8 267.2C172.8 268.8 173 270.4 173.6 272Z" fill="#30323B"/>
<path d="M194.6 238.8C195.9 239.3 197.4 239.6 199.3 239.6C199.7 239.6 200 239.6 200.4 239.6C200.5 240.1 200.7 240.6 200.8 241.1C198.8 240.7 196.7 240.7 194.5 240.8C194.4 240.4 194.3 240 194.2 239.6C194.4 239.4 194.5 239.2 194.7 239L194.6 238.8Z" fill="#30323B"/>
<path d="M194 198.7C197.9 205.2 195.6 213.3 197.1 220.6C197.5 222.3 197.7 224.1 198 225.9C197.5 223.9 196.9 221.9 196.2 220C194.3 215 193 210.6 193.6 204.6C193.8 202.4 194 200.4 193.9 198.5C193.8 198.5 193.9 198.6 194 198.7Z" fill="#1720FC"/>
<path d="M195.2 289.4L194.2 290C193.2 288.4 193.1 286.8 193.8 285.3L194.8 285.8C194.2 287.2 194.7 288.5 195.2 289.4Z" fill="#1720FC"/>
<path d="M194.6 238.8L194.801 238.9C194.601 239.1 194.501 239.3 194.301 239.5C194.201 239.2 194.1 238.8 194 238.5C194.2 238.7 194.4 238.7 194.6 238.8Z" fill="#6671B4"/>
<path d="M193.9 238.2L194.6 238.8C194.4 238.7 194.2 238.6 194 238.6C194 238.4 193.9 238.3 193.9 238.2Z" fill="#6671B4"/>
<path d="M194.5 240.8C194.2 240.8 193.9 240.8 193.6 240.8C193.8 240.4 194 239.9 194.3 239.6C194.4 240 194.5 240.4 194.5 240.8Z" fill="#30323B"/>
<path d="M193.3 297.9C193.6 298.7 193.9 299.5 194.1 300.3L193 300.6C192.8 299.9 192.6 299.1 192.3 298.4L193.3 297.9Z" fill="#1720FC"/>
<path d="M194 238.6C193.9 238.6 193.8 238.5 193.7 238.5C193.8 238.4 193.8 238.3 193.9 238.3C193.9 238.3 194 238.4 194 238.6Z" fill="#6671B4"/>
<path d="M193.4 240.8C193.3 240.3 193.2 239.9 193.1 239.4C193.3 239.1 193.5 238.7 193.8 238.5C193.9 238.6 194 238.6 194.1 238.6C194.2 238.9 194.3 239.3 194.4 239.6C194.1 240 193.9 240.4 193.7 240.8C193.5 240.8 193.4 240.8 193.4 240.8Z" fill="#1720FC"/>
<path d="M193.7 279.9L192.7 280.5C191.9 279.2 191.6 277.6 191.9 275.9L193 276C192.8 277.5 193.1 278.8 193.7 279.9Z" fill="#1720FC"/>
<path d="M193.401 240.8C193.501 240.8 193.5 240.8 193.6 240.8C192.9 242.4 192.7 244.3 192.6 245.8H191.5C191.5 244.3 191.801 242.5 192.401 240.8C192.701 240.8 193.001 240.8 193.401 240.8Z" fill="#1720FC"/>
<path d="M195 220.4C193.1 215.2 191.7 210.8 192.3 204.5C192.6 201.5 192.8 199.1 192.4 196.6C192.9 197.1 193.4 197.7 193.8 198.4C193.9 200.4 193.7 202.3 193.5 204.5C192.9 210.6 194.3 214.9 196.1 219.9C196.8 221.8 197.4 223.8 197.9 225.8C198.2 227.9 198.5 230 198.8 232.1C198.6 232.1 198.4 232.1 198.3 232.1C198.1 231.2 197.8 230.3 197.6 229.4C196.9 226.5 196.2 223.4 195 220.4Z" fill="white"/>
<path d="M192.5 237.8C192.9 238 193.201 238.3 193.701 238.5C193.501 238.8 193.2 239.1 193 239.4C192.9 238.8 192.7 238.3 192.5 237.8Z" fill="#30323B"/>
<path d="M192.4 240.8C192.6 240.3 192.8 239.8 193.1 239.4C193.2 239.9 193.3 240.3 193.4 240.8C193 240.8 192.7 240.8 192.4 240.8Z" fill="#1720FC"/>
<path d="M199.2 235.6C199.5 236.6 199.7 238.1 199.9 239.6C200 239.6 200.1 239.6 200.3 239.6C200 239.6 199.6 239.6 199.2 239.6C197.3 239.5 195.8 239.3 194.5 238.8L193.8 238.2C193.4 236.7 192.8 235.3 192.1 233.8C191.9 233.3 191.6 232.8 191.3 232.3C193.6 232.3 195.9 232.3 198.2 232.2C198.6 233.4 198.9 234.5 199.2 235.6Z" fill="#30323B"/>
<path d="M191.9 252.2C192.1 254 191.8 255.9 191.5 257.3L190.4 257.1C190.7 255.8 190.9 254 190.8 252.3L191.9 252.2Z" fill="#1720FC"/>
<path d="M191.4 232.3C191.7 232.8 192 233.3 192.2 233.8C192.9 235.3 193.4 236.8 193.9 238.2C193.8 238.3 193.8 238.3 193.7 238.4C193.3 238.2 192.9 238 192.5 237.7C192.1 236.5 191.7 235.4 191.1 234.2C190.8 233.5 190.4 232.9 190 232.3C190.5 232.3 191 232.3 191.4 232.3Z" fill="#30323B"/>
<path d="M191.9 264.5C191.9 265.9 191.8 267.3 192.3 268.5L191.2 268.9C190.7 267.4 190.7 265.9 190.8 264.5C190.8 264.1 190.8 263.8 190.8 263.4H191.9C191.9 263.7 191.9 264.1 191.9 264.5Z" fill="#1720FC"/>
<path d="M190.1 232.3C190.5 232.9 190.9 233.6 191.2 234.2C191.7 235.4 192.2 236.6 192.6 237.7C190.9 236.6 189.6 235 188 232.7C187.9 232.5 187.8 232.4 187.7 232.2C188.4 232.3 189.3 232.3 190.1 232.3Z" fill="#30323B"/>
<path d="M189.9 294.8L188.8 295.2C188.6 294.7 188.4 294.1 188.1 293.6C187.6 292.5 187.2 291.4 186.8 290.2L187.9 289.9C188.2 291 188.7 292.1 189.1 293.1C189.5 293.7 189.7 294.3 189.9 294.8Z" fill="#1720FC"/>
<path d="M188.6 300L187.8 300.8C187 300 186.3 299.3 185.5 298.5L186.3 297.7C187.1 298.5 187.8 299.2 188.6 300Z" fill="#1720FC"/>
<path d="M187.3 237.9L188.3 238.4C188.1 238.7 187.9 239.2 187.7 239.6C187.6 239.8 187.5 240 187.4 240.2C187 240.1 186.7 239.9 186.4 239.6C186.5 239.4 186.6 239.2 186.7 239C187 238.7 187.2 238.3 187.3 237.9Z" fill="#1720FC"/>
<path d="M186.5 239.8C185.7 239.1 185.2 237.9 184.6 235.8C184.2 234.6 183.8 233.4 183.4 232.4C183.5 232.4 183.6 232.4 183.8 232.4C185.1 232.4 186.5 232.4 187.8 232.4C187.9 232.6 188 232.7 188.1 232.9C189.7 235.1 191.1 236.8 192.7 237.9C192.9 238.4 193 239 193.2 239.5C192.9 239.9 192.7 240.4 192.5 240.9C192 240.9 191.5 240.9 191 240.9C189.4 240.8 188.3 240.7 187.5 240.4C187.6 240.2 187.7 240 187.8 239.8C188 239.3 188.2 238.9 188.4 238.6L187.4 238.1C187.2 238.5 187 238.9 186.8 239.4C186.6 239.4 186.5 239.6 186.5 239.8Z" fill="#30323B"/>
<path d="M184.4 242.9C184.9 242.8 185.8 240.9 186.4 239.7C186.7 240 187 240.1 187.4 240.3C186.3 242.6 185.4 244 184.4 244.1V242.9Z" fill="#1720FC"/>
<path d="M186.1 285L185 285.3C184.7 284.5 184.6 283.5 184.4 282.6C184.1 281 183.8 279.4 183.1 278.2L184.1 277.6C184.9 279 185.2 280.7 185.5 282.4C185.7 283.3 185.9 284.2 186.1 285Z" fill="#1720FC"/>
<path d="M187.6 232.3C186.3 232.3 184.9 232.3 183.6 232.3C183.5 232.3 183.4 232.3 183.2 232.3C180.8 226.7 177.6 223.8 171.4 220.9C165.6 218.2 160.9 216.2 160 209.5C159.5 205.7 159.4 202.5 156.5 199.6C154.1 197.2 150.7 196.7 147.8 194.7C145.5 193.1 143.8 191.8 142.4 189.3C141.3 187.4 141.2 184.5 139.7 182.8C136.4 179.2 130.8 181 126.4 180.5C118.3 179.6 113.8 173.6 114.9 167.2C115.3 164.8 116.5 162.4 118.6 160.2C120.6 158 123.4 156 126.4 154.6C130.2 155.9 133.8 157.7 136.5 159.6C138.5 161 139.8 163.1 141.2 165.1C142.5 167 143.8 169 145.6 170.4C148.1 172.3 151.1 173.6 154 174.8C156.7 175.9 159.2 176.9 161.4 178.5C161.5 179.1 161.5 179.8 161.5 180.5C161.6 187.3 160 193.7 164.3 199.7C169.3 206.6 175.9 211.9 180.5 219.1C183.1 223.2 184.7 227.8 187.2 231.8C187.4 231.9 187.5 232.1 187.6 232.3Z" fill="#222B53"/>
<path d="M182.8 250.8L183.7 251.4C182.6 253 182.2 256 182.3 258.3H181.2C181.1 256.1 181.5 252.7 182.8 250.8Z" fill="#1720FC"/>
<path d="M182.5 293.5L181.7 294.3C180.5 293 179.5 290.9 179.3 290.3L180.4 289.9C180.8 291 181.7 292.6 182.5 293.5Z" fill="#1720FC"/>
<path d="M182.1 272.9C180.9 271.5 181 269.1 181.1 266.9C181.1 266.3 181.2 265.7 181.2 265.2H182.3C182.3 265.7 182.3 266.3 182.2 266.9C182.1 268.8 182 270.9 182.9 272L182.1 272.9Z" fill="#1720FC"/>
<path d="M180.9 239L181.8 239.7C181.5 240.2 181.1 240.7 180.7 241.2C179.6 242.6 178.5 244.1 178.1 245.6L177 245.3C177.4 243.5 178.6 242 179.8 240.4C180.2 240 180.6 239.5 180.9 239Z" fill="#1720FC"/>
<path d="M177.7 283.7L176.6 284.2C176.2 283.3 175.9 282.3 175.6 281.4C175.3 280.5 175 279.6 174.7 278.9L175.8 278.4C176.1 279.1 176.4 280.1 176.7 281.1C177 282 177.3 282.9 177.7 283.7Z" fill="#1720FC"/>
<path d="M173.9 254.3C174.3 253.1 174.7 252 174.6 250.8L175.7 250.7C175.8 252.2 175.3 253.4 174.9 254.6C174.5 255.6 174.2 256.6 174.2 257.6H173.1C173.2 256.4 173.6 255.3 173.9 254.3Z" fill="#1720FC"/>
<path d="M174.6 271.5L173.5 271.9C172.9 270.4 172.8 268.7 172.6 267.1C172.5 266.1 172.5 265.1 172.3 264.2L173.4 264C173.6 265 173.7 266 173.7 267C174 268.7 174.1 270.2 174.6 271.5Z" fill="#1720FC"/>
<path d="M183.7 218C183.9 220.1 184 222.3 184.7 224.2C185.4 226.3 186.8 228 188.1 229.7C188.8 230.5 189.4 231.4 190 232.3C189.2 232.3 188.4 232.3 187.5 232.3C187.4 232.1 187.2 231.9 187.1 231.7C184.6 227.7 182.9 223.1 180.4 219C175.9 211.7 169.3 206.4 164.2 199.6C159.8 193.6 161.4 187.2 161.4 180.4C161.4 179.7 161.3 179.1 161.3 178.4C163.2 179.7 164.8 181.4 165.9 183.7C166.5 185.1 166.9 186.6 167.3 188.1C167.8 190.3 168.4 192.5 169.8 194.4C171 196 172.6 197.3 174.1 198.6C175.6 199.8 177.1 201 178.2 202.5C180.7 205.8 182.2 209.1 183.2 213.7C183.5 215.1 183.6 216.5 183.7 218Z" fill="#1720FC"/>
<path d="M184.7 224.2C184 222.3 183.8 220.1 183.7 218C183.6 216.5 183.5 215.1 183.2 213.8C182.2 209.1 180.8 205.9 178.2 202.6C177.1 201.1 175.6 199.9 174.1 198.7C172.5 197.4 170.9 196.1 169.8 194.5C168.4 192.6 167.9 190.3 167.3 188.2C166.9 186.7 166.6 185.2 165.9 183.8C164.8 181.4 163.2 179.8 161.3 178.5C161.2 178 161.1 177.4 161 176.9C163.4 178.4 165.5 180.4 166.9 183.3C167.6 184.8 168 186.4 168.4 187.9C168.9 190.1 169.4 192.1 170.7 193.8C171.8 195.3 173.3 196.5 174.8 197.8C176.3 199 177.9 200.3 179.1 201.9C181.8 205.4 183.2 208.8 184.3 213.6C184.6 215 184.7 216.5 184.8 217.9C185 219.9 185.1 222 185.8 223.8C186.5 225.7 187.7 227.3 189.1 229C189.9 230 190.7 231.1 191.4 232.3C191 232.3 190.5 232.3 190.1 232.3C189.5 231.4 188.9 230.6 188.2 229.7C186.8 228 185.5 226.3 184.7 224.2Z" fill="#3A52A0"/>
<path d="M161.1 176.9C159 175.6 156.7 174.7 154.4 173.7C151.5 172.5 148.6 171.3 146.2 169.5C144.5 168.2 143.3 166.4 142 164.4C140.6 162.3 139.2 160.2 137 158.6C134.5 156.8 131.3 155.1 127.8 153.9C132.1 152.1 136.8 151.4 140.9 152.3C141.2 152.4 141.5 152.5 141.8 152.6C143 154.9 144.8 157.2 147.3 159.5C152.7 164.6 159.4 169.6 161.1 176.9Z" fill="#222B53"/>
<path d="M141.9 152.6C149.2 154.9 152.3 163.4 160 164.9C170.7 167 177.1 169.5 179.1 181.3C179.8 185.1 179.4 186.9 182.6 189.6C185.9 192.4 189.6 193.6 192.4 196.6C192.9 199.1 192.6 201.5 192.3 204.5C191.7 210.8 193.1 215.2 195 220.4C196.1 223.4 196.9 226.5 197.6 229.6C197.8 230.5 198 231.4 198.3 232.3C196 232.3 193.7 232.3 191.4 232.4C190.7 231.2 189.9 230.2 189.1 229.1C187.8 227.4 186.5 225.8 185.8 223.9C185.2 222.1 185 220 184.8 218C184.7 216.6 184.6 215.1 184.3 213.7C183.3 208.9 181.8 205.5 179.1 202C177.9 200.4 176.4 199.2 174.8 197.9C173.2 196.6 171.7 195.4 170.7 193.9C169.5 192.2 169 190.1 168.4 188C168 186.5 167.6 184.9 166.9 183.4C165.5 180.5 163.4 178.5 161 177C159.3 169.7 152.6 164.7 147.2 159.6C144.9 157.2 143.1 154.9 141.9 152.6Z" fill="#1720FC"/>
<path d="M182.3 170.2C183.3 160.3 181.1 155.6 172.6 149.3C166.4 144.7 163.6 137.6 160.8 130.7C159.6 127.8 158.5 124.8 157 122.1C156.6 121.3 156.2 120.5 155.7 119.6C153.5 115.2 150.9 110.2 148 106.9C145.5 104 141.6 102.4 137.9 101.2C138.5 101 139.1 100.8 139.7 100.6C143.1 101.8 146.5 103.4 148.9 106.1C151.9 109.5 154.5 114.6 156.8 119C157.2 119.9 157.7 120.7 158.1 121.5C159.5 124.3 160.8 127.3 161.9 130.2C164.6 136.9 167.3 143.9 173.3 148.3C182.1 154.9 184.5 160 183.5 170.3C182.8 177.8 185.5 182 189 187.3C189.8 188.6 190.7 189.9 191.6 191.3C193.1 193.8 193.7 196.1 193.9 198.4C193.5 197.7 193 197.1 192.5 196.6C192.2 195.1 191.6 193.6 190.6 191.9C189.7 190.5 188.9 189.2 188.1 187.9C184.4 182.5 181.6 178.2 182.3 170.2Z" fill="white"/>
<path d="M135.9 102.3C137.2 101.6 138.5 101.1 139.9 100.7C139.3 100.9 138.7 101.1 138.1 101.3C141.8 102.5 145.7 104.1 148.2 107C151.1 110.3 153.7 115.3 155.9 119.7C156.3 120.6 156.8 121.4 157.2 122.2C158.6 124.9 159.8 127.9 161 130.8C163.7 137.7 166.5 144.8 172.8 149.4C181.3 155.7 183.5 160.4 182.5 170.3C181.7 178.2 184.6 182.5 188.1 188C188.9 189.3 189.8 190.6 190.6 192C191.6 193.6 192.2 195.2 192.5 196.7C189.8 193.7 186 192.4 182.7 189.7C179.5 187 179.9 185.2 179.2 181.4C177.1 169.6 170.8 167.1 160.1 165C152.3 163.5 149.3 155 142 152.7C139.6 148.3 139.1 143.5 139.1 137.2C139.1 128.9 137.9 124.4 132.5 118.1C127.5 112.2 128.9 106.2 135.9 102.3Z" fill="#1720FC"/>
<path d="M161.4 178.4C159.2 176.9 156.6 175.8 154 174.7C151.1 173.5 148 172.3 145.6 170.3C143.7 168.9 142.4 166.9 141.2 165C139.9 163 138.5 160.9 136.5 159.5C133.8 157.6 130.2 155.8 126.4 154.5C126.5 154.5 126.5 154.4 126.6 154.4C127 154.2 127.5 154 127.9 153.8C131.4 155.1 134.6 156.8 137.1 158.5C139.3 160 140.7 162.2 142.1 164.3C143.4 166.2 144.6 168 146.3 169.4C148.7 171.3 151.6 172.5 154.5 173.6C156.8 174.5 159.1 175.5 161.2 176.8C161.2 177.4 161.3 177.9 161.4 178.4Z" fill="white"/>
<path d="M127.8 153.9C127.4 154.1 126.9 154.3 126.5 154.5C127 154.3 127.4 154.1 127.8 153.9Z" fill="white"/>
<path d="M356.301 192C362.901 180.2 391.101 154.7 402.901 149.7C408.901 147.1 414.601 145.7 420.401 145.5C425.901 145.3 431.401 146.2 437.301 148.1C447.001 151.3 455.401 158.5 468.501 152.4C472.901 150.3 482.201 144.7 486.901 143.5C490.601 142.6 494.801 142.3 499.101 142.7C518.901 144.5 543.801 158.8 559.601 174.8C564.401 179.7 568.501 184.8 571.201 189.7" stroke="#1720FC" stroke-width="2" stroke-linecap="round" stroke-linejoin="round"/>
<path d="M430.901 17.8999C426.301 18.6999 422.701 22.5999 421.101 26.8999C419.401 31.1999 419.201 35.9999 419.101 40.5999C418.901 48.7999 418.601 56.9999 418.401 65.0999C416.601 66.3999 413.901 64.4998 412.401 72.1998C410.501 81.3998 420.401 89.6999 424.501 88.9999" stroke="black" stroke-width="2" stroke-miterlimit="10"/>
<path d="M430.801 17.9999C436.601 17.2999 439.901 11.2999 444.201 7.2999C448.701 3.1999 455.001 1.19988 461.101 1.39988C467.201 1.59988 473.101 3.99983 478.101 7.59983C482.601 10.8998 486.301 15.0999 490.801 18.4999C494.301 21.1999 498.401 23.4998 501.001 27.0998C504.901 32.6998 504.401 40.1999 503.301 46.8999C502.101 53.5999 501.101 61.4999 503.201 67.9999" stroke="black" stroke-width="2.6274" stroke-miterlimit="10"/>
<path d="M419.4 68.6998C419.5 69.2998 419.6 69.7999 419.8 70.3999C421.2 76.6999 422.7 82.8998 424.4 89.0998C424.8 90.6998 425.3 92.2999 425.8 93.8999C426 94.4999 426.2 95.1999 426.4 95.7999C427.5 98.9999 428.7 102.2 430.3 105.1C435.3 114.2 444.3 121 454.4 123C464.6 125 475.7 122 483.1 114.8C484.1 113.8 485 112.8 485.9 111.8C486.2 111.5 486.5 111.1 486.7 110.8C490.5 105.8 493 99.7998 494.9 93.6998C495.5 91.7998 496.1 89.8999 496.6 87.8999C497.7 83.9999 498.7 80.0999 499.9 76.2999C500.5 74.2999 501.2 72.2999 502 70.2999C502.3 69.4999 502.7 68.6998 503.1 67.9998C503.5 67.3998 504 66.7999 504.6 66.3999C507.3 64.5999 511.3 66.8998 512.2 69.9998C513.1 73.0998 511.9 76.4999 510.4 79.2999C507.6 84.3999 502.3 89.2999 496.7 87.7999" stroke="black" stroke-width="2" stroke-miterlimit="10"/>
<path d="M418.601 65.1997C418.801 66.3997 419.101 67.4997 419.401 68.6997" stroke="black" stroke-width="2" stroke-miterlimit="10"/>
<path d="M419.4 68.6997C419.4 69.2997 419.6 69.7998 419.8 70.3998" stroke="black" stroke-width="2.6274" stroke-miterlimit="10"/>
<path d="M437.2 21.1997C435.3 23.3997 432.3 24.8998 430.2 26.9998C428.2 28.8998 427.4 31.6998 427 34.3998C426.3 39.3998 426.6 44.5998 425.5 49.4998C424.7 53.1998 423 56.6998 421.8 60.3998C420.9 63.3998 419.2 65.7997 419.4 68.5997" stroke="black" stroke-width="2.6274" stroke-miterlimit="10"/>
<path d="M437.201 21.1997C443.301 26.1997 449.401 31.1997 455.401 36.1997C456.501 37.0997 457.701 37.9998 459.101 37.9998C460.501 37.9998 462.001 36.5998 461.401 35.3998C461.201 34.9998 460.801 34.5998 460.501 34.2998C458.301 32.2998 456.101 30.3998 453.901 28.3998C464.901 30.6998 475.801 33.0998 486.801 35.3998C487.601 31.5998 488.401 27.6998 489.201 23.8998C493.301 26.8998 495.801 31.8998 495.701 36.9998C495.601 40.8998 494.201 44.5998 494.301 48.4998C494.401 52.0998 495.901 55.4998 497.001 58.8998C498.801 64.4998 500.201 70.3997 500.001 76.1997" stroke="black" stroke-width="2" stroke-miterlimit="10"/>
<path d="M433.1 48.3999C433.3 49.0999 433.5 49.7999 433.8 50.3999C433.9 50.6999 434.1 51.0998 434.5 51.1998C434.7 51.1998 434.9 51.0999 435.1 50.9999C438.6 49.1999 442.8 51.8998 446.6 51.1998C448.9 50.7998 450.8 49.1999 452.4 47.5999C452.8 47.1999 453.3 46.4999 453 45.9999C452.9 45.7999 452.6 45.5999 452.4 45.3999C452 45.1999 451.6 44.8998 451.2 44.6998C451 44.5998 450.8 44.4999 450.5 44.3999C450.2 44.3999 449.9 44.4998 449.6 44.6998C447.7 45.5998 445.6 45.9999 443.5 46.3999C440.4 46.9999 436.4 47.4999 433.1 48.0999C432.7 48.1999 432.3 48.1999 431.9 48.2999" stroke="black" stroke-width="2.6274" stroke-miterlimit="10"/>
<path d="M468.8 45C468.8 45 468.7 45 468.8 45" stroke="black" stroke-width="2.6274" stroke-miterlimit="10"/>
<path d="M468.801 45C468.301 45.6 468.301 46.6 468.601 47.3C469.001 48.2 469.801 48.8 470.601 49.3C472.401 50.2 474.401 50.3 476.401 50.3C480.201 50.4 483.901 50.5 487.701 50.6C488.101 50.6 488.701 50.6 488.901 50.2C489.101 49.6 488.401 49.1 487.701 49C486.301 48.6 484.801 48.2 483.401 47.8C478.601 46.4 473.801 45.1 468.801 45Z" stroke="black" stroke-width="2.6274" stroke-miterlimit="10"/>
<path d="M469.101 44.5999C469.001 44.6999 468.901 44.7999 468.801 44.8999" stroke="black" stroke-width="2.6274" stroke-miterlimit="10"/>
<path d="M430.4 105.1C431.8 107.4 432.9 109.7 434.2 111.9C435.8 114.8 437.5 117.6 439.8 120.3C443.1 124.1 446.8 127.8 451.2 130.3C455.6 132.8 460.9 134.1 465.8 133.1C470.6 132.1 475.7 129.6 479.7 126.6C483.6 123.7 485.7 119.3 486.5 115.1C486.8 113.6 486.9 112.2 486.9 110.8" stroke="black" stroke-width="2" stroke-miterlimit="10"/>
<path d="M434.101 111.9C437.801 123.9 430.901 138.6 420.301 145.2" stroke="black" stroke-width="2" stroke-miterlimit="10"/>
<path d="M485.9 110.9C485.9 111.2 486 111.5 486 111.8C486.1 112.9 486.2 114 486.4 115.1C487.1 120.7 488.4 126.1 490.3 131.4C491.5 134.9 495.9 140.5 499 142.5" stroke="black" stroke-width="2" stroke-miterlimit="10"/>
<path d="M379.401 184.4C364.901 184.5 363.401 203.5 363.101 215.6C362.501 238.7 363.301 261.9 365.301 285C365.501 287 365.701 289.1 366.201 291C366.901 293.8 368.001 296.3 370.101 298.2C373.401 301 378.101 301.3 382.401 301.4C437.801 302.9 492.901 301.7 548.901 302.1C552.801 302.1 560.501 302.1 563.601 299.8C565.201 298.7 566.101 295.9 566.601 292.4C567.601 285 566.801 274.5 566.401 269.6C564.601 243.5 567.101 227.3 563.901 201.7C563.401 197.9 562.801 194 560.601 191C556.801 185.8 549.601 184.3 543.201 184.1C488.801 181.6 433.801 183.4 379.401 184.4Z" stroke="black" stroke-width="2.6274" stroke-miterlimit="10"/>
<path d="M571.101 189.6C578.001 202.1 580.8 211.9 587 224.1C590.8 231.7 594.701 239.4 596.101 247.8C597.501 256.2 596.1 265.5 590.3 271.7C583.3 279.4 575.4 286 567 292.4" stroke="#1720FC" stroke-width="2" stroke-linecap="round" stroke-linejoin="round"/>
<path d="M356.301 192C356.101 192.5 355.801 192.9 355.501 193.4C346.301 210.1 334.301 223.7 331.101 242C330.401 246 330.301 250.1 331.301 253.9C332.301 257.4 334.301 260.6 336.401 263.6C344.201 274.5 353.601 284.9 365.401 291.1" stroke="#1720FC" stroke-width="2" stroke-linecap="round" stroke-linejoin="round"/>
<path d="M355.601 194.2C355.601 193.9 355.501 193.7 355.501 193.4C352.401 172.1 350.301 150.5 349.301 129C348.801 118 349.501 105 358.101 98.8999C363.101 95.3999 369.301 95.3999 375.201 95.3999C392.301 95.5999 409.401 95.6999 426.501 95.7999C426.601 95.7999 426.601 95.7999 426.601 95.7999" stroke="black" stroke-width="1.2775" stroke-miterlimit="10"/>
<path d="M560.101 174.2C561.201 156.1 563.701 143.5 563.901 123.6C564.001 114.1 563.801 102.8 556.301 97.5998C552.001 94.5998 546.501 94.4998 541.401 94.5998C526.401 94.6998 510.001 93.5998 495.101 93.6998" stroke="black" stroke-miterlimit="10"/>
</svg>
