<svg width="26" height="25" viewBox="0 0 26 25" fill="none" xmlns="http://www.w3.org/2000/svg">
<g clip-path="url(#clip0)">
<path d="M26.0017 13.4438C25.9514 13.5752 25.9204 13.7217 25.8468 13.8381C25.6337 14.1797 25.3083 14.3262 24.8977 14.2924C24.1152 14.2248 23.3328 14.1572 22.5503 14.0896C22.5309 14.0896 22.5115 14.0934 22.4689 14.0971C22.2907 15.1748 21.9344 16.2036 21.3882 17.1799C21.9537 17.5629 22.5077 17.9384 23.0577 18.3139C23.1701 18.389 23.2824 18.4603 23.3909 18.5429C23.817 18.8621 23.9099 19.4141 23.6117 19.8271C23.3095 20.2476 22.7285 20.3603 22.2791 20.0636C21.6826 19.6694 21.0938 19.2639 20.505 18.8621C20.443 18.8208 20.3772 18.7795 20.3036 18.7269C19.5095 19.6356 18.5836 20.3791 17.5029 20.9573C17.7159 21.5243 17.9212 22.08 18.1304 22.6357C18.1847 22.7747 18.2389 22.9174 18.2892 23.06C18.4597 23.5632 18.2118 24.0739 17.7121 24.2503C17.2124 24.4268 16.6778 24.194 16.4802 23.6984C16.2323 23.0676 15.9999 22.433 15.7636 21.8022C15.752 21.7721 15.7404 21.7458 15.7171 21.7008C14.4776 22.0725 13.2109 22.1927 11.9054 22.095C11.8086 22.632 11.7118 23.1539 11.6188 23.6758C11.5839 23.8673 11.5529 24.0588 11.5103 24.2466C11.3941 24.7723 10.8944 25.0952 10.3754 24.9901C9.84853 24.8812 9.52702 24.4043 9.62386 23.8748C9.74394 23.2177 9.86403 22.5606 9.98798 21.9035C9.99573 21.8547 9.99961 21.8059 9.99961 21.7834C9.43405 21.5468 8.87237 21.3478 8.34168 21.085C7.81099 20.8221 7.31516 20.4955 6.78059 20.1838C6.53268 20.4241 6.26152 20.6907 5.98649 20.9536C5.69984 21.2314 5.41319 21.513 5.12266 21.7871C4.68881 22.2002 4.10776 22.2227 3.70878 21.836C3.30979 21.453 3.32916 20.8822 3.75526 20.4654C4.30145 19.936 4.84763 19.4065 5.40544 18.8696C4.54936 17.9046 3.91021 16.8269 3.49185 15.6104C3.14709 15.6967 2.81009 15.7831 2.47695 15.8694C2.04697 15.9783 1.62087 16.0985 1.18702 16.1999C0.768665 16.2975 0.358056 16.1173 0.145005 15.7681C-0.064173 15.4226 -0.040931 14.9795 0.249594 14.6904C0.381298 14.559 0.567234 14.4463 0.749296 14.3938C1.4543 14.191 2.16318 14.0183 2.87206 13.8305C2.93404 13.8155 2.99215 13.7967 3.06962 13.7742C2.93017 12.674 2.9999 11.5889 3.24781 10.5C2.73649 10.3197 2.23678 10.1432 1.73321 9.96301C1.4543 9.86539 1.1754 9.77152 0.900369 9.66638C0.389046 9.47113 0.141131 8.96046 0.31932 8.47608C0.497508 7.98419 1.03982 7.73262 1.56277 7.91285C2.32588 8.17569 3.08512 8.4498 3.8676 8.7239C4.38667 7.62748 5.09167 6.65872 5.98649 5.81012C5.56039 5.31823 5.14203 4.83385 4.72368 4.34947C4.60747 4.21429 4.48738 4.08287 4.37892 3.9477C4.04966 3.53466 4.10389 2.98269 4.50288 2.65226C4.90961 2.31808 5.49454 2.35187 5.85479 2.74989C6.36998 3.32814 6.86969 3.91766 7.37326 4.49966C7.41587 4.54848 7.45848 4.58978 7.50884 4.6461C8.58572 3.98149 9.74395 3.53466 11.0106 3.30186C10.9913 3.05403 10.9758 2.80997 10.9525 2.56965C10.9099 2.07776 10.8634 1.58587 10.8131 1.09399C10.755 0.511979 11.1346 0.0501284 11.7001 0.00882472C12.2618 -0.032479 12.6918 0.361784 12.7422 0.93628C12.8003 1.66473 12.8739 2.38942 12.9397 3.13664C14.2606 3.17043 15.5273 3.42577 16.7398 3.94394C16.9722 3.46332 17.193 3.00147 17.4177 2.53961C17.5106 2.34812 17.5997 2.15286 17.6966 1.96136C17.9445 1.46572 18.5023 1.26296 18.9943 1.48825C19.4785 1.70979 19.6799 2.25049 19.4475 2.74238C19.1453 3.38822 18.8277 4.03406 18.5178 4.67614C18.4868 4.73622 18.4636 4.80005 18.4326 4.86764C19.3777 5.52099 20.1796 6.29825 20.8497 7.23322C20.9117 7.19191 20.9698 7.15436 21.0241 7.11682C21.6477 6.69251 22.2675 6.26821 22.895 5.85142C23.2282 5.62988 23.5845 5.60735 23.9332 5.79885C24.2702 5.98284 24.4329 6.27948 24.4174 6.65496C24.4058 6.96286 24.2547 7.20318 23.999 7.37966C23.2863 7.86404 22.5735 8.34466 21.8608 8.82904C21.8414 8.84406 21.822 8.85908 21.7949 8.87785C22.2636 9.94049 22.5232 11.0482 22.5851 12.2159C22.9725 12.2497 23.3483 12.2835 23.7279 12.3173C24.1966 12.3586 24.6653 12.3924 25.134 12.4375C25.5291 12.475 25.8584 12.7491 25.9669 13.1209C25.9823 13.1659 25.9978 13.2147 26.0133 13.2598C26.0017 13.3161 26.0017 13.38 26.0017 13.4438ZM15.0896 4.95776C11.8512 3.99651 8.20997 5.21684 6.31963 7.69507C6.95491 8.14941 7.14472 8.70138 6.85807 9.27212C6.73023 9.52369 6.53655 9.70768 6.27702 9.82408C5.87415 10.0006 5.47904 9.948 5.09942 9.74523C3.67391 13.2373 5.10329 17.1161 7.76838 18.9447C8.07827 18.1111 8.91498 17.9384 9.48054 18.2162C9.78656 18.3664 10.0035 18.603 10.0964 18.9259C10.2243 19.354 10.1197 19.737 9.82917 20.0749C11.4329 20.946 15.3801 20.702 16.6662 19.6619C16.1006 19.2038 15.9263 18.7569 16.1122 18.235C16.2711 17.7919 16.701 17.4728 17.1698 17.4502C17.7895 17.4202 18.1382 17.6755 18.4713 18.404C20.013 17.3601 21.4618 13.7104 20.9969 12.0395C20.1409 12.3061 19.4513 12.0057 19.2577 11.281C19.1724 10.9656 19.2151 10.6577 19.3932 10.3798C19.645 9.98554 20.0285 9.81657 20.5166 9.81282C19.8658 8.1832 18.8006 6.90279 17.3247 5.94154C16.8676 6.59489 16.2982 6.8014 15.6978 6.53481C15.0973 6.27197 14.8804 5.70873 15.0896 4.95776Z" fill="black"/>
<path d="M9.99812 11.7902C9.33185 11.7902 8.78179 11.257 8.78566 10.6074C8.78954 9.96904 9.33572 9.44336 9.99424 9.44336C10.6605 9.44336 11.2144 9.98031 11.2067 10.6261C11.2028 11.2645 10.6605 11.7864 9.99812 11.7902Z" fill="black"/>
<path d="M17.1794 9.37205C17.1794 10.0216 16.6332 10.5511 15.9631 10.5473C15.3007 10.5436 14.7661 10.0179 14.7661 9.3758C14.7661 8.72245 15.3162 8.19301 15.9825 8.20052C16.6449 8.20803 17.1794 8.72996 17.1794 9.37205Z" fill="black"/>
<path d="M16.0217 15.1283C15.3516 15.1245 14.8131 14.5913 14.8209 13.938C14.8286 13.2959 15.3787 12.7777 16.0411 12.7852C16.7035 12.789 17.2419 13.3147 17.2419 13.9568C17.2381 14.6064 16.6919 15.132 16.0217 15.1283Z" fill="black"/>
<path d="M12.2061 8.08027C11.5437 8.08027 11.0014 7.55834 10.9937 6.92C10.9898 6.27041 11.5321 5.74097 12.2061 5.74097C12.8724 5.74097 13.4108 6.25914 13.4186 6.90123C13.4263 7.54332 12.8763 8.08027 12.2061 8.08027Z" fill="black"/>
<path d="M5.87258 13.6375C5.86871 12.9879 6.39552 12.466 7.06179 12.4622C7.73968 12.4547 8.28199 12.9729 8.28587 13.6263C8.28974 14.2834 7.7513 14.8053 7.07729 14.8015C6.40714 14.8015 5.87645 14.2871 5.87258 13.6375Z" fill="black"/>
<path d="M13.3991 16.296C13.403 16.9494 12.8607 17.4788 12.1867 17.475C11.5204 17.4713 10.9858 16.9494 10.9858 16.3073C10.9858 15.6614 11.5165 15.1358 12.1789 15.1283C12.8529 15.1207 13.3952 15.6427 13.3991 16.296Z" fill="black"/>
</g>
<defs>
<clipPath id="clip0">
<rect width="26" height="25" fill="white"/>
</clipPath>
</defs>
</svg>
