<svg width="169" height="136" viewBox="0 0 169 136" fill="none" xmlns="http://www.w3.org/2000/svg">
<path d="M100.727 45.369C100.858 46.8143 100.727 48.1283 100.596 49.5736C99.6758 59.2966 96.2596 69.2825 90.347 76.9032C87.5877 80.3195 84.3029 83.3415 80.4925 85.5752C74.1857 89.1228 66.9591 90.3053 59.8639 89.3855C49.3524 88.0716 38.9724 82.2903 32.5342 73.7498C30.4319 70.8592 28.7238 67.8371 27.2785 64.6837C36.7388 63.764 48.1699 62.7128 57.6302 61.7931C57.893 61.7931 58.2871 61.7931 58.5499 61.9245C58.9441 62.1873 58.8127 62.8442 58.5499 63.2384C57.6302 65.7349 56.7104 68.2313 55.9221 70.7278C66.9591 65.9977 76.4193 57.5885 82.332 47.2085C82.5948 46.6829 82.9889 46.1574 83.5145 46.026C84.4343 45.8946 85.4854 46.6829 85.4854 47.4713C85.7482 54.9607 99.6758 51.9386 100.727 45.369Z" fill="black"/>
<path d="M66.9593 30.9158C68.1419 31.4413 69.3244 31.9669 70.5069 32.4925C69.7186 34.332 67.8791 35.5145 65.9082 35.7773C63.9373 35.9087 61.9664 35.1203 60.3897 33.9378V33.5436C61.9664 33.2808 63.4117 32.6239 64.5942 31.4413C64.857 31.1786 65.2512 30.7844 65.6454 30.653C66.0396 30.5216 66.5652 30.653 66.9593 30.9158Z" fill="black"/>
<path d="M40.4178 32.6237C41.4689 33.2807 40.6806 35.1202 39.498 35.383C38.3155 35.7771 37.0016 35.2516 35.8191 35.383C34.8993 35.383 33.9796 35.7771 33.1912 35.5144C32.4029 35.2516 30.8262 33.4121 31.4831 32.8865C33.9796 32.7551 36.6074 32.6237 39.1039 32.4923C39.6294 32.4923 40.0236 32.3609 40.4178 32.6237Z" fill="black"/>
<path d="M63.0173 1.48364C55.0024 0.432503 46.1991 1.22086 39.498 5.68821C33.7168 9.62998 30.0378 15.9368 27.4099 22.3751C22.1542 35.7771 21.6287 51.5442 27.1471 64.6835C28.4611 67.8369 30.3006 70.9903 32.4028 73.7496C38.8411 82.4215 49.2211 88.0714 59.7325 89.3853C66.8277 90.305 74.0543 89.1225 80.3611 85.5749C84.1715 83.3412 87.4563 80.3192 90.2156 76.903C96.2596 69.2822 99.5445 59.2964 100.464 49.5733C100.596 48.128 100.727 46.6827 100.596 45.3688C100.464 43.7921 100.201 42.2153 99.5445 40.9014C97.9678 37.8794 94.5516 36.1713 91.1354 36.3027C89.4272 36.3027 87.8505 36.8283 86.4052 37.8794" stroke="black" stroke-width="2" stroke-miterlimit="10"/>
<path d="M63.0176 1.48389C71.6895 2.00946 78.7847 5.29427 83.7776 11.9953C88.6391 18.6963 90.4786 27.1054 91.267 35.3832" stroke="black" stroke-width="2" stroke-miterlimit="10"/>
<path d="M59.7324 90.5681C58.8127 93.9843 57.8929 97.4005 56.8418 100.948C56.579 102.131 56.1848 103.313 56.3162 104.496C56.4476 105.941 57.3673 107.386 58.1557 108.569C62.2289 115.007 66.302 121.314 70.5066 127.752C70.9008 128.409 71.4264 129.198 72.2147 129.329C73.0031 129.46 73.66 129.066 74.317 128.672C81.2808 124.073 83.3831 114.613 89.9527 109.357C91.6608 107.912 93.6317 106.861 94.8142 105.021C96.3909 102.525 95.8653 99.24 95.3398 96.3494C94.1572 90.174 92.712 83.8671 91.2666 77.6917" stroke="black" stroke-width="2" stroke-miterlimit="10"/>
<path d="M56.3163 105.546C47.9072 105.546 39.3666 105.546 30.9575 105.546C28.7238 105.546 26.4901 105.546 24.3879 106.203C21.6286 107.123 19.5264 108.963 17.4241 110.802C10.1975 117.24 2.7081 124.204 1 133.402" stroke="black" stroke-width="2" stroke-miterlimit="10"/>
<path d="M95.8657 104.364C107.165 103.576 118.597 102.787 129.765 104.495C140.933 106.204 151.97 110.934 159.328 119.343C163.27 123.81 165.898 129.197 168 134.716" stroke="black" stroke-width="2" stroke-miterlimit="10"/>
<path d="M27.147 64.6836C36.6073 63.7639 48.0384 62.7127 57.4987 61.793C57.7615 61.793 58.1557 61.793 58.4185 61.9244C58.8126 62.1871 58.6813 62.8441 58.4185 63.2383C57.4987 65.7347 56.579 68.2312 55.7906 70.7277C66.8276 65.9975 76.2878 57.5884 82.2005 47.2084C82.4633 46.6828 82.8575 46.1573 83.3831 46.0259C84.3028 45.8945 85.3539 46.6828 85.3539 47.4712C85.7481 54.9606 99.6757 51.9385 100.595 45.3689" stroke="black" stroke-width="2" stroke-miterlimit="10"/>
<path d="M59.7328 33.4123C59.9955 33.4123 60.1269 33.4123 60.2583 33.4123C61.835 33.1495 63.2803 32.4925 64.4629 31.31C64.7256 31.0472 65.1198 30.653 65.514 30.5216C65.9082 30.3903 66.3024 30.653 66.6965 30.7844C67.8791 31.31 69.0616 31.8356 70.2442 32.3611C69.4558 34.2006 67.6163 35.3832 65.6454 35.646C63.6745 35.7774 61.7036 34.989 60.1269 33.8065" stroke="black" stroke-width="2" stroke-miterlimit="10"/>
<path d="M31.483 32.8864C30.8261 33.4119 32.2714 35.2514 33.1911 35.5142C34.1108 35.777 35.0306 35.3828 35.819 35.3828C37.0015 35.2514 38.3154 35.777 39.4979 35.3828C40.6805 34.9887 41.4688 33.2806 40.4177 32.6236C40.0235 32.3608 39.6293 32.4922 39.1038 32.4922C36.6073 32.6236 33.9795 32.755 31.483 32.8864Z" stroke="black" stroke-width="2" stroke-miterlimit="10"/>
</svg>
