<svg width="164" height="150" viewBox="0 0 164 150" fill="none" xmlns="http://www.w3.org/2000/svg">
<path d="M93.1434 34.1227C94.0557 41.0301 94.968 47.9376 95.8803 54.7148V54.9754C94.4467 54.8451 92.8827 54.9754 91.4491 54.3238C87.5392 52.6295 87.5392 46.895 84.6719 43.6367C80.1104 38.4236 70.7266 41.9425 65.1224 37.7719C62.5159 35.817 60.4306 32.1677 57.1723 32.4284C55.9994 32.5587 54.8264 33.2104 53.7838 33.862C46.0943 38.4236 37.4925 41.4211 28.6301 42.8548C28.4998 42.7244 28.3695 42.5941 28.2391 42.3335C26.5448 39.9875 25.7628 35.817 24.7202 33.3407C23.5472 30.6038 23.4169 27.3455 24.9809 24.8693C25.7629 23.6963 26.6752 22.9143 27.7178 22.1323L28.6301 22.2627C48.1796 21.611 67.729 24.7389 85.9752 31.6464C88.8425 32.5587 90.5368 33.2104 93.1434 34.1227Z" fill="black"/>
<path d="M85.3235 7.27456C92.8826 13.6607 92.7523 24.2174 93.1433 34.1225C90.4063 33.2102 88.8424 32.6889 86.1055 31.6462C67.8593 24.8691 48.1795 21.6108 28.7603 22.2625L27.848 22.1322C28.8907 21.3502 30.0636 20.6985 31.2366 19.9166C34.2342 17.7009 36.4498 14.8337 39.0564 12.2271C48.5705 2.97366 63.0371 -0.805894 75.8094 2.58268C79.3283 3.49499 82.5865 4.92863 85.3235 7.27456Z" fill="black"/>
<path d="M83.4993 99.8086C79.5894 106.977 68.381 112.06 60.1702 112.842C60.1702 110.105 60.1702 107.498 60.1702 104.761V104.5C68.1203 104.631 75.9401 102.415 83.4993 99.8086Z" fill="black"/>
<path d="M73.5938 46.6342C73.7241 47.1555 72.9421 47.2859 72.5512 47.2859C69.9446 47.1555 67.338 47.0252 64.7314 46.8949C63.9494 46.8949 63.0371 46.7645 62.3854 46.2432C61.8641 45.7219 61.8641 44.4186 62.6461 44.2883V43.8973C66.2953 43.6366 69.9446 44.4186 73.0725 46.1129C73.3331 46.2432 73.5938 46.3736 73.5938 46.6342Z" fill="black"/>
<path d="M45.7031 47.1555C45.8335 48.0679 45.1818 48.9802 44.3998 49.3712C43.6178 49.7621 42.7055 49.8925 41.6629 49.8925C39.317 49.8925 36.971 49.2408 34.8857 48.1982C37.4923 46.2432 42.1842 44.6793 45.4425 45.7219C45.8335 45.8523 45.1818 46.8949 45.7031 47.1555Z" fill="black"/>
<path d="M28.8904 42.8546C28.7601 42.7243 28.6298 42.5939 28.4994 42.3333C26.8051 39.9873 26.0232 35.8168 24.9805 33.3405C23.8076 30.6036 23.6772 27.3454 25.2412 24.8691C26.0232 23.6961 26.9355 22.9141 27.9781 22.1322C29.0207 21.3502 30.1937 20.6985 31.3667 19.9166C34.3643 17.7009 36.5799 14.8337 39.1865 12.2271C48.7006 2.97366 63.1672 -0.805893 75.9395 2.58268C79.3281 3.49499 82.7166 4.92863 85.3232 7.27456C92.8824 13.6607 92.752 24.2174 93.143 34.1225C90.4061 33.2102 88.8421 32.6889 86.1052 31.6462C67.859 24.8691 48.1792 21.6108 28.7601 22.2625" stroke="black" stroke-width="2" stroke-miterlimit="10"/>
<path d="M28.8904 42.8547C37.7529 41.421 46.3546 38.4235 54.0441 33.8619C55.0867 33.2103 56.1294 32.5586 57.4327 32.4283C60.6909 32.1676 62.6459 35.8169 65.3828 37.7718C70.987 41.9424 80.3707 38.4235 84.9323 43.6367C87.7995 46.8949 87.7995 52.4991 91.7094 54.3237C93.0127 54.9754 94.5767 54.845 96.1406 54.9754C96.7923 54.9754 97.4439 55.1057 97.9653 55.236C102.136 56.2786 104.091 62.1435 101.484 65.5321C100.181 67.2264 98.0956 68.1387 96.662 69.7026C93.7947 72.8305 94.0554 77.6527 94.5767 81.9536C96.0103 93.162 98.3562 104.24 101.614 115.057" stroke="black" stroke-width="2" stroke-miterlimit="10"/>
<path d="M93.1434 34.1223C94.0557 41.0298 94.9681 47.9373 95.8804 54.7144" stroke="black" stroke-width="2" stroke-miterlimit="10"/>
<path d="M28.2388 42.4634C29.9331 53.9324 31.6274 65.4014 33.1913 77.0008C33.9733 82.7353 34.8857 88.6001 38.0136 93.4223C42.4448 100.33 50.9162 103.979 59.2573 104.5C59.6483 104.5 59.909 104.5 60.3 104.5C68.2501 104.761 76.0699 102.415 83.4987 99.8085C79.5888 106.977 68.3804 112.06 60.1696 112.841" stroke="black" stroke-width="2" stroke-miterlimit="10"/>
<path d="M60.1696 104.761C60.1696 107.498 60.1696 110.105 60.1696 112.842C60.1696 115.449 60.1696 118.055 60.1696 120.662" stroke="black" stroke-width="2" stroke-miterlimit="10"/>
<path d="M1 149.204C3.47627 136.562 14.6846 127.048 26.9357 123.268C37.6227 119.88 48.9614 120.01 60.1698 120.792C61.8641 120.922 63.5583 121.053 65.2526 121.183C72.5511 121.835 80.1102 122.486 87.2784 120.922C92.2309 119.88 96.9228 117.664 101.745 115.97C103.961 115.188 106.176 114.536 108.392 114.145C119.6 112.06 131.069 116.491 140.192 123.268C149.185 130.176 156.223 139.299 163 148.422" stroke="black" stroke-width="2" stroke-miterlimit="10"/>
<path d="M62.6459 44.2883C61.8639 44.4186 61.7336 45.7219 62.3853 46.2432C63.0369 46.7645 63.8189 46.8949 64.7312 46.8949C67.3378 47.0252 69.9444 47.1555 72.551 47.2859C73.0723 47.2859 73.7239 47.1555 73.5936 46.6342C73.5936 46.3736 73.333 46.2432 73.0723 46.1129C69.8141 44.4186 66.2951 43.6366 62.6459 43.8973C62.5156 43.8973 62.3853 43.8973 62.3853 43.8973" stroke="black" stroke-width="2" stroke-miterlimit="10"/>
<path d="M45.312 45.5919C42.1841 44.6795 37.4922 46.1132 34.7553 48.0681C36.8406 49.1108 39.1865 49.6321 41.5325 49.7624C42.4448 49.7624 43.3571 49.7624 44.2694 49.2411C45.1817 48.7198 45.703 47.9378 45.5727 47.0255C45.1817 46.8952 45.8333 45.8525 45.312 45.5919Z" stroke="black" stroke-width="2" stroke-miterlimit="10"/>
</svg>
