<svg width="172" height="146" viewBox="0 0 172 146" fill="none" xmlns="http://www.w3.org/2000/svg">
<path d="M83.5767 8.26604C85.5335 7.35286 87.4903 6.43969 89.5776 6.17878C91.6648 5.91787 94.013 6.43969 95.3175 8.13558C96.2307 9.04876 96.7525 10.3533 97.0134 11.6578C98.057 15.441 98.5788 19.485 98.5788 23.3986C98.5788 27.5731 98.057 31.7476 98.3179 35.9221C98.5788 39.9662 99.8834 44.2712 102.753 47.1411C102.362 46.7498 101.71 46.6193 101.057 46.4889C97.5352 46.228 92.9693 45.5757 89.1862 45.5757C86.7076 41.2707 84.229 37.0962 81.6199 32.7913C81.2285 32.139 80.8372 31.3563 80.5763 30.5736C80.4458 29.9213 80.1849 28.6168 79.2717 28.6168C79.0108 28.6168 78.7499 28.7472 78.489 28.7472C77.5758 29.1386 76.6627 29.5299 75.7495 29.9213C73.1404 31.0954 70.5314 32.139 67.6614 32.3999C63.7478 32.7913 59.9646 31.3563 56.5729 29.5299C55.1379 28.7472 53.8333 27.9645 52.2679 27.7036C50.9634 27.4427 49.6588 27.4427 48.3543 27.5731C43.3971 27.834 38.4398 28.8777 33.6131 30.4431C32.8303 31.8781 33.0913 33.7044 32.6999 35.1394H32.5694C32.1781 31.8781 31.2649 28.7472 29.569 25.8772C28.134 23.3986 26.3077 21.1809 25.3945 18.4414C24.3509 15.7019 24.3509 12.4405 26.3077 10.3533C26.9599 9.70102 27.7427 9.17921 28.5254 8.78785C35.0481 5.52652 42.7448 6.30923 50.0502 7.35286C52.3984 10.8751 54.4856 15.0496 57.8774 17.6587C58.1383 17.9196 58.5297 18.1805 58.921 18.3109C59.9646 18.5719 61.0083 17.7891 61.9214 17.1369C62.1824 16.876 62.4433 16.7455 62.4433 16.3541C62.4433 16.0932 62.3128 15.8323 62.0519 15.5714C59.8342 12.7014 57.486 9.96193 55.2683 7.09196C55.0074 6.83105 54.877 6.57014 54.877 6.30924C54.877 6.04833 55.1379 5.91787 55.2683 5.78742C56.5729 4.48289 58.3992 3.70017 60.0951 3.0479C61.6605 2.39563 63.226 1.74337 64.9219 1.48246C66.8787 1.22155 68.705 1.61291 70.5314 2.13473C75.2277 2.91745 80.5763 4.35243 83.5767 8.26604Z" fill="black"/>
<path d="M43.0057 40.7488C43.7884 41.2706 44.5712 41.9229 45.3539 42.5751C45.093 42.836 44.8321 42.836 44.4407 42.836C41.9621 42.7056 38.8312 43.4883 36.3526 44.1406C36.744 43.2274 37.1353 42.4447 37.7876 41.662C38.4399 40.8792 39.2226 40.3574 40.1357 40.0965C41.1794 39.9661 42.223 40.3574 43.0057 40.7488Z" fill="black"/>
<path d="M80.9682 91.495C74.4455 95.2781 69.2274 101.279 62.5742 103.627C62.3133 100.366 61.922 97.1045 61.6611 94.4954C63.0961 94.6259 64.4006 94.6259 65.8356 94.4954C71.0537 94.365 76.1414 93.3213 80.9682 91.495Z" fill="black"/>
<path d="M68.1835 39.8356C69.8794 40.6183 71.5753 41.5315 73.2712 42.3142C73.5321 42.4446 73.793 42.5751 73.6625 42.836C73.6625 42.9665 73.5321 42.9665 73.4016 43.0969C72.4885 43.8796 71.5753 44.5319 70.6621 45.3146C70.5317 45.4451 70.2707 45.5755 70.0098 45.706C69.6185 45.706 69.2271 45.4451 68.9662 45.1842C67.0094 43.3578 64.6613 42.0533 62.0522 41.5315C62.8349 41.1401 64.5308 40.3574 65.444 39.966C65.8353 39.7051 66.3571 39.5747 66.7485 39.4442C67.4008 39.4442 67.7921 39.7051 68.1835 39.8356Z" fill="black"/>
<path d="M50.1807 7.35276C50.0503 7.35276 50.0503 7.35276 50.1807 7.35276C42.7449 6.30913 35.0482 5.52641 28.6559 8.78775C27.8732 9.17911 27.0905 9.70092 26.4382 10.3532C24.4814 12.4404 24.4814 15.7018 25.5251 18.4413C26.5687 21.0504 28.395 23.3985 29.6996 25.8771C31.3955 28.7471 32.1782 31.878 32.7 35.1393C33.0914 38.4007 33.0914 41.7924 32.9609 45.1842" stroke="black" stroke-width="2" stroke-miterlimit="10"/>
<path d="M49.92 7.22249C49.92 7.22249 50.0504 7.22249 49.92 7.22249C52.2681 10.8752 54.3554 15.0497 57.7472 17.5283C58.0081 17.7892 58.3995 18.0501 58.7908 18.1806C59.8344 18.4415 60.8781 17.6588 61.7912 17.0065C62.0521 16.7456 62.3131 16.6151 62.3131 16.2238C62.3131 15.9629 62.1826 15.702 61.9217 15.4411C59.704 12.5711 57.3558 9.83156 55.1381 6.96158C54.8772 6.70068 54.7468 6.43977 54.7468 6.17886C54.7468 5.91796 55.0077 5.7875 55.1381 5.65705C56.4427 4.35252 58.269 3.5698 59.9649 2.91753C61.5303 2.26526 63.0958 1.613 64.7917 1.35209C66.7485 1.09118 68.5748 1.48254 70.4012 2.00436C75.3584 3.04798 80.5765 4.48297 83.5769 8.39657C83.5769 8.39657 83.577 8.39657 83.7074 8.52702" stroke="black" stroke-width="2" stroke-miterlimit="10"/>
<path d="M83.7073 8.26601C85.6641 7.35283 87.6209 6.43966 89.7081 6.17875C91.7954 5.91785 94.1435 6.43966 95.4481 8.13555C96.2308 9.04873 96.7526 10.3533 97.0135 11.6578C98.0571 15.4409 98.579 19.485 98.579 23.3986C98.579 27.5731 98.0571 31.7476 98.318 35.9221C98.579 39.9662 99.8835 44.2711 102.753 47.1411C102.753 47.2716 102.884 47.2716 102.884 47.2716" stroke="black" stroke-width="2" stroke-miterlimit="10"/>
<path d="M91.1434 63.7086C92.4479 63.7086 93.8829 63.4477 95.057 63.0564C97.2747 62.2736 99.362 60.8386 100.797 59.0123C103.145 56.1423 104.058 52.0983 103.145 48.4456C103.015 48.0542 102.884 47.6629 102.623 47.2715C102.232 46.8801 101.58 46.7497 100.927 46.6192C97.4052 46.3583 92.8393 45.7061 89.0562 45.7061C88.6648 45.7061 88.2734 45.7061 87.8821 45.7061" stroke="black" stroke-width="2" stroke-miterlimit="10"/>
<path d="M32.6999 35.1398C33.2217 33.5743 32.8303 31.748 33.6131 30.4435C38.3094 28.878 43.2666 27.9648 48.3543 27.5735C49.6588 27.443 50.9634 27.443 52.2679 27.7039C53.8333 28.0953 55.1379 28.878 56.5729 29.5303C59.9646 31.3566 63.8782 32.6612 67.6614 32.4003C70.5314 32.1393 73.1404 30.9653 75.7495 29.9216C76.6627 29.5303 77.5758 29.1389 78.489 28.7476C78.7499 28.6171 79.0108 28.4867 79.2717 28.6171C80.1849 28.6171 80.4458 29.9216 80.7067 30.8348C80.9676 31.6175 81.359 32.2698 81.7504 33.0525C84.229 37.3575 86.7076 41.532 89.3166 45.837C89.3166 45.837 89.3166 45.9674 89.4471 45.9674" stroke="black" stroke-width="2" stroke-miterlimit="10"/>
<path d="M32.8305 45.1843C33.0914 50.9243 33.7437 55.8815 34.0046 61.3605C34.135 66.8396 34.7873 72.4491 37.2659 77.4063C40.0054 82.7549 44.7018 86.7989 49.7894 90.0603C52.3985 91.7562 55.2685 93.3216 58.2689 93.9739C59.443 94.2348 60.4866 94.3652 61.6607 94.4957C63.0957 94.6261 64.4002 94.6261 65.8352 94.4957C71.0533 94.2348 76.141 93.1912 80.9678 91.4953" stroke="black" stroke-width="2" stroke-miterlimit="10"/>
<path d="M1 142.764C5.69632 131.284 13.9149 120.848 25.0034 115.108C36.092 109.368 49.92 108.585 60.8781 114.455C61.7913 114.847 62.574 115.369 63.3567 115.89C67.0094 118.238 70.4012 120.848 74.3148 122.935C79.0111 125.413 84.7511 126.718 89.5778 124.37" stroke="black" stroke-width="2" stroke-miterlimit="10"/>
<path d="M61.6608 94.4961C61.9217 96.9747 62.1826 100.236 62.574 103.628C62.9654 107.933 63.2263 112.499 63.4872 115.89V116.021" stroke="black" stroke-width="2" stroke-miterlimit="10"/>
<path d="M95.1871 63.3171C97.6657 74.2752 99.6225 85.2333 101.188 96.3218C101.84 101.149 102.362 106.106 101.449 110.933C101.318 111.715 101.057 112.498 100.797 113.281C99.1007 118.76 95.1871 122.021 89.4471 124.239" stroke="black" stroke-width="2" stroke-miterlimit="10"/>
<path d="M101.449 110.933C111.233 110.672 120.626 110.02 130.41 111.064C140.194 111.977 150.108 114.716 157.935 120.587C165.763 126.457 171.372 135.98 170.981 145.764" stroke="black" stroke-width="2" stroke-miterlimit="10"/>
<path d="M36.353 44.2715C36.7443 43.3583 37.1357 42.5756 37.788 41.7929C38.4402 41.0102 39.2229 40.4884 40.1361 40.2275C41.0493 40.097 42.0929 40.3579 43.0061 40.8797C43.7888 41.4015 44.5715 42.0538 45.3543 42.7061C45.0933 42.967 44.8324 42.967 44.4411 42.967C41.9625 42.8365 38.8316 43.4888 36.353 44.2715Z" stroke="black" stroke-width="2" stroke-miterlimit="10"/>
<path d="M62.1825 41.5317C62.9652 41.1404 64.6611 40.3576 65.5743 39.9663C65.9656 39.7054 66.4875 39.5749 66.8788 39.4445C67.4006 39.4445 67.792 39.5749 68.1834 39.8358C69.8792 40.6185 71.5751 41.5317 73.271 42.3144C73.5319 42.4449 73.7928 42.5753 73.6624 42.8362C73.6624 42.9667 73.5319 42.9667 73.4015 43.0972C72.4883 43.8799 71.5751 44.5321 70.662 45.3149C70.5315 45.4453 70.2706 45.5758 70.0097 45.7062C69.6183 45.7062 69.227 45.4453 68.9661 45.1844C67.2702 43.3581 64.7916 42.0535 62.1825 41.5317Z" stroke="black" stroke-width="2" stroke-miterlimit="10"/>
<path d="M62.5742 103.627C69.3578 101.279 74.4455 95.2784 80.9681 91.4952" stroke="black" stroke-width="2" stroke-miterlimit="10"/>
</svg>
