<svg width="164" height="149" viewBox="0 0 164 149" fill="none" xmlns="http://www.w3.org/2000/svg">
<path d="M29.0138 41.779C28.5894 41.779 28.1649 41.9205 27.599 41.9205L23.4959 41.3545C24.4863 34.9877 25.7597 28.4794 29.1553 22.9615C33.8243 15.1798 42.0304 10.5108 50.095 6.12481C55.7544 2.30473 63.1116 1.45582 69.7614 2.5877C76.5527 3.71957 82.778 6.97374 88.4374 10.6523C95.7946 15.6043 102.869 21.9711 105.274 30.6017C106.264 34.2803 106.406 38.3834 107.962 41.9205C109.802 46.3065 113.763 49.7021 116.734 53.3807C121.545 59.3231 124.092 66.9632 124.092 74.6034C124.092 77.0086 122.677 80.1213 120.413 79.2724C119.564 78.9894 119.14 78.1405 118.715 77.4331C116.876 74.4619 114.895 71.3493 113.056 68.3781C113.763 72.7641 114.046 77.1502 114.046 81.5362C112.631 80.1213 111.216 78.7065 109.66 77.2916C108.528 80.8288 104.425 82.2436 102.444 85.3562C100.747 87.903 100.605 91.1571 100.605 94.2698C100.605 99.6462 100.605 105.023 100.464 110.399H100.181C97.9169 95.4017 95.7946 80.2628 93.5308 65.2654C97.2094 65.2654 100.747 62.5772 101.737 59.0401C102.727 55.503 101.313 51.3999 98.1998 49.4191C96.0776 48.1458 93.5308 47.7213 91.4086 46.448C88.7204 44.7501 87.0225 41.9205 84.3343 40.3641C81.0802 38.5248 76.9771 38.9493 73.157 38.6663C67.4977 38.2418 61.9798 35.5536 57.8767 31.5921C56.3204 30.0357 54.9055 28.0549 54.4811 25.9327C53.3492 20.8392 57.1693 15.8873 57.4522 10.6523C55.6129 18.151 52.5003 25.6497 47.4068 31.5921C43.0208 36.9685 36.2295 41.0716 29.0138 41.779Z" fill="black"/>
<path d="M61.98 99.6464C69.6202 99.0805 77.1189 96.5337 83.2027 91.8647L83.4857 92.2892C82.7783 94.4115 81.0805 96.1093 79.3827 97.6656C75.987 100.778 72.5914 103.891 69.0543 107.004C65.8001 109.975 62.546 112.946 60.7067 116.908L60.2822 116.766C59.4333 111.956 59.1504 105.023 59.4333 100.071C60.2822 99.7879 61.1311 99.7879 61.98 99.6464Z" fill="black"/>
<path d="M61.9803 99.6461C61.1314 99.6461 60.2825 99.7876 59.4336 99.7876C59.4336 99.6461 59.4336 99.5046 59.4336 99.2217C60.2825 99.5046 61.1314 99.6461 61.9803 99.6461Z" fill="black"/>
<path d="M59.4333 99.2216C59.4333 99.3631 59.4333 99.5046 59.4333 99.7875C49.2464 99.929 38.918 96.3919 31.5608 89.3177C29.863 87.7614 27.1748 85.7805 25.477 87.3369C24.3451 88.3273 24.3451 90.1666 23.4962 91.157C21.9399 92.8548 18.9687 91.8644 17.9783 89.8836C16.8464 87.9028 17.2709 85.4976 17.5538 83.3753C19.5346 70.2172 21.5154 56.9177 23.3547 43.7596C23.4962 42.9107 23.6377 42.0618 23.7792 41.2129L27.8822 41.7788C28.3067 41.7788 28.8726 41.7788 29.2971 41.6373C29.7215 48.1456 30.2875 54.6539 30.7119 61.1622C31.1364 66.5386 31.4194 72.0565 33.2587 77.15C36.5128 87.7613 48.1145 96.9579 59.4333 99.2216Z" fill="black"/>
<path d="M50.3783 65.6899C50.5198 67.1047 50.2368 65.9728 49.5294 64.9824C48.9634 64.275 48.3975 63.5676 48.256 62.8602C47.9731 61.5868 48.3975 60.4549 48.9634 59.323C49.9538 56.9178 50.9442 54.3711 51.7931 51.9658C51.5102 54.3711 51.0857 59.4645 50.8027 61.8698C50.5198 62.8601 50.3783 64.4165 50.3783 65.6899Z" fill="black"/>
<path d="M51.3688 5.41748C50.9444 5.55897 50.6614 5.84193 50.2369 5.98341C42.1723 10.3694 34.1077 15.0385 29.2972 22.8201C25.9016 28.338 24.6282 34.8463 23.6378 41.2131C23.4963 42.062 23.3548 42.9109 23.2133 43.7598C21.2326 56.9179 19.2518 70.2175 17.4125 83.3756C17.1295 85.6393 16.8465 87.9031 17.8369 89.8839C18.9688 91.8647 21.94 92.855 23.3548 91.1572C24.3452 90.0253 24.3452 88.3275 25.3356 87.3371C27.1749 85.7808 29.7216 87.6201 31.4195 89.3179C38.7767 96.3922 49.1051 99.9293 59.292 99.7878C60.1409 99.7878 60.9898 99.7878 61.8387 99.6463C69.4788 99.0804 76.9775 96.5336 83.0614 91.8646C83.2029 91.7232 83.3444 91.7231 83.3444 91.5817" stroke="black" stroke-width="2" stroke-miterlimit="10"/>
<path d="M59.4333 99.2217C59.4333 99.3632 59.4333 99.5046 59.4333 99.7876C59.1504 104.74 59.4333 111.672 60.2822 116.483" stroke="black" stroke-width="2" stroke-miterlimit="10"/>
<path d="M1 147.892C4.6786 136.149 14.2996 126.953 25.6183 122.001C36.5127 117.19 48.6803 116.2 60.5651 117.19C60.9895 117.19 61.414 117.332 61.8384 117.332C70.186 118.181 78.5336 120.02 86.7397 118.464C91.4087 117.615 95.7948 115.775 100.322 114.643C100.605 114.502 100.888 114.502 101.313 114.36C125.79 108.277 153.662 122.567 163 146.053" stroke="black" stroke-width="2" stroke-miterlimit="10"/>
<path d="M50.0955 5.98321C55.7548 2.16313 63.112 1.31422 69.7618 2.4461C76.5531 3.57797 82.7784 6.83214 88.4378 10.5107C95.795 15.4627 102.869 21.8295 105.274 30.4601C106.265 34.1387 106.406 38.2418 107.963 41.7789C109.802 46.1649 113.764 49.5605 116.735 53.2391C121.545 59.1815 124.092 66.8217 124.092 74.4618C124.092 76.8671 122.677 79.9797 120.413 79.1308C119.564 78.8479 119.14 77.999 118.716 77.2915C116.876 74.3204 114.895 71.2077 113.056 68.2365C113.764 72.6225 114.047 77.0086 114.047 81.3946C112.632 79.9797 111.217 78.5649 109.661 77.15C108.529 80.6872 104.426 82.102 102.445 85.2146C100.747 87.7614 100.605 91.0155 100.605 94.1282C100.605 99.5046 100.606 104.881 100.464 110.257C100.464 110.965 100.464 111.531 100.464 112.238" stroke="black" stroke-width="2" stroke-miterlimit="10"/>
<path d="M29.0137 41.4961V41.6376C29.4382 48.1459 30.0041 54.6542 30.4285 61.1625C30.853 66.5389 31.136 72.0568 32.9753 77.1503C36.5124 87.7616 48.2556 96.9581 59.5744 99.2219C60.4233 99.3634 61.2722 99.5048 62.1211 99.6463" stroke="black" stroke-width="2" stroke-miterlimit="10"/>
<path d="M27.5988 41.779C28.0233 41.779 28.5892 41.779 29.0137 41.6375C36.2294 41.0716 43.0207 36.9685 47.8312 31.3091C52.9246 25.3668 55.8958 18.0096 57.8766 10.3694C57.5936 15.6043 53.632 20.4148 54.9054 25.6498C55.3298 27.772 56.7447 29.7528 58.301 31.3091C62.2626 35.4122 67.7805 37.9589 73.5814 38.3834C77.4015 38.6664 81.5045 38.2419 84.7587 40.0812C87.4469 41.6375 89.1447 44.6087 91.8329 46.165C93.9552 47.4384 96.5019 47.8628 98.6242 49.1362C101.737 51.117 103.293 55.2201 102.161 58.7572C101.171 62.2943 97.6338 64.9825 93.9552 64.9825C96.2189 79.9799 98.3412 95.1187 100.605 110.116" stroke="black" stroke-width="2" stroke-miterlimit="10"/>
<path d="M83.4857 92.2891C82.7783 94.4113 81.0805 96.1092 79.3827 97.6655C75.987 100.778 72.5914 103.891 69.0543 107.004C65.8001 109.975 62.546 112.946 60.7067 116.907C60.7067 116.907 60.7067 117.049 60.5652 117.049" stroke="black" stroke-width="2" stroke-miterlimit="10"/>
<path d="M51.6514 51.8242C50.8025 54.3709 49.8121 56.7762 48.8217 59.1814C48.3973 60.3133 47.8313 61.5866 48.1143 62.7185C48.2558 63.5674 48.8217 64.2748 49.3877 64.8408C50.2366 65.8312 50.3781 66.9631 50.2366 65.5482" stroke="black" stroke-width="2" stroke-miterlimit="10"/>
<path d="M50.378 66.114C50.378 65.9725 50.378 65.8311 50.378 65.6896C50.378 64.4162 50.5195 62.8599 50.661 61.5865C50.944 59.1813 51.5099 54.0879 51.6514 51.6826" stroke="black" stroke-width="2" stroke-miterlimit="10"/>
</svg>
