<svg width="206" height="104" viewBox="0 0 206 104" fill="none" xmlns="http://www.w3.org/2000/svg">
<path d="M39.801 1.19995H165.801C187.201 1.19995 204.501 18.5 204.501 39.9C204.501 61.3 187.201 78.5999 165.801 78.5999H66.901L40.401 102.7V78.5999H39.801C18.401 78.5999 1.10101 61.3 1.10101 39.9C1.10101 18.5 18.401 1.19995 39.801 1.19995Z" fill="white"/>
<path d="M39.801 1.19995H165.801C187.201 1.19995 204.501 18.5 204.501 39.9C204.501 61.3 187.201 78.5999 165.801 78.5999H66.901L40.401 102.7V78.5999H39.801C18.401 78.5999 1.10101 61.3 1.10101 39.9C1.10101 18.5 18.401 1.19995 39.801 1.19995Z" stroke="#020203" stroke-width="2" stroke-miterlimit="10" stroke-linecap="round" stroke-linejoin="round"/>
<path d="M136.601 40.5C136.601 44.3 139.601 47.3 143.401 47.3C147.201 47.3 150.201 44.3 150.201 40.5C150.201 36.7 147.201 33.7 143.401 33.7C139.601 33.7 136.601 36.7 136.601 40.5Z" fill="#1720FC"/>
<path d="M96.0015 40.5C96.0015 44.3 99.0016 47.3 102.802 47.3C106.602 47.3 109.602 44.3 109.602 40.5C109.602 36.7 106.602 33.7 102.802 33.7C99.0016 33.7 96.0015 36.7 96.0015 40.5Z" fill="#1720FC"/>
<path d="M55.401 40.5C55.401 44.3 58.401 47.3 62.201 47.3C66.001 47.3 69.001 44.3 69.001 40.5C69.001 36.7 66.001 33.7 62.201 33.7C58.401 33.7 55.401 36.7 55.401 40.5Z" fill="#1720FC"/>
</svg>
